<?xml version="1.0" encoding="UTF-8"?><svg xmlns="http://www.w3.org/2000/svg" xmlns:xlink="http://www.w3.org/1999/xlink" stroke-dasharray="none" shape-rendering="auto" font-family="'Dialog'" width="514" text-rendering="auto" fill-opacity="1" contentScriptType="text/ecmascript" color-interpolation="auto" color-rendering="auto" preserveAspectRatio="xMidYMid meet" font-size="12" fill="black" stroke="black" image-rendering="auto" stroke-miterlimit="10" zoomAndPan="magnify" version="1.0" stroke-linecap="square" stroke-linejoin="miter" contentStyleType="text/css" font-style="normal" height="435" stroke-width="1" stroke-dashoffset="0" font-weight="normal" stroke-opacity="1">
<!--Generated by the Batik Graphics2D SVG Generator-->
<defs id="genericDefs"/>
<g>
<defs id="defs1">
<clipPath clipPathUnits="userSpaceOnUse" id="clipPath1">
<path d="M27 22 L487 22 L487 413 L27 413 L27 22 Z"/>
</clipPath>
<clipPath clipPathUnits="userSpaceOnUse" id="clipPath2">
<path d="M-1 -1 L515 -1 L515 436 L-1 436 L-1 -1 Z"/>
</clipPath>
</defs>
<g font-size="15" fill="white" text-rendering="geometricPrecision" font-family="'Cantarell'" stroke-linejoin="round" stroke="white" stroke-width="0" stroke-miterlimit="0">
<rect x="28" y="23" clip-path="url(#clipPath1)" width="458" height="389" stroke="none"/>
</g>
<g stroke-linecap="butt" font-size="15" fill="rgb(204,204,204)" text-rendering="geometricPrecision" font-family="'Cantarell'" stroke-dasharray="3,3" stroke="rgb(204,204,204)">
<line clip-path="url(#clipPath1)" fill="none" x1="28" x2="486" y1="412" y2="412"/>
<line clip-path="url(#clipPath1)" fill="none" x1="28" x2="486" y1="348" y2="348"/>
<line clip-path="url(#clipPath1)" fill="none" x1="28" x2="486" y1="285" y2="285"/>
<line clip-path="url(#clipPath1)" fill="none" x1="28" x2="486" y1="221" y2="221"/>
<line clip-path="url(#clipPath1)" fill="none" x1="28" x2="486" y1="158" y2="158"/>
<line clip-path="url(#clipPath1)" fill="none" x1="28" x2="486" y1="94" y2="94"/>
<line clip-path="url(#clipPath1)" fill="none" x1="28" x2="486" y1="31" y2="31"/>
<line clip-path="url(#clipPath1)" fill="none" x1="-993" x2="-983" y1="412" y2="412" stroke-dasharray="none" stroke="black"/>
<line clip-path="url(#clipPath1)" fill="none" x1="-983" x2="-974" y1="412" y2="412" stroke-dasharray="none" stroke="black"/>
<line clip-path="url(#clipPath1)" fill="none" x1="-974" x2="-965" y1="412" y2="412" stroke-dasharray="none" stroke="black"/>
<line clip-path="url(#clipPath1)" fill="none" x1="-965" x2="-956" y1="412" y2="412" stroke-dasharray="none" stroke="black"/>
<line clip-path="url(#clipPath1)" fill="none" x1="-956" x2="-947" y1="412" y2="412" stroke-dasharray="none" stroke="black"/>
<line clip-path="url(#clipPath1)" fill="none" x1="-947" x2="-938" y1="412" y2="412" stroke-dasharray="none" stroke="black"/>
<line clip-path="url(#clipPath1)" fill="none" x1="-938" x2="-929" y1="412" y2="412" stroke-dasharray="none" stroke="black"/>
<line clip-path="url(#clipPath1)" fill="none" x1="-929" x2="-920" y1="412" y2="412" stroke-dasharray="none" stroke="black"/>
<line clip-path="url(#clipPath1)" fill="none" x1="-920" x2="-911" y1="412" y2="412" stroke-dasharray="none" stroke="black"/>
<line clip-path="url(#clipPath1)" fill="none" x1="-911" x2="-902" y1="412" y2="412" stroke-dasharray="none" stroke="black"/>
<line clip-path="url(#clipPath1)" fill="none" x1="-902" x2="-893" y1="412" y2="412" stroke-dasharray="none" stroke="black"/>
<line clip-path="url(#clipPath1)" fill="none" x1="-893" x2="-884" y1="412" y2="412" stroke-dasharray="none" stroke="black"/>
<line clip-path="url(#clipPath1)" fill="none" x1="-884" x2="-875" y1="412" y2="412" stroke-dasharray="none" stroke="black"/>
<line clip-path="url(#clipPath1)" fill="none" x1="-875" x2="-866" y1="412" y2="412" stroke-dasharray="none" stroke="black"/>
<line clip-path="url(#clipPath1)" fill="none" x1="-866" x2="-857" y1="412" y2="412" stroke-dasharray="none" stroke="black"/>
<line clip-path="url(#clipPath1)" fill="none" x1="-857" x2="-848" y1="412" y2="412" stroke-dasharray="none" stroke="black"/>
<line clip-path="url(#clipPath1)" fill="none" x1="-848" x2="-839" y1="412" y2="412" stroke-dasharray="none" stroke="black"/>
<line clip-path="url(#clipPath1)" fill="none" x1="-839" x2="-830" y1="412" y2="412" stroke-dasharray="none" stroke="black"/>
<line clip-path="url(#clipPath1)" fill="none" x1="-830" x2="-821" y1="412" y2="412" stroke-dasharray="none" stroke="black"/>
<line clip-path="url(#clipPath1)" fill="none" x1="-821" x2="-812" y1="412" y2="412" stroke-dasharray="none" stroke="black"/>
<line clip-path="url(#clipPath1)" fill="none" x1="-812" x2="-803" y1="412" y2="412" stroke-dasharray="none" stroke="black"/>
<line clip-path="url(#clipPath1)" fill="none" x1="-803" x2="-793" y1="412" y2="412" stroke-dasharray="none" stroke="black"/>
<line clip-path="url(#clipPath1)" fill="none" x1="-793" x2="-784" y1="412" y2="412" stroke-dasharray="none" stroke="black"/>
<line clip-path="url(#clipPath1)" fill="none" x1="-784" x2="-775" y1="412" y2="412" stroke-dasharray="none" stroke="black"/>
<line clip-path="url(#clipPath1)" fill="none" x1="-775" x2="-766" y1="412" y2="412" stroke-dasharray="none" stroke="black"/>
<line clip-path="url(#clipPath1)" fill="none" x1="-766" x2="-757" y1="412" y2="412" stroke-dasharray="none" stroke="black"/>
<line clip-path="url(#clipPath1)" fill="none" x1="-757" x2="-748" y1="412" y2="412" stroke-dasharray="none" stroke="black"/>
<line clip-path="url(#clipPath1)" fill="none" x1="-748" x2="-739" y1="412" y2="412" stroke-dasharray="none" stroke="black"/>
<line clip-path="url(#clipPath1)" fill="none" x1="-739" x2="-730" y1="412" y2="412" stroke-dasharray="none" stroke="black"/>
<line clip-path="url(#clipPath1)" fill="none" x1="-730" x2="-721" y1="412" y2="412" stroke-dasharray="none" stroke="black"/>
<line clip-path="url(#clipPath1)" fill="none" x1="-721" x2="-712" y1="412" y2="412" stroke-dasharray="none" stroke="black"/>
<line clip-path="url(#clipPath1)" fill="none" x1="-712" x2="-703" y1="412" y2="412" stroke-dasharray="none" stroke="black"/>
<line clip-path="url(#clipPath1)" fill="none" x1="-703" x2="-694" y1="412" y2="412" stroke-dasharray="none" stroke="black"/>
<line clip-path="url(#clipPath1)" fill="none" x1="-694" x2="-685" y1="412" y2="412" stroke-dasharray="none" stroke="black"/>
<line clip-path="url(#clipPath1)" fill="none" x1="-685" x2="-676" y1="412" y2="412" stroke-dasharray="none" stroke="black"/>
<line clip-path="url(#clipPath1)" fill="none" x1="-676" x2="-667" y1="412" y2="412" stroke-dasharray="none" stroke="black"/>
<line clip-path="url(#clipPath1)" fill="none" x1="-667" x2="-658" y1="412" y2="412" stroke-dasharray="none" stroke="black"/>
<line clip-path="url(#clipPath1)" fill="none" x1="-658" x2="-649" y1="412" y2="412" stroke-dasharray="none" stroke="black"/>
<line clip-path="url(#clipPath1)" fill="none" x1="-649" x2="-640" y1="412" y2="412" stroke-dasharray="none" stroke="black"/>
<line clip-path="url(#clipPath1)" fill="none" x1="-640" x2="-631" y1="412" y2="412" stroke-dasharray="none" stroke="black"/>
<line clip-path="url(#clipPath1)" fill="none" x1="-631" x2="-622" y1="412" y2="412" stroke-dasharray="none" stroke="black"/>
<line clip-path="url(#clipPath1)" fill="none" x1="-622" x2="-613" y1="412" y2="412" stroke-dasharray="none" stroke="black"/>
<line clip-path="url(#clipPath1)" fill="none" x1="-613" x2="-603" y1="412" y2="412" stroke-dasharray="none" stroke="black"/>
<line clip-path="url(#clipPath1)" fill="none" x1="-603" x2="-594" y1="412" y2="412" stroke-dasharray="none" stroke="black"/>
<line clip-path="url(#clipPath1)" fill="none" x1="-594" x2="-585" y1="412" y2="412" stroke-dasharray="none" stroke="black"/>
<line clip-path="url(#clipPath1)" fill="none" x1="-585" x2="-576" y1="412" y2="412" stroke-dasharray="none" stroke="black"/>
<line clip-path="url(#clipPath1)" fill="none" x1="-576" x2="-567" y1="412" y2="412" stroke-dasharray="none" stroke="black"/>
<line clip-path="url(#clipPath1)" fill="none" x1="-567" x2="-558" y1="412" y2="412" stroke-dasharray="none" stroke="black"/>
<line clip-path="url(#clipPath1)" fill="none" x1="-558" x2="-549" y1="412" y2="412" stroke-dasharray="none" stroke="black"/>
<line clip-path="url(#clipPath1)" fill="none" x1="-549" x2="-540" y1="412" y2="412" stroke-dasharray="none" stroke="black"/>
<line clip-path="url(#clipPath1)" fill="none" x1="-540" x2="-531" y1="412" y2="412" stroke-dasharray="none" stroke="black"/>
<line clip-path="url(#clipPath1)" fill="none" x1="-531" x2="-522" y1="412" y2="412" stroke-dasharray="none" stroke="black"/>
<line clip-path="url(#clipPath1)" fill="none" x1="-522" x2="-513" y1="412" y2="412" stroke-dasharray="none" stroke="black"/>
<line clip-path="url(#clipPath1)" fill="none" x1="-513" x2="-504" y1="412" y2="412" stroke-dasharray="none" stroke="black"/>
<line clip-path="url(#clipPath1)" fill="none" x1="-504" x2="-495" y1="412" y2="412" stroke-dasharray="none" stroke="black"/>
<line clip-path="url(#clipPath1)" fill="none" x1="-495" x2="-486" y1="412" y2="412" stroke-dasharray="none" stroke="black"/>
<line clip-path="url(#clipPath1)" fill="none" x1="-486" x2="-477" y1="412" y2="412" stroke-dasharray="none" stroke="black"/>
<line clip-path="url(#clipPath1)" fill="none" x1="-477" x2="-468" y1="412" y2="412" stroke-dasharray="none" stroke="black"/>
<line clip-path="url(#clipPath1)" fill="none" x1="-468" x2="-459" y1="412" y2="412" stroke-dasharray="none" stroke="black"/>
<line clip-path="url(#clipPath1)" fill="none" x1="-459" x2="-450" y1="412" y2="412" stroke-dasharray="none" stroke="black"/>
<line clip-path="url(#clipPath1)" fill="none" x1="-450" x2="-441" y1="412" y2="412" stroke-dasharray="none" stroke="black"/>
<line clip-path="url(#clipPath1)" fill="none" x1="-441" x2="-432" y1="412" y2="412" stroke-dasharray="none" stroke="black"/>
<line clip-path="url(#clipPath1)" fill="none" x1="-432" x2="-423" y1="412" y2="412" stroke-dasharray="none" stroke="black"/>
<line clip-path="url(#clipPath1)" fill="none" x1="-423" x2="-413" y1="412" y2="412" stroke-dasharray="none" stroke="black"/>
<line clip-path="url(#clipPath1)" fill="none" x1="-413" x2="-404" y1="412" y2="412" stroke-dasharray="none" stroke="black"/>
<line clip-path="url(#clipPath1)" fill="none" x1="-404" x2="-395" y1="412" y2="412" stroke-dasharray="none" stroke="black"/>
<line clip-path="url(#clipPath1)" fill="none" x1="-395" x2="-386" y1="412" y2="412" stroke-dasharray="none" stroke="black"/>
<line clip-path="url(#clipPath1)" fill="none" x1="-386" x2="-377" y1="412" y2="412" stroke-dasharray="none" stroke="black"/>
<line clip-path="url(#clipPath1)" fill="none" x1="-377" x2="-368" y1="412" y2="412" stroke-dasharray="none" stroke="black"/>
<line clip-path="url(#clipPath1)" fill="none" x1="-368" x2="-359" y1="412" y2="412" stroke-dasharray="none" stroke="black"/>
<line clip-path="url(#clipPath1)" fill="none" x1="-359" x2="-350" y1="412" y2="412" stroke-dasharray="none" stroke="black"/>
<line clip-path="url(#clipPath1)" fill="none" x1="-350" x2="-341" y1="412" y2="412" stroke-dasharray="none" stroke="black"/>
<line clip-path="url(#clipPath1)" fill="none" x1="-341" x2="-332" y1="412" y2="412" stroke-dasharray="none" stroke="black"/>
<line clip-path="url(#clipPath1)" fill="none" x1="-332" x2="-323" y1="412" y2="412" stroke-dasharray="none" stroke="black"/>
<line clip-path="url(#clipPath1)" fill="none" x1="-323" x2="-314" y1="412" y2="412" stroke-dasharray="none" stroke="black"/>
<line clip-path="url(#clipPath1)" fill="none" x1="-314" x2="-305" y1="412" y2="412" stroke-dasharray="none" stroke="black"/>
<line clip-path="url(#clipPath1)" fill="none" x1="-305" x2="-296" y1="412" y2="412" stroke-dasharray="none" stroke="black"/>
<line clip-path="url(#clipPath1)" fill="none" x1="-296" x2="-287" y1="412" y2="412" stroke-dasharray="none" stroke="black"/>
<line clip-path="url(#clipPath1)" fill="none" x1="-287" x2="-278" y1="412" y2="412" stroke-dasharray="none" stroke="black"/>
<line clip-path="url(#clipPath1)" fill="none" x1="-278" x2="-269" y1="412" y2="412" stroke-dasharray="none" stroke="black"/>
<line clip-path="url(#clipPath1)" fill="none" x1="-269" x2="-260" y1="412" y2="412" stroke-dasharray="none" stroke="black"/>
<line clip-path="url(#clipPath1)" fill="none" x1="-260" x2="-251" y1="412" y2="412" stroke-dasharray="none" stroke="black"/>
<line clip-path="url(#clipPath1)" fill="none" x1="-251" x2="-242" y1="412" y2="412" stroke-dasharray="none" stroke="black"/>
<line clip-path="url(#clipPath1)" fill="none" x1="-242" x2="-233" y1="412" y2="412" stroke-dasharray="none" stroke="black"/>
<line clip-path="url(#clipPath1)" fill="none" x1="-233" x2="-224" y1="412" y2="412" stroke-dasharray="none" stroke="black"/>
<line clip-path="url(#clipPath1)" fill="none" x1="-224" x2="-214" y1="412" y2="412" stroke-dasharray="none" stroke="black"/>
<line clip-path="url(#clipPath1)" fill="none" x1="-214" x2="-205" y1="412" y2="412" stroke-dasharray="none" stroke="black"/>
<line clip-path="url(#clipPath1)" fill="none" x1="-205" x2="-196" y1="412" y2="412" stroke-dasharray="none" stroke="black"/>
<line clip-path="url(#clipPath1)" fill="none" x1="-196" x2="-187" y1="412" y2="412" stroke-dasharray="none" stroke="black"/>
<line clip-path="url(#clipPath1)" fill="none" x1="-187" x2="-178" y1="412" y2="412" stroke-dasharray="none" stroke="black"/>
<line clip-path="url(#clipPath1)" fill="none" x1="-178" x2="-169" y1="412" y2="412" stroke-dasharray="none" stroke="black"/>
<line clip-path="url(#clipPath1)" fill="none" x1="-169" x2="-160" y1="412" y2="412" stroke-dasharray="none" stroke="black"/>
<line clip-path="url(#clipPath1)" fill="none" x1="-160" x2="-151" y1="412" y2="412" stroke-dasharray="none" stroke="black"/>
<line clip-path="url(#clipPath1)" fill="none" x1="-151" x2="-142" y1="412" y2="412" stroke-dasharray="none" stroke="black"/>
<line clip-path="url(#clipPath1)" fill="none" x1="-142" x2="-133" y1="412" y2="412" stroke-dasharray="none" stroke="black"/>
<line clip-path="url(#clipPath1)" fill="none" x1="-133" x2="-124" y1="412" y2="412" stroke-dasharray="none" stroke="black"/>
<line clip-path="url(#clipPath1)" fill="none" x1="-124" x2="-115" y1="412" y2="412" stroke-dasharray="none" stroke="black"/>
<line clip-path="url(#clipPath1)" fill="none" x1="-115" x2="-106" y1="412" y2="412" stroke-dasharray="none" stroke="black"/>
<line clip-path="url(#clipPath1)" fill="none" x1="-106" x2="-97" y1="412" y2="412" stroke-dasharray="none" stroke="black"/>
<line clip-path="url(#clipPath1)" fill="none" x1="-97" x2="-88" y1="412" y2="412" stroke-dasharray="none" stroke="black"/>
<line clip-path="url(#clipPath1)" fill="none" x1="-88" x2="-79" y1="412" y2="412" stroke-dasharray="none" stroke="black"/>
<line clip-path="url(#clipPath1)" fill="none" x1="-79" x2="-70" y1="412" y2="412" stroke-dasharray="none" stroke="black"/>
<line clip-path="url(#clipPath1)" fill="none" x1="-70" x2="-61" y1="412" y2="412" stroke-dasharray="none" stroke="black"/>
<line clip-path="url(#clipPath1)" fill="none" x1="-61" x2="-52" y1="412" y2="412" stroke-dasharray="none" stroke="black"/>
<line clip-path="url(#clipPath1)" fill="none" x1="-52" x2="-43" y1="412" y2="412" stroke-dasharray="none" stroke="black"/>
<line clip-path="url(#clipPath1)" fill="none" x1="-43" x2="-34" y1="412" y2="412" stroke-dasharray="none" stroke="black"/>
<line clip-path="url(#clipPath1)" fill="none" x1="-34" x2="-24" y1="412" y2="412" stroke-dasharray="none" stroke="black"/>
<line clip-path="url(#clipPath1)" fill="none" x1="-24" x2="-15" y1="412" y2="412" stroke-dasharray="none" stroke="black"/>
<line clip-path="url(#clipPath1)" fill="none" x1="-15" x2="-6" y1="412" y2="412" stroke-dasharray="none" stroke="black"/>
<line clip-path="url(#clipPath1)" fill="none" x1="-6" x2="2" y1="412" y2="412" stroke-dasharray="none" stroke="black"/>
<line clip-path="url(#clipPath1)" fill="none" x1="2" x2="11" y1="412" y2="412" stroke-dasharray="none" stroke="black"/>
<line clip-path="url(#clipPath1)" fill="none" x1="11" x2="20" y1="412" y2="412" stroke-dasharray="none" stroke="black"/>
<line clip-path="url(#clipPath1)" fill="none" x1="20" x2="29" y1="412" y2="412" stroke-dasharray="none" stroke="black"/>
<line clip-path="url(#clipPath1)" fill="none" x1="29" x2="38" y1="412" y2="412" stroke-dasharray="none" stroke="black"/>
<line clip-path="url(#clipPath1)" fill="none" x1="38" x2="47" y1="412" y2="412" stroke-dasharray="none" stroke="black"/>
<line clip-path="url(#clipPath1)" fill="none" x1="47" x2="56" y1="412" y2="412" stroke-dasharray="none" stroke="black"/>
<line clip-path="url(#clipPath1)" fill="none" x1="56" x2="65" y1="412" y2="412" stroke-dasharray="none" stroke="black"/>
<line clip-path="url(#clipPath1)" fill="none" x1="65" x2="74" y1="412" y2="412" stroke-dasharray="none" stroke="black"/>
<line clip-path="url(#clipPath1)" fill="none" x1="74" x2="83" y1="412" y2="412" stroke-dasharray="none" stroke="black"/>
<line clip-path="url(#clipPath1)" fill="none" x1="83" x2="92" y1="412" y2="412" stroke-dasharray="none" stroke="black"/>
<line clip-path="url(#clipPath1)" fill="none" x1="92" x2="101" y1="412" y2="412" stroke-dasharray="none" stroke="black"/>
<rect x="101" y="386" clip-path="url(#clipPath1)" fill="rgb(0,0,139)" width="9" stroke-dasharray="none" height="26" stroke="none"/>
<rect x="101" y="386" clip-path="url(#clipPath1)" fill="none" width="9" stroke-dasharray="none" height="26" stroke="black"/>
<line clip-path="url(#clipPath1)" fill="none" x1="110" x2="119" y1="412" y2="412" stroke-dasharray="none" stroke="black"/>
<line clip-path="url(#clipPath1)" fill="none" x1="119" x2="128" y1="412" y2="412" stroke-dasharray="none" stroke="black"/>
<line clip-path="url(#clipPath1)" fill="none" x1="128" x2="137" y1="412" y2="412" stroke-dasharray="none" stroke="black"/>
<line clip-path="url(#clipPath1)" fill="none" x1="137" x2="146" y1="412" y2="412" stroke-dasharray="none" stroke="black"/>
<line clip-path="url(#clipPath1)" fill="none" x1="146" x2="155" y1="412" y2="412" stroke-dasharray="none" stroke="black"/>
<line clip-path="url(#clipPath1)" fill="none" x1="155" x2="165" y1="412" y2="412" stroke-dasharray="none" stroke="black"/>
<line clip-path="url(#clipPath1)" fill="none" x1="165" x2="174" y1="412" y2="412" stroke-dasharray="none" stroke="black"/>
<rect x="174" y="399" clip-path="url(#clipPath1)" fill="rgb(0,0,139)" width="9" stroke-dasharray="none" height="13" stroke="none"/>
<rect x="174" y="399" clip-path="url(#clipPath1)" fill="none" width="9" stroke-dasharray="none" height="13" stroke="black"/>
<rect x="183" y="348" clip-path="url(#clipPath1)" fill="rgb(0,0,139)" width="9" stroke-dasharray="none" height="64" stroke="none"/>
<rect x="183" y="348" clip-path="url(#clipPath1)" fill="none" width="9" stroke-dasharray="none" height="64" stroke="black"/>
<rect x="192" y="323" clip-path="url(#clipPath1)" fill="rgb(0,0,139)" width="9" stroke-dasharray="none" height="89" stroke="none"/>
<rect x="192" y="323" clip-path="url(#clipPath1)" fill="none" width="9" stroke-dasharray="none" height="89" stroke="black"/>
<rect x="201" y="297" clip-path="url(#clipPath1)" fill="rgb(0,0,139)" width="9" stroke-dasharray="none" height="115" stroke="none"/>
<rect x="201" y="297" clip-path="url(#clipPath1)" fill="none" width="9" stroke-dasharray="none" height="115" stroke="black"/>
<rect x="210" y="285" clip-path="url(#clipPath1)" fill="rgb(0,0,139)" width="9" stroke-dasharray="none" height="127" stroke="none"/>
<rect x="210" y="285" clip-path="url(#clipPath1)" fill="none" width="9" stroke-dasharray="none" height="127" stroke="black"/>
<rect x="219" y="272" clip-path="url(#clipPath1)" fill="rgb(0,0,139)" width="9" stroke-dasharray="none" height="140" stroke="none"/>
<rect x="219" y="272" clip-path="url(#clipPath1)" fill="none" width="9" stroke-dasharray="none" height="140" stroke="black"/>
<rect x="228" y="234" clip-path="url(#clipPath1)" fill="rgb(0,0,139)" width="9" stroke-dasharray="none" height="178" stroke="none"/>
<rect x="228" y="234" clip-path="url(#clipPath1)" fill="none" width="9" stroke-dasharray="none" height="178" stroke="black"/>
<rect x="237" y="209" clip-path="url(#clipPath1)" fill="rgb(0,0,139)" width="9" stroke-dasharray="none" height="203" stroke="none"/>
<rect x="237" y="209" clip-path="url(#clipPath1)" fill="none" width="9" stroke-dasharray="none" height="203" stroke="black"/>
<rect x="246" y="259" clip-path="url(#clipPath1)" fill="rgb(0,0,139)" width="9" stroke-dasharray="none" height="153" stroke="none"/>
<rect x="246" y="259" clip-path="url(#clipPath1)" fill="none" width="9" stroke-dasharray="none" height="153" stroke="black"/>
<rect x="255" y="196" clip-path="url(#clipPath1)" fill="rgb(0,0,139)" width="9" stroke-dasharray="none" height="216" stroke="none"/>
<rect x="255" y="196" clip-path="url(#clipPath1)" fill="none" width="9" stroke-dasharray="none" height="216" stroke="black"/>
<rect x="264" y="120" clip-path="url(#clipPath1)" fill="rgb(0,0,139)" width="9" stroke-dasharray="none" height="292" stroke="none"/>
<rect x="264" y="120" clip-path="url(#clipPath1)" fill="none" width="9" stroke-dasharray="none" height="292" stroke="black"/>
<rect x="273" y="297" clip-path="url(#clipPath1)" fill="rgb(0,0,139)" width="9" stroke-dasharray="none" height="115" stroke="none"/>
<rect x="273" y="297" clip-path="url(#clipPath1)" fill="none" width="9" stroke-dasharray="none" height="115" stroke="black"/>
<rect x="282" y="170" clip-path="url(#clipPath1)" fill="rgb(0,0,139)" width="9" stroke-dasharray="none" height="242" stroke="none"/>
<rect x="282" y="170" clip-path="url(#clipPath1)" fill="none" width="9" stroke-dasharray="none" height="242" stroke="black"/>
<rect x="291" y="259" clip-path="url(#clipPath1)" fill="rgb(0,0,139)" width="9" stroke-dasharray="none" height="153" stroke="none"/>
<rect x="291" y="259" clip-path="url(#clipPath1)" fill="none" width="9" stroke-dasharray="none" height="153" stroke="black"/>
<rect x="300" y="183" clip-path="url(#clipPath1)" fill="rgb(0,0,139)" width="9" stroke-dasharray="none" height="229" stroke="none"/>
<rect x="300" y="183" clip-path="url(#clipPath1)" fill="none" width="9" stroke-dasharray="none" height="229" stroke="black"/>
<rect x="309" y="247" clip-path="url(#clipPath1)" fill="rgb(0,0,139)" width="9" stroke-dasharray="none" height="165" stroke="none"/>
<rect x="309" y="247" clip-path="url(#clipPath1)" fill="none" width="9" stroke-dasharray="none" height="165" stroke="black"/>
<rect x="318" y="259" clip-path="url(#clipPath1)" fill="rgb(0,0,139)" width="9" stroke-dasharray="none" height="153" stroke="none"/>
<rect x="318" y="259" clip-path="url(#clipPath1)" fill="none" width="9" stroke-dasharray="none" height="153" stroke="black"/>
<rect x="327" y="310" clip-path="url(#clipPath1)" fill="rgb(0,0,139)" width="9" stroke-dasharray="none" height="102" stroke="none"/>
<rect x="327" y="310" clip-path="url(#clipPath1)" fill="none" width="9" stroke-dasharray="none" height="102" stroke="black"/>
<rect x="336" y="170" clip-path="url(#clipPath1)" fill="rgb(0,0,139)" width="9" stroke-dasharray="none" height="242" stroke="none"/>
<rect x="336" y="170" clip-path="url(#clipPath1)" fill="none" width="9" stroke-dasharray="none" height="242" stroke="black"/>
<rect x="345" y="259" clip-path="url(#clipPath1)" fill="rgb(0,0,139)" width="9" stroke-dasharray="none" height="153" stroke="none"/>
<rect x="345" y="259" clip-path="url(#clipPath1)" fill="none" width="9" stroke-dasharray="none" height="153" stroke="black"/>
<rect x="354" y="209" clip-path="url(#clipPath1)" fill="rgb(0,0,139)" width="10" stroke-dasharray="none" height="203" stroke="none"/>
<rect x="354" y="209" clip-path="url(#clipPath1)" fill="none" width="10" stroke-dasharray="none" height="203" stroke="black"/>
<rect x="364" y="310" clip-path="url(#clipPath1)" fill="rgb(0,0,139)" width="9" stroke-dasharray="none" height="102" stroke="none"/>
<rect x="364" y="310" clip-path="url(#clipPath1)" fill="none" width="9" stroke-dasharray="none" height="102" stroke="black"/>
<rect x="373" y="361" clip-path="url(#clipPath1)" fill="rgb(0,0,139)" width="9" stroke-dasharray="none" height="51" stroke="none"/>
<rect x="373" y="361" clip-path="url(#clipPath1)" fill="none" width="9" stroke-dasharray="none" height="51" stroke="black"/>
<rect x="382" y="373" clip-path="url(#clipPath1)" fill="rgb(0,0,139)" width="9" stroke-dasharray="none" height="39" stroke="none"/>
<rect x="382" y="373" clip-path="url(#clipPath1)" fill="none" width="9" stroke-dasharray="none" height="39" stroke="black"/>
<rect x="391" y="386" clip-path="url(#clipPath1)" fill="rgb(0,0,139)" width="9" stroke-dasharray="none" height="26" stroke="none"/>
<rect x="391" y="386" clip-path="url(#clipPath1)" fill="none" width="9" stroke-dasharray="none" height="26" stroke="black"/>
<line clip-path="url(#clipPath1)" fill="none" x1="400" x2="409" y1="412" y2="412" stroke-dasharray="none" stroke="black"/>
<line clip-path="url(#clipPath1)" fill="none" x1="409" x2="418" y1="412" y2="412" stroke-dasharray="none" stroke="black"/>
<line clip-path="url(#clipPath1)" fill="none" x1="418" x2="427" y1="412" y2="412" stroke-dasharray="none" stroke="black"/>
<line clip-path="url(#clipPath1)" fill="none" x1="427" x2="436" y1="412" y2="412" stroke-dasharray="none" stroke="black"/>
<line clip-path="url(#clipPath1)" fill="none" x1="436" x2="445" y1="412" y2="412" stroke-dasharray="none" stroke="black"/>
<line clip-path="url(#clipPath1)" fill="none" x1="445" x2="454" y1="412" y2="412" stroke-dasharray="none" stroke="black"/>
<line clip-path="url(#clipPath1)" fill="none" x1="454" x2="463" y1="412" y2="412" stroke-dasharray="none" stroke="black"/>
<line clip-path="url(#clipPath1)" fill="none" x1="463" x2="472" y1="412" y2="412" stroke-dasharray="none" stroke="black"/>
<line clip-path="url(#clipPath1)" fill="none" x1="472" x2="481" y1="412" y2="412" stroke-dasharray="none" stroke="black"/>
<line clip-path="url(#clipPath1)" fill="none" x1="481" x2="490" y1="412" y2="412" stroke-dasharray="none" stroke="black"/>
<line clip-path="url(#clipPath1)" fill="none" x1="490" x2="499" y1="412" y2="412" stroke-dasharray="none" stroke="black"/>
<line clip-path="url(#clipPath1)" fill="none" x1="499" x2="508" y1="412" y2="412" stroke-dasharray="none" stroke="black"/>
<line clip-path="url(#clipPath1)" fill="none" x1="508" x2="517" y1="412" y2="412" stroke-dasharray="none" stroke="black"/>
<line clip-path="url(#clipPath1)" fill="none" x1="517" x2="526" y1="412" y2="412" stroke-dasharray="none" stroke="black"/>
<line clip-path="url(#clipPath1)" fill="none" x1="526" x2="535" y1="412" y2="412" stroke-dasharray="none" stroke="black"/>
<line clip-path="url(#clipPath1)" fill="none" x1="535" x2="544" y1="412" y2="412" stroke-dasharray="none" stroke="black"/>
<line clip-path="url(#clipPath1)" fill="none" x1="544" x2="554" y1="412" y2="412" stroke-dasharray="none" stroke="black"/>
<line clip-path="url(#clipPath1)" fill="none" x1="554" x2="563" y1="412" y2="412" stroke-dasharray="none" stroke="black"/>
<line clip-path="url(#clipPath1)" fill="none" x1="563" x2="572" y1="412" y2="412" stroke-dasharray="none" stroke="black"/>
<line clip-path="url(#clipPath1)" fill="none" x1="572" x2="581" y1="412" y2="412" stroke-dasharray="none" stroke="black"/>
<line clip-path="url(#clipPath1)" fill="none" x1="581" x2="590" y1="412" y2="412" stroke-dasharray="none" stroke="black"/>
<line clip-path="url(#clipPath1)" fill="none" x1="590" x2="599" y1="412" y2="412" stroke-dasharray="none" stroke="black"/>
<line clip-path="url(#clipPath1)" fill="none" x1="599" x2="608" y1="412" y2="412" stroke-dasharray="none" stroke="black"/>
<line clip-path="url(#clipPath1)" fill="none" x1="608" x2="617" y1="412" y2="412" stroke-dasharray="none" stroke="black"/>
<line clip-path="url(#clipPath1)" fill="none" x1="617" x2="626" y1="412" y2="412" stroke-dasharray="none" stroke="black"/>
<line clip-path="url(#clipPath1)" fill="none" x1="626" x2="635" y1="412" y2="412" stroke-dasharray="none" stroke="black"/>
<line clip-path="url(#clipPath1)" fill="none" x1="635" x2="644" y1="412" y2="412" stroke-dasharray="none" stroke="black"/>
<line clip-path="url(#clipPath1)" fill="none" x1="644" x2="653" y1="412" y2="412" stroke-dasharray="none" stroke="black"/>
<line clip-path="url(#clipPath1)" fill="none" x1="653" x2="662" y1="412" y2="412" stroke-dasharray="none" stroke="black"/>
<line clip-path="url(#clipPath1)" fill="none" x1="662" x2="671" y1="412" y2="412" stroke-dasharray="none" stroke="black"/>
<line clip-path="url(#clipPath1)" fill="none" x1="671" x2="680" y1="412" y2="412" stroke-dasharray="none" stroke="black"/>
<line clip-path="url(#clipPath1)" fill="none" x1="680" x2="689" y1="412" y2="412" stroke-dasharray="none" stroke="black"/>
<line clip-path="url(#clipPath1)" fill="none" x1="689" x2="698" y1="412" y2="412" stroke-dasharray="none" stroke="black"/>
<line clip-path="url(#clipPath1)" fill="none" x1="698" x2="707" y1="412" y2="412" stroke-dasharray="none" stroke="black"/>
<line clip-path="url(#clipPath1)" fill="none" x1="707" x2="716" y1="412" y2="412" stroke-dasharray="none" stroke="black"/>
<line clip-path="url(#clipPath1)" fill="none" x1="716" x2="725" y1="412" y2="412" stroke-dasharray="none" stroke="black"/>
<line clip-path="url(#clipPath1)" fill="none" x1="725" x2="734" y1="412" y2="412" stroke-dasharray="none" stroke="black"/>
<line clip-path="url(#clipPath1)" fill="none" x1="734" x2="744" y1="412" y2="412" stroke-dasharray="none" stroke="black"/>
<line clip-path="url(#clipPath1)" fill="none" x1="744" x2="753" y1="412" y2="412" stroke-dasharray="none" stroke="black"/>
<line clip-path="url(#clipPath1)" fill="none" x1="753" x2="762" y1="412" y2="412" stroke-dasharray="none" stroke="black"/>
<line clip-path="url(#clipPath1)" fill="none" x1="762" x2="771" y1="412" y2="412" stroke-dasharray="none" stroke="black"/>
<line clip-path="url(#clipPath1)" fill="none" x1="771" x2="780" y1="412" y2="412" stroke-dasharray="none" stroke="black"/>
<line clip-path="url(#clipPath1)" fill="none" x1="780" x2="789" y1="412" y2="412" stroke-dasharray="none" stroke="black"/>
<line clip-path="url(#clipPath1)" fill="none" x1="789" x2="798" y1="412" y2="412" stroke-dasharray="none" stroke="black"/>
<line clip-path="url(#clipPath1)" fill="none" x1="798" x2="807" y1="412" y2="412" stroke-dasharray="none" stroke="black"/>
<line clip-path="url(#clipPath1)" fill="none" x1="807" x2="816" y1="412" y2="412" stroke-dasharray="none" stroke="black"/>
<rect x="28" y="23" clip-path="url(#clipPath2)" fill="none" width="458" stroke-dasharray="none" height="389" stroke="black"/>
</g>
<g text-rendering="geometricPrecision" font-size="13" stroke-linecap="butt">
<line clip-path="url(#clipPath2)" fill="none" x1="28" x2="486" y1="21" y2="21"/>
<line clip-path="url(#clipPath2)" fill="none" x1="28" x2="486" y1="414" y2="414"/>
<line clip-path="url(#clipPath2)" fill="none" x1="33" x2="33" y1="19" y2="21"/>
<line clip-path="url(#clipPath2)" fill="none" x1="33" x2="33" y1="416" y2="414"/>
<line clip-path="url(#clipPath2)" fill="none" x1="55" x2="55" y1="19" y2="21"/>
<line clip-path="url(#clipPath2)" fill="none" x1="55" x2="55" y1="416" y2="414"/>
<line clip-path="url(#clipPath2)" fill="none" x1="77" x2="77" y1="19" y2="21"/>
<line clip-path="url(#clipPath2)" fill="none" x1="77" x2="77" y1="416" y2="414"/>
<line clip-path="url(#clipPath2)" fill="none" x1="99" x2="99" y1="17" y2="21"/>
<line clip-path="url(#clipPath2)" fill="none" x1="99" x2="99" y1="418" y2="414"/>
<text x="76" font-size="11" y="14" clip-path="url(#clipPath2)" stroke="none" xml:space="preserve">0.000050</text>
<text x="76" font-size="11" y="430" clip-path="url(#clipPath2)" stroke="none" xml:space="preserve">0.000050</text>
<line clip-path="url(#clipPath2)" fill="none" x1="120" x2="120" y1="19" y2="21"/>
<line clip-path="url(#clipPath2)" fill="none" x1="120" x2="120" y1="416" y2="414"/>
<line clip-path="url(#clipPath2)" fill="none" x1="142" x2="142" y1="19" y2="21"/>
<line clip-path="url(#clipPath2)" fill="none" x1="142" x2="142" y1="416" y2="414"/>
<line clip-path="url(#clipPath2)" fill="none" x1="164" x2="164" y1="19" y2="21"/>
<line clip-path="url(#clipPath2)" fill="none" x1="164" x2="164" y1="416" y2="414"/>
<line clip-path="url(#clipPath2)" fill="none" x1="186" x2="186" y1="19" y2="21"/>
<line clip-path="url(#clipPath2)" fill="none" x1="186" x2="186" y1="416" y2="414"/>
<line clip-path="url(#clipPath2)" fill="none" x1="208" x2="208" y1="17" y2="21"/>
<line clip-path="url(#clipPath2)" fill="none" x1="208" x2="208" y1="418" y2="414"/>
<text x="185" font-size="11" y="14" clip-path="url(#clipPath2)" stroke="none" xml:space="preserve">0.000055</text>
<text x="185" font-size="11" y="430" clip-path="url(#clipPath2)" stroke="none" xml:space="preserve">0.000055</text>
<line clip-path="url(#clipPath2)" fill="none" x1="230" x2="230" y1="19" y2="21"/>
<line clip-path="url(#clipPath2)" fill="none" x1="230" x2="230" y1="416" y2="414"/>
<line clip-path="url(#clipPath2)" fill="none" x1="252" x2="252" y1="19" y2="21"/>
<line clip-path="url(#clipPath2)" fill="none" x1="252" x2="252" y1="416" y2="414"/>
<line clip-path="url(#clipPath2)" fill="none" x1="273" x2="273" y1="19" y2="21"/>
<line clip-path="url(#clipPath2)" fill="none" x1="273" x2="273" y1="416" y2="414"/>
<line clip-path="url(#clipPath2)" fill="none" x1="295" x2="295" y1="19" y2="21"/>
<line clip-path="url(#clipPath2)" fill="none" x1="295" x2="295" y1="416" y2="414"/>
<line clip-path="url(#clipPath2)" fill="none" x1="317" x2="317" y1="17" y2="21"/>
<line clip-path="url(#clipPath2)" fill="none" x1="317" x2="317" y1="418" y2="414"/>
<text x="294" font-size="11" y="14" clip-path="url(#clipPath2)" stroke="none" xml:space="preserve">0.000060</text>
<text x="294" font-size="11" y="430" clip-path="url(#clipPath2)" stroke="none" xml:space="preserve">0.000060</text>
<line clip-path="url(#clipPath2)" fill="none" x1="339" x2="339" y1="19" y2="21"/>
<line clip-path="url(#clipPath2)" fill="none" x1="339" x2="339" y1="416" y2="414"/>
<line clip-path="url(#clipPath2)" fill="none" x1="361" x2="361" y1="19" y2="21"/>
<line clip-path="url(#clipPath2)" fill="none" x1="361" x2="361" y1="416" y2="414"/>
<line clip-path="url(#clipPath2)" fill="none" x1="383" x2="383" y1="19" y2="21"/>
<line clip-path="url(#clipPath2)" fill="none" x1="383" x2="383" y1="416" y2="414"/>
<line clip-path="url(#clipPath2)" fill="none" x1="404" x2="404" y1="19" y2="21"/>
<line clip-path="url(#clipPath2)" fill="none" x1="404" x2="404" y1="416" y2="414"/>
<line clip-path="url(#clipPath2)" fill="none" x1="426" x2="426" y1="17" y2="21"/>
<line clip-path="url(#clipPath2)" fill="none" x1="426" x2="426" y1="418" y2="414"/>
<text x="403" font-size="11" y="14" clip-path="url(#clipPath2)" stroke="none" xml:space="preserve">0.000065</text>
<text x="403" font-size="11" y="430" clip-path="url(#clipPath2)" stroke="none" xml:space="preserve">0.000065</text>
<line clip-path="url(#clipPath2)" fill="none" x1="448" x2="448" y1="19" y2="21"/>
<line clip-path="url(#clipPath2)" fill="none" x1="448" x2="448" y1="416" y2="414"/>
<line clip-path="url(#clipPath2)" fill="none" x1="470" x2="470" y1="19" y2="21"/>
<line clip-path="url(#clipPath2)" fill="none" x1="470" x2="470" y1="416" y2="414"/>
<line clip-path="url(#clipPath2)" fill="none" x1="26" x2="26" y1="23" y2="412"/>
<line clip-path="url(#clipPath2)" fill="none" x1="488" x2="488" y1="23" y2="412"/>
<line clip-path="url(#clipPath2)" fill="none" x1="22" x2="26" y1="412" y2="412"/>
<line clip-path="url(#clipPath2)" fill="none" x1="492" x2="488" y1="412" y2="412"/>
<text x="15" font-size="11" y="417" clip-path="url(#clipPath2)" stroke="none" xml:space="preserve">0</text>
<text x="495" font-size="11" y="417" clip-path="url(#clipPath2)" stroke="none" xml:space="preserve">0</text>
<line clip-path="url(#clipPath2)" fill="none" x1="24" x2="26" y1="399" y2="399"/>
<line clip-path="url(#clipPath2)" fill="none" x1="490" x2="488" y1="399" y2="399"/>
<line clip-path="url(#clipPath2)" fill="none" x1="24" x2="26" y1="386" y2="386"/>
<line clip-path="url(#clipPath2)" fill="none" x1="490" x2="488" y1="386" y2="386"/>
<line clip-path="url(#clipPath2)" fill="none" x1="24" x2="26" y1="373" y2="373"/>
<line clip-path="url(#clipPath2)" fill="none" x1="490" x2="488" y1="373" y2="373"/>
<line clip-path="url(#clipPath2)" fill="none" x1="24" x2="26" y1="361" y2="361"/>
<line clip-path="url(#clipPath2)" fill="none" x1="490" x2="488" y1="361" y2="361"/>
<line clip-path="url(#clipPath2)" fill="none" x1="22" x2="26" y1="348" y2="348"/>
<line clip-path="url(#clipPath2)" fill="none" x1="492" x2="488" y1="348" y2="348"/>
<text x="15" font-size="11" y="353" clip-path="url(#clipPath2)" stroke="none" xml:space="preserve">5</text>
<text x="495" font-size="11" y="353" clip-path="url(#clipPath2)" stroke="none" xml:space="preserve">5</text>
<line clip-path="url(#clipPath2)" fill="none" x1="24" x2="26" y1="335" y2="335"/>
<line clip-path="url(#clipPath2)" fill="none" x1="490" x2="488" y1="335" y2="335"/>
<line clip-path="url(#clipPath2)" fill="none" x1="24" x2="26" y1="323" y2="323"/>
<line clip-path="url(#clipPath2)" fill="none" x1="490" x2="488" y1="323" y2="323"/>
<line clip-path="url(#clipPath2)" fill="none" x1="24" x2="26" y1="310" y2="310"/>
<line clip-path="url(#clipPath2)" fill="none" x1="490" x2="488" y1="310" y2="310"/>
<line clip-path="url(#clipPath2)" fill="none" x1="24" x2="26" y1="297" y2="297"/>
<line clip-path="url(#clipPath2)" fill="none" x1="490" x2="488" y1="297" y2="297"/>
<line clip-path="url(#clipPath2)" fill="none" x1="22" x2="26" y1="285" y2="285"/>
<line clip-path="url(#clipPath2)" fill="none" x1="492" x2="488" y1="285" y2="285"/>
<text x="9" font-size="11" y="290" clip-path="url(#clipPath2)" stroke="none" xml:space="preserve">10</text>
<text x="495" font-size="11" y="290" clip-path="url(#clipPath2)" stroke="none" xml:space="preserve">10</text>
<line clip-path="url(#clipPath2)" fill="none" x1="24" x2="26" y1="272" y2="272"/>
<line clip-path="url(#clipPath2)" fill="none" x1="490" x2="488" y1="272" y2="272"/>
<line clip-path="url(#clipPath2)" fill="none" x1="24" x2="26" y1="259" y2="259"/>
<line clip-path="url(#clipPath2)" fill="none" x1="490" x2="488" y1="259" y2="259"/>
<line clip-path="url(#clipPath2)" fill="none" x1="24" x2="26" y1="247" y2="247"/>
<line clip-path="url(#clipPath2)" fill="none" x1="490" x2="488" y1="247" y2="247"/>
<line clip-path="url(#clipPath2)" fill="none" x1="24" x2="26" y1="234" y2="234"/>
<line clip-path="url(#clipPath2)" fill="none" x1="490" x2="488" y1="234" y2="234"/>
<line clip-path="url(#clipPath2)" fill="none" x1="22" x2="26" y1="221" y2="221"/>
<line clip-path="url(#clipPath2)" fill="none" x1="492" x2="488" y1="221" y2="221"/>
<text x="9" font-size="11" y="226" clip-path="url(#clipPath2)" stroke="none" xml:space="preserve">15</text>
<text x="495" font-size="11" y="226" clip-path="url(#clipPath2)" stroke="none" xml:space="preserve">15</text>
<line clip-path="url(#clipPath2)" fill="none" x1="24" x2="26" y1="209" y2="209"/>
<line clip-path="url(#clipPath2)" fill="none" x1="490" x2="488" y1="209" y2="209"/>
<line clip-path="url(#clipPath2)" fill="none" x1="24" x2="26" y1="196" y2="196"/>
<line clip-path="url(#clipPath2)" fill="none" x1="490" x2="488" y1="196" y2="196"/>
<line clip-path="url(#clipPath2)" fill="none" x1="24" x2="26" y1="183" y2="183"/>
<line clip-path="url(#clipPath2)" fill="none" x1="490" x2="488" y1="183" y2="183"/>
<line clip-path="url(#clipPath2)" fill="none" x1="24" x2="26" y1="170" y2="170"/>
<line clip-path="url(#clipPath2)" fill="none" x1="490" x2="488" y1="170" y2="170"/>
<line clip-path="url(#clipPath2)" fill="none" x1="22" x2="26" y1="158" y2="158"/>
<line clip-path="url(#clipPath2)" fill="none" x1="492" x2="488" y1="158" y2="158"/>
<text x="9" font-size="11" y="163" clip-path="url(#clipPath2)" stroke="none" xml:space="preserve">20</text>
<text x="495" font-size="11" y="163" clip-path="url(#clipPath2)" stroke="none" xml:space="preserve">20</text>
<line clip-path="url(#clipPath2)" fill="none" x1="24" x2="26" y1="145" y2="145"/>
<line clip-path="url(#clipPath2)" fill="none" x1="490" x2="488" y1="145" y2="145"/>
<line clip-path="url(#clipPath2)" fill="none" x1="24" x2="26" y1="132" y2="132"/>
<line clip-path="url(#clipPath2)" fill="none" x1="490" x2="488" y1="132" y2="132"/>
<line clip-path="url(#clipPath2)" fill="none" x1="24" x2="26" y1="120" y2="120"/>
<line clip-path="url(#clipPath2)" fill="none" x1="490" x2="488" y1="120" y2="120"/>
<line clip-path="url(#clipPath2)" fill="none" x1="24" x2="26" y1="107" y2="107"/>
<line clip-path="url(#clipPath2)" fill="none" x1="490" x2="488" y1="107" y2="107"/>
<line clip-path="url(#clipPath2)" fill="none" x1="22" x2="26" y1="94" y2="94"/>
<line clip-path="url(#clipPath2)" fill="none" x1="492" x2="488" y1="94" y2="94"/>
<text x="9" font-size="11" y="99" clip-path="url(#clipPath2)" stroke="none" xml:space="preserve">25</text>
<text x="495" font-size="11" y="99" clip-path="url(#clipPath2)" stroke="none" xml:space="preserve">25</text>
<line clip-path="url(#clipPath2)" fill="none" x1="24" x2="26" y1="82" y2="82"/>
<line clip-path="url(#clipPath2)" fill="none" x1="490" x2="488" y1="82" y2="82"/>
<line clip-path="url(#clipPath2)" fill="none" x1="24" x2="26" y1="69" y2="69"/>
<line clip-path="url(#clipPath2)" fill="none" x1="490" x2="488" y1="69" y2="69"/>
<line clip-path="url(#clipPath2)" fill="none" x1="24" x2="26" y1="56" y2="56"/>
<line clip-path="url(#clipPath2)" fill="none" x1="490" x2="488" y1="56" y2="56"/>
<line clip-path="url(#clipPath2)" fill="none" x1="24" x2="26" y1="44" y2="44"/>
<line clip-path="url(#clipPath2)" fill="none" x1="490" x2="488" y1="44" y2="44"/>
<line clip-path="url(#clipPath2)" fill="none" x1="22" x2="26" y1="31" y2="31"/>
<line clip-path="url(#clipPath2)" fill="none" x1="492" x2="488" y1="31" y2="31"/>
<text x="9" font-size="11" y="36" clip-path="url(#clipPath2)" stroke="none" xml:space="preserve">30</text>
<text x="495" font-size="11" y="36" clip-path="url(#clipPath2)" stroke="none" xml:space="preserve">30</text>
</g>
</g>
</svg>
