<?xml version="1.0" encoding="UTF-8"?><svg xmlns="http://www.w3.org/2000/svg" xmlns:xlink="http://www.w3.org/1999/xlink" stroke-dasharray="none" shape-rendering="auto" font-family="'Dialog'" width="701" text-rendering="auto" fill-opacity="1" contentScriptType="text/ecmascript" color-interpolation="auto" color-rendering="auto" preserveAspectRatio="xMidYMid meet" font-size="12" fill="black" stroke="black" image-rendering="auto" stroke-miterlimit="10" zoomAndPan="magnify" version="1.0" stroke-linecap="square" stroke-linejoin="miter" contentStyleType="text/css" font-style="normal" height="491" stroke-width="1" stroke-dashoffset="0" font-weight="normal" stroke-opacity="1">
<!--Generated by the Batik Graphics2D SVG Generator-->
<defs id="genericDefs"/>
<g>
<defs id="defs1">
<clipPath clipPathUnits="userSpaceOnUse" id="clipPath1">
<path d="M27 22 L674 22 L674 469 L27 469 L27 22 Z"/>
</clipPath>
<clipPath clipPathUnits="userSpaceOnUse" id="clipPath2">
<path d="M-1 -1 L702 -1 L702 492 L-1 492 L-1 -1 Z"/>
</clipPath>
</defs>
<g font-size="15" fill="white" text-rendering="geometricPrecision" font-family="'Cantarell'" stroke-linejoin="round" stroke="white" stroke-width="0" stroke-miterlimit="0">
<rect x="28" y="23" clip-path="url(#clipPath1)" width="645" height="445" stroke="none"/>
</g>
<g stroke-linecap="butt" font-size="15" fill="rgb(204,204,204)" text-rendering="geometricPrecision" font-family="'Cantarell'" stroke-dasharray="3,3" stroke="rgb(204,204,204)">
<line clip-path="url(#clipPath1)" fill="none" x1="28" x2="673" y1="468" y2="468"/>
<line clip-path="url(#clipPath1)" fill="none" x1="28" x2="673" y1="400" y2="400"/>
<line clip-path="url(#clipPath1)" fill="none" x1="28" x2="673" y1="331" y2="331"/>
<line clip-path="url(#clipPath1)" fill="none" x1="28" x2="673" y1="263" y2="263"/>
<line clip-path="url(#clipPath1)" fill="none" x1="28" x2="673" y1="194" y2="194"/>
<line clip-path="url(#clipPath1)" fill="none" x1="28" x2="673" y1="125" y2="125"/>
<line clip-path="url(#clipPath1)" fill="none" x1="28" x2="673" y1="57" y2="57"/>
<line clip-path="url(#clipPath1)" fill="none" x1="-25" x2="-20" y1="468" y2="468" stroke-dasharray="none" stroke="black"/>
<line clip-path="url(#clipPath1)" fill="none" x1="-20" x2="-16" y1="468" y2="468" stroke-dasharray="none" stroke="black"/>
<line clip-path="url(#clipPath1)" fill="none" x1="-16" x2="-11" y1="468" y2="468" stroke-dasharray="none" stroke="black"/>
<line clip-path="url(#clipPath1)" fill="none" x1="-11" x2="-7" y1="468" y2="468" stroke-dasharray="none" stroke="black"/>
<line clip-path="url(#clipPath1)" fill="none" x1="-7" x2="-2" y1="468" y2="468" stroke-dasharray="none" stroke="black"/>
<line clip-path="url(#clipPath1)" fill="none" x1="-2" x2="1" y1="468" y2="468" stroke-dasharray="none" stroke="black"/>
<line clip-path="url(#clipPath1)" fill="none" x1="1" x2="5" y1="468" y2="468" stroke-dasharray="none" stroke="black"/>
<line clip-path="url(#clipPath1)" fill="none" x1="5" x2="10" y1="468" y2="468" stroke-dasharray="none" stroke="black"/>
<line clip-path="url(#clipPath1)" fill="none" x1="10" x2="14" y1="468" y2="468" stroke-dasharray="none" stroke="black"/>
<line clip-path="url(#clipPath1)" fill="none" x1="14" x2="19" y1="468" y2="468" stroke-dasharray="none" stroke="black"/>
<line clip-path="url(#clipPath1)" fill="none" x1="19" x2="23" y1="468" y2="468" stroke-dasharray="none" stroke="black"/>
<line clip-path="url(#clipPath1)" fill="none" x1="23" x2="28" y1="468" y2="468" stroke-dasharray="none" stroke="black"/>
<line clip-path="url(#clipPath1)" fill="none" x1="28" x2="32" y1="468" y2="468" stroke-dasharray="none" stroke="black"/>
<rect x="32" y="393" clip-path="url(#clipPath1)" fill="rgb(0,0,139)" width="4" stroke-dasharray="none" height="75" stroke="none"/>
<rect x="32" y="393" clip-path="url(#clipPath1)" fill="none" width="4" stroke-dasharray="none" height="75" stroke="black"/>
<rect x="36" y="448" clip-path="url(#clipPath1)" fill="rgb(0,0,139)" width="5" stroke-dasharray="none" height="20" stroke="none"/>
<rect x="36" y="448" clip-path="url(#clipPath1)" fill="none" width="5" stroke-dasharray="none" height="20" stroke="black"/>
<rect x="41" y="400" clip-path="url(#clipPath1)" fill="rgb(0,0,139)" width="4" stroke-dasharray="none" height="68" stroke="none"/>
<rect x="41" y="400" clip-path="url(#clipPath1)" fill="none" width="4" stroke-dasharray="none" height="68" stroke="black"/>
<rect x="45" y="420" clip-path="url(#clipPath1)" fill="rgb(0,0,139)" width="5" stroke-dasharray="none" height="48" stroke="none"/>
<rect x="45" y="420" clip-path="url(#clipPath1)" fill="none" width="5" stroke-dasharray="none" height="48" stroke="black"/>
<rect x="50" y="400" clip-path="url(#clipPath1)" fill="rgb(0,0,139)" width="4" stroke-dasharray="none" height="68" stroke="none"/>
<rect x="50" y="400" clip-path="url(#clipPath1)" fill="none" width="4" stroke-dasharray="none" height="68" stroke="black"/>
<rect x="54" y="407" clip-path="url(#clipPath1)" fill="rgb(0,0,139)" width="5" stroke-dasharray="none" height="61" stroke="none"/>
<rect x="54" y="407" clip-path="url(#clipPath1)" fill="none" width="5" stroke-dasharray="none" height="61" stroke="black"/>
<rect x="59" y="461" clip-path="url(#clipPath1)" fill="rgb(0,0,139)" width="4" stroke-dasharray="none" height="7" stroke="none"/>
<rect x="59" y="461" clip-path="url(#clipPath1)" fill="none" width="4" stroke-dasharray="none" height="7" stroke="black"/>
<rect x="63" y="434" clip-path="url(#clipPath1)" fill="rgb(0,0,139)" width="4" stroke-dasharray="none" height="34" stroke="none"/>
<rect x="63" y="434" clip-path="url(#clipPath1)" fill="none" width="4" stroke-dasharray="none" height="34" stroke="black"/>
<rect x="67" y="386" clip-path="url(#clipPath1)" fill="rgb(0,0,139)" width="5" stroke-dasharray="none" height="82" stroke="none"/>
<rect x="67" y="386" clip-path="url(#clipPath1)" fill="none" width="5" stroke-dasharray="none" height="82" stroke="black"/>
<rect x="72" y="407" clip-path="url(#clipPath1)" fill="rgb(0,0,139)" width="4" stroke-dasharray="none" height="61" stroke="none"/>
<rect x="72" y="407" clip-path="url(#clipPath1)" fill="none" width="4" stroke-dasharray="none" height="61" stroke="black"/>
<rect x="76" y="420" clip-path="url(#clipPath1)" fill="rgb(0,0,139)" width="5" stroke-dasharray="none" height="48" stroke="none"/>
<rect x="76" y="420" clip-path="url(#clipPath1)" fill="none" width="5" stroke-dasharray="none" height="48" stroke="black"/>
<rect x="81" y="448" clip-path="url(#clipPath1)" fill="rgb(0,0,139)" width="4" stroke-dasharray="none" height="20" stroke="none"/>
<rect x="81" y="448" clip-path="url(#clipPath1)" fill="none" width="4" stroke-dasharray="none" height="20" stroke="black"/>
<rect x="85" y="448" clip-path="url(#clipPath1)" fill="rgb(0,0,139)" width="5" stroke-dasharray="none" height="20" stroke="none"/>
<rect x="85" y="448" clip-path="url(#clipPath1)" fill="none" width="5" stroke-dasharray="none" height="20" stroke="black"/>
<rect x="90" y="455" clip-path="url(#clipPath1)" fill="rgb(0,0,139)" width="4" stroke-dasharray="none" height="13" stroke="none"/>
<rect x="90" y="455" clip-path="url(#clipPath1)" fill="none" width="4" stroke-dasharray="none" height="13" stroke="black"/>
<rect x="94" y="448" clip-path="url(#clipPath1)" fill="rgb(0,0,139)" width="4" stroke-dasharray="none" height="20" stroke="none"/>
<rect x="94" y="448" clip-path="url(#clipPath1)" fill="none" width="4" stroke-dasharray="none" height="20" stroke="black"/>
<rect x="98" y="461" clip-path="url(#clipPath1)" fill="rgb(0,0,139)" width="5" stroke-dasharray="none" height="7" stroke="none"/>
<rect x="98" y="461" clip-path="url(#clipPath1)" fill="none" width="5" stroke-dasharray="none" height="7" stroke="black"/>
<rect x="103" y="455" clip-path="url(#clipPath1)" fill="rgb(0,0,139)" width="4" stroke-dasharray="none" height="13" stroke="none"/>
<rect x="103" y="455" clip-path="url(#clipPath1)" fill="none" width="4" stroke-dasharray="none" height="13" stroke="black"/>
<rect x="107" y="434" clip-path="url(#clipPath1)" fill="rgb(0,0,139)" width="5" stroke-dasharray="none" height="34" stroke="none"/>
<rect x="107" y="434" clip-path="url(#clipPath1)" fill="none" width="5" stroke-dasharray="none" height="34" stroke="black"/>
<rect x="112" y="448" clip-path="url(#clipPath1)" fill="rgb(0,0,139)" width="4" stroke-dasharray="none" height="20" stroke="none"/>
<rect x="112" y="448" clip-path="url(#clipPath1)" fill="none" width="4" stroke-dasharray="none" height="20" stroke="black"/>
<rect x="116" y="461" clip-path="url(#clipPath1)" fill="rgb(0,0,139)" width="5" stroke-dasharray="none" height="7" stroke="none"/>
<rect x="116" y="461" clip-path="url(#clipPath1)" fill="none" width="5" stroke-dasharray="none" height="7" stroke="black"/>
<rect x="121" y="455" clip-path="url(#clipPath1)" fill="rgb(0,0,139)" width="4" stroke-dasharray="none" height="13" stroke="none"/>
<rect x="121" y="455" clip-path="url(#clipPath1)" fill="none" width="4" stroke-dasharray="none" height="13" stroke="black"/>
<rect x="125" y="455" clip-path="url(#clipPath1)" fill="rgb(0,0,139)" width="4" stroke-dasharray="none" height="13" stroke="none"/>
<rect x="125" y="455" clip-path="url(#clipPath1)" fill="none" width="4" stroke-dasharray="none" height="13" stroke="black"/>
<line clip-path="url(#clipPath1)" fill="none" x1="129" x2="134" y1="468" y2="468" stroke-dasharray="none" stroke="black"/>
<line clip-path="url(#clipPath1)" fill="none" x1="134" x2="138" y1="468" y2="468" stroke-dasharray="none" stroke="black"/>
<rect x="138" y="461" clip-path="url(#clipPath1)" fill="rgb(0,0,139)" width="5" stroke-dasharray="none" height="7" stroke="none"/>
<rect x="138" y="461" clip-path="url(#clipPath1)" fill="none" width="5" stroke-dasharray="none" height="7" stroke="black"/>
<line clip-path="url(#clipPath1)" fill="none" x1="143" x2="147" y1="468" y2="468" stroke-dasharray="none" stroke="black"/>
<line clip-path="url(#clipPath1)" fill="none" x1="147" x2="152" y1="468" y2="468" stroke-dasharray="none" stroke="black"/>
<line clip-path="url(#clipPath1)" fill="none" x1="152" x2="156" y1="468" y2="468" stroke-dasharray="none" stroke="black"/>
<line clip-path="url(#clipPath1)" fill="none" x1="156" x2="160" y1="468" y2="468" stroke-dasharray="none" stroke="black"/>
<line clip-path="url(#clipPath1)" fill="none" x1="160" x2="165" y1="468" y2="468" stroke-dasharray="none" stroke="black"/>
<line clip-path="url(#clipPath1)" fill="none" x1="165" x2="169" y1="468" y2="468" stroke-dasharray="none" stroke="black"/>
<line clip-path="url(#clipPath1)" fill="none" x1="169" x2="174" y1="468" y2="468" stroke-dasharray="none" stroke="black"/>
<line clip-path="url(#clipPath1)" fill="none" x1="174" x2="178" y1="468" y2="468" stroke-dasharray="none" stroke="black"/>
<line clip-path="url(#clipPath1)" fill="none" x1="178" x2="183" y1="468" y2="468" stroke-dasharray="none" stroke="black"/>
<line clip-path="url(#clipPath1)" fill="none" x1="183" x2="187" y1="468" y2="468" stroke-dasharray="none" stroke="black"/>
<line clip-path="url(#clipPath1)" fill="none" x1="187" x2="191" y1="468" y2="468" stroke-dasharray="none" stroke="black"/>
<line clip-path="url(#clipPath1)" fill="none" x1="191" x2="196" y1="468" y2="468" stroke-dasharray="none" stroke="black"/>
<line clip-path="url(#clipPath1)" fill="none" x1="196" x2="200" y1="468" y2="468" stroke-dasharray="none" stroke="black"/>
<line clip-path="url(#clipPath1)" fill="none" x1="200" x2="205" y1="468" y2="468" stroke-dasharray="none" stroke="black"/>
<line clip-path="url(#clipPath1)" fill="none" x1="205" x2="209" y1="468" y2="468" stroke-dasharray="none" stroke="black"/>
<line clip-path="url(#clipPath1)" fill="none" x1="209" x2="214" y1="468" y2="468" stroke-dasharray="none" stroke="black"/>
<line clip-path="url(#clipPath1)" fill="none" x1="214" x2="218" y1="468" y2="468" stroke-dasharray="none" stroke="black"/>
<line clip-path="url(#clipPath1)" fill="none" x1="218" x2="222" y1="468" y2="468" stroke-dasharray="none" stroke="black"/>
<line clip-path="url(#clipPath1)" fill="none" x1="222" x2="227" y1="468" y2="468" stroke-dasharray="none" stroke="black"/>
<line clip-path="url(#clipPath1)" fill="none" x1="227" x2="231" y1="468" y2="468" stroke-dasharray="none" stroke="black"/>
<line clip-path="url(#clipPath1)" fill="none" x1="231" x2="236" y1="468" y2="468" stroke-dasharray="none" stroke="black"/>
<line clip-path="url(#clipPath1)" fill="none" x1="236" x2="240" y1="468" y2="468" stroke-dasharray="none" stroke="black"/>
<line clip-path="url(#clipPath1)" fill="none" x1="240" x2="245" y1="468" y2="468" stroke-dasharray="none" stroke="black"/>
<line clip-path="url(#clipPath1)" fill="none" x1="245" x2="249" y1="468" y2="468" stroke-dasharray="none" stroke="black"/>
<line clip-path="url(#clipPath1)" fill="none" x1="249" x2="253" y1="468" y2="468" stroke-dasharray="none" stroke="black"/>
<line clip-path="url(#clipPath1)" fill="none" x1="253" x2="258" y1="468" y2="468" stroke-dasharray="none" stroke="black"/>
<line clip-path="url(#clipPath1)" fill="none" x1="258" x2="262" y1="468" y2="468" stroke-dasharray="none" stroke="black"/>
<line clip-path="url(#clipPath1)" fill="none" x1="262" x2="267" y1="468" y2="468" stroke-dasharray="none" stroke="black"/>
<line clip-path="url(#clipPath1)" fill="none" x1="267" x2="271" y1="468" y2="468" stroke-dasharray="none" stroke="black"/>
<line clip-path="url(#clipPath1)" fill="none" x1="271" x2="276" y1="468" y2="468" stroke-dasharray="none" stroke="black"/>
<line clip-path="url(#clipPath1)" fill="none" x1="276" x2="280" y1="468" y2="468" stroke-dasharray="none" stroke="black"/>
<line clip-path="url(#clipPath1)" fill="none" x1="280" x2="284" y1="468" y2="468" stroke-dasharray="none" stroke="black"/>
<line clip-path="url(#clipPath1)" fill="none" x1="284" x2="289" y1="468" y2="468" stroke-dasharray="none" stroke="black"/>
<line clip-path="url(#clipPath1)" fill="none" x1="289" x2="293" y1="468" y2="468" stroke-dasharray="none" stroke="black"/>
<line clip-path="url(#clipPath1)" fill="none" x1="293" x2="298" y1="468" y2="468" stroke-dasharray="none" stroke="black"/>
<line clip-path="url(#clipPath1)" fill="none" x1="298" x2="302" y1="468" y2="468" stroke-dasharray="none" stroke="black"/>
<line clip-path="url(#clipPath1)" fill="none" x1="302" x2="307" y1="468" y2="468" stroke-dasharray="none" stroke="black"/>
<line clip-path="url(#clipPath1)" fill="none" x1="307" x2="311" y1="468" y2="468" stroke-dasharray="none" stroke="black"/>
<line clip-path="url(#clipPath1)" fill="none" x1="311" x2="315" y1="468" y2="468" stroke-dasharray="none" stroke="black"/>
<line clip-path="url(#clipPath1)" fill="none" x1="315" x2="320" y1="468" y2="468" stroke-dasharray="none" stroke="black"/>
<line clip-path="url(#clipPath1)" fill="none" x1="320" x2="324" y1="468" y2="468" stroke-dasharray="none" stroke="black"/>
<line clip-path="url(#clipPath1)" fill="none" x1="324" x2="329" y1="468" y2="468" stroke-dasharray="none" stroke="black"/>
<line clip-path="url(#clipPath1)" fill="none" x1="329" x2="333" y1="468" y2="468" stroke-dasharray="none" stroke="black"/>
<line clip-path="url(#clipPath1)" fill="none" x1="333" x2="337" y1="468" y2="468" stroke-dasharray="none" stroke="black"/>
<line clip-path="url(#clipPath1)" fill="none" x1="337" x2="342" y1="468" y2="468" stroke-dasharray="none" stroke="black"/>
<line clip-path="url(#clipPath1)" fill="none" x1="342" x2="346" y1="468" y2="468" stroke-dasharray="none" stroke="black"/>
<line clip-path="url(#clipPath1)" fill="none" x1="346" x2="351" y1="468" y2="468" stroke-dasharray="none" stroke="black"/>
<line clip-path="url(#clipPath1)" fill="none" x1="351" x2="355" y1="468" y2="468" stroke-dasharray="none" stroke="black"/>
<line clip-path="url(#clipPath1)" fill="none" x1="355" x2="360" y1="468" y2="468" stroke-dasharray="none" stroke="black"/>
<line clip-path="url(#clipPath1)" fill="none" x1="360" x2="364" y1="468" y2="468" stroke-dasharray="none" stroke="black"/>
<line clip-path="url(#clipPath1)" fill="none" x1="364" x2="368" y1="468" y2="468" stroke-dasharray="none" stroke="black"/>
<line clip-path="url(#clipPath1)" fill="none" x1="368" x2="373" y1="468" y2="468" stroke-dasharray="none" stroke="black"/>
<line clip-path="url(#clipPath1)" fill="none" x1="373" x2="377" y1="468" y2="468" stroke-dasharray="none" stroke="black"/>
<line clip-path="url(#clipPath1)" fill="none" x1="377" x2="382" y1="468" y2="468" stroke-dasharray="none" stroke="black"/>
<line clip-path="url(#clipPath1)" fill="none" x1="382" x2="386" y1="468" y2="468" stroke-dasharray="none" stroke="black"/>
<line clip-path="url(#clipPath1)" fill="none" x1="386" x2="391" y1="468" y2="468" stroke-dasharray="none" stroke="black"/>
<line clip-path="url(#clipPath1)" fill="none" x1="391" x2="395" y1="468" y2="468" stroke-dasharray="none" stroke="black"/>
<line clip-path="url(#clipPath1)" fill="none" x1="395" x2="399" y1="468" y2="468" stroke-dasharray="none" stroke="black"/>
<line clip-path="url(#clipPath1)" fill="none" x1="399" x2="404" y1="468" y2="468" stroke-dasharray="none" stroke="black"/>
<line clip-path="url(#clipPath1)" fill="none" x1="404" x2="408" y1="468" y2="468" stroke-dasharray="none" stroke="black"/>
<line clip-path="url(#clipPath1)" fill="none" x1="408" x2="413" y1="468" y2="468" stroke-dasharray="none" stroke="black"/>
<line clip-path="url(#clipPath1)" fill="none" x1="413" x2="417" y1="468" y2="468" stroke-dasharray="none" stroke="black"/>
<line clip-path="url(#clipPath1)" fill="none" x1="417" x2="422" y1="468" y2="468" stroke-dasharray="none" stroke="black"/>
<line clip-path="url(#clipPath1)" fill="none" x1="422" x2="426" y1="468" y2="468" stroke-dasharray="none" stroke="black"/>
<line clip-path="url(#clipPath1)" fill="none" x1="426" x2="430" y1="468" y2="468" stroke-dasharray="none" stroke="black"/>
<line clip-path="url(#clipPath1)" fill="none" x1="430" x2="435" y1="468" y2="468" stroke-dasharray="none" stroke="black"/>
<line clip-path="url(#clipPath1)" fill="none" x1="435" x2="439" y1="468" y2="468" stroke-dasharray="none" stroke="black"/>
<line clip-path="url(#clipPath1)" fill="none" x1="439" x2="444" y1="468" y2="468" stroke-dasharray="none" stroke="black"/>
<line clip-path="url(#clipPath1)" fill="none" x1="444" x2="448" y1="468" y2="468" stroke-dasharray="none" stroke="black"/>
<line clip-path="url(#clipPath1)" fill="none" x1="448" x2="453" y1="468" y2="468" stroke-dasharray="none" stroke="black"/>
<line clip-path="url(#clipPath1)" fill="none" x1="453" x2="457" y1="468" y2="468" stroke-dasharray="none" stroke="black"/>
<line clip-path="url(#clipPath1)" fill="none" x1="457" x2="461" y1="468" y2="468" stroke-dasharray="none" stroke="black"/>
<line clip-path="url(#clipPath1)" fill="none" x1="461" x2="466" y1="468" y2="468" stroke-dasharray="none" stroke="black"/>
<line clip-path="url(#clipPath1)" fill="none" x1="466" x2="470" y1="468" y2="468" stroke-dasharray="none" stroke="black"/>
<line clip-path="url(#clipPath1)" fill="none" x1="470" x2="475" y1="468" y2="468" stroke-dasharray="none" stroke="black"/>
<line clip-path="url(#clipPath1)" fill="none" x1="475" x2="479" y1="468" y2="468" stroke-dasharray="none" stroke="black"/>
<line clip-path="url(#clipPath1)" fill="none" x1="479" x2="484" y1="468" y2="468" stroke-dasharray="none" stroke="black"/>
<line clip-path="url(#clipPath1)" fill="none" x1="484" x2="488" y1="468" y2="468" stroke-dasharray="none" stroke="black"/>
<line clip-path="url(#clipPath1)" fill="none" x1="488" x2="492" y1="468" y2="468" stroke-dasharray="none" stroke="black"/>
<line clip-path="url(#clipPath1)" fill="none" x1="492" x2="497" y1="468" y2="468" stroke-dasharray="none" stroke="black"/>
<line clip-path="url(#clipPath1)" fill="none" x1="497" x2="501" y1="468" y2="468" stroke-dasharray="none" stroke="black"/>
<line clip-path="url(#clipPath1)" fill="none" x1="501" x2="506" y1="468" y2="468" stroke-dasharray="none" stroke="black"/>
<line clip-path="url(#clipPath1)" fill="none" x1="506" x2="510" y1="468" y2="468" stroke-dasharray="none" stroke="black"/>
<line clip-path="url(#clipPath1)" fill="none" x1="510" x2="515" y1="468" y2="468" stroke-dasharray="none" stroke="black"/>
<line clip-path="url(#clipPath1)" fill="none" x1="515" x2="519" y1="468" y2="468" stroke-dasharray="none" stroke="black"/>
<line clip-path="url(#clipPath1)" fill="none" x1="519" x2="523" y1="468" y2="468" stroke-dasharray="none" stroke="black"/>
<line clip-path="url(#clipPath1)" fill="none" x1="523" x2="528" y1="468" y2="468" stroke-dasharray="none" stroke="black"/>
<line clip-path="url(#clipPath1)" fill="none" x1="528" x2="532" y1="468" y2="468" stroke-dasharray="none" stroke="black"/>
<line clip-path="url(#clipPath1)" fill="none" x1="532" x2="537" y1="468" y2="468" stroke-dasharray="none" stroke="black"/>
<line clip-path="url(#clipPath1)" fill="none" x1="537" x2="541" y1="468" y2="468" stroke-dasharray="none" stroke="black"/>
<line clip-path="url(#clipPath1)" fill="none" x1="541" x2="546" y1="468" y2="468" stroke-dasharray="none" stroke="black"/>
<line clip-path="url(#clipPath1)" fill="none" x1="546" x2="550" y1="468" y2="468" stroke-dasharray="none" stroke="black"/>
<line clip-path="url(#clipPath1)" fill="none" x1="550" x2="554" y1="468" y2="468" stroke-dasharray="none" stroke="black"/>
<line clip-path="url(#clipPath1)" fill="none" x1="554" x2="559" y1="468" y2="468" stroke-dasharray="none" stroke="black"/>
<line clip-path="url(#clipPath1)" fill="none" x1="559" x2="563" y1="468" y2="468" stroke-dasharray="none" stroke="black"/>
<line clip-path="url(#clipPath1)" fill="none" x1="563" x2="568" y1="468" y2="468" stroke-dasharray="none" stroke="black"/>
<line clip-path="url(#clipPath1)" fill="none" x1="568" x2="572" y1="468" y2="468" stroke-dasharray="none" stroke="black"/>
<line clip-path="url(#clipPath1)" fill="none" x1="572" x2="577" y1="468" y2="468" stroke-dasharray="none" stroke="black"/>
<line clip-path="url(#clipPath1)" fill="none" x1="577" x2="581" y1="468" y2="468" stroke-dasharray="none" stroke="black"/>
<rect x="581" y="50" clip-path="url(#clipPath1)" fill="rgb(0,0,139)" width="4" stroke-dasharray="none" height="418" stroke="none"/>
<rect x="581" y="50" clip-path="url(#clipPath1)" fill="none" width="4" stroke-dasharray="none" height="418" stroke="black"/>
<rect x="585" y="407" clip-path="url(#clipPath1)" fill="rgb(0,0,139)" width="5" stroke-dasharray="none" height="61" stroke="none"/>
<rect x="585" y="407" clip-path="url(#clipPath1)" fill="none" width="5" stroke-dasharray="none" height="61" stroke="black"/>
<rect x="590" y="352" clip-path="url(#clipPath1)" fill="rgb(0,0,139)" width="4" stroke-dasharray="none" height="116" stroke="none"/>
<rect x="590" y="352" clip-path="url(#clipPath1)" fill="none" width="4" stroke-dasharray="none" height="116" stroke="black"/>
<rect x="594" y="379" clip-path="url(#clipPath1)" fill="rgb(0,0,139)" width="5" stroke-dasharray="none" height="89" stroke="none"/>
<rect x="594" y="379" clip-path="url(#clipPath1)" fill="none" width="5" stroke-dasharray="none" height="89" stroke="black"/>
<rect x="599" y="461" clip-path="url(#clipPath1)" fill="rgb(0,0,139)" width="4" stroke-dasharray="none" height="7" stroke="none"/>
<rect x="599" y="461" clip-path="url(#clipPath1)" fill="none" width="4" stroke-dasharray="none" height="7" stroke="black"/>
<rect x="603" y="434" clip-path="url(#clipPath1)" fill="rgb(0,0,139)" width="5" stroke-dasharray="none" height="34" stroke="none"/>
<rect x="603" y="434" clip-path="url(#clipPath1)" fill="none" width="5" stroke-dasharray="none" height="34" stroke="black"/>
<line clip-path="url(#clipPath1)" fill="none" x1="608" x2="612" y1="468" y2="468" stroke-dasharray="none" stroke="black"/>
<rect x="612" y="455" clip-path="url(#clipPath1)" fill="rgb(0,0,139)" width="4" stroke-dasharray="none" height="13" stroke="none"/>
<rect x="612" y="455" clip-path="url(#clipPath1)" fill="none" width="4" stroke-dasharray="none" height="13" stroke="black"/>
<rect x="616" y="461" clip-path="url(#clipPath1)" fill="rgb(0,0,139)" width="5" stroke-dasharray="none" height="7" stroke="none"/>
<rect x="616" y="461" clip-path="url(#clipPath1)" fill="none" width="5" stroke-dasharray="none" height="7" stroke="black"/>
<line clip-path="url(#clipPath1)" fill="none" x1="621" x2="625" y1="468" y2="468" stroke-dasharray="none" stroke="black"/>
<line clip-path="url(#clipPath1)" fill="none" x1="625" x2="630" y1="468" y2="468" stroke-dasharray="none" stroke="black"/>
<rect x="630" y="461" clip-path="url(#clipPath1)" fill="rgb(0,0,139)" width="4" stroke-dasharray="none" height="7" stroke="none"/>
<rect x="630" y="461" clip-path="url(#clipPath1)" fill="none" width="4" stroke-dasharray="none" height="7" stroke="black"/>
<line clip-path="url(#clipPath1)" fill="none" x1="634" x2="639" y1="468" y2="468" stroke-dasharray="none" stroke="black"/>
<line clip-path="url(#clipPath1)" fill="none" x1="639" x2="643" y1="468" y2="468" stroke-dasharray="none" stroke="black"/>
<line clip-path="url(#clipPath1)" fill="none" x1="643" x2="647" y1="468" y2="468" stroke-dasharray="none" stroke="black"/>
<rect x="647" y="461" clip-path="url(#clipPath1)" fill="rgb(0,0,139)" width="5" stroke-dasharray="none" height="7" stroke="none"/>
<rect x="647" y="461" clip-path="url(#clipPath1)" fill="none" width="5" stroke-dasharray="none" height="7" stroke="black"/>
<rect x="652" y="461" clip-path="url(#clipPath1)" fill="rgb(0,0,139)" width="4" stroke-dasharray="none" height="7" stroke="none"/>
<rect x="652" y="461" clip-path="url(#clipPath1)" fill="none" width="4" stroke-dasharray="none" height="7" stroke="black"/>
<line clip-path="url(#clipPath1)" fill="none" x1="656" x2="661" y1="468" y2="468" stroke-dasharray="none" stroke="black"/>
<line clip-path="url(#clipPath1)" fill="none" x1="661" x2="665" y1="468" y2="468" stroke-dasharray="none" stroke="black"/>
<line clip-path="url(#clipPath1)" fill="none" x1="665" x2="669" y1="468" y2="468" stroke-dasharray="none" stroke="black"/>
<line clip-path="url(#clipPath1)" fill="none" x1="669" x2="674" y1="468" y2="468" stroke-dasharray="none" stroke="black"/>
<line clip-path="url(#clipPath1)" fill="none" x1="674" x2="678" y1="468" y2="468" stroke-dasharray="none" stroke="black"/>
<line clip-path="url(#clipPath1)" fill="none" x1="678" x2="683" y1="468" y2="468" stroke-dasharray="none" stroke="black"/>
<line clip-path="url(#clipPath1)" fill="none" x1="683" x2="687" y1="468" y2="468" stroke-dasharray="none" stroke="black"/>
<line clip-path="url(#clipPath1)" fill="none" x1="687" x2="692" y1="468" y2="468" stroke-dasharray="none" stroke="black"/>
<line clip-path="url(#clipPath1)" fill="none" x1="692" x2="696" y1="468" y2="468" stroke-dasharray="none" stroke="black"/>
<line clip-path="url(#clipPath1)" fill="none" x1="696" x2="700" y1="468" y2="468" stroke-dasharray="none" stroke="black"/>
<line clip-path="url(#clipPath1)" fill="none" x1="700" x2="705" y1="468" y2="468" stroke-dasharray="none" stroke="black"/>
<line clip-path="url(#clipPath1)" fill="none" x1="705" x2="709" y1="468" y2="468" stroke-dasharray="none" stroke="black"/>
<line clip-path="url(#clipPath1)" fill="none" x1="709" x2="714" y1="468" y2="468" stroke-dasharray="none" stroke="black"/>
<line clip-path="url(#clipPath1)" fill="none" x1="714" x2="718" y1="468" y2="468" stroke-dasharray="none" stroke="black"/>
<line clip-path="url(#clipPath1)" fill="none" x1="718" x2="723" y1="468" y2="468" stroke-dasharray="none" stroke="black"/>
<line clip-path="url(#clipPath1)" fill="none" x1="723" x2="727" y1="468" y2="468" stroke-dasharray="none" stroke="black"/>
<line clip-path="url(#clipPath1)" fill="none" x1="727" x2="731" y1="468" y2="468" stroke-dasharray="none" stroke="black"/>
<line clip-path="url(#clipPath1)" fill="none" x1="731" x2="736" y1="468" y2="468" stroke-dasharray="none" stroke="black"/>
<line clip-path="url(#clipPath1)" fill="none" x1="736" x2="740" y1="468" y2="468" stroke-dasharray="none" stroke="black"/>
<line clip-path="url(#clipPath1)" fill="none" x1="740" x2="745" y1="468" y2="468" stroke-dasharray="none" stroke="black"/>
<line clip-path="url(#clipPath1)" fill="none" x1="745" x2="749" y1="468" y2="468" stroke-dasharray="none" stroke="black"/>
<line clip-path="url(#clipPath1)" fill="none" x1="749" x2="754" y1="468" y2="468" stroke-dasharray="none" stroke="black"/>
<line clip-path="url(#clipPath1)" fill="none" x1="754" x2="758" y1="468" y2="468" stroke-dasharray="none" stroke="black"/>
<line clip-path="url(#clipPath1)" fill="none" x1="758" x2="762" y1="468" y2="468" stroke-dasharray="none" stroke="black"/>
<line clip-path="url(#clipPath1)" fill="none" x1="762" x2="767" y1="468" y2="468" stroke-dasharray="none" stroke="black"/>
<line clip-path="url(#clipPath1)" fill="none" x1="767" x2="771" y1="468" y2="468" stroke-dasharray="none" stroke="black"/>
<line clip-path="url(#clipPath1)" fill="none" x1="771" x2="776" y1="468" y2="468" stroke-dasharray="none" stroke="black"/>
<line clip-path="url(#clipPath1)" fill="none" x1="776" x2="780" y1="468" y2="468" stroke-dasharray="none" stroke="black"/>
<line clip-path="url(#clipPath1)" fill="none" x1="780" x2="785" y1="468" y2="468" stroke-dasharray="none" stroke="black"/>
<line clip-path="url(#clipPath1)" fill="none" x1="785" x2="789" y1="468" y2="468" stroke-dasharray="none" stroke="black"/>
<line clip-path="url(#clipPath1)" fill="none" x1="789" x2="793" y1="468" y2="468" stroke-dasharray="none" stroke="black"/>
<line clip-path="url(#clipPath1)" fill="none" x1="793" x2="798" y1="468" y2="468" stroke-dasharray="none" stroke="black"/>
<line clip-path="url(#clipPath1)" fill="none" x1="798" x2="802" y1="468" y2="468" stroke-dasharray="none" stroke="black"/>
<line clip-path="url(#clipPath1)" fill="none" x1="802" x2="807" y1="468" y2="468" stroke-dasharray="none" stroke="black"/>
<line clip-path="url(#clipPath1)" fill="none" x1="807" x2="811" y1="468" y2="468" stroke-dasharray="none" stroke="black"/>
<line clip-path="url(#clipPath1)" fill="none" x1="811" x2="816" y1="468" y2="468" stroke-dasharray="none" stroke="black"/>
<line clip-path="url(#clipPath1)" fill="none" x1="816" x2="820" y1="468" y2="468" stroke-dasharray="none" stroke="black"/>
<line clip-path="url(#clipPath1)" fill="none" x1="820" x2="824" y1="468" y2="468" stroke-dasharray="none" stroke="black"/>
<line clip-path="url(#clipPath1)" fill="none" x1="824" x2="829" y1="468" y2="468" stroke-dasharray="none" stroke="black"/>
<line clip-path="url(#clipPath1)" fill="none" x1="829" x2="833" y1="468" y2="468" stroke-dasharray="none" stroke="black"/>
<line clip-path="url(#clipPath1)" fill="none" x1="833" x2="838" y1="468" y2="468" stroke-dasharray="none" stroke="black"/>
<line clip-path="url(#clipPath1)" fill="none" x1="838" x2="842" y1="468" y2="468" stroke-dasharray="none" stroke="black"/>
<line clip-path="url(#clipPath1)" fill="none" x1="842" x2="847" y1="468" y2="468" stroke-dasharray="none" stroke="black"/>
<line clip-path="url(#clipPath1)" fill="none" x1="847" x2="851" y1="468" y2="468" stroke-dasharray="none" stroke="black"/>
<line clip-path="url(#clipPath1)" fill="none" x1="851" x2="855" y1="468" y2="468" stroke-dasharray="none" stroke="black"/>
<line clip-path="url(#clipPath1)" fill="none" x1="855" x2="860" y1="468" y2="468" stroke-dasharray="none" stroke="black"/>
<rect x="28" y="23" clip-path="url(#clipPath2)" fill="none" width="645" stroke-dasharray="none" height="445" stroke="black"/>
</g>
<g text-rendering="geometricPrecision" font-size="13" stroke-linecap="butt">
<line clip-path="url(#clipPath2)" fill="none" x1="28" x2="673" y1="21" y2="21"/>
<line clip-path="url(#clipPath2)" fill="none" x1="28" x2="673" y1="470" y2="470"/>
<line clip-path="url(#clipPath2)" fill="none" x1="38" x2="38" y1="19" y2="21"/>
<line clip-path="url(#clipPath2)" fill="none" x1="38" x2="38" y1="472" y2="470"/>
<line clip-path="url(#clipPath2)" fill="none" x1="54" x2="54" y1="17" y2="21"/>
<line clip-path="url(#clipPath2)" fill="none" x1="54" x2="54" y1="474" y2="470"/>
<text x="34" font-size="11" y="14" clip-path="url(#clipPath2)" stroke="none" xml:space="preserve">0.00010</text>
<text x="34" font-size="11" y="486" clip-path="url(#clipPath2)" stroke="none" xml:space="preserve">0.00010</text>
<line clip-path="url(#clipPath2)" fill="none" x1="70" x2="70" y1="19" y2="21"/>
<line clip-path="url(#clipPath2)" fill="none" x1="70" x2="70" y1="472" y2="470"/>
<line clip-path="url(#clipPath2)" fill="none" x1="86" x2="86" y1="19" y2="21"/>
<line clip-path="url(#clipPath2)" fill="none" x1="86" x2="86" y1="472" y2="470"/>
<line clip-path="url(#clipPath2)" fill="none" x1="102" x2="102" y1="19" y2="21"/>
<line clip-path="url(#clipPath2)" fill="none" x1="102" x2="102" y1="472" y2="470"/>
<line clip-path="url(#clipPath2)" fill="none" x1="118" x2="118" y1="19" y2="21"/>
<line clip-path="url(#clipPath2)" fill="none" x1="118" x2="118" y1="472" y2="470"/>
<line clip-path="url(#clipPath2)" fill="none" x1="134" x2="134" y1="17" y2="21"/>
<line clip-path="url(#clipPath2)" fill="none" x1="134" x2="134" y1="474" y2="470"/>
<text x="114" font-size="11" y="14" clip-path="url(#clipPath2)" stroke="none" xml:space="preserve">0.00020</text>
<text x="114" font-size="11" y="486" clip-path="url(#clipPath2)" stroke="none" xml:space="preserve">0.00020</text>
<line clip-path="url(#clipPath2)" fill="none" x1="150" x2="150" y1="19" y2="21"/>
<line clip-path="url(#clipPath2)" fill="none" x1="150" x2="150" y1="472" y2="470"/>
<line clip-path="url(#clipPath2)" fill="none" x1="165" x2="165" y1="19" y2="21"/>
<line clip-path="url(#clipPath2)" fill="none" x1="165" x2="165" y1="472" y2="470"/>
<line clip-path="url(#clipPath2)" fill="none" x1="181" x2="181" y1="19" y2="21"/>
<line clip-path="url(#clipPath2)" fill="none" x1="181" x2="181" y1="472" y2="470"/>
<line clip-path="url(#clipPath2)" fill="none" x1="197" x2="197" y1="19" y2="21"/>
<line clip-path="url(#clipPath2)" fill="none" x1="197" x2="197" y1="472" y2="470"/>
<line clip-path="url(#clipPath2)" fill="none" x1="213" x2="213" y1="17" y2="21"/>
<line clip-path="url(#clipPath2)" fill="none" x1="213" x2="213" y1="474" y2="470"/>
<text x="193" font-size="11" y="14" clip-path="url(#clipPath2)" stroke="none" xml:space="preserve">0.00030</text>
<text x="193" font-size="11" y="486" clip-path="url(#clipPath2)" stroke="none" xml:space="preserve">0.00030</text>
<line clip-path="url(#clipPath2)" fill="none" x1="229" x2="229" y1="19" y2="21"/>
<line clip-path="url(#clipPath2)" fill="none" x1="229" x2="229" y1="472" y2="470"/>
<line clip-path="url(#clipPath2)" fill="none" x1="245" x2="245" y1="19" y2="21"/>
<line clip-path="url(#clipPath2)" fill="none" x1="245" x2="245" y1="472" y2="470"/>
<line clip-path="url(#clipPath2)" fill="none" x1="261" x2="261" y1="19" y2="21"/>
<line clip-path="url(#clipPath2)" fill="none" x1="261" x2="261" y1="472" y2="470"/>
<line clip-path="url(#clipPath2)" fill="none" x1="277" x2="277" y1="19" y2="21"/>
<line clip-path="url(#clipPath2)" fill="none" x1="277" x2="277" y1="472" y2="470"/>
<line clip-path="url(#clipPath2)" fill="none" x1="293" x2="293" y1="17" y2="21"/>
<line clip-path="url(#clipPath2)" fill="none" x1="293" x2="293" y1="474" y2="470"/>
<text x="273" font-size="11" y="14" clip-path="url(#clipPath2)" stroke="none" xml:space="preserve">0.00040</text>
<text x="273" font-size="11" y="486" clip-path="url(#clipPath2)" stroke="none" xml:space="preserve">0.00040</text>
<line clip-path="url(#clipPath2)" fill="none" x1="309" x2="309" y1="19" y2="21"/>
<line clip-path="url(#clipPath2)" fill="none" x1="309" x2="309" y1="472" y2="470"/>
<line clip-path="url(#clipPath2)" fill="none" x1="325" x2="325" y1="19" y2="21"/>
<line clip-path="url(#clipPath2)" fill="none" x1="325" x2="325" y1="472" y2="470"/>
<line clip-path="url(#clipPath2)" fill="none" x1="341" x2="341" y1="19" y2="21"/>
<line clip-path="url(#clipPath2)" fill="none" x1="341" x2="341" y1="472" y2="470"/>
<line clip-path="url(#clipPath2)" fill="none" x1="356" x2="356" y1="19" y2="21"/>
<line clip-path="url(#clipPath2)" fill="none" x1="356" x2="356" y1="472" y2="470"/>
<line clip-path="url(#clipPath2)" fill="none" x1="372" x2="372" y1="17" y2="21"/>
<line clip-path="url(#clipPath2)" fill="none" x1="372" x2="372" y1="474" y2="470"/>
<text x="352" font-size="11" y="14" clip-path="url(#clipPath2)" stroke="none" xml:space="preserve">0.00050</text>
<text x="352" font-size="11" y="486" clip-path="url(#clipPath2)" stroke="none" xml:space="preserve">0.00050</text>
<line clip-path="url(#clipPath2)" fill="none" x1="388" x2="388" y1="19" y2="21"/>
<line clip-path="url(#clipPath2)" fill="none" x1="388" x2="388" y1="472" y2="470"/>
<line clip-path="url(#clipPath2)" fill="none" x1="404" x2="404" y1="19" y2="21"/>
<line clip-path="url(#clipPath2)" fill="none" x1="404" x2="404" y1="472" y2="470"/>
<line clip-path="url(#clipPath2)" fill="none" x1="420" x2="420" y1="19" y2="21"/>
<line clip-path="url(#clipPath2)" fill="none" x1="420" x2="420" y1="472" y2="470"/>
<line clip-path="url(#clipPath2)" fill="none" x1="436" x2="436" y1="19" y2="21"/>
<line clip-path="url(#clipPath2)" fill="none" x1="436" x2="436" y1="472" y2="470"/>
<line clip-path="url(#clipPath2)" fill="none" x1="452" x2="452" y1="17" y2="21"/>
<line clip-path="url(#clipPath2)" fill="none" x1="452" x2="452" y1="474" y2="470"/>
<text x="432" font-size="11" y="14" clip-path="url(#clipPath2)" stroke="none" xml:space="preserve">0.00060</text>
<text x="432" font-size="11" y="486" clip-path="url(#clipPath2)" stroke="none" xml:space="preserve">0.00060</text>
<line clip-path="url(#clipPath2)" fill="none" x1="468" x2="468" y1="19" y2="21"/>
<line clip-path="url(#clipPath2)" fill="none" x1="468" x2="468" y1="472" y2="470"/>
<line clip-path="url(#clipPath2)" fill="none" x1="484" x2="484" y1="19" y2="21"/>
<line clip-path="url(#clipPath2)" fill="none" x1="484" x2="484" y1="472" y2="470"/>
<line clip-path="url(#clipPath2)" fill="none" x1="500" x2="500" y1="19" y2="21"/>
<line clip-path="url(#clipPath2)" fill="none" x1="500" x2="500" y1="472" y2="470"/>
<line clip-path="url(#clipPath2)" fill="none" x1="516" x2="516" y1="19" y2="21"/>
<line clip-path="url(#clipPath2)" fill="none" x1="516" x2="516" y1="472" y2="470"/>
<line clip-path="url(#clipPath2)" fill="none" x1="532" x2="532" y1="17" y2="21"/>
<line clip-path="url(#clipPath2)" fill="none" x1="532" x2="532" y1="474" y2="470"/>
<text x="512" font-size="11" y="14" clip-path="url(#clipPath2)" stroke="none" xml:space="preserve">0.00070</text>
<text x="512" font-size="11" y="486" clip-path="url(#clipPath2)" stroke="none" xml:space="preserve">0.00070</text>
<line clip-path="url(#clipPath2)" fill="none" x1="547" x2="547" y1="19" y2="21"/>
<line clip-path="url(#clipPath2)" fill="none" x1="547" x2="547" y1="472" y2="470"/>
<line clip-path="url(#clipPath2)" fill="none" x1="563" x2="563" y1="19" y2="21"/>
<line clip-path="url(#clipPath2)" fill="none" x1="563" x2="563" y1="472" y2="470"/>
<line clip-path="url(#clipPath2)" fill="none" x1="579" x2="579" y1="19" y2="21"/>
<line clip-path="url(#clipPath2)" fill="none" x1="579" x2="579" y1="472" y2="470"/>
<line clip-path="url(#clipPath2)" fill="none" x1="595" x2="595" y1="19" y2="21"/>
<line clip-path="url(#clipPath2)" fill="none" x1="595" x2="595" y1="472" y2="470"/>
<line clip-path="url(#clipPath2)" fill="none" x1="611" x2="611" y1="17" y2="21"/>
<line clip-path="url(#clipPath2)" fill="none" x1="611" x2="611" y1="474" y2="470"/>
<text x="591" font-size="11" y="14" clip-path="url(#clipPath2)" stroke="none" xml:space="preserve">0.00080</text>
<text x="591" font-size="11" y="486" clip-path="url(#clipPath2)" stroke="none" xml:space="preserve">0.00080</text>
<line clip-path="url(#clipPath2)" fill="none" x1="627" x2="627" y1="19" y2="21"/>
<line clip-path="url(#clipPath2)" fill="none" x1="627" x2="627" y1="472" y2="470"/>
<line clip-path="url(#clipPath2)" fill="none" x1="643" x2="643" y1="19" y2="21"/>
<line clip-path="url(#clipPath2)" fill="none" x1="643" x2="643" y1="472" y2="470"/>
<line clip-path="url(#clipPath2)" fill="none" x1="659" x2="659" y1="19" y2="21"/>
<line clip-path="url(#clipPath2)" fill="none" x1="659" x2="659" y1="472" y2="470"/>
<line clip-path="url(#clipPath2)" fill="none" x1="26" x2="26" y1="23" y2="468"/>
<line clip-path="url(#clipPath2)" fill="none" x1="675" x2="675" y1="23" y2="468"/>
<line clip-path="url(#clipPath2)" fill="none" x1="22" x2="26" y1="468" y2="468"/>
<line clip-path="url(#clipPath2)" fill="none" x1="679" x2="675" y1="468" y2="468"/>
<text x="15" font-size="11" y="473" clip-path="url(#clipPath2)" stroke="none" xml:space="preserve">0</text>
<text x="682" font-size="11" y="473" clip-path="url(#clipPath2)" stroke="none" xml:space="preserve">0</text>
<line clip-path="url(#clipPath2)" fill="none" x1="24" x2="26" y1="455" y2="455"/>
<line clip-path="url(#clipPath2)" fill="none" x1="677" x2="675" y1="455" y2="455"/>
<line clip-path="url(#clipPath2)" fill="none" x1="24" x2="26" y1="441" y2="441"/>
<line clip-path="url(#clipPath2)" fill="none" x1="677" x2="675" y1="441" y2="441"/>
<line clip-path="url(#clipPath2)" fill="none" x1="24" x2="26" y1="427" y2="427"/>
<line clip-path="url(#clipPath2)" fill="none" x1="677" x2="675" y1="427" y2="427"/>
<line clip-path="url(#clipPath2)" fill="none" x1="24" x2="26" y1="413" y2="413"/>
<line clip-path="url(#clipPath2)" fill="none" x1="677" x2="675" y1="413" y2="413"/>
<line clip-path="url(#clipPath2)" fill="none" x1="22" x2="26" y1="400" y2="400"/>
<line clip-path="url(#clipPath2)" fill="none" x1="679" x2="675" y1="400" y2="400"/>
<text x="9" font-size="11" y="405" clip-path="url(#clipPath2)" stroke="none" xml:space="preserve">10</text>
<text x="682" font-size="11" y="405" clip-path="url(#clipPath2)" stroke="none" xml:space="preserve">10</text>
<line clip-path="url(#clipPath2)" fill="none" x1="24" x2="26" y1="386" y2="386"/>
<line clip-path="url(#clipPath2)" fill="none" x1="677" x2="675" y1="386" y2="386"/>
<line clip-path="url(#clipPath2)" fill="none" x1="24" x2="26" y1="372" y2="372"/>
<line clip-path="url(#clipPath2)" fill="none" x1="677" x2="675" y1="372" y2="372"/>
<line clip-path="url(#clipPath2)" fill="none" x1="24" x2="26" y1="359" y2="359"/>
<line clip-path="url(#clipPath2)" fill="none" x1="677" x2="675" y1="359" y2="359"/>
<line clip-path="url(#clipPath2)" fill="none" x1="24" x2="26" y1="345" y2="345"/>
<line clip-path="url(#clipPath2)" fill="none" x1="677" x2="675" y1="345" y2="345"/>
<line clip-path="url(#clipPath2)" fill="none" x1="22" x2="26" y1="331" y2="331"/>
<line clip-path="url(#clipPath2)" fill="none" x1="679" x2="675" y1="331" y2="331"/>
<text x="9" font-size="11" y="336" clip-path="url(#clipPath2)" stroke="none" xml:space="preserve">20</text>
<text x="682" font-size="11" y="336" clip-path="url(#clipPath2)" stroke="none" xml:space="preserve">20</text>
<line clip-path="url(#clipPath2)" fill="none" x1="24" x2="26" y1="317" y2="317"/>
<line clip-path="url(#clipPath2)" fill="none" x1="677" x2="675" y1="317" y2="317"/>
<line clip-path="url(#clipPath2)" fill="none" x1="24" x2="26" y1="304" y2="304"/>
<line clip-path="url(#clipPath2)" fill="none" x1="677" x2="675" y1="304" y2="304"/>
<line clip-path="url(#clipPath2)" fill="none" x1="24" x2="26" y1="290" y2="290"/>
<line clip-path="url(#clipPath2)" fill="none" x1="677" x2="675" y1="290" y2="290"/>
<line clip-path="url(#clipPath2)" fill="none" x1="24" x2="26" y1="276" y2="276"/>
<line clip-path="url(#clipPath2)" fill="none" x1="677" x2="675" y1="276" y2="276"/>
<line clip-path="url(#clipPath2)" fill="none" x1="22" x2="26" y1="263" y2="263"/>
<line clip-path="url(#clipPath2)" fill="none" x1="679" x2="675" y1="263" y2="263"/>
<text x="9" font-size="11" y="268" clip-path="url(#clipPath2)" stroke="none" xml:space="preserve">30</text>
<text x="682" font-size="11" y="268" clip-path="url(#clipPath2)" stroke="none" xml:space="preserve">30</text>
<line clip-path="url(#clipPath2)" fill="none" x1="24" x2="26" y1="249" y2="249"/>
<line clip-path="url(#clipPath2)" fill="none" x1="677" x2="675" y1="249" y2="249"/>
<line clip-path="url(#clipPath2)" fill="none" x1="24" x2="26" y1="235" y2="235"/>
<line clip-path="url(#clipPath2)" fill="none" x1="677" x2="675" y1="235" y2="235"/>
<line clip-path="url(#clipPath2)" fill="none" x1="24" x2="26" y1="221" y2="221"/>
<line clip-path="url(#clipPath2)" fill="none" x1="677" x2="675" y1="221" y2="221"/>
<line clip-path="url(#clipPath2)" fill="none" x1="24" x2="26" y1="208" y2="208"/>
<line clip-path="url(#clipPath2)" fill="none" x1="677" x2="675" y1="208" y2="208"/>
<line clip-path="url(#clipPath2)" fill="none" x1="22" x2="26" y1="194" y2="194"/>
<line clip-path="url(#clipPath2)" fill="none" x1="679" x2="675" y1="194" y2="194"/>
<text x="9" font-size="11" y="199" clip-path="url(#clipPath2)" stroke="none" xml:space="preserve">40</text>
<text x="682" font-size="11" y="199" clip-path="url(#clipPath2)" stroke="none" xml:space="preserve">40</text>
<line clip-path="url(#clipPath2)" fill="none" x1="24" x2="26" y1="180" y2="180"/>
<line clip-path="url(#clipPath2)" fill="none" x1="677" x2="675" y1="180" y2="180"/>
<line clip-path="url(#clipPath2)" fill="none" x1="24" x2="26" y1="167" y2="167"/>
<line clip-path="url(#clipPath2)" fill="none" x1="677" x2="675" y1="167" y2="167"/>
<line clip-path="url(#clipPath2)" fill="none" x1="24" x2="26" y1="153" y2="153"/>
<line clip-path="url(#clipPath2)" fill="none" x1="677" x2="675" y1="153" y2="153"/>
<line clip-path="url(#clipPath2)" fill="none" x1="24" x2="26" y1="139" y2="139"/>
<line clip-path="url(#clipPath2)" fill="none" x1="677" x2="675" y1="139" y2="139"/>
<line clip-path="url(#clipPath2)" fill="none" x1="22" x2="26" y1="125" y2="125"/>
<line clip-path="url(#clipPath2)" fill="none" x1="679" x2="675" y1="125" y2="125"/>
<text x="9" font-size="11" y="130" clip-path="url(#clipPath2)" stroke="none" xml:space="preserve">50</text>
<text x="682" font-size="11" y="130" clip-path="url(#clipPath2)" stroke="none" xml:space="preserve">50</text>
<line clip-path="url(#clipPath2)" fill="none" x1="24" x2="26" y1="112" y2="112"/>
<line clip-path="url(#clipPath2)" fill="none" x1="677" x2="675" y1="112" y2="112"/>
<line clip-path="url(#clipPath2)" fill="none" x1="24" x2="26" y1="98" y2="98"/>
<line clip-path="url(#clipPath2)" fill="none" x1="677" x2="675" y1="98" y2="98"/>
<line clip-path="url(#clipPath2)" fill="none" x1="24" x2="26" y1="84" y2="84"/>
<line clip-path="url(#clipPath2)" fill="none" x1="677" x2="675" y1="84" y2="84"/>
<line clip-path="url(#clipPath2)" fill="none" x1="24" x2="26" y1="71" y2="71"/>
<line clip-path="url(#clipPath2)" fill="none" x1="677" x2="675" y1="71" y2="71"/>
<line clip-path="url(#clipPath2)" fill="none" x1="22" x2="26" y1="57" y2="57"/>
<line clip-path="url(#clipPath2)" fill="none" x1="679" x2="675" y1="57" y2="57"/>
<text x="9" font-size="11" y="62" clip-path="url(#clipPath2)" stroke="none" xml:space="preserve">60</text>
<text x="682" font-size="11" y="62" clip-path="url(#clipPath2)" stroke="none" xml:space="preserve">60</text>
<line clip-path="url(#clipPath2)" fill="none" x1="24" x2="26" y1="43" y2="43"/>
<line clip-path="url(#clipPath2)" fill="none" x1="677" x2="675" y1="43" y2="43"/>
<line clip-path="url(#clipPath2)" fill="none" x1="24" x2="26" y1="29" y2="29"/>
<line clip-path="url(#clipPath2)" fill="none" x1="677" x2="675" y1="29" y2="29"/>
</g>
</g>
</svg>
