<?xml version="1.0" encoding="UTF-8"?><svg xmlns="http://www.w3.org/2000/svg" xmlns:xlink="http://www.w3.org/1999/xlink" stroke-dasharray="none" shape-rendering="auto" font-family="'Dialog'" width="701" text-rendering="auto" fill-opacity="1" contentScriptType="text/ecmascript" color-interpolation="auto" color-rendering="auto" preserveAspectRatio="xMidYMid meet" font-size="12" fill="black" stroke="black" image-rendering="auto" stroke-miterlimit="10" zoomAndPan="magnify" version="1.0" stroke-linecap="square" stroke-linejoin="miter" contentStyleType="text/css" font-style="normal" height="491" stroke-width="1" stroke-dashoffset="0" font-weight="normal" stroke-opacity="1">
<!--Generated by the Batik Graphics2D SVG Generator-->
<defs id="genericDefs"/>
<g>
<defs id="defs1">
<clipPath clipPathUnits="userSpaceOnUse" id="clipPath1">
<path d="M27 22 L674 22 L674 469 L27 469 L27 22 Z"/>
</clipPath>
<clipPath clipPathUnits="userSpaceOnUse" id="clipPath2">
<path d="M-1 -1 L702 -1 L702 492 L-1 492 L-1 -1 Z"/>
</clipPath>
</defs>
<g font-size="15" fill="white" text-rendering="geometricPrecision" font-family="'Cantarell'" stroke-linejoin="round" stroke="white" stroke-width="0" stroke-miterlimit="0">
<rect x="28" y="23" clip-path="url(#clipPath1)" width="645" height="445" stroke="none"/>
</g>
<g stroke-linecap="butt" font-size="15" fill="rgb(204,204,204)" text-rendering="geometricPrecision" font-family="'Cantarell'" stroke-dasharray="3,3" stroke="rgb(204,204,204)">
<line clip-path="url(#clipPath1)" fill="none" x1="28" x2="673" y1="468" y2="468"/>
<line clip-path="url(#clipPath1)" fill="none" x1="28" x2="673" y1="393" y2="393"/>
<line clip-path="url(#clipPath1)" fill="none" x1="28" x2="673" y1="317" y2="317"/>
<line clip-path="url(#clipPath1)" fill="none" x1="28" x2="673" y1="242" y2="242"/>
<line clip-path="url(#clipPath1)" fill="none" x1="28" x2="673" y1="167" y2="167"/>
<line clip-path="url(#clipPath1)" fill="none" x1="28" x2="673" y1="91" y2="91"/>
<line clip-path="url(#clipPath1)" fill="none" x1="-945" x2="-935" y1="468" y2="468" stroke-dasharray="none" stroke="black"/>
<line clip-path="url(#clipPath1)" fill="none" x1="-935" x2="-925" y1="468" y2="468" stroke-dasharray="none" stroke="black"/>
<line clip-path="url(#clipPath1)" fill="none" x1="-925" x2="-916" y1="468" y2="468" stroke-dasharray="none" stroke="black"/>
<line clip-path="url(#clipPath1)" fill="none" x1="-916" x2="-906" y1="468" y2="468" stroke-dasharray="none" stroke="black"/>
<line clip-path="url(#clipPath1)" fill="none" x1="-906" x2="-897" y1="468" y2="468" stroke-dasharray="none" stroke="black"/>
<line clip-path="url(#clipPath1)" fill="none" x1="-897" x2="-887" y1="468" y2="468" stroke-dasharray="none" stroke="black"/>
<line clip-path="url(#clipPath1)" fill="none" x1="-887" x2="-877" y1="468" y2="468" stroke-dasharray="none" stroke="black"/>
<line clip-path="url(#clipPath1)" fill="none" x1="-877" x2="-868" y1="468" y2="468" stroke-dasharray="none" stroke="black"/>
<line clip-path="url(#clipPath1)" fill="none" x1="-868" x2="-858" y1="468" y2="468" stroke-dasharray="none" stroke="black"/>
<line clip-path="url(#clipPath1)" fill="none" x1="-858" x2="-849" y1="468" y2="468" stroke-dasharray="none" stroke="black"/>
<line clip-path="url(#clipPath1)" fill="none" x1="-849" x2="-839" y1="468" y2="468" stroke-dasharray="none" stroke="black"/>
<line clip-path="url(#clipPath1)" fill="none" x1="-839" x2="-829" y1="468" y2="468" stroke-dasharray="none" stroke="black"/>
<line clip-path="url(#clipPath1)" fill="none" x1="-829" x2="-820" y1="468" y2="468" stroke-dasharray="none" stroke="black"/>
<line clip-path="url(#clipPath1)" fill="none" x1="-820" x2="-810" y1="468" y2="468" stroke-dasharray="none" stroke="black"/>
<line clip-path="url(#clipPath1)" fill="none" x1="-810" x2="-801" y1="468" y2="468" stroke-dasharray="none" stroke="black"/>
<line clip-path="url(#clipPath1)" fill="none" x1="-801" x2="-791" y1="468" y2="468" stroke-dasharray="none" stroke="black"/>
<line clip-path="url(#clipPath1)" fill="none" x1="-791" x2="-782" y1="468" y2="468" stroke-dasharray="none" stroke="black"/>
<line clip-path="url(#clipPath1)" fill="none" x1="-782" x2="-772" y1="468" y2="468" stroke-dasharray="none" stroke="black"/>
<line clip-path="url(#clipPath1)" fill="none" x1="-772" x2="-762" y1="468" y2="468" stroke-dasharray="none" stroke="black"/>
<line clip-path="url(#clipPath1)" fill="none" x1="-762" x2="-753" y1="468" y2="468" stroke-dasharray="none" stroke="black"/>
<line clip-path="url(#clipPath1)" fill="none" x1="-753" x2="-743" y1="468" y2="468" stroke-dasharray="none" stroke="black"/>
<line clip-path="url(#clipPath1)" fill="none" x1="-743" x2="-734" y1="468" y2="468" stroke-dasharray="none" stroke="black"/>
<line clip-path="url(#clipPath1)" fill="none" x1="-734" x2="-724" y1="468" y2="468" stroke-dasharray="none" stroke="black"/>
<line clip-path="url(#clipPath1)" fill="none" x1="-724" x2="-714" y1="468" y2="468" stroke-dasharray="none" stroke="black"/>
<line clip-path="url(#clipPath1)" fill="none" x1="-714" x2="-705" y1="468" y2="468" stroke-dasharray="none" stroke="black"/>
<line clip-path="url(#clipPath1)" fill="none" x1="-705" x2="-695" y1="468" y2="468" stroke-dasharray="none" stroke="black"/>
<line clip-path="url(#clipPath1)" fill="none" x1="-695" x2="-686" y1="468" y2="468" stroke-dasharray="none" stroke="black"/>
<line clip-path="url(#clipPath1)" fill="none" x1="-686" x2="-676" y1="468" y2="468" stroke-dasharray="none" stroke="black"/>
<line clip-path="url(#clipPath1)" fill="none" x1="-676" x2="-666" y1="468" y2="468" stroke-dasharray="none" stroke="black"/>
<line clip-path="url(#clipPath1)" fill="none" x1="-666" x2="-657" y1="468" y2="468" stroke-dasharray="none" stroke="black"/>
<line clip-path="url(#clipPath1)" fill="none" x1="-657" x2="-647" y1="468" y2="468" stroke-dasharray="none" stroke="black"/>
<line clip-path="url(#clipPath1)" fill="none" x1="-647" x2="-638" y1="468" y2="468" stroke-dasharray="none" stroke="black"/>
<line clip-path="url(#clipPath1)" fill="none" x1="-638" x2="-628" y1="468" y2="468" stroke-dasharray="none" stroke="black"/>
<line clip-path="url(#clipPath1)" fill="none" x1="-628" x2="-619" y1="468" y2="468" stroke-dasharray="none" stroke="black"/>
<line clip-path="url(#clipPath1)" fill="none" x1="-619" x2="-609" y1="468" y2="468" stroke-dasharray="none" stroke="black"/>
<line clip-path="url(#clipPath1)" fill="none" x1="-609" x2="-599" y1="468" y2="468" stroke-dasharray="none" stroke="black"/>
<line clip-path="url(#clipPath1)" fill="none" x1="-599" x2="-590" y1="468" y2="468" stroke-dasharray="none" stroke="black"/>
<line clip-path="url(#clipPath1)" fill="none" x1="-590" x2="-580" y1="468" y2="468" stroke-dasharray="none" stroke="black"/>
<line clip-path="url(#clipPath1)" fill="none" x1="-580" x2="-571" y1="468" y2="468" stroke-dasharray="none" stroke="black"/>
<line clip-path="url(#clipPath1)" fill="none" x1="-571" x2="-561" y1="468" y2="468" stroke-dasharray="none" stroke="black"/>
<line clip-path="url(#clipPath1)" fill="none" x1="-561" x2="-551" y1="468" y2="468" stroke-dasharray="none" stroke="black"/>
<line clip-path="url(#clipPath1)" fill="none" x1="-551" x2="-542" y1="468" y2="468" stroke-dasharray="none" stroke="black"/>
<line clip-path="url(#clipPath1)" fill="none" x1="-542" x2="-532" y1="468" y2="468" stroke-dasharray="none" stroke="black"/>
<line clip-path="url(#clipPath1)" fill="none" x1="-532" x2="-523" y1="468" y2="468" stroke-dasharray="none" stroke="black"/>
<line clip-path="url(#clipPath1)" fill="none" x1="-523" x2="-513" y1="468" y2="468" stroke-dasharray="none" stroke="black"/>
<line clip-path="url(#clipPath1)" fill="none" x1="-513" x2="-503" y1="468" y2="468" stroke-dasharray="none" stroke="black"/>
<line clip-path="url(#clipPath1)" fill="none" x1="-503" x2="-494" y1="468" y2="468" stroke-dasharray="none" stroke="black"/>
<line clip-path="url(#clipPath1)" fill="none" x1="-494" x2="-484" y1="468" y2="468" stroke-dasharray="none" stroke="black"/>
<line clip-path="url(#clipPath1)" fill="none" x1="-484" x2="-475" y1="468" y2="468" stroke-dasharray="none" stroke="black"/>
<line clip-path="url(#clipPath1)" fill="none" x1="-475" x2="-465" y1="468" y2="468" stroke-dasharray="none" stroke="black"/>
<line clip-path="url(#clipPath1)" fill="none" x1="-465" x2="-456" y1="468" y2="468" stroke-dasharray="none" stroke="black"/>
<line clip-path="url(#clipPath1)" fill="none" x1="-456" x2="-446" y1="468" y2="468" stroke-dasharray="none" stroke="black"/>
<line clip-path="url(#clipPath1)" fill="none" x1="-446" x2="-436" y1="468" y2="468" stroke-dasharray="none" stroke="black"/>
<line clip-path="url(#clipPath1)" fill="none" x1="-436" x2="-427" y1="468" y2="468" stroke-dasharray="none" stroke="black"/>
<line clip-path="url(#clipPath1)" fill="none" x1="-427" x2="-417" y1="468" y2="468" stroke-dasharray="none" stroke="black"/>
<line clip-path="url(#clipPath1)" fill="none" x1="-417" x2="-408" y1="468" y2="468" stroke-dasharray="none" stroke="black"/>
<line clip-path="url(#clipPath1)" fill="none" x1="-408" x2="-398" y1="468" y2="468" stroke-dasharray="none" stroke="black"/>
<line clip-path="url(#clipPath1)" fill="none" x1="-398" x2="-388" y1="468" y2="468" stroke-dasharray="none" stroke="black"/>
<line clip-path="url(#clipPath1)" fill="none" x1="-388" x2="-379" y1="468" y2="468" stroke-dasharray="none" stroke="black"/>
<line clip-path="url(#clipPath1)" fill="none" x1="-379" x2="-369" y1="468" y2="468" stroke-dasharray="none" stroke="black"/>
<line clip-path="url(#clipPath1)" fill="none" x1="-369" x2="-360" y1="468" y2="468" stroke-dasharray="none" stroke="black"/>
<line clip-path="url(#clipPath1)" fill="none" x1="-360" x2="-350" y1="468" y2="468" stroke-dasharray="none" stroke="black"/>
<line clip-path="url(#clipPath1)" fill="none" x1="-350" x2="-340" y1="468" y2="468" stroke-dasharray="none" stroke="black"/>
<line clip-path="url(#clipPath1)" fill="none" x1="-340" x2="-331" y1="468" y2="468" stroke-dasharray="none" stroke="black"/>
<line clip-path="url(#clipPath1)" fill="none" x1="-331" x2="-321" y1="468" y2="468" stroke-dasharray="none" stroke="black"/>
<line clip-path="url(#clipPath1)" fill="none" x1="-321" x2="-312" y1="468" y2="468" stroke-dasharray="none" stroke="black"/>
<line clip-path="url(#clipPath1)" fill="none" x1="-312" x2="-302" y1="468" y2="468" stroke-dasharray="none" stroke="black"/>
<line clip-path="url(#clipPath1)" fill="none" x1="-302" x2="-293" y1="468" y2="468" stroke-dasharray="none" stroke="black"/>
<line clip-path="url(#clipPath1)" fill="none" x1="-293" x2="-283" y1="468" y2="468" stroke-dasharray="none" stroke="black"/>
<line clip-path="url(#clipPath1)" fill="none" x1="-283" x2="-273" y1="468" y2="468" stroke-dasharray="none" stroke="black"/>
<line clip-path="url(#clipPath1)" fill="none" x1="-273" x2="-264" y1="468" y2="468" stroke-dasharray="none" stroke="black"/>
<line clip-path="url(#clipPath1)" fill="none" x1="-264" x2="-254" y1="468" y2="468" stroke-dasharray="none" stroke="black"/>
<line clip-path="url(#clipPath1)" fill="none" x1="-254" x2="-245" y1="468" y2="468" stroke-dasharray="none" stroke="black"/>
<line clip-path="url(#clipPath1)" fill="none" x1="-245" x2="-235" y1="468" y2="468" stroke-dasharray="none" stroke="black"/>
<line clip-path="url(#clipPath1)" fill="none" x1="-235" x2="-225" y1="468" y2="468" stroke-dasharray="none" stroke="black"/>
<line clip-path="url(#clipPath1)" fill="none" x1="-225" x2="-216" y1="468" y2="468" stroke-dasharray="none" stroke="black"/>
<line clip-path="url(#clipPath1)" fill="none" x1="-216" x2="-206" y1="468" y2="468" stroke-dasharray="none" stroke="black"/>
<line clip-path="url(#clipPath1)" fill="none" x1="-206" x2="-197" y1="468" y2="468" stroke-dasharray="none" stroke="black"/>
<line clip-path="url(#clipPath1)" fill="none" x1="-197" x2="-187" y1="468" y2="468" stroke-dasharray="none" stroke="black"/>
<line clip-path="url(#clipPath1)" fill="none" x1="-187" x2="-177" y1="468" y2="468" stroke-dasharray="none" stroke="black"/>
<line clip-path="url(#clipPath1)" fill="none" x1="-177" x2="-168" y1="468" y2="468" stroke-dasharray="none" stroke="black"/>
<line clip-path="url(#clipPath1)" fill="none" x1="-168" x2="-158" y1="468" y2="468" stroke-dasharray="none" stroke="black"/>
<line clip-path="url(#clipPath1)" fill="none" x1="-158" x2="-149" y1="468" y2="468" stroke-dasharray="none" stroke="black"/>
<line clip-path="url(#clipPath1)" fill="none" x1="-149" x2="-139" y1="468" y2="468" stroke-dasharray="none" stroke="black"/>
<line clip-path="url(#clipPath1)" fill="none" x1="-139" x2="-130" y1="468" y2="468" stroke-dasharray="none" stroke="black"/>
<line clip-path="url(#clipPath1)" fill="none" x1="-130" x2="-120" y1="468" y2="468" stroke-dasharray="none" stroke="black"/>
<line clip-path="url(#clipPath1)" fill="none" x1="-120" x2="-110" y1="468" y2="468" stroke-dasharray="none" stroke="black"/>
<line clip-path="url(#clipPath1)" fill="none" x1="-110" x2="-101" y1="468" y2="468" stroke-dasharray="none" stroke="black"/>
<line clip-path="url(#clipPath1)" fill="none" x1="-101" x2="-91" y1="468" y2="468" stroke-dasharray="none" stroke="black"/>
<line clip-path="url(#clipPath1)" fill="none" x1="-91" x2="-82" y1="468" y2="468" stroke-dasharray="none" stroke="black"/>
<line clip-path="url(#clipPath1)" fill="none" x1="-82" x2="-72" y1="468" y2="468" stroke-dasharray="none" stroke="black"/>
<line clip-path="url(#clipPath1)" fill="none" x1="-72" x2="-62" y1="468" y2="468" stroke-dasharray="none" stroke="black"/>
<line clip-path="url(#clipPath1)" fill="none" x1="-62" x2="-53" y1="468" y2="468" stroke-dasharray="none" stroke="black"/>
<line clip-path="url(#clipPath1)" fill="none" x1="-53" x2="-43" y1="468" y2="468" stroke-dasharray="none" stroke="black"/>
<line clip-path="url(#clipPath1)" fill="none" x1="-43" x2="-34" y1="468" y2="468" stroke-dasharray="none" stroke="black"/>
<line clip-path="url(#clipPath1)" fill="none" x1="-34" x2="-24" y1="468" y2="468" stroke-dasharray="none" stroke="black"/>
<line clip-path="url(#clipPath1)" fill="none" x1="-24" x2="-14" y1="468" y2="468" stroke-dasharray="none" stroke="black"/>
<line clip-path="url(#clipPath1)" fill="none" x1="-14" x2="-5" y1="468" y2="468" stroke-dasharray="none" stroke="black"/>
<line clip-path="url(#clipPath1)" fill="none" x1="-5" x2="4" y1="468" y2="468" stroke-dasharray="none" stroke="black"/>
<line clip-path="url(#clipPath1)" fill="none" x1="4" x2="13" y1="468" y2="468" stroke-dasharray="none" stroke="black"/>
<line clip-path="url(#clipPath1)" fill="none" x1="13" x2="23" y1="468" y2="468" stroke-dasharray="none" stroke="black"/>
<line clip-path="url(#clipPath1)" fill="none" x1="23" x2="32" y1="468" y2="468" stroke-dasharray="none" stroke="black"/>
<line clip-path="url(#clipPath1)" fill="none" x1="32" x2="42" y1="468" y2="468" stroke-dasharray="none" stroke="black"/>
<line clip-path="url(#clipPath1)" fill="none" x1="42" x2="52" y1="468" y2="468" stroke-dasharray="none" stroke="black"/>
<line clip-path="url(#clipPath1)" fill="none" x1="52" x2="61" y1="468" y2="468" stroke-dasharray="none" stroke="black"/>
<line clip-path="url(#clipPath1)" fill="none" x1="61" x2="71" y1="468" y2="468" stroke-dasharray="none" stroke="black"/>
<line clip-path="url(#clipPath1)" fill="none" x1="71" x2="80" y1="468" y2="468" stroke-dasharray="none" stroke="black"/>
<line clip-path="url(#clipPath1)" fill="none" x1="80" x2="90" y1="468" y2="468" stroke-dasharray="none" stroke="black"/>
<line clip-path="url(#clipPath1)" fill="none" x1="90" x2="100" y1="468" y2="468" stroke-dasharray="none" stroke="black"/>
<line clip-path="url(#clipPath1)" fill="none" x1="100" x2="109" y1="468" y2="468" stroke-dasharray="none" stroke="black"/>
<line clip-path="url(#clipPath1)" fill="none" x1="109" x2="119" y1="468" y2="468" stroke-dasharray="none" stroke="black"/>
<line clip-path="url(#clipPath1)" fill="none" x1="119" x2="128" y1="468" y2="468" stroke-dasharray="none" stroke="black"/>
<line clip-path="url(#clipPath1)" fill="none" x1="128" x2="138" y1="468" y2="468" stroke-dasharray="none" stroke="black"/>
<line clip-path="url(#clipPath1)" fill="none" x1="138" x2="148" y1="468" y2="468" stroke-dasharray="none" stroke="black"/>
<line clip-path="url(#clipPath1)" fill="none" x1="148" x2="157" y1="468" y2="468" stroke-dasharray="none" stroke="black"/>
<line clip-path="url(#clipPath1)" fill="none" x1="157" x2="167" y1="468" y2="468" stroke-dasharray="none" stroke="black"/>
<line clip-path="url(#clipPath1)" fill="none" x1="167" x2="176" y1="468" y2="468" stroke-dasharray="none" stroke="black"/>
<line clip-path="url(#clipPath1)" fill="none" x1="176" x2="186" y1="468" y2="468" stroke-dasharray="none" stroke="black"/>
<line clip-path="url(#clipPath1)" fill="none" x1="186" x2="195" y1="468" y2="468" stroke-dasharray="none" stroke="black"/>
<rect x="195" y="167" clip-path="url(#clipPath1)" fill="rgb(0,0,139)" width="10" stroke-dasharray="none" height="301" stroke="none"/>
<rect x="195" y="167" clip-path="url(#clipPath1)" fill="none" width="10" stroke-dasharray="none" height="301" stroke="black"/>
<rect x="205" y="317" clip-path="url(#clipPath1)" fill="rgb(0,0,139)" width="10" stroke-dasharray="none" height="151" stroke="none"/>
<rect x="205" y="317" clip-path="url(#clipPath1)" fill="none" width="10" stroke-dasharray="none" height="151" stroke="black"/>
<rect x="215" y="91" clip-path="url(#clipPath1)" fill="rgb(0,0,139)" width="9" stroke-dasharray="none" height="377" stroke="none"/>
<rect x="215" y="91" clip-path="url(#clipPath1)" fill="none" width="9" stroke-dasharray="none" height="377" stroke="black"/>
<rect x="224" y="317" clip-path="url(#clipPath1)" fill="rgb(0,0,139)" width="10" stroke-dasharray="none" height="151" stroke="none"/>
<rect x="224" y="317" clip-path="url(#clipPath1)" fill="none" width="10" stroke-dasharray="none" height="151" stroke="black"/>
<rect x="234" y="393" clip-path="url(#clipPath1)" fill="rgb(0,0,139)" width="9" stroke-dasharray="none" height="75" stroke="none"/>
<rect x="234" y="393" clip-path="url(#clipPath1)" fill="none" width="9" stroke-dasharray="none" height="75" stroke="black"/>
<line clip-path="url(#clipPath1)" fill="none" x1="243" x2="253" y1="468" y2="468" stroke-dasharray="none" stroke="black"/>
<line clip-path="url(#clipPath1)" fill="none" x1="253" x2="263" y1="468" y2="468" stroke-dasharray="none" stroke="black"/>
<rect x="263" y="242" clip-path="url(#clipPath1)" fill="rgb(0,0,139)" width="9" stroke-dasharray="none" height="226" stroke="none"/>
<rect x="263" y="242" clip-path="url(#clipPath1)" fill="none" width="9" stroke-dasharray="none" height="226" stroke="black"/>
<rect x="272" y="317" clip-path="url(#clipPath1)" fill="rgb(0,0,139)" width="10" stroke-dasharray="none" height="151" stroke="none"/>
<rect x="272" y="317" clip-path="url(#clipPath1)" fill="none" width="10" stroke-dasharray="none" height="151" stroke="black"/>
<rect x="282" y="242" clip-path="url(#clipPath1)" fill="rgb(0,0,139)" width="9" stroke-dasharray="none" height="226" stroke="none"/>
<rect x="282" y="242" clip-path="url(#clipPath1)" fill="none" width="9" stroke-dasharray="none" height="226" stroke="black"/>
<rect x="291" y="393" clip-path="url(#clipPath1)" fill="rgb(0,0,139)" width="10" stroke-dasharray="none" height="75" stroke="none"/>
<rect x="291" y="393" clip-path="url(#clipPath1)" fill="none" width="10" stroke-dasharray="none" height="75" stroke="black"/>
<rect x="301" y="242" clip-path="url(#clipPath1)" fill="rgb(0,0,139)" width="10" stroke-dasharray="none" height="226" stroke="none"/>
<rect x="301" y="242" clip-path="url(#clipPath1)" fill="none" width="10" stroke-dasharray="none" height="226" stroke="black"/>
<rect x="311" y="393" clip-path="url(#clipPath1)" fill="rgb(0,0,139)" width="9" stroke-dasharray="none" height="75" stroke="none"/>
<rect x="311" y="393" clip-path="url(#clipPath1)" fill="none" width="9" stroke-dasharray="none" height="75" stroke="black"/>
<rect x="320" y="91" clip-path="url(#clipPath1)" fill="rgb(0,0,139)" width="10" stroke-dasharray="none" height="377" stroke="none"/>
<rect x="320" y="91" clip-path="url(#clipPath1)" fill="none" width="10" stroke-dasharray="none" height="377" stroke="black"/>
<rect x="330" y="242" clip-path="url(#clipPath1)" fill="rgb(0,0,139)" width="9" stroke-dasharray="none" height="226" stroke="none"/>
<rect x="330" y="242" clip-path="url(#clipPath1)" fill="none" width="9" stroke-dasharray="none" height="226" stroke="black"/>
<rect x="339" y="393" clip-path="url(#clipPath1)" fill="rgb(0,0,139)" width="10" stroke-dasharray="none" height="75" stroke="none"/>
<rect x="339" y="393" clip-path="url(#clipPath1)" fill="none" width="10" stroke-dasharray="none" height="75" stroke="black"/>
<rect x="349" y="393" clip-path="url(#clipPath1)" fill="rgb(0,0,139)" width="9" stroke-dasharray="none" height="75" stroke="none"/>
<rect x="349" y="393" clip-path="url(#clipPath1)" fill="none" width="9" stroke-dasharray="none" height="75" stroke="black"/>
<rect x="358" y="167" clip-path="url(#clipPath1)" fill="rgb(0,0,139)" width="10" stroke-dasharray="none" height="301" stroke="none"/>
<rect x="358" y="167" clip-path="url(#clipPath1)" fill="none" width="10" stroke-dasharray="none" height="301" stroke="black"/>
<rect x="368" y="317" clip-path="url(#clipPath1)" fill="rgb(0,0,139)" width="10" stroke-dasharray="none" height="151" stroke="none"/>
<rect x="368" y="317" clip-path="url(#clipPath1)" fill="none" width="10" stroke-dasharray="none" height="151" stroke="black"/>
<rect x="378" y="317" clip-path="url(#clipPath1)" fill="rgb(0,0,139)" width="9" stroke-dasharray="none" height="151" stroke="none"/>
<rect x="378" y="317" clip-path="url(#clipPath1)" fill="none" width="9" stroke-dasharray="none" height="151" stroke="black"/>
<rect x="387" y="317" clip-path="url(#clipPath1)" fill="rgb(0,0,139)" width="10" stroke-dasharray="none" height="151" stroke="none"/>
<rect x="387" y="317" clip-path="url(#clipPath1)" fill="none" width="10" stroke-dasharray="none" height="151" stroke="black"/>
<rect x="397" y="393" clip-path="url(#clipPath1)" fill="rgb(0,0,139)" width="9" stroke-dasharray="none" height="75" stroke="none"/>
<rect x="397" y="393" clip-path="url(#clipPath1)" fill="none" width="9" stroke-dasharray="none" height="75" stroke="black"/>
<rect x="406" y="317" clip-path="url(#clipPath1)" fill="rgb(0,0,139)" width="10" stroke-dasharray="none" height="151" stroke="none"/>
<rect x="406" y="317" clip-path="url(#clipPath1)" fill="none" width="10" stroke-dasharray="none" height="151" stroke="black"/>
<rect x="416" y="317" clip-path="url(#clipPath1)" fill="rgb(0,0,139)" width="10" stroke-dasharray="none" height="151" stroke="none"/>
<rect x="416" y="317" clip-path="url(#clipPath1)" fill="none" width="10" stroke-dasharray="none" height="151" stroke="black"/>
<rect x="426" y="167" clip-path="url(#clipPath1)" fill="rgb(0,0,139)" width="9" stroke-dasharray="none" height="301" stroke="none"/>
<rect x="426" y="167" clip-path="url(#clipPath1)" fill="none" width="9" stroke-dasharray="none" height="301" stroke="black"/>
<rect x="435" y="393" clip-path="url(#clipPath1)" fill="rgb(0,0,139)" width="10" stroke-dasharray="none" height="75" stroke="none"/>
<rect x="435" y="393" clip-path="url(#clipPath1)" fill="none" width="10" stroke-dasharray="none" height="75" stroke="black"/>
<rect x="445" y="317" clip-path="url(#clipPath1)" fill="rgb(0,0,139)" width="9" stroke-dasharray="none" height="151" stroke="none"/>
<rect x="445" y="317" clip-path="url(#clipPath1)" fill="none" width="9" stroke-dasharray="none" height="151" stroke="black"/>
<rect x="454" y="167" clip-path="url(#clipPath1)" fill="rgb(0,0,139)" width="10" stroke-dasharray="none" height="301" stroke="none"/>
<rect x="454" y="167" clip-path="url(#clipPath1)" fill="none" width="10" stroke-dasharray="none" height="301" stroke="black"/>
<rect x="464" y="393" clip-path="url(#clipPath1)" fill="rgb(0,0,139)" width="10" stroke-dasharray="none" height="75" stroke="none"/>
<rect x="464" y="393" clip-path="url(#clipPath1)" fill="none" width="10" stroke-dasharray="none" height="75" stroke="black"/>
<rect x="474" y="167" clip-path="url(#clipPath1)" fill="rgb(0,0,139)" width="9" stroke-dasharray="none" height="301" stroke="none"/>
<rect x="474" y="167" clip-path="url(#clipPath1)" fill="none" width="9" stroke-dasharray="none" height="301" stroke="black"/>
<rect x="483" y="317" clip-path="url(#clipPath1)" fill="rgb(0,0,139)" width="10" stroke-dasharray="none" height="151" stroke="none"/>
<rect x="483" y="317" clip-path="url(#clipPath1)" fill="none" width="10" stroke-dasharray="none" height="151" stroke="black"/>
<line clip-path="url(#clipPath1)" fill="none" x1="493" x2="502" y1="468" y2="468" stroke-dasharray="none" stroke="black"/>
<rect x="502" y="317" clip-path="url(#clipPath1)" fill="rgb(0,0,139)" width="10" stroke-dasharray="none" height="151" stroke="none"/>
<rect x="502" y="317" clip-path="url(#clipPath1)" fill="none" width="10" stroke-dasharray="none" height="151" stroke="black"/>
<rect x="512" y="393" clip-path="url(#clipPath1)" fill="rgb(0,0,139)" width="9" stroke-dasharray="none" height="75" stroke="none"/>
<rect x="512" y="393" clip-path="url(#clipPath1)" fill="none" width="9" stroke-dasharray="none" height="75" stroke="black"/>
<rect x="521" y="317" clip-path="url(#clipPath1)" fill="rgb(0,0,139)" width="10" stroke-dasharray="none" height="151" stroke="none"/>
<rect x="521" y="317" clip-path="url(#clipPath1)" fill="none" width="10" stroke-dasharray="none" height="151" stroke="black"/>
<line clip-path="url(#clipPath1)" fill="none" x1="531" x2="541" y1="468" y2="468" stroke-dasharray="none" stroke="black"/>
<line clip-path="url(#clipPath1)" fill="none" x1="541" x2="550" y1="468" y2="468" stroke-dasharray="none" stroke="black"/>
<line clip-path="url(#clipPath1)" fill="none" x1="550" x2="560" y1="468" y2="468" stroke-dasharray="none" stroke="black"/>
<line clip-path="url(#clipPath1)" fill="none" x1="560" x2="569" y1="468" y2="468" stroke-dasharray="none" stroke="black"/>
<line clip-path="url(#clipPath1)" fill="none" x1="569" x2="579" y1="468" y2="468" stroke-dasharray="none" stroke="black"/>
<line clip-path="url(#clipPath1)" fill="none" x1="579" x2="589" y1="468" y2="468" stroke-dasharray="none" stroke="black"/>
<line clip-path="url(#clipPath1)" fill="none" x1="589" x2="598" y1="468" y2="468" stroke-dasharray="none" stroke="black"/>
<line clip-path="url(#clipPath1)" fill="none" x1="598" x2="608" y1="468" y2="468" stroke-dasharray="none" stroke="black"/>
<line clip-path="url(#clipPath1)" fill="none" x1="608" x2="617" y1="468" y2="468" stroke-dasharray="none" stroke="black"/>
<line clip-path="url(#clipPath1)" fill="none" x1="617" x2="627" y1="468" y2="468" stroke-dasharray="none" stroke="black"/>
<line clip-path="url(#clipPath1)" fill="none" x1="627" x2="636" y1="468" y2="468" stroke-dasharray="none" stroke="black"/>
<line clip-path="url(#clipPath1)" fill="none" x1="636" x2="646" y1="468" y2="468" stroke-dasharray="none" stroke="black"/>
<line clip-path="url(#clipPath1)" fill="none" x1="646" x2="656" y1="468" y2="468" stroke-dasharray="none" stroke="black"/>
<line clip-path="url(#clipPath1)" fill="none" x1="656" x2="665" y1="468" y2="468" stroke-dasharray="none" stroke="black"/>
<line clip-path="url(#clipPath1)" fill="none" x1="665" x2="675" y1="468" y2="468" stroke-dasharray="none" stroke="black"/>
<line clip-path="url(#clipPath1)" fill="none" x1="675" x2="684" y1="468" y2="468" stroke-dasharray="none" stroke="black"/>
<line clip-path="url(#clipPath1)" fill="none" x1="684" x2="694" y1="468" y2="468" stroke-dasharray="none" stroke="black"/>
<line clip-path="url(#clipPath1)" fill="none" x1="694" x2="704" y1="468" y2="468" stroke-dasharray="none" stroke="black"/>
<line clip-path="url(#clipPath1)" fill="none" x1="704" x2="713" y1="468" y2="468" stroke-dasharray="none" stroke="black"/>
<line clip-path="url(#clipPath1)" fill="none" x1="713" x2="723" y1="468" y2="468" stroke-dasharray="none" stroke="black"/>
<line clip-path="url(#clipPath1)" fill="none" x1="723" x2="732" y1="468" y2="468" stroke-dasharray="none" stroke="black"/>
<line clip-path="url(#clipPath1)" fill="none" x1="732" x2="742" y1="468" y2="468" stroke-dasharray="none" stroke="black"/>
<line clip-path="url(#clipPath1)" fill="none" x1="742" x2="752" y1="468" y2="468" stroke-dasharray="none" stroke="black"/>
<line clip-path="url(#clipPath1)" fill="none" x1="752" x2="761" y1="468" y2="468" stroke-dasharray="none" stroke="black"/>
<line clip-path="url(#clipPath1)" fill="none" x1="761" x2="771" y1="468" y2="468" stroke-dasharray="none" stroke="black"/>
<line clip-path="url(#clipPath1)" fill="none" x1="771" x2="780" y1="468" y2="468" stroke-dasharray="none" stroke="black"/>
<line clip-path="url(#clipPath1)" fill="none" x1="780" x2="790" y1="468" y2="468" stroke-dasharray="none" stroke="black"/>
<line clip-path="url(#clipPath1)" fill="none" x1="790" x2="799" y1="468" y2="468" stroke-dasharray="none" stroke="black"/>
<line clip-path="url(#clipPath1)" fill="none" x1="799" x2="809" y1="468" y2="468" stroke-dasharray="none" stroke="black"/>
<line clip-path="url(#clipPath1)" fill="none" x1="809" x2="819" y1="468" y2="468" stroke-dasharray="none" stroke="black"/>
<line clip-path="url(#clipPath1)" fill="none" x1="819" x2="828" y1="468" y2="468" stroke-dasharray="none" stroke="black"/>
<line clip-path="url(#clipPath1)" fill="none" x1="828" x2="838" y1="468" y2="468" stroke-dasharray="none" stroke="black"/>
<line clip-path="url(#clipPath1)" fill="none" x1="838" x2="847" y1="468" y2="468" stroke-dasharray="none" stroke="black"/>
<line clip-path="url(#clipPath1)" fill="none" x1="847" x2="857" y1="468" y2="468" stroke-dasharray="none" stroke="black"/>
<line clip-path="url(#clipPath1)" fill="none" x1="857" x2="867" y1="468" y2="468" stroke-dasharray="none" stroke="black"/>
<line clip-path="url(#clipPath1)" fill="none" x1="867" x2="876" y1="468" y2="468" stroke-dasharray="none" stroke="black"/>
<line clip-path="url(#clipPath1)" fill="none" x1="876" x2="886" y1="468" y2="468" stroke-dasharray="none" stroke="black"/>
<line clip-path="url(#clipPath1)" fill="none" x1="886" x2="895" y1="468" y2="468" stroke-dasharray="none" stroke="black"/>
<line clip-path="url(#clipPath1)" fill="none" x1="895" x2="905" y1="468" y2="468" stroke-dasharray="none" stroke="black"/>
<line clip-path="url(#clipPath1)" fill="none" x1="905" x2="915" y1="468" y2="468" stroke-dasharray="none" stroke="black"/>
<line clip-path="url(#clipPath1)" fill="none" x1="915" x2="924" y1="468" y2="468" stroke-dasharray="none" stroke="black"/>
<line clip-path="url(#clipPath1)" fill="none" x1="924" x2="934" y1="468" y2="468" stroke-dasharray="none" stroke="black"/>
<line clip-path="url(#clipPath1)" fill="none" x1="934" x2="943" y1="468" y2="468" stroke-dasharray="none" stroke="black"/>
<line clip-path="url(#clipPath1)" fill="none" x1="943" x2="953" y1="468" y2="468" stroke-dasharray="none" stroke="black"/>
<line clip-path="url(#clipPath1)" fill="none" x1="953" x2="962" y1="468" y2="468" stroke-dasharray="none" stroke="black"/>
<line clip-path="url(#clipPath1)" fill="none" x1="962" x2="972" y1="468" y2="468" stroke-dasharray="none" stroke="black"/>
<rect x="28" y="23" clip-path="url(#clipPath2)" fill="none" width="645" stroke-dasharray="none" height="445" stroke="black"/>
</g>
<g text-rendering="geometricPrecision" font-size="13" stroke-linecap="butt">
<line clip-path="url(#clipPath2)" fill="none" x1="28" x2="673" y1="21" y2="21"/>
<line clip-path="url(#clipPath2)" fill="none" x1="28" x2="673" y1="470" y2="470"/>
<line clip-path="url(#clipPath2)" fill="none" x1="52" x2="52" y1="19" y2="21"/>
<line clip-path="url(#clipPath2)" fill="none" x1="52" x2="52" y1="472" y2="470"/>
<line clip-path="url(#clipPath2)" fill="none" x1="100" x2="100" y1="17" y2="21"/>
<line clip-path="url(#clipPath2)" fill="none" x1="100" x2="100" y1="474" y2="470"/>
<text x="80" font-size="11" y="14" clip-path="url(#clipPath2)" stroke="none" xml:space="preserve">0.00022</text>
<text x="80" font-size="11" y="486" clip-path="url(#clipPath2)" stroke="none" xml:space="preserve">0.00022</text>
<line clip-path="url(#clipPath2)" fill="none" x1="147" x2="147" y1="19" y2="21"/>
<line clip-path="url(#clipPath2)" fill="none" x1="147" x2="147" y1="472" y2="470"/>
<line clip-path="url(#clipPath2)" fill="none" x1="195" x2="195" y1="17" y2="21"/>
<line clip-path="url(#clipPath2)" fill="none" x1="195" x2="195" y1="474" y2="470"/>
<text x="175" font-size="11" y="14" clip-path="url(#clipPath2)" stroke="none" xml:space="preserve">0.00024</text>
<text x="175" font-size="11" y="486" clip-path="url(#clipPath2)" stroke="none" xml:space="preserve">0.00024</text>
<line clip-path="url(#clipPath2)" fill="none" x1="243" x2="243" y1="19" y2="21"/>
<line clip-path="url(#clipPath2)" fill="none" x1="243" x2="243" y1="472" y2="470"/>
<line clip-path="url(#clipPath2)" fill="none" x1="290" x2="290" y1="17" y2="21"/>
<line clip-path="url(#clipPath2)" fill="none" x1="290" x2="290" y1="474" y2="470"/>
<text x="270" font-size="11" y="14" clip-path="url(#clipPath2)" stroke="none" xml:space="preserve">0.00026</text>
<text x="270" font-size="11" y="486" clip-path="url(#clipPath2)" stroke="none" xml:space="preserve">0.00026</text>
<line clip-path="url(#clipPath2)" fill="none" x1="338" x2="338" y1="19" y2="21"/>
<line clip-path="url(#clipPath2)" fill="none" x1="338" x2="338" y1="472" y2="470"/>
<line clip-path="url(#clipPath2)" fill="none" x1="385" x2="385" y1="17" y2="21"/>
<line clip-path="url(#clipPath2)" fill="none" x1="385" x2="385" y1="474" y2="470"/>
<text x="365" font-size="11" y="14" clip-path="url(#clipPath2)" stroke="none" xml:space="preserve">0.00028</text>
<text x="365" font-size="11" y="486" clip-path="url(#clipPath2)" stroke="none" xml:space="preserve">0.00028</text>
<line clip-path="url(#clipPath2)" fill="none" x1="433" x2="433" y1="19" y2="21"/>
<line clip-path="url(#clipPath2)" fill="none" x1="433" x2="433" y1="472" y2="470"/>
<line clip-path="url(#clipPath2)" fill="none" x1="480" x2="480" y1="17" y2="21"/>
<line clip-path="url(#clipPath2)" fill="none" x1="480" x2="480" y1="474" y2="470"/>
<text x="460" font-size="11" y="14" clip-path="url(#clipPath2)" stroke="none" xml:space="preserve">0.00030</text>
<text x="460" font-size="11" y="486" clip-path="url(#clipPath2)" stroke="none" xml:space="preserve">0.00030</text>
<line clip-path="url(#clipPath2)" fill="none" x1="528" x2="528" y1="19" y2="21"/>
<line clip-path="url(#clipPath2)" fill="none" x1="528" x2="528" y1="472" y2="470"/>
<line clip-path="url(#clipPath2)" fill="none" x1="575" x2="575" y1="17" y2="21"/>
<line clip-path="url(#clipPath2)" fill="none" x1="575" x2="575" y1="474" y2="470"/>
<text x="555" font-size="11" y="14" clip-path="url(#clipPath2)" stroke="none" xml:space="preserve">0.00032</text>
<text x="555" font-size="11" y="486" clip-path="url(#clipPath2)" stroke="none" xml:space="preserve">0.00032</text>
<line clip-path="url(#clipPath2)" fill="none" x1="623" x2="623" y1="19" y2="21"/>
<line clip-path="url(#clipPath2)" fill="none" x1="623" x2="623" y1="472" y2="470"/>
<line clip-path="url(#clipPath2)" fill="none" x1="670" x2="670" y1="17" y2="21"/>
<line clip-path="url(#clipPath2)" fill="none" x1="670" x2="670" y1="474" y2="470"/>
<text x="650" font-size="11" y="14" clip-path="url(#clipPath2)" stroke="none" xml:space="preserve">0.00034</text>
<text x="650" font-size="11" y="486" clip-path="url(#clipPath2)" stroke="none" xml:space="preserve">0.00034</text>
<line clip-path="url(#clipPath2)" fill="none" x1="26" x2="26" y1="23" y2="468"/>
<line clip-path="url(#clipPath2)" fill="none" x1="675" x2="675" y1="23" y2="468"/>
<line clip-path="url(#clipPath2)" fill="none" x1="22" x2="26" y1="468" y2="468"/>
<line clip-path="url(#clipPath2)" fill="none" x1="679" x2="675" y1="468" y2="468"/>
<text x="15" font-size="11" y="473" clip-path="url(#clipPath2)" stroke="none" xml:space="preserve">0</text>
<text x="682" font-size="11" y="473" clip-path="url(#clipPath2)" stroke="none" xml:space="preserve">0</text>
<line clip-path="url(#clipPath2)" fill="none" x1="24" x2="26" y1="453" y2="453"/>
<line clip-path="url(#clipPath2)" fill="none" x1="677" x2="675" y1="453" y2="453"/>
<line clip-path="url(#clipPath2)" fill="none" x1="24" x2="26" y1="438" y2="438"/>
<line clip-path="url(#clipPath2)" fill="none" x1="677" x2="675" y1="438" y2="438"/>
<line clip-path="url(#clipPath2)" fill="none" x1="24" x2="26" y1="423" y2="423"/>
<line clip-path="url(#clipPath2)" fill="none" x1="677" x2="675" y1="423" y2="423"/>
<line clip-path="url(#clipPath2)" fill="none" x1="24" x2="26" y1="408" y2="408"/>
<line clip-path="url(#clipPath2)" fill="none" x1="677" x2="675" y1="408" y2="408"/>
<line clip-path="url(#clipPath2)" fill="none" x1="22" x2="26" y1="393" y2="393"/>
<line clip-path="url(#clipPath2)" fill="none" x1="679" x2="675" y1="393" y2="393"/>
<text x="3" font-size="11" y="398" clip-path="url(#clipPath2)" stroke="none" xml:space="preserve">1.0</text>
<text x="682" font-size="11" y="398" clip-path="url(#clipPath2)" stroke="none" xml:space="preserve">1.0</text>
<line clip-path="url(#clipPath2)" fill="none" x1="24" x2="26" y1="378" y2="378"/>
<line clip-path="url(#clipPath2)" fill="none" x1="677" x2="675" y1="378" y2="378"/>
<line clip-path="url(#clipPath2)" fill="none" x1="24" x2="26" y1="363" y2="363"/>
<line clip-path="url(#clipPath2)" fill="none" x1="677" x2="675" y1="363" y2="363"/>
<line clip-path="url(#clipPath2)" fill="none" x1="24" x2="26" y1="347" y2="347"/>
<line clip-path="url(#clipPath2)" fill="none" x1="677" x2="675" y1="347" y2="347"/>
<line clip-path="url(#clipPath2)" fill="none" x1="24" x2="26" y1="332" y2="332"/>
<line clip-path="url(#clipPath2)" fill="none" x1="677" x2="675" y1="332" y2="332"/>
<line clip-path="url(#clipPath2)" fill="none" x1="22" x2="26" y1="317" y2="317"/>
<line clip-path="url(#clipPath2)" fill="none" x1="679" x2="675" y1="317" y2="317"/>
<text x="3" font-size="11" y="322" clip-path="url(#clipPath2)" stroke="none" xml:space="preserve">2.0</text>
<text x="682" font-size="11" y="322" clip-path="url(#clipPath2)" stroke="none" xml:space="preserve">2.0</text>
<line clip-path="url(#clipPath2)" fill="none" x1="24" x2="26" y1="302" y2="302"/>
<line clip-path="url(#clipPath2)" fill="none" x1="677" x2="675" y1="302" y2="302"/>
<line clip-path="url(#clipPath2)" fill="none" x1="24" x2="26" y1="287" y2="287"/>
<line clip-path="url(#clipPath2)" fill="none" x1="677" x2="675" y1="287" y2="287"/>
<line clip-path="url(#clipPath2)" fill="none" x1="24" x2="26" y1="272" y2="272"/>
<line clip-path="url(#clipPath2)" fill="none" x1="677" x2="675" y1="272" y2="272"/>
<line clip-path="url(#clipPath2)" fill="none" x1="24" x2="26" y1="257" y2="257"/>
<line clip-path="url(#clipPath2)" fill="none" x1="677" x2="675" y1="257" y2="257"/>
<line clip-path="url(#clipPath2)" fill="none" x1="22" x2="26" y1="242" y2="242"/>
<line clip-path="url(#clipPath2)" fill="none" x1="679" x2="675" y1="242" y2="242"/>
<text x="3" font-size="11" y="247" clip-path="url(#clipPath2)" stroke="none" xml:space="preserve">3.0</text>
<text x="682" font-size="11" y="247" clip-path="url(#clipPath2)" stroke="none" xml:space="preserve">3.0</text>
<line clip-path="url(#clipPath2)" fill="none" x1="24" x2="26" y1="227" y2="227"/>
<line clip-path="url(#clipPath2)" fill="none" x1="677" x2="675" y1="227" y2="227"/>
<line clip-path="url(#clipPath2)" fill="none" x1="24" x2="26" y1="212" y2="212"/>
<line clip-path="url(#clipPath2)" fill="none" x1="677" x2="675" y1="212" y2="212"/>
<line clip-path="url(#clipPath2)" fill="none" x1="24" x2="26" y1="197" y2="197"/>
<line clip-path="url(#clipPath2)" fill="none" x1="677" x2="675" y1="197" y2="197"/>
<line clip-path="url(#clipPath2)" fill="none" x1="24" x2="26" y1="182" y2="182"/>
<line clip-path="url(#clipPath2)" fill="none" x1="677" x2="675" y1="182" y2="182"/>
<line clip-path="url(#clipPath2)" fill="none" x1="22" x2="26" y1="167" y2="167"/>
<line clip-path="url(#clipPath2)" fill="none" x1="679" x2="675" y1="167" y2="167"/>
<text x="3" font-size="11" y="172" clip-path="url(#clipPath2)" stroke="none" xml:space="preserve">4.0</text>
<text x="682" font-size="11" y="172" clip-path="url(#clipPath2)" stroke="none" xml:space="preserve">4.0</text>
<line clip-path="url(#clipPath2)" fill="none" x1="24" x2="26" y1="151" y2="151"/>
<line clip-path="url(#clipPath2)" fill="none" x1="677" x2="675" y1="151" y2="151"/>
<line clip-path="url(#clipPath2)" fill="none" x1="24" x2="26" y1="136" y2="136"/>
<line clip-path="url(#clipPath2)" fill="none" x1="677" x2="675" y1="136" y2="136"/>
<line clip-path="url(#clipPath2)" fill="none" x1="24" x2="26" y1="121" y2="121"/>
<line clip-path="url(#clipPath2)" fill="none" x1="677" x2="675" y1="121" y2="121"/>
<line clip-path="url(#clipPath2)" fill="none" x1="24" x2="26" y1="106" y2="106"/>
<line clip-path="url(#clipPath2)" fill="none" x1="677" x2="675" y1="106" y2="106"/>
<line clip-path="url(#clipPath2)" fill="none" x1="22" x2="26" y1="91" y2="91"/>
<line clip-path="url(#clipPath2)" fill="none" x1="679" x2="675" y1="91" y2="91"/>
<text x="3" font-size="11" y="96" clip-path="url(#clipPath2)" stroke="none" xml:space="preserve">5.0</text>
<text x="682" font-size="11" y="96" clip-path="url(#clipPath2)" stroke="none" xml:space="preserve">5.0</text>
<line clip-path="url(#clipPath2)" fill="none" x1="24" x2="26" y1="76" y2="76"/>
<line clip-path="url(#clipPath2)" fill="none" x1="677" x2="675" y1="76" y2="76"/>
<line clip-path="url(#clipPath2)" fill="none" x1="24" x2="26" y1="61" y2="61"/>
<line clip-path="url(#clipPath2)" fill="none" x1="677" x2="675" y1="61" y2="61"/>
<line clip-path="url(#clipPath2)" fill="none" x1="24" x2="26" y1="46" y2="46"/>
<line clip-path="url(#clipPath2)" fill="none" x1="677" x2="675" y1="46" y2="46"/>
<line clip-path="url(#clipPath2)" fill="none" x1="24" x2="26" y1="31" y2="31"/>
<line clip-path="url(#clipPath2)" fill="none" x1="677" x2="675" y1="31" y2="31"/>
</g>
</g>
</svg>
