<?xml version="1.0" encoding="UTF-8"?><svg xmlns="http://www.w3.org/2000/svg" xmlns:xlink="http://www.w3.org/1999/xlink" stroke-dasharray="none" shape-rendering="auto" font-family="'Dialog'" width="701" text-rendering="auto" fill-opacity="1" contentScriptType="text/ecmascript" color-interpolation="auto" color-rendering="auto" preserveAspectRatio="xMidYMid meet" font-size="12" fill="black" stroke="black" image-rendering="auto" stroke-miterlimit="10" zoomAndPan="magnify" version="1.0" stroke-linecap="square" stroke-linejoin="miter" contentStyleType="text/css" font-style="normal" height="453" stroke-width="1" stroke-dashoffset="0" font-weight="normal" stroke-opacity="1">
<!--Generated by the Batik Graphics2D SVG Generator-->
<defs id="genericDefs"/>
<g>
<defs id="defs1">
<clipPath clipPathUnits="userSpaceOnUse" id="clipPath1">
<path d="M41 22 L660 22 L660 431 L41 431 L41 22 Z"/>
</clipPath>
<clipPath clipPathUnits="userSpaceOnUse" id="clipPath2">
<path d="M-1 -1 L702 -1 L702 454 L-1 454 L-1 -1 Z"/>
</clipPath>
</defs>
<g font-size="15" fill="white" text-rendering="geometricPrecision" font-family="'Cantarell'" stroke-linejoin="round" stroke="white" stroke-width="0" stroke-miterlimit="0">
<rect x="42" y="23" clip-path="url(#clipPath1)" width="617" height="407" stroke="none"/>
</g>
<g stroke-linecap="butt" font-size="15" fill="rgb(204,204,204)" text-rendering="geometricPrecision" font-family="'Cantarell'" stroke-dasharray="3,3" stroke="rgb(204,204,204)">
<line clip-path="url(#clipPath1)" fill="none" x1="42" x2="659" y1="430" y2="430"/>
<line clip-path="url(#clipPath1)" fill="none" x1="42" x2="659" y1="352" y2="352"/>
<line clip-path="url(#clipPath1)" fill="none" x1="42" x2="659" y1="273" y2="273"/>
<line clip-path="url(#clipPath1)" fill="none" x1="42" x2="659" y1="195" y2="195"/>
<line clip-path="url(#clipPath1)" fill="none" x1="42" x2="659" y1="117" y2="117"/>
<line clip-path="url(#clipPath1)" fill="none" x1="42" x2="659" y1="39" y2="39"/>
<line clip-path="url(#clipPath1)" fill="none" x1="-533" x2="-526" y1="430" y2="430" stroke-dasharray="none" stroke="black"/>
<line clip-path="url(#clipPath1)" fill="none" x1="-526" x2="-519" y1="430" y2="430" stroke-dasharray="none" stroke="black"/>
<line clip-path="url(#clipPath1)" fill="none" x1="-519" x2="-513" y1="430" y2="430" stroke-dasharray="none" stroke="black"/>
<line clip-path="url(#clipPath1)" fill="none" x1="-513" x2="-506" y1="430" y2="430" stroke-dasharray="none" stroke="black"/>
<line clip-path="url(#clipPath1)" fill="none" x1="-506" x2="-499" y1="430" y2="430" stroke-dasharray="none" stroke="black"/>
<line clip-path="url(#clipPath1)" fill="none" x1="-499" x2="-493" y1="430" y2="430" stroke-dasharray="none" stroke="black"/>
<line clip-path="url(#clipPath1)" fill="none" x1="-493" x2="-486" y1="430" y2="430" stroke-dasharray="none" stroke="black"/>
<line clip-path="url(#clipPath1)" fill="none" x1="-486" x2="-479" y1="430" y2="430" stroke-dasharray="none" stroke="black"/>
<line clip-path="url(#clipPath1)" fill="none" x1="-479" x2="-473" y1="430" y2="430" stroke-dasharray="none" stroke="black"/>
<line clip-path="url(#clipPath1)" fill="none" x1="-473" x2="-466" y1="430" y2="430" stroke-dasharray="none" stroke="black"/>
<line clip-path="url(#clipPath1)" fill="none" x1="-466" x2="-459" y1="430" y2="430" stroke-dasharray="none" stroke="black"/>
<line clip-path="url(#clipPath1)" fill="none" x1="-459" x2="-453" y1="430" y2="430" stroke-dasharray="none" stroke="black"/>
<line clip-path="url(#clipPath1)" fill="none" x1="-453" x2="-446" y1="430" y2="430" stroke-dasharray="none" stroke="black"/>
<line clip-path="url(#clipPath1)" fill="none" x1="-446" x2="-439" y1="430" y2="430" stroke-dasharray="none" stroke="black"/>
<line clip-path="url(#clipPath1)" fill="none" x1="-439" x2="-433" y1="430" y2="430" stroke-dasharray="none" stroke="black"/>
<line clip-path="url(#clipPath1)" fill="none" x1="-433" x2="-426" y1="430" y2="430" stroke-dasharray="none" stroke="black"/>
<line clip-path="url(#clipPath1)" fill="none" x1="-426" x2="-419" y1="430" y2="430" stroke-dasharray="none" stroke="black"/>
<line clip-path="url(#clipPath1)" fill="none" x1="-419" x2="-413" y1="430" y2="430" stroke-dasharray="none" stroke="black"/>
<line clip-path="url(#clipPath1)" fill="none" x1="-413" x2="-406" y1="430" y2="430" stroke-dasharray="none" stroke="black"/>
<line clip-path="url(#clipPath1)" fill="none" x1="-406" x2="-399" y1="430" y2="430" stroke-dasharray="none" stroke="black"/>
<line clip-path="url(#clipPath1)" fill="none" x1="-399" x2="-393" y1="430" y2="430" stroke-dasharray="none" stroke="black"/>
<line clip-path="url(#clipPath1)" fill="none" x1="-393" x2="-386" y1="430" y2="430" stroke-dasharray="none" stroke="black"/>
<line clip-path="url(#clipPath1)" fill="none" x1="-386" x2="-379" y1="430" y2="430" stroke-dasharray="none" stroke="black"/>
<line clip-path="url(#clipPath1)" fill="none" x1="-379" x2="-373" y1="430" y2="430" stroke-dasharray="none" stroke="black"/>
<line clip-path="url(#clipPath1)" fill="none" x1="-373" x2="-366" y1="430" y2="430" stroke-dasharray="none" stroke="black"/>
<line clip-path="url(#clipPath1)" fill="none" x1="-366" x2="-359" y1="430" y2="430" stroke-dasharray="none" stroke="black"/>
<line clip-path="url(#clipPath1)" fill="none" x1="-359" x2="-353" y1="430" y2="430" stroke-dasharray="none" stroke="black"/>
<line clip-path="url(#clipPath1)" fill="none" x1="-353" x2="-346" y1="430" y2="430" stroke-dasharray="none" stroke="black"/>
<line clip-path="url(#clipPath1)" fill="none" x1="-346" x2="-339" y1="430" y2="430" stroke-dasharray="none" stroke="black"/>
<line clip-path="url(#clipPath1)" fill="none" x1="-339" x2="-333" y1="430" y2="430" stroke-dasharray="none" stroke="black"/>
<line clip-path="url(#clipPath1)" fill="none" x1="-333" x2="-326" y1="430" y2="430" stroke-dasharray="none" stroke="black"/>
<line clip-path="url(#clipPath1)" fill="none" x1="-326" x2="-319" y1="430" y2="430" stroke-dasharray="none" stroke="black"/>
<line clip-path="url(#clipPath1)" fill="none" x1="-319" x2="-313" y1="430" y2="430" stroke-dasharray="none" stroke="black"/>
<line clip-path="url(#clipPath1)" fill="none" x1="-313" x2="-306" y1="430" y2="430" stroke-dasharray="none" stroke="black"/>
<line clip-path="url(#clipPath1)" fill="none" x1="-306" x2="-299" y1="430" y2="430" stroke-dasharray="none" stroke="black"/>
<line clip-path="url(#clipPath1)" fill="none" x1="-299" x2="-293" y1="430" y2="430" stroke-dasharray="none" stroke="black"/>
<line clip-path="url(#clipPath1)" fill="none" x1="-293" x2="-286" y1="430" y2="430" stroke-dasharray="none" stroke="black"/>
<line clip-path="url(#clipPath1)" fill="none" x1="-286" x2="-279" y1="430" y2="430" stroke-dasharray="none" stroke="black"/>
<line clip-path="url(#clipPath1)" fill="none" x1="-279" x2="-273" y1="430" y2="430" stroke-dasharray="none" stroke="black"/>
<line clip-path="url(#clipPath1)" fill="none" x1="-273" x2="-266" y1="430" y2="430" stroke-dasharray="none" stroke="black"/>
<line clip-path="url(#clipPath1)" fill="none" x1="-266" x2="-259" y1="430" y2="430" stroke-dasharray="none" stroke="black"/>
<line clip-path="url(#clipPath1)" fill="none" x1="-259" x2="-253" y1="430" y2="430" stroke-dasharray="none" stroke="black"/>
<line clip-path="url(#clipPath1)" fill="none" x1="-253" x2="-246" y1="430" y2="430" stroke-dasharray="none" stroke="black"/>
<line clip-path="url(#clipPath1)" fill="none" x1="-246" x2="-239" y1="430" y2="430" stroke-dasharray="none" stroke="black"/>
<line clip-path="url(#clipPath1)" fill="none" x1="-239" x2="-233" y1="430" y2="430" stroke-dasharray="none" stroke="black"/>
<line clip-path="url(#clipPath1)" fill="none" x1="-233" x2="-226" y1="430" y2="430" stroke-dasharray="none" stroke="black"/>
<line clip-path="url(#clipPath1)" fill="none" x1="-226" x2="-219" y1="430" y2="430" stroke-dasharray="none" stroke="black"/>
<line clip-path="url(#clipPath1)" fill="none" x1="-219" x2="-213" y1="430" y2="430" stroke-dasharray="none" stroke="black"/>
<line clip-path="url(#clipPath1)" fill="none" x1="-213" x2="-206" y1="430" y2="430" stroke-dasharray="none" stroke="black"/>
<line clip-path="url(#clipPath1)" fill="none" x1="-206" x2="-199" y1="430" y2="430" stroke-dasharray="none" stroke="black"/>
<line clip-path="url(#clipPath1)" fill="none" x1="-199" x2="-193" y1="430" y2="430" stroke-dasharray="none" stroke="black"/>
<line clip-path="url(#clipPath1)" fill="none" x1="-193" x2="-186" y1="430" y2="430" stroke-dasharray="none" stroke="black"/>
<line clip-path="url(#clipPath1)" fill="none" x1="-186" x2="-179" y1="430" y2="430" stroke-dasharray="none" stroke="black"/>
<line clip-path="url(#clipPath1)" fill="none" x1="-179" x2="-173" y1="430" y2="430" stroke-dasharray="none" stroke="black"/>
<line clip-path="url(#clipPath1)" fill="none" x1="-173" x2="-166" y1="430" y2="430" stroke-dasharray="none" stroke="black"/>
<line clip-path="url(#clipPath1)" fill="none" x1="-166" x2="-159" y1="430" y2="430" stroke-dasharray="none" stroke="black"/>
<line clip-path="url(#clipPath1)" fill="none" x1="-159" x2="-153" y1="430" y2="430" stroke-dasharray="none" stroke="black"/>
<line clip-path="url(#clipPath1)" fill="none" x1="-153" x2="-146" y1="430" y2="430" stroke-dasharray="none" stroke="black"/>
<line clip-path="url(#clipPath1)" fill="none" x1="-146" x2="-139" y1="430" y2="430" stroke-dasharray="none" stroke="black"/>
<line clip-path="url(#clipPath1)" fill="none" x1="-139" x2="-132" y1="430" y2="430" stroke-dasharray="none" stroke="black"/>
<line clip-path="url(#clipPath1)" fill="none" x1="-132" x2="-126" y1="430" y2="430" stroke-dasharray="none" stroke="black"/>
<line clip-path="url(#clipPath1)" fill="none" x1="-126" x2="-119" y1="430" y2="430" stroke-dasharray="none" stroke="black"/>
<line clip-path="url(#clipPath1)" fill="none" x1="-119" x2="-112" y1="430" y2="430" stroke-dasharray="none" stroke="black"/>
<line clip-path="url(#clipPath1)" fill="none" x1="-112" x2="-106" y1="430" y2="430" stroke-dasharray="none" stroke="black"/>
<line clip-path="url(#clipPath1)" fill="none" x1="-106" x2="-99" y1="430" y2="430" stroke-dasharray="none" stroke="black"/>
<line clip-path="url(#clipPath1)" fill="none" x1="-99" x2="-92" y1="430" y2="430" stroke-dasharray="none" stroke="black"/>
<line clip-path="url(#clipPath1)" fill="none" x1="-92" x2="-86" y1="430" y2="430" stroke-dasharray="none" stroke="black"/>
<line clip-path="url(#clipPath1)" fill="none" x1="-86" x2="-79" y1="430" y2="430" stroke-dasharray="none" stroke="black"/>
<line clip-path="url(#clipPath1)" fill="none" x1="-79" x2="-72" y1="430" y2="430" stroke-dasharray="none" stroke="black"/>
<line clip-path="url(#clipPath1)" fill="none" x1="-72" x2="-66" y1="430" y2="430" stroke-dasharray="none" stroke="black"/>
<line clip-path="url(#clipPath1)" fill="none" x1="-66" x2="-59" y1="430" y2="430" stroke-dasharray="none" stroke="black"/>
<line clip-path="url(#clipPath1)" fill="none" x1="-59" x2="-53" y1="430" y2="430" stroke-dasharray="none" stroke="black"/>
<line clip-path="url(#clipPath1)" fill="none" x1="-53" x2="-46" y1="430" y2="430" stroke-dasharray="none" stroke="black"/>
<line clip-path="url(#clipPath1)" fill="none" x1="-46" x2="-39" y1="430" y2="430" stroke-dasharray="none" stroke="black"/>
<line clip-path="url(#clipPath1)" fill="none" x1="-39" x2="-32" y1="430" y2="430" stroke-dasharray="none" stroke="black"/>
<line clip-path="url(#clipPath1)" fill="none" x1="-32" x2="-26" y1="430" y2="430" stroke-dasharray="none" stroke="black"/>
<line clip-path="url(#clipPath1)" fill="none" x1="-26" x2="-19" y1="430" y2="430" stroke-dasharray="none" stroke="black"/>
<line clip-path="url(#clipPath1)" fill="none" x1="-19" x2="-13" y1="430" y2="430" stroke-dasharray="none" stroke="black"/>
<line clip-path="url(#clipPath1)" fill="none" x1="-13" x2="-6" y1="430" y2="430" stroke-dasharray="none" stroke="black"/>
<line clip-path="url(#clipPath1)" fill="none" x1="-6" x2="0" y1="430" y2="430" stroke-dasharray="none" stroke="black"/>
<line clip-path="url(#clipPath1)" fill="none" x1="0" x2="7" y1="430" y2="430" stroke-dasharray="none" stroke="black"/>
<line clip-path="url(#clipPath1)" fill="none" x1="7" x2="13" y1="430" y2="430" stroke-dasharray="none" stroke="black"/>
<line clip-path="url(#clipPath1)" fill="none" x1="13" x2="20" y1="430" y2="430" stroke-dasharray="none" stroke="black"/>
<line clip-path="url(#clipPath1)" fill="none" x1="20" x2="27" y1="430" y2="430" stroke-dasharray="none" stroke="black"/>
<line clip-path="url(#clipPath1)" fill="none" x1="27" x2="33" y1="430" y2="430" stroke-dasharray="none" stroke="black"/>
<line clip-path="url(#clipPath1)" fill="none" x1="33" x2="40" y1="430" y2="430" stroke-dasharray="none" stroke="black"/>
<line clip-path="url(#clipPath1)" fill="none" x1="40" x2="47" y1="430" y2="430" stroke-dasharray="none" stroke="black"/>
<line clip-path="url(#clipPath1)" fill="none" x1="47" x2="53" y1="430" y2="430" stroke-dasharray="none" stroke="black"/>
<line clip-path="url(#clipPath1)" fill="none" x1="53" x2="60" y1="430" y2="430" stroke-dasharray="none" stroke="black"/>
<line clip-path="url(#clipPath1)" fill="none" x1="60" x2="67" y1="430" y2="430" stroke-dasharray="none" stroke="black"/>
<line clip-path="url(#clipPath1)" fill="none" x1="67" x2="73" y1="430" y2="430" stroke-dasharray="none" stroke="black"/>
<line clip-path="url(#clipPath1)" fill="none" x1="73" x2="80" y1="430" y2="430" stroke-dasharray="none" stroke="black"/>
<line clip-path="url(#clipPath1)" fill="none" x1="80" x2="87" y1="430" y2="430" stroke-dasharray="none" stroke="black"/>
<line clip-path="url(#clipPath1)" fill="none" x1="87" x2="93" y1="430" y2="430" stroke-dasharray="none" stroke="black"/>
<line clip-path="url(#clipPath1)" fill="none" x1="93" x2="100" y1="430" y2="430" stroke-dasharray="none" stroke="black"/>
<line clip-path="url(#clipPath1)" fill="none" x1="100" x2="107" y1="430" y2="430" stroke-dasharray="none" stroke="black"/>
<line clip-path="url(#clipPath1)" fill="none" x1="107" x2="113" y1="430" y2="430" stroke-dasharray="none" stroke="black"/>
<line clip-path="url(#clipPath1)" fill="none" x1="113" x2="120" y1="430" y2="430" stroke-dasharray="none" stroke="black"/>
<line clip-path="url(#clipPath1)" fill="none" x1="120" x2="127" y1="430" y2="430" stroke-dasharray="none" stroke="black"/>
<line clip-path="url(#clipPath1)" fill="none" x1="127" x2="133" y1="430" y2="430" stroke-dasharray="none" stroke="black"/>
<line clip-path="url(#clipPath1)" fill="none" x1="133" x2="140" y1="430" y2="430" stroke-dasharray="none" stroke="black"/>
<line clip-path="url(#clipPath1)" fill="none" x1="140" x2="147" y1="430" y2="430" stroke-dasharray="none" stroke="black"/>
<line clip-path="url(#clipPath1)" fill="none" x1="147" x2="153" y1="430" y2="430" stroke-dasharray="none" stroke="black"/>
<line clip-path="url(#clipPath1)" fill="none" x1="153" x2="160" y1="430" y2="430" stroke-dasharray="none" stroke="black"/>
<line clip-path="url(#clipPath1)" fill="none" x1="160" x2="167" y1="430" y2="430" stroke-dasharray="none" stroke="black"/>
<line clip-path="url(#clipPath1)" fill="none" x1="167" x2="173" y1="430" y2="430" stroke-dasharray="none" stroke="black"/>
<line clip-path="url(#clipPath1)" fill="none" x1="173" x2="180" y1="430" y2="430" stroke-dasharray="none" stroke="black"/>
<line clip-path="url(#clipPath1)" fill="none" x1="180" x2="187" y1="430" y2="430" stroke-dasharray="none" stroke="black"/>
<rect x="187" y="429" clip-path="url(#clipPath1)" fill="rgb(0,0,139)" width="6" stroke-dasharray="none" height="1" stroke="none"/>
<rect x="187" y="429" clip-path="url(#clipPath1)" fill="none" width="6" stroke-dasharray="none" height="1" stroke="black"/>
<line clip-path="url(#clipPath1)" fill="none" x1="193" x2="200" y1="430" y2="430" stroke-dasharray="none" stroke="black"/>
<rect x="200" y="429" clip-path="url(#clipPath1)" fill="rgb(0,0,139)" width="7" stroke-dasharray="none" height="1" stroke="none"/>
<rect x="200" y="429" clip-path="url(#clipPath1)" fill="none" width="7" stroke-dasharray="none" height="1" stroke="black"/>
<rect x="207" y="427" clip-path="url(#clipPath1)" fill="rgb(0,0,139)" width="6" stroke-dasharray="none" height="3" stroke="none"/>
<rect x="207" y="427" clip-path="url(#clipPath1)" fill="none" width="6" stroke-dasharray="none" height="3" stroke="black"/>
<rect x="213" y="427" clip-path="url(#clipPath1)" fill="rgb(0,0,139)" width="7" stroke-dasharray="none" height="3" stroke="none"/>
<rect x="213" y="427" clip-path="url(#clipPath1)" fill="none" width="7" stroke-dasharray="none" height="3" stroke="black"/>
<rect x="220" y="422" clip-path="url(#clipPath1)" fill="rgb(0,0,139)" width="7" stroke-dasharray="none" height="8" stroke="none"/>
<rect x="220" y="422" clip-path="url(#clipPath1)" fill="none" width="7" stroke-dasharray="none" height="8" stroke="black"/>
<rect x="227" y="418" clip-path="url(#clipPath1)" fill="rgb(0,0,139)" width="6" stroke-dasharray="none" height="12" stroke="none"/>
<rect x="227" y="418" clip-path="url(#clipPath1)" fill="none" width="6" stroke-dasharray="none" height="12" stroke="black"/>
<rect x="233" y="416" clip-path="url(#clipPath1)" fill="rgb(0,0,139)" width="7" stroke-dasharray="none" height="14" stroke="none"/>
<rect x="233" y="416" clip-path="url(#clipPath1)" fill="none" width="7" stroke-dasharray="none" height="14" stroke="black"/>
<rect x="240" y="407" clip-path="url(#clipPath1)" fill="rgb(0,0,139)" width="7" stroke-dasharray="none" height="23" stroke="none"/>
<rect x="240" y="407" clip-path="url(#clipPath1)" fill="none" width="7" stroke-dasharray="none" height="23" stroke="black"/>
<rect x="247" y="396" clip-path="url(#clipPath1)" fill="rgb(0,0,139)" width="6" stroke-dasharray="none" height="34" stroke="none"/>
<rect x="247" y="396" clip-path="url(#clipPath1)" fill="none" width="6" stroke-dasharray="none" height="34" stroke="black"/>
<rect x="253" y="377" clip-path="url(#clipPath1)" fill="rgb(0,0,139)" width="7" stroke-dasharray="none" height="53" stroke="none"/>
<rect x="253" y="377" clip-path="url(#clipPath1)" fill="none" width="7" stroke-dasharray="none" height="53" stroke="black"/>
<rect x="260" y="365" clip-path="url(#clipPath1)" fill="rgb(0,0,139)" width="7" stroke-dasharray="none" height="65" stroke="none"/>
<rect x="260" y="365" clip-path="url(#clipPath1)" fill="none" width="7" stroke-dasharray="none" height="65" stroke="black"/>
<rect x="267" y="344" clip-path="url(#clipPath1)" fill="rgb(0,0,139)" width="6" stroke-dasharray="none" height="86" stroke="none"/>
<rect x="267" y="344" clip-path="url(#clipPath1)" fill="none" width="6" stroke-dasharray="none" height="86" stroke="black"/>
<rect x="273" y="321" clip-path="url(#clipPath1)" fill="rgb(0,0,139)" width="7" stroke-dasharray="none" height="109" stroke="none"/>
<rect x="273" y="321" clip-path="url(#clipPath1)" fill="none" width="7" stroke-dasharray="none" height="109" stroke="black"/>
<rect x="280" y="289" clip-path="url(#clipPath1)" fill="rgb(0,0,139)" width="7" stroke-dasharray="none" height="141" stroke="none"/>
<rect x="280" y="289" clip-path="url(#clipPath1)" fill="none" width="7" stroke-dasharray="none" height="141" stroke="black"/>
<rect x="287" y="264" clip-path="url(#clipPath1)" fill="rgb(0,0,139)" width="6" stroke-dasharray="none" height="166" stroke="none"/>
<rect x="287" y="264" clip-path="url(#clipPath1)" fill="none" width="6" stroke-dasharray="none" height="166" stroke="black"/>
<rect x="293" y="228" clip-path="url(#clipPath1)" fill="rgb(0,0,139)" width="7" stroke-dasharray="none" height="202" stroke="none"/>
<rect x="293" y="228" clip-path="url(#clipPath1)" fill="none" width="7" stroke-dasharray="none" height="202" stroke="black"/>
<rect x="300" y="194" clip-path="url(#clipPath1)" fill="rgb(0,0,139)" width="7" stroke-dasharray="none" height="236" stroke="none"/>
<rect x="300" y="194" clip-path="url(#clipPath1)" fill="none" width="7" stroke-dasharray="none" height="236" stroke="black"/>
<rect x="307" y="167" clip-path="url(#clipPath1)" fill="rgb(0,0,139)" width="6" stroke-dasharray="none" height="263" stroke="none"/>
<rect x="307" y="167" clip-path="url(#clipPath1)" fill="none" width="6" stroke-dasharray="none" height="263" stroke="black"/>
<rect x="313" y="136" clip-path="url(#clipPath1)" fill="rgb(0,0,139)" width="7" stroke-dasharray="none" height="294" stroke="none"/>
<rect x="313" y="136" clip-path="url(#clipPath1)" fill="none" width="7" stroke-dasharray="none" height="294" stroke="black"/>
<rect x="320" y="114" clip-path="url(#clipPath1)" fill="rgb(0,0,139)" width="7" stroke-dasharray="none" height="316" stroke="none"/>
<rect x="320" y="114" clip-path="url(#clipPath1)" fill="none" width="7" stroke-dasharray="none" height="316" stroke="black"/>
<rect x="327" y="101" clip-path="url(#clipPath1)" fill="rgb(0,0,139)" width="6" stroke-dasharray="none" height="329" stroke="none"/>
<rect x="327" y="101" clip-path="url(#clipPath1)" fill="none" width="6" stroke-dasharray="none" height="329" stroke="black"/>
<rect x="333" y="107" clip-path="url(#clipPath1)" fill="rgb(0,0,139)" width="7" stroke-dasharray="none" height="323" stroke="none"/>
<rect x="333" y="107" clip-path="url(#clipPath1)" fill="none" width="7" stroke-dasharray="none" height="323" stroke="black"/>
<rect x="340" y="91" clip-path="url(#clipPath1)" fill="rgb(0,0,139)" width="7" stroke-dasharray="none" height="339" stroke="none"/>
<rect x="340" y="91" clip-path="url(#clipPath1)" fill="none" width="7" stroke-dasharray="none" height="339" stroke="black"/>
<rect x="347" y="99" clip-path="url(#clipPath1)" fill="rgb(0,0,139)" width="6" stroke-dasharray="none" height="331" stroke="none"/>
<rect x="347" y="99" clip-path="url(#clipPath1)" fill="none" width="6" stroke-dasharray="none" height="331" stroke="black"/>
<rect x="353" y="125" clip-path="url(#clipPath1)" fill="rgb(0,0,139)" width="7" stroke-dasharray="none" height="305" stroke="none"/>
<rect x="353" y="125" clip-path="url(#clipPath1)" fill="none" width="7" stroke-dasharray="none" height="305" stroke="black"/>
<rect x="360" y="137" clip-path="url(#clipPath1)" fill="rgb(0,0,139)" width="7" stroke-dasharray="none" height="293" stroke="none"/>
<rect x="360" y="137" clip-path="url(#clipPath1)" fill="none" width="7" stroke-dasharray="none" height="293" stroke="black"/>
<rect x="367" y="145" clip-path="url(#clipPath1)" fill="rgb(0,0,139)" width="6" stroke-dasharray="none" height="285" stroke="none"/>
<rect x="367" y="145" clip-path="url(#clipPath1)" fill="none" width="6" stroke-dasharray="none" height="285" stroke="black"/>
<rect x="373" y="179" clip-path="url(#clipPath1)" fill="rgb(0,0,139)" width="7" stroke-dasharray="none" height="251" stroke="none"/>
<rect x="373" y="179" clip-path="url(#clipPath1)" fill="none" width="7" stroke-dasharray="none" height="251" stroke="black"/>
<rect x="380" y="196" clip-path="url(#clipPath1)" fill="rgb(0,0,139)" width="7" stroke-dasharray="none" height="234" stroke="none"/>
<rect x="380" y="196" clip-path="url(#clipPath1)" fill="none" width="7" stroke-dasharray="none" height="234" stroke="black"/>
<rect x="387" y="220" clip-path="url(#clipPath1)" fill="rgb(0,0,139)" width="6" stroke-dasharray="none" height="210" stroke="none"/>
<rect x="387" y="220" clip-path="url(#clipPath1)" fill="none" width="6" stroke-dasharray="none" height="210" stroke="black"/>
<rect x="393" y="245" clip-path="url(#clipPath1)" fill="rgb(0,0,139)" width="7" stroke-dasharray="none" height="185" stroke="none"/>
<rect x="393" y="245" clip-path="url(#clipPath1)" fill="none" width="7" stroke-dasharray="none" height="185" stroke="black"/>
<rect x="400" y="265" clip-path="url(#clipPath1)" fill="rgb(0,0,139)" width="7" stroke-dasharray="none" height="165" stroke="none"/>
<rect x="400" y="265" clip-path="url(#clipPath1)" fill="none" width="7" stroke-dasharray="none" height="165" stroke="black"/>
<rect x="407" y="296" clip-path="url(#clipPath1)" fill="rgb(0,0,139)" width="6" stroke-dasharray="none" height="134" stroke="none"/>
<rect x="407" y="296" clip-path="url(#clipPath1)" fill="none" width="6" stroke-dasharray="none" height="134" stroke="black"/>
<rect x="413" y="328" clip-path="url(#clipPath1)" fill="rgb(0,0,139)" width="7" stroke-dasharray="none" height="102" stroke="none"/>
<rect x="413" y="328" clip-path="url(#clipPath1)" fill="none" width="7" stroke-dasharray="none" height="102" stroke="black"/>
<rect x="420" y="346" clip-path="url(#clipPath1)" fill="rgb(0,0,139)" width="7" stroke-dasharray="none" height="84" stroke="none"/>
<rect x="420" y="346" clip-path="url(#clipPath1)" fill="none" width="7" stroke-dasharray="none" height="84" stroke="black"/>
<rect x="427" y="363" clip-path="url(#clipPath1)" fill="rgb(0,0,139)" width="6" stroke-dasharray="none" height="67" stroke="none"/>
<rect x="427" y="363" clip-path="url(#clipPath1)" fill="none" width="6" stroke-dasharray="none" height="67" stroke="black"/>
<rect x="433" y="382" clip-path="url(#clipPath1)" fill="rgb(0,0,139)" width="7" stroke-dasharray="none" height="48" stroke="none"/>
<rect x="433" y="382" clip-path="url(#clipPath1)" fill="none" width="7" stroke-dasharray="none" height="48" stroke="black"/>
<rect x="440" y="396" clip-path="url(#clipPath1)" fill="rgb(0,0,139)" width="6" stroke-dasharray="none" height="34" stroke="none"/>
<rect x="440" y="396" clip-path="url(#clipPath1)" fill="none" width="6" stroke-dasharray="none" height="34" stroke="black"/>
<rect x="446" y="407" clip-path="url(#clipPath1)" fill="rgb(0,0,139)" width="7" stroke-dasharray="none" height="23" stroke="none"/>
<rect x="446" y="407" clip-path="url(#clipPath1)" fill="none" width="7" stroke-dasharray="none" height="23" stroke="black"/>
<rect x="453" y="415" clip-path="url(#clipPath1)" fill="rgb(0,0,139)" width="7" stroke-dasharray="none" height="15" stroke="none"/>
<rect x="453" y="415" clip-path="url(#clipPath1)" fill="none" width="7" stroke-dasharray="none" height="15" stroke="black"/>
<rect x="460" y="420" clip-path="url(#clipPath1)" fill="rgb(0,0,139)" width="7" stroke-dasharray="none" height="10" stroke="none"/>
<rect x="460" y="420" clip-path="url(#clipPath1)" fill="none" width="7" stroke-dasharray="none" height="10" stroke="black"/>
<rect x="467" y="425" clip-path="url(#clipPath1)" fill="rgb(0,0,139)" width="6" stroke-dasharray="none" height="5" stroke="none"/>
<rect x="467" y="425" clip-path="url(#clipPath1)" fill="none" width="6" stroke-dasharray="none" height="5" stroke="black"/>
<rect x="473" y="426" clip-path="url(#clipPath1)" fill="rgb(0,0,139)" width="7" stroke-dasharray="none" height="4" stroke="none"/>
<rect x="473" y="426" clip-path="url(#clipPath1)" fill="none" width="7" stroke-dasharray="none" height="4" stroke="black"/>
<rect x="480" y="427" clip-path="url(#clipPath1)" fill="rgb(0,0,139)" width="7" stroke-dasharray="none" height="3" stroke="none"/>
<rect x="480" y="427" clip-path="url(#clipPath1)" fill="none" width="7" stroke-dasharray="none" height="3" stroke="black"/>
<rect x="487" y="428" clip-path="url(#clipPath1)" fill="rgb(0,0,139)" width="6" stroke-dasharray="none" height="2" stroke="none"/>
<rect x="487" y="428" clip-path="url(#clipPath1)" fill="none" width="6" stroke-dasharray="none" height="2" stroke="black"/>
<rect x="493" y="429" clip-path="url(#clipPath1)" fill="rgb(0,0,139)" width="7" stroke-dasharray="none" height="1" stroke="none"/>
<rect x="493" y="429" clip-path="url(#clipPath1)" fill="none" width="7" stroke-dasharray="none" height="1" stroke="black"/>
<rect x="500" y="429" clip-path="url(#clipPath1)" fill="rgb(0,0,139)" width="7" stroke-dasharray="none" height="1" stroke="none"/>
<rect x="500" y="429" clip-path="url(#clipPath1)" fill="none" width="7" stroke-dasharray="none" height="1" stroke="black"/>
<rect x="507" y="429" clip-path="url(#clipPath1)" fill="rgb(0,0,139)" width="6" stroke-dasharray="none" height="1" stroke="none"/>
<rect x="507" y="429" clip-path="url(#clipPath1)" fill="none" width="6" stroke-dasharray="none" height="1" stroke="black"/>
<line clip-path="url(#clipPath1)" fill="none" x1="513" x2="520" y1="430" y2="430" stroke-dasharray="none" stroke="black"/>
<line clip-path="url(#clipPath1)" fill="none" x1="520" x2="527" y1="430" y2="430" stroke-dasharray="none" stroke="black"/>
<line clip-path="url(#clipPath1)" fill="none" x1="527" x2="533" y1="430" y2="430" stroke-dasharray="none" stroke="black"/>
<line clip-path="url(#clipPath1)" fill="none" x1="533" x2="540" y1="430" y2="430" stroke-dasharray="none" stroke="black"/>
<line clip-path="url(#clipPath1)" fill="none" x1="540" x2="547" y1="430" y2="430" stroke-dasharray="none" stroke="black"/>
<line clip-path="url(#clipPath1)" fill="none" x1="547" x2="553" y1="430" y2="430" stroke-dasharray="none" stroke="black"/>
<line clip-path="url(#clipPath1)" fill="none" x1="553" x2="560" y1="430" y2="430" stroke-dasharray="none" stroke="black"/>
<line clip-path="url(#clipPath1)" fill="none" x1="560" x2="567" y1="430" y2="430" stroke-dasharray="none" stroke="black"/>
<line clip-path="url(#clipPath1)" fill="none" x1="567" x2="573" y1="430" y2="430" stroke-dasharray="none" stroke="black"/>
<line clip-path="url(#clipPath1)" fill="none" x1="573" x2="580" y1="430" y2="430" stroke-dasharray="none" stroke="black"/>
<line clip-path="url(#clipPath1)" fill="none" x1="580" x2="587" y1="430" y2="430" stroke-dasharray="none" stroke="black"/>
<line clip-path="url(#clipPath1)" fill="none" x1="587" x2="593" y1="430" y2="430" stroke-dasharray="none" stroke="black"/>
<line clip-path="url(#clipPath1)" fill="none" x1="593" x2="600" y1="430" y2="430" stroke-dasharray="none" stroke="black"/>
<line clip-path="url(#clipPath1)" fill="none" x1="600" x2="607" y1="430" y2="430" stroke-dasharray="none" stroke="black"/>
<line clip-path="url(#clipPath1)" fill="none" x1="607" x2="613" y1="430" y2="430" stroke-dasharray="none" stroke="black"/>
<line clip-path="url(#clipPath1)" fill="none" x1="613" x2="620" y1="430" y2="430" stroke-dasharray="none" stroke="black"/>
<line clip-path="url(#clipPath1)" fill="none" x1="620" x2="627" y1="430" y2="430" stroke-dasharray="none" stroke="black"/>
<line clip-path="url(#clipPath1)" fill="none" x1="627" x2="633" y1="430" y2="430" stroke-dasharray="none" stroke="black"/>
<line clip-path="url(#clipPath1)" fill="none" x1="633" x2="640" y1="430" y2="430" stroke-dasharray="none" stroke="black"/>
<line clip-path="url(#clipPath1)" fill="none" x1="640" x2="647" y1="430" y2="430" stroke-dasharray="none" stroke="black"/>
<line clip-path="url(#clipPath1)" fill="none" x1="647" x2="653" y1="430" y2="430" stroke-dasharray="none" stroke="black"/>
<line clip-path="url(#clipPath1)" fill="none" x1="653" x2="660" y1="430" y2="430" stroke-dasharray="none" stroke="black"/>
<line clip-path="url(#clipPath1)" fill="none" x1="660" x2="667" y1="430" y2="430" stroke-dasharray="none" stroke="black"/>
<line clip-path="url(#clipPath1)" fill="none" x1="667" x2="673" y1="430" y2="430" stroke-dasharray="none" stroke="black"/>
<line clip-path="url(#clipPath1)" fill="none" x1="673" x2="680" y1="430" y2="430" stroke-dasharray="none" stroke="black"/>
<line clip-path="url(#clipPath1)" fill="none" x1="680" x2="687" y1="430" y2="430" stroke-dasharray="none" stroke="black"/>
<line clip-path="url(#clipPath1)" fill="none" x1="687" x2="693" y1="430" y2="430" stroke-dasharray="none" stroke="black"/>
<line clip-path="url(#clipPath1)" fill="none" x1="693" x2="700" y1="430" y2="430" stroke-dasharray="none" stroke="black"/>
<line clip-path="url(#clipPath1)" fill="none" x1="700" x2="707" y1="430" y2="430" stroke-dasharray="none" stroke="black"/>
<line clip-path="url(#clipPath1)" fill="none" x1="707" x2="713" y1="430" y2="430" stroke-dasharray="none" stroke="black"/>
<line clip-path="url(#clipPath1)" fill="none" x1="713" x2="720" y1="430" y2="430" stroke-dasharray="none" stroke="black"/>
<line clip-path="url(#clipPath1)" fill="none" x1="720" x2="727" y1="430" y2="430" stroke-dasharray="none" stroke="black"/>
<line clip-path="url(#clipPath1)" fill="none" x1="727" x2="733" y1="430" y2="430" stroke-dasharray="none" stroke="black"/>
<line clip-path="url(#clipPath1)" fill="none" x1="733" x2="740" y1="430" y2="430" stroke-dasharray="none" stroke="black"/>
<line clip-path="url(#clipPath1)" fill="none" x1="740" x2="747" y1="430" y2="430" stroke-dasharray="none" stroke="black"/>
<line clip-path="url(#clipPath1)" fill="none" x1="747" x2="753" y1="430" y2="430" stroke-dasharray="none" stroke="black"/>
<line clip-path="url(#clipPath1)" fill="none" x1="753" x2="760" y1="430" y2="430" stroke-dasharray="none" stroke="black"/>
<line clip-path="url(#clipPath1)" fill="none" x1="760" x2="767" y1="430" y2="430" stroke-dasharray="none" stroke="black"/>
<line clip-path="url(#clipPath1)" fill="none" x1="767" x2="773" y1="430" y2="430" stroke-dasharray="none" stroke="black"/>
<line clip-path="url(#clipPath1)" fill="none" x1="773" x2="780" y1="430" y2="430" stroke-dasharray="none" stroke="black"/>
<line clip-path="url(#clipPath1)" fill="none" x1="780" x2="787" y1="430" y2="430" stroke-dasharray="none" stroke="black"/>
<line clip-path="url(#clipPath1)" fill="none" x1="787" x2="793" y1="430" y2="430" stroke-dasharray="none" stroke="black"/>
<line clip-path="url(#clipPath1)" fill="none" x1="793" x2="800" y1="430" y2="430" stroke-dasharray="none" stroke="black"/>
<rect x="42" y="23" clip-path="url(#clipPath2)" fill="none" width="617" stroke-dasharray="none" height="407" stroke="black"/>
</g>
<g text-rendering="geometricPrecision" font-size="13" stroke-linecap="butt">
<line clip-path="url(#clipPath2)" fill="none" x1="42" x2="659" y1="21" y2="21"/>
<line clip-path="url(#clipPath2)" fill="none" x1="42" x2="659" y1="432" y2="432"/>
<line clip-path="url(#clipPath2)" fill="none" x1="47" x2="47" y1="19" y2="21"/>
<line clip-path="url(#clipPath2)" fill="none" x1="47" x2="47" y1="434" y2="432"/>
<line clip-path="url(#clipPath2)" fill="none" x1="65" x2="65" y1="19" y2="21"/>
<line clip-path="url(#clipPath2)" fill="none" x1="65" x2="65" y1="434" y2="432"/>
<line clip-path="url(#clipPath2)" fill="none" x1="84" x2="84" y1="19" y2="21"/>
<line clip-path="url(#clipPath2)" fill="none" x1="84" x2="84" y1="434" y2="432"/>
<line clip-path="url(#clipPath2)" fill="none" x1="103" x2="103" y1="19" y2="21"/>
<line clip-path="url(#clipPath2)" fill="none" x1="103" x2="103" y1="434" y2="432"/>
<line clip-path="url(#clipPath2)" fill="none" x1="122" x2="122" y1="17" y2="21"/>
<line clip-path="url(#clipPath2)" fill="none" x1="122" x2="122" y1="436" y2="432"/>
<text x="102" font-size="11" y="14" clip-path="url(#clipPath2)" stroke="none" xml:space="preserve">0.00035</text>
<text x="102" font-size="11" y="448" clip-path="url(#clipPath2)" stroke="none" xml:space="preserve">0.00035</text>
<line clip-path="url(#clipPath2)" fill="none" x1="140" x2="140" y1="19" y2="21"/>
<line clip-path="url(#clipPath2)" fill="none" x1="140" x2="140" y1="434" y2="432"/>
<line clip-path="url(#clipPath2)" fill="none" x1="159" x2="159" y1="19" y2="21"/>
<line clip-path="url(#clipPath2)" fill="none" x1="159" x2="159" y1="434" y2="432"/>
<line clip-path="url(#clipPath2)" fill="none" x1="178" x2="178" y1="19" y2="21"/>
<line clip-path="url(#clipPath2)" fill="none" x1="178" x2="178" y1="434" y2="432"/>
<line clip-path="url(#clipPath2)" fill="none" x1="196" x2="196" y1="19" y2="21"/>
<line clip-path="url(#clipPath2)" fill="none" x1="196" x2="196" y1="434" y2="432"/>
<line clip-path="url(#clipPath2)" fill="none" x1="215" x2="215" y1="17" y2="21"/>
<line clip-path="url(#clipPath2)" fill="none" x1="215" x2="215" y1="436" y2="432"/>
<text x="195" font-size="11" y="14" clip-path="url(#clipPath2)" stroke="none" xml:space="preserve">0.00040</text>
<text x="195" font-size="11" y="448" clip-path="url(#clipPath2)" stroke="none" xml:space="preserve">0.00040</text>
<line clip-path="url(#clipPath2)" fill="none" x1="234" x2="234" y1="19" y2="21"/>
<line clip-path="url(#clipPath2)" fill="none" x1="234" x2="234" y1="434" y2="432"/>
<line clip-path="url(#clipPath2)" fill="none" x1="253" x2="253" y1="19" y2="21"/>
<line clip-path="url(#clipPath2)" fill="none" x1="253" x2="253" y1="434" y2="432"/>
<line clip-path="url(#clipPath2)" fill="none" x1="271" x2="271" y1="19" y2="21"/>
<line clip-path="url(#clipPath2)" fill="none" x1="271" x2="271" y1="434" y2="432"/>
<line clip-path="url(#clipPath2)" fill="none" x1="290" x2="290" y1="19" y2="21"/>
<line clip-path="url(#clipPath2)" fill="none" x1="290" x2="290" y1="434" y2="432"/>
<line clip-path="url(#clipPath2)" fill="none" x1="309" x2="309" y1="17" y2="21"/>
<line clip-path="url(#clipPath2)" fill="none" x1="309" x2="309" y1="436" y2="432"/>
<text x="289" font-size="11" y="14" clip-path="url(#clipPath2)" stroke="none" xml:space="preserve">0.00045</text>
<text x="289" font-size="11" y="448" clip-path="url(#clipPath2)" stroke="none" xml:space="preserve">0.00045</text>
<line clip-path="url(#clipPath2)" fill="none" x1="328" x2="328" y1="19" y2="21"/>
<line clip-path="url(#clipPath2)" fill="none" x1="328" x2="328" y1="434" y2="432"/>
<line clip-path="url(#clipPath2)" fill="none" x1="346" x2="346" y1="19" y2="21"/>
<line clip-path="url(#clipPath2)" fill="none" x1="346" x2="346" y1="434" y2="432"/>
<line clip-path="url(#clipPath2)" fill="none" x1="365" x2="365" y1="19" y2="21"/>
<line clip-path="url(#clipPath2)" fill="none" x1="365" x2="365" y1="434" y2="432"/>
<line clip-path="url(#clipPath2)" fill="none" x1="384" x2="384" y1="19" y2="21"/>
<line clip-path="url(#clipPath2)" fill="none" x1="384" x2="384" y1="434" y2="432"/>
<line clip-path="url(#clipPath2)" fill="none" x1="402" x2="402" y1="17" y2="21"/>
<line clip-path="url(#clipPath2)" fill="none" x1="402" x2="402" y1="436" y2="432"/>
<text x="382" font-size="11" y="14" clip-path="url(#clipPath2)" stroke="none" xml:space="preserve">0.00050</text>
<text x="382" font-size="11" y="448" clip-path="url(#clipPath2)" stroke="none" xml:space="preserve">0.00050</text>
<line clip-path="url(#clipPath2)" fill="none" x1="421" x2="421" y1="19" y2="21"/>
<line clip-path="url(#clipPath2)" fill="none" x1="421" x2="421" y1="434" y2="432"/>
<line clip-path="url(#clipPath2)" fill="none" x1="440" x2="440" y1="19" y2="21"/>
<line clip-path="url(#clipPath2)" fill="none" x1="440" x2="440" y1="434" y2="432"/>
<line clip-path="url(#clipPath2)" fill="none" x1="459" x2="459" y1="19" y2="21"/>
<line clip-path="url(#clipPath2)" fill="none" x1="459" x2="459" y1="434" y2="432"/>
<line clip-path="url(#clipPath2)" fill="none" x1="477" x2="477" y1="19" y2="21"/>
<line clip-path="url(#clipPath2)" fill="none" x1="477" x2="477" y1="434" y2="432"/>
<line clip-path="url(#clipPath2)" fill="none" x1="496" x2="496" y1="17" y2="21"/>
<line clip-path="url(#clipPath2)" fill="none" x1="496" x2="496" y1="436" y2="432"/>
<text x="476" font-size="11" y="14" clip-path="url(#clipPath2)" stroke="none" xml:space="preserve">0.00055</text>
<text x="476" font-size="11" y="448" clip-path="url(#clipPath2)" stroke="none" xml:space="preserve">0.00055</text>
<line clip-path="url(#clipPath2)" fill="none" x1="515" x2="515" y1="19" y2="21"/>
<line clip-path="url(#clipPath2)" fill="none" x1="515" x2="515" y1="434" y2="432"/>
<line clip-path="url(#clipPath2)" fill="none" x1="533" x2="533" y1="19" y2="21"/>
<line clip-path="url(#clipPath2)" fill="none" x1="533" x2="533" y1="434" y2="432"/>
<line clip-path="url(#clipPath2)" fill="none" x1="552" x2="552" y1="19" y2="21"/>
<line clip-path="url(#clipPath2)" fill="none" x1="552" x2="552" y1="434" y2="432"/>
<line clip-path="url(#clipPath2)" fill="none" x1="571" x2="571" y1="19" y2="21"/>
<line clip-path="url(#clipPath2)" fill="none" x1="571" x2="571" y1="434" y2="432"/>
<line clip-path="url(#clipPath2)" fill="none" x1="590" x2="590" y1="17" y2="21"/>
<line clip-path="url(#clipPath2)" fill="none" x1="590" x2="590" y1="436" y2="432"/>
<text x="570" font-size="11" y="14" clip-path="url(#clipPath2)" stroke="none" xml:space="preserve">0.00060</text>
<text x="570" font-size="11" y="448" clip-path="url(#clipPath2)" stroke="none" xml:space="preserve">0.00060</text>
<line clip-path="url(#clipPath2)" fill="none" x1="608" x2="608" y1="19" y2="21"/>
<line clip-path="url(#clipPath2)" fill="none" x1="608" x2="608" y1="434" y2="432"/>
<line clip-path="url(#clipPath2)" fill="none" x1="627" x2="627" y1="19" y2="21"/>
<line clip-path="url(#clipPath2)" fill="none" x1="627" x2="627" y1="434" y2="432"/>
<line clip-path="url(#clipPath2)" fill="none" x1="646" x2="646" y1="19" y2="21"/>
<line clip-path="url(#clipPath2)" fill="none" x1="646" x2="646" y1="434" y2="432"/>
<line clip-path="url(#clipPath2)" fill="none" x1="40" x2="40" y1="23" y2="430"/>
<line clip-path="url(#clipPath2)" fill="none" x1="661" x2="661" y1="23" y2="430"/>
<line clip-path="url(#clipPath2)" fill="none" x1="36" x2="40" y1="430" y2="430"/>
<line clip-path="url(#clipPath2)" fill="none" x1="665" x2="661" y1="430" y2="430"/>
<text x="29" font-size="11" y="435" clip-path="url(#clipPath2)" stroke="none" xml:space="preserve">0</text>
<text x="668" font-size="11" y="435" clip-path="url(#clipPath2)" stroke="none" xml:space="preserve">0</text>
<line clip-path="url(#clipPath2)" fill="none" x1="38" x2="40" y1="414" y2="414"/>
<line clip-path="url(#clipPath2)" fill="none" x1="663" x2="661" y1="414" y2="414"/>
<line clip-path="url(#clipPath2)" fill="none" x1="38" x2="40" y1="399" y2="399"/>
<line clip-path="url(#clipPath2)" fill="none" x1="663" x2="661" y1="399" y2="399"/>
<line clip-path="url(#clipPath2)" fill="none" x1="38" x2="40" y1="383" y2="383"/>
<line clip-path="url(#clipPath2)" fill="none" x1="663" x2="661" y1="383" y2="383"/>
<line clip-path="url(#clipPath2)" fill="none" x1="38" x2="40" y1="367" y2="367"/>
<line clip-path="url(#clipPath2)" fill="none" x1="663" x2="661" y1="367" y2="367"/>
<line clip-path="url(#clipPath2)" fill="none" x1="36" x2="40" y1="352" y2="352"/>
<line clip-path="url(#clipPath2)" fill="none" x1="665" x2="661" y1="352" y2="352"/>
<text x="17" font-size="11" y="357" clip-path="url(#clipPath2)" stroke="none" xml:space="preserve">500</text>
<text x="668" font-size="11" y="357" clip-path="url(#clipPath2)" stroke="none" xml:space="preserve">500</text>
<line clip-path="url(#clipPath2)" fill="none" x1="38" x2="40" y1="336" y2="336"/>
<line clip-path="url(#clipPath2)" fill="none" x1="663" x2="661" y1="336" y2="336"/>
<line clip-path="url(#clipPath2)" fill="none" x1="38" x2="40" y1="320" y2="320"/>
<line clip-path="url(#clipPath2)" fill="none" x1="663" x2="661" y1="320" y2="320"/>
<line clip-path="url(#clipPath2)" fill="none" x1="38" x2="40" y1="305" y2="305"/>
<line clip-path="url(#clipPath2)" fill="none" x1="663" x2="661" y1="305" y2="305"/>
<line clip-path="url(#clipPath2)" fill="none" x1="38" x2="40" y1="289" y2="289"/>
<line clip-path="url(#clipPath2)" fill="none" x1="663" x2="661" y1="289" y2="289"/>
<line clip-path="url(#clipPath2)" fill="none" x1="36" x2="40" y1="273" y2="273"/>
<line clip-path="url(#clipPath2)" fill="none" x1="665" x2="661" y1="273" y2="273"/>
<text x="11" font-size="11" y="278" clip-path="url(#clipPath2)" stroke="none" xml:space="preserve">1000</text>
<text x="668" font-size="11" y="278" clip-path="url(#clipPath2)" stroke="none" xml:space="preserve">1000</text>
<line clip-path="url(#clipPath2)" fill="none" x1="38" x2="40" y1="258" y2="258"/>
<line clip-path="url(#clipPath2)" fill="none" x1="663" x2="661" y1="258" y2="258"/>
<line clip-path="url(#clipPath2)" fill="none" x1="38" x2="40" y1="242" y2="242"/>
<line clip-path="url(#clipPath2)" fill="none" x1="663" x2="661" y1="242" y2="242"/>
<line clip-path="url(#clipPath2)" fill="none" x1="38" x2="40" y1="226" y2="226"/>
<line clip-path="url(#clipPath2)" fill="none" x1="663" x2="661" y1="226" y2="226"/>
<line clip-path="url(#clipPath2)" fill="none" x1="38" x2="40" y1="211" y2="211"/>
<line clip-path="url(#clipPath2)" fill="none" x1="663" x2="661" y1="211" y2="211"/>
<line clip-path="url(#clipPath2)" fill="none" x1="36" x2="40" y1="195" y2="195"/>
<line clip-path="url(#clipPath2)" fill="none" x1="665" x2="661" y1="195" y2="195"/>
<text x="11" font-size="11" y="200" clip-path="url(#clipPath2)" stroke="none" xml:space="preserve">1500</text>
<text x="668" font-size="11" y="200" clip-path="url(#clipPath2)" stroke="none" xml:space="preserve">1500</text>
<line clip-path="url(#clipPath2)" fill="none" x1="38" x2="40" y1="179" y2="179"/>
<line clip-path="url(#clipPath2)" fill="none" x1="663" x2="661" y1="179" y2="179"/>
<line clip-path="url(#clipPath2)" fill="none" x1="38" x2="40" y1="164" y2="164"/>
<line clip-path="url(#clipPath2)" fill="none" x1="663" x2="661" y1="164" y2="164"/>
<line clip-path="url(#clipPath2)" fill="none" x1="38" x2="40" y1="148" y2="148"/>
<line clip-path="url(#clipPath2)" fill="none" x1="663" x2="661" y1="148" y2="148"/>
<line clip-path="url(#clipPath2)" fill="none" x1="38" x2="40" y1="133" y2="133"/>
<line clip-path="url(#clipPath2)" fill="none" x1="663" x2="661" y1="133" y2="133"/>
<line clip-path="url(#clipPath2)" fill="none" x1="36" x2="40" y1="117" y2="117"/>
<line clip-path="url(#clipPath2)" fill="none" x1="665" x2="661" y1="117" y2="117"/>
<text x="11" font-size="11" y="122" clip-path="url(#clipPath2)" stroke="none" xml:space="preserve">2000</text>
<text x="668" font-size="11" y="122" clip-path="url(#clipPath2)" stroke="none" xml:space="preserve">2000</text>
<line clip-path="url(#clipPath2)" fill="none" x1="38" x2="40" y1="101" y2="101"/>
<line clip-path="url(#clipPath2)" fill="none" x1="663" x2="661" y1="101" y2="101"/>
<line clip-path="url(#clipPath2)" fill="none" x1="38" x2="40" y1="86" y2="86"/>
<line clip-path="url(#clipPath2)" fill="none" x1="663" x2="661" y1="86" y2="86"/>
<line clip-path="url(#clipPath2)" fill="none" x1="38" x2="40" y1="70" y2="70"/>
<line clip-path="url(#clipPath2)" fill="none" x1="663" x2="661" y1="70" y2="70"/>
<line clip-path="url(#clipPath2)" fill="none" x1="38" x2="40" y1="54" y2="54"/>
<line clip-path="url(#clipPath2)" fill="none" x1="663" x2="661" y1="54" y2="54"/>
<line clip-path="url(#clipPath2)" fill="none" x1="36" x2="40" y1="39" y2="39"/>
<line clip-path="url(#clipPath2)" fill="none" x1="665" x2="661" y1="39" y2="39"/>
<text x="11" font-size="11" y="44" clip-path="url(#clipPath2)" stroke="none" xml:space="preserve">2500</text>
<text x="668" font-size="11" y="44" clip-path="url(#clipPath2)" stroke="none" xml:space="preserve">2500</text>
<line clip-path="url(#clipPath2)" fill="none" x1="38" x2="40" y1="23" y2="23"/>
<line clip-path="url(#clipPath2)" fill="none" x1="663" x2="661" y1="23" y2="23"/>
</g>
</g>
</svg>
