<?xml version="1.0" encoding="UTF-8"?><svg xmlns="http://www.w3.org/2000/svg" xmlns:xlink="http://www.w3.org/1999/xlink" stroke-dasharray="none" shape-rendering="auto" font-family="'Dialog'" width="714" text-rendering="auto" fill-opacity="1" contentScriptType="text/ecmascript" color-interpolation="auto" color-rendering="auto" preserveAspectRatio="xMidYMid meet" font-size="12" fill="black" stroke="black" image-rendering="auto" stroke-miterlimit="10" zoomAndPan="magnify" version="1.0" stroke-linecap="square" stroke-linejoin="miter" contentStyleType="text/css" font-style="normal" height="453" stroke-width="1" stroke-dashoffset="0" font-weight="normal" stroke-opacity="1">
<!--Generated by the Batik Graphics2D SVG Generator-->
<defs id="genericDefs"/>
<g>
<defs id="defs1">
<clipPath clipPathUnits="userSpaceOnUse" id="clipPath1">
<path d="M27 22 L687 22 L687 431 L27 431 L27 22 Z"/>
</clipPath>
<clipPath clipPathUnits="userSpaceOnUse" id="clipPath2">
<path d="M-1 -1 L715 -1 L715 454 L-1 454 L-1 -1 Z"/>
</clipPath>
</defs>
<g font-size="15" fill="white" text-rendering="geometricPrecision" font-family="'Cantarell'" stroke-linejoin="round" stroke="white" stroke-width="0" stroke-miterlimit="0">
<rect x="28" y="23" clip-path="url(#clipPath1)" width="658" height="407" stroke="none"/>
</g>
<g stroke-linecap="butt" font-size="15" fill="rgb(204,204,204)" text-rendering="geometricPrecision" font-family="'Cantarell'" stroke-dasharray="3,3" stroke="rgb(204,204,204)">
<line clip-path="url(#clipPath1)" fill="none" x1="28" x2="686" y1="430" y2="430"/>
<line clip-path="url(#clipPath1)" fill="none" x1="28" x2="686" y1="374" y2="374"/>
<line clip-path="url(#clipPath1)" fill="none" x1="28" x2="686" y1="319" y2="319"/>
<line clip-path="url(#clipPath1)" fill="none" x1="28" x2="686" y1="263" y2="263"/>
<line clip-path="url(#clipPath1)" fill="none" x1="28" x2="686" y1="207" y2="207"/>
<line clip-path="url(#clipPath1)" fill="none" x1="28" x2="686" y1="152" y2="152"/>
<line clip-path="url(#clipPath1)" fill="none" x1="28" x2="686" y1="96" y2="96"/>
<line clip-path="url(#clipPath1)" fill="none" x1="28" x2="686" y1="41" y2="41"/>
<line clip-path="url(#clipPath1)" fill="none" x1="-1095" x2="-1085" y1="430" y2="430" stroke-dasharray="none" stroke="black"/>
<line clip-path="url(#clipPath1)" fill="none" x1="-1085" x2="-1075" y1="430" y2="430" stroke-dasharray="none" stroke="black"/>
<line clip-path="url(#clipPath1)" fill="none" x1="-1075" x2="-1065" y1="430" y2="430" stroke-dasharray="none" stroke="black"/>
<line clip-path="url(#clipPath1)" fill="none" x1="-1065" x2="-1055" y1="430" y2="430" stroke-dasharray="none" stroke="black"/>
<line clip-path="url(#clipPath1)" fill="none" x1="-1055" x2="-1045" y1="430" y2="430" stroke-dasharray="none" stroke="black"/>
<line clip-path="url(#clipPath1)" fill="none" x1="-1045" x2="-1035" y1="430" y2="430" stroke-dasharray="none" stroke="black"/>
<line clip-path="url(#clipPath1)" fill="none" x1="-1035" x2="-1025" y1="430" y2="430" stroke-dasharray="none" stroke="black"/>
<line clip-path="url(#clipPath1)" fill="none" x1="-1025" x2="-1015" y1="430" y2="430" stroke-dasharray="none" stroke="black"/>
<line clip-path="url(#clipPath1)" fill="none" x1="-1015" x2="-1005" y1="430" y2="430" stroke-dasharray="none" stroke="black"/>
<line clip-path="url(#clipPath1)" fill="none" x1="-1005" x2="-996" y1="430" y2="430" stroke-dasharray="none" stroke="black"/>
<line clip-path="url(#clipPath1)" fill="none" x1="-996" x2="-986" y1="430" y2="430" stroke-dasharray="none" stroke="black"/>
<line clip-path="url(#clipPath1)" fill="none" x1="-986" x2="-976" y1="430" y2="430" stroke-dasharray="none" stroke="black"/>
<line clip-path="url(#clipPath1)" fill="none" x1="-976" x2="-966" y1="430" y2="430" stroke-dasharray="none" stroke="black"/>
<line clip-path="url(#clipPath1)" fill="none" x1="-966" x2="-956" y1="430" y2="430" stroke-dasharray="none" stroke="black"/>
<line clip-path="url(#clipPath1)" fill="none" x1="-956" x2="-946" y1="430" y2="430" stroke-dasharray="none" stroke="black"/>
<line clip-path="url(#clipPath1)" fill="none" x1="-946" x2="-936" y1="430" y2="430" stroke-dasharray="none" stroke="black"/>
<line clip-path="url(#clipPath1)" fill="none" x1="-936" x2="-926" y1="430" y2="430" stroke-dasharray="none" stroke="black"/>
<line clip-path="url(#clipPath1)" fill="none" x1="-926" x2="-916" y1="430" y2="430" stroke-dasharray="none" stroke="black"/>
<line clip-path="url(#clipPath1)" fill="none" x1="-916" x2="-907" y1="430" y2="430" stroke-dasharray="none" stroke="black"/>
<line clip-path="url(#clipPath1)" fill="none" x1="-907" x2="-897" y1="430" y2="430" stroke-dasharray="none" stroke="black"/>
<line clip-path="url(#clipPath1)" fill="none" x1="-897" x2="-887" y1="430" y2="430" stroke-dasharray="none" stroke="black"/>
<line clip-path="url(#clipPath1)" fill="none" x1="-887" x2="-877" y1="430" y2="430" stroke-dasharray="none" stroke="black"/>
<line clip-path="url(#clipPath1)" fill="none" x1="-877" x2="-867" y1="430" y2="430" stroke-dasharray="none" stroke="black"/>
<line clip-path="url(#clipPath1)" fill="none" x1="-867" x2="-857" y1="430" y2="430" stroke-dasharray="none" stroke="black"/>
<line clip-path="url(#clipPath1)" fill="none" x1="-857" x2="-847" y1="430" y2="430" stroke-dasharray="none" stroke="black"/>
<line clip-path="url(#clipPath1)" fill="none" x1="-847" x2="-837" y1="430" y2="430" stroke-dasharray="none" stroke="black"/>
<line clip-path="url(#clipPath1)" fill="none" x1="-837" x2="-827" y1="430" y2="430" stroke-dasharray="none" stroke="black"/>
<line clip-path="url(#clipPath1)" fill="none" x1="-827" x2="-818" y1="430" y2="430" stroke-dasharray="none" stroke="black"/>
<line clip-path="url(#clipPath1)" fill="none" x1="-818" x2="-808" y1="430" y2="430" stroke-dasharray="none" stroke="black"/>
<line clip-path="url(#clipPath1)" fill="none" x1="-808" x2="-798" y1="430" y2="430" stroke-dasharray="none" stroke="black"/>
<line clip-path="url(#clipPath1)" fill="none" x1="-798" x2="-788" y1="430" y2="430" stroke-dasharray="none" stroke="black"/>
<line clip-path="url(#clipPath1)" fill="none" x1="-788" x2="-778" y1="430" y2="430" stroke-dasharray="none" stroke="black"/>
<line clip-path="url(#clipPath1)" fill="none" x1="-778" x2="-768" y1="430" y2="430" stroke-dasharray="none" stroke="black"/>
<line clip-path="url(#clipPath1)" fill="none" x1="-768" x2="-758" y1="430" y2="430" stroke-dasharray="none" stroke="black"/>
<line clip-path="url(#clipPath1)" fill="none" x1="-758" x2="-748" y1="430" y2="430" stroke-dasharray="none" stroke="black"/>
<line clip-path="url(#clipPath1)" fill="none" x1="-748" x2="-738" y1="430" y2="430" stroke-dasharray="none" stroke="black"/>
<line clip-path="url(#clipPath1)" fill="none" x1="-738" x2="-728" y1="430" y2="430" stroke-dasharray="none" stroke="black"/>
<line clip-path="url(#clipPath1)" fill="none" x1="-728" x2="-719" y1="430" y2="430" stroke-dasharray="none" stroke="black"/>
<line clip-path="url(#clipPath1)" fill="none" x1="-719" x2="-709" y1="430" y2="430" stroke-dasharray="none" stroke="black"/>
<line clip-path="url(#clipPath1)" fill="none" x1="-709" x2="-699" y1="430" y2="430" stroke-dasharray="none" stroke="black"/>
<line clip-path="url(#clipPath1)" fill="none" x1="-699" x2="-689" y1="430" y2="430" stroke-dasharray="none" stroke="black"/>
<line clip-path="url(#clipPath1)" fill="none" x1="-689" x2="-679" y1="430" y2="430" stroke-dasharray="none" stroke="black"/>
<line clip-path="url(#clipPath1)" fill="none" x1="-679" x2="-669" y1="430" y2="430" stroke-dasharray="none" stroke="black"/>
<line clip-path="url(#clipPath1)" fill="none" x1="-669" x2="-659" y1="430" y2="430" stroke-dasharray="none" stroke="black"/>
<line clip-path="url(#clipPath1)" fill="none" x1="-659" x2="-649" y1="430" y2="430" stroke-dasharray="none" stroke="black"/>
<line clip-path="url(#clipPath1)" fill="none" x1="-649" x2="-639" y1="430" y2="430" stroke-dasharray="none" stroke="black"/>
<line clip-path="url(#clipPath1)" fill="none" x1="-639" x2="-630" y1="430" y2="430" stroke-dasharray="none" stroke="black"/>
<line clip-path="url(#clipPath1)" fill="none" x1="-630" x2="-620" y1="430" y2="430" stroke-dasharray="none" stroke="black"/>
<line clip-path="url(#clipPath1)" fill="none" x1="-620" x2="-610" y1="430" y2="430" stroke-dasharray="none" stroke="black"/>
<line clip-path="url(#clipPath1)" fill="none" x1="-610" x2="-600" y1="430" y2="430" stroke-dasharray="none" stroke="black"/>
<line clip-path="url(#clipPath1)" fill="none" x1="-600" x2="-590" y1="430" y2="430" stroke-dasharray="none" stroke="black"/>
<line clip-path="url(#clipPath1)" fill="none" x1="-590" x2="-580" y1="430" y2="430" stroke-dasharray="none" stroke="black"/>
<line clip-path="url(#clipPath1)" fill="none" x1="-580" x2="-570" y1="430" y2="430" stroke-dasharray="none" stroke="black"/>
<line clip-path="url(#clipPath1)" fill="none" x1="-570" x2="-560" y1="430" y2="430" stroke-dasharray="none" stroke="black"/>
<line clip-path="url(#clipPath1)" fill="none" x1="-560" x2="-550" y1="430" y2="430" stroke-dasharray="none" stroke="black"/>
<line clip-path="url(#clipPath1)" fill="none" x1="-550" x2="-541" y1="430" y2="430" stroke-dasharray="none" stroke="black"/>
<line clip-path="url(#clipPath1)" fill="none" x1="-541" x2="-531" y1="430" y2="430" stroke-dasharray="none" stroke="black"/>
<line clip-path="url(#clipPath1)" fill="none" x1="-531" x2="-521" y1="430" y2="430" stroke-dasharray="none" stroke="black"/>
<line clip-path="url(#clipPath1)" fill="none" x1="-521" x2="-511" y1="430" y2="430" stroke-dasharray="none" stroke="black"/>
<line clip-path="url(#clipPath1)" fill="none" x1="-511" x2="-501" y1="430" y2="430" stroke-dasharray="none" stroke="black"/>
<line clip-path="url(#clipPath1)" fill="none" x1="-501" x2="-491" y1="430" y2="430" stroke-dasharray="none" stroke="black"/>
<line clip-path="url(#clipPath1)" fill="none" x1="-491" x2="-481" y1="430" y2="430" stroke-dasharray="none" stroke="black"/>
<line clip-path="url(#clipPath1)" fill="none" x1="-481" x2="-471" y1="430" y2="430" stroke-dasharray="none" stroke="black"/>
<line clip-path="url(#clipPath1)" fill="none" x1="-471" x2="-461" y1="430" y2="430" stroke-dasharray="none" stroke="black"/>
<line clip-path="url(#clipPath1)" fill="none" x1="-461" x2="-451" y1="430" y2="430" stroke-dasharray="none" stroke="black"/>
<line clip-path="url(#clipPath1)" fill="none" x1="-451" x2="-442" y1="430" y2="430" stroke-dasharray="none" stroke="black"/>
<line clip-path="url(#clipPath1)" fill="none" x1="-442" x2="-432" y1="430" y2="430" stroke-dasharray="none" stroke="black"/>
<line clip-path="url(#clipPath1)" fill="none" x1="-432" x2="-422" y1="430" y2="430" stroke-dasharray="none" stroke="black"/>
<line clip-path="url(#clipPath1)" fill="none" x1="-422" x2="-412" y1="430" y2="430" stroke-dasharray="none" stroke="black"/>
<line clip-path="url(#clipPath1)" fill="none" x1="-412" x2="-402" y1="430" y2="430" stroke-dasharray="none" stroke="black"/>
<line clip-path="url(#clipPath1)" fill="none" x1="-402" x2="-392" y1="430" y2="430" stroke-dasharray="none" stroke="black"/>
<line clip-path="url(#clipPath1)" fill="none" x1="-392" x2="-382" y1="430" y2="430" stroke-dasharray="none" stroke="black"/>
<line clip-path="url(#clipPath1)" fill="none" x1="-382" x2="-372" y1="430" y2="430" stroke-dasharray="none" stroke="black"/>
<line clip-path="url(#clipPath1)" fill="none" x1="-372" x2="-362" y1="430" y2="430" stroke-dasharray="none" stroke="black"/>
<line clip-path="url(#clipPath1)" fill="none" x1="-362" x2="-353" y1="430" y2="430" stroke-dasharray="none" stroke="black"/>
<line clip-path="url(#clipPath1)" fill="none" x1="-353" x2="-343" y1="430" y2="430" stroke-dasharray="none" stroke="black"/>
<line clip-path="url(#clipPath1)" fill="none" x1="-343" x2="-333" y1="430" y2="430" stroke-dasharray="none" stroke="black"/>
<line clip-path="url(#clipPath1)" fill="none" x1="-333" x2="-323" y1="430" y2="430" stroke-dasharray="none" stroke="black"/>
<line clip-path="url(#clipPath1)" fill="none" x1="-323" x2="-313" y1="430" y2="430" stroke-dasharray="none" stroke="black"/>
<line clip-path="url(#clipPath1)" fill="none" x1="-313" x2="-303" y1="430" y2="430" stroke-dasharray="none" stroke="black"/>
<line clip-path="url(#clipPath1)" fill="none" x1="-303" x2="-293" y1="430" y2="430" stroke-dasharray="none" stroke="black"/>
<line clip-path="url(#clipPath1)" fill="none" x1="-293" x2="-283" y1="430" y2="430" stroke-dasharray="none" stroke="black"/>
<line clip-path="url(#clipPath1)" fill="none" x1="-283" x2="-273" y1="430" y2="430" stroke-dasharray="none" stroke="black"/>
<line clip-path="url(#clipPath1)" fill="none" x1="-273" x2="-264" y1="430" y2="430" stroke-dasharray="none" stroke="black"/>
<line clip-path="url(#clipPath1)" fill="none" x1="-264" x2="-254" y1="430" y2="430" stroke-dasharray="none" stroke="black"/>
<line clip-path="url(#clipPath1)" fill="none" x1="-254" x2="-244" y1="430" y2="430" stroke-dasharray="none" stroke="black"/>
<line clip-path="url(#clipPath1)" fill="none" x1="-244" x2="-234" y1="430" y2="430" stroke-dasharray="none" stroke="black"/>
<line clip-path="url(#clipPath1)" fill="none" x1="-234" x2="-224" y1="430" y2="430" stroke-dasharray="none" stroke="black"/>
<line clip-path="url(#clipPath1)" fill="none" x1="-224" x2="-214" y1="430" y2="430" stroke-dasharray="none" stroke="black"/>
<line clip-path="url(#clipPath1)" fill="none" x1="-214" x2="-204" y1="430" y2="430" stroke-dasharray="none" stroke="black"/>
<line clip-path="url(#clipPath1)" fill="none" x1="-204" x2="-194" y1="430" y2="430" stroke-dasharray="none" stroke="black"/>
<line clip-path="url(#clipPath1)" fill="none" x1="-194" x2="-184" y1="430" y2="430" stroke-dasharray="none" stroke="black"/>
<line clip-path="url(#clipPath1)" fill="none" x1="-184" x2="-174" y1="430" y2="430" stroke-dasharray="none" stroke="black"/>
<line clip-path="url(#clipPath1)" fill="none" x1="-174" x2="-165" y1="430" y2="430" stroke-dasharray="none" stroke="black"/>
<line clip-path="url(#clipPath1)" fill="none" x1="-165" x2="-155" y1="430" y2="430" stroke-dasharray="none" stroke="black"/>
<line clip-path="url(#clipPath1)" fill="none" x1="-155" x2="-145" y1="430" y2="430" stroke-dasharray="none" stroke="black"/>
<line clip-path="url(#clipPath1)" fill="none" x1="-145" x2="-135" y1="430" y2="430" stroke-dasharray="none" stroke="black"/>
<line clip-path="url(#clipPath1)" fill="none" x1="-135" x2="-125" y1="430" y2="430" stroke-dasharray="none" stroke="black"/>
<line clip-path="url(#clipPath1)" fill="none" x1="-125" x2="-115" y1="430" y2="430" stroke-dasharray="none" stroke="black"/>
<line clip-path="url(#clipPath1)" fill="none" x1="-115" x2="-105" y1="430" y2="430" stroke-dasharray="none" stroke="black"/>
<line clip-path="url(#clipPath1)" fill="none" x1="-105" x2="-95" y1="430" y2="430" stroke-dasharray="none" stroke="black"/>
<line clip-path="url(#clipPath1)" fill="none" x1="-95" x2="-85" y1="430" y2="430" stroke-dasharray="none" stroke="black"/>
<line clip-path="url(#clipPath1)" fill="none" x1="-85" x2="-76" y1="430" y2="430" stroke-dasharray="none" stroke="black"/>
<line clip-path="url(#clipPath1)" fill="none" x1="-76" x2="-66" y1="430" y2="430" stroke-dasharray="none" stroke="black"/>
<line clip-path="url(#clipPath1)" fill="none" x1="-66" x2="-56" y1="430" y2="430" stroke-dasharray="none" stroke="black"/>
<line clip-path="url(#clipPath1)" fill="none" x1="-56" x2="-46" y1="430" y2="430" stroke-dasharray="none" stroke="black"/>
<line clip-path="url(#clipPath1)" fill="none" x1="-46" x2="-36" y1="430" y2="430" stroke-dasharray="none" stroke="black"/>
<line clip-path="url(#clipPath1)" fill="none" x1="-36" x2="-26" y1="430" y2="430" stroke-dasharray="none" stroke="black"/>
<line clip-path="url(#clipPath1)" fill="none" x1="-26" x2="-16" y1="430" y2="430" stroke-dasharray="none" stroke="black"/>
<line clip-path="url(#clipPath1)" fill="none" x1="-16" x2="-6" y1="430" y2="430" stroke-dasharray="none" stroke="black"/>
<line clip-path="url(#clipPath1)" fill="none" x1="-6" x2="3" y1="430" y2="430" stroke-dasharray="none" stroke="black"/>
<line clip-path="url(#clipPath1)" fill="none" x1="3" x2="12" y1="430" y2="430" stroke-dasharray="none" stroke="black"/>
<line clip-path="url(#clipPath1)" fill="none" x1="12" x2="22" y1="430" y2="430" stroke-dasharray="none" stroke="black"/>
<line clip-path="url(#clipPath1)" fill="none" x1="22" x2="32" y1="430" y2="430" stroke-dasharray="none" stroke="black"/>
<line clip-path="url(#clipPath1)" fill="none" x1="32" x2="42" y1="430" y2="430" stroke-dasharray="none" stroke="black"/>
<line clip-path="url(#clipPath1)" fill="none" x1="42" x2="52" y1="430" y2="430" stroke-dasharray="none" stroke="black"/>
<line clip-path="url(#clipPath1)" fill="none" x1="52" x2="62" y1="430" y2="430" stroke-dasharray="none" stroke="black"/>
<line clip-path="url(#clipPath1)" fill="none" x1="62" x2="72" y1="430" y2="430" stroke-dasharray="none" stroke="black"/>
<line clip-path="url(#clipPath1)" fill="none" x1="72" x2="82" y1="430" y2="430" stroke-dasharray="none" stroke="black"/>
<line clip-path="url(#clipPath1)" fill="none" x1="82" x2="92" y1="430" y2="430" stroke-dasharray="none" stroke="black"/>
<line clip-path="url(#clipPath1)" fill="none" x1="92" x2="102" y1="430" y2="430" stroke-dasharray="none" stroke="black"/>
<line clip-path="url(#clipPath1)" fill="none" x1="102" x2="111" y1="430" y2="430" stroke-dasharray="none" stroke="black"/>
<line clip-path="url(#clipPath1)" fill="none" x1="111" x2="121" y1="430" y2="430" stroke-dasharray="none" stroke="black"/>
<line clip-path="url(#clipPath1)" fill="none" x1="121" x2="131" y1="430" y2="430" stroke-dasharray="none" stroke="black"/>
<line clip-path="url(#clipPath1)" fill="none" x1="131" x2="141" y1="430" y2="430" stroke-dasharray="none" stroke="black"/>
<line clip-path="url(#clipPath1)" fill="none" x1="141" x2="151" y1="430" y2="430" stroke-dasharray="none" stroke="black"/>
<line clip-path="url(#clipPath1)" fill="none" x1="151" x2="161" y1="430" y2="430" stroke-dasharray="none" stroke="black"/>
<line clip-path="url(#clipPath1)" fill="none" x1="161" x2="171" y1="430" y2="430" stroke-dasharray="none" stroke="black"/>
<line clip-path="url(#clipPath1)" fill="none" x1="171" x2="181" y1="430" y2="430" stroke-dasharray="none" stroke="black"/>
<line clip-path="url(#clipPath1)" fill="none" x1="181" x2="191" y1="430" y2="430" stroke-dasharray="none" stroke="black"/>
<line clip-path="url(#clipPath1)" fill="none" x1="191" x2="200" y1="430" y2="430" stroke-dasharray="none" stroke="black"/>
<line clip-path="url(#clipPath1)" fill="none" x1="200" x2="210" y1="430" y2="430" stroke-dasharray="none" stroke="black"/>
<line clip-path="url(#clipPath1)" fill="none" x1="210" x2="220" y1="430" y2="430" stroke-dasharray="none" stroke="black"/>
<line clip-path="url(#clipPath1)" fill="none" x1="220" x2="230" y1="430" y2="430" stroke-dasharray="none" stroke="black"/>
<rect x="230" y="402" clip-path="url(#clipPath1)" fill="rgb(0,0,139)" width="10" stroke-dasharray="none" height="28" stroke="none"/>
<rect x="230" y="402" clip-path="url(#clipPath1)" fill="none" width="10" stroke-dasharray="none" height="28" stroke="black"/>
<line clip-path="url(#clipPath1)" fill="none" x1="240" x2="250" y1="430" y2="430" stroke-dasharray="none" stroke="black"/>
<line clip-path="url(#clipPath1)" fill="none" x1="250" x2="260" y1="430" y2="430" stroke-dasharray="none" stroke="black"/>
<line clip-path="url(#clipPath1)" fill="none" x1="260" x2="270" y1="430" y2="430" stroke-dasharray="none" stroke="black"/>
<line clip-path="url(#clipPath1)" fill="none" x1="270" x2="280" y1="430" y2="430" stroke-dasharray="none" stroke="black"/>
<line clip-path="url(#clipPath1)" fill="none" x1="280" x2="289" y1="430" y2="430" stroke-dasharray="none" stroke="black"/>
<rect x="289" y="402" clip-path="url(#clipPath1)" fill="rgb(0,0,139)" width="10" stroke-dasharray="none" height="28" stroke="none"/>
<rect x="289" y="402" clip-path="url(#clipPath1)" fill="none" width="10" stroke-dasharray="none" height="28" stroke="black"/>
<rect x="299" y="402" clip-path="url(#clipPath1)" fill="rgb(0,0,139)" width="10" stroke-dasharray="none" height="28" stroke="none"/>
<rect x="299" y="402" clip-path="url(#clipPath1)" fill="none" width="10" stroke-dasharray="none" height="28" stroke="black"/>
<rect x="309" y="346" clip-path="url(#clipPath1)" fill="rgb(0,0,139)" width="10" stroke-dasharray="none" height="84" stroke="none"/>
<rect x="309" y="346" clip-path="url(#clipPath1)" fill="none" width="10" stroke-dasharray="none" height="84" stroke="black"/>
<rect x="319" y="235" clip-path="url(#clipPath1)" fill="rgb(0,0,139)" width="10" stroke-dasharray="none" height="195" stroke="none"/>
<rect x="319" y="235" clip-path="url(#clipPath1)" fill="none" width="10" stroke-dasharray="none" height="195" stroke="black"/>
<rect x="329" y="263" clip-path="url(#clipPath1)" fill="rgb(0,0,139)" width="10" stroke-dasharray="none" height="167" stroke="none"/>
<rect x="329" y="263" clip-path="url(#clipPath1)" fill="none" width="10" stroke-dasharray="none" height="167" stroke="black"/>
<rect x="339" y="180" clip-path="url(#clipPath1)" fill="rgb(0,0,139)" width="10" stroke-dasharray="none" height="250" stroke="none"/>
<rect x="339" y="180" clip-path="url(#clipPath1)" fill="none" width="10" stroke-dasharray="none" height="250" stroke="black"/>
<rect x="349" y="207" clip-path="url(#clipPath1)" fill="rgb(0,0,139)" width="10" stroke-dasharray="none" height="223" stroke="none"/>
<rect x="349" y="207" clip-path="url(#clipPath1)" fill="none" width="10" stroke-dasharray="none" height="223" stroke="black"/>
<rect x="359" y="124" clip-path="url(#clipPath1)" fill="rgb(0,0,139)" width="10" stroke-dasharray="none" height="306" stroke="none"/>
<rect x="359" y="124" clip-path="url(#clipPath1)" fill="none" width="10" stroke-dasharray="none" height="306" stroke="black"/>
<rect x="369" y="207" clip-path="url(#clipPath1)" fill="rgb(0,0,139)" width="9" stroke-dasharray="none" height="223" stroke="none"/>
<rect x="369" y="207" clip-path="url(#clipPath1)" fill="none" width="9" stroke-dasharray="none" height="223" stroke="black"/>
<rect x="378" y="180" clip-path="url(#clipPath1)" fill="rgb(0,0,139)" width="10" stroke-dasharray="none" height="250" stroke="none"/>
<rect x="378" y="180" clip-path="url(#clipPath1)" fill="none" width="10" stroke-dasharray="none" height="250" stroke="black"/>
<rect x="388" y="346" clip-path="url(#clipPath1)" fill="rgb(0,0,139)" width="10" stroke-dasharray="none" height="84" stroke="none"/>
<rect x="388" y="346" clip-path="url(#clipPath1)" fill="none" width="10" stroke-dasharray="none" height="84" stroke="black"/>
<rect x="398" y="291" clip-path="url(#clipPath1)" fill="rgb(0,0,139)" width="10" stroke-dasharray="none" height="139" stroke="none"/>
<rect x="398" y="291" clip-path="url(#clipPath1)" fill="none" width="10" stroke-dasharray="none" height="139" stroke="black"/>
<line clip-path="url(#clipPath1)" fill="none" x1="408" x2="418" y1="430" y2="430" stroke-dasharray="none" stroke="black"/>
<rect x="418" y="374" clip-path="url(#clipPath1)" fill="rgb(0,0,139)" width="10" stroke-dasharray="none" height="56" stroke="none"/>
<rect x="418" y="374" clip-path="url(#clipPath1)" fill="none" width="10" stroke-dasharray="none" height="56" stroke="black"/>
<line clip-path="url(#clipPath1)" fill="none" x1="428" x2="438" y1="430" y2="430" stroke-dasharray="none" stroke="black"/>
<line clip-path="url(#clipPath1)" fill="none" x1="438" x2="448" y1="430" y2="430" stroke-dasharray="none" stroke="black"/>
<line clip-path="url(#clipPath1)" fill="none" x1="448" x2="458" y1="430" y2="430" stroke-dasharray="none" stroke="black"/>
<line clip-path="url(#clipPath1)" fill="none" x1="458" x2="468" y1="430" y2="430" stroke-dasharray="none" stroke="black"/>
<line clip-path="url(#clipPath1)" fill="none" x1="468" x2="477" y1="430" y2="430" stroke-dasharray="none" stroke="black"/>
<line clip-path="url(#clipPath1)" fill="none" x1="477" x2="487" y1="430" y2="430" stroke-dasharray="none" stroke="black"/>
<line clip-path="url(#clipPath1)" fill="none" x1="487" x2="497" y1="430" y2="430" stroke-dasharray="none" stroke="black"/>
<line clip-path="url(#clipPath1)" fill="none" x1="497" x2="507" y1="430" y2="430" stroke-dasharray="none" stroke="black"/>
<line clip-path="url(#clipPath1)" fill="none" x1="507" x2="517" y1="430" y2="430" stroke-dasharray="none" stroke="black"/>
<line clip-path="url(#clipPath1)" fill="none" x1="517" x2="527" y1="430" y2="430" stroke-dasharray="none" stroke="black"/>
<line clip-path="url(#clipPath1)" fill="none" x1="527" x2="537" y1="430" y2="430" stroke-dasharray="none" stroke="black"/>
<line clip-path="url(#clipPath1)" fill="none" x1="537" x2="547" y1="430" y2="430" stroke-dasharray="none" stroke="black"/>
<line clip-path="url(#clipPath1)" fill="none" x1="547" x2="557" y1="430" y2="430" stroke-dasharray="none" stroke="black"/>
<line clip-path="url(#clipPath1)" fill="none" x1="557" x2="566" y1="430" y2="430" stroke-dasharray="none" stroke="black"/>
<line clip-path="url(#clipPath1)" fill="none" x1="566" x2="576" y1="430" y2="430" stroke-dasharray="none" stroke="black"/>
<line clip-path="url(#clipPath1)" fill="none" x1="576" x2="586" y1="430" y2="430" stroke-dasharray="none" stroke="black"/>
<line clip-path="url(#clipPath1)" fill="none" x1="586" x2="596" y1="430" y2="430" stroke-dasharray="none" stroke="black"/>
<line clip-path="url(#clipPath1)" fill="none" x1="596" x2="606" y1="430" y2="430" stroke-dasharray="none" stroke="black"/>
<line clip-path="url(#clipPath1)" fill="none" x1="606" x2="616" y1="430" y2="430" stroke-dasharray="none" stroke="black"/>
<line clip-path="url(#clipPath1)" fill="none" x1="616" x2="626" y1="430" y2="430" stroke-dasharray="none" stroke="black"/>
<line clip-path="url(#clipPath1)" fill="none" x1="626" x2="636" y1="430" y2="430" stroke-dasharray="none" stroke="black"/>
<line clip-path="url(#clipPath1)" fill="none" x1="636" x2="646" y1="430" y2="430" stroke-dasharray="none" stroke="black"/>
<line clip-path="url(#clipPath1)" fill="none" x1="646" x2="655" y1="430" y2="430" stroke-dasharray="none" stroke="black"/>
<line clip-path="url(#clipPath1)" fill="none" x1="655" x2="665" y1="430" y2="430" stroke-dasharray="none" stroke="black"/>
<line clip-path="url(#clipPath1)" fill="none" x1="665" x2="675" y1="430" y2="430" stroke-dasharray="none" stroke="black"/>
<line clip-path="url(#clipPath1)" fill="none" x1="675" x2="685" y1="430" y2="430" stroke-dasharray="none" stroke="black"/>
<line clip-path="url(#clipPath1)" fill="none" x1="685" x2="695" y1="430" y2="430" stroke-dasharray="none" stroke="black"/>
<line clip-path="url(#clipPath1)" fill="none" x1="695" x2="705" y1="430" y2="430" stroke-dasharray="none" stroke="black"/>
<line clip-path="url(#clipPath1)" fill="none" x1="705" x2="715" y1="430" y2="430" stroke-dasharray="none" stroke="black"/>
<line clip-path="url(#clipPath1)" fill="none" x1="715" x2="725" y1="430" y2="430" stroke-dasharray="none" stroke="black"/>
<line clip-path="url(#clipPath1)" fill="none" x1="725" x2="735" y1="430" y2="430" stroke-dasharray="none" stroke="black"/>
<line clip-path="url(#clipPath1)" fill="none" x1="735" x2="745" y1="430" y2="430" stroke-dasharray="none" stroke="black"/>
<line clip-path="url(#clipPath1)" fill="none" x1="745" x2="754" y1="430" y2="430" stroke-dasharray="none" stroke="black"/>
<line clip-path="url(#clipPath1)" fill="none" x1="754" x2="764" y1="430" y2="430" stroke-dasharray="none" stroke="black"/>
<line clip-path="url(#clipPath1)" fill="none" x1="764" x2="774" y1="430" y2="430" stroke-dasharray="none" stroke="black"/>
<line clip-path="url(#clipPath1)" fill="none" x1="774" x2="784" y1="430" y2="430" stroke-dasharray="none" stroke="black"/>
<line clip-path="url(#clipPath1)" fill="none" x1="784" x2="794" y1="430" y2="430" stroke-dasharray="none" stroke="black"/>
<line clip-path="url(#clipPath1)" fill="none" x1="794" x2="804" y1="430" y2="430" stroke-dasharray="none" stroke="black"/>
<line clip-path="url(#clipPath1)" fill="none" x1="804" x2="814" y1="430" y2="430" stroke-dasharray="none" stroke="black"/>
<line clip-path="url(#clipPath1)" fill="none" x1="814" x2="824" y1="430" y2="430" stroke-dasharray="none" stroke="black"/>
<line clip-path="url(#clipPath1)" fill="none" x1="824" x2="834" y1="430" y2="430" stroke-dasharray="none" stroke="black"/>
<line clip-path="url(#clipPath1)" fill="none" x1="834" x2="843" y1="430" y2="430" stroke-dasharray="none" stroke="black"/>
<line clip-path="url(#clipPath1)" fill="none" x1="843" x2="853" y1="430" y2="430" stroke-dasharray="none" stroke="black"/>
<line clip-path="url(#clipPath1)" fill="none" x1="853" x2="863" y1="430" y2="430" stroke-dasharray="none" stroke="black"/>
<line clip-path="url(#clipPath1)" fill="none" x1="863" x2="873" y1="430" y2="430" stroke-dasharray="none" stroke="black"/>
<line clip-path="url(#clipPath1)" fill="none" x1="873" x2="883" y1="430" y2="430" stroke-dasharray="none" stroke="black"/>
<rect x="28" y="23" clip-path="url(#clipPath2)" fill="none" width="658" stroke-dasharray="none" height="407" stroke="black"/>
</g>
<g text-rendering="geometricPrecision" font-size="13" stroke-linecap="butt">
<line clip-path="url(#clipPath2)" fill="none" x1="28" x2="686" y1="21" y2="21"/>
<line clip-path="url(#clipPath2)" fill="none" x1="28" x2="686" y1="432" y2="432"/>
<line clip-path="url(#clipPath2)" fill="none" x1="48" x2="48" y1="17" y2="21"/>
<line clip-path="url(#clipPath2)" fill="none" x1="48" x2="48" y1="436" y2="432"/>
<text x="28" font-size="11" y="14" clip-path="url(#clipPath2)" stroke="none" xml:space="preserve">0.00028</text>
<text x="28" font-size="11" y="448" clip-path="url(#clipPath2)" stroke="none" xml:space="preserve">0.00028</text>
<line clip-path="url(#clipPath2)" fill="none" x1="89" x2="89" y1="19" y2="21"/>
<line clip-path="url(#clipPath2)" fill="none" x1="89" x2="89" y1="434" y2="432"/>
<line clip-path="url(#clipPath2)" fill="none" x1="130" x2="130" y1="17" y2="21"/>
<line clip-path="url(#clipPath2)" fill="none" x1="130" x2="130" y1="436" y2="432"/>
<text x="110" font-size="11" y="14" clip-path="url(#clipPath2)" stroke="none" xml:space="preserve">0.00030</text>
<text x="110" font-size="11" y="448" clip-path="url(#clipPath2)" stroke="none" xml:space="preserve">0.00030</text>
<line clip-path="url(#clipPath2)" fill="none" x1="171" x2="171" y1="19" y2="21"/>
<line clip-path="url(#clipPath2)" fill="none" x1="171" x2="171" y1="434" y2="432"/>
<line clip-path="url(#clipPath2)" fill="none" x1="212" x2="212" y1="17" y2="21"/>
<line clip-path="url(#clipPath2)" fill="none" x1="212" x2="212" y1="436" y2="432"/>
<text x="192" font-size="11" y="14" clip-path="url(#clipPath2)" stroke="none" xml:space="preserve">0.00032</text>
<text x="192" font-size="11" y="448" clip-path="url(#clipPath2)" stroke="none" xml:space="preserve">0.00032</text>
<line clip-path="url(#clipPath2)" fill="none" x1="252" x2="252" y1="19" y2="21"/>
<line clip-path="url(#clipPath2)" fill="none" x1="252" x2="252" y1="434" y2="432"/>
<line clip-path="url(#clipPath2)" fill="none" x1="293" x2="293" y1="17" y2="21"/>
<line clip-path="url(#clipPath2)" fill="none" x1="293" x2="293" y1="436" y2="432"/>
<text x="273" font-size="11" y="14" clip-path="url(#clipPath2)" stroke="none" xml:space="preserve">0.00034</text>
<text x="273" font-size="11" y="448" clip-path="url(#clipPath2)" stroke="none" xml:space="preserve">0.00034</text>
<line clip-path="url(#clipPath2)" fill="none" x1="334" x2="334" y1="19" y2="21"/>
<line clip-path="url(#clipPath2)" fill="none" x1="334" x2="334" y1="434" y2="432"/>
<line clip-path="url(#clipPath2)" fill="none" x1="375" x2="375" y1="17" y2="21"/>
<line clip-path="url(#clipPath2)" fill="none" x1="375" x2="375" y1="436" y2="432"/>
<text x="355" font-size="11" y="14" clip-path="url(#clipPath2)" stroke="none" xml:space="preserve">0.00036</text>
<text x="355" font-size="11" y="448" clip-path="url(#clipPath2)" stroke="none" xml:space="preserve">0.00036</text>
<line clip-path="url(#clipPath2)" fill="none" x1="416" x2="416" y1="19" y2="21"/>
<line clip-path="url(#clipPath2)" fill="none" x1="416" x2="416" y1="434" y2="432"/>
<line clip-path="url(#clipPath2)" fill="none" x1="457" x2="457" y1="17" y2="21"/>
<line clip-path="url(#clipPath2)" fill="none" x1="457" x2="457" y1="436" y2="432"/>
<text x="437" font-size="11" y="14" clip-path="url(#clipPath2)" stroke="none" xml:space="preserve">0.00038</text>
<text x="437" font-size="11" y="448" clip-path="url(#clipPath2)" stroke="none" xml:space="preserve">0.00038</text>
<line clip-path="url(#clipPath2)" fill="none" x1="497" x2="497" y1="19" y2="21"/>
<line clip-path="url(#clipPath2)" fill="none" x1="497" x2="497" y1="434" y2="432"/>
<line clip-path="url(#clipPath2)" fill="none" x1="538" x2="538" y1="17" y2="21"/>
<line clip-path="url(#clipPath2)" fill="none" x1="538" x2="538" y1="436" y2="432"/>
<text x="518" font-size="11" y="14" clip-path="url(#clipPath2)" stroke="none" xml:space="preserve">0.00040</text>
<text x="518" font-size="11" y="448" clip-path="url(#clipPath2)" stroke="none" xml:space="preserve">0.00040</text>
<line clip-path="url(#clipPath2)" fill="none" x1="579" x2="579" y1="19" y2="21"/>
<line clip-path="url(#clipPath2)" fill="none" x1="579" x2="579" y1="434" y2="432"/>
<line clip-path="url(#clipPath2)" fill="none" x1="620" x2="620" y1="17" y2="21"/>
<line clip-path="url(#clipPath2)" fill="none" x1="620" x2="620" y1="436" y2="432"/>
<text x="600" font-size="11" y="14" clip-path="url(#clipPath2)" stroke="none" xml:space="preserve">0.00042</text>
<text x="600" font-size="11" y="448" clip-path="url(#clipPath2)" stroke="none" xml:space="preserve">0.00042</text>
<line clip-path="url(#clipPath2)" fill="none" x1="661" x2="661" y1="19" y2="21"/>
<line clip-path="url(#clipPath2)" fill="none" x1="661" x2="661" y1="434" y2="432"/>
<line clip-path="url(#clipPath2)" fill="none" x1="26" x2="26" y1="23" y2="430"/>
<line clip-path="url(#clipPath2)" fill="none" x1="688" x2="688" y1="23" y2="430"/>
<line clip-path="url(#clipPath2)" fill="none" x1="22" x2="26" y1="430" y2="430"/>
<line clip-path="url(#clipPath2)" fill="none" x1="692" x2="688" y1="430" y2="430"/>
<text x="15" font-size="11" y="435" clip-path="url(#clipPath2)" stroke="none" xml:space="preserve">0</text>
<text x="695" font-size="11" y="435" clip-path="url(#clipPath2)" stroke="none" xml:space="preserve">0</text>
<line clip-path="url(#clipPath2)" fill="none" x1="24" x2="26" y1="402" y2="402"/>
<line clip-path="url(#clipPath2)" fill="none" x1="690" x2="688" y1="402" y2="402"/>
<line clip-path="url(#clipPath2)" fill="none" x1="22" x2="26" y1="374" y2="374"/>
<line clip-path="url(#clipPath2)" fill="none" x1="692" x2="688" y1="374" y2="374"/>
<text x="15" font-size="11" y="379" clip-path="url(#clipPath2)" stroke="none" xml:space="preserve">2</text>
<text x="695" font-size="11" y="379" clip-path="url(#clipPath2)" stroke="none" xml:space="preserve">2</text>
<line clip-path="url(#clipPath2)" fill="none" x1="24" x2="26" y1="346" y2="346"/>
<line clip-path="url(#clipPath2)" fill="none" x1="690" x2="688" y1="346" y2="346"/>
<line clip-path="url(#clipPath2)" fill="none" x1="22" x2="26" y1="319" y2="319"/>
<line clip-path="url(#clipPath2)" fill="none" x1="692" x2="688" y1="319" y2="319"/>
<text x="15" font-size="11" y="324" clip-path="url(#clipPath2)" stroke="none" xml:space="preserve">4</text>
<text x="695" font-size="11" y="324" clip-path="url(#clipPath2)" stroke="none" xml:space="preserve">4</text>
<line clip-path="url(#clipPath2)" fill="none" x1="24" x2="26" y1="291" y2="291"/>
<line clip-path="url(#clipPath2)" fill="none" x1="690" x2="688" y1="291" y2="291"/>
<line clip-path="url(#clipPath2)" fill="none" x1="22" x2="26" y1="263" y2="263"/>
<line clip-path="url(#clipPath2)" fill="none" x1="692" x2="688" y1="263" y2="263"/>
<text x="15" font-size="11" y="268" clip-path="url(#clipPath2)" stroke="none" xml:space="preserve">6</text>
<text x="695" font-size="11" y="268" clip-path="url(#clipPath2)" stroke="none" xml:space="preserve">6</text>
<line clip-path="url(#clipPath2)" fill="none" x1="24" x2="26" y1="235" y2="235"/>
<line clip-path="url(#clipPath2)" fill="none" x1="690" x2="688" y1="235" y2="235"/>
<line clip-path="url(#clipPath2)" fill="none" x1="22" x2="26" y1="207" y2="207"/>
<line clip-path="url(#clipPath2)" fill="none" x1="692" x2="688" y1="207" y2="207"/>
<text x="15" font-size="11" y="212" clip-path="url(#clipPath2)" stroke="none" xml:space="preserve">8</text>
<text x="695" font-size="11" y="212" clip-path="url(#clipPath2)" stroke="none" xml:space="preserve">8</text>
<line clip-path="url(#clipPath2)" fill="none" x1="24" x2="26" y1="180" y2="180"/>
<line clip-path="url(#clipPath2)" fill="none" x1="690" x2="688" y1="180" y2="180"/>
<line clip-path="url(#clipPath2)" fill="none" x1="22" x2="26" y1="152" y2="152"/>
<line clip-path="url(#clipPath2)" fill="none" x1="692" x2="688" y1="152" y2="152"/>
<text x="9" font-size="11" y="157" clip-path="url(#clipPath2)" stroke="none" xml:space="preserve">10</text>
<text x="695" font-size="11" y="157" clip-path="url(#clipPath2)" stroke="none" xml:space="preserve">10</text>
<line clip-path="url(#clipPath2)" fill="none" x1="24" x2="26" y1="124" y2="124"/>
<line clip-path="url(#clipPath2)" fill="none" x1="690" x2="688" y1="124" y2="124"/>
<line clip-path="url(#clipPath2)" fill="none" x1="22" x2="26" y1="96" y2="96"/>
<line clip-path="url(#clipPath2)" fill="none" x1="692" x2="688" y1="96" y2="96"/>
<text x="9" font-size="11" y="101" clip-path="url(#clipPath2)" stroke="none" xml:space="preserve">12</text>
<text x="695" font-size="11" y="101" clip-path="url(#clipPath2)" stroke="none" xml:space="preserve">12</text>
<line clip-path="url(#clipPath2)" fill="none" x1="24" x2="26" y1="69" y2="69"/>
<line clip-path="url(#clipPath2)" fill="none" x1="690" x2="688" y1="69" y2="69"/>
<line clip-path="url(#clipPath2)" fill="none" x1="22" x2="26" y1="41" y2="41"/>
<line clip-path="url(#clipPath2)" fill="none" x1="692" x2="688" y1="41" y2="41"/>
<text x="9" font-size="11" y="46" clip-path="url(#clipPath2)" stroke="none" xml:space="preserve">14</text>
<text x="695" font-size="11" y="46" clip-path="url(#clipPath2)" stroke="none" xml:space="preserve">14</text>
</g>
</g>
</svg>
