<?xml version="1.0" encoding="UTF-8"?><svg xmlns="http://www.w3.org/2000/svg" xmlns:xlink="http://www.w3.org/1999/xlink" stroke-dasharray="none" shape-rendering="auto" font-family="'Dialog'" width="706" text-rendering="auto" fill-opacity="1" contentScriptType="text/ecmascript" color-interpolation="auto" color-rendering="auto" preserveAspectRatio="xMidYMid meet" font-size="12" fill="black" stroke="black" image-rendering="auto" stroke-miterlimit="10" zoomAndPan="magnify" version="1.0" stroke-linecap="square" stroke-linejoin="miter" contentStyleType="text/css" font-style="normal" height="544" stroke-width="1" stroke-dashoffset="0" font-weight="normal" stroke-opacity="1">
<!--Generated by the Batik Graphics2D SVG Generator-->
<defs id="genericDefs"/>
<g>
<defs id="defs1">
<clipPath clipPathUnits="userSpaceOnUse" id="clipPath1">
<path d="M25 21 L681 21 L681 523 L25 523 L25 21 Z"/>
</clipPath>
<clipPath clipPathUnits="userSpaceOnUse" id="clipPath2">
<path d="M-1 -1 L707 -1 L707 545 L-1 545 L-1 -1 Z"/>
</clipPath>
</defs>
<g font-size="15" fill="white" text-rendering="geometricPrecision" font-family="'Cantarell'" stroke-linejoin="round" stroke="white" stroke-width="0" stroke-miterlimit="0">
<rect x="26" y="22" clip-path="url(#clipPath1)" width="654" height="500" stroke="none"/>
</g>
<g font-size="15" stroke-linecap="butt" fill="rgb(204,204,204)" text-rendering="geometricPrecision" font-family="'Cantarell'" stroke-dasharray="3,3" stroke="rgb(204,204,204)">
<line clip-path="url(#clipPath1)" fill="none" x1="26" x2="680" y1="522" y2="522"/>
<line clip-path="url(#clipPath1)" fill="none" x1="26" x2="680" y1="444" y2="444"/>
<line clip-path="url(#clipPath1)" fill="none" x1="26" x2="680" y1="366" y2="366"/>
<line clip-path="url(#clipPath1)" fill="none" x1="26" x2="680" y1="288" y2="288"/>
<line clip-path="url(#clipPath1)" fill="none" x1="26" x2="680" y1="210" y2="210"/>
<line clip-path="url(#clipPath1)" fill="none" x1="26" x2="680" y1="132" y2="132"/>
<line clip-path="url(#clipPath1)" fill="none" x1="26" x2="680" y1="54" y2="54"/>
<line clip-path="url(#clipPath1)" fill="none" x1="26" x2="29" y1="522" y2="522" stroke-dasharray="none" stroke="black"/>
<line clip-path="url(#clipPath1)" fill="none" x1="29" x2="33" y1="522" y2="522" stroke-dasharray="none" stroke="black"/>
<rect x="33" y="38" clip-path="url(#clipPath1)" fill="rgb(0,0,139)" width="4" stroke-dasharray="none" height="484" stroke="none"/>
<rect x="33" y="38" clip-path="url(#clipPath1)" fill="none" width="4" stroke-dasharray="none" height="484" stroke="black"/>
<rect x="37" y="101" clip-path="url(#clipPath1)" fill="rgb(0,0,139)" width="4" stroke-dasharray="none" height="421" stroke="none"/>
<rect x="37" y="101" clip-path="url(#clipPath1)" fill="none" width="4" stroke-dasharray="none" height="421" stroke="black"/>
<rect x="41" y="429" clip-path="url(#clipPath1)" fill="rgb(0,0,139)" width="4" stroke-dasharray="none" height="93" stroke="none"/>
<rect x="41" y="429" clip-path="url(#clipPath1)" fill="none" width="4" stroke-dasharray="none" height="93" stroke="black"/>
<rect x="45" y="507" clip-path="url(#clipPath1)" fill="rgb(0,0,139)" width="4" stroke-dasharray="none" height="15" stroke="none"/>
<rect x="45" y="507" clip-path="url(#clipPath1)" fill="none" width="4" stroke-dasharray="none" height="15" stroke="black"/>
<line clip-path="url(#clipPath1)" fill="none" x1="49" x2="53" y1="522" y2="522" stroke-dasharray="none" stroke="black"/>
<line clip-path="url(#clipPath1)" fill="none" x1="53" x2="57" y1="522" y2="522" stroke-dasharray="none" stroke="black"/>
<line clip-path="url(#clipPath1)" fill="none" x1="57" x2="61" y1="522" y2="522" stroke-dasharray="none" stroke="black"/>
<line clip-path="url(#clipPath1)" fill="none" x1="61" x2="65" y1="522" y2="522" stroke-dasharray="none" stroke="black"/>
<rect x="65" y="507" clip-path="url(#clipPath1)" fill="rgb(0,0,139)" width="4" stroke-dasharray="none" height="15" stroke="none"/>
<rect x="65" y="507" clip-path="url(#clipPath1)" fill="none" width="4" stroke-dasharray="none" height="15" stroke="black"/>
<line clip-path="url(#clipPath1)" fill="none" x1="69" x2="73" y1="522" y2="522" stroke-dasharray="none" stroke="black"/>
<line clip-path="url(#clipPath1)" fill="none" x1="73" x2="77" y1="522" y2="522" stroke-dasharray="none" stroke="black"/>
<rect x="77" y="476" clip-path="url(#clipPath1)" fill="rgb(0,0,139)" width="4" stroke-dasharray="none" height="46" stroke="none"/>
<rect x="77" y="476" clip-path="url(#clipPath1)" fill="none" width="4" stroke-dasharray="none" height="46" stroke="black"/>
<rect x="81" y="429" clip-path="url(#clipPath1)" fill="rgb(0,0,139)" width="4" stroke-dasharray="none" height="93" stroke="none"/>
<rect x="81" y="429" clip-path="url(#clipPath1)" fill="none" width="4" stroke-dasharray="none" height="93" stroke="black"/>
<rect x="85" y="319" clip-path="url(#clipPath1)" fill="rgb(0,0,139)" width="4" stroke-dasharray="none" height="203" stroke="none"/>
<rect x="85" y="319" clip-path="url(#clipPath1)" fill="none" width="4" stroke-dasharray="none" height="203" stroke="black"/>
<rect x="89" y="366" clip-path="url(#clipPath1)" fill="rgb(0,0,139)" width="4" stroke-dasharray="none" height="156" stroke="none"/>
<rect x="89" y="366" clip-path="url(#clipPath1)" fill="none" width="4" stroke-dasharray="none" height="156" stroke="black"/>
<rect x="93" y="429" clip-path="url(#clipPath1)" fill="rgb(0,0,139)" width="4" stroke-dasharray="none" height="93" stroke="none"/>
<rect x="93" y="429" clip-path="url(#clipPath1)" fill="none" width="4" stroke-dasharray="none" height="93" stroke="black"/>
<rect x="97" y="444" clip-path="url(#clipPath1)" fill="rgb(0,0,139)" width="4" stroke-dasharray="none" height="78" stroke="none"/>
<rect x="97" y="444" clip-path="url(#clipPath1)" fill="none" width="4" stroke-dasharray="none" height="78" stroke="black"/>
<rect x="101" y="507" clip-path="url(#clipPath1)" fill="rgb(0,0,139)" width="4" stroke-dasharray="none" height="15" stroke="none"/>
<rect x="101" y="507" clip-path="url(#clipPath1)" fill="none" width="4" stroke-dasharray="none" height="15" stroke="black"/>
<rect x="105" y="491" clip-path="url(#clipPath1)" fill="rgb(0,0,139)" width="3" stroke-dasharray="none" height="31" stroke="none"/>
<rect x="105" y="491" clip-path="url(#clipPath1)" fill="none" width="3" stroke-dasharray="none" height="31" stroke="black"/>
<line clip-path="url(#clipPath1)" fill="none" x1="108" x2="112" y1="522" y2="522" stroke-dasharray="none" stroke="black"/>
<line clip-path="url(#clipPath1)" fill="none" x1="112" x2="116" y1="522" y2="522" stroke-dasharray="none" stroke="black"/>
<line clip-path="url(#clipPath1)" fill="none" x1="116" x2="120" y1="522" y2="522" stroke-dasharray="none" stroke="black"/>
<line clip-path="url(#clipPath1)" fill="none" x1="120" x2="124" y1="522" y2="522" stroke-dasharray="none" stroke="black"/>
<line clip-path="url(#clipPath1)" fill="none" x1="124" x2="128" y1="522" y2="522" stroke-dasharray="none" stroke="black"/>
<line clip-path="url(#clipPath1)" fill="none" x1="128" x2="132" y1="522" y2="522" stroke-dasharray="none" stroke="black"/>
<line clip-path="url(#clipPath1)" fill="none" x1="132" x2="136" y1="522" y2="522" stroke-dasharray="none" stroke="black"/>
<line clip-path="url(#clipPath1)" fill="none" x1="136" x2="140" y1="522" y2="522" stroke-dasharray="none" stroke="black"/>
<line clip-path="url(#clipPath1)" fill="none" x1="140" x2="144" y1="522" y2="522" stroke-dasharray="none" stroke="black"/>
<line clip-path="url(#clipPath1)" fill="none" x1="144" x2="148" y1="522" y2="522" stroke-dasharray="none" stroke="black"/>
<line clip-path="url(#clipPath1)" fill="none" x1="148" x2="152" y1="522" y2="522" stroke-dasharray="none" stroke="black"/>
<line clip-path="url(#clipPath1)" fill="none" x1="152" x2="156" y1="522" y2="522" stroke-dasharray="none" stroke="black"/>
<line clip-path="url(#clipPath1)" fill="none" x1="156" x2="160" y1="522" y2="522" stroke-dasharray="none" stroke="black"/>
<line clip-path="url(#clipPath1)" fill="none" x1="160" x2="164" y1="522" y2="522" stroke-dasharray="none" stroke="black"/>
<line clip-path="url(#clipPath1)" fill="none" x1="164" x2="168" y1="522" y2="522" stroke-dasharray="none" stroke="black"/>
<line clip-path="url(#clipPath1)" fill="none" x1="168" x2="172" y1="522" y2="522" stroke-dasharray="none" stroke="black"/>
<line clip-path="url(#clipPath1)" fill="none" x1="172" x2="176" y1="522" y2="522" stroke-dasharray="none" stroke="black"/>
<line clip-path="url(#clipPath1)" fill="none" x1="176" x2="180" y1="522" y2="522" stroke-dasharray="none" stroke="black"/>
<line clip-path="url(#clipPath1)" fill="none" x1="180" x2="184" y1="522" y2="522" stroke-dasharray="none" stroke="black"/>
<line clip-path="url(#clipPath1)" fill="none" x1="184" x2="188" y1="522" y2="522" stroke-dasharray="none" stroke="black"/>
<line clip-path="url(#clipPath1)" fill="none" x1="188" x2="191" y1="522" y2="522" stroke-dasharray="none" stroke="black"/>
<line clip-path="url(#clipPath1)" fill="none" x1="191" x2="195" y1="522" y2="522" stroke-dasharray="none" stroke="black"/>
<line clip-path="url(#clipPath1)" fill="none" x1="195" x2="199" y1="522" y2="522" stroke-dasharray="none" stroke="black"/>
<line clip-path="url(#clipPath1)" fill="none" x1="199" x2="203" y1="522" y2="522" stroke-dasharray="none" stroke="black"/>
<line clip-path="url(#clipPath1)" fill="none" x1="203" x2="207" y1="522" y2="522" stroke-dasharray="none" stroke="black"/>
<line clip-path="url(#clipPath1)" fill="none" x1="207" x2="211" y1="522" y2="522" stroke-dasharray="none" stroke="black"/>
<line clip-path="url(#clipPath1)" fill="none" x1="211" x2="215" y1="522" y2="522" stroke-dasharray="none" stroke="black"/>
<line clip-path="url(#clipPath1)" fill="none" x1="215" x2="219" y1="522" y2="522" stroke-dasharray="none" stroke="black"/>
<line clip-path="url(#clipPath1)" fill="none" x1="219" x2="223" y1="522" y2="522" stroke-dasharray="none" stroke="black"/>
<line clip-path="url(#clipPath1)" fill="none" x1="223" x2="227" y1="522" y2="522" stroke-dasharray="none" stroke="black"/>
<line clip-path="url(#clipPath1)" fill="none" x1="227" x2="231" y1="522" y2="522" stroke-dasharray="none" stroke="black"/>
<line clip-path="url(#clipPath1)" fill="none" x1="231" x2="235" y1="522" y2="522" stroke-dasharray="none" stroke="black"/>
<line clip-path="url(#clipPath1)" fill="none" x1="235" x2="239" y1="522" y2="522" stroke-dasharray="none" stroke="black"/>
<line clip-path="url(#clipPath1)" fill="none" x1="239" x2="243" y1="522" y2="522" stroke-dasharray="none" stroke="black"/>
<line clip-path="url(#clipPath1)" fill="none" x1="243" x2="247" y1="522" y2="522" stroke-dasharray="none" stroke="black"/>
<line clip-path="url(#clipPath1)" fill="none" x1="247" x2="251" y1="522" y2="522" stroke-dasharray="none" stroke="black"/>
<line clip-path="url(#clipPath1)" fill="none" x1="251" x2="255" y1="522" y2="522" stroke-dasharray="none" stroke="black"/>
<line clip-path="url(#clipPath1)" fill="none" x1="255" x2="259" y1="522" y2="522" stroke-dasharray="none" stroke="black"/>
<line clip-path="url(#clipPath1)" fill="none" x1="259" x2="263" y1="522" y2="522" stroke-dasharray="none" stroke="black"/>
<line clip-path="url(#clipPath1)" fill="none" x1="263" x2="267" y1="522" y2="522" stroke-dasharray="none" stroke="black"/>
<line clip-path="url(#clipPath1)" fill="none" x1="267" x2="270" y1="522" y2="522" stroke-dasharray="none" stroke="black"/>
<line clip-path="url(#clipPath1)" fill="none" x1="270" x2="274" y1="522" y2="522" stroke-dasharray="none" stroke="black"/>
<line clip-path="url(#clipPath1)" fill="none" x1="274" x2="278" y1="522" y2="522" stroke-dasharray="none" stroke="black"/>
<line clip-path="url(#clipPath1)" fill="none" x1="278" x2="282" y1="522" y2="522" stroke-dasharray="none" stroke="black"/>
<line clip-path="url(#clipPath1)" fill="none" x1="282" x2="286" y1="522" y2="522" stroke-dasharray="none" stroke="black"/>
<line clip-path="url(#clipPath1)" fill="none" x1="286" x2="290" y1="522" y2="522" stroke-dasharray="none" stroke="black"/>
<line clip-path="url(#clipPath1)" fill="none" x1="290" x2="294" y1="522" y2="522" stroke-dasharray="none" stroke="black"/>
<line clip-path="url(#clipPath1)" fill="none" x1="294" x2="298" y1="522" y2="522" stroke-dasharray="none" stroke="black"/>
<line clip-path="url(#clipPath1)" fill="none" x1="298" x2="302" y1="522" y2="522" stroke-dasharray="none" stroke="black"/>
<line clip-path="url(#clipPath1)" fill="none" x1="302" x2="306" y1="522" y2="522" stroke-dasharray="none" stroke="black"/>
<line clip-path="url(#clipPath1)" fill="none" x1="306" x2="310" y1="522" y2="522" stroke-dasharray="none" stroke="black"/>
<line clip-path="url(#clipPath1)" fill="none" x1="310" x2="314" y1="522" y2="522" stroke-dasharray="none" stroke="black"/>
<line clip-path="url(#clipPath1)" fill="none" x1="314" x2="318" y1="522" y2="522" stroke-dasharray="none" stroke="black"/>
<line clip-path="url(#clipPath1)" fill="none" x1="318" x2="322" y1="522" y2="522" stroke-dasharray="none" stroke="black"/>
<line clip-path="url(#clipPath1)" fill="none" x1="322" x2="326" y1="522" y2="522" stroke-dasharray="none" stroke="black"/>
<line clip-path="url(#clipPath1)" fill="none" x1="326" x2="330" y1="522" y2="522" stroke-dasharray="none" stroke="black"/>
<line clip-path="url(#clipPath1)" fill="none" x1="330" x2="334" y1="522" y2="522" stroke-dasharray="none" stroke="black"/>
<line clip-path="url(#clipPath1)" fill="none" x1="334" x2="338" y1="522" y2="522" stroke-dasharray="none" stroke="black"/>
<line clip-path="url(#clipPath1)" fill="none" x1="338" x2="342" y1="522" y2="522" stroke-dasharray="none" stroke="black"/>
<line clip-path="url(#clipPath1)" fill="none" x1="342" x2="346" y1="522" y2="522" stroke-dasharray="none" stroke="black"/>
<line clip-path="url(#clipPath1)" fill="none" x1="346" x2="350" y1="522" y2="522" stroke-dasharray="none" stroke="black"/>
<line clip-path="url(#clipPath1)" fill="none" x1="350" x2="353" y1="522" y2="522" stroke-dasharray="none" stroke="black"/>
<line clip-path="url(#clipPath1)" fill="none" x1="353" x2="357" y1="522" y2="522" stroke-dasharray="none" stroke="black"/>
<line clip-path="url(#clipPath1)" fill="none" x1="357" x2="361" y1="522" y2="522" stroke-dasharray="none" stroke="black"/>
<line clip-path="url(#clipPath1)" fill="none" x1="361" x2="365" y1="522" y2="522" stroke-dasharray="none" stroke="black"/>
<line clip-path="url(#clipPath1)" fill="none" x1="365" x2="369" y1="522" y2="522" stroke-dasharray="none" stroke="black"/>
<line clip-path="url(#clipPath1)" fill="none" x1="369" x2="373" y1="522" y2="522" stroke-dasharray="none" stroke="black"/>
<line clip-path="url(#clipPath1)" fill="none" x1="373" x2="377" y1="522" y2="522" stroke-dasharray="none" stroke="black"/>
<line clip-path="url(#clipPath1)" fill="none" x1="377" x2="381" y1="522" y2="522" stroke-dasharray="none" stroke="black"/>
<line clip-path="url(#clipPath1)" fill="none" x1="381" x2="385" y1="522" y2="522" stroke-dasharray="none" stroke="black"/>
<line clip-path="url(#clipPath1)" fill="none" x1="385" x2="389" y1="522" y2="522" stroke-dasharray="none" stroke="black"/>
<line clip-path="url(#clipPath1)" fill="none" x1="389" x2="393" y1="522" y2="522" stroke-dasharray="none" stroke="black"/>
<line clip-path="url(#clipPath1)" fill="none" x1="393" x2="397" y1="522" y2="522" stroke-dasharray="none" stroke="black"/>
<line clip-path="url(#clipPath1)" fill="none" x1="397" x2="401" y1="522" y2="522" stroke-dasharray="none" stroke="black"/>
<line clip-path="url(#clipPath1)" fill="none" x1="401" x2="405" y1="522" y2="522" stroke-dasharray="none" stroke="black"/>
<line clip-path="url(#clipPath1)" fill="none" x1="405" x2="409" y1="522" y2="522" stroke-dasharray="none" stroke="black"/>
<line clip-path="url(#clipPath1)" fill="none" x1="409" x2="413" y1="522" y2="522" stroke-dasharray="none" stroke="black"/>
<line clip-path="url(#clipPath1)" fill="none" x1="413" x2="417" y1="522" y2="522" stroke-dasharray="none" stroke="black"/>
<line clip-path="url(#clipPath1)" fill="none" x1="417" x2="421" y1="522" y2="522" stroke-dasharray="none" stroke="black"/>
<line clip-path="url(#clipPath1)" fill="none" x1="421" x2="425" y1="522" y2="522" stroke-dasharray="none" stroke="black"/>
<line clip-path="url(#clipPath1)" fill="none" x1="425" x2="429" y1="522" y2="522" stroke-dasharray="none" stroke="black"/>
<line clip-path="url(#clipPath1)" fill="none" x1="429" x2="432" y1="522" y2="522" stroke-dasharray="none" stroke="black"/>
<line clip-path="url(#clipPath1)" fill="none" x1="432" x2="436" y1="522" y2="522" stroke-dasharray="none" stroke="black"/>
<line clip-path="url(#clipPath1)" fill="none" x1="436" x2="440" y1="522" y2="522" stroke-dasharray="none" stroke="black"/>
<line clip-path="url(#clipPath1)" fill="none" x1="440" x2="444" y1="522" y2="522" stroke-dasharray="none" stroke="black"/>
<line clip-path="url(#clipPath1)" fill="none" x1="444" x2="448" y1="522" y2="522" stroke-dasharray="none" stroke="black"/>
<line clip-path="url(#clipPath1)" fill="none" x1="448" x2="452" y1="522" y2="522" stroke-dasharray="none" stroke="black"/>
<line clip-path="url(#clipPath1)" fill="none" x1="452" x2="456" y1="522" y2="522" stroke-dasharray="none" stroke="black"/>
<line clip-path="url(#clipPath1)" fill="none" x1="456" x2="460" y1="522" y2="522" stroke-dasharray="none" stroke="black"/>
<line clip-path="url(#clipPath1)" fill="none" x1="460" x2="464" y1="522" y2="522" stroke-dasharray="none" stroke="black"/>
<line clip-path="url(#clipPath1)" fill="none" x1="464" x2="468" y1="522" y2="522" stroke-dasharray="none" stroke="black"/>
<line clip-path="url(#clipPath1)" fill="none" x1="468" x2="472" y1="522" y2="522" stroke-dasharray="none" stroke="black"/>
<line clip-path="url(#clipPath1)" fill="none" x1="472" x2="476" y1="522" y2="522" stroke-dasharray="none" stroke="black"/>
<line clip-path="url(#clipPath1)" fill="none" x1="476" x2="480" y1="522" y2="522" stroke-dasharray="none" stroke="black"/>
<line clip-path="url(#clipPath1)" fill="none" x1="480" x2="484" y1="522" y2="522" stroke-dasharray="none" stroke="black"/>
<line clip-path="url(#clipPath1)" fill="none" x1="484" x2="488" y1="522" y2="522" stroke-dasharray="none" stroke="black"/>
<line clip-path="url(#clipPath1)" fill="none" x1="488" x2="492" y1="522" y2="522" stroke-dasharray="none" stroke="black"/>
<line clip-path="url(#clipPath1)" fill="none" x1="492" x2="496" y1="522" y2="522" stroke-dasharray="none" stroke="black"/>
<line clip-path="url(#clipPath1)" fill="none" x1="496" x2="500" y1="522" y2="522" stroke-dasharray="none" stroke="black"/>
<line clip-path="url(#clipPath1)" fill="none" x1="500" x2="504" y1="522" y2="522" stroke-dasharray="none" stroke="black"/>
<line clip-path="url(#clipPath1)" fill="none" x1="504" x2="508" y1="522" y2="522" stroke-dasharray="none" stroke="black"/>
<line clip-path="url(#clipPath1)" fill="none" x1="508" x2="512" y1="522" y2="522" stroke-dasharray="none" stroke="black"/>
<line clip-path="url(#clipPath1)" fill="none" x1="512" x2="515" y1="522" y2="522" stroke-dasharray="none" stroke="black"/>
<line clip-path="url(#clipPath1)" fill="none" x1="515" x2="519" y1="522" y2="522" stroke-dasharray="none" stroke="black"/>
<line clip-path="url(#clipPath1)" fill="none" x1="519" x2="523" y1="522" y2="522" stroke-dasharray="none" stroke="black"/>
<line clip-path="url(#clipPath1)" fill="none" x1="523" x2="527" y1="522" y2="522" stroke-dasharray="none" stroke="black"/>
<line clip-path="url(#clipPath1)" fill="none" x1="527" x2="531" y1="522" y2="522" stroke-dasharray="none" stroke="black"/>
<line clip-path="url(#clipPath1)" fill="none" x1="531" x2="535" y1="522" y2="522" stroke-dasharray="none" stroke="black"/>
<line clip-path="url(#clipPath1)" fill="none" x1="535" x2="539" y1="522" y2="522" stroke-dasharray="none" stroke="black"/>
<line clip-path="url(#clipPath1)" fill="none" x1="539" x2="543" y1="522" y2="522" stroke-dasharray="none" stroke="black"/>
<line clip-path="url(#clipPath1)" fill="none" x1="543" x2="547" y1="522" y2="522" stroke-dasharray="none" stroke="black"/>
<line clip-path="url(#clipPath1)" fill="none" x1="547" x2="551" y1="522" y2="522" stroke-dasharray="none" stroke="black"/>
<line clip-path="url(#clipPath1)" fill="none" x1="551" x2="555" y1="522" y2="522" stroke-dasharray="none" stroke="black"/>
<line clip-path="url(#clipPath1)" fill="none" x1="555" x2="559" y1="522" y2="522" stroke-dasharray="none" stroke="black"/>
<line clip-path="url(#clipPath1)" fill="none" x1="559" x2="563" y1="522" y2="522" stroke-dasharray="none" stroke="black"/>
<line clip-path="url(#clipPath1)" fill="none" x1="563" x2="567" y1="522" y2="522" stroke-dasharray="none" stroke="black"/>
<line clip-path="url(#clipPath1)" fill="none" x1="567" x2="571" y1="522" y2="522" stroke-dasharray="none" stroke="black"/>
<line clip-path="url(#clipPath1)" fill="none" x1="571" x2="575" y1="522" y2="522" stroke-dasharray="none" stroke="black"/>
<line clip-path="url(#clipPath1)" fill="none" x1="575" x2="579" y1="522" y2="522" stroke-dasharray="none" stroke="black"/>
<line clip-path="url(#clipPath1)" fill="none" x1="579" x2="583" y1="522" y2="522" stroke-dasharray="none" stroke="black"/>
<line clip-path="url(#clipPath1)" fill="none" x1="583" x2="587" y1="522" y2="522" stroke-dasharray="none" stroke="black"/>
<line clip-path="url(#clipPath1)" fill="none" x1="587" x2="591" y1="522" y2="522" stroke-dasharray="none" stroke="black"/>
<line clip-path="url(#clipPath1)" fill="none" x1="591" x2="595" y1="522" y2="522" stroke-dasharray="none" stroke="black"/>
<rect x="595" y="429" clip-path="url(#clipPath1)" fill="rgb(0,0,139)" width="3" stroke-dasharray="none" height="93" stroke="none"/>
<rect x="595" y="429" clip-path="url(#clipPath1)" fill="none" width="3" stroke-dasharray="none" height="93" stroke="black"/>
<rect x="598" y="413" clip-path="url(#clipPath1)" fill="rgb(0,0,139)" width="4" stroke-dasharray="none" height="109" stroke="none"/>
<rect x="598" y="413" clip-path="url(#clipPath1)" fill="none" width="4" stroke-dasharray="none" height="109" stroke="black"/>
<rect x="602" y="429" clip-path="url(#clipPath1)" fill="rgb(0,0,139)" width="4" stroke-dasharray="none" height="93" stroke="none"/>
<rect x="602" y="429" clip-path="url(#clipPath1)" fill="none" width="4" stroke-dasharray="none" height="93" stroke="black"/>
<rect x="606" y="335" clip-path="url(#clipPath1)" fill="rgb(0,0,139)" width="4" stroke-dasharray="none" height="187" stroke="none"/>
<rect x="606" y="335" clip-path="url(#clipPath1)" fill="none" width="4" stroke-dasharray="none" height="187" stroke="black"/>
<rect x="610" y="116" clip-path="url(#clipPath1)" fill="rgb(0,0,139)" width="4" stroke-dasharray="none" height="406" stroke="none"/>
<rect x="610" y="116" clip-path="url(#clipPath1)" fill="none" width="4" stroke-dasharray="none" height="406" stroke="black"/>
<rect x="614" y="147" clip-path="url(#clipPath1)" fill="rgb(0,0,139)" width="4" stroke-dasharray="none" height="375" stroke="none"/>
<rect x="614" y="147" clip-path="url(#clipPath1)" fill="none" width="4" stroke-dasharray="none" height="375" stroke="black"/>
<rect x="618" y="272" clip-path="url(#clipPath1)" fill="rgb(0,0,139)" width="4" stroke-dasharray="none" height="250" stroke="none"/>
<rect x="618" y="272" clip-path="url(#clipPath1)" fill="none" width="4" stroke-dasharray="none" height="250" stroke="black"/>
<rect x="622" y="366" clip-path="url(#clipPath1)" fill="rgb(0,0,139)" width="4" stroke-dasharray="none" height="156" stroke="none"/>
<rect x="622" y="366" clip-path="url(#clipPath1)" fill="none" width="4" stroke-dasharray="none" height="156" stroke="black"/>
<rect x="626" y="507" clip-path="url(#clipPath1)" fill="rgb(0,0,139)" width="4" stroke-dasharray="none" height="15" stroke="none"/>
<rect x="626" y="507" clip-path="url(#clipPath1)" fill="none" width="4" stroke-dasharray="none" height="15" stroke="black"/>
<rect x="630" y="460" clip-path="url(#clipPath1)" fill="rgb(0,0,139)" width="4" stroke-dasharray="none" height="62" stroke="none"/>
<rect x="630" y="460" clip-path="url(#clipPath1)" fill="none" width="4" stroke-dasharray="none" height="62" stroke="black"/>
<line clip-path="url(#clipPath1)" fill="none" x1="634" x2="638" y1="522" y2="522" stroke-dasharray="none" stroke="black"/>
<line clip-path="url(#clipPath1)" fill="none" x1="638" x2="642" y1="522" y2="522" stroke-dasharray="none" stroke="black"/>
<line clip-path="url(#clipPath1)" fill="none" x1="642" x2="646" y1="522" y2="522" stroke-dasharray="none" stroke="black"/>
<line clip-path="url(#clipPath1)" fill="none" x1="646" x2="650" y1="522" y2="522" stroke-dasharray="none" stroke="black"/>
<line clip-path="url(#clipPath1)" fill="none" x1="650" x2="654" y1="522" y2="522" stroke-dasharray="none" stroke="black"/>
<line clip-path="url(#clipPath1)" fill="none" x1="654" x2="658" y1="522" y2="522" stroke-dasharray="none" stroke="black"/>
<line clip-path="url(#clipPath1)" fill="none" x1="658" x2="662" y1="522" y2="522" stroke-dasharray="none" stroke="black"/>
<line clip-path="url(#clipPath1)" fill="none" x1="662" x2="666" y1="522" y2="522" stroke-dasharray="none" stroke="black"/>
<line clip-path="url(#clipPath1)" fill="none" x1="666" x2="670" y1="522" y2="522" stroke-dasharray="none" stroke="black"/>
<line clip-path="url(#clipPath1)" fill="none" x1="670" x2="674" y1="522" y2="522" stroke-dasharray="none" stroke="black"/>
<line clip-path="url(#clipPath1)" fill="none" x1="674" x2="677" y1="522" y2="522" stroke-dasharray="none" stroke="black"/>
<line clip-path="url(#clipPath1)" fill="none" x1="677" x2="681" y1="522" y2="522" stroke-dasharray="none" stroke="black"/>
<line clip-path="url(#clipPath1)" fill="none" x1="681" x2="685" y1="522" y2="522" stroke-dasharray="none" stroke="black"/>
<line clip-path="url(#clipPath1)" fill="none" x1="685" x2="689" y1="522" y2="522" stroke-dasharray="none" stroke="black"/>
<line clip-path="url(#clipPath1)" fill="none" x1="689" x2="693" y1="522" y2="522" stroke-dasharray="none" stroke="black"/>
<line clip-path="url(#clipPath1)" fill="none" x1="693" x2="697" y1="522" y2="522" stroke-dasharray="none" stroke="black"/>
<line clip-path="url(#clipPath1)" fill="none" x1="697" x2="701" y1="522" y2="522" stroke-dasharray="none" stroke="black"/>
<line clip-path="url(#clipPath1)" fill="none" x1="701" x2="705" y1="522" y2="522" stroke-dasharray="none" stroke="black"/>
<line clip-path="url(#clipPath1)" fill="none" x1="705" x2="709" y1="522" y2="522" stroke-dasharray="none" stroke="black"/>
<line clip-path="url(#clipPath1)" fill="none" x1="709" x2="713" y1="522" y2="522" stroke-dasharray="none" stroke="black"/>
<line clip-path="url(#clipPath1)" fill="none" x1="713" x2="717" y1="522" y2="522" stroke-dasharray="none" stroke="black"/>
<line clip-path="url(#clipPath1)" fill="none" x1="717" x2="721" y1="522" y2="522" stroke-dasharray="none" stroke="black"/>
<line clip-path="url(#clipPath1)" fill="none" x1="721" x2="725" y1="522" y2="522" stroke-dasharray="none" stroke="black"/>
<line clip-path="url(#clipPath1)" fill="none" x1="725" x2="729" y1="522" y2="522" stroke-dasharray="none" stroke="black"/>
<line clip-path="url(#clipPath1)" fill="none" x1="729" x2="733" y1="522" y2="522" stroke-dasharray="none" stroke="black"/>
<line clip-path="url(#clipPath1)" fill="none" x1="733" x2="737" y1="522" y2="522" stroke-dasharray="none" stroke="black"/>
<line clip-path="url(#clipPath1)" fill="none" x1="737" x2="741" y1="522" y2="522" stroke-dasharray="none" stroke="black"/>
<line clip-path="url(#clipPath1)" fill="none" x1="741" x2="745" y1="522" y2="522" stroke-dasharray="none" stroke="black"/>
<line clip-path="url(#clipPath1)" fill="none" x1="745" x2="749" y1="522" y2="522" stroke-dasharray="none" stroke="black"/>
<line clip-path="url(#clipPath1)" fill="none" x1="749" x2="753" y1="522" y2="522" stroke-dasharray="none" stroke="black"/>
<line clip-path="url(#clipPath1)" fill="none" x1="753" x2="757" y1="522" y2="522" stroke-dasharray="none" stroke="black"/>
<line clip-path="url(#clipPath1)" fill="none" x1="757" x2="760" y1="522" y2="522" stroke-dasharray="none" stroke="black"/>
<line clip-path="url(#clipPath1)" fill="none" x1="760" x2="764" y1="522" y2="522" stroke-dasharray="none" stroke="black"/>
<line clip-path="url(#clipPath1)" fill="none" x1="764" x2="768" y1="522" y2="522" stroke-dasharray="none" stroke="black"/>
<line clip-path="url(#clipPath1)" fill="none" x1="768" x2="772" y1="522" y2="522" stroke-dasharray="none" stroke="black"/>
<line clip-path="url(#clipPath1)" fill="none" x1="772" x2="776" y1="522" y2="522" stroke-dasharray="none" stroke="black"/>
<line clip-path="url(#clipPath1)" fill="none" x1="776" x2="780" y1="522" y2="522" stroke-dasharray="none" stroke="black"/>
<line clip-path="url(#clipPath1)" fill="none" x1="780" x2="784" y1="522" y2="522" stroke-dasharray="none" stroke="black"/>
<line clip-path="url(#clipPath1)" fill="none" x1="784" x2="788" y1="522" y2="522" stroke-dasharray="none" stroke="black"/>
<line clip-path="url(#clipPath1)" fill="none" x1="788" x2="792" y1="522" y2="522" stroke-dasharray="none" stroke="black"/>
<line clip-path="url(#clipPath1)" fill="none" x1="792" x2="796" y1="522" y2="522" stroke-dasharray="none" stroke="black"/>
<line clip-path="url(#clipPath1)" fill="none" x1="796" x2="800" y1="522" y2="522" stroke-dasharray="none" stroke="black"/>
<line clip-path="url(#clipPath1)" fill="none" x1="800" x2="804" y1="522" y2="522" stroke-dasharray="none" stroke="black"/>
<line clip-path="url(#clipPath1)" fill="none" x1="804" x2="808" y1="522" y2="522" stroke-dasharray="none" stroke="black"/>
<line clip-path="url(#clipPath1)" fill="none" x1="808" x2="812" y1="522" y2="522" stroke-dasharray="none" stroke="black"/>
<line clip-path="url(#clipPath1)" fill="none" x1="812" x2="816" y1="522" y2="522" stroke-dasharray="none" stroke="black"/>
<rect x="26" y="22" clip-path="url(#clipPath2)" fill="none" width="654" stroke-dasharray="none" height="500" stroke="black"/>
</g>
<g text-rendering="geometricPrecision" font-size="13" font-family="'Arial'" stroke-linecap="butt">
<line clip-path="url(#clipPath2)" fill="none" x1="26" x2="680" y1="20" y2="20"/>
<line clip-path="url(#clipPath2)" fill="none" x1="26" x2="680" y1="524" y2="524"/>
<line clip-path="url(#clipPath2)" fill="none" x1="26" x2="26" y1="16" y2="20"/>
<line clip-path="url(#clipPath2)" fill="none" x1="26" x2="26" y1="528" y2="524"/>
<text font-size="11" x="15" y="13" clip-path="url(#clipPath2)" stroke="none" xml:space="preserve">0.000</text>
<text font-size="11" x="15" y="539" clip-path="url(#clipPath2)" stroke="none" xml:space="preserve">0.000</text>
<line clip-path="url(#clipPath2)" fill="none" x1="38" x2="38" y1="18" y2="20"/>
<line clip-path="url(#clipPath2)" fill="none" x1="38" x2="38" y1="526" y2="524"/>
<line clip-path="url(#clipPath2)" fill="none" x1="50" x2="50" y1="18" y2="20"/>
<line clip-path="url(#clipPath2)" fill="none" x1="50" x2="50" y1="526" y2="524"/>
<line clip-path="url(#clipPath2)" fill="none" x1="62" x2="62" y1="18" y2="20"/>
<line clip-path="url(#clipPath2)" fill="none" x1="62" x2="62" y1="526" y2="524"/>
<line clip-path="url(#clipPath2)" fill="none" x1="74" x2="74" y1="18" y2="20"/>
<line clip-path="url(#clipPath2)" fill="none" x1="74" x2="74" y1="526" y2="524"/>
<line clip-path="url(#clipPath2)" fill="none" x1="86" x2="86" y1="16" y2="20"/>
<line clip-path="url(#clipPath2)" fill="none" x1="86" x2="86" y1="528" y2="524"/>
<text font-size="11" x="72" y="13" clip-path="url(#clipPath2)" stroke="none" xml:space="preserve">0.0005</text>
<text font-size="11" x="72" y="539" clip-path="url(#clipPath2)" stroke="none" xml:space="preserve">0.0005</text>
<line clip-path="url(#clipPath2)" fill="none" x1="98" x2="98" y1="18" y2="20"/>
<line clip-path="url(#clipPath2)" fill="none" x1="98" x2="98" y1="526" y2="524"/>
<line clip-path="url(#clipPath2)" fill="none" x1="110" x2="110" y1="18" y2="20"/>
<line clip-path="url(#clipPath2)" fill="none" x1="110" x2="110" y1="526" y2="524"/>
<line clip-path="url(#clipPath2)" fill="none" x1="122" x2="122" y1="18" y2="20"/>
<line clip-path="url(#clipPath2)" fill="none" x1="122" x2="122" y1="526" y2="524"/>
<line clip-path="url(#clipPath2)" fill="none" x1="134" x2="134" y1="18" y2="20"/>
<line clip-path="url(#clipPath2)" fill="none" x1="134" x2="134" y1="526" y2="524"/>
<line clip-path="url(#clipPath2)" fill="none" x1="147" x2="147" y1="16" y2="20"/>
<line clip-path="url(#clipPath2)" fill="none" x1="147" x2="147" y1="528" y2="524"/>
<text font-size="11" x="133" y="13" clip-path="url(#clipPath2)" stroke="none" xml:space="preserve">0.0010</text>
<text font-size="11" x="133" y="539" clip-path="url(#clipPath2)" stroke="none" xml:space="preserve">0.0010</text>
<line clip-path="url(#clipPath2)" fill="none" x1="159" x2="159" y1="18" y2="20"/>
<line clip-path="url(#clipPath2)" fill="none" x1="159" x2="159" y1="526" y2="524"/>
<line clip-path="url(#clipPath2)" fill="none" x1="171" x2="171" y1="18" y2="20"/>
<line clip-path="url(#clipPath2)" fill="none" x1="171" x2="171" y1="526" y2="524"/>
<line clip-path="url(#clipPath2)" fill="none" x1="183" x2="183" y1="18" y2="20"/>
<line clip-path="url(#clipPath2)" fill="none" x1="183" x2="183" y1="526" y2="524"/>
<line clip-path="url(#clipPath2)" fill="none" x1="195" x2="195" y1="18" y2="20"/>
<line clip-path="url(#clipPath2)" fill="none" x1="195" x2="195" y1="526" y2="524"/>
<line clip-path="url(#clipPath2)" fill="none" x1="207" x2="207" y1="16" y2="20"/>
<line clip-path="url(#clipPath2)" fill="none" x1="207" x2="207" y1="528" y2="524"/>
<text font-size="11" x="193" y="13" clip-path="url(#clipPath2)" stroke="none" xml:space="preserve">0.0015</text>
<text font-size="11" x="193" y="539" clip-path="url(#clipPath2)" stroke="none" xml:space="preserve">0.0015</text>
<line clip-path="url(#clipPath2)" fill="none" x1="219" x2="219" y1="18" y2="20"/>
<line clip-path="url(#clipPath2)" fill="none" x1="219" x2="219" y1="526" y2="524"/>
<line clip-path="url(#clipPath2)" fill="none" x1="231" x2="231" y1="18" y2="20"/>
<line clip-path="url(#clipPath2)" fill="none" x1="231" x2="231" y1="526" y2="524"/>
<line clip-path="url(#clipPath2)" fill="none" x1="243" x2="243" y1="18" y2="20"/>
<line clip-path="url(#clipPath2)" fill="none" x1="243" x2="243" y1="526" y2="524"/>
<line clip-path="url(#clipPath2)" fill="none" x1="255" x2="255" y1="18" y2="20"/>
<line clip-path="url(#clipPath2)" fill="none" x1="255" x2="255" y1="526" y2="524"/>
<line clip-path="url(#clipPath2)" fill="none" x1="268" x2="268" y1="16" y2="20"/>
<line clip-path="url(#clipPath2)" fill="none" x1="268" x2="268" y1="528" y2="524"/>
<text font-size="11" x="254" y="13" clip-path="url(#clipPath2)" stroke="none" xml:space="preserve">0.0020</text>
<text font-size="11" x="254" y="539" clip-path="url(#clipPath2)" stroke="none" xml:space="preserve">0.0020</text>
<line clip-path="url(#clipPath2)" fill="none" x1="280" x2="280" y1="18" y2="20"/>
<line clip-path="url(#clipPath2)" fill="none" x1="280" x2="280" y1="526" y2="524"/>
<line clip-path="url(#clipPath2)" fill="none" x1="292" x2="292" y1="18" y2="20"/>
<line clip-path="url(#clipPath2)" fill="none" x1="292" x2="292" y1="526" y2="524"/>
<line clip-path="url(#clipPath2)" fill="none" x1="304" x2="304" y1="18" y2="20"/>
<line clip-path="url(#clipPath2)" fill="none" x1="304" x2="304" y1="526" y2="524"/>
<line clip-path="url(#clipPath2)" fill="none" x1="316" x2="316" y1="18" y2="20"/>
<line clip-path="url(#clipPath2)" fill="none" x1="316" x2="316" y1="526" y2="524"/>
<line clip-path="url(#clipPath2)" fill="none" x1="328" x2="328" y1="16" y2="20"/>
<line clip-path="url(#clipPath2)" fill="none" x1="328" x2="328" y1="528" y2="524"/>
<text font-size="11" x="314" y="13" clip-path="url(#clipPath2)" stroke="none" xml:space="preserve">0.0025</text>
<text font-size="11" x="314" y="539" clip-path="url(#clipPath2)" stroke="none" xml:space="preserve">0.0025</text>
<line clip-path="url(#clipPath2)" fill="none" x1="340" x2="340" y1="18" y2="20"/>
<line clip-path="url(#clipPath2)" fill="none" x1="340" x2="340" y1="526" y2="524"/>
<line clip-path="url(#clipPath2)" fill="none" x1="352" x2="352" y1="18" y2="20"/>
<line clip-path="url(#clipPath2)" fill="none" x1="352" x2="352" y1="526" y2="524"/>
<line clip-path="url(#clipPath2)" fill="none" x1="364" x2="364" y1="18" y2="20"/>
<line clip-path="url(#clipPath2)" fill="none" x1="364" x2="364" y1="526" y2="524"/>
<line clip-path="url(#clipPath2)" fill="none" x1="376" x2="376" y1="18" y2="20"/>
<line clip-path="url(#clipPath2)" fill="none" x1="376" x2="376" y1="526" y2="524"/>
<line clip-path="url(#clipPath2)" fill="none" x1="389" x2="389" y1="16" y2="20"/>
<line clip-path="url(#clipPath2)" fill="none" x1="389" x2="389" y1="528" y2="524"/>
<text font-size="11" x="375" y="13" clip-path="url(#clipPath2)" stroke="none" xml:space="preserve">0.0030</text>
<text font-size="11" x="375" y="539" clip-path="url(#clipPath2)" stroke="none" xml:space="preserve">0.0030</text>
<line clip-path="url(#clipPath2)" fill="none" x1="401" x2="401" y1="18" y2="20"/>
<line clip-path="url(#clipPath2)" fill="none" x1="401" x2="401" y1="526" y2="524"/>
<line clip-path="url(#clipPath2)" fill="none" x1="413" x2="413" y1="18" y2="20"/>
<line clip-path="url(#clipPath2)" fill="none" x1="413" x2="413" y1="526" y2="524"/>
<line clip-path="url(#clipPath2)" fill="none" x1="425" x2="425" y1="18" y2="20"/>
<line clip-path="url(#clipPath2)" fill="none" x1="425" x2="425" y1="526" y2="524"/>
<line clip-path="url(#clipPath2)" fill="none" x1="437" x2="437" y1="18" y2="20"/>
<line clip-path="url(#clipPath2)" fill="none" x1="437" x2="437" y1="526" y2="524"/>
<line clip-path="url(#clipPath2)" fill="none" x1="449" x2="449" y1="16" y2="20"/>
<line clip-path="url(#clipPath2)" fill="none" x1="449" x2="449" y1="528" y2="524"/>
<text font-size="11" x="435" y="13" clip-path="url(#clipPath2)" stroke="none" xml:space="preserve">0.0035</text>
<text font-size="11" x="435" y="539" clip-path="url(#clipPath2)" stroke="none" xml:space="preserve">0.0035</text>
<line clip-path="url(#clipPath2)" fill="none" x1="461" x2="461" y1="18" y2="20"/>
<line clip-path="url(#clipPath2)" fill="none" x1="461" x2="461" y1="526" y2="524"/>
<line clip-path="url(#clipPath2)" fill="none" x1="473" x2="473" y1="18" y2="20"/>
<line clip-path="url(#clipPath2)" fill="none" x1="473" x2="473" y1="526" y2="524"/>
<line clip-path="url(#clipPath2)" fill="none" x1="485" x2="485" y1="18" y2="20"/>
<line clip-path="url(#clipPath2)" fill="none" x1="485" x2="485" y1="526" y2="524"/>
<line clip-path="url(#clipPath2)" fill="none" x1="497" x2="497" y1="18" y2="20"/>
<line clip-path="url(#clipPath2)" fill="none" x1="497" x2="497" y1="526" y2="524"/>
<line clip-path="url(#clipPath2)" fill="none" x1="510" x2="510" y1="16" y2="20"/>
<line clip-path="url(#clipPath2)" fill="none" x1="510" x2="510" y1="528" y2="524"/>
<text font-size="11" x="496" y="13" clip-path="url(#clipPath2)" stroke="none" xml:space="preserve">0.0040</text>
<text font-size="11" x="496" y="539" clip-path="url(#clipPath2)" stroke="none" xml:space="preserve">0.0040</text>
<line clip-path="url(#clipPath2)" fill="none" x1="522" x2="522" y1="18" y2="20"/>
<line clip-path="url(#clipPath2)" fill="none" x1="522" x2="522" y1="526" y2="524"/>
<line clip-path="url(#clipPath2)" fill="none" x1="534" x2="534" y1="18" y2="20"/>
<line clip-path="url(#clipPath2)" fill="none" x1="534" x2="534" y1="526" y2="524"/>
<line clip-path="url(#clipPath2)" fill="none" x1="546" x2="546" y1="18" y2="20"/>
<line clip-path="url(#clipPath2)" fill="none" x1="546" x2="546" y1="526" y2="524"/>
<line clip-path="url(#clipPath2)" fill="none" x1="558" x2="558" y1="18" y2="20"/>
<line clip-path="url(#clipPath2)" fill="none" x1="558" x2="558" y1="526" y2="524"/>
<line clip-path="url(#clipPath2)" fill="none" x1="570" x2="570" y1="16" y2="20"/>
<line clip-path="url(#clipPath2)" fill="none" x1="570" x2="570" y1="528" y2="524"/>
<text font-size="11" x="556" y="13" clip-path="url(#clipPath2)" stroke="none" xml:space="preserve">0.0045</text>
<text font-size="11" x="556" y="539" clip-path="url(#clipPath2)" stroke="none" xml:space="preserve">0.0045</text>
<line clip-path="url(#clipPath2)" fill="none" x1="582" x2="582" y1="18" y2="20"/>
<line clip-path="url(#clipPath2)" fill="none" x1="582" x2="582" y1="526" y2="524"/>
<line clip-path="url(#clipPath2)" fill="none" x1="594" x2="594" y1="18" y2="20"/>
<line clip-path="url(#clipPath2)" fill="none" x1="594" x2="594" y1="526" y2="524"/>
<line clip-path="url(#clipPath2)" fill="none" x1="606" x2="606" y1="18" y2="20"/>
<line clip-path="url(#clipPath2)" fill="none" x1="606" x2="606" y1="526" y2="524"/>
<line clip-path="url(#clipPath2)" fill="none" x1="618" x2="618" y1="18" y2="20"/>
<line clip-path="url(#clipPath2)" fill="none" x1="618" x2="618" y1="526" y2="524"/>
<line clip-path="url(#clipPath2)" fill="none" x1="631" x2="631" y1="16" y2="20"/>
<line clip-path="url(#clipPath2)" fill="none" x1="631" x2="631" y1="528" y2="524"/>
<text font-size="11" x="617" y="13" clip-path="url(#clipPath2)" stroke="none" xml:space="preserve">0.0050</text>
<text font-size="11" x="617" y="539" clip-path="url(#clipPath2)" stroke="none" xml:space="preserve">0.0050</text>
<line clip-path="url(#clipPath2)" fill="none" x1="643" x2="643" y1="18" y2="20"/>
<line clip-path="url(#clipPath2)" fill="none" x1="643" x2="643" y1="526" y2="524"/>
<line clip-path="url(#clipPath2)" fill="none" x1="655" x2="655" y1="18" y2="20"/>
<line clip-path="url(#clipPath2)" fill="none" x1="655" x2="655" y1="526" y2="524"/>
<line clip-path="url(#clipPath2)" fill="none" x1="667" x2="667" y1="18" y2="20"/>
<line clip-path="url(#clipPath2)" fill="none" x1="667" x2="667" y1="526" y2="524"/>
<line clip-path="url(#clipPath2)" fill="none" x1="679" x2="679" y1="18" y2="20"/>
<line clip-path="url(#clipPath2)" fill="none" x1="679" x2="679" y1="526" y2="524"/>
<line clip-path="url(#clipPath2)" fill="none" x1="24" x2="24" y1="22" y2="522"/>
<line clip-path="url(#clipPath2)" fill="none" x1="682" x2="682" y1="22" y2="522"/>
<line clip-path="url(#clipPath2)" fill="none" x1="20" x2="24" y1="522" y2="522"/>
<line clip-path="url(#clipPath2)" fill="none" x1="686" x2="682" y1="522" y2="522"/>
<text font-size="11" x="14" y="526" clip-path="url(#clipPath2)" stroke="none" xml:space="preserve">0</text>
<text font-size="11" x="689" y="526" clip-path="url(#clipPath2)" stroke="none" xml:space="preserve">0</text>
<line clip-path="url(#clipPath2)" fill="none" x1="22" x2="24" y1="507" y2="507"/>
<line clip-path="url(#clipPath2)" fill="none" x1="684" x2="682" y1="507" y2="507"/>
<line clip-path="url(#clipPath2)" fill="none" x1="22" x2="24" y1="491" y2="491"/>
<line clip-path="url(#clipPath2)" fill="none" x1="684" x2="682" y1="491" y2="491"/>
<line clip-path="url(#clipPath2)" fill="none" x1="22" x2="24" y1="476" y2="476"/>
<line clip-path="url(#clipPath2)" fill="none" x1="684" x2="682" y1="476" y2="476"/>
<line clip-path="url(#clipPath2)" fill="none" x1="22" x2="24" y1="460" y2="460"/>
<line clip-path="url(#clipPath2)" fill="none" x1="684" x2="682" y1="460" y2="460"/>
<line clip-path="url(#clipPath2)" fill="none" x1="20" x2="24" y1="444" y2="444"/>
<line clip-path="url(#clipPath2)" fill="none" x1="686" x2="682" y1="444" y2="444"/>
<text font-size="11" x="14" y="448" clip-path="url(#clipPath2)" stroke="none" xml:space="preserve">5</text>
<text font-size="11" x="689" y="448" clip-path="url(#clipPath2)" stroke="none" xml:space="preserve">5</text>
<line clip-path="url(#clipPath2)" fill="none" x1="22" x2="24" y1="429" y2="429"/>
<line clip-path="url(#clipPath2)" fill="none" x1="684" x2="682" y1="429" y2="429"/>
<line clip-path="url(#clipPath2)" fill="none" x1="22" x2="24" y1="413" y2="413"/>
<line clip-path="url(#clipPath2)" fill="none" x1="684" x2="682" y1="413" y2="413"/>
<line clip-path="url(#clipPath2)" fill="none" x1="22" x2="24" y1="397" y2="397"/>
<line clip-path="url(#clipPath2)" fill="none" x1="684" x2="682" y1="397" y2="397"/>
<line clip-path="url(#clipPath2)" fill="none" x1="22" x2="24" y1="382" y2="382"/>
<line clip-path="url(#clipPath2)" fill="none" x1="684" x2="682" y1="382" y2="382"/>
<line clip-path="url(#clipPath2)" fill="none" x1="20" x2="24" y1="366" y2="366"/>
<line clip-path="url(#clipPath2)" fill="none" x1="686" x2="682" y1="366" y2="366"/>
<text font-size="11" x="9" y="370" clip-path="url(#clipPath2)" stroke="none" xml:space="preserve">10</text>
<text font-size="11" x="689" y="370" clip-path="url(#clipPath2)" stroke="none" xml:space="preserve">10</text>
<line clip-path="url(#clipPath2)" fill="none" x1="22" x2="24" y1="351" y2="351"/>
<line clip-path="url(#clipPath2)" fill="none" x1="684" x2="682" y1="351" y2="351"/>
<line clip-path="url(#clipPath2)" fill="none" x1="22" x2="24" y1="335" y2="335"/>
<line clip-path="url(#clipPath2)" fill="none" x1="684" x2="682" y1="335" y2="335"/>
<line clip-path="url(#clipPath2)" fill="none" x1="22" x2="24" y1="319" y2="319"/>
<line clip-path="url(#clipPath2)" fill="none" x1="684" x2="682" y1="319" y2="319"/>
<line clip-path="url(#clipPath2)" fill="none" x1="22" x2="24" y1="304" y2="304"/>
<line clip-path="url(#clipPath2)" fill="none" x1="684" x2="682" y1="304" y2="304"/>
<line clip-path="url(#clipPath2)" fill="none" x1="20" x2="24" y1="288" y2="288"/>
<line clip-path="url(#clipPath2)" fill="none" x1="686" x2="682" y1="288" y2="288"/>
<text font-size="11" x="9" y="292" clip-path="url(#clipPath2)" stroke="none" xml:space="preserve">15</text>
<text font-size="11" x="689" y="292" clip-path="url(#clipPath2)" stroke="none" xml:space="preserve">15</text>
<line clip-path="url(#clipPath2)" fill="none" x1="22" x2="24" y1="272" y2="272"/>
<line clip-path="url(#clipPath2)" fill="none" x1="684" x2="682" y1="272" y2="272"/>
<line clip-path="url(#clipPath2)" fill="none" x1="22" x2="24" y1="257" y2="257"/>
<line clip-path="url(#clipPath2)" fill="none" x1="684" x2="682" y1="257" y2="257"/>
<line clip-path="url(#clipPath2)" fill="none" x1="22" x2="24" y1="241" y2="241"/>
<line clip-path="url(#clipPath2)" fill="none" x1="684" x2="682" y1="241" y2="241"/>
<line clip-path="url(#clipPath2)" fill="none" x1="22" x2="24" y1="226" y2="226"/>
<line clip-path="url(#clipPath2)" fill="none" x1="684" x2="682" y1="226" y2="226"/>
<line clip-path="url(#clipPath2)" fill="none" x1="20" x2="24" y1="210" y2="210"/>
<line clip-path="url(#clipPath2)" fill="none" x1="686" x2="682" y1="210" y2="210"/>
<text font-size="11" x="9" y="214" clip-path="url(#clipPath2)" stroke="none" xml:space="preserve">20</text>
<text font-size="11" x="689" y="214" clip-path="url(#clipPath2)" stroke="none" xml:space="preserve">20</text>
<line clip-path="url(#clipPath2)" fill="none" x1="22" x2="24" y1="194" y2="194"/>
<line clip-path="url(#clipPath2)" fill="none" x1="684" x2="682" y1="194" y2="194"/>
<line clip-path="url(#clipPath2)" fill="none" x1="22" x2="24" y1="179" y2="179"/>
<line clip-path="url(#clipPath2)" fill="none" x1="684" x2="682" y1="179" y2="179"/>
<line clip-path="url(#clipPath2)" fill="none" x1="22" x2="24" y1="163" y2="163"/>
<line clip-path="url(#clipPath2)" fill="none" x1="684" x2="682" y1="163" y2="163"/>
<line clip-path="url(#clipPath2)" fill="none" x1="22" x2="24" y1="147" y2="147"/>
<line clip-path="url(#clipPath2)" fill="none" x1="684" x2="682" y1="147" y2="147"/>
<line clip-path="url(#clipPath2)" fill="none" x1="20" x2="24" y1="132" y2="132"/>
<line clip-path="url(#clipPath2)" fill="none" x1="686" x2="682" y1="132" y2="132"/>
<text font-size="11" x="9" y="136" clip-path="url(#clipPath2)" stroke="none" xml:space="preserve">25</text>
<text font-size="11" x="689" y="136" clip-path="url(#clipPath2)" stroke="none" xml:space="preserve">25</text>
<line clip-path="url(#clipPath2)" fill="none" x1="22" x2="24" y1="116" y2="116"/>
<line clip-path="url(#clipPath2)" fill="none" x1="684" x2="682" y1="116" y2="116"/>
<line clip-path="url(#clipPath2)" fill="none" x1="22" x2="24" y1="101" y2="101"/>
<line clip-path="url(#clipPath2)" fill="none" x1="684" x2="682" y1="101" y2="101"/>
<line clip-path="url(#clipPath2)" fill="none" x1="22" x2="24" y1="85" y2="85"/>
<line clip-path="url(#clipPath2)" fill="none" x1="684" x2="682" y1="85" y2="85"/>
<line clip-path="url(#clipPath2)" fill="none" x1="22" x2="24" y1="69" y2="69"/>
<line clip-path="url(#clipPath2)" fill="none" x1="684" x2="682" y1="69" y2="69"/>
<line clip-path="url(#clipPath2)" fill="none" x1="20" x2="24" y1="54" y2="54"/>
<line clip-path="url(#clipPath2)" fill="none" x1="686" x2="682" y1="54" y2="54"/>
<text font-size="11" x="9" y="58" clip-path="url(#clipPath2)" stroke="none" xml:space="preserve">30</text>
<text font-size="11" x="689" y="58" clip-path="url(#clipPath2)" stroke="none" xml:space="preserve">30</text>
<line clip-path="url(#clipPath2)" fill="none" x1="22" x2="24" y1="38" y2="38"/>
<line clip-path="url(#clipPath2)" fill="none" x1="684" x2="682" y1="38" y2="38"/>
<line clip-path="url(#clipPath2)" fill="none" x1="22" x2="24" y1="22" y2="22"/>
<line clip-path="url(#clipPath2)" fill="none" x1="684" x2="682" y1="22" y2="22"/>
</g>
</g>
</svg>
