<?xml version="1.0" encoding="UTF-8"?><svg xmlns="http://www.w3.org/2000/svg" xmlns:xlink="http://www.w3.org/1999/xlink" stroke-dasharray="none" shape-rendering="auto" font-family="'Dialog'" width="753" text-rendering="auto" fill-opacity="1" contentScriptType="text/ecmascript" color-interpolation="auto" color-rendering="auto" preserveAspectRatio="xMidYMid meet" font-size="12" fill="black" stroke="black" image-rendering="auto" stroke-miterlimit="10" zoomAndPan="magnify" version="1.0" stroke-linecap="square" stroke-linejoin="miter" contentStyleType="text/css" font-style="normal" height="537" stroke-width="1" stroke-dashoffset="0" font-weight="normal" stroke-opacity="1">
<!--Generated by the Batik Graphics2D SVG Generator-->
<defs id="genericDefs"/>
<g>
<defs id="defs1">
<clipPath clipPathUnits="userSpaceOnUse" id="clipPath1">
<path d="M24 21 L729 21 L729 484 L24 484 L24 21 Z"/>
</clipPath>
<clipPath clipPathUnits="userSpaceOnUse" id="clipPath2">
<path d="M-1 -1 L754 -1 L754 538 L-1 538 L-1 -1 Z"/>
</clipPath>
<clipPath clipPathUnits="userSpaceOnUse" id="clipPath3">
<path d="M247 509 L506 509 L506 534 L247 534 L247 509 Z"/>
</clipPath>
</defs>
<g font-size="15" fill="white" text-rendering="geometricPrecision" font-family="'Cantarell'" stroke-linejoin="round" stroke="white" stroke-width="0" stroke-miterlimit="0">
<rect x="25" y="22" clip-path="url(#clipPath1)" width="703" height="461" stroke="none"/>
</g>
<g font-size="15" stroke-linecap="butt" fill="rgb(204,204,204)" text-rendering="geometricPrecision" font-family="'Cantarell'" stroke-dasharray="3,3" stroke="rgb(204,204,204)">
<line clip-path="url(#clipPath1)" fill="none" x1="25" x2="728" y1="483" y2="483"/>
<line clip-path="url(#clipPath1)" fill="none" x1="25" x2="728" y1="425" y2="425"/>
<line clip-path="url(#clipPath1)" fill="none" x1="25" x2="728" y1="367" y2="367"/>
<line clip-path="url(#clipPath1)" fill="none" x1="25" x2="728" y1="310" y2="310"/>
<line clip-path="url(#clipPath1)" fill="none" x1="25" x2="728" y1="252" y2="252"/>
<line clip-path="url(#clipPath1)" fill="none" x1="25" x2="728" y1="194" y2="194"/>
<line clip-path="url(#clipPath1)" fill="none" x1="25" x2="728" y1="137" y2="137"/>
<line clip-path="url(#clipPath1)" fill="none" x1="25" x2="728" y1="79" y2="79"/>
<line clip-path="url(#clipPath1)" fill="none" x1="-992" x2="-982" y1="483" y2="483" stroke-dasharray="none" stroke="black"/>
<line clip-path="url(#clipPath1)" fill="none" x1="-982" x2="-972" y1="483" y2="483" stroke-dasharray="none" stroke="black"/>
<line clip-path="url(#clipPath1)" fill="none" x1="-972" x2="-962" y1="483" y2="483" stroke-dasharray="none" stroke="black"/>
<line clip-path="url(#clipPath1)" fill="none" x1="-962" x2="-952" y1="483" y2="483" stroke-dasharray="none" stroke="black"/>
<line clip-path="url(#clipPath1)" fill="none" x1="-952" x2="-942" y1="483" y2="483" stroke-dasharray="none" stroke="black"/>
<line clip-path="url(#clipPath1)" fill="none" x1="-942" x2="-932" y1="483" y2="483" stroke-dasharray="none" stroke="black"/>
<line clip-path="url(#clipPath1)" fill="none" x1="-932" x2="-922" y1="483" y2="483" stroke-dasharray="none" stroke="black"/>
<line clip-path="url(#clipPath1)" fill="none" x1="-922" x2="-912" y1="483" y2="483" stroke-dasharray="none" stroke="black"/>
<line clip-path="url(#clipPath1)" fill="none" x1="-912" x2="-902" y1="483" y2="483" stroke-dasharray="none" stroke="black"/>
<line clip-path="url(#clipPath1)" fill="none" x1="-902" x2="-892" y1="483" y2="483" stroke-dasharray="none" stroke="black"/>
<line clip-path="url(#clipPath1)" fill="none" x1="-892" x2="-882" y1="483" y2="483" stroke-dasharray="none" stroke="black"/>
<line clip-path="url(#clipPath1)" fill="none" x1="-882" x2="-873" y1="483" y2="483" stroke-dasharray="none" stroke="black"/>
<line clip-path="url(#clipPath1)" fill="none" x1="-873" x2="-863" y1="483" y2="483" stroke-dasharray="none" stroke="black"/>
<line clip-path="url(#clipPath1)" fill="none" x1="-863" x2="-853" y1="483" y2="483" stroke-dasharray="none" stroke="black"/>
<line clip-path="url(#clipPath1)" fill="none" x1="-853" x2="-843" y1="483" y2="483" stroke-dasharray="none" stroke="black"/>
<line clip-path="url(#clipPath1)" fill="none" x1="-843" x2="-833" y1="483" y2="483" stroke-dasharray="none" stroke="black"/>
<line clip-path="url(#clipPath1)" fill="none" x1="-833" x2="-823" y1="483" y2="483" stroke-dasharray="none" stroke="black"/>
<line clip-path="url(#clipPath1)" fill="none" x1="-823" x2="-813" y1="483" y2="483" stroke-dasharray="none" stroke="black"/>
<line clip-path="url(#clipPath1)" fill="none" x1="-813" x2="-803" y1="483" y2="483" stroke-dasharray="none" stroke="black"/>
<line clip-path="url(#clipPath1)" fill="none" x1="-803" x2="-793" y1="483" y2="483" stroke-dasharray="none" stroke="black"/>
<line clip-path="url(#clipPath1)" fill="none" x1="-793" x2="-783" y1="483" y2="483" stroke-dasharray="none" stroke="black"/>
<line clip-path="url(#clipPath1)" fill="none" x1="-783" x2="-773" y1="483" y2="483" stroke-dasharray="none" stroke="black"/>
<line clip-path="url(#clipPath1)" fill="none" x1="-773" x2="-764" y1="483" y2="483" stroke-dasharray="none" stroke="black"/>
<line clip-path="url(#clipPath1)" fill="none" x1="-764" x2="-754" y1="483" y2="483" stroke-dasharray="none" stroke="black"/>
<line clip-path="url(#clipPath1)" fill="none" x1="-754" x2="-744" y1="483" y2="483" stroke-dasharray="none" stroke="black"/>
<line clip-path="url(#clipPath1)" fill="none" x1="-744" x2="-734" y1="483" y2="483" stroke-dasharray="none" stroke="black"/>
<line clip-path="url(#clipPath1)" fill="none" x1="-734" x2="-724" y1="483" y2="483" stroke-dasharray="none" stroke="black"/>
<line clip-path="url(#clipPath1)" fill="none" x1="-724" x2="-714" y1="483" y2="483" stroke-dasharray="none" stroke="black"/>
<line clip-path="url(#clipPath1)" fill="none" x1="-714" x2="-704" y1="483" y2="483" stroke-dasharray="none" stroke="black"/>
<line clip-path="url(#clipPath1)" fill="none" x1="-704" x2="-694" y1="483" y2="483" stroke-dasharray="none" stroke="black"/>
<line clip-path="url(#clipPath1)" fill="none" x1="-694" x2="-684" y1="483" y2="483" stroke-dasharray="none" stroke="black"/>
<line clip-path="url(#clipPath1)" fill="none" x1="-684" x2="-674" y1="483" y2="483" stroke-dasharray="none" stroke="black"/>
<line clip-path="url(#clipPath1)" fill="none" x1="-674" x2="-664" y1="483" y2="483" stroke-dasharray="none" stroke="black"/>
<line clip-path="url(#clipPath1)" fill="none" x1="-664" x2="-655" y1="483" y2="483" stroke-dasharray="none" stroke="black"/>
<line clip-path="url(#clipPath1)" fill="none" x1="-655" x2="-645" y1="483" y2="483" stroke-dasharray="none" stroke="black"/>
<line clip-path="url(#clipPath1)" fill="none" x1="-645" x2="-635" y1="483" y2="483" stroke-dasharray="none" stroke="black"/>
<line clip-path="url(#clipPath1)" fill="none" x1="-635" x2="-625" y1="483" y2="483" stroke-dasharray="none" stroke="black"/>
<line clip-path="url(#clipPath1)" fill="none" x1="-625" x2="-615" y1="483" y2="483" stroke-dasharray="none" stroke="black"/>
<line clip-path="url(#clipPath1)" fill="none" x1="-615" x2="-605" y1="483" y2="483" stroke-dasharray="none" stroke="black"/>
<line clip-path="url(#clipPath1)" fill="none" x1="-605" x2="-595" y1="483" y2="483" stroke-dasharray="none" stroke="black"/>
<line clip-path="url(#clipPath1)" fill="none" x1="-595" x2="-585" y1="483" y2="483" stroke-dasharray="none" stroke="black"/>
<line clip-path="url(#clipPath1)" fill="none" x1="-585" x2="-575" y1="483" y2="483" stroke-dasharray="none" stroke="black"/>
<line clip-path="url(#clipPath1)" fill="none" x1="-575" x2="-565" y1="483" y2="483" stroke-dasharray="none" stroke="black"/>
<line clip-path="url(#clipPath1)" fill="none" x1="-565" x2="-555" y1="483" y2="483" stroke-dasharray="none" stroke="black"/>
<line clip-path="url(#clipPath1)" fill="none" x1="-555" x2="-546" y1="483" y2="483" stroke-dasharray="none" stroke="black"/>
<line clip-path="url(#clipPath1)" fill="none" x1="-546" x2="-536" y1="483" y2="483" stroke-dasharray="none" stroke="black"/>
<line clip-path="url(#clipPath1)" fill="none" x1="-536" x2="-526" y1="483" y2="483" stroke-dasharray="none" stroke="black"/>
<line clip-path="url(#clipPath1)" fill="none" x1="-526" x2="-516" y1="483" y2="483" stroke-dasharray="none" stroke="black"/>
<line clip-path="url(#clipPath1)" fill="none" x1="-516" x2="-506" y1="483" y2="483" stroke-dasharray="none" stroke="black"/>
<line clip-path="url(#clipPath1)" fill="none" x1="-506" x2="-496" y1="483" y2="483" stroke-dasharray="none" stroke="black"/>
<line clip-path="url(#clipPath1)" fill="none" x1="-496" x2="-486" y1="483" y2="483" stroke-dasharray="none" stroke="black"/>
<line clip-path="url(#clipPath1)" fill="none" x1="-486" x2="-476" y1="483" y2="483" stroke-dasharray="none" stroke="black"/>
<line clip-path="url(#clipPath1)" fill="none" x1="-476" x2="-466" y1="483" y2="483" stroke-dasharray="none" stroke="black"/>
<line clip-path="url(#clipPath1)" fill="none" x1="-466" x2="-456" y1="483" y2="483" stroke-dasharray="none" stroke="black"/>
<line clip-path="url(#clipPath1)" fill="none" x1="-456" x2="-446" y1="483" y2="483" stroke-dasharray="none" stroke="black"/>
<line clip-path="url(#clipPath1)" fill="none" x1="-446" x2="-437" y1="483" y2="483" stroke-dasharray="none" stroke="black"/>
<line clip-path="url(#clipPath1)" fill="none" x1="-437" x2="-427" y1="483" y2="483" stroke-dasharray="none" stroke="black"/>
<line clip-path="url(#clipPath1)" fill="none" x1="-427" x2="-417" y1="483" y2="483" stroke-dasharray="none" stroke="black"/>
<line clip-path="url(#clipPath1)" fill="none" x1="-417" x2="-407" y1="483" y2="483" stroke-dasharray="none" stroke="black"/>
<line clip-path="url(#clipPath1)" fill="none" x1="-407" x2="-397" y1="483" y2="483" stroke-dasharray="none" stroke="black"/>
<line clip-path="url(#clipPath1)" fill="none" x1="-397" x2="-387" y1="483" y2="483" stroke-dasharray="none" stroke="black"/>
<line clip-path="url(#clipPath1)" fill="none" x1="-387" x2="-377" y1="483" y2="483" stroke-dasharray="none" stroke="black"/>
<line clip-path="url(#clipPath1)" fill="none" x1="-377" x2="-367" y1="483" y2="483" stroke-dasharray="none" stroke="black"/>
<line clip-path="url(#clipPath1)" fill="none" x1="-367" x2="-357" y1="483" y2="483" stroke-dasharray="none" stroke="black"/>
<line clip-path="url(#clipPath1)" fill="none" x1="-357" x2="-347" y1="483" y2="483" stroke-dasharray="none" stroke="black"/>
<line clip-path="url(#clipPath1)" fill="none" x1="-347" x2="-337" y1="483" y2="483" stroke-dasharray="none" stroke="black"/>
<line clip-path="url(#clipPath1)" fill="none" x1="-337" x2="-328" y1="483" y2="483" stroke-dasharray="none" stroke="black"/>
<line clip-path="url(#clipPath1)" fill="none" x1="-328" x2="-318" y1="483" y2="483" stroke-dasharray="none" stroke="black"/>
<line clip-path="url(#clipPath1)" fill="none" x1="-318" x2="-308" y1="483" y2="483" stroke-dasharray="none" stroke="black"/>
<line clip-path="url(#clipPath1)" fill="none" x1="-308" x2="-298" y1="483" y2="483" stroke-dasharray="none" stroke="black"/>
<line clip-path="url(#clipPath1)" fill="none" x1="-298" x2="-288" y1="483" y2="483" stroke-dasharray="none" stroke="black"/>
<line clip-path="url(#clipPath1)" fill="none" x1="-288" x2="-278" y1="483" y2="483" stroke-dasharray="none" stroke="black"/>
<line clip-path="url(#clipPath1)" fill="none" x1="-278" x2="-268" y1="483" y2="483" stroke-dasharray="none" stroke="black"/>
<line clip-path="url(#clipPath1)" fill="none" x1="-268" x2="-258" y1="483" y2="483" stroke-dasharray="none" stroke="black"/>
<line clip-path="url(#clipPath1)" fill="none" x1="-258" x2="-248" y1="483" y2="483" stroke-dasharray="none" stroke="black"/>
<line clip-path="url(#clipPath1)" fill="none" x1="-248" x2="-238" y1="483" y2="483" stroke-dasharray="none" stroke="black"/>
<line clip-path="url(#clipPath1)" fill="none" x1="-238" x2="-228" y1="483" y2="483" stroke-dasharray="none" stroke="black"/>
<line clip-path="url(#clipPath1)" fill="none" x1="-228" x2="-219" y1="483" y2="483" stroke-dasharray="none" stroke="black"/>
<line clip-path="url(#clipPath1)" fill="none" x1="-219" x2="-209" y1="483" y2="483" stroke-dasharray="none" stroke="black"/>
<line clip-path="url(#clipPath1)" fill="none" x1="-209" x2="-199" y1="483" y2="483" stroke-dasharray="none" stroke="black"/>
<line clip-path="url(#clipPath1)" fill="none" x1="-199" x2="-189" y1="483" y2="483" stroke-dasharray="none" stroke="black"/>
<line clip-path="url(#clipPath1)" fill="none" x1="-189" x2="-179" y1="483" y2="483" stroke-dasharray="none" stroke="black"/>
<line clip-path="url(#clipPath1)" fill="none" x1="-179" x2="-169" y1="483" y2="483" stroke-dasharray="none" stroke="black"/>
<line clip-path="url(#clipPath1)" fill="none" x1="-169" x2="-159" y1="483" y2="483" stroke-dasharray="none" stroke="black"/>
<line clip-path="url(#clipPath1)" fill="none" x1="-159" x2="-149" y1="483" y2="483" stroke-dasharray="none" stroke="black"/>
<line clip-path="url(#clipPath1)" fill="none" x1="-149" x2="-139" y1="483" y2="483" stroke-dasharray="none" stroke="black"/>
<line clip-path="url(#clipPath1)" fill="none" x1="-139" x2="-129" y1="483" y2="483" stroke-dasharray="none" stroke="black"/>
<line clip-path="url(#clipPath1)" fill="none" x1="-129" x2="-119" y1="483" y2="483" stroke-dasharray="none" stroke="black"/>
<line clip-path="url(#clipPath1)" fill="none" x1="-119" x2="-110" y1="483" y2="483" stroke-dasharray="none" stroke="black"/>
<line clip-path="url(#clipPath1)" fill="none" x1="-110" x2="-100" y1="483" y2="483" stroke-dasharray="none" stroke="black"/>
<line clip-path="url(#clipPath1)" fill="none" x1="-100" x2="-90" y1="483" y2="483" stroke-dasharray="none" stroke="black"/>
<line clip-path="url(#clipPath1)" fill="none" x1="-90" x2="-80" y1="483" y2="483" stroke-dasharray="none" stroke="black"/>
<line clip-path="url(#clipPath1)" fill="none" x1="-80" x2="-70" y1="483" y2="483" stroke-dasharray="none" stroke="black"/>
<line clip-path="url(#clipPath1)" fill="none" x1="-70" x2="-60" y1="483" y2="483" stroke-dasharray="none" stroke="black"/>
<line clip-path="url(#clipPath1)" fill="none" x1="-60" x2="-50" y1="483" y2="483" stroke-dasharray="none" stroke="black"/>
<line clip-path="url(#clipPath1)" fill="none" x1="-50" x2="-40" y1="483" y2="483" stroke-dasharray="none" stroke="black"/>
<line clip-path="url(#clipPath1)" fill="none" x1="-40" x2="-30" y1="483" y2="483" stroke-dasharray="none" stroke="black"/>
<line clip-path="url(#clipPath1)" fill="none" x1="-30" x2="-20" y1="483" y2="483" stroke-dasharray="none" stroke="black"/>
<line clip-path="url(#clipPath1)" fill="none" x1="-20" x2="-10" y1="483" y2="483" stroke-dasharray="none" stroke="black"/>
<line clip-path="url(#clipPath1)" fill="none" x1="-10" x2="-1" y1="483" y2="483" stroke-dasharray="none" stroke="black"/>
<line clip-path="url(#clipPath1)" fill="none" x1="-1" x2="8" y1="483" y2="483" stroke-dasharray="none" stroke="black"/>
<line clip-path="url(#clipPath1)" fill="none" x1="8" x2="18" y1="483" y2="483" stroke-dasharray="none" stroke="black"/>
<line clip-path="url(#clipPath1)" fill="none" x1="18" x2="28" y1="483" y2="483" stroke-dasharray="none" stroke="black"/>
<line clip-path="url(#clipPath1)" fill="none" x1="28" x2="38" y1="483" y2="483" stroke-dasharray="none" stroke="black"/>
<line clip-path="url(#clipPath1)" fill="none" x1="38" x2="48" y1="483" y2="483" stroke-dasharray="none" stroke="black"/>
<line clip-path="url(#clipPath1)" fill="none" x1="48" x2="58" y1="483" y2="483" stroke-dasharray="none" stroke="black"/>
<line clip-path="url(#clipPath1)" fill="none" x1="58" x2="68" y1="483" y2="483" stroke-dasharray="none" stroke="black"/>
<line clip-path="url(#clipPath1)" fill="none" x1="68" x2="78" y1="483" y2="483" stroke-dasharray="none" stroke="black"/>
<line clip-path="url(#clipPath1)" fill="none" x1="78" x2="88" y1="483" y2="483" stroke-dasharray="none" stroke="black"/>
<line clip-path="url(#clipPath1)" fill="none" x1="88" x2="98" y1="483" y2="483" stroke-dasharray="none" stroke="black"/>
<line clip-path="url(#clipPath1)" fill="none" x1="98" x2="107" y1="483" y2="483" stroke-dasharray="none" stroke="black"/>
<line clip-path="url(#clipPath1)" fill="none" x1="107" x2="117" y1="483" y2="483" stroke-dasharray="none" stroke="black"/>
<line clip-path="url(#clipPath1)" fill="none" x1="117" x2="127" y1="483" y2="483" stroke-dasharray="none" stroke="black"/>
<line clip-path="url(#clipPath1)" fill="none" x1="127" x2="137" y1="483" y2="483" stroke-dasharray="none" stroke="black"/>
<line clip-path="url(#clipPath1)" fill="none" x1="137" x2="147" y1="483" y2="483" stroke-dasharray="none" stroke="black"/>
<line clip-path="url(#clipPath1)" fill="none" x1="147" x2="157" y1="483" y2="483" stroke-dasharray="none" stroke="black"/>
<line clip-path="url(#clipPath1)" fill="none" x1="157" x2="167" y1="483" y2="483" stroke-dasharray="none" stroke="black"/>
<line clip-path="url(#clipPath1)" fill="none" x1="167" x2="177" y1="483" y2="483" stroke-dasharray="none" stroke="black"/>
<line clip-path="url(#clipPath1)" fill="none" x1="177" x2="187" y1="483" y2="483" stroke-dasharray="none" stroke="black"/>
<line clip-path="url(#clipPath1)" fill="none" x1="187" x2="197" y1="483" y2="483" stroke-dasharray="none" stroke="black"/>
<rect x="197" y="137" clip-path="url(#clipPath1)" fill="rgb(0,0,139)" width="10" stroke-dasharray="none" height="346" stroke="none"/>
<rect x="197" y="137" clip-path="url(#clipPath1)" fill="none" width="10" stroke-dasharray="none" height="346" stroke="black"/>
<rect x="207" y="194" clip-path="url(#clipPath1)" fill="rgb(0,0,139)" width="9" stroke-dasharray="none" height="289" stroke="none"/>
<rect x="207" y="194" clip-path="url(#clipPath1)" fill="none" width="9" stroke-dasharray="none" height="289" stroke="black"/>
<rect x="216" y="310" clip-path="url(#clipPath1)" fill="rgb(0,0,139)" width="10" stroke-dasharray="none" height="173" stroke="none"/>
<rect x="216" y="310" clip-path="url(#clipPath1)" fill="none" width="10" stroke-dasharray="none" height="173" stroke="black"/>
<line clip-path="url(#clipPath1)" fill="none" x1="226" x2="236" y1="483" y2="483" stroke-dasharray="none" stroke="black"/>
<rect x="236" y="425" clip-path="url(#clipPath1)" fill="rgb(0,0,139)" width="10" stroke-dasharray="none" height="58" stroke="none"/>
<rect x="236" y="425" clip-path="url(#clipPath1)" fill="none" width="10" stroke-dasharray="none" height="58" stroke="black"/>
<rect x="246" y="425" clip-path="url(#clipPath1)" fill="rgb(0,0,139)" width="10" stroke-dasharray="none" height="58" stroke="none"/>
<rect x="246" y="425" clip-path="url(#clipPath1)" fill="none" width="10" stroke-dasharray="none" height="58" stroke="black"/>
<rect x="256" y="425" clip-path="url(#clipPath1)" fill="rgb(0,0,139)" width="10" stroke-dasharray="none" height="58" stroke="none"/>
<rect x="256" y="425" clip-path="url(#clipPath1)" fill="none" width="10" stroke-dasharray="none" height="58" stroke="black"/>
<rect x="266" y="367" clip-path="url(#clipPath1)" fill="rgb(0,0,139)" width="10" stroke-dasharray="none" height="116" stroke="none"/>
<rect x="266" y="367" clip-path="url(#clipPath1)" fill="none" width="10" stroke-dasharray="none" height="116" stroke="black"/>
<rect x="276" y="367" clip-path="url(#clipPath1)" fill="rgb(0,0,139)" width="10" stroke-dasharray="none" height="116" stroke="none"/>
<rect x="276" y="367" clip-path="url(#clipPath1)" fill="none" width="10" stroke-dasharray="none" height="116" stroke="black"/>
<rect x="286" y="367" clip-path="url(#clipPath1)" fill="rgb(0,0,139)" width="10" stroke-dasharray="none" height="116" stroke="none"/>
<rect x="286" y="367" clip-path="url(#clipPath1)" fill="none" width="10" stroke-dasharray="none" height="116" stroke="black"/>
<rect x="296" y="425" clip-path="url(#clipPath1)" fill="rgb(0,0,139)" width="10" stroke-dasharray="none" height="58" stroke="none"/>
<rect x="296" y="425" clip-path="url(#clipPath1)" fill="none" width="10" stroke-dasharray="none" height="58" stroke="black"/>
<rect x="306" y="310" clip-path="url(#clipPath1)" fill="rgb(0,0,139)" width="10" stroke-dasharray="none" height="173" stroke="none"/>
<rect x="306" y="310" clip-path="url(#clipPath1)" fill="none" width="10" stroke-dasharray="none" height="173" stroke="black"/>
<rect x="316" y="252" clip-path="url(#clipPath1)" fill="rgb(0,0,139)" width="9" stroke-dasharray="none" height="231" stroke="none"/>
<rect x="316" y="252" clip-path="url(#clipPath1)" fill="none" width="9" stroke-dasharray="none" height="231" stroke="black"/>
<rect x="325" y="137" clip-path="url(#clipPath1)" fill="rgb(0,0,139)" width="10" stroke-dasharray="none" height="346" stroke="none"/>
<rect x="325" y="137" clip-path="url(#clipPath1)" fill="none" width="10" stroke-dasharray="none" height="346" stroke="black"/>
<rect x="335" y="367" clip-path="url(#clipPath1)" fill="rgb(0,0,139)" width="10" stroke-dasharray="none" height="116" stroke="none"/>
<rect x="335" y="367" clip-path="url(#clipPath1)" fill="none" width="10" stroke-dasharray="none" height="116" stroke="black"/>
<line clip-path="url(#clipPath1)" fill="none" x1="345" x2="355" y1="483" y2="483" stroke-dasharray="none" stroke="black"/>
<rect x="355" y="425" clip-path="url(#clipPath1)" fill="rgb(0,0,139)" width="10" stroke-dasharray="none" height="58" stroke="none"/>
<rect x="355" y="425" clip-path="url(#clipPath1)" fill="none" width="10" stroke-dasharray="none" height="58" stroke="black"/>
<rect x="365" y="425" clip-path="url(#clipPath1)" fill="rgb(0,0,139)" width="10" stroke-dasharray="none" height="58" stroke="none"/>
<rect x="365" y="425" clip-path="url(#clipPath1)" fill="none" width="10" stroke-dasharray="none" height="58" stroke="black"/>
<rect x="375" y="367" clip-path="url(#clipPath1)" fill="rgb(0,0,139)" width="10" stroke-dasharray="none" height="116" stroke="none"/>
<rect x="375" y="367" clip-path="url(#clipPath1)" fill="none" width="10" stroke-dasharray="none" height="116" stroke="black"/>
<rect x="385" y="310" clip-path="url(#clipPath1)" fill="rgb(0,0,139)" width="10" stroke-dasharray="none" height="173" stroke="none"/>
<rect x="385" y="310" clip-path="url(#clipPath1)" fill="none" width="10" stroke-dasharray="none" height="173" stroke="black"/>
<rect x="395" y="425" clip-path="url(#clipPath1)" fill="rgb(0,0,139)" width="10" stroke-dasharray="none" height="58" stroke="none"/>
<rect x="395" y="425" clip-path="url(#clipPath1)" fill="none" width="10" stroke-dasharray="none" height="58" stroke="black"/>
<rect x="405" y="425" clip-path="url(#clipPath1)" fill="rgb(0,0,139)" width="10" stroke-dasharray="none" height="58" stroke="none"/>
<rect x="405" y="425" clip-path="url(#clipPath1)" fill="none" width="10" stroke-dasharray="none" height="58" stroke="black"/>
<rect x="415" y="137" clip-path="url(#clipPath1)" fill="rgb(0,0,139)" width="10" stroke-dasharray="none" height="346" stroke="none"/>
<rect x="415" y="137" clip-path="url(#clipPath1)" fill="none" width="10" stroke-dasharray="none" height="346" stroke="black"/>
<rect x="425" y="425" clip-path="url(#clipPath1)" fill="rgb(0,0,139)" width="10" stroke-dasharray="none" height="58" stroke="none"/>
<rect x="425" y="425" clip-path="url(#clipPath1)" fill="none" width="10" stroke-dasharray="none" height="58" stroke="black"/>
<rect x="435" y="194" clip-path="url(#clipPath1)" fill="rgb(0,0,139)" width="9" stroke-dasharray="none" height="289" stroke="none"/>
<rect x="435" y="194" clip-path="url(#clipPath1)" fill="none" width="9" stroke-dasharray="none" height="289" stroke="black"/>
<line clip-path="url(#clipPath1)" fill="none" x1="444" x2="454" y1="483" y2="483" stroke-dasharray="none" stroke="black"/>
<rect x="454" y="310" clip-path="url(#clipPath1)" fill="rgb(0,0,139)" width="10" stroke-dasharray="none" height="173" stroke="none"/>
<rect x="454" y="310" clip-path="url(#clipPath1)" fill="none" width="10" stroke-dasharray="none" height="173" stroke="black"/>
<line clip-path="url(#clipPath1)" fill="none" x1="464" x2="474" y1="483" y2="483" stroke-dasharray="none" stroke="black"/>
<rect x="474" y="367" clip-path="url(#clipPath1)" fill="rgb(0,0,139)" width="10" stroke-dasharray="none" height="116" stroke="none"/>
<rect x="474" y="367" clip-path="url(#clipPath1)" fill="none" width="10" stroke-dasharray="none" height="116" stroke="black"/>
<rect x="484" y="310" clip-path="url(#clipPath1)" fill="rgb(0,0,139)" width="10" stroke-dasharray="none" height="173" stroke="none"/>
<rect x="484" y="310" clip-path="url(#clipPath1)" fill="none" width="10" stroke-dasharray="none" height="173" stroke="black"/>
<rect x="494" y="310" clip-path="url(#clipPath1)" fill="rgb(0,0,139)" width="10" stroke-dasharray="none" height="173" stroke="none"/>
<rect x="494" y="310" clip-path="url(#clipPath1)" fill="none" width="10" stroke-dasharray="none" height="173" stroke="black"/>
<rect x="504" y="425" clip-path="url(#clipPath1)" fill="rgb(0,0,139)" width="10" stroke-dasharray="none" height="58" stroke="none"/>
<rect x="504" y="425" clip-path="url(#clipPath1)" fill="none" width="10" stroke-dasharray="none" height="58" stroke="black"/>
<rect x="514" y="425" clip-path="url(#clipPath1)" fill="rgb(0,0,139)" width="10" stroke-dasharray="none" height="58" stroke="none"/>
<rect x="514" y="425" clip-path="url(#clipPath1)" fill="none" width="10" stroke-dasharray="none" height="58" stroke="black"/>
<rect x="524" y="367" clip-path="url(#clipPath1)" fill="rgb(0,0,139)" width="10" stroke-dasharray="none" height="116" stroke="none"/>
<rect x="524" y="367" clip-path="url(#clipPath1)" fill="none" width="10" stroke-dasharray="none" height="116" stroke="black"/>
<line clip-path="url(#clipPath1)" fill="none" x1="534" x2="544" y1="483" y2="483" stroke-dasharray="none" stroke="black"/>
<line clip-path="url(#clipPath1)" fill="none" x1="544" x2="553" y1="483" y2="483" stroke-dasharray="none" stroke="black"/>
<line clip-path="url(#clipPath1)" fill="none" x1="553" x2="563" y1="483" y2="483" stroke-dasharray="none" stroke="black"/>
<line clip-path="url(#clipPath1)" fill="none" x1="563" x2="573" y1="483" y2="483" stroke-dasharray="none" stroke="black"/>
<line clip-path="url(#clipPath1)" fill="none" x1="573" x2="583" y1="483" y2="483" stroke-dasharray="none" stroke="black"/>
<line clip-path="url(#clipPath1)" fill="none" x1="583" x2="593" y1="483" y2="483" stroke-dasharray="none" stroke="black"/>
<line clip-path="url(#clipPath1)" fill="none" x1="593" x2="603" y1="483" y2="483" stroke-dasharray="none" stroke="black"/>
<line clip-path="url(#clipPath1)" fill="none" x1="603" x2="613" y1="483" y2="483" stroke-dasharray="none" stroke="black"/>
<line clip-path="url(#clipPath1)" fill="none" x1="613" x2="623" y1="483" y2="483" stroke-dasharray="none" stroke="black"/>
<line clip-path="url(#clipPath1)" fill="none" x1="623" x2="633" y1="483" y2="483" stroke-dasharray="none" stroke="black"/>
<line clip-path="url(#clipPath1)" fill="none" x1="633" x2="643" y1="483" y2="483" stroke-dasharray="none" stroke="black"/>
<line clip-path="url(#clipPath1)" fill="none" x1="643" x2="653" y1="483" y2="483" stroke-dasharray="none" stroke="black"/>
<line clip-path="url(#clipPath1)" fill="none" x1="653" x2="662" y1="483" y2="483" stroke-dasharray="none" stroke="black"/>
<line clip-path="url(#clipPath1)" fill="none" x1="662" x2="672" y1="483" y2="483" stroke-dasharray="none" stroke="black"/>
<line clip-path="url(#clipPath1)" fill="none" x1="672" x2="682" y1="483" y2="483" stroke-dasharray="none" stroke="black"/>
<line clip-path="url(#clipPath1)" fill="none" x1="682" x2="692" y1="483" y2="483" stroke-dasharray="none" stroke="black"/>
<line clip-path="url(#clipPath1)" fill="none" x1="692" x2="702" y1="483" y2="483" stroke-dasharray="none" stroke="black"/>
<line clip-path="url(#clipPath1)" fill="none" x1="702" x2="712" y1="483" y2="483" stroke-dasharray="none" stroke="black"/>
<line clip-path="url(#clipPath1)" fill="none" x1="712" x2="722" y1="483" y2="483" stroke-dasharray="none" stroke="black"/>
<line clip-path="url(#clipPath1)" fill="none" x1="722" x2="732" y1="483" y2="483" stroke-dasharray="none" stroke="black"/>
<line clip-path="url(#clipPath1)" fill="none" x1="732" x2="742" y1="483" y2="483" stroke-dasharray="none" stroke="black"/>
<line clip-path="url(#clipPath1)" fill="none" x1="742" x2="752" y1="483" y2="483" stroke-dasharray="none" stroke="black"/>
<line clip-path="url(#clipPath1)" fill="none" x1="752" x2="762" y1="483" y2="483" stroke-dasharray="none" stroke="black"/>
<line clip-path="url(#clipPath1)" fill="none" x1="762" x2="771" y1="483" y2="483" stroke-dasharray="none" stroke="black"/>
<line clip-path="url(#clipPath1)" fill="none" x1="771" x2="781" y1="483" y2="483" stroke-dasharray="none" stroke="black"/>
<line clip-path="url(#clipPath1)" fill="none" x1="781" x2="791" y1="483" y2="483" stroke-dasharray="none" stroke="black"/>
<line clip-path="url(#clipPath1)" fill="none" x1="791" x2="801" y1="483" y2="483" stroke-dasharray="none" stroke="black"/>
<line clip-path="url(#clipPath1)" fill="none" x1="801" x2="811" y1="483" y2="483" stroke-dasharray="none" stroke="black"/>
<line clip-path="url(#clipPath1)" fill="none" x1="811" x2="821" y1="483" y2="483" stroke-dasharray="none" stroke="black"/>
<line clip-path="url(#clipPath1)" fill="none" x1="821" x2="831" y1="483" y2="483" stroke-dasharray="none" stroke="black"/>
<line clip-path="url(#clipPath1)" fill="none" x1="831" x2="841" y1="483" y2="483" stroke-dasharray="none" stroke="black"/>
<line clip-path="url(#clipPath1)" fill="none" x1="841" x2="851" y1="483" y2="483" stroke-dasharray="none" stroke="black"/>
<line clip-path="url(#clipPath1)" fill="none" x1="851" x2="861" y1="483" y2="483" stroke-dasharray="none" stroke="black"/>
<line clip-path="url(#clipPath1)" fill="none" x1="861" x2="871" y1="483" y2="483" stroke-dasharray="none" stroke="black"/>
<line clip-path="url(#clipPath1)" fill="none" x1="871" x2="880" y1="483" y2="483" stroke-dasharray="none" stroke="black"/>
<line clip-path="url(#clipPath1)" fill="none" x1="880" x2="890" y1="483" y2="483" stroke-dasharray="none" stroke="black"/>
<line clip-path="url(#clipPath1)" fill="none" x1="890" x2="900" y1="483" y2="483" stroke-dasharray="none" stroke="black"/>
<line clip-path="url(#clipPath1)" fill="none" x1="900" x2="910" y1="483" y2="483" stroke-dasharray="none" stroke="black"/>
<line clip-path="url(#clipPath1)" fill="none" x1="910" x2="920" y1="483" y2="483" stroke-dasharray="none" stroke="black"/>
<line clip-path="url(#clipPath1)" fill="none" x1="920" x2="930" y1="483" y2="483" stroke-dasharray="none" stroke="black"/>
<line clip-path="url(#clipPath1)" fill="none" x1="930" x2="940" y1="483" y2="483" stroke-dasharray="none" stroke="black"/>
<line clip-path="url(#clipPath1)" fill="none" x1="940" x2="950" y1="483" y2="483" stroke-dasharray="none" stroke="black"/>
<line clip-path="url(#clipPath1)" fill="none" x1="950" x2="960" y1="483" y2="483" stroke-dasharray="none" stroke="black"/>
<line clip-path="url(#clipPath1)" fill="none" x1="960" x2="970" y1="483" y2="483" stroke-dasharray="none" stroke="black"/>
<line clip-path="url(#clipPath1)" fill="none" x1="970" x2="980" y1="483" y2="483" stroke-dasharray="none" stroke="black"/>
<line clip-path="url(#clipPath1)" fill="none" x1="980" x2="989" y1="483" y2="483" stroke-dasharray="none" stroke="black"/>
<rect x="25" y="22" clip-path="url(#clipPath2)" fill="none" width="703" stroke-dasharray="none" height="461" stroke="black"/>
<rect x="248" y="510" clip-path="url(#clipPath3)" fill="white" width="256" stroke-dasharray="none" height="22" stroke="none"/>
<rect x="258" y="518" clip-path="url(#clipPath3)" fill="rgb(0,0,139)" width="7" stroke-dasharray="none" height="7" stroke="none"/>
</g>
<g text-rendering="geometricPrecision" font-size="11" font-family="'Arial'" stroke-linecap="butt">
<text xml:space="preserve" x="270" y="525" clip-path="url(#clipPath3)" stroke="none">SubstationHSR.delayLogger Express Prio Delay</text>
<line clip-path="url(#clipPath2)" fill="none" x1="25" x2="728" y1="20" y2="20"/>
<line clip-path="url(#clipPath2)" fill="none" x1="25" x2="728" y1="485" y2="485"/>
<line clip-path="url(#clipPath2)" fill="none" x1="44" x2="44" y1="18" y2="20"/>
<line clip-path="url(#clipPath2)" fill="none" x1="44" x2="44" y1="487" y2="485"/>
<line clip-path="url(#clipPath2)" fill="none" x1="93" x2="93" y1="16" y2="20"/>
<line clip-path="url(#clipPath2)" fill="none" x1="93" x2="93" y1="489" y2="485"/>
<text xml:space="preserve" x="77" y="13" clip-path="url(#clipPath2)" stroke="none">0.00022</text>
<text xml:space="preserve" x="77" y="500" clip-path="url(#clipPath2)" stroke="none">0.00022</text>
<line clip-path="url(#clipPath2)" fill="none" x1="142" x2="142" y1="18" y2="20"/>
<line clip-path="url(#clipPath2)" fill="none" x1="142" x2="142" y1="487" y2="485"/>
<line clip-path="url(#clipPath2)" fill="none" x1="192" x2="192" y1="16" y2="20"/>
<line clip-path="url(#clipPath2)" fill="none" x1="192" x2="192" y1="489" y2="485"/>
<text xml:space="preserve" x="176" y="13" clip-path="url(#clipPath2)" stroke="none">0.00024</text>
<text xml:space="preserve" x="176" y="500" clip-path="url(#clipPath2)" stroke="none">0.00024</text>
<line clip-path="url(#clipPath2)" fill="none" x1="241" x2="241" y1="18" y2="20"/>
<line clip-path="url(#clipPath2)" fill="none" x1="241" x2="241" y1="487" y2="485"/>
<line clip-path="url(#clipPath2)" fill="none" x1="290" x2="290" y1="16" y2="20"/>
<line clip-path="url(#clipPath2)" fill="none" x1="290" x2="290" y1="489" y2="485"/>
<text xml:space="preserve" x="274" y="13" clip-path="url(#clipPath2)" stroke="none">0.00026</text>
<text xml:space="preserve" x="274" y="500" clip-path="url(#clipPath2)" stroke="none">0.00026</text>
<line clip-path="url(#clipPath2)" fill="none" x1="340" x2="340" y1="18" y2="20"/>
<line clip-path="url(#clipPath2)" fill="none" x1="340" x2="340" y1="487" y2="485"/>
<line clip-path="url(#clipPath2)" fill="none" x1="389" x2="389" y1="16" y2="20"/>
<line clip-path="url(#clipPath2)" fill="none" x1="389" x2="389" y1="489" y2="485"/>
<text xml:space="preserve" x="373" y="13" clip-path="url(#clipPath2)" stroke="none">0.00028</text>
<text xml:space="preserve" x="373" y="500" clip-path="url(#clipPath2)" stroke="none">0.00028</text>
<line clip-path="url(#clipPath2)" fill="none" x1="438" x2="438" y1="18" y2="20"/>
<line clip-path="url(#clipPath2)" fill="none" x1="438" x2="438" y1="487" y2="485"/>
<line clip-path="url(#clipPath2)" fill="none" x1="488" x2="488" y1="16" y2="20"/>
<line clip-path="url(#clipPath2)" fill="none" x1="488" x2="488" y1="489" y2="485"/>
<text xml:space="preserve" x="472" y="13" clip-path="url(#clipPath2)" stroke="none">0.00030</text>
<text xml:space="preserve" x="472" y="500" clip-path="url(#clipPath2)" stroke="none">0.00030</text>
<line clip-path="url(#clipPath2)" fill="none" x1="537" x2="537" y1="18" y2="20"/>
<line clip-path="url(#clipPath2)" fill="none" x1="537" x2="537" y1="487" y2="485"/>
<line clip-path="url(#clipPath2)" fill="none" x1="587" x2="587" y1="16" y2="20"/>
<line clip-path="url(#clipPath2)" fill="none" x1="587" x2="587" y1="489" y2="485"/>
<text xml:space="preserve" x="571" y="13" clip-path="url(#clipPath2)" stroke="none">0.00032</text>
<text xml:space="preserve" x="571" y="500" clip-path="url(#clipPath2)" stroke="none">0.00032</text>
<line clip-path="url(#clipPath2)" fill="none" x1="636" x2="636" y1="18" y2="20"/>
<line clip-path="url(#clipPath2)" fill="none" x1="636" x2="636" y1="487" y2="485"/>
<line clip-path="url(#clipPath2)" fill="none" x1="685" x2="685" y1="16" y2="20"/>
<line clip-path="url(#clipPath2)" fill="none" x1="685" x2="685" y1="489" y2="485"/>
<text xml:space="preserve" x="669" y="13" clip-path="url(#clipPath2)" stroke="none">0.00034</text>
<text xml:space="preserve" x="669" y="500" clip-path="url(#clipPath2)" stroke="none">0.00034</text>
<line clip-path="url(#clipPath2)" fill="none" x1="23" x2="23" y1="22" y2="483"/>
<line clip-path="url(#clipPath2)" fill="none" x1="730" x2="730" y1="22" y2="483"/>
<line clip-path="url(#clipPath2)" fill="none" x1="19" x2="23" y1="483" y2="483"/>
<line clip-path="url(#clipPath2)" fill="none" x1="734" x2="730" y1="483" y2="483"/>
<text xml:space="preserve" x="13" y="487" clip-path="url(#clipPath2)" stroke="none">0</text>
<text xml:space="preserve" x="737" y="487" clip-path="url(#clipPath2)" stroke="none">0</text>
<line clip-path="url(#clipPath2)" fill="none" x1="21" x2="23" y1="471" y2="471"/>
<line clip-path="url(#clipPath2)" fill="none" x1="732" x2="730" y1="471" y2="471"/>
<line clip-path="url(#clipPath2)" fill="none" x1="21" x2="23" y1="459" y2="459"/>
<line clip-path="url(#clipPath2)" fill="none" x1="732" x2="730" y1="459" y2="459"/>
<line clip-path="url(#clipPath2)" fill="none" x1="21" x2="23" y1="448" y2="448"/>
<line clip-path="url(#clipPath2)" fill="none" x1="732" x2="730" y1="448" y2="448"/>
<line clip-path="url(#clipPath2)" fill="none" x1="21" x2="23" y1="436" y2="436"/>
<line clip-path="url(#clipPath2)" fill="none" x1="732" x2="730" y1="436" y2="436"/>
<line clip-path="url(#clipPath2)" fill="none" x1="19" x2="23" y1="425" y2="425"/>
<line clip-path="url(#clipPath2)" fill="none" x1="734" x2="730" y1="425" y2="425"/>
<text xml:space="preserve" x="3" y="429" clip-path="url(#clipPath2)" stroke="none">1.0</text>
<text xml:space="preserve" x="737" y="429" clip-path="url(#clipPath2)" stroke="none">1.0</text>
<line clip-path="url(#clipPath2)" fill="none" x1="21" x2="23" y1="413" y2="413"/>
<line clip-path="url(#clipPath2)" fill="none" x1="732" x2="730" y1="413" y2="413"/>
<line clip-path="url(#clipPath2)" fill="none" x1="21" x2="23" y1="402" y2="402"/>
<line clip-path="url(#clipPath2)" fill="none" x1="732" x2="730" y1="402" y2="402"/>
<line clip-path="url(#clipPath2)" fill="none" x1="21" x2="23" y1="390" y2="390"/>
<line clip-path="url(#clipPath2)" fill="none" x1="732" x2="730" y1="390" y2="390"/>
<line clip-path="url(#clipPath2)" fill="none" x1="21" x2="23" y1="379" y2="379"/>
<line clip-path="url(#clipPath2)" fill="none" x1="732" x2="730" y1="379" y2="379"/>
<line clip-path="url(#clipPath2)" fill="none" x1="19" x2="23" y1="367" y2="367"/>
<line clip-path="url(#clipPath2)" fill="none" x1="734" x2="730" y1="367" y2="367"/>
<text xml:space="preserve" x="3" y="371" clip-path="url(#clipPath2)" stroke="none">2.0</text>
<text xml:space="preserve" x="737" y="371" clip-path="url(#clipPath2)" stroke="none">2.0</text>
<line clip-path="url(#clipPath2)" fill="none" x1="21" x2="23" y1="356" y2="356"/>
<line clip-path="url(#clipPath2)" fill="none" x1="732" x2="730" y1="356" y2="356"/>
<line clip-path="url(#clipPath2)" fill="none" x1="21" x2="23" y1="344" y2="344"/>
<line clip-path="url(#clipPath2)" fill="none" x1="732" x2="730" y1="344" y2="344"/>
<line clip-path="url(#clipPath2)" fill="none" x1="21" x2="23" y1="333" y2="333"/>
<line clip-path="url(#clipPath2)" fill="none" x1="732" x2="730" y1="333" y2="333"/>
<line clip-path="url(#clipPath2)" fill="none" x1="21" x2="23" y1="321" y2="321"/>
<line clip-path="url(#clipPath2)" fill="none" x1="732" x2="730" y1="321" y2="321"/>
<line clip-path="url(#clipPath2)" fill="none" x1="19" x2="23" y1="310" y2="310"/>
<line clip-path="url(#clipPath2)" fill="none" x1="734" x2="730" y1="310" y2="310"/>
<text xml:space="preserve" x="3" y="314" clip-path="url(#clipPath2)" stroke="none">3.0</text>
<text xml:space="preserve" x="737" y="314" clip-path="url(#clipPath2)" stroke="none">3.0</text>
<line clip-path="url(#clipPath2)" fill="none" x1="21" x2="23" y1="298" y2="298"/>
<line clip-path="url(#clipPath2)" fill="none" x1="732" x2="730" y1="298" y2="298"/>
<line clip-path="url(#clipPath2)" fill="none" x1="21" x2="23" y1="287" y2="287"/>
<line clip-path="url(#clipPath2)" fill="none" x1="732" x2="730" y1="287" y2="287"/>
<line clip-path="url(#clipPath2)" fill="none" x1="21" x2="23" y1="275" y2="275"/>
<line clip-path="url(#clipPath2)" fill="none" x1="732" x2="730" y1="275" y2="275"/>
<line clip-path="url(#clipPath2)" fill="none" x1="21" x2="23" y1="264" y2="264"/>
<line clip-path="url(#clipPath2)" fill="none" x1="732" x2="730" y1="264" y2="264"/>
<line clip-path="url(#clipPath2)" fill="none" x1="19" x2="23" y1="252" y2="252"/>
<line clip-path="url(#clipPath2)" fill="none" x1="734" x2="730" y1="252" y2="252"/>
<text xml:space="preserve" x="3" y="256" clip-path="url(#clipPath2)" stroke="none">4.0</text>
<text xml:space="preserve" x="737" y="256" clip-path="url(#clipPath2)" stroke="none">4.0</text>
<line clip-path="url(#clipPath2)" fill="none" x1="21" x2="23" y1="240" y2="240"/>
<line clip-path="url(#clipPath2)" fill="none" x1="732" x2="730" y1="240" y2="240"/>
<line clip-path="url(#clipPath2)" fill="none" x1="21" x2="23" y1="229" y2="229"/>
<line clip-path="url(#clipPath2)" fill="none" x1="732" x2="730" y1="229" y2="229"/>
<line clip-path="url(#clipPath2)" fill="none" x1="21" x2="23" y1="217" y2="217"/>
<line clip-path="url(#clipPath2)" fill="none" x1="732" x2="730" y1="217" y2="217"/>
<line clip-path="url(#clipPath2)" fill="none" x1="21" x2="23" y1="206" y2="206"/>
<line clip-path="url(#clipPath2)" fill="none" x1="732" x2="730" y1="206" y2="206"/>
<line clip-path="url(#clipPath2)" fill="none" x1="19" x2="23" y1="194" y2="194"/>
<line clip-path="url(#clipPath2)" fill="none" x1="734" x2="730" y1="194" y2="194"/>
<text xml:space="preserve" x="3" y="198" clip-path="url(#clipPath2)" stroke="none">5.0</text>
<text xml:space="preserve" x="737" y="198" clip-path="url(#clipPath2)" stroke="none">5.0</text>
<line clip-path="url(#clipPath2)" fill="none" x1="21" x2="23" y1="183" y2="183"/>
<line clip-path="url(#clipPath2)" fill="none" x1="732" x2="730" y1="183" y2="183"/>
<line clip-path="url(#clipPath2)" fill="none" x1="21" x2="23" y1="171" y2="171"/>
<line clip-path="url(#clipPath2)" fill="none" x1="732" x2="730" y1="171" y2="171"/>
<line clip-path="url(#clipPath2)" fill="none" x1="21" x2="23" y1="160" y2="160"/>
<line clip-path="url(#clipPath2)" fill="none" x1="732" x2="730" y1="160" y2="160"/>
<line clip-path="url(#clipPath2)" fill="none" x1="21" x2="23" y1="148" y2="148"/>
<line clip-path="url(#clipPath2)" fill="none" x1="732" x2="730" y1="148" y2="148"/>
<line clip-path="url(#clipPath2)" fill="none" x1="19" x2="23" y1="137" y2="137"/>
<line clip-path="url(#clipPath2)" fill="none" x1="734" x2="730" y1="137" y2="137"/>
<text xml:space="preserve" x="3" y="141" clip-path="url(#clipPath2)" stroke="none">6.0</text>
<text xml:space="preserve" x="737" y="141" clip-path="url(#clipPath2)" stroke="none">6.0</text>
<line clip-path="url(#clipPath2)" fill="none" x1="21" x2="23" y1="125" y2="125"/>
<line clip-path="url(#clipPath2)" fill="none" x1="732" x2="730" y1="125" y2="125"/>
<line clip-path="url(#clipPath2)" fill="none" x1="21" x2="23" y1="114" y2="114"/>
<line clip-path="url(#clipPath2)" fill="none" x1="732" x2="730" y1="114" y2="114"/>
<line clip-path="url(#clipPath2)" fill="none" x1="21" x2="23" y1="102" y2="102"/>
<line clip-path="url(#clipPath2)" fill="none" x1="732" x2="730" y1="102" y2="102"/>
<line clip-path="url(#clipPath2)" fill="none" x1="21" x2="23" y1="91" y2="91"/>
<line clip-path="url(#clipPath2)" fill="none" x1="732" x2="730" y1="91" y2="91"/>
<line clip-path="url(#clipPath2)" fill="none" x1="19" x2="23" y1="79" y2="79"/>
<line clip-path="url(#clipPath2)" fill="none" x1="734" x2="730" y1="79" y2="79"/>
<text xml:space="preserve" x="3" y="83" clip-path="url(#clipPath2)" stroke="none">7.0</text>
<text xml:space="preserve" x="737" y="83" clip-path="url(#clipPath2)" stroke="none">7.0</text>
<line clip-path="url(#clipPath2)" fill="none" x1="21" x2="23" y1="68" y2="68"/>
<line clip-path="url(#clipPath2)" fill="none" x1="732" x2="730" y1="68" y2="68"/>
<line clip-path="url(#clipPath2)" fill="none" x1="21" x2="23" y1="56" y2="56"/>
<line clip-path="url(#clipPath2)" fill="none" x1="732" x2="730" y1="56" y2="56"/>
<line clip-path="url(#clipPath2)" fill="none" x1="21" x2="23" y1="45" y2="45"/>
<line clip-path="url(#clipPath2)" fill="none" x1="732" x2="730" y1="45" y2="45"/>
<line clip-path="url(#clipPath2)" fill="none" x1="21" x2="23" y1="33" y2="33"/>
<line clip-path="url(#clipPath2)" fill="none" x1="732" x2="730" y1="33" y2="33"/>
</g>
</g>
</svg>
