<?xml version="1.0" encoding="UTF-8"?><svg xmlns="http://www.w3.org/2000/svg" xmlns:xlink="http://www.w3.org/1999/xlink" stroke-dasharray="none" shape-rendering="auto" font-family="'Dialog'" width="585" text-rendering="auto" fill-opacity="1" contentScriptType="text/ecmascript" color-interpolation="auto" color-rendering="auto" preserveAspectRatio="xMidYMid meet" font-size="12" fill="black" stroke="black" image-rendering="auto" stroke-miterlimit="10" zoomAndPan="magnify" version="1.0" stroke-linecap="square" stroke-linejoin="miter" contentStyleType="text/css" font-style="normal" height="465" stroke-width="1" stroke-dashoffset="0" font-weight="normal" stroke-opacity="1">
<!--Generated by the Batik Graphics2D SVG Generator-->
<defs id="genericDefs"/>
<g>
<defs id="defs1">
<clipPath clipPathUnits="userSpaceOnUse" id="clipPath1">
<path d="M27 22 L558 22 L558 443 L27 443 L27 22 Z"/>
</clipPath>
<clipPath clipPathUnits="userSpaceOnUse" id="clipPath2">
<path d="M-1 -1 L586 -1 L586 466 L-1 466 L-1 -1 Z"/>
</clipPath>
</defs>
<g font-size="15" fill="white" text-rendering="geometricPrecision" font-family="'Cantarell'" stroke-linejoin="round" stroke="white" stroke-width="0" stroke-miterlimit="0">
<rect x="28" y="23" clip-path="url(#clipPath1)" width="529" height="419" stroke="none"/>
</g>
<g stroke-linecap="butt" font-size="15" fill="rgb(204,204,204)" text-rendering="geometricPrecision" font-family="'Cantarell'" stroke-dasharray="3,3" stroke="rgb(204,204,204)">
<line clip-path="url(#clipPath1)" fill="none" x1="28" x2="557" y1="442" y2="442"/>
<line clip-path="url(#clipPath1)" fill="none" x1="28" x2="557" y1="389" y2="389"/>
<line clip-path="url(#clipPath1)" fill="none" x1="28" x2="557" y1="337" y2="337"/>
<line clip-path="url(#clipPath1)" fill="none" x1="28" x2="557" y1="284" y2="284"/>
<line clip-path="url(#clipPath1)" fill="none" x1="28" x2="557" y1="232" y2="232"/>
<line clip-path="url(#clipPath1)" fill="none" x1="28" x2="557" y1="180" y2="180"/>
<line clip-path="url(#clipPath1)" fill="none" x1="28" x2="557" y1="127" y2="127"/>
<line clip-path="url(#clipPath1)" fill="none" x1="28" x2="557" y1="75" y2="75"/>
<line clip-path="url(#clipPath1)" fill="none" x1="-452" x2="-446" y1="442" y2="442" stroke-dasharray="none" stroke="black"/>
<line clip-path="url(#clipPath1)" fill="none" x1="-446" x2="-440" y1="442" y2="442" stroke-dasharray="none" stroke="black"/>
<line clip-path="url(#clipPath1)" fill="none" x1="-440" x2="-435" y1="442" y2="442" stroke-dasharray="none" stroke="black"/>
<line clip-path="url(#clipPath1)" fill="none" x1="-435" x2="-429" y1="442" y2="442" stroke-dasharray="none" stroke="black"/>
<line clip-path="url(#clipPath1)" fill="none" x1="-429" x2="-424" y1="442" y2="442" stroke-dasharray="none" stroke="black"/>
<line clip-path="url(#clipPath1)" fill="none" x1="-424" x2="-418" y1="442" y2="442" stroke-dasharray="none" stroke="black"/>
<line clip-path="url(#clipPath1)" fill="none" x1="-418" x2="-413" y1="442" y2="442" stroke-dasharray="none" stroke="black"/>
<line clip-path="url(#clipPath1)" fill="none" x1="-413" x2="-407" y1="442" y2="442" stroke-dasharray="none" stroke="black"/>
<line clip-path="url(#clipPath1)" fill="none" x1="-407" x2="-402" y1="442" y2="442" stroke-dasharray="none" stroke="black"/>
<line clip-path="url(#clipPath1)" fill="none" x1="-402" x2="-396" y1="442" y2="442" stroke-dasharray="none" stroke="black"/>
<line clip-path="url(#clipPath1)" fill="none" x1="-396" x2="-391" y1="442" y2="442" stroke-dasharray="none" stroke="black"/>
<line clip-path="url(#clipPath1)" fill="none" x1="-391" x2="-385" y1="442" y2="442" stroke-dasharray="none" stroke="black"/>
<line clip-path="url(#clipPath1)" fill="none" x1="-385" x2="-379" y1="442" y2="442" stroke-dasharray="none" stroke="black"/>
<line clip-path="url(#clipPath1)" fill="none" x1="-379" x2="-374" y1="442" y2="442" stroke-dasharray="none" stroke="black"/>
<line clip-path="url(#clipPath1)" fill="none" x1="-374" x2="-368" y1="442" y2="442" stroke-dasharray="none" stroke="black"/>
<line clip-path="url(#clipPath1)" fill="none" x1="-368" x2="-363" y1="442" y2="442" stroke-dasharray="none" stroke="black"/>
<line clip-path="url(#clipPath1)" fill="none" x1="-363" x2="-357" y1="442" y2="442" stroke-dasharray="none" stroke="black"/>
<line clip-path="url(#clipPath1)" fill="none" x1="-357" x2="-352" y1="442" y2="442" stroke-dasharray="none" stroke="black"/>
<line clip-path="url(#clipPath1)" fill="none" x1="-352" x2="-346" y1="442" y2="442" stroke-dasharray="none" stroke="black"/>
<line clip-path="url(#clipPath1)" fill="none" x1="-346" x2="-341" y1="442" y2="442" stroke-dasharray="none" stroke="black"/>
<line clip-path="url(#clipPath1)" fill="none" x1="-341" x2="-335" y1="442" y2="442" stroke-dasharray="none" stroke="black"/>
<line clip-path="url(#clipPath1)" fill="none" x1="-335" x2="-330" y1="442" y2="442" stroke-dasharray="none" stroke="black"/>
<line clip-path="url(#clipPath1)" fill="none" x1="-330" x2="-324" y1="442" y2="442" stroke-dasharray="none" stroke="black"/>
<line clip-path="url(#clipPath1)" fill="none" x1="-324" x2="-319" y1="442" y2="442" stroke-dasharray="none" stroke="black"/>
<line clip-path="url(#clipPath1)" fill="none" x1="-319" x2="-313" y1="442" y2="442" stroke-dasharray="none" stroke="black"/>
<line clip-path="url(#clipPath1)" fill="none" x1="-313" x2="-307" y1="442" y2="442" stroke-dasharray="none" stroke="black"/>
<line clip-path="url(#clipPath1)" fill="none" x1="-307" x2="-302" y1="442" y2="442" stroke-dasharray="none" stroke="black"/>
<line clip-path="url(#clipPath1)" fill="none" x1="-302" x2="-296" y1="442" y2="442" stroke-dasharray="none" stroke="black"/>
<line clip-path="url(#clipPath1)" fill="none" x1="-296" x2="-291" y1="442" y2="442" stroke-dasharray="none" stroke="black"/>
<line clip-path="url(#clipPath1)" fill="none" x1="-291" x2="-285" y1="442" y2="442" stroke-dasharray="none" stroke="black"/>
<line clip-path="url(#clipPath1)" fill="none" x1="-285" x2="-280" y1="442" y2="442" stroke-dasharray="none" stroke="black"/>
<line clip-path="url(#clipPath1)" fill="none" x1="-280" x2="-274" y1="442" y2="442" stroke-dasharray="none" stroke="black"/>
<line clip-path="url(#clipPath1)" fill="none" x1="-274" x2="-269" y1="442" y2="442" stroke-dasharray="none" stroke="black"/>
<line clip-path="url(#clipPath1)" fill="none" x1="-269" x2="-263" y1="442" y2="442" stroke-dasharray="none" stroke="black"/>
<line clip-path="url(#clipPath1)" fill="none" x1="-263" x2="-258" y1="442" y2="442" stroke-dasharray="none" stroke="black"/>
<line clip-path="url(#clipPath1)" fill="none" x1="-258" x2="-252" y1="442" y2="442" stroke-dasharray="none" stroke="black"/>
<line clip-path="url(#clipPath1)" fill="none" x1="-252" x2="-246" y1="442" y2="442" stroke-dasharray="none" stroke="black"/>
<line clip-path="url(#clipPath1)" fill="none" x1="-246" x2="-241" y1="442" y2="442" stroke-dasharray="none" stroke="black"/>
<line clip-path="url(#clipPath1)" fill="none" x1="-241" x2="-235" y1="442" y2="442" stroke-dasharray="none" stroke="black"/>
<line clip-path="url(#clipPath1)" fill="none" x1="-235" x2="-230" y1="442" y2="442" stroke-dasharray="none" stroke="black"/>
<line clip-path="url(#clipPath1)" fill="none" x1="-230" x2="-224" y1="442" y2="442" stroke-dasharray="none" stroke="black"/>
<line clip-path="url(#clipPath1)" fill="none" x1="-224" x2="-219" y1="442" y2="442" stroke-dasharray="none" stroke="black"/>
<line clip-path="url(#clipPath1)" fill="none" x1="-219" x2="-213" y1="442" y2="442" stroke-dasharray="none" stroke="black"/>
<line clip-path="url(#clipPath1)" fill="none" x1="-213" x2="-208" y1="442" y2="442" stroke-dasharray="none" stroke="black"/>
<line clip-path="url(#clipPath1)" fill="none" x1="-208" x2="-202" y1="442" y2="442" stroke-dasharray="none" stroke="black"/>
<line clip-path="url(#clipPath1)" fill="none" x1="-202" x2="-197" y1="442" y2="442" stroke-dasharray="none" stroke="black"/>
<line clip-path="url(#clipPath1)" fill="none" x1="-197" x2="-191" y1="442" y2="442" stroke-dasharray="none" stroke="black"/>
<line clip-path="url(#clipPath1)" fill="none" x1="-191" x2="-186" y1="442" y2="442" stroke-dasharray="none" stroke="black"/>
<line clip-path="url(#clipPath1)" fill="none" x1="-186" x2="-180" y1="442" y2="442" stroke-dasharray="none" stroke="black"/>
<line clip-path="url(#clipPath1)" fill="none" x1="-180" x2="-174" y1="442" y2="442" stroke-dasharray="none" stroke="black"/>
<line clip-path="url(#clipPath1)" fill="none" x1="-174" x2="-169" y1="442" y2="442" stroke-dasharray="none" stroke="black"/>
<line clip-path="url(#clipPath1)" fill="none" x1="-169" x2="-163" y1="442" y2="442" stroke-dasharray="none" stroke="black"/>
<line clip-path="url(#clipPath1)" fill="none" x1="-163" x2="-158" y1="442" y2="442" stroke-dasharray="none" stroke="black"/>
<line clip-path="url(#clipPath1)" fill="none" x1="-158" x2="-152" y1="442" y2="442" stroke-dasharray="none" stroke="black"/>
<line clip-path="url(#clipPath1)" fill="none" x1="-152" x2="-147" y1="442" y2="442" stroke-dasharray="none" stroke="black"/>
<line clip-path="url(#clipPath1)" fill="none" x1="-147" x2="-141" y1="442" y2="442" stroke-dasharray="none" stroke="black"/>
<line clip-path="url(#clipPath1)" fill="none" x1="-141" x2="-136" y1="442" y2="442" stroke-dasharray="none" stroke="black"/>
<line clip-path="url(#clipPath1)" fill="none" x1="-136" x2="-130" y1="442" y2="442" stroke-dasharray="none" stroke="black"/>
<line clip-path="url(#clipPath1)" fill="none" x1="-130" x2="-125" y1="442" y2="442" stroke-dasharray="none" stroke="black"/>
<line clip-path="url(#clipPath1)" fill="none" x1="-125" x2="-119" y1="442" y2="442" stroke-dasharray="none" stroke="black"/>
<line clip-path="url(#clipPath1)" fill="none" x1="-119" x2="-114" y1="442" y2="442" stroke-dasharray="none" stroke="black"/>
<line clip-path="url(#clipPath1)" fill="none" x1="-114" x2="-108" y1="442" y2="442" stroke-dasharray="none" stroke="black"/>
<line clip-path="url(#clipPath1)" fill="none" x1="-108" x2="-102" y1="442" y2="442" stroke-dasharray="none" stroke="black"/>
<line clip-path="url(#clipPath1)" fill="none" x1="-102" x2="-97" y1="442" y2="442" stroke-dasharray="none" stroke="black"/>
<line clip-path="url(#clipPath1)" fill="none" x1="-97" x2="-91" y1="442" y2="442" stroke-dasharray="none" stroke="black"/>
<line clip-path="url(#clipPath1)" fill="none" x1="-91" x2="-86" y1="442" y2="442" stroke-dasharray="none" stroke="black"/>
<line clip-path="url(#clipPath1)" fill="none" x1="-86" x2="-80" y1="442" y2="442" stroke-dasharray="none" stroke="black"/>
<line clip-path="url(#clipPath1)" fill="none" x1="-80" x2="-75" y1="442" y2="442" stroke-dasharray="none" stroke="black"/>
<line clip-path="url(#clipPath1)" fill="none" x1="-75" x2="-69" y1="442" y2="442" stroke-dasharray="none" stroke="black"/>
<line clip-path="url(#clipPath1)" fill="none" x1="-69" x2="-64" y1="442" y2="442" stroke-dasharray="none" stroke="black"/>
<line clip-path="url(#clipPath1)" fill="none" x1="-64" x2="-58" y1="442" y2="442" stroke-dasharray="none" stroke="black"/>
<line clip-path="url(#clipPath1)" fill="none" x1="-58" x2="-53" y1="442" y2="442" stroke-dasharray="none" stroke="black"/>
<line clip-path="url(#clipPath1)" fill="none" x1="-53" x2="-47" y1="442" y2="442" stroke-dasharray="none" stroke="black"/>
<line clip-path="url(#clipPath1)" fill="none" x1="-47" x2="-41" y1="442" y2="442" stroke-dasharray="none" stroke="black"/>
<line clip-path="url(#clipPath1)" fill="none" x1="-41" x2="-36" y1="442" y2="442" stroke-dasharray="none" stroke="black"/>
<line clip-path="url(#clipPath1)" fill="none" x1="-36" x2="-30" y1="442" y2="442" stroke-dasharray="none" stroke="black"/>
<line clip-path="url(#clipPath1)" fill="none" x1="-30" x2="-25" y1="442" y2="442" stroke-dasharray="none" stroke="black"/>
<line clip-path="url(#clipPath1)" fill="none" x1="-25" x2="-19" y1="442" y2="442" stroke-dasharray="none" stroke="black"/>
<line clip-path="url(#clipPath1)" fill="none" x1="-19" x2="-14" y1="442" y2="442" stroke-dasharray="none" stroke="black"/>
<line clip-path="url(#clipPath1)" fill="none" x1="-14" x2="-8" y1="442" y2="442" stroke-dasharray="none" stroke="black"/>
<line clip-path="url(#clipPath1)" fill="none" x1="-8" x2="-3" y1="442" y2="442" stroke-dasharray="none" stroke="black"/>
<line clip-path="url(#clipPath1)" fill="none" x1="-3" x2="2" y1="442" y2="442" stroke-dasharray="none" stroke="black"/>
<line clip-path="url(#clipPath1)" fill="none" x1="2" x2="7" y1="442" y2="442" stroke-dasharray="none" stroke="black"/>
<line clip-path="url(#clipPath1)" fill="none" x1="7" x2="13" y1="442" y2="442" stroke-dasharray="none" stroke="black"/>
<line clip-path="url(#clipPath1)" fill="none" x1="13" x2="18" y1="442" y2="442" stroke-dasharray="none" stroke="black"/>
<line clip-path="url(#clipPath1)" fill="none" x1="18" x2="24" y1="442" y2="442" stroke-dasharray="none" stroke="black"/>
<line clip-path="url(#clipPath1)" fill="none" x1="24" x2="30" y1="442" y2="442" stroke-dasharray="none" stroke="black"/>
<line clip-path="url(#clipPath1)" fill="none" x1="30" x2="35" y1="442" y2="442" stroke-dasharray="none" stroke="black"/>
<line clip-path="url(#clipPath1)" fill="none" x1="35" x2="41" y1="442" y2="442" stroke-dasharray="none" stroke="black"/>
<line clip-path="url(#clipPath1)" fill="none" x1="41" x2="46" y1="442" y2="442" stroke-dasharray="none" stroke="black"/>
<line clip-path="url(#clipPath1)" fill="none" x1="46" x2="52" y1="442" y2="442" stroke-dasharray="none" stroke="black"/>
<line clip-path="url(#clipPath1)" fill="none" x1="52" x2="57" y1="442" y2="442" stroke-dasharray="none" stroke="black"/>
<line clip-path="url(#clipPath1)" fill="none" x1="57" x2="63" y1="442" y2="442" stroke-dasharray="none" stroke="black"/>
<line clip-path="url(#clipPath1)" fill="none" x1="63" x2="68" y1="442" y2="442" stroke-dasharray="none" stroke="black"/>
<line clip-path="url(#clipPath1)" fill="none" x1="68" x2="74" y1="442" y2="442" stroke-dasharray="none" stroke="black"/>
<line clip-path="url(#clipPath1)" fill="none" x1="74" x2="79" y1="442" y2="442" stroke-dasharray="none" stroke="black"/>
<line clip-path="url(#clipPath1)" fill="none" x1="79" x2="85" y1="442" y2="442" stroke-dasharray="none" stroke="black"/>
<line clip-path="url(#clipPath1)" fill="none" x1="85" x2="90" y1="442" y2="442" stroke-dasharray="none" stroke="black"/>
<line clip-path="url(#clipPath1)" fill="none" x1="90" x2="96" y1="442" y2="442" stroke-dasharray="none" stroke="black"/>
<line clip-path="url(#clipPath1)" fill="none" x1="96" x2="102" y1="442" y2="442" stroke-dasharray="none" stroke="black"/>
<line clip-path="url(#clipPath1)" fill="none" x1="102" x2="107" y1="442" y2="442" stroke-dasharray="none" stroke="black"/>
<line clip-path="url(#clipPath1)" fill="none" x1="107" x2="113" y1="442" y2="442" stroke-dasharray="none" stroke="black"/>
<line clip-path="url(#clipPath1)" fill="none" x1="113" x2="118" y1="442" y2="442" stroke-dasharray="none" stroke="black"/>
<line clip-path="url(#clipPath1)" fill="none" x1="118" x2="124" y1="442" y2="442" stroke-dasharray="none" stroke="black"/>
<line clip-path="url(#clipPath1)" fill="none" x1="124" x2="129" y1="442" y2="442" stroke-dasharray="none" stroke="black"/>
<line clip-path="url(#clipPath1)" fill="none" x1="129" x2="135" y1="442" y2="442" stroke-dasharray="none" stroke="black"/>
<line clip-path="url(#clipPath1)" fill="none" x1="135" x2="140" y1="442" y2="442" stroke-dasharray="none" stroke="black"/>
<line clip-path="url(#clipPath1)" fill="none" x1="140" x2="146" y1="442" y2="442" stroke-dasharray="none" stroke="black"/>
<line clip-path="url(#clipPath1)" fill="none" x1="146" x2="151" y1="442" y2="442" stroke-dasharray="none" stroke="black"/>
<line clip-path="url(#clipPath1)" fill="none" x1="151" x2="157" y1="442" y2="442" stroke-dasharray="none" stroke="black"/>
<line clip-path="url(#clipPath1)" fill="none" x1="157" x2="163" y1="442" y2="442" stroke-dasharray="none" stroke="black"/>
<line clip-path="url(#clipPath1)" fill="none" x1="163" x2="168" y1="442" y2="442" stroke-dasharray="none" stroke="black"/>
<line clip-path="url(#clipPath1)" fill="none" x1="168" x2="174" y1="442" y2="442" stroke-dasharray="none" stroke="black"/>
<line clip-path="url(#clipPath1)" fill="none" x1="174" x2="179" y1="442" y2="442" stroke-dasharray="none" stroke="black"/>
<line clip-path="url(#clipPath1)" fill="none" x1="179" x2="185" y1="442" y2="442" stroke-dasharray="none" stroke="black"/>
<line clip-path="url(#clipPath1)" fill="none" x1="185" x2="190" y1="442" y2="442" stroke-dasharray="none" stroke="black"/>
<line clip-path="url(#clipPath1)" fill="none" x1="190" x2="196" y1="442" y2="442" stroke-dasharray="none" stroke="black"/>
<line clip-path="url(#clipPath1)" fill="none" x1="196" x2="201" y1="442" y2="442" stroke-dasharray="none" stroke="black"/>
<line clip-path="url(#clipPath1)" fill="none" x1="201" x2="207" y1="442" y2="442" stroke-dasharray="none" stroke="black"/>
<line clip-path="url(#clipPath1)" fill="none" x1="207" x2="212" y1="442" y2="442" stroke-dasharray="none" stroke="black"/>
<rect x="212" y="127" clip-path="url(#clipPath1)" fill="rgb(0,0,139)" width="6" stroke-dasharray="none" height="315" stroke="none"/>
<rect x="212" y="127" clip-path="url(#clipPath1)" fill="none" width="6" stroke-dasharray="none" height="315" stroke="black"/>
<rect x="218" y="180" clip-path="url(#clipPath1)" fill="rgb(0,0,139)" width="5" stroke-dasharray="none" height="262" stroke="none"/>
<rect x="218" y="180" clip-path="url(#clipPath1)" fill="none" width="5" stroke-dasharray="none" height="262" stroke="black"/>
<rect x="223" y="284" clip-path="url(#clipPath1)" fill="rgb(0,0,139)" width="6" stroke-dasharray="none" height="158" stroke="none"/>
<rect x="223" y="284" clip-path="url(#clipPath1)" fill="none" width="6" stroke-dasharray="none" height="158" stroke="black"/>
<line clip-path="url(#clipPath1)" fill="none" x1="229" x2="235" y1="442" y2="442" stroke-dasharray="none" stroke="black"/>
<rect x="235" y="389" clip-path="url(#clipPath1)" fill="rgb(0,0,139)" width="5" stroke-dasharray="none" height="53" stroke="none"/>
<rect x="235" y="389" clip-path="url(#clipPath1)" fill="none" width="5" stroke-dasharray="none" height="53" stroke="black"/>
<rect x="240" y="389" clip-path="url(#clipPath1)" fill="rgb(0,0,139)" width="6" stroke-dasharray="none" height="53" stroke="none"/>
<rect x="240" y="389" clip-path="url(#clipPath1)" fill="none" width="6" stroke-dasharray="none" height="53" stroke="black"/>
<rect x="246" y="389" clip-path="url(#clipPath1)" fill="rgb(0,0,139)" width="5" stroke-dasharray="none" height="53" stroke="none"/>
<rect x="246" y="389" clip-path="url(#clipPath1)" fill="none" width="5" stroke-dasharray="none" height="53" stroke="black"/>
<rect x="251" y="337" clip-path="url(#clipPath1)" fill="rgb(0,0,139)" width="6" stroke-dasharray="none" height="105" stroke="none"/>
<rect x="251" y="337" clip-path="url(#clipPath1)" fill="none" width="6" stroke-dasharray="none" height="105" stroke="black"/>
<rect x="257" y="337" clip-path="url(#clipPath1)" fill="rgb(0,0,139)" width="5" stroke-dasharray="none" height="105" stroke="none"/>
<rect x="257" y="337" clip-path="url(#clipPath1)" fill="none" width="5" stroke-dasharray="none" height="105" stroke="black"/>
<rect x="262" y="337" clip-path="url(#clipPath1)" fill="rgb(0,0,139)" width="6" stroke-dasharray="none" height="105" stroke="none"/>
<rect x="262" y="337" clip-path="url(#clipPath1)" fill="none" width="6" stroke-dasharray="none" height="105" stroke="black"/>
<rect x="268" y="389" clip-path="url(#clipPath1)" fill="rgb(0,0,139)" width="5" stroke-dasharray="none" height="53" stroke="none"/>
<rect x="268" y="389" clip-path="url(#clipPath1)" fill="none" width="5" stroke-dasharray="none" height="53" stroke="black"/>
<rect x="273" y="284" clip-path="url(#clipPath1)" fill="rgb(0,0,139)" width="6" stroke-dasharray="none" height="158" stroke="none"/>
<rect x="273" y="284" clip-path="url(#clipPath1)" fill="none" width="6" stroke-dasharray="none" height="158" stroke="black"/>
<rect x="279" y="232" clip-path="url(#clipPath1)" fill="rgb(0,0,139)" width="5" stroke-dasharray="none" height="210" stroke="none"/>
<rect x="279" y="232" clip-path="url(#clipPath1)" fill="none" width="5" stroke-dasharray="none" height="210" stroke="black"/>
<rect x="284" y="127" clip-path="url(#clipPath1)" fill="rgb(0,0,139)" width="6" stroke-dasharray="none" height="315" stroke="none"/>
<rect x="284" y="127" clip-path="url(#clipPath1)" fill="none" width="6" stroke-dasharray="none" height="315" stroke="black"/>
<rect x="290" y="337" clip-path="url(#clipPath1)" fill="rgb(0,0,139)" width="5" stroke-dasharray="none" height="105" stroke="none"/>
<rect x="290" y="337" clip-path="url(#clipPath1)" fill="none" width="5" stroke-dasharray="none" height="105" stroke="black"/>
<line clip-path="url(#clipPath1)" fill="none" x1="295" x2="301" y1="442" y2="442" stroke-dasharray="none" stroke="black"/>
<rect x="301" y="389" clip-path="url(#clipPath1)" fill="rgb(0,0,139)" width="6" stroke-dasharray="none" height="53" stroke="none"/>
<rect x="301" y="389" clip-path="url(#clipPath1)" fill="none" width="6" stroke-dasharray="none" height="53" stroke="black"/>
<rect x="307" y="389" clip-path="url(#clipPath1)" fill="rgb(0,0,139)" width="5" stroke-dasharray="none" height="53" stroke="none"/>
<rect x="307" y="389" clip-path="url(#clipPath1)" fill="none" width="5" stroke-dasharray="none" height="53" stroke="black"/>
<rect x="312" y="337" clip-path="url(#clipPath1)" fill="rgb(0,0,139)" width="6" stroke-dasharray="none" height="105" stroke="none"/>
<rect x="312" y="337" clip-path="url(#clipPath1)" fill="none" width="6" stroke-dasharray="none" height="105" stroke="black"/>
<rect x="318" y="284" clip-path="url(#clipPath1)" fill="rgb(0,0,139)" width="5" stroke-dasharray="none" height="158" stroke="none"/>
<rect x="318" y="284" clip-path="url(#clipPath1)" fill="none" width="5" stroke-dasharray="none" height="158" stroke="black"/>
<rect x="323" y="389" clip-path="url(#clipPath1)" fill="rgb(0,0,139)" width="6" stroke-dasharray="none" height="53" stroke="none"/>
<rect x="323" y="389" clip-path="url(#clipPath1)" fill="none" width="6" stroke-dasharray="none" height="53" stroke="black"/>
<rect x="329" y="389" clip-path="url(#clipPath1)" fill="rgb(0,0,139)" width="5" stroke-dasharray="none" height="53" stroke="none"/>
<rect x="329" y="389" clip-path="url(#clipPath1)" fill="none" width="5" stroke-dasharray="none" height="53" stroke="black"/>
<rect x="334" y="127" clip-path="url(#clipPath1)" fill="rgb(0,0,139)" width="6" stroke-dasharray="none" height="315" stroke="none"/>
<rect x="334" y="127" clip-path="url(#clipPath1)" fill="none" width="6" stroke-dasharray="none" height="315" stroke="black"/>
<rect x="340" y="389" clip-path="url(#clipPath1)" fill="rgb(0,0,139)" width="5" stroke-dasharray="none" height="53" stroke="none"/>
<rect x="340" y="389" clip-path="url(#clipPath1)" fill="none" width="5" stroke-dasharray="none" height="53" stroke="black"/>
<rect x="345" y="180" clip-path="url(#clipPath1)" fill="rgb(0,0,139)" width="6" stroke-dasharray="none" height="262" stroke="none"/>
<rect x="345" y="180" clip-path="url(#clipPath1)" fill="none" width="6" stroke-dasharray="none" height="262" stroke="black"/>
<line clip-path="url(#clipPath1)" fill="none" x1="351" x2="356" y1="442" y2="442" stroke-dasharray="none" stroke="black"/>
<rect x="356" y="284" clip-path="url(#clipPath1)" fill="rgb(0,0,139)" width="6" stroke-dasharray="none" height="158" stroke="none"/>
<rect x="356" y="284" clip-path="url(#clipPath1)" fill="none" width="6" stroke-dasharray="none" height="158" stroke="black"/>
<line clip-path="url(#clipPath1)" fill="none" x1="362" x2="368" y1="442" y2="442" stroke-dasharray="none" stroke="black"/>
<rect x="368" y="337" clip-path="url(#clipPath1)" fill="rgb(0,0,139)" width="5" stroke-dasharray="none" height="105" stroke="none"/>
<rect x="368" y="337" clip-path="url(#clipPath1)" fill="none" width="5" stroke-dasharray="none" height="105" stroke="black"/>
<rect x="373" y="284" clip-path="url(#clipPath1)" fill="rgb(0,0,139)" width="6" stroke-dasharray="none" height="158" stroke="none"/>
<rect x="373" y="284" clip-path="url(#clipPath1)" fill="none" width="6" stroke-dasharray="none" height="158" stroke="black"/>
<rect x="379" y="284" clip-path="url(#clipPath1)" fill="rgb(0,0,139)" width="5" stroke-dasharray="none" height="158" stroke="none"/>
<rect x="379" y="284" clip-path="url(#clipPath1)" fill="none" width="5" stroke-dasharray="none" height="158" stroke="black"/>
<rect x="384" y="389" clip-path="url(#clipPath1)" fill="rgb(0,0,139)" width="6" stroke-dasharray="none" height="53" stroke="none"/>
<rect x="384" y="389" clip-path="url(#clipPath1)" fill="none" width="6" stroke-dasharray="none" height="53" stroke="black"/>
<rect x="390" y="389" clip-path="url(#clipPath1)" fill="rgb(0,0,139)" width="5" stroke-dasharray="none" height="53" stroke="none"/>
<rect x="390" y="389" clip-path="url(#clipPath1)" fill="none" width="5" stroke-dasharray="none" height="53" stroke="black"/>
<rect x="395" y="337" clip-path="url(#clipPath1)" fill="rgb(0,0,139)" width="6" stroke-dasharray="none" height="105" stroke="none"/>
<rect x="395" y="337" clip-path="url(#clipPath1)" fill="none" width="6" stroke-dasharray="none" height="105" stroke="black"/>
<line clip-path="url(#clipPath1)" fill="none" x1="401" x2="406" y1="442" y2="442" stroke-dasharray="none" stroke="black"/>
<line clip-path="url(#clipPath1)" fill="none" x1="406" x2="412" y1="442" y2="442" stroke-dasharray="none" stroke="black"/>
<line clip-path="url(#clipPath1)" fill="none" x1="412" x2="417" y1="442" y2="442" stroke-dasharray="none" stroke="black"/>
<line clip-path="url(#clipPath1)" fill="none" x1="417" x2="423" y1="442" y2="442" stroke-dasharray="none" stroke="black"/>
<line clip-path="url(#clipPath1)" fill="none" x1="423" x2="428" y1="442" y2="442" stroke-dasharray="none" stroke="black"/>
<line clip-path="url(#clipPath1)" fill="none" x1="428" x2="434" y1="442" y2="442" stroke-dasharray="none" stroke="black"/>
<line clip-path="url(#clipPath1)" fill="none" x1="434" x2="440" y1="442" y2="442" stroke-dasharray="none" stroke="black"/>
<line clip-path="url(#clipPath1)" fill="none" x1="440" x2="445" y1="442" y2="442" stroke-dasharray="none" stroke="black"/>
<line clip-path="url(#clipPath1)" fill="none" x1="445" x2="451" y1="442" y2="442" stroke-dasharray="none" stroke="black"/>
<line clip-path="url(#clipPath1)" fill="none" x1="451" x2="456" y1="442" y2="442" stroke-dasharray="none" stroke="black"/>
<line clip-path="url(#clipPath1)" fill="none" x1="456" x2="462" y1="442" y2="442" stroke-dasharray="none" stroke="black"/>
<line clip-path="url(#clipPath1)" fill="none" x1="462" x2="467" y1="442" y2="442" stroke-dasharray="none" stroke="black"/>
<line clip-path="url(#clipPath1)" fill="none" x1="467" x2="473" y1="442" y2="442" stroke-dasharray="none" stroke="black"/>
<line clip-path="url(#clipPath1)" fill="none" x1="473" x2="478" y1="442" y2="442" stroke-dasharray="none" stroke="black"/>
<line clip-path="url(#clipPath1)" fill="none" x1="478" x2="484" y1="442" y2="442" stroke-dasharray="none" stroke="black"/>
<line clip-path="url(#clipPath1)" fill="none" x1="484" x2="489" y1="442" y2="442" stroke-dasharray="none" stroke="black"/>
<line clip-path="url(#clipPath1)" fill="none" x1="489" x2="495" y1="442" y2="442" stroke-dasharray="none" stroke="black"/>
<line clip-path="url(#clipPath1)" fill="none" x1="495" x2="501" y1="442" y2="442" stroke-dasharray="none" stroke="black"/>
<line clip-path="url(#clipPath1)" fill="none" x1="501" x2="506" y1="442" y2="442" stroke-dasharray="none" stroke="black"/>
<line clip-path="url(#clipPath1)" fill="none" x1="506" x2="512" y1="442" y2="442" stroke-dasharray="none" stroke="black"/>
<line clip-path="url(#clipPath1)" fill="none" x1="512" x2="517" y1="442" y2="442" stroke-dasharray="none" stroke="black"/>
<line clip-path="url(#clipPath1)" fill="none" x1="517" x2="523" y1="442" y2="442" stroke-dasharray="none" stroke="black"/>
<line clip-path="url(#clipPath1)" fill="none" x1="523" x2="528" y1="442" y2="442" stroke-dasharray="none" stroke="black"/>
<line clip-path="url(#clipPath1)" fill="none" x1="528" x2="534" y1="442" y2="442" stroke-dasharray="none" stroke="black"/>
<line clip-path="url(#clipPath1)" fill="none" x1="534" x2="539" y1="442" y2="442" stroke-dasharray="none" stroke="black"/>
<line clip-path="url(#clipPath1)" fill="none" x1="539" x2="545" y1="442" y2="442" stroke-dasharray="none" stroke="black"/>
<line clip-path="url(#clipPath1)" fill="none" x1="545" x2="550" y1="442" y2="442" stroke-dasharray="none" stroke="black"/>
<line clip-path="url(#clipPath1)" fill="none" x1="550" x2="556" y1="442" y2="442" stroke-dasharray="none" stroke="black"/>
<line clip-path="url(#clipPath1)" fill="none" x1="556" x2="561" y1="442" y2="442" stroke-dasharray="none" stroke="black"/>
<line clip-path="url(#clipPath1)" fill="none" x1="561" x2="567" y1="442" y2="442" stroke-dasharray="none" stroke="black"/>
<line clip-path="url(#clipPath1)" fill="none" x1="567" x2="573" y1="442" y2="442" stroke-dasharray="none" stroke="black"/>
<line clip-path="url(#clipPath1)" fill="none" x1="573" x2="578" y1="442" y2="442" stroke-dasharray="none" stroke="black"/>
<line clip-path="url(#clipPath1)" fill="none" x1="578" x2="584" y1="442" y2="442" stroke-dasharray="none" stroke="black"/>
<line clip-path="url(#clipPath1)" fill="none" x1="584" x2="589" y1="442" y2="442" stroke-dasharray="none" stroke="black"/>
<line clip-path="url(#clipPath1)" fill="none" x1="589" x2="595" y1="442" y2="442" stroke-dasharray="none" stroke="black"/>
<line clip-path="url(#clipPath1)" fill="none" x1="595" x2="600" y1="442" y2="442" stroke-dasharray="none" stroke="black"/>
<line clip-path="url(#clipPath1)" fill="none" x1="600" x2="606" y1="442" y2="442" stroke-dasharray="none" stroke="black"/>
<line clip-path="url(#clipPath1)" fill="none" x1="606" x2="611" y1="442" y2="442" stroke-dasharray="none" stroke="black"/>
<line clip-path="url(#clipPath1)" fill="none" x1="611" x2="617" y1="442" y2="442" stroke-dasharray="none" stroke="black"/>
<line clip-path="url(#clipPath1)" fill="none" x1="617" x2="622" y1="442" y2="442" stroke-dasharray="none" stroke="black"/>
<line clip-path="url(#clipPath1)" fill="none" x1="622" x2="628" y1="442" y2="442" stroke-dasharray="none" stroke="black"/>
<line clip-path="url(#clipPath1)" fill="none" x1="628" x2="633" y1="442" y2="442" stroke-dasharray="none" stroke="black"/>
<line clip-path="url(#clipPath1)" fill="none" x1="633" x2="639" y1="442" y2="442" stroke-dasharray="none" stroke="black"/>
<line clip-path="url(#clipPath1)" fill="none" x1="639" x2="645" y1="442" y2="442" stroke-dasharray="none" stroke="black"/>
<line clip-path="url(#clipPath1)" fill="none" x1="645" x2="650" y1="442" y2="442" stroke-dasharray="none" stroke="black"/>
<line clip-path="url(#clipPath1)" fill="none" x1="650" x2="656" y1="442" y2="442" stroke-dasharray="none" stroke="black"/>
<rect x="28" y="23" clip-path="url(#clipPath2)" fill="none" width="529" stroke-dasharray="none" height="419" stroke="black"/>
</g>
<g text-rendering="geometricPrecision" font-size="13" stroke-linecap="butt">
<line clip-path="url(#clipPath2)" fill="none" x1="28" x2="557" y1="21" y2="21"/>
<line clip-path="url(#clipPath2)" fill="none" x1="28" x2="557" y1="444" y2="444"/>
<line clip-path="url(#clipPath2)" fill="none" x1="44" x2="44" y1="17" y2="21"/>
<line clip-path="url(#clipPath2)" fill="none" x1="44" x2="44" y1="448" y2="444"/>
<text x="24" font-size="11" y="14" clip-path="url(#clipPath2)" stroke="none" xml:space="preserve">0.00018</text>
<text x="24" font-size="11" y="460" clip-path="url(#clipPath2)" stroke="none" xml:space="preserve">0.00018</text>
<line clip-path="url(#clipPath2)" fill="none" x1="72" x2="72" y1="19" y2="21"/>
<line clip-path="url(#clipPath2)" fill="none" x1="72" x2="72" y1="446" y2="444"/>
<line clip-path="url(#clipPath2)" fill="none" x1="99" x2="99" y1="17" y2="21"/>
<line clip-path="url(#clipPath2)" fill="none" x1="99" x2="99" y1="448" y2="444"/>
<text x="79" font-size="11" y="14" clip-path="url(#clipPath2)" stroke="none" xml:space="preserve">0.00020</text>
<text x="79" font-size="11" y="460" clip-path="url(#clipPath2)" stroke="none" xml:space="preserve">0.00020</text>
<line clip-path="url(#clipPath2)" fill="none" x1="127" x2="127" y1="19" y2="21"/>
<line clip-path="url(#clipPath2)" fill="none" x1="127" x2="127" y1="446" y2="444"/>
<line clip-path="url(#clipPath2)" fill="none" x1="154" x2="154" y1="17" y2="21"/>
<line clip-path="url(#clipPath2)" fill="none" x1="154" x2="154" y1="448" y2="444"/>
<text x="134" font-size="11" y="14" clip-path="url(#clipPath2)" stroke="none" xml:space="preserve">0.00022</text>
<text x="134" font-size="11" y="460" clip-path="url(#clipPath2)" stroke="none" xml:space="preserve">0.00022</text>
<line clip-path="url(#clipPath2)" fill="none" x1="182" x2="182" y1="19" y2="21"/>
<line clip-path="url(#clipPath2)" fill="none" x1="182" x2="182" y1="446" y2="444"/>
<line clip-path="url(#clipPath2)" fill="none" x1="210" x2="210" y1="17" y2="21"/>
<line clip-path="url(#clipPath2)" fill="none" x1="210" x2="210" y1="448" y2="444"/>
<text x="190" font-size="11" y="14" clip-path="url(#clipPath2)" stroke="none" xml:space="preserve">0.00024</text>
<text x="190" font-size="11" y="460" clip-path="url(#clipPath2)" stroke="none" xml:space="preserve">0.00024</text>
<line clip-path="url(#clipPath2)" fill="none" x1="237" x2="237" y1="19" y2="21"/>
<line clip-path="url(#clipPath2)" fill="none" x1="237" x2="237" y1="446" y2="444"/>
<line clip-path="url(#clipPath2)" fill="none" x1="265" x2="265" y1="17" y2="21"/>
<line clip-path="url(#clipPath2)" fill="none" x1="265" x2="265" y1="448" y2="444"/>
<text x="245" font-size="11" y="14" clip-path="url(#clipPath2)" stroke="none" xml:space="preserve">0.00026</text>
<text x="245" font-size="11" y="460" clip-path="url(#clipPath2)" stroke="none" xml:space="preserve">0.00026</text>
<line clip-path="url(#clipPath2)" fill="none" x1="292" x2="292" y1="19" y2="21"/>
<line clip-path="url(#clipPath2)" fill="none" x1="292" x2="292" y1="446" y2="444"/>
<line clip-path="url(#clipPath2)" fill="none" x1="320" x2="320" y1="17" y2="21"/>
<line clip-path="url(#clipPath2)" fill="none" x1="320" x2="320" y1="448" y2="444"/>
<text x="300" font-size="11" y="14" clip-path="url(#clipPath2)" stroke="none" xml:space="preserve">0.00028</text>
<text x="300" font-size="11" y="460" clip-path="url(#clipPath2)" stroke="none" xml:space="preserve">0.00028</text>
<line clip-path="url(#clipPath2)" fill="none" x1="348" x2="348" y1="19" y2="21"/>
<line clip-path="url(#clipPath2)" fill="none" x1="348" x2="348" y1="446" y2="444"/>
<line clip-path="url(#clipPath2)" fill="none" x1="375" x2="375" y1="17" y2="21"/>
<line clip-path="url(#clipPath2)" fill="none" x1="375" x2="375" y1="448" y2="444"/>
<text x="355" font-size="11" y="14" clip-path="url(#clipPath2)" stroke="none" xml:space="preserve">0.00030</text>
<text x="355" font-size="11" y="460" clip-path="url(#clipPath2)" stroke="none" xml:space="preserve">0.00030</text>
<line clip-path="url(#clipPath2)" fill="none" x1="403" x2="403" y1="19" y2="21"/>
<line clip-path="url(#clipPath2)" fill="none" x1="403" x2="403" y1="446" y2="444"/>
<line clip-path="url(#clipPath2)" fill="none" x1="430" x2="430" y1="17" y2="21"/>
<line clip-path="url(#clipPath2)" fill="none" x1="430" x2="430" y1="448" y2="444"/>
<text x="410" font-size="11" y="14" clip-path="url(#clipPath2)" stroke="none" xml:space="preserve">0.00032</text>
<text x="410" font-size="11" y="460" clip-path="url(#clipPath2)" stroke="none" xml:space="preserve">0.00032</text>
<line clip-path="url(#clipPath2)" fill="none" x1="458" x2="458" y1="19" y2="21"/>
<line clip-path="url(#clipPath2)" fill="none" x1="458" x2="458" y1="446" y2="444"/>
<line clip-path="url(#clipPath2)" fill="none" x1="486" x2="486" y1="17" y2="21"/>
<line clip-path="url(#clipPath2)" fill="none" x1="486" x2="486" y1="448" y2="444"/>
<text x="466" font-size="11" y="14" clip-path="url(#clipPath2)" stroke="none" xml:space="preserve">0.00034</text>
<text x="466" font-size="11" y="460" clip-path="url(#clipPath2)" stroke="none" xml:space="preserve">0.00034</text>
<line clip-path="url(#clipPath2)" fill="none" x1="513" x2="513" y1="19" y2="21"/>
<line clip-path="url(#clipPath2)" fill="none" x1="513" x2="513" y1="446" y2="444"/>
<line clip-path="url(#clipPath2)" fill="none" x1="541" x2="541" y1="17" y2="21"/>
<line clip-path="url(#clipPath2)" fill="none" x1="541" x2="541" y1="448" y2="444"/>
<text x="521" font-size="11" y="14" clip-path="url(#clipPath2)" stroke="none" xml:space="preserve">0.00036</text>
<text x="521" font-size="11" y="460" clip-path="url(#clipPath2)" stroke="none" xml:space="preserve">0.00036</text>
<line clip-path="url(#clipPath2)" fill="none" x1="26" x2="26" y1="23" y2="442"/>
<line clip-path="url(#clipPath2)" fill="none" x1="559" x2="559" y1="23" y2="442"/>
<line clip-path="url(#clipPath2)" fill="none" x1="22" x2="26" y1="442" y2="442"/>
<line clip-path="url(#clipPath2)" fill="none" x1="563" x2="559" y1="442" y2="442"/>
<text x="15" font-size="11" y="447" clip-path="url(#clipPath2)" stroke="none" xml:space="preserve">0</text>
<text x="566" font-size="11" y="447" clip-path="url(#clipPath2)" stroke="none" xml:space="preserve">0</text>
<line clip-path="url(#clipPath2)" fill="none" x1="24" x2="26" y1="431" y2="431"/>
<line clip-path="url(#clipPath2)" fill="none" x1="561" x2="559" y1="431" y2="431"/>
<line clip-path="url(#clipPath2)" fill="none" x1="24" x2="26" y1="421" y2="421"/>
<line clip-path="url(#clipPath2)" fill="none" x1="561" x2="559" y1="421" y2="421"/>
<line clip-path="url(#clipPath2)" fill="none" x1="24" x2="26" y1="410" y2="410"/>
<line clip-path="url(#clipPath2)" fill="none" x1="561" x2="559" y1="410" y2="410"/>
<line clip-path="url(#clipPath2)" fill="none" x1="24" x2="26" y1="400" y2="400"/>
<line clip-path="url(#clipPath2)" fill="none" x1="561" x2="559" y1="400" y2="400"/>
<line clip-path="url(#clipPath2)" fill="none" x1="22" x2="26" y1="389" y2="389"/>
<line clip-path="url(#clipPath2)" fill="none" x1="563" x2="559" y1="389" y2="389"/>
<text x="3" font-size="11" y="394" clip-path="url(#clipPath2)" stroke="none" xml:space="preserve">1.0</text>
<text x="566" font-size="11" y="394" clip-path="url(#clipPath2)" stroke="none" xml:space="preserve">1.0</text>
<line clip-path="url(#clipPath2)" fill="none" x1="24" x2="26" y1="379" y2="379"/>
<line clip-path="url(#clipPath2)" fill="none" x1="561" x2="559" y1="379" y2="379"/>
<line clip-path="url(#clipPath2)" fill="none" x1="24" x2="26" y1="368" y2="368"/>
<line clip-path="url(#clipPath2)" fill="none" x1="561" x2="559" y1="368" y2="368"/>
<line clip-path="url(#clipPath2)" fill="none" x1="24" x2="26" y1="358" y2="358"/>
<line clip-path="url(#clipPath2)" fill="none" x1="561" x2="559" y1="358" y2="358"/>
<line clip-path="url(#clipPath2)" fill="none" x1="24" x2="26" y1="347" y2="347"/>
<line clip-path="url(#clipPath2)" fill="none" x1="561" x2="559" y1="347" y2="347"/>
<line clip-path="url(#clipPath2)" fill="none" x1="22" x2="26" y1="337" y2="337"/>
<line clip-path="url(#clipPath2)" fill="none" x1="563" x2="559" y1="337" y2="337"/>
<text x="3" font-size="11" y="342" clip-path="url(#clipPath2)" stroke="none" xml:space="preserve">2.0</text>
<text x="566" font-size="11" y="342" clip-path="url(#clipPath2)" stroke="none" xml:space="preserve">2.0</text>
<line clip-path="url(#clipPath2)" fill="none" x1="24" x2="26" y1="326" y2="326"/>
<line clip-path="url(#clipPath2)" fill="none" x1="561" x2="559" y1="326" y2="326"/>
<line clip-path="url(#clipPath2)" fill="none" x1="24" x2="26" y1="316" y2="316"/>
<line clip-path="url(#clipPath2)" fill="none" x1="561" x2="559" y1="316" y2="316"/>
<line clip-path="url(#clipPath2)" fill="none" x1="24" x2="26" y1="305" y2="305"/>
<line clip-path="url(#clipPath2)" fill="none" x1="561" x2="559" y1="305" y2="305"/>
<line clip-path="url(#clipPath2)" fill="none" x1="24" x2="26" y1="295" y2="295"/>
<line clip-path="url(#clipPath2)" fill="none" x1="561" x2="559" y1="295" y2="295"/>
<line clip-path="url(#clipPath2)" fill="none" x1="22" x2="26" y1="284" y2="284"/>
<line clip-path="url(#clipPath2)" fill="none" x1="563" x2="559" y1="284" y2="284"/>
<text x="3" font-size="11" y="289" clip-path="url(#clipPath2)" stroke="none" xml:space="preserve">3.0</text>
<text x="566" font-size="11" y="289" clip-path="url(#clipPath2)" stroke="none" xml:space="preserve">3.0</text>
<line clip-path="url(#clipPath2)" fill="none" x1="24" x2="26" y1="274" y2="274"/>
<line clip-path="url(#clipPath2)" fill="none" x1="561" x2="559" y1="274" y2="274"/>
<line clip-path="url(#clipPath2)" fill="none" x1="24" x2="26" y1="263" y2="263"/>
<line clip-path="url(#clipPath2)" fill="none" x1="561" x2="559" y1="263" y2="263"/>
<line clip-path="url(#clipPath2)" fill="none" x1="24" x2="26" y1="253" y2="253"/>
<line clip-path="url(#clipPath2)" fill="none" x1="561" x2="559" y1="253" y2="253"/>
<line clip-path="url(#clipPath2)" fill="none" x1="24" x2="26" y1="242" y2="242"/>
<line clip-path="url(#clipPath2)" fill="none" x1="561" x2="559" y1="242" y2="242"/>
<line clip-path="url(#clipPath2)" fill="none" x1="22" x2="26" y1="232" y2="232"/>
<line clip-path="url(#clipPath2)" fill="none" x1="563" x2="559" y1="232" y2="232"/>
<text x="3" font-size="11" y="237" clip-path="url(#clipPath2)" stroke="none" xml:space="preserve">4.0</text>
<text x="566" font-size="11" y="237" clip-path="url(#clipPath2)" stroke="none" xml:space="preserve">4.0</text>
<line clip-path="url(#clipPath2)" fill="none" x1="24" x2="26" y1="222" y2="222"/>
<line clip-path="url(#clipPath2)" fill="none" x1="561" x2="559" y1="222" y2="222"/>
<line clip-path="url(#clipPath2)" fill="none" x1="24" x2="26" y1="211" y2="211"/>
<line clip-path="url(#clipPath2)" fill="none" x1="561" x2="559" y1="211" y2="211"/>
<line clip-path="url(#clipPath2)" fill="none" x1="24" x2="26" y1="201" y2="201"/>
<line clip-path="url(#clipPath2)" fill="none" x1="561" x2="559" y1="201" y2="201"/>
<line clip-path="url(#clipPath2)" fill="none" x1="24" x2="26" y1="190" y2="190"/>
<line clip-path="url(#clipPath2)" fill="none" x1="561" x2="559" y1="190" y2="190"/>
<line clip-path="url(#clipPath2)" fill="none" x1="22" x2="26" y1="180" y2="180"/>
<line clip-path="url(#clipPath2)" fill="none" x1="563" x2="559" y1="180" y2="180"/>
<text x="3" font-size="11" y="185" clip-path="url(#clipPath2)" stroke="none" xml:space="preserve">5.0</text>
<text x="566" font-size="11" y="185" clip-path="url(#clipPath2)" stroke="none" xml:space="preserve">5.0</text>
<line clip-path="url(#clipPath2)" fill="none" x1="24" x2="26" y1="169" y2="169"/>
<line clip-path="url(#clipPath2)" fill="none" x1="561" x2="559" y1="169" y2="169"/>
<line clip-path="url(#clipPath2)" fill="none" x1="24" x2="26" y1="159" y2="159"/>
<line clip-path="url(#clipPath2)" fill="none" x1="561" x2="559" y1="159" y2="159"/>
<line clip-path="url(#clipPath2)" fill="none" x1="24" x2="26" y1="148" y2="148"/>
<line clip-path="url(#clipPath2)" fill="none" x1="561" x2="559" y1="148" y2="148"/>
<line clip-path="url(#clipPath2)" fill="none" x1="24" x2="26" y1="138" y2="138"/>
<line clip-path="url(#clipPath2)" fill="none" x1="561" x2="559" y1="138" y2="138"/>
<line clip-path="url(#clipPath2)" fill="none" x1="22" x2="26" y1="127" y2="127"/>
<line clip-path="url(#clipPath2)" fill="none" x1="563" x2="559" y1="127" y2="127"/>
<text x="3" font-size="11" y="132" clip-path="url(#clipPath2)" stroke="none" xml:space="preserve">6.0</text>
<text x="566" font-size="11" y="132" clip-path="url(#clipPath2)" stroke="none" xml:space="preserve">6.0</text>
<line clip-path="url(#clipPath2)" fill="none" x1="24" x2="26" y1="117" y2="117"/>
<line clip-path="url(#clipPath2)" fill="none" x1="561" x2="559" y1="117" y2="117"/>
<line clip-path="url(#clipPath2)" fill="none" x1="24" x2="26" y1="106" y2="106"/>
<line clip-path="url(#clipPath2)" fill="none" x1="561" x2="559" y1="106" y2="106"/>
<line clip-path="url(#clipPath2)" fill="none" x1="24" x2="26" y1="96" y2="96"/>
<line clip-path="url(#clipPath2)" fill="none" x1="561" x2="559" y1="96" y2="96"/>
<line clip-path="url(#clipPath2)" fill="none" x1="24" x2="26" y1="85" y2="85"/>
<line clip-path="url(#clipPath2)" fill="none" x1="561" x2="559" y1="85" y2="85"/>
<line clip-path="url(#clipPath2)" fill="none" x1="22" x2="26" y1="75" y2="75"/>
<line clip-path="url(#clipPath2)" fill="none" x1="563" x2="559" y1="75" y2="75"/>
<text x="3" font-size="11" y="80" clip-path="url(#clipPath2)" stroke="none" xml:space="preserve">7.0</text>
<text x="566" font-size="11" y="80" clip-path="url(#clipPath2)" stroke="none" xml:space="preserve">7.0</text>
<line clip-path="url(#clipPath2)" fill="none" x1="24" x2="26" y1="64" y2="64"/>
<line clip-path="url(#clipPath2)" fill="none" x1="561" x2="559" y1="64" y2="64"/>
<line clip-path="url(#clipPath2)" fill="none" x1="24" x2="26" y1="54" y2="54"/>
<line clip-path="url(#clipPath2)" fill="none" x1="561" x2="559" y1="54" y2="54"/>
<line clip-path="url(#clipPath2)" fill="none" x1="24" x2="26" y1="43" y2="43"/>
<line clip-path="url(#clipPath2)" fill="none" x1="561" x2="559" y1="43" y2="43"/>
<line clip-path="url(#clipPath2)" fill="none" x1="24" x2="26" y1="33" y2="33"/>
<line clip-path="url(#clipPath2)" fill="none" x1="561" x2="559" y1="33" y2="33"/>
</g>
</g>
</svg>
