<?xml version="1.0" encoding="UTF-8"?><svg xmlns="http://www.w3.org/2000/svg" xmlns:xlink="http://www.w3.org/1999/xlink" stroke-dasharray="none" shape-rendering="auto" font-family="'Dialog'" width="572" text-rendering="auto" fill-opacity="1" contentScriptType="text/ecmascript" color-interpolation="auto" color-rendering="auto" preserveAspectRatio="xMidYMid meet" font-size="12" fill="black" stroke="black" image-rendering="auto" stroke-miterlimit="10" zoomAndPan="magnify" version="1.0" stroke-linecap="square" stroke-linejoin="miter" contentStyleType="text/css" font-style="normal" height="453" stroke-width="1" stroke-dashoffset="0" font-weight="normal" stroke-opacity="1">
<!--Generated by the Batik Graphics2D SVG Generator-->
<defs id="genericDefs"/>
<g>
<defs id="defs1">
<clipPath clipPathUnits="userSpaceOnUse" id="clipPath1">
<path d="M27 22 L545 22 L545 431 L27 431 L27 22 Z"/>
</clipPath>
<clipPath clipPathUnits="userSpaceOnUse" id="clipPath2">
<path d="M-1 -1 L573 -1 L573 454 L-1 454 L-1 -1 Z"/>
</clipPath>
</defs>
<g font-size="15" fill="white" text-rendering="geometricPrecision" font-family="'Cantarell'" stroke-linejoin="round" stroke="white" stroke-width="0" stroke-miterlimit="0">
<rect x="28" y="23" clip-path="url(#clipPath1)" width="516" height="407" stroke="none"/>
</g>
<g stroke-linecap="butt" font-size="15" fill="rgb(204,204,204)" text-rendering="geometricPrecision" font-family="'Cantarell'" stroke-dasharray="3,3" stroke="rgb(204,204,204)">
<line clip-path="url(#clipPath1)" fill="none" x1="28" x2="544" y1="430" y2="430"/>
<line clip-path="url(#clipPath1)" fill="none" x1="28" x2="544" y1="364" y2="364"/>
<line clip-path="url(#clipPath1)" fill="none" x1="28" x2="544" y1="299" y2="299"/>
<line clip-path="url(#clipPath1)" fill="none" x1="28" x2="544" y1="234" y2="234"/>
<line clip-path="url(#clipPath1)" fill="none" x1="28" x2="544" y1="168" y2="168"/>
<line clip-path="url(#clipPath1)" fill="none" x1="28" x2="544" y1="103" y2="103"/>
<line clip-path="url(#clipPath1)" fill="none" x1="28" x2="544" y1="37" y2="37"/>
<line clip-path="url(#clipPath1)" fill="none" x1="-13" x2="-9" y1="430" y2="430" stroke-dasharray="none" stroke="black"/>
<line clip-path="url(#clipPath1)" fill="none" x1="-9" x2="-5" y1="430" y2="430" stroke-dasharray="none" stroke="black"/>
<line clip-path="url(#clipPath1)" fill="none" x1="-5" x2="-2" y1="430" y2="430" stroke-dasharray="none" stroke="black"/>
<line clip-path="url(#clipPath1)" fill="none" x1="-2" x2="1" y1="430" y2="430" stroke-dasharray="none" stroke="black"/>
<line clip-path="url(#clipPath1)" fill="none" x1="1" x2="5" y1="430" y2="430" stroke-dasharray="none" stroke="black"/>
<line clip-path="url(#clipPath1)" fill="none" x1="5" x2="8" y1="430" y2="430" stroke-dasharray="none" stroke="black"/>
<line clip-path="url(#clipPath1)" fill="none" x1="8" x2="12" y1="430" y2="430" stroke-dasharray="none" stroke="black"/>
<line clip-path="url(#clipPath1)" fill="none" x1="12" x2="16" y1="430" y2="430" stroke-dasharray="none" stroke="black"/>
<line clip-path="url(#clipPath1)" fill="none" x1="16" x2="19" y1="430" y2="430" stroke-dasharray="none" stroke="black"/>
<line clip-path="url(#clipPath1)" fill="none" x1="19" x2="23" y1="430" y2="430" stroke-dasharray="none" stroke="black"/>
<line clip-path="url(#clipPath1)" fill="none" x1="23" x2="27" y1="430" y2="430" stroke-dasharray="none" stroke="black"/>
<line clip-path="url(#clipPath1)" fill="none" x1="27" x2="30" y1="430" y2="430" stroke-dasharray="none" stroke="black"/>
<line clip-path="url(#clipPath1)" fill="none" x1="30" x2="34" y1="430" y2="430" stroke-dasharray="none" stroke="black"/>
<rect x="34" y="338" clip-path="url(#clipPath1)" fill="rgb(0,0,139)" width="4" stroke-dasharray="none" height="92" stroke="none"/>
<rect x="34" y="338" clip-path="url(#clipPath1)" fill="none" width="4" stroke-dasharray="none" height="92" stroke="black"/>
<rect x="38" y="391" clip-path="url(#clipPath1)" fill="rgb(0,0,139)" width="3" stroke-dasharray="none" height="39" stroke="none"/>
<rect x="38" y="391" clip-path="url(#clipPath1)" fill="none" width="3" stroke-dasharray="none" height="39" stroke="black"/>
<rect x="41" y="384" clip-path="url(#clipPath1)" fill="rgb(0,0,139)" width="4" stroke-dasharray="none" height="46" stroke="none"/>
<rect x="41" y="384" clip-path="url(#clipPath1)" fill="none" width="4" stroke-dasharray="none" height="46" stroke="black"/>
<rect x="45" y="391" clip-path="url(#clipPath1)" fill="rgb(0,0,139)" width="3" stroke-dasharray="none" height="39" stroke="none"/>
<rect x="45" y="391" clip-path="url(#clipPath1)" fill="none" width="3" stroke-dasharray="none" height="39" stroke="black"/>
<rect x="48" y="364" clip-path="url(#clipPath1)" fill="rgb(0,0,139)" width="4" stroke-dasharray="none" height="66" stroke="none"/>
<rect x="48" y="364" clip-path="url(#clipPath1)" fill="none" width="4" stroke-dasharray="none" height="66" stroke="black"/>
<rect x="52" y="351" clip-path="url(#clipPath1)" fill="rgb(0,0,139)" width="4" stroke-dasharray="none" height="79" stroke="none"/>
<rect x="52" y="351" clip-path="url(#clipPath1)" fill="none" width="4" stroke-dasharray="none" height="79" stroke="black"/>
<rect x="56" y="417" clip-path="url(#clipPath1)" fill="rgb(0,0,139)" width="3" stroke-dasharray="none" height="13" stroke="none"/>
<rect x="56" y="417" clip-path="url(#clipPath1)" fill="none" width="3" stroke-dasharray="none" height="13" stroke="black"/>
<rect x="59" y="391" clip-path="url(#clipPath1)" fill="rgb(0,0,139)" width="4" stroke-dasharray="none" height="39" stroke="none"/>
<rect x="59" y="391" clip-path="url(#clipPath1)" fill="none" width="4" stroke-dasharray="none" height="39" stroke="black"/>
<rect x="63" y="371" clip-path="url(#clipPath1)" fill="rgb(0,0,139)" width="4" stroke-dasharray="none" height="59" stroke="none"/>
<rect x="63" y="371" clip-path="url(#clipPath1)" fill="none" width="4" stroke-dasharray="none" height="59" stroke="black"/>
<rect x="67" y="364" clip-path="url(#clipPath1)" fill="rgb(0,0,139)" width="3" stroke-dasharray="none" height="66" stroke="none"/>
<rect x="67" y="364" clip-path="url(#clipPath1)" fill="none" width="3" stroke-dasharray="none" height="66" stroke="black"/>
<rect x="70" y="397" clip-path="url(#clipPath1)" fill="rgb(0,0,139)" width="4" stroke-dasharray="none" height="33" stroke="none"/>
<rect x="70" y="397" clip-path="url(#clipPath1)" fill="none" width="4" stroke-dasharray="none" height="33" stroke="black"/>
<rect x="74" y="404" clip-path="url(#clipPath1)" fill="rgb(0,0,139)" width="4" stroke-dasharray="none" height="26" stroke="none"/>
<rect x="74" y="404" clip-path="url(#clipPath1)" fill="none" width="4" stroke-dasharray="none" height="26" stroke="black"/>
<rect x="78" y="404" clip-path="url(#clipPath1)" fill="rgb(0,0,139)" width="3" stroke-dasharray="none" height="26" stroke="none"/>
<rect x="78" y="404" clip-path="url(#clipPath1)" fill="none" width="3" stroke-dasharray="none" height="26" stroke="black"/>
<rect x="81" y="410" clip-path="url(#clipPath1)" fill="rgb(0,0,139)" width="4" stroke-dasharray="none" height="20" stroke="none"/>
<rect x="81" y="410" clip-path="url(#clipPath1)" fill="none" width="4" stroke-dasharray="none" height="20" stroke="black"/>
<rect x="85" y="423" clip-path="url(#clipPath1)" fill="rgb(0,0,139)" width="4" stroke-dasharray="none" height="7" stroke="none"/>
<rect x="85" y="423" clip-path="url(#clipPath1)" fill="none" width="4" stroke-dasharray="none" height="7" stroke="black"/>
<line clip-path="url(#clipPath1)" fill="none" x1="89" x2="92" y1="430" y2="430" stroke-dasharray="none" stroke="black"/>
<rect x="92" y="417" clip-path="url(#clipPath1)" fill="rgb(0,0,139)" width="4" stroke-dasharray="none" height="13" stroke="none"/>
<rect x="92" y="417" clip-path="url(#clipPath1)" fill="none" width="4" stroke-dasharray="none" height="13" stroke="black"/>
<rect x="96" y="410" clip-path="url(#clipPath1)" fill="rgb(0,0,139)" width="4" stroke-dasharray="none" height="20" stroke="none"/>
<rect x="96" y="410" clip-path="url(#clipPath1)" fill="none" width="4" stroke-dasharray="none" height="20" stroke="black"/>
<rect x="100" y="417" clip-path="url(#clipPath1)" fill="rgb(0,0,139)" width="3" stroke-dasharray="none" height="13" stroke="none"/>
<rect x="100" y="417" clip-path="url(#clipPath1)" fill="none" width="3" stroke-dasharray="none" height="13" stroke="black"/>
<rect x="103" y="423" clip-path="url(#clipPath1)" fill="rgb(0,0,139)" width="4" stroke-dasharray="none" height="7" stroke="none"/>
<rect x="103" y="423" clip-path="url(#clipPath1)" fill="none" width="4" stroke-dasharray="none" height="7" stroke="black"/>
<rect x="107" y="417" clip-path="url(#clipPath1)" fill="rgb(0,0,139)" width="3" stroke-dasharray="none" height="13" stroke="none"/>
<rect x="107" y="417" clip-path="url(#clipPath1)" fill="none" width="3" stroke-dasharray="none" height="13" stroke="black"/>
<line clip-path="url(#clipPath1)" fill="none" x1="110" x2="114" y1="430" y2="430" stroke-dasharray="none" stroke="black"/>
<line clip-path="url(#clipPath1)" fill="none" x1="114" x2="118" y1="430" y2="430" stroke-dasharray="none" stroke="black"/>
<rect x="118" y="417" clip-path="url(#clipPath1)" fill="rgb(0,0,139)" width="3" stroke-dasharray="none" height="13" stroke="none"/>
<rect x="118" y="417" clip-path="url(#clipPath1)" fill="none" width="3" stroke-dasharray="none" height="13" stroke="black"/>
<rect x="121" y="423" clip-path="url(#clipPath1)" fill="rgb(0,0,139)" width="4" stroke-dasharray="none" height="7" stroke="none"/>
<rect x="121" y="423" clip-path="url(#clipPath1)" fill="none" width="4" stroke-dasharray="none" height="7" stroke="black"/>
<line clip-path="url(#clipPath1)" fill="none" x1="125" x2="129" y1="430" y2="430" stroke-dasharray="none" stroke="black"/>
<line clip-path="url(#clipPath1)" fill="none" x1="129" x2="132" y1="430" y2="430" stroke-dasharray="none" stroke="black"/>
<line clip-path="url(#clipPath1)" fill="none" x1="132" x2="136" y1="430" y2="430" stroke-dasharray="none" stroke="black"/>
<line clip-path="url(#clipPath1)" fill="none" x1="136" x2="140" y1="430" y2="430" stroke-dasharray="none" stroke="black"/>
<line clip-path="url(#clipPath1)" fill="none" x1="140" x2="143" y1="430" y2="430" stroke-dasharray="none" stroke="black"/>
<line clip-path="url(#clipPath1)" fill="none" x1="143" x2="147" y1="430" y2="430" stroke-dasharray="none" stroke="black"/>
<line clip-path="url(#clipPath1)" fill="none" x1="147" x2="151" y1="430" y2="430" stroke-dasharray="none" stroke="black"/>
<line clip-path="url(#clipPath1)" fill="none" x1="151" x2="154" y1="430" y2="430" stroke-dasharray="none" stroke="black"/>
<line clip-path="url(#clipPath1)" fill="none" x1="154" x2="158" y1="430" y2="430" stroke-dasharray="none" stroke="black"/>
<line clip-path="url(#clipPath1)" fill="none" x1="158" x2="162" y1="430" y2="430" stroke-dasharray="none" stroke="black"/>
<line clip-path="url(#clipPath1)" fill="none" x1="162" x2="165" y1="430" y2="430" stroke-dasharray="none" stroke="black"/>
<line clip-path="url(#clipPath1)" fill="none" x1="165" x2="169" y1="430" y2="430" stroke-dasharray="none" stroke="black"/>
<line clip-path="url(#clipPath1)" fill="none" x1="169" x2="172" y1="430" y2="430" stroke-dasharray="none" stroke="black"/>
<line clip-path="url(#clipPath1)" fill="none" x1="172" x2="176" y1="430" y2="430" stroke-dasharray="none" stroke="black"/>
<line clip-path="url(#clipPath1)" fill="none" x1="176" x2="180" y1="430" y2="430" stroke-dasharray="none" stroke="black"/>
<line clip-path="url(#clipPath1)" fill="none" x1="180" x2="183" y1="430" y2="430" stroke-dasharray="none" stroke="black"/>
<line clip-path="url(#clipPath1)" fill="none" x1="183" x2="187" y1="430" y2="430" stroke-dasharray="none" stroke="black"/>
<line clip-path="url(#clipPath1)" fill="none" x1="187" x2="191" y1="430" y2="430" stroke-dasharray="none" stroke="black"/>
<line clip-path="url(#clipPath1)" fill="none" x1="191" x2="194" y1="430" y2="430" stroke-dasharray="none" stroke="black"/>
<line clip-path="url(#clipPath1)" fill="none" x1="194" x2="198" y1="430" y2="430" stroke-dasharray="none" stroke="black"/>
<line clip-path="url(#clipPath1)" fill="none" x1="198" x2="202" y1="430" y2="430" stroke-dasharray="none" stroke="black"/>
<line clip-path="url(#clipPath1)" fill="none" x1="202" x2="205" y1="430" y2="430" stroke-dasharray="none" stroke="black"/>
<line clip-path="url(#clipPath1)" fill="none" x1="205" x2="209" y1="430" y2="430" stroke-dasharray="none" stroke="black"/>
<line clip-path="url(#clipPath1)" fill="none" x1="209" x2="213" y1="430" y2="430" stroke-dasharray="none" stroke="black"/>
<line clip-path="url(#clipPath1)" fill="none" x1="213" x2="216" y1="430" y2="430" stroke-dasharray="none" stroke="black"/>
<line clip-path="url(#clipPath1)" fill="none" x1="216" x2="220" y1="430" y2="430" stroke-dasharray="none" stroke="black"/>
<line clip-path="url(#clipPath1)" fill="none" x1="220" x2="224" y1="430" y2="430" stroke-dasharray="none" stroke="black"/>
<line clip-path="url(#clipPath1)" fill="none" x1="224" x2="227" y1="430" y2="430" stroke-dasharray="none" stroke="black"/>
<line clip-path="url(#clipPath1)" fill="none" x1="227" x2="231" y1="430" y2="430" stroke-dasharray="none" stroke="black"/>
<line clip-path="url(#clipPath1)" fill="none" x1="231" x2="234" y1="430" y2="430" stroke-dasharray="none" stroke="black"/>
<line clip-path="url(#clipPath1)" fill="none" x1="234" x2="238" y1="430" y2="430" stroke-dasharray="none" stroke="black"/>
<line clip-path="url(#clipPath1)" fill="none" x1="238" x2="242" y1="430" y2="430" stroke-dasharray="none" stroke="black"/>
<line clip-path="url(#clipPath1)" fill="none" x1="242" x2="245" y1="430" y2="430" stroke-dasharray="none" stroke="black"/>
<line clip-path="url(#clipPath1)" fill="none" x1="245" x2="249" y1="430" y2="430" stroke-dasharray="none" stroke="black"/>
<line clip-path="url(#clipPath1)" fill="none" x1="249" x2="253" y1="430" y2="430" stroke-dasharray="none" stroke="black"/>
<line clip-path="url(#clipPath1)" fill="none" x1="253" x2="256" y1="430" y2="430" stroke-dasharray="none" stroke="black"/>
<line clip-path="url(#clipPath1)" fill="none" x1="256" x2="260" y1="430" y2="430" stroke-dasharray="none" stroke="black"/>
<line clip-path="url(#clipPath1)" fill="none" x1="260" x2="264" y1="430" y2="430" stroke-dasharray="none" stroke="black"/>
<line clip-path="url(#clipPath1)" fill="none" x1="264" x2="267" y1="430" y2="430" stroke-dasharray="none" stroke="black"/>
<line clip-path="url(#clipPath1)" fill="none" x1="267" x2="271" y1="430" y2="430" stroke-dasharray="none" stroke="black"/>
<line clip-path="url(#clipPath1)" fill="none" x1="271" x2="275" y1="430" y2="430" stroke-dasharray="none" stroke="black"/>
<line clip-path="url(#clipPath1)" fill="none" x1="275" x2="278" y1="430" y2="430" stroke-dasharray="none" stroke="black"/>
<line clip-path="url(#clipPath1)" fill="none" x1="278" x2="282" y1="430" y2="430" stroke-dasharray="none" stroke="black"/>
<line clip-path="url(#clipPath1)" fill="none" x1="282" x2="285" y1="430" y2="430" stroke-dasharray="none" stroke="black"/>
<line clip-path="url(#clipPath1)" fill="none" x1="285" x2="289" y1="430" y2="430" stroke-dasharray="none" stroke="black"/>
<line clip-path="url(#clipPath1)" fill="none" x1="289" x2="293" y1="430" y2="430" stroke-dasharray="none" stroke="black"/>
<line clip-path="url(#clipPath1)" fill="none" x1="293" x2="296" y1="430" y2="430" stroke-dasharray="none" stroke="black"/>
<line clip-path="url(#clipPath1)" fill="none" x1="296" x2="300" y1="430" y2="430" stroke-dasharray="none" stroke="black"/>
<line clip-path="url(#clipPath1)" fill="none" x1="300" x2="304" y1="430" y2="430" stroke-dasharray="none" stroke="black"/>
<line clip-path="url(#clipPath1)" fill="none" x1="304" x2="307" y1="430" y2="430" stroke-dasharray="none" stroke="black"/>
<line clip-path="url(#clipPath1)" fill="none" x1="307" x2="311" y1="430" y2="430" stroke-dasharray="none" stroke="black"/>
<line clip-path="url(#clipPath1)" fill="none" x1="311" x2="315" y1="430" y2="430" stroke-dasharray="none" stroke="black"/>
<line clip-path="url(#clipPath1)" fill="none" x1="315" x2="318" y1="430" y2="430" stroke-dasharray="none" stroke="black"/>
<line clip-path="url(#clipPath1)" fill="none" x1="318" x2="322" y1="430" y2="430" stroke-dasharray="none" stroke="black"/>
<line clip-path="url(#clipPath1)" fill="none" x1="322" x2="326" y1="430" y2="430" stroke-dasharray="none" stroke="black"/>
<line clip-path="url(#clipPath1)" fill="none" x1="326" x2="329" y1="430" y2="430" stroke-dasharray="none" stroke="black"/>
<line clip-path="url(#clipPath1)" fill="none" x1="329" x2="333" y1="430" y2="430" stroke-dasharray="none" stroke="black"/>
<line clip-path="url(#clipPath1)" fill="none" x1="333" x2="337" y1="430" y2="430" stroke-dasharray="none" stroke="black"/>
<line clip-path="url(#clipPath1)" fill="none" x1="337" x2="340" y1="430" y2="430" stroke-dasharray="none" stroke="black"/>
<line clip-path="url(#clipPath1)" fill="none" x1="340" x2="344" y1="430" y2="430" stroke-dasharray="none" stroke="black"/>
<line clip-path="url(#clipPath1)" fill="none" x1="344" x2="347" y1="430" y2="430" stroke-dasharray="none" stroke="black"/>
<line clip-path="url(#clipPath1)" fill="none" x1="347" x2="351" y1="430" y2="430" stroke-dasharray="none" stroke="black"/>
<line clip-path="url(#clipPath1)" fill="none" x1="351" x2="355" y1="430" y2="430" stroke-dasharray="none" stroke="black"/>
<line clip-path="url(#clipPath1)" fill="none" x1="355" x2="358" y1="430" y2="430" stroke-dasharray="none" stroke="black"/>
<line clip-path="url(#clipPath1)" fill="none" x1="358" x2="362" y1="430" y2="430" stroke-dasharray="none" stroke="black"/>
<line clip-path="url(#clipPath1)" fill="none" x1="362" x2="366" y1="430" y2="430" stroke-dasharray="none" stroke="black"/>
<line clip-path="url(#clipPath1)" fill="none" x1="366" x2="369" y1="430" y2="430" stroke-dasharray="none" stroke="black"/>
<line clip-path="url(#clipPath1)" fill="none" x1="369" x2="373" y1="430" y2="430" stroke-dasharray="none" stroke="black"/>
<line clip-path="url(#clipPath1)" fill="none" x1="373" x2="377" y1="430" y2="430" stroke-dasharray="none" stroke="black"/>
<line clip-path="url(#clipPath1)" fill="none" x1="377" x2="380" y1="430" y2="430" stroke-dasharray="none" stroke="black"/>
<line clip-path="url(#clipPath1)" fill="none" x1="380" x2="384" y1="430" y2="430" stroke-dasharray="none" stroke="black"/>
<line clip-path="url(#clipPath1)" fill="none" x1="384" x2="388" y1="430" y2="430" stroke-dasharray="none" stroke="black"/>
<line clip-path="url(#clipPath1)" fill="none" x1="388" x2="391" y1="430" y2="430" stroke-dasharray="none" stroke="black"/>
<line clip-path="url(#clipPath1)" fill="none" x1="391" x2="395" y1="430" y2="430" stroke-dasharray="none" stroke="black"/>
<line clip-path="url(#clipPath1)" fill="none" x1="395" x2="399" y1="430" y2="430" stroke-dasharray="none" stroke="black"/>
<line clip-path="url(#clipPath1)" fill="none" x1="399" x2="402" y1="430" y2="430" stroke-dasharray="none" stroke="black"/>
<line clip-path="url(#clipPath1)" fill="none" x1="402" x2="406" y1="430" y2="430" stroke-dasharray="none" stroke="black"/>
<line clip-path="url(#clipPath1)" fill="none" x1="406" x2="409" y1="430" y2="430" stroke-dasharray="none" stroke="black"/>
<line clip-path="url(#clipPath1)" fill="none" x1="409" x2="413" y1="430" y2="430" stroke-dasharray="none" stroke="black"/>
<line clip-path="url(#clipPath1)" fill="none" x1="413" x2="417" y1="430" y2="430" stroke-dasharray="none" stroke="black"/>
<line clip-path="url(#clipPath1)" fill="none" x1="417" x2="420" y1="430" y2="430" stroke-dasharray="none" stroke="black"/>
<line clip-path="url(#clipPath1)" fill="none" x1="420" x2="424" y1="430" y2="430" stroke-dasharray="none" stroke="black"/>
<line clip-path="url(#clipPath1)" fill="none" x1="424" x2="428" y1="430" y2="430" stroke-dasharray="none" stroke="black"/>
<line clip-path="url(#clipPath1)" fill="none" x1="428" x2="431" y1="430" y2="430" stroke-dasharray="none" stroke="black"/>
<line clip-path="url(#clipPath1)" fill="none" x1="431" x2="435" y1="430" y2="430" stroke-dasharray="none" stroke="black"/>
<line clip-path="url(#clipPath1)" fill="none" x1="435" x2="439" y1="430" y2="430" stroke-dasharray="none" stroke="black"/>
<line clip-path="url(#clipPath1)" fill="none" x1="439" x2="442" y1="430" y2="430" stroke-dasharray="none" stroke="black"/>
<line clip-path="url(#clipPath1)" fill="none" x1="442" x2="446" y1="430" y2="430" stroke-dasharray="none" stroke="black"/>
<line clip-path="url(#clipPath1)" fill="none" x1="446" x2="450" y1="430" y2="430" stroke-dasharray="none" stroke="black"/>
<line clip-path="url(#clipPath1)" fill="none" x1="450" x2="453" y1="430" y2="430" stroke-dasharray="none" stroke="black"/>
<line clip-path="url(#clipPath1)" fill="none" x1="453" x2="457" y1="430" y2="430" stroke-dasharray="none" stroke="black"/>
<line clip-path="url(#clipPath1)" fill="none" x1="457" x2="461" y1="430" y2="430" stroke-dasharray="none" stroke="black"/>
<line clip-path="url(#clipPath1)" fill="none" x1="461" x2="464" y1="430" y2="430" stroke-dasharray="none" stroke="black"/>
<line clip-path="url(#clipPath1)" fill="none" x1="464" x2="468" y1="430" y2="430" stroke-dasharray="none" stroke="black"/>
<line clip-path="url(#clipPath1)" fill="none" x1="468" x2="471" y1="430" y2="430" stroke-dasharray="none" stroke="black"/>
<line clip-path="url(#clipPath1)" fill="none" x1="471" x2="475" y1="430" y2="430" stroke-dasharray="none" stroke="black"/>
<line clip-path="url(#clipPath1)" fill="none" x1="475" x2="479" y1="430" y2="430" stroke-dasharray="none" stroke="black"/>
<line clip-path="url(#clipPath1)" fill="none" x1="479" x2="482" y1="430" y2="430" stroke-dasharray="none" stroke="black"/>
<line clip-path="url(#clipPath1)" fill="none" x1="482" x2="486" y1="430" y2="430" stroke-dasharray="none" stroke="black"/>
<rect x="486" y="57" clip-path="url(#clipPath1)" fill="rgb(0,0,139)" width="4" stroke-dasharray="none" height="373" stroke="none"/>
<rect x="486" y="57" clip-path="url(#clipPath1)" fill="none" width="4" stroke-dasharray="none" height="373" stroke="black"/>
<rect x="490" y="358" clip-path="url(#clipPath1)" fill="rgb(0,0,139)" width="3" stroke-dasharray="none" height="72" stroke="none"/>
<rect x="490" y="358" clip-path="url(#clipPath1)" fill="none" width="3" stroke-dasharray="none" height="72" stroke="black"/>
<rect x="493" y="312" clip-path="url(#clipPath1)" fill="rgb(0,0,139)" width="4" stroke-dasharray="none" height="118" stroke="none"/>
<rect x="493" y="312" clip-path="url(#clipPath1)" fill="none" width="4" stroke-dasharray="none" height="118" stroke="black"/>
<rect x="497" y="351" clip-path="url(#clipPath1)" fill="rgb(0,0,139)" width="4" stroke-dasharray="none" height="79" stroke="none"/>
<rect x="497" y="351" clip-path="url(#clipPath1)" fill="none" width="4" stroke-dasharray="none" height="79" stroke="black"/>
<rect x="501" y="417" clip-path="url(#clipPath1)" fill="rgb(0,0,139)" width="3" stroke-dasharray="none" height="13" stroke="none"/>
<rect x="501" y="417" clip-path="url(#clipPath1)" fill="none" width="3" stroke-dasharray="none" height="13" stroke="black"/>
<rect x="504" y="404" clip-path="url(#clipPath1)" fill="rgb(0,0,139)" width="4" stroke-dasharray="none" height="26" stroke="none"/>
<rect x="504" y="404" clip-path="url(#clipPath1)" fill="none" width="4" stroke-dasharray="none" height="26" stroke="black"/>
<line clip-path="url(#clipPath1)" fill="none" x1="508" x2="512" y1="430" y2="430" stroke-dasharray="none" stroke="black"/>
<rect x="512" y="423" clip-path="url(#clipPath1)" fill="rgb(0,0,139)" width="3" stroke-dasharray="none" height="7" stroke="none"/>
<rect x="512" y="423" clip-path="url(#clipPath1)" fill="none" width="3" stroke-dasharray="none" height="7" stroke="black"/>
<rect x="515" y="423" clip-path="url(#clipPath1)" fill="rgb(0,0,139)" width="4" stroke-dasharray="none" height="7" stroke="none"/>
<rect x="515" y="423" clip-path="url(#clipPath1)" fill="none" width="4" stroke-dasharray="none" height="7" stroke="black"/>
<rect x="519" y="423" clip-path="url(#clipPath1)" fill="rgb(0,0,139)" width="3" stroke-dasharray="none" height="7" stroke="none"/>
<rect x="519" y="423" clip-path="url(#clipPath1)" fill="none" width="3" stroke-dasharray="none" height="7" stroke="black"/>
<line clip-path="url(#clipPath1)" fill="none" x1="522" x2="526" y1="430" y2="430" stroke-dasharray="none" stroke="black"/>
<rect x="526" y="423" clip-path="url(#clipPath1)" fill="rgb(0,0,139)" width="4" stroke-dasharray="none" height="7" stroke="none"/>
<rect x="526" y="423" clip-path="url(#clipPath1)" fill="none" width="4" stroke-dasharray="none" height="7" stroke="black"/>
<line clip-path="url(#clipPath1)" fill="none" x1="530" x2="533" y1="430" y2="430" stroke-dasharray="none" stroke="black"/>
<rect x="533" y="417" clip-path="url(#clipPath1)" fill="rgb(0,0,139)" width="4" stroke-dasharray="none" height="13" stroke="none"/>
<rect x="533" y="417" clip-path="url(#clipPath1)" fill="none" width="4" stroke-dasharray="none" height="13" stroke="black"/>
<line clip-path="url(#clipPath1)" fill="none" x1="537" x2="541" y1="430" y2="430" stroke-dasharray="none" stroke="black"/>
<rect x="541" y="423" clip-path="url(#clipPath1)" fill="rgb(0,0,139)" width="3" stroke-dasharray="none" height="7" stroke="none"/>
<rect x="541" y="423" clip-path="url(#clipPath1)" fill="none" width="3" stroke-dasharray="none" height="7" stroke="black"/>
<rect x="544" y="423" clip-path="url(#clipPath1)" fill="rgb(0,0,139)" width="4" stroke-dasharray="none" height="7" stroke="none"/>
<rect x="544" y="423" clip-path="url(#clipPath1)" fill="none" width="4" stroke-dasharray="none" height="7" stroke="black"/>
<line clip-path="url(#clipPath1)" fill="none" x1="548" x2="552" y1="430" y2="430" stroke-dasharray="none" stroke="black"/>
<line clip-path="url(#clipPath1)" fill="none" x1="552" x2="555" y1="430" y2="430" stroke-dasharray="none" stroke="black"/>
<line clip-path="url(#clipPath1)" fill="none" x1="555" x2="559" y1="430" y2="430" stroke-dasharray="none" stroke="black"/>
<line clip-path="url(#clipPath1)" fill="none" x1="559" x2="563" y1="430" y2="430" stroke-dasharray="none" stroke="black"/>
<line clip-path="url(#clipPath1)" fill="none" x1="563" x2="566" y1="430" y2="430" stroke-dasharray="none" stroke="black"/>
<line clip-path="url(#clipPath1)" fill="none" x1="566" x2="570" y1="430" y2="430" stroke-dasharray="none" stroke="black"/>
<line clip-path="url(#clipPath1)" fill="none" x1="570" x2="574" y1="430" y2="430" stroke-dasharray="none" stroke="black"/>
<line clip-path="url(#clipPath1)" fill="none" x1="574" x2="577" y1="430" y2="430" stroke-dasharray="none" stroke="black"/>
<line clip-path="url(#clipPath1)" fill="none" x1="577" x2="581" y1="430" y2="430" stroke-dasharray="none" stroke="black"/>
<line clip-path="url(#clipPath1)" fill="none" x1="581" x2="584" y1="430" y2="430" stroke-dasharray="none" stroke="black"/>
<line clip-path="url(#clipPath1)" fill="none" x1="584" x2="588" y1="430" y2="430" stroke-dasharray="none" stroke="black"/>
<line clip-path="url(#clipPath1)" fill="none" x1="588" x2="592" y1="430" y2="430" stroke-dasharray="none" stroke="black"/>
<line clip-path="url(#clipPath1)" fill="none" x1="592" x2="595" y1="430" y2="430" stroke-dasharray="none" stroke="black"/>
<line clip-path="url(#clipPath1)" fill="none" x1="595" x2="599" y1="430" y2="430" stroke-dasharray="none" stroke="black"/>
<line clip-path="url(#clipPath1)" fill="none" x1="599" x2="603" y1="430" y2="430" stroke-dasharray="none" stroke="black"/>
<line clip-path="url(#clipPath1)" fill="none" x1="603" x2="606" y1="430" y2="430" stroke-dasharray="none" stroke="black"/>
<line clip-path="url(#clipPath1)" fill="none" x1="606" x2="610" y1="430" y2="430" stroke-dasharray="none" stroke="black"/>
<line clip-path="url(#clipPath1)" fill="none" x1="610" x2="614" y1="430" y2="430" stroke-dasharray="none" stroke="black"/>
<line clip-path="url(#clipPath1)" fill="none" x1="614" x2="617" y1="430" y2="430" stroke-dasharray="none" stroke="black"/>
<line clip-path="url(#clipPath1)" fill="none" x1="617" x2="621" y1="430" y2="430" stroke-dasharray="none" stroke="black"/>
<line clip-path="url(#clipPath1)" fill="none" x1="621" x2="625" y1="430" y2="430" stroke-dasharray="none" stroke="black"/>
<line clip-path="url(#clipPath1)" fill="none" x1="625" x2="628" y1="430" y2="430" stroke-dasharray="none" stroke="black"/>
<line clip-path="url(#clipPath1)" fill="none" x1="628" x2="632" y1="430" y2="430" stroke-dasharray="none" stroke="black"/>
<line clip-path="url(#clipPath1)" fill="none" x1="632" x2="636" y1="430" y2="430" stroke-dasharray="none" stroke="black"/>
<line clip-path="url(#clipPath1)" fill="none" x1="636" x2="639" y1="430" y2="430" stroke-dasharray="none" stroke="black"/>
<line clip-path="url(#clipPath1)" fill="none" x1="639" x2="643" y1="430" y2="430" stroke-dasharray="none" stroke="black"/>
<line clip-path="url(#clipPath1)" fill="none" x1="643" x2="646" y1="430" y2="430" stroke-dasharray="none" stroke="black"/>
<line clip-path="url(#clipPath1)" fill="none" x1="646" x2="650" y1="430" y2="430" stroke-dasharray="none" stroke="black"/>
<line clip-path="url(#clipPath1)" fill="none" x1="650" x2="654" y1="430" y2="430" stroke-dasharray="none" stroke="black"/>
<line clip-path="url(#clipPath1)" fill="none" x1="654" x2="657" y1="430" y2="430" stroke-dasharray="none" stroke="black"/>
<line clip-path="url(#clipPath1)" fill="none" x1="657" x2="661" y1="430" y2="430" stroke-dasharray="none" stroke="black"/>
<line clip-path="url(#clipPath1)" fill="none" x1="661" x2="665" y1="430" y2="430" stroke-dasharray="none" stroke="black"/>
<line clip-path="url(#clipPath1)" fill="none" x1="665" x2="668" y1="430" y2="430" stroke-dasharray="none" stroke="black"/>
<line clip-path="url(#clipPath1)" fill="none" x1="668" x2="672" y1="430" y2="430" stroke-dasharray="none" stroke="black"/>
<line clip-path="url(#clipPath1)" fill="none" x1="672" x2="676" y1="430" y2="430" stroke-dasharray="none" stroke="black"/>
<line clip-path="url(#clipPath1)" fill="none" x1="676" x2="679" y1="430" y2="430" stroke-dasharray="none" stroke="black"/>
<line clip-path="url(#clipPath1)" fill="none" x1="679" x2="683" y1="430" y2="430" stroke-dasharray="none" stroke="black"/>
<line clip-path="url(#clipPath1)" fill="none" x1="683" x2="687" y1="430" y2="430" stroke-dasharray="none" stroke="black"/>
<line clip-path="url(#clipPath1)" fill="none" x1="687" x2="690" y1="430" y2="430" stroke-dasharray="none" stroke="black"/>
<line clip-path="url(#clipPath1)" fill="none" x1="690" x2="694" y1="430" y2="430" stroke-dasharray="none" stroke="black"/>
<line clip-path="url(#clipPath1)" fill="none" x1="694" x2="698" y1="430" y2="430" stroke-dasharray="none" stroke="black"/>
<line clip-path="url(#clipPath1)" fill="none" x1="698" x2="701" y1="430" y2="430" stroke-dasharray="none" stroke="black"/>
<line clip-path="url(#clipPath1)" fill="none" x1="701" x2="705" y1="430" y2="430" stroke-dasharray="none" stroke="black"/>
<line clip-path="url(#clipPath1)" fill="none" x1="705" x2="708" y1="430" y2="430" stroke-dasharray="none" stroke="black"/>
<line clip-path="url(#clipPath1)" fill="none" x1="708" x2="712" y1="430" y2="430" stroke-dasharray="none" stroke="black"/>
<line clip-path="url(#clipPath1)" fill="none" x1="712" x2="716" y1="430" y2="430" stroke-dasharray="none" stroke="black"/>
<rect x="28" y="23" clip-path="url(#clipPath2)" fill="none" width="516" stroke-dasharray="none" height="407" stroke="black"/>
</g>
<g text-rendering="geometricPrecision" font-size="13" stroke-linecap="butt">
<line clip-path="url(#clipPath2)" fill="none" x1="28" x2="544" y1="21" y2="21"/>
<line clip-path="url(#clipPath2)" fill="none" x1="28" x2="544" y1="432" y2="432"/>
<line clip-path="url(#clipPath2)" fill="none" x1="39" x2="39" y1="19" y2="21"/>
<line clip-path="url(#clipPath2)" fill="none" x1="39" x2="39" y1="434" y2="432"/>
<line clip-path="url(#clipPath2)" fill="none" x1="52" x2="52" y1="17" y2="21"/>
<line clip-path="url(#clipPath2)" fill="none" x1="52" x2="52" y1="436" y2="432"/>
<text x="32" font-size="11" y="14" clip-path="url(#clipPath2)" stroke="none" xml:space="preserve">0.00010</text>
<text x="32" font-size="11" y="448" clip-path="url(#clipPath2)" stroke="none" xml:space="preserve">0.00010</text>
<line clip-path="url(#clipPath2)" fill="none" x1="65" x2="65" y1="19" y2="21"/>
<line clip-path="url(#clipPath2)" fill="none" x1="65" x2="65" y1="434" y2="432"/>
<line clip-path="url(#clipPath2)" fill="none" x1="78" x2="78" y1="19" y2="21"/>
<line clip-path="url(#clipPath2)" fill="none" x1="78" x2="78" y1="434" y2="432"/>
<line clip-path="url(#clipPath2)" fill="none" x1="91" x2="91" y1="19" y2="21"/>
<line clip-path="url(#clipPath2)" fill="none" x1="91" x2="91" y1="434" y2="432"/>
<line clip-path="url(#clipPath2)" fill="none" x1="104" x2="104" y1="19" y2="21"/>
<line clip-path="url(#clipPath2)" fill="none" x1="104" x2="104" y1="434" y2="432"/>
<line clip-path="url(#clipPath2)" fill="none" x1="118" x2="118" y1="17" y2="21"/>
<line clip-path="url(#clipPath2)" fill="none" x1="118" x2="118" y1="436" y2="432"/>
<text x="98" font-size="11" y="14" clip-path="url(#clipPath2)" stroke="none" xml:space="preserve">0.00020</text>
<text x="98" font-size="11" y="448" clip-path="url(#clipPath2)" stroke="none" xml:space="preserve">0.00020</text>
<line clip-path="url(#clipPath2)" fill="none" x1="131" x2="131" y1="19" y2="21"/>
<line clip-path="url(#clipPath2)" fill="none" x1="131" x2="131" y1="434" y2="432"/>
<line clip-path="url(#clipPath2)" fill="none" x1="144" x2="144" y1="19" y2="21"/>
<line clip-path="url(#clipPath2)" fill="none" x1="144" x2="144" y1="434" y2="432"/>
<line clip-path="url(#clipPath2)" fill="none" x1="157" x2="157" y1="19" y2="21"/>
<line clip-path="url(#clipPath2)" fill="none" x1="157" x2="157" y1="434" y2="432"/>
<line clip-path="url(#clipPath2)" fill="none" x1="170" x2="170" y1="19" y2="21"/>
<line clip-path="url(#clipPath2)" fill="none" x1="170" x2="170" y1="434" y2="432"/>
<line clip-path="url(#clipPath2)" fill="none" x1="183" x2="183" y1="17" y2="21"/>
<line clip-path="url(#clipPath2)" fill="none" x1="183" x2="183" y1="436" y2="432"/>
<text x="163" font-size="11" y="14" clip-path="url(#clipPath2)" stroke="none" xml:space="preserve">0.00030</text>
<text x="163" font-size="11" y="448" clip-path="url(#clipPath2)" stroke="none" xml:space="preserve">0.00030</text>
<line clip-path="url(#clipPath2)" fill="none" x1="196" x2="196" y1="19" y2="21"/>
<line clip-path="url(#clipPath2)" fill="none" x1="196" x2="196" y1="434" y2="432"/>
<line clip-path="url(#clipPath2)" fill="none" x1="209" x2="209" y1="19" y2="21"/>
<line clip-path="url(#clipPath2)" fill="none" x1="209" x2="209" y1="434" y2="432"/>
<line clip-path="url(#clipPath2)" fill="none" x1="222" x2="222" y1="19" y2="21"/>
<line clip-path="url(#clipPath2)" fill="none" x1="222" x2="222" y1="434" y2="432"/>
<line clip-path="url(#clipPath2)" fill="none" x1="236" x2="236" y1="19" y2="21"/>
<line clip-path="url(#clipPath2)" fill="none" x1="236" x2="236" y1="434" y2="432"/>
<line clip-path="url(#clipPath2)" fill="none" x1="249" x2="249" y1="17" y2="21"/>
<line clip-path="url(#clipPath2)" fill="none" x1="249" x2="249" y1="436" y2="432"/>
<text x="229" font-size="11" y="14" clip-path="url(#clipPath2)" stroke="none" xml:space="preserve">0.00040</text>
<text x="229" font-size="11" y="448" clip-path="url(#clipPath2)" stroke="none" xml:space="preserve">0.00040</text>
<line clip-path="url(#clipPath2)" fill="none" x1="262" x2="262" y1="19" y2="21"/>
<line clip-path="url(#clipPath2)" fill="none" x1="262" x2="262" y1="434" y2="432"/>
<line clip-path="url(#clipPath2)" fill="none" x1="275" x2="275" y1="19" y2="21"/>
<line clip-path="url(#clipPath2)" fill="none" x1="275" x2="275" y1="434" y2="432"/>
<line clip-path="url(#clipPath2)" fill="none" x1="288" x2="288" y1="19" y2="21"/>
<line clip-path="url(#clipPath2)" fill="none" x1="288" x2="288" y1="434" y2="432"/>
<line clip-path="url(#clipPath2)" fill="none" x1="301" x2="301" y1="19" y2="21"/>
<line clip-path="url(#clipPath2)" fill="none" x1="301" x2="301" y1="434" y2="432"/>
<line clip-path="url(#clipPath2)" fill="none" x1="314" x2="314" y1="17" y2="21"/>
<line clip-path="url(#clipPath2)" fill="none" x1="314" x2="314" y1="436" y2="432"/>
<text x="294" font-size="11" y="14" clip-path="url(#clipPath2)" stroke="none" xml:space="preserve">0.00050</text>
<text x="294" font-size="11" y="448" clip-path="url(#clipPath2)" stroke="none" xml:space="preserve">0.00050</text>
<line clip-path="url(#clipPath2)" fill="none" x1="327" x2="327" y1="19" y2="21"/>
<line clip-path="url(#clipPath2)" fill="none" x1="327" x2="327" y1="434" y2="432"/>
<line clip-path="url(#clipPath2)" fill="none" x1="340" x2="340" y1="19" y2="21"/>
<line clip-path="url(#clipPath2)" fill="none" x1="340" x2="340" y1="434" y2="432"/>
<line clip-path="url(#clipPath2)" fill="none" x1="354" x2="354" y1="19" y2="21"/>
<line clip-path="url(#clipPath2)" fill="none" x1="354" x2="354" y1="434" y2="432"/>
<line clip-path="url(#clipPath2)" fill="none" x1="367" x2="367" y1="19" y2="21"/>
<line clip-path="url(#clipPath2)" fill="none" x1="367" x2="367" y1="434" y2="432"/>
<line clip-path="url(#clipPath2)" fill="none" x1="380" x2="380" y1="17" y2="21"/>
<line clip-path="url(#clipPath2)" fill="none" x1="380" x2="380" y1="436" y2="432"/>
<text x="360" font-size="11" y="14" clip-path="url(#clipPath2)" stroke="none" xml:space="preserve">0.00060</text>
<text x="360" font-size="11" y="448" clip-path="url(#clipPath2)" stroke="none" xml:space="preserve">0.00060</text>
<line clip-path="url(#clipPath2)" fill="none" x1="393" x2="393" y1="19" y2="21"/>
<line clip-path="url(#clipPath2)" fill="none" x1="393" x2="393" y1="434" y2="432"/>
<line clip-path="url(#clipPath2)" fill="none" x1="406" x2="406" y1="19" y2="21"/>
<line clip-path="url(#clipPath2)" fill="none" x1="406" x2="406" y1="434" y2="432"/>
<line clip-path="url(#clipPath2)" fill="none" x1="419" x2="419" y1="19" y2="21"/>
<line clip-path="url(#clipPath2)" fill="none" x1="419" x2="419" y1="434" y2="432"/>
<line clip-path="url(#clipPath2)" fill="none" x1="432" x2="432" y1="19" y2="21"/>
<line clip-path="url(#clipPath2)" fill="none" x1="432" x2="432" y1="434" y2="432"/>
<line clip-path="url(#clipPath2)" fill="none" x1="445" x2="445" y1="17" y2="21"/>
<line clip-path="url(#clipPath2)" fill="none" x1="445" x2="445" y1="436" y2="432"/>
<text x="425" font-size="11" y="14" clip-path="url(#clipPath2)" stroke="none" xml:space="preserve">0.00070</text>
<text x="425" font-size="11" y="448" clip-path="url(#clipPath2)" stroke="none" xml:space="preserve">0.00070</text>
<line clip-path="url(#clipPath2)" fill="none" x1="458" x2="458" y1="19" y2="21"/>
<line clip-path="url(#clipPath2)" fill="none" x1="458" x2="458" y1="434" y2="432"/>
<line clip-path="url(#clipPath2)" fill="none" x1="472" x2="472" y1="19" y2="21"/>
<line clip-path="url(#clipPath2)" fill="none" x1="472" x2="472" y1="434" y2="432"/>
<line clip-path="url(#clipPath2)" fill="none" x1="485" x2="485" y1="19" y2="21"/>
<line clip-path="url(#clipPath2)" fill="none" x1="485" x2="485" y1="434" y2="432"/>
<line clip-path="url(#clipPath2)" fill="none" x1="498" x2="498" y1="19" y2="21"/>
<line clip-path="url(#clipPath2)" fill="none" x1="498" x2="498" y1="434" y2="432"/>
<line clip-path="url(#clipPath2)" fill="none" x1="511" x2="511" y1="17" y2="21"/>
<line clip-path="url(#clipPath2)" fill="none" x1="511" x2="511" y1="436" y2="432"/>
<text x="491" font-size="11" y="14" clip-path="url(#clipPath2)" stroke="none" xml:space="preserve">0.00080</text>
<text x="491" font-size="11" y="448" clip-path="url(#clipPath2)" stroke="none" xml:space="preserve">0.00080</text>
<line clip-path="url(#clipPath2)" fill="none" x1="524" x2="524" y1="19" y2="21"/>
<line clip-path="url(#clipPath2)" fill="none" x1="524" x2="524" y1="434" y2="432"/>
<line clip-path="url(#clipPath2)" fill="none" x1="537" x2="537" y1="19" y2="21"/>
<line clip-path="url(#clipPath2)" fill="none" x1="537" x2="537" y1="434" y2="432"/>
<line clip-path="url(#clipPath2)" fill="none" x1="26" x2="26" y1="23" y2="430"/>
<line clip-path="url(#clipPath2)" fill="none" x1="546" x2="546" y1="23" y2="430"/>
<line clip-path="url(#clipPath2)" fill="none" x1="22" x2="26" y1="430" y2="430"/>
<line clip-path="url(#clipPath2)" fill="none" x1="550" x2="546" y1="430" y2="430"/>
<text x="15" font-size="11" y="435" clip-path="url(#clipPath2)" stroke="none" xml:space="preserve">0</text>
<text x="553" font-size="11" y="435" clip-path="url(#clipPath2)" stroke="none" xml:space="preserve">0</text>
<line clip-path="url(#clipPath2)" fill="none" x1="24" x2="26" y1="417" y2="417"/>
<line clip-path="url(#clipPath2)" fill="none" x1="548" x2="546" y1="417" y2="417"/>
<line clip-path="url(#clipPath2)" fill="none" x1="24" x2="26" y1="404" y2="404"/>
<line clip-path="url(#clipPath2)" fill="none" x1="548" x2="546" y1="404" y2="404"/>
<line clip-path="url(#clipPath2)" fill="none" x1="24" x2="26" y1="391" y2="391"/>
<line clip-path="url(#clipPath2)" fill="none" x1="548" x2="546" y1="391" y2="391"/>
<line clip-path="url(#clipPath2)" fill="none" x1="24" x2="26" y1="378" y2="378"/>
<line clip-path="url(#clipPath2)" fill="none" x1="548" x2="546" y1="378" y2="378"/>
<line clip-path="url(#clipPath2)" fill="none" x1="22" x2="26" y1="364" y2="364"/>
<line clip-path="url(#clipPath2)" fill="none" x1="550" x2="546" y1="364" y2="364"/>
<text x="9" font-size="11" y="369" clip-path="url(#clipPath2)" stroke="none" xml:space="preserve">10</text>
<text x="553" font-size="11" y="369" clip-path="url(#clipPath2)" stroke="none" xml:space="preserve">10</text>
<line clip-path="url(#clipPath2)" fill="none" x1="24" x2="26" y1="351" y2="351"/>
<line clip-path="url(#clipPath2)" fill="none" x1="548" x2="546" y1="351" y2="351"/>
<line clip-path="url(#clipPath2)" fill="none" x1="24" x2="26" y1="338" y2="338"/>
<line clip-path="url(#clipPath2)" fill="none" x1="548" x2="546" y1="338" y2="338"/>
<line clip-path="url(#clipPath2)" fill="none" x1="24" x2="26" y1="325" y2="325"/>
<line clip-path="url(#clipPath2)" fill="none" x1="548" x2="546" y1="325" y2="325"/>
<line clip-path="url(#clipPath2)" fill="none" x1="24" x2="26" y1="312" y2="312"/>
<line clip-path="url(#clipPath2)" fill="none" x1="548" x2="546" y1="312" y2="312"/>
<line clip-path="url(#clipPath2)" fill="none" x1="22" x2="26" y1="299" y2="299"/>
<line clip-path="url(#clipPath2)" fill="none" x1="550" x2="546" y1="299" y2="299"/>
<text x="9" font-size="11" y="304" clip-path="url(#clipPath2)" stroke="none" xml:space="preserve">20</text>
<text x="553" font-size="11" y="304" clip-path="url(#clipPath2)" stroke="none" xml:space="preserve">20</text>
<line clip-path="url(#clipPath2)" fill="none" x1="24" x2="26" y1="286" y2="286"/>
<line clip-path="url(#clipPath2)" fill="none" x1="548" x2="546" y1="286" y2="286"/>
<line clip-path="url(#clipPath2)" fill="none" x1="24" x2="26" y1="273" y2="273"/>
<line clip-path="url(#clipPath2)" fill="none" x1="548" x2="546" y1="273" y2="273"/>
<line clip-path="url(#clipPath2)" fill="none" x1="24" x2="26" y1="260" y2="260"/>
<line clip-path="url(#clipPath2)" fill="none" x1="548" x2="546" y1="260" y2="260"/>
<line clip-path="url(#clipPath2)" fill="none" x1="24" x2="26" y1="247" y2="247"/>
<line clip-path="url(#clipPath2)" fill="none" x1="548" x2="546" y1="247" y2="247"/>
<line clip-path="url(#clipPath2)" fill="none" x1="22" x2="26" y1="234" y2="234"/>
<line clip-path="url(#clipPath2)" fill="none" x1="550" x2="546" y1="234" y2="234"/>
<text x="9" font-size="11" y="239" clip-path="url(#clipPath2)" stroke="none" xml:space="preserve">30</text>
<text x="553" font-size="11" y="239" clip-path="url(#clipPath2)" stroke="none" xml:space="preserve">30</text>
<line clip-path="url(#clipPath2)" fill="none" x1="24" x2="26" y1="220" y2="220"/>
<line clip-path="url(#clipPath2)" fill="none" x1="548" x2="546" y1="220" y2="220"/>
<line clip-path="url(#clipPath2)" fill="none" x1="24" x2="26" y1="207" y2="207"/>
<line clip-path="url(#clipPath2)" fill="none" x1="548" x2="546" y1="207" y2="207"/>
<line clip-path="url(#clipPath2)" fill="none" x1="24" x2="26" y1="194" y2="194"/>
<line clip-path="url(#clipPath2)" fill="none" x1="548" x2="546" y1="194" y2="194"/>
<line clip-path="url(#clipPath2)" fill="none" x1="24" x2="26" y1="181" y2="181"/>
<line clip-path="url(#clipPath2)" fill="none" x1="548" x2="546" y1="181" y2="181"/>
<line clip-path="url(#clipPath2)" fill="none" x1="22" x2="26" y1="168" y2="168"/>
<line clip-path="url(#clipPath2)" fill="none" x1="550" x2="546" y1="168" y2="168"/>
<text x="9" font-size="11" y="173" clip-path="url(#clipPath2)" stroke="none" xml:space="preserve">40</text>
<text x="553" font-size="11" y="173" clip-path="url(#clipPath2)" stroke="none" xml:space="preserve">40</text>
<line clip-path="url(#clipPath2)" fill="none" x1="24" x2="26" y1="155" y2="155"/>
<line clip-path="url(#clipPath2)" fill="none" x1="548" x2="546" y1="155" y2="155"/>
<line clip-path="url(#clipPath2)" fill="none" x1="24" x2="26" y1="142" y2="142"/>
<line clip-path="url(#clipPath2)" fill="none" x1="548" x2="546" y1="142" y2="142"/>
<line clip-path="url(#clipPath2)" fill="none" x1="24" x2="26" y1="129" y2="129"/>
<line clip-path="url(#clipPath2)" fill="none" x1="548" x2="546" y1="129" y2="129"/>
<line clip-path="url(#clipPath2)" fill="none" x1="24" x2="26" y1="116" y2="116"/>
<line clip-path="url(#clipPath2)" fill="none" x1="548" x2="546" y1="116" y2="116"/>
<line clip-path="url(#clipPath2)" fill="none" x1="22" x2="26" y1="103" y2="103"/>
<line clip-path="url(#clipPath2)" fill="none" x1="550" x2="546" y1="103" y2="103"/>
<text x="9" font-size="11" y="108" clip-path="url(#clipPath2)" stroke="none" xml:space="preserve">50</text>
<text x="553" font-size="11" y="108" clip-path="url(#clipPath2)" stroke="none" xml:space="preserve">50</text>
<line clip-path="url(#clipPath2)" fill="none" x1="24" x2="26" y1="90" y2="90"/>
<line clip-path="url(#clipPath2)" fill="none" x1="548" x2="546" y1="90" y2="90"/>
<line clip-path="url(#clipPath2)" fill="none" x1="24" x2="26" y1="76" y2="76"/>
<line clip-path="url(#clipPath2)" fill="none" x1="548" x2="546" y1="76" y2="76"/>
<line clip-path="url(#clipPath2)" fill="none" x1="24" x2="26" y1="63" y2="63"/>
<line clip-path="url(#clipPath2)" fill="none" x1="548" x2="546" y1="63" y2="63"/>
<line clip-path="url(#clipPath2)" fill="none" x1="24" x2="26" y1="50" y2="50"/>
<line clip-path="url(#clipPath2)" fill="none" x1="548" x2="546" y1="50" y2="50"/>
<line clip-path="url(#clipPath2)" fill="none" x1="22" x2="26" y1="37" y2="37"/>
<line clip-path="url(#clipPath2)" fill="none" x1="550" x2="546" y1="37" y2="37"/>
<text x="9" font-size="11" y="42" clip-path="url(#clipPath2)" stroke="none" xml:space="preserve">60</text>
<text x="553" font-size="11" y="42" clip-path="url(#clipPath2)" stroke="none" xml:space="preserve">60</text>
<line clip-path="url(#clipPath2)" fill="none" x1="24" x2="26" y1="24" y2="24"/>
<line clip-path="url(#clipPath2)" fill="none" x1="548" x2="546" y1="24" y2="24"/>
</g>
</g>
</svg>
