<?xml version="1.0" encoding="UTF-8"?><svg xmlns="http://www.w3.org/2000/svg" xmlns:xlink="http://www.w3.org/1999/xlink" stroke-dasharray="none" shape-rendering="auto" font-family="'Dialog'" width="701" text-rendering="auto" fill-opacity="1" contentScriptType="text/ecmascript" color-interpolation="auto" color-rendering="auto" preserveAspectRatio="xMidYMid meet" font-size="12" fill="black" stroke="black" image-rendering="auto" stroke-miterlimit="10" zoomAndPan="magnify" version="1.0" stroke-linecap="square" stroke-linejoin="miter" contentStyleType="text/css" font-style="normal" height="528" stroke-width="1" stroke-dashoffset="0" font-weight="normal" stroke-opacity="1">
<!--Generated by the Batik Graphics2D SVG Generator-->
<defs id="genericDefs"/>
<g>
<defs id="defs1">
<clipPath clipPathUnits="userSpaceOnUse" id="clipPath1">
<path d="M31 22 L670 22 L670 506 L31 506 L31 22 Z"/>
</clipPath>
<clipPath clipPathUnits="userSpaceOnUse" id="clipPath2">
<path d="M-1 -1 L702 -1 L702 529 L-1 529 L-1 -1 Z"/>
</clipPath>
</defs>
<g font-size="15" fill="white" text-rendering="geometricPrecision" font-family="'Cantarell'" stroke-linejoin="round" stroke="white" stroke-width="0" stroke-miterlimit="0">
<rect x="32" y="23" clip-path="url(#clipPath1)" width="637" height="482" stroke="none"/>
</g>
<g stroke-linecap="butt" font-size="15" fill="rgb(204,204,204)" text-rendering="geometricPrecision" font-family="'Cantarell'" stroke-dasharray="3,3" stroke="rgb(204,204,204)">
<line clip-path="url(#clipPath1)" fill="none" x1="32" x2="32" y1="23" y2="505"/>
<line clip-path="url(#clipPath1)" fill="none" x1="95" x2="95" y1="23" y2="505"/>
<line clip-path="url(#clipPath1)" fill="none" x1="158" x2="158" y1="23" y2="505"/>
<line clip-path="url(#clipPath1)" fill="none" x1="222" x2="222" y1="23" y2="505"/>
<line clip-path="url(#clipPath1)" fill="none" x1="285" x2="285" y1="23" y2="505"/>
<line clip-path="url(#clipPath1)" fill="none" x1="349" x2="349" y1="23" y2="505"/>
<line clip-path="url(#clipPath1)" fill="none" x1="412" x2="412" y1="23" y2="505"/>
<line clip-path="url(#clipPath1)" fill="none" x1="476" x2="476" y1="23" y2="505"/>
<line clip-path="url(#clipPath1)" fill="none" x1="539" x2="539" y1="23" y2="505"/>
<line clip-path="url(#clipPath1)" fill="none" x1="602" x2="602" y1="23" y2="505"/>
<line clip-path="url(#clipPath1)" fill="none" x1="666" x2="666" y1="23" y2="505"/>
<line clip-path="url(#clipPath1)" fill="none" x1="32" x2="669" y1="505" y2="505"/>
<line clip-path="url(#clipPath1)" fill="none" x1="32" x2="669" y1="418" y2="418"/>
<line clip-path="url(#clipPath1)" fill="none" x1="32" x2="669" y1="331" y2="331"/>
<line clip-path="url(#clipPath1)" fill="none" x1="32" x2="669" y1="244" y2="244"/>
<line clip-path="url(#clipPath1)" fill="none" x1="32" x2="669" y1="157" y2="157"/>
<line clip-path="url(#clipPath1)" fill="none" x1="32" x2="669" y1="70" y2="70"/>
<rect x="69" y="68" clip-path="url(#clipPath1)" fill="rgb(0,0,139)" width="5" height="5" stroke="none"/>
</g>
<g stroke-linecap="butt" font-size="15" fill="rgb(0,0,139)" text-rendering="geometricPrecision" font-family="'Cantarell'" shape-rendering="crispEdges" stroke="rgb(0,0,139)">
<line clip-path="url(#clipPath1)" fill="none" x1="71" x2="71" y1="70" y2="505"/>
<rect x="69" y="503" clip-path="url(#clipPath1)" width="5" shape-rendering="auto" height="5" stroke="none"/>
<line clip-path="url(#clipPath1)" fill="none" x1="71" x2="76" y1="505" y2="70" shape-rendering="auto"/>
<rect x="74" y="68" clip-path="url(#clipPath1)" width="5" shape-rendering="auto" height="5" stroke="none"/>
<line clip-path="url(#clipPath1)" fill="none" x1="76" x2="76" y1="70" y2="505"/>
<rect x="74" y="503" clip-path="url(#clipPath1)" width="5" shape-rendering="auto" height="5" stroke="none"/>
<line clip-path="url(#clipPath1)" fill="none" x1="76" x2="94" y1="505" y2="70" shape-rendering="auto"/>
<rect x="92" y="68" clip-path="url(#clipPath1)" width="5" shape-rendering="auto" height="5" stroke="none"/>
<line clip-path="url(#clipPath1)" fill="none" x1="94" x2="94" y1="70" y2="505"/>
<rect x="92" y="503" clip-path="url(#clipPath1)" width="5" shape-rendering="auto" height="5" stroke="none"/>
<line clip-path="url(#clipPath1)" fill="none" x1="94" x2="96" y1="505" y2="70" shape-rendering="auto"/>
<rect x="94" y="68" clip-path="url(#clipPath1)" width="5" shape-rendering="auto" height="5" stroke="none"/>
<line clip-path="url(#clipPath1)" fill="none" x1="96" x2="96" y1="70" y2="505"/>
<rect x="94" y="503" clip-path="url(#clipPath1)" width="5" shape-rendering="auto" height="5" stroke="none"/>
<line clip-path="url(#clipPath1)" fill="none" x1="96" x2="114" y1="505" y2="70" shape-rendering="auto"/>
<rect x="112" y="68" clip-path="url(#clipPath1)" width="5" shape-rendering="auto" height="5" stroke="none"/>
<line clip-path="url(#clipPath1)" fill="none" x1="114" x2="114" y1="70" y2="505"/>
<rect x="112" y="503" clip-path="url(#clipPath1)" width="5" shape-rendering="auto" height="5" stroke="none"/>
<line clip-path="url(#clipPath1)" fill="none" x1="114" x2="118" y1="505" y2="70" shape-rendering="auto"/>
<rect x="116" y="68" clip-path="url(#clipPath1)" width="5" shape-rendering="auto" height="5" stroke="none"/>
<line clip-path="url(#clipPath1)" fill="none" x1="118" x2="118" y1="70" y2="505"/>
<rect x="116" y="503" clip-path="url(#clipPath1)" width="5" shape-rendering="auto" height="5" stroke="none"/>
<line clip-path="url(#clipPath1)" fill="none" x1="118" x2="127" y1="505" y2="70" shape-rendering="auto"/>
<rect x="125" y="68" clip-path="url(#clipPath1)" width="5" shape-rendering="auto" height="5" stroke="none"/>
<line clip-path="url(#clipPath1)" fill="none" x1="127" x2="127" y1="70" y2="505"/>
<rect x="125" y="503" clip-path="url(#clipPath1)" width="5" shape-rendering="auto" height="5" stroke="none"/>
<line clip-path="url(#clipPath1)" fill="none" x1="127" x2="135" y1="505" y2="70" shape-rendering="auto"/>
<rect x="133" y="68" clip-path="url(#clipPath1)" width="5" shape-rendering="auto" height="5" stroke="none"/>
<line clip-path="url(#clipPath1)" fill="none" x1="135" x2="135" y1="70" y2="505"/>
<rect x="133" y="503" clip-path="url(#clipPath1)" width="5" shape-rendering="auto" height="5" stroke="none"/>
<line clip-path="url(#clipPath1)" fill="none" x1="135" x2="144" y1="505" y2="70" shape-rendering="auto"/>
<rect x="142" y="68" clip-path="url(#clipPath1)" width="5" shape-rendering="auto" height="5" stroke="none"/>
<line clip-path="url(#clipPath1)" fill="none" x1="144" x2="144" y1="70" y2="505"/>
<rect x="142" y="503" clip-path="url(#clipPath1)" width="5" shape-rendering="auto" height="5" stroke="none"/>
<line clip-path="url(#clipPath1)" fill="none" x1="144" x2="157" y1="505" y2="70" shape-rendering="auto"/>
<rect x="155" y="68" clip-path="url(#clipPath1)" width="5" shape-rendering="auto" height="5" stroke="none"/>
<line clip-path="url(#clipPath1)" fill="none" x1="157" x2="157" y1="70" y2="505"/>
<rect x="155" y="503" clip-path="url(#clipPath1)" width="5" shape-rendering="auto" height="5" stroke="none"/>
<line clip-path="url(#clipPath1)" fill="none" x1="157" x2="163" y1="505" y2="70" shape-rendering="auto"/>
<rect x="161" y="68" clip-path="url(#clipPath1)" width="5" shape-rendering="auto" height="5" stroke="none"/>
<line clip-path="url(#clipPath1)" fill="none" x1="163" x2="163" y1="70" y2="505"/>
<rect x="161" y="503" clip-path="url(#clipPath1)" width="5" shape-rendering="auto" height="5" stroke="none"/>
<line clip-path="url(#clipPath1)" fill="none" x1="163" x2="170" y1="505" y2="70" shape-rendering="auto"/>
<rect x="168" y="68" clip-path="url(#clipPath1)" width="5" shape-rendering="auto" height="5" stroke="none"/>
<line clip-path="url(#clipPath1)" fill="none" x1="170" x2="170" y1="70" y2="505"/>
<rect x="168" y="503" clip-path="url(#clipPath1)" width="5" shape-rendering="auto" height="5" stroke="none"/>
<line clip-path="url(#clipPath1)" fill="none" x1="170" x2="183" y1="505" y2="70" shape-rendering="auto"/>
<rect x="181" y="68" clip-path="url(#clipPath1)" width="5" shape-rendering="auto" height="5" stroke="none"/>
<line clip-path="url(#clipPath1)" fill="none" x1="183" x2="183" y1="70" y2="505"/>
<rect x="181" y="503" clip-path="url(#clipPath1)" width="5" shape-rendering="auto" height="5" stroke="none"/>
<line clip-path="url(#clipPath1)" fill="none" x1="183" x2="190" y1="505" y2="70" shape-rendering="auto"/>
<rect x="188" y="68" clip-path="url(#clipPath1)" width="5" shape-rendering="auto" height="5" stroke="none"/>
<line clip-path="url(#clipPath1)" fill="none" x1="190" x2="190" y1="70" y2="505"/>
<rect x="188" y="503" clip-path="url(#clipPath1)" width="5" shape-rendering="auto" height="5" stroke="none"/>
<line clip-path="url(#clipPath1)" fill="none" x1="190" x2="201" y1="505" y2="70" shape-rendering="auto"/>
<rect x="199" y="68" clip-path="url(#clipPath1)" width="5" shape-rendering="auto" height="5" stroke="none"/>
<line clip-path="url(#clipPath1)" fill="none" x1="201" x2="201" y1="70" y2="505"/>
<rect x="199" y="503" clip-path="url(#clipPath1)" width="5" shape-rendering="auto" height="5" stroke="none"/>
<line clip-path="url(#clipPath1)" fill="none" x1="201" x2="204" y1="505" y2="70" shape-rendering="auto"/>
<rect x="202" y="68" clip-path="url(#clipPath1)" width="5" shape-rendering="auto" height="5" stroke="none"/>
<line clip-path="url(#clipPath1)" fill="none" x1="204" x2="204" y1="70" y2="505"/>
<rect x="202" y="503" clip-path="url(#clipPath1)" width="5" shape-rendering="auto" height="5" stroke="none"/>
<line clip-path="url(#clipPath1)" fill="none" x1="204" x2="215" y1="505" y2="70" shape-rendering="auto"/>
<rect x="213" y="68" clip-path="url(#clipPath1)" width="5" shape-rendering="auto" height="5" stroke="none"/>
<line clip-path="url(#clipPath1)" fill="none" x1="215" x2="215" y1="70" y2="505"/>
<rect x="213" y="503" clip-path="url(#clipPath1)" width="5" shape-rendering="auto" height="5" stroke="none"/>
<line clip-path="url(#clipPath1)" fill="none" x1="215" x2="222" y1="505" y2="70" shape-rendering="auto"/>
<rect x="220" y="68" clip-path="url(#clipPath1)" width="5" shape-rendering="auto" height="5" stroke="none"/>
<line clip-path="url(#clipPath1)" fill="none" x1="222" x2="222" y1="70" y2="505"/>
<rect x="220" y="503" clip-path="url(#clipPath1)" width="5" shape-rendering="auto" height="5" stroke="none"/>
<line clip-path="url(#clipPath1)" fill="none" x1="222" x2="235" y1="505" y2="70" shape-rendering="auto"/>
<rect x="233" y="68" clip-path="url(#clipPath1)" width="5" shape-rendering="auto" height="5" stroke="none"/>
<line clip-path="url(#clipPath1)" fill="none" x1="235" x2="235" y1="70" y2="505"/>
<rect x="233" y="503" clip-path="url(#clipPath1)" width="5" shape-rendering="auto" height="5" stroke="none"/>
<line clip-path="url(#clipPath1)" fill="none" x1="235" x2="246" y1="505" y2="70" shape-rendering="auto"/>
<rect x="244" y="68" clip-path="url(#clipPath1)" width="5" shape-rendering="auto" height="5" stroke="none"/>
<line clip-path="url(#clipPath1)" fill="none" x1="246" x2="246" y1="70" y2="505"/>
<rect x="244" y="503" clip-path="url(#clipPath1)" width="5" shape-rendering="auto" height="5" stroke="none"/>
<line clip-path="url(#clipPath1)" fill="none" x1="246" x2="250" y1="505" y2="70" shape-rendering="auto"/>
<rect x="248" y="68" clip-path="url(#clipPath1)" width="5" shape-rendering="auto" height="5" stroke="none"/>
<line clip-path="url(#clipPath1)" fill="none" x1="250" x2="250" y1="70" y2="505"/>
<rect x="248" y="503" clip-path="url(#clipPath1)" width="5" shape-rendering="auto" height="5" stroke="none"/>
<line clip-path="url(#clipPath1)" fill="none" x1="250" x2="268" y1="505" y2="70" shape-rendering="auto"/>
<rect x="266" y="68" clip-path="url(#clipPath1)" width="5" shape-rendering="auto" height="5" stroke="none"/>
<line clip-path="url(#clipPath1)" fill="none" x1="268" x2="268" y1="70" y2="505"/>
<rect x="266" y="503" clip-path="url(#clipPath1)" width="5" shape-rendering="auto" height="5" stroke="none"/>
<line clip-path="url(#clipPath1)" fill="none" x1="268" x2="274" y1="505" y2="70" shape-rendering="auto"/>
<rect x="272" y="68" clip-path="url(#clipPath1)" width="5" shape-rendering="auto" height="5" stroke="none"/>
<line clip-path="url(#clipPath1)" fill="none" x1="274" x2="274" y1="70" y2="505"/>
<rect x="272" y="503" clip-path="url(#clipPath1)" width="5" shape-rendering="auto" height="5" stroke="none"/>
<line clip-path="url(#clipPath1)" fill="none" x1="274" x2="291" y1="505" y2="70" shape-rendering="auto"/>
<rect x="289" y="68" clip-path="url(#clipPath1)" width="5" shape-rendering="auto" height="5" stroke="none"/>
<line clip-path="url(#clipPath1)" fill="none" x1="291" x2="291" y1="70" y2="505"/>
<rect x="289" y="503" clip-path="url(#clipPath1)" width="5" shape-rendering="auto" height="5" stroke="none"/>
<line clip-path="url(#clipPath1)" fill="none" x1="291" x2="293" y1="505" y2="70" shape-rendering="auto"/>
<rect x="291" y="68" clip-path="url(#clipPath1)" width="5" shape-rendering="auto" height="5" stroke="none"/>
<line clip-path="url(#clipPath1)" fill="none" x1="293" x2="293" y1="70" y2="505"/>
<rect x="291" y="503" clip-path="url(#clipPath1)" width="5" shape-rendering="auto" height="5" stroke="none"/>
<line clip-path="url(#clipPath1)" fill="none" x1="293" x2="307" y1="505" y2="70" shape-rendering="auto"/>
<rect x="305" y="68" clip-path="url(#clipPath1)" width="5" shape-rendering="auto" height="5" stroke="none"/>
<line clip-path="url(#clipPath1)" fill="none" x1="307" x2="307" y1="70" y2="505"/>
<rect x="305" y="503" clip-path="url(#clipPath1)" width="5" shape-rendering="auto" height="5" stroke="none"/>
<line clip-path="url(#clipPath1)" fill="none" x1="307" x2="311" y1="505" y2="70" shape-rendering="auto"/>
<rect x="309" y="68" clip-path="url(#clipPath1)" width="5" shape-rendering="auto" height="5" stroke="none"/>
<line clip-path="url(#clipPath1)" fill="none" x1="311" x2="311" y1="70" y2="505"/>
<rect x="309" y="503" clip-path="url(#clipPath1)" width="5" shape-rendering="auto" height="5" stroke="none"/>
<line clip-path="url(#clipPath1)" fill="none" x1="311" x2="324" y1="505" y2="70" shape-rendering="auto"/>
<rect x="322" y="68" clip-path="url(#clipPath1)" width="5" shape-rendering="auto" height="5" stroke="none"/>
<line clip-path="url(#clipPath1)" fill="none" x1="324" x2="324" y1="70" y2="505"/>
<rect x="322" y="503" clip-path="url(#clipPath1)" width="5" shape-rendering="auto" height="5" stroke="none"/>
<line clip-path="url(#clipPath1)" fill="none" x1="324" x2="335" y1="505" y2="70" shape-rendering="auto"/>
<rect x="333" y="68" clip-path="url(#clipPath1)" width="5" shape-rendering="auto" height="5" stroke="none"/>
<line clip-path="url(#clipPath1)" fill="none" x1="335" x2="335" y1="70" y2="505"/>
<rect x="333" y="503" clip-path="url(#clipPath1)" width="5" shape-rendering="auto" height="5" stroke="none"/>
<line clip-path="url(#clipPath1)" fill="none" x1="335" x2="339" y1="505" y2="70" shape-rendering="auto"/>
<rect x="337" y="68" clip-path="url(#clipPath1)" width="5" shape-rendering="auto" height="5" stroke="none"/>
<line clip-path="url(#clipPath1)" fill="none" x1="339" x2="339" y1="70" y2="505"/>
<rect x="337" y="503" clip-path="url(#clipPath1)" width="5" shape-rendering="auto" height="5" stroke="none"/>
<line clip-path="url(#clipPath1)" fill="none" x1="339" x2="351" y1="505" y2="70" shape-rendering="auto"/>
<rect x="349" y="68" clip-path="url(#clipPath1)" width="5" shape-rendering="auto" height="5" stroke="none"/>
<line clip-path="url(#clipPath1)" fill="none" x1="351" x2="351" y1="70" y2="505"/>
<rect x="349" y="503" clip-path="url(#clipPath1)" width="5" shape-rendering="auto" height="5" stroke="none"/>
<line clip-path="url(#clipPath1)" fill="none" x1="351" x2="359" y1="505" y2="70" shape-rendering="auto"/>
<rect x="357" y="68" clip-path="url(#clipPath1)" width="5" shape-rendering="auto" height="5" stroke="none"/>
<line clip-path="url(#clipPath1)" fill="none" x1="359" x2="359" y1="70" y2="505"/>
<rect x="357" y="503" clip-path="url(#clipPath1)" width="5" shape-rendering="auto" height="5" stroke="none"/>
<line clip-path="url(#clipPath1)" fill="none" x1="359" x2="368" y1="505" y2="70" shape-rendering="auto"/>
<rect x="366" y="68" clip-path="url(#clipPath1)" width="5" shape-rendering="auto" height="5" stroke="none"/>
<line clip-path="url(#clipPath1)" fill="none" x1="368" x2="368" y1="70" y2="505"/>
<rect x="366" y="503" clip-path="url(#clipPath1)" width="5" shape-rendering="auto" height="5" stroke="none"/>
<line clip-path="url(#clipPath1)" fill="none" x1="368" x2="375" y1="505" y2="70" shape-rendering="auto"/>
<rect x="373" y="68" clip-path="url(#clipPath1)" width="5" shape-rendering="auto" height="5" stroke="none"/>
<line clip-path="url(#clipPath1)" fill="none" x1="375" x2="375" y1="70" y2="505"/>
<rect x="373" y="503" clip-path="url(#clipPath1)" width="5" shape-rendering="auto" height="5" stroke="none"/>
<line clip-path="url(#clipPath1)" fill="none" x1="375" x2="386" y1="505" y2="70" shape-rendering="auto"/>
<rect x="384" y="68" clip-path="url(#clipPath1)" width="5" shape-rendering="auto" height="5" stroke="none"/>
<line clip-path="url(#clipPath1)" fill="none" x1="386" x2="386" y1="70" y2="505"/>
<rect x="384" y="503" clip-path="url(#clipPath1)" width="5" shape-rendering="auto" height="5" stroke="none"/>
<line clip-path="url(#clipPath1)" fill="none" x1="386" x2="399" y1="505" y2="70" shape-rendering="auto"/>
<rect x="397" y="68" clip-path="url(#clipPath1)" width="5" shape-rendering="auto" height="5" stroke="none"/>
<line clip-path="url(#clipPath1)" fill="none" x1="399" x2="399" y1="70" y2="505"/>
<rect x="397" y="503" clip-path="url(#clipPath1)" width="5" shape-rendering="auto" height="5" stroke="none"/>
<line clip-path="url(#clipPath1)" fill="none" x1="399" x2="404" y1="505" y2="70" shape-rendering="auto"/>
<rect x="402" y="68" clip-path="url(#clipPath1)" width="5" shape-rendering="auto" height="5" stroke="none"/>
<line clip-path="url(#clipPath1)" fill="none" x1="404" x2="404" y1="70" y2="505"/>
<rect x="402" y="503" clip-path="url(#clipPath1)" width="5" shape-rendering="auto" height="5" stroke="none"/>
<line clip-path="url(#clipPath1)" fill="none" x1="404" x2="422" y1="505" y2="70" shape-rendering="auto"/>
<rect x="420" y="68" clip-path="url(#clipPath1)" width="5" shape-rendering="auto" height="5" stroke="none"/>
<line clip-path="url(#clipPath1)" fill="none" x1="422" x2="422" y1="70" y2="505"/>
<rect x="420" y="503" clip-path="url(#clipPath1)" width="5" shape-rendering="auto" height="5" stroke="none"/>
<line clip-path="url(#clipPath1)" fill="none" x1="422" x2="425" y1="505" y2="70" shape-rendering="auto"/>
<rect x="423" y="68" clip-path="url(#clipPath1)" width="5" shape-rendering="auto" height="5" stroke="none"/>
<line clip-path="url(#clipPath1)" fill="none" x1="425" x2="425" y1="70" y2="505"/>
<rect x="423" y="503" clip-path="url(#clipPath1)" width="5" shape-rendering="auto" height="5" stroke="none"/>
<line clip-path="url(#clipPath1)" fill="none" x1="425" x2="445" y1="505" y2="70" shape-rendering="auto"/>
<rect x="443" y="68" clip-path="url(#clipPath1)" width="5" shape-rendering="auto" height="5" stroke="none"/>
<line clip-path="url(#clipPath1)" fill="none" x1="445" x2="445" y1="70" y2="505"/>
<rect x="443" y="503" clip-path="url(#clipPath1)" width="5" shape-rendering="auto" height="5" stroke="none"/>
<line clip-path="url(#clipPath1)" fill="none" x1="445" x2="449" y1="505" y2="70" shape-rendering="auto"/>
<rect x="447" y="68" clip-path="url(#clipPath1)" width="5" shape-rendering="auto" height="5" stroke="none"/>
<line clip-path="url(#clipPath1)" fill="none" x1="449" x2="449" y1="70" y2="505"/>
<rect x="447" y="503" clip-path="url(#clipPath1)" width="5" shape-rendering="auto" height="5" stroke="none"/>
<line clip-path="url(#clipPath1)" fill="none" x1="449" x2="460" y1="505" y2="70" shape-rendering="auto"/>
<rect x="458" y="68" clip-path="url(#clipPath1)" width="5" shape-rendering="auto" height="5" stroke="none"/>
<line clip-path="url(#clipPath1)" fill="none" x1="460" x2="460" y1="70" y2="505"/>
<rect x="458" y="503" clip-path="url(#clipPath1)" width="5" shape-rendering="auto" height="5" stroke="none"/>
<line clip-path="url(#clipPath1)" fill="none" x1="460" x2="463" y1="505" y2="70" shape-rendering="auto"/>
<rect x="461" y="68" clip-path="url(#clipPath1)" width="5" shape-rendering="auto" height="5" stroke="none"/>
<line clip-path="url(#clipPath1)" fill="none" x1="463" x2="463" y1="70" y2="505"/>
<rect x="461" y="503" clip-path="url(#clipPath1)" width="5" shape-rendering="auto" height="5" stroke="none"/>
<line clip-path="url(#clipPath1)" fill="none" x1="463" x2="478" y1="505" y2="70" shape-rendering="auto"/>
<rect x="476" y="68" clip-path="url(#clipPath1)" width="5" shape-rendering="auto" height="5" stroke="none"/>
<line clip-path="url(#clipPath1)" fill="none" x1="478" x2="478" y1="70" y2="505"/>
<rect x="476" y="503" clip-path="url(#clipPath1)" width="5" shape-rendering="auto" height="5" stroke="none"/>
<line clip-path="url(#clipPath1)" fill="none" x1="478" x2="485" y1="505" y2="70" shape-rendering="auto"/>
<rect x="483" y="68" clip-path="url(#clipPath1)" width="5" shape-rendering="auto" height="5" stroke="none"/>
<line clip-path="url(#clipPath1)" fill="none" x1="485" x2="485" y1="70" y2="505"/>
<rect x="483" y="503" clip-path="url(#clipPath1)" width="5" shape-rendering="auto" height="5" stroke="none"/>
<line clip-path="url(#clipPath1)" fill="none" x1="485" x2="498" y1="505" y2="70" shape-rendering="auto"/>
<rect x="496" y="68" clip-path="url(#clipPath1)" width="5" shape-rendering="auto" height="5" stroke="none"/>
<line clip-path="url(#clipPath1)" fill="none" x1="498" x2="498" y1="70" y2="505"/>
<rect x="496" y="503" clip-path="url(#clipPath1)" width="5" shape-rendering="auto" height="5" stroke="none"/>
<line clip-path="url(#clipPath1)" fill="none" x1="498" x2="507" y1="505" y2="70" shape-rendering="auto"/>
<rect x="505" y="68" clip-path="url(#clipPath1)" width="5" shape-rendering="auto" height="5" stroke="none"/>
<line clip-path="url(#clipPath1)" fill="none" x1="507" x2="507" y1="70" y2="505"/>
<rect x="505" y="503" clip-path="url(#clipPath1)" width="5" shape-rendering="auto" height="5" stroke="none"/>
<line clip-path="url(#clipPath1)" fill="none" x1="507" x2="517" y1="505" y2="70" shape-rendering="auto"/>
<rect x="515" y="68" clip-path="url(#clipPath1)" width="5" shape-rendering="auto" height="5" stroke="none"/>
<line clip-path="url(#clipPath1)" fill="none" x1="517" x2="517" y1="70" y2="505"/>
<rect x="515" y="503" clip-path="url(#clipPath1)" width="5" shape-rendering="auto" height="5" stroke="none"/>
<line clip-path="url(#clipPath1)" fill="none" x1="517" x2="530" y1="505" y2="70" shape-rendering="auto"/>
<rect x="528" y="68" clip-path="url(#clipPath1)" width="5" shape-rendering="auto" height="5" stroke="none"/>
<line clip-path="url(#clipPath1)" fill="none" x1="530" x2="530" y1="70" y2="505"/>
<rect x="528" y="503" clip-path="url(#clipPath1)" width="5" shape-rendering="auto" height="5" stroke="none"/>
<line clip-path="url(#clipPath1)" fill="none" x1="530" x2="539" y1="505" y2="70" shape-rendering="auto"/>
<rect x="537" y="68" clip-path="url(#clipPath1)" width="5" shape-rendering="auto" height="5" stroke="none"/>
<line clip-path="url(#clipPath1)" fill="none" x1="539" x2="539" y1="70" y2="505"/>
<rect x="537" y="503" clip-path="url(#clipPath1)" width="5" shape-rendering="auto" height="5" stroke="none"/>
<line clip-path="url(#clipPath1)" fill="none" x1="539" x2="549" y1="505" y2="70" shape-rendering="auto"/>
<rect x="547" y="68" clip-path="url(#clipPath1)" width="5" shape-rendering="auto" height="5" stroke="none"/>
<line clip-path="url(#clipPath1)" fill="none" x1="549" x2="549" y1="70" y2="505"/>
<rect x="547" y="503" clip-path="url(#clipPath1)" width="5" shape-rendering="auto" height="5" stroke="none"/>
<line clip-path="url(#clipPath1)" fill="none" x1="549" x2="552" y1="505" y2="70" shape-rendering="auto"/>
<rect x="550" y="68" clip-path="url(#clipPath1)" width="5" shape-rendering="auto" height="5" stroke="none"/>
<line clip-path="url(#clipPath1)" fill="none" x1="552" x2="552" y1="70" y2="505"/>
<rect x="550" y="503" clip-path="url(#clipPath1)" width="5" shape-rendering="auto" height="5" stroke="none"/>
<line clip-path="url(#clipPath1)" fill="none" x1="552" x2="566" y1="505" y2="70" shape-rendering="auto"/>
<rect x="564" y="68" clip-path="url(#clipPath1)" width="5" shape-rendering="auto" height="5" stroke="none"/>
<line clip-path="url(#clipPath1)" fill="none" x1="566" x2="566" y1="70" y2="505"/>
<rect x="564" y="503" clip-path="url(#clipPath1)" width="5" shape-rendering="auto" height="5" stroke="none"/>
<line clip-path="url(#clipPath1)" fill="none" x1="566" x2="568" y1="505" y2="70" shape-rendering="auto"/>
<rect x="566" y="68" clip-path="url(#clipPath1)" width="5" shape-rendering="auto" height="5" stroke="none"/>
<line clip-path="url(#clipPath1)" fill="none" x1="568" x2="568" y1="70" y2="505"/>
<rect x="566" y="503" clip-path="url(#clipPath1)" width="5" shape-rendering="auto" height="5" stroke="none"/>
<line clip-path="url(#clipPath1)" fill="none" x1="568" x2="583" y1="505" y2="70" shape-rendering="auto"/>
<rect x="581" y="68" clip-path="url(#clipPath1)" width="5" shape-rendering="auto" height="5" stroke="none"/>
<line clip-path="url(#clipPath1)" fill="none" x1="583" x2="583" y1="70" y2="505"/>
<rect x="581" y="503" clip-path="url(#clipPath1)" width="5" shape-rendering="auto" height="5" stroke="none"/>
<line clip-path="url(#clipPath1)" fill="none" x1="583" x2="586" y1="505" y2="70" shape-rendering="auto"/>
<rect x="584" y="68" clip-path="url(#clipPath1)" width="5" shape-rendering="auto" height="5" stroke="none"/>
<line clip-path="url(#clipPath1)" fill="none" x1="586" x2="586" y1="70" y2="505"/>
<rect x="584" y="503" clip-path="url(#clipPath1)" width="5" shape-rendering="auto" height="5" stroke="none"/>
<line clip-path="url(#clipPath1)" fill="none" x1="586" x2="602" y1="505" y2="70" shape-rendering="auto"/>
<rect x="600" y="68" clip-path="url(#clipPath1)" width="5" shape-rendering="auto" height="5" stroke="none"/>
<line clip-path="url(#clipPath1)" fill="none" x1="602" x2="602" y1="70" y2="505"/>
<rect x="600" y="503" clip-path="url(#clipPath1)" width="5" shape-rendering="auto" height="5" stroke="none"/>
<line clip-path="url(#clipPath1)" fill="none" x1="602" x2="606" y1="505" y2="70" shape-rendering="auto"/>
<rect x="604" y="68" clip-path="url(#clipPath1)" width="5" shape-rendering="auto" height="5" stroke="none"/>
<line clip-path="url(#clipPath1)" fill="none" x1="606" x2="606" y1="70" y2="505"/>
<rect x="604" y="503" clip-path="url(#clipPath1)" width="5" shape-rendering="auto" height="5" stroke="none"/>
<line clip-path="url(#clipPath1)" fill="none" x1="606" x2="617" y1="505" y2="70" shape-rendering="auto"/>
<rect x="615" y="68" clip-path="url(#clipPath1)" width="5" shape-rendering="auto" height="5" stroke="none"/>
<line clip-path="url(#clipPath1)" fill="none" x1="617" x2="617" y1="70" y2="505"/>
<rect x="615" y="503" clip-path="url(#clipPath1)" width="5" shape-rendering="auto" height="5" stroke="none"/>
<line clip-path="url(#clipPath1)" fill="none" x1="617" x2="631" y1="505" y2="70" shape-rendering="auto"/>
<rect x="629" y="68" clip-path="url(#clipPath1)" width="5" shape-rendering="auto" height="5" stroke="none"/>
<line clip-path="url(#clipPath1)" fill="none" x1="631" x2="631" y1="70" y2="505"/>
<rect x="629" y="503" clip-path="url(#clipPath1)" width="5" shape-rendering="auto" height="5" stroke="none"/>
<line clip-path="url(#clipPath1)" fill="none" x1="631" x2="637" y1="505" y2="70" shape-rendering="auto"/>
<rect x="635" y="68" clip-path="url(#clipPath1)" width="5" shape-rendering="auto" height="5" stroke="none"/>
<line clip-path="url(#clipPath1)" fill="none" x1="637" x2="637" y1="70" y2="505"/>
<rect x="635" y="503" clip-path="url(#clipPath1)" width="5" shape-rendering="auto" height="5" stroke="none"/>
<line clip-path="url(#clipPath1)" fill="none" x1="637" x2="649" y1="505" y2="70" shape-rendering="auto"/>
<rect x="647" y="68" clip-path="url(#clipPath1)" width="5" shape-rendering="auto" height="5" stroke="none"/>
<line clip-path="url(#clipPath1)" fill="none" x1="649" x2="649" y1="70" y2="505"/>
<rect x="647" y="503" clip-path="url(#clipPath1)" width="5" shape-rendering="auto" height="5" stroke="none"/>
<line clip-path="url(#clipPath1)" fill="none" x1="649" x2="661" y1="505" y2="70" shape-rendering="auto"/>
<rect x="659" y="68" clip-path="url(#clipPath1)" width="5" shape-rendering="auto" height="5" stroke="none"/>
<line clip-path="url(#clipPath1)" fill="none" x1="661" x2="661" y1="70" y2="505"/>
<rect x="659" y="503" clip-path="url(#clipPath1)" width="5" shape-rendering="auto" height="5" stroke="none"/>
<rect x="32" y="23" clip-path="url(#clipPath2)" fill="none" width="637" shape-rendering="auto" height="482" stroke="black"/>
</g>
<g text-rendering="geometricPrecision" font-size="13" stroke-linecap="butt">
<line clip-path="url(#clipPath2)" fill="none" x1="32" x2="669" y1="21" y2="21"/>
<line clip-path="url(#clipPath2)" fill="none" x1="32" x2="669" y1="507" y2="507"/>
<line clip-path="url(#clipPath2)" fill="none" x1="32" x2="32" y1="17" y2="21"/>
<line clip-path="url(#clipPath2)" fill="none" x1="32" x2="32" y1="511" y2="507"/>
<text x="24" font-size="11" y="14" clip-path="url(#clipPath2)" stroke="none" xml:space="preserve">0.0</text>
<text x="24" font-size="11" y="523" clip-path="url(#clipPath2)" stroke="none" xml:space="preserve">0.0</text>
<line clip-path="url(#clipPath2)" fill="none" x1="44" x2="44" y1="19" y2="21"/>
<line clip-path="url(#clipPath2)" fill="none" x1="44" x2="44" y1="509" y2="507"/>
<line clip-path="url(#clipPath2)" fill="none" x1="57" x2="57" y1="19" y2="21"/>
<line clip-path="url(#clipPath2)" fill="none" x1="57" x2="57" y1="509" y2="507"/>
<line clip-path="url(#clipPath2)" fill="none" x1="70" x2="70" y1="19" y2="21"/>
<line clip-path="url(#clipPath2)" fill="none" x1="70" x2="70" y1="509" y2="507"/>
<line clip-path="url(#clipPath2)" fill="none" x1="82" x2="82" y1="19" y2="21"/>
<line clip-path="url(#clipPath2)" fill="none" x1="82" x2="82" y1="509" y2="507"/>
<line clip-path="url(#clipPath2)" fill="none" x1="95" x2="95" y1="17" y2="21"/>
<line clip-path="url(#clipPath2)" fill="none" x1="95" x2="95" y1="511" y2="507"/>
<text x="84" font-size="11" y="14" clip-path="url(#clipPath2)" stroke="none" xml:space="preserve">0.05</text>
<text x="84" font-size="11" y="523" clip-path="url(#clipPath2)" stroke="none" xml:space="preserve">0.05</text>
<line clip-path="url(#clipPath2)" fill="none" x1="108" x2="108" y1="19" y2="21"/>
<line clip-path="url(#clipPath2)" fill="none" x1="108" x2="108" y1="509" y2="507"/>
<line clip-path="url(#clipPath2)" fill="none" x1="120" x2="120" y1="19" y2="21"/>
<line clip-path="url(#clipPath2)" fill="none" x1="120" x2="120" y1="509" y2="507"/>
<line clip-path="url(#clipPath2)" fill="none" x1="133" x2="133" y1="19" y2="21"/>
<line clip-path="url(#clipPath2)" fill="none" x1="133" x2="133" y1="509" y2="507"/>
<line clip-path="url(#clipPath2)" fill="none" x1="146" x2="146" y1="19" y2="21"/>
<line clip-path="url(#clipPath2)" fill="none" x1="146" x2="146" y1="509" y2="507"/>
<line clip-path="url(#clipPath2)" fill="none" x1="158" x2="158" y1="17" y2="21"/>
<line clip-path="url(#clipPath2)" fill="none" x1="158" x2="158" y1="511" y2="507"/>
<text x="147" font-size="11" y="14" clip-path="url(#clipPath2)" stroke="none" xml:space="preserve">0.10</text>
<text x="147" font-size="11" y="523" clip-path="url(#clipPath2)" stroke="none" xml:space="preserve">0.10</text>
<line clip-path="url(#clipPath2)" fill="none" x1="171" x2="171" y1="19" y2="21"/>
<line clip-path="url(#clipPath2)" fill="none" x1="171" x2="171" y1="509" y2="507"/>
<line clip-path="url(#clipPath2)" fill="none" x1="184" x2="184" y1="19" y2="21"/>
<line clip-path="url(#clipPath2)" fill="none" x1="184" x2="184" y1="509" y2="507"/>
<line clip-path="url(#clipPath2)" fill="none" x1="196" x2="196" y1="19" y2="21"/>
<line clip-path="url(#clipPath2)" fill="none" x1="196" x2="196" y1="509" y2="507"/>
<line clip-path="url(#clipPath2)" fill="none" x1="209" x2="209" y1="19" y2="21"/>
<line clip-path="url(#clipPath2)" fill="none" x1="209" x2="209" y1="509" y2="507"/>
<line clip-path="url(#clipPath2)" fill="none" x1="222" x2="222" y1="17" y2="21"/>
<line clip-path="url(#clipPath2)" fill="none" x1="222" x2="222" y1="511" y2="507"/>
<text x="211" font-size="11" y="14" clip-path="url(#clipPath2)" stroke="none" xml:space="preserve">0.15</text>
<text x="211" font-size="11" y="523" clip-path="url(#clipPath2)" stroke="none" xml:space="preserve">0.15</text>
<line clip-path="url(#clipPath2)" fill="none" x1="234" x2="234" y1="19" y2="21"/>
<line clip-path="url(#clipPath2)" fill="none" x1="234" x2="234" y1="509" y2="507"/>
<line clip-path="url(#clipPath2)" fill="none" x1="247" x2="247" y1="19" y2="21"/>
<line clip-path="url(#clipPath2)" fill="none" x1="247" x2="247" y1="509" y2="507"/>
<line clip-path="url(#clipPath2)" fill="none" x1="260" x2="260" y1="19" y2="21"/>
<line clip-path="url(#clipPath2)" fill="none" x1="260" x2="260" y1="509" y2="507"/>
<line clip-path="url(#clipPath2)" fill="none" x1="273" x2="273" y1="19" y2="21"/>
<line clip-path="url(#clipPath2)" fill="none" x1="273" x2="273" y1="509" y2="507"/>
<line clip-path="url(#clipPath2)" fill="none" x1="285" x2="285" y1="17" y2="21"/>
<line clip-path="url(#clipPath2)" fill="none" x1="285" x2="285" y1="511" y2="507"/>
<text x="274" font-size="11" y="14" clip-path="url(#clipPath2)" stroke="none" xml:space="preserve">0.20</text>
<text x="274" font-size="11" y="523" clip-path="url(#clipPath2)" stroke="none" xml:space="preserve">0.20</text>
<line clip-path="url(#clipPath2)" fill="none" x1="298" x2="298" y1="19" y2="21"/>
<line clip-path="url(#clipPath2)" fill="none" x1="298" x2="298" y1="509" y2="507"/>
<line clip-path="url(#clipPath2)" fill="none" x1="311" x2="311" y1="19" y2="21"/>
<line clip-path="url(#clipPath2)" fill="none" x1="311" x2="311" y1="509" y2="507"/>
<line clip-path="url(#clipPath2)" fill="none" x1="323" x2="323" y1="19" y2="21"/>
<line clip-path="url(#clipPath2)" fill="none" x1="323" x2="323" y1="509" y2="507"/>
<line clip-path="url(#clipPath2)" fill="none" x1="336" x2="336" y1="19" y2="21"/>
<line clip-path="url(#clipPath2)" fill="none" x1="336" x2="336" y1="509" y2="507"/>
<line clip-path="url(#clipPath2)" fill="none" x1="349" x2="349" y1="17" y2="21"/>
<line clip-path="url(#clipPath2)" fill="none" x1="349" x2="349" y1="511" y2="507"/>
<text x="338" font-size="11" y="14" clip-path="url(#clipPath2)" stroke="none" xml:space="preserve">0.25</text>
<text x="338" font-size="11" y="523" clip-path="url(#clipPath2)" stroke="none" xml:space="preserve">0.25</text>
<line clip-path="url(#clipPath2)" fill="none" x1="361" x2="361" y1="19" y2="21"/>
<line clip-path="url(#clipPath2)" fill="none" x1="361" x2="361" y1="509" y2="507"/>
<line clip-path="url(#clipPath2)" fill="none" x1="374" x2="374" y1="19" y2="21"/>
<line clip-path="url(#clipPath2)" fill="none" x1="374" x2="374" y1="509" y2="507"/>
<line clip-path="url(#clipPath2)" fill="none" x1="387" x2="387" y1="19" y2="21"/>
<line clip-path="url(#clipPath2)" fill="none" x1="387" x2="387" y1="509" y2="507"/>
<line clip-path="url(#clipPath2)" fill="none" x1="399" x2="399" y1="19" y2="21"/>
<line clip-path="url(#clipPath2)" fill="none" x1="399" x2="399" y1="509" y2="507"/>
<line clip-path="url(#clipPath2)" fill="none" x1="412" x2="412" y1="17" y2="21"/>
<line clip-path="url(#clipPath2)" fill="none" x1="412" x2="412" y1="511" y2="507"/>
<text x="401" font-size="11" y="14" clip-path="url(#clipPath2)" stroke="none" xml:space="preserve">0.30</text>
<text x="401" font-size="11" y="523" clip-path="url(#clipPath2)" stroke="none" xml:space="preserve">0.30</text>
<line clip-path="url(#clipPath2)" fill="none" x1="425" x2="425" y1="19" y2="21"/>
<line clip-path="url(#clipPath2)" fill="none" x1="425" x2="425" y1="509" y2="507"/>
<line clip-path="url(#clipPath2)" fill="none" x1="437" x2="437" y1="19" y2="21"/>
<line clip-path="url(#clipPath2)" fill="none" x1="437" x2="437" y1="509" y2="507"/>
<line clip-path="url(#clipPath2)" fill="none" x1="450" x2="450" y1="19" y2="21"/>
<line clip-path="url(#clipPath2)" fill="none" x1="450" x2="450" y1="509" y2="507"/>
<line clip-path="url(#clipPath2)" fill="none" x1="463" x2="463" y1="19" y2="21"/>
<line clip-path="url(#clipPath2)" fill="none" x1="463" x2="463" y1="509" y2="507"/>
<line clip-path="url(#clipPath2)" fill="none" x1="476" x2="476" y1="17" y2="21"/>
<line clip-path="url(#clipPath2)" fill="none" x1="476" x2="476" y1="511" y2="507"/>
<text x="465" font-size="11" y="14" clip-path="url(#clipPath2)" stroke="none" xml:space="preserve">0.35</text>
<text x="465" font-size="11" y="523" clip-path="url(#clipPath2)" stroke="none" xml:space="preserve">0.35</text>
<line clip-path="url(#clipPath2)" fill="none" x1="488" x2="488" y1="19" y2="21"/>
<line clip-path="url(#clipPath2)" fill="none" x1="488" x2="488" y1="509" y2="507"/>
<line clip-path="url(#clipPath2)" fill="none" x1="501" x2="501" y1="19" y2="21"/>
<line clip-path="url(#clipPath2)" fill="none" x1="501" x2="501" y1="509" y2="507"/>
<line clip-path="url(#clipPath2)" fill="none" x1="514" x2="514" y1="19" y2="21"/>
<line clip-path="url(#clipPath2)" fill="none" x1="514" x2="514" y1="509" y2="507"/>
<line clip-path="url(#clipPath2)" fill="none" x1="526" x2="526" y1="19" y2="21"/>
<line clip-path="url(#clipPath2)" fill="none" x1="526" x2="526" y1="509" y2="507"/>
<line clip-path="url(#clipPath2)" fill="none" x1="539" x2="539" y1="17" y2="21"/>
<line clip-path="url(#clipPath2)" fill="none" x1="539" x2="539" y1="511" y2="507"/>
<text x="528" font-size="11" y="14" clip-path="url(#clipPath2)" stroke="none" xml:space="preserve">0.40</text>
<text x="528" font-size="11" y="523" clip-path="url(#clipPath2)" stroke="none" xml:space="preserve">0.40</text>
<line clip-path="url(#clipPath2)" fill="none" x1="552" x2="552" y1="19" y2="21"/>
<line clip-path="url(#clipPath2)" fill="none" x1="552" x2="552" y1="509" y2="507"/>
<line clip-path="url(#clipPath2)" fill="none" x1="564" x2="564" y1="19" y2="21"/>
<line clip-path="url(#clipPath2)" fill="none" x1="564" x2="564" y1="509" y2="507"/>
<line clip-path="url(#clipPath2)" fill="none" x1="577" x2="577" y1="19" y2="21"/>
<line clip-path="url(#clipPath2)" fill="none" x1="577" x2="577" y1="509" y2="507"/>
<line clip-path="url(#clipPath2)" fill="none" x1="590" x2="590" y1="19" y2="21"/>
<line clip-path="url(#clipPath2)" fill="none" x1="590" x2="590" y1="509" y2="507"/>
<line clip-path="url(#clipPath2)" fill="none" x1="602" x2="602" y1="17" y2="21"/>
<line clip-path="url(#clipPath2)" fill="none" x1="602" x2="602" y1="511" y2="507"/>
<text x="591" font-size="11" y="14" clip-path="url(#clipPath2)" stroke="none" xml:space="preserve">0.45</text>
<text x="591" font-size="11" y="523" clip-path="url(#clipPath2)" stroke="none" xml:space="preserve">0.45</text>
<line clip-path="url(#clipPath2)" fill="none" x1="615" x2="615" y1="19" y2="21"/>
<line clip-path="url(#clipPath2)" fill="none" x1="615" x2="615" y1="509" y2="507"/>
<line clip-path="url(#clipPath2)" fill="none" x1="628" x2="628" y1="19" y2="21"/>
<line clip-path="url(#clipPath2)" fill="none" x1="628" x2="628" y1="509" y2="507"/>
<line clip-path="url(#clipPath2)" fill="none" x1="640" x2="640" y1="19" y2="21"/>
<line clip-path="url(#clipPath2)" fill="none" x1="640" x2="640" y1="509" y2="507"/>
<line clip-path="url(#clipPath2)" fill="none" x1="653" x2="653" y1="19" y2="21"/>
<line clip-path="url(#clipPath2)" fill="none" x1="653" x2="653" y1="509" y2="507"/>
<line clip-path="url(#clipPath2)" fill="none" x1="666" x2="666" y1="17" y2="21"/>
<line clip-path="url(#clipPath2)" fill="none" x1="666" x2="666" y1="511" y2="507"/>
<text x="655" font-size="11" y="14" clip-path="url(#clipPath2)" stroke="none" xml:space="preserve">0.50</text>
<text x="655" font-size="11" y="523" clip-path="url(#clipPath2)" stroke="none" xml:space="preserve">0.50</text>
<line clip-path="url(#clipPath2)" fill="none" x1="30" x2="30" y1="23" y2="505"/>
<line clip-path="url(#clipPath2)" fill="none" x1="671" x2="671" y1="23" y2="505"/>
<line clip-path="url(#clipPath2)" fill="none" x1="26" x2="30" y1="505" y2="505"/>
<line clip-path="url(#clipPath2)" fill="none" x1="675" x2="671" y1="505" y2="505"/>
<text x="19" font-size="11" y="510" clip-path="url(#clipPath2)" stroke="none" xml:space="preserve">0</text>
<text x="678" font-size="11" y="510" clip-path="url(#clipPath2)" stroke="none" xml:space="preserve">0</text>
<line clip-path="url(#clipPath2)" fill="none" x1="28" x2="30" y1="461" y2="461"/>
<line clip-path="url(#clipPath2)" fill="none" x1="673" x2="671" y1="461" y2="461"/>
<line clip-path="url(#clipPath2)" fill="none" x1="26" x2="30" y1="418" y2="418"/>
<line clip-path="url(#clipPath2)" fill="none" x1="675" x2="671" y1="418" y2="418"/>
<text x="7" font-size="11" y="423" clip-path="url(#clipPath2)" stroke="none" xml:space="preserve">0.2</text>
<text x="678" font-size="11" y="423" clip-path="url(#clipPath2)" stroke="none" xml:space="preserve">0.2</text>
<line clip-path="url(#clipPath2)" fill="none" x1="28" x2="30" y1="375" y2="375"/>
<line clip-path="url(#clipPath2)" fill="none" x1="673" x2="671" y1="375" y2="375"/>
<line clip-path="url(#clipPath2)" fill="none" x1="26" x2="30" y1="331" y2="331"/>
<line clip-path="url(#clipPath2)" fill="none" x1="675" x2="671" y1="331" y2="331"/>
<text x="7" font-size="11" y="336" clip-path="url(#clipPath2)" stroke="none" xml:space="preserve">0.4</text>
<text x="678" font-size="11" y="336" clip-path="url(#clipPath2)" stroke="none" xml:space="preserve">0.4</text>
<line clip-path="url(#clipPath2)" fill="none" x1="28" x2="30" y1="288" y2="288"/>
<line clip-path="url(#clipPath2)" fill="none" x1="673" x2="671" y1="288" y2="288"/>
<line clip-path="url(#clipPath2)" fill="none" x1="26" x2="30" y1="244" y2="244"/>
<line clip-path="url(#clipPath2)" fill="none" x1="675" x2="671" y1="244" y2="244"/>
<text x="7" font-size="11" y="249" clip-path="url(#clipPath2)" stroke="none" xml:space="preserve">0.6</text>
<text x="678" font-size="11" y="249" clip-path="url(#clipPath2)" stroke="none" xml:space="preserve">0.6</text>
<line clip-path="url(#clipPath2)" fill="none" x1="28" x2="30" y1="201" y2="201"/>
<line clip-path="url(#clipPath2)" fill="none" x1="673" x2="671" y1="201" y2="201"/>
<line clip-path="url(#clipPath2)" fill="none" x1="26" x2="30" y1="157" y2="157"/>
<line clip-path="url(#clipPath2)" fill="none" x1="675" x2="671" y1="157" y2="157"/>
<text x="7" font-size="11" y="162" clip-path="url(#clipPath2)" stroke="none" xml:space="preserve">0.8</text>
<text x="678" font-size="11" y="162" clip-path="url(#clipPath2)" stroke="none" xml:space="preserve">0.8</text>
<line clip-path="url(#clipPath2)" fill="none" x1="28" x2="30" y1="114" y2="114"/>
<line clip-path="url(#clipPath2)" fill="none" x1="673" x2="671" y1="114" y2="114"/>
<line clip-path="url(#clipPath2)" fill="none" x1="26" x2="30" y1="70" y2="70"/>
<line clip-path="url(#clipPath2)" fill="none" x1="675" x2="671" y1="70" y2="70"/>
<text x="7" font-size="11" y="75" clip-path="url(#clipPath2)" stroke="none" xml:space="preserve">1.0</text>
<text x="678" font-size="11" y="75" clip-path="url(#clipPath2)" stroke="none" xml:space="preserve">1.0</text>
<line clip-path="url(#clipPath2)" fill="none" x1="28" x2="30" y1="27" y2="27"/>
<line clip-path="url(#clipPath2)" fill="none" x1="673" x2="671" y1="27" y2="27"/>
</g>
</g>
</svg>
