<?xml version="1.0" encoding="UTF-8"?><svg xmlns="http://www.w3.org/2000/svg" xmlns:xlink="http://www.w3.org/1999/xlink" stroke-dasharray="none" shape-rendering="auto" font-family="'Dialog'" width="706" text-rendering="auto" fill-opacity="1" contentScriptType="text/ecmascript" color-interpolation="auto" color-rendering="auto" preserveAspectRatio="xMidYMid meet" font-size="12" fill="black" stroke="black" image-rendering="auto" stroke-miterlimit="10" zoomAndPan="magnify" version="1.0" stroke-linecap="square" stroke-linejoin="miter" contentStyleType="text/css" font-style="normal" height="544" stroke-width="1" stroke-dashoffset="0" font-weight="normal" stroke-opacity="1">
<!--Generated by the Batik Graphics2D SVG Generator-->
<defs id="genericDefs"/>
<g>
<defs id="defs1">
<clipPath clipPathUnits="userSpaceOnUse" id="clipPath1">
<path d="M31 21 L675 21 L675 523 L31 523 L31 21 Z"/>
</clipPath>
<clipPath clipPathUnits="userSpaceOnUse" id="clipPath2">
<path d="M-1 -1 L707 -1 L707 545 L-1 545 L-1 -1 Z"/>
</clipPath>
</defs>
<g font-size="15" fill="white" text-rendering="geometricPrecision" font-family="'Cantarell'" stroke-linejoin="round" stroke="white" stroke-width="0" stroke-miterlimit="0">
<rect x="32" y="22" clip-path="url(#clipPath1)" width="642" height="500" stroke="none"/>
</g>
<g font-size="15" stroke-linecap="butt" fill="rgb(204,204,204)" text-rendering="geometricPrecision" font-family="'Cantarell'" stroke-dasharray="3,3" stroke="rgb(204,204,204)">
<line clip-path="url(#clipPath1)" fill="none" x1="32" x2="674" y1="522" y2="522"/>
<line clip-path="url(#clipPath1)" fill="none" x1="32" x2="674" y1="439" y2="439"/>
<line clip-path="url(#clipPath1)" fill="none" x1="32" x2="674" y1="356" y2="356"/>
<line clip-path="url(#clipPath1)" fill="none" x1="32" x2="674" y1="273" y2="273"/>
<line clip-path="url(#clipPath1)" fill="none" x1="32" x2="674" y1="190" y2="190"/>
<line clip-path="url(#clipPath1)" fill="none" x1="32" x2="674" y1="106" y2="106"/>
<line clip-path="url(#clipPath1)" fill="none" x1="32" x2="674" y1="23" y2="23"/>
<rect x="32" y="57" clip-path="url(#clipPath1)" fill="rgb(0,0,139)" width="4" height="465" stroke="none"/>
<rect x="32" y="57" clip-path="url(#clipPath1)" fill="none" width="4" stroke-dasharray="none" height="465" stroke="black"/>
<line clip-path="url(#clipPath1)" fill="none" x1="36" x2="40" y1="522" y2="522" stroke-dasharray="none" stroke="black"/>
<line clip-path="url(#clipPath1)" fill="none" x1="40" x2="44" y1="522" y2="522" stroke-dasharray="none" stroke="black"/>
<line clip-path="url(#clipPath1)" fill="none" x1="44" x2="48" y1="522" y2="522" stroke-dasharray="none" stroke="black"/>
<rect x="48" y="518" clip-path="url(#clipPath1)" fill="rgb(0,0,139)" width="4" stroke-dasharray="none" height="4" stroke="none"/>
<rect x="48" y="518" clip-path="url(#clipPath1)" fill="none" width="4" stroke-dasharray="none" height="4" stroke="black"/>
<rect x="52" y="518" clip-path="url(#clipPath1)" fill="rgb(0,0,139)" width="4" stroke-dasharray="none" height="4" stroke="none"/>
<rect x="52" y="518" clip-path="url(#clipPath1)" fill="none" width="4" stroke-dasharray="none" height="4" stroke="black"/>
<rect x="56" y="514" clip-path="url(#clipPath1)" fill="rgb(0,0,139)" width="4" stroke-dasharray="none" height="8" stroke="none"/>
<rect x="56" y="514" clip-path="url(#clipPath1)" fill="none" width="4" stroke-dasharray="none" height="8" stroke="black"/>
<rect x="60" y="518" clip-path="url(#clipPath1)" fill="rgb(0,0,139)" width="4" stroke-dasharray="none" height="4" stroke="none"/>
<rect x="60" y="518" clip-path="url(#clipPath1)" fill="none" width="4" stroke-dasharray="none" height="4" stroke="black"/>
<rect x="64" y="514" clip-path="url(#clipPath1)" fill="rgb(0,0,139)" width="4" stroke-dasharray="none" height="8" stroke="none"/>
<rect x="64" y="514" clip-path="url(#clipPath1)" fill="none" width="4" stroke-dasharray="none" height="8" stroke="black"/>
<rect x="68" y="514" clip-path="url(#clipPath1)" fill="rgb(0,0,139)" width="4" stroke-dasharray="none" height="8" stroke="none"/>
<rect x="68" y="514" clip-path="url(#clipPath1)" fill="none" width="4" stroke-dasharray="none" height="8" stroke="black"/>
<rect x="72" y="518" clip-path="url(#clipPath1)" fill="rgb(0,0,139)" width="4" stroke-dasharray="none" height="4" stroke="none"/>
<rect x="72" y="518" clip-path="url(#clipPath1)" fill="none" width="4" stroke-dasharray="none" height="4" stroke="black"/>
<rect x="76" y="514" clip-path="url(#clipPath1)" fill="rgb(0,0,139)" width="4" stroke-dasharray="none" height="8" stroke="none"/>
<rect x="76" y="514" clip-path="url(#clipPath1)" fill="none" width="4" stroke-dasharray="none" height="8" stroke="black"/>
<rect x="80" y="514" clip-path="url(#clipPath1)" fill="rgb(0,0,139)" width="4" stroke-dasharray="none" height="8" stroke="none"/>
<rect x="80" y="514" clip-path="url(#clipPath1)" fill="none" width="4" stroke-dasharray="none" height="8" stroke="black"/>
<rect x="84" y="518" clip-path="url(#clipPath1)" fill="rgb(0,0,139)" width="4" stroke-dasharray="none" height="4" stroke="none"/>
<rect x="84" y="518" clip-path="url(#clipPath1)" fill="none" width="4" stroke-dasharray="none" height="4" stroke="black"/>
<rect x="88" y="514" clip-path="url(#clipPath1)" fill="rgb(0,0,139)" width="4" stroke-dasharray="none" height="8" stroke="none"/>
<rect x="88" y="514" clip-path="url(#clipPath1)" fill="none" width="4" stroke-dasharray="none" height="8" stroke="black"/>
<rect x="92" y="514" clip-path="url(#clipPath1)" fill="rgb(0,0,139)" width="4" stroke-dasharray="none" height="8" stroke="none"/>
<rect x="92" y="514" clip-path="url(#clipPath1)" fill="none" width="4" stroke-dasharray="none" height="8" stroke="black"/>
<rect x="96" y="518" clip-path="url(#clipPath1)" fill="rgb(0,0,139)" width="4" stroke-dasharray="none" height="4" stroke="none"/>
<rect x="96" y="518" clip-path="url(#clipPath1)" fill="none" width="4" stroke-dasharray="none" height="4" stroke="black"/>
<rect x="100" y="514" clip-path="url(#clipPath1)" fill="rgb(0,0,139)" width="4" stroke-dasharray="none" height="8" stroke="none"/>
<rect x="100" y="514" clip-path="url(#clipPath1)" fill="none" width="4" stroke-dasharray="none" height="8" stroke="black"/>
<rect x="104" y="514" clip-path="url(#clipPath1)" fill="rgb(0,0,139)" width="4" stroke-dasharray="none" height="8" stroke="none"/>
<rect x="104" y="514" clip-path="url(#clipPath1)" fill="none" width="4" stroke-dasharray="none" height="8" stroke="black"/>
<rect x="108" y="518" clip-path="url(#clipPath1)" fill="rgb(0,0,139)" width="4" stroke-dasharray="none" height="4" stroke="none"/>
<rect x="108" y="518" clip-path="url(#clipPath1)" fill="none" width="4" stroke-dasharray="none" height="4" stroke="black"/>
<rect x="112" y="514" clip-path="url(#clipPath1)" fill="rgb(0,0,139)" width="4" stroke-dasharray="none" height="8" stroke="none"/>
<rect x="112" y="514" clip-path="url(#clipPath1)" fill="none" width="4" stroke-dasharray="none" height="8" stroke="black"/>
<rect x="116" y="518" clip-path="url(#clipPath1)" fill="rgb(0,0,139)" width="4" stroke-dasharray="none" height="4" stroke="none"/>
<rect x="116" y="518" clip-path="url(#clipPath1)" fill="none" width="4" stroke-dasharray="none" height="4" stroke="black"/>
<rect x="120" y="514" clip-path="url(#clipPath1)" fill="rgb(0,0,139)" width="4" stroke-dasharray="none" height="8" stroke="none"/>
<rect x="120" y="514" clip-path="url(#clipPath1)" fill="none" width="4" stroke-dasharray="none" height="8" stroke="black"/>
<rect x="124" y="514" clip-path="url(#clipPath1)" fill="rgb(0,0,139)" width="4" stroke-dasharray="none" height="8" stroke="none"/>
<rect x="124" y="514" clip-path="url(#clipPath1)" fill="none" width="4" stroke-dasharray="none" height="8" stroke="black"/>
<rect x="128" y="518" clip-path="url(#clipPath1)" fill="rgb(0,0,139)" width="4" stroke-dasharray="none" height="4" stroke="none"/>
<rect x="128" y="518" clip-path="url(#clipPath1)" fill="none" width="4" stroke-dasharray="none" height="4" stroke="black"/>
<rect x="132" y="514" clip-path="url(#clipPath1)" fill="rgb(0,0,139)" width="4" stroke-dasharray="none" height="8" stroke="none"/>
<rect x="132" y="514" clip-path="url(#clipPath1)" fill="none" width="4" stroke-dasharray="none" height="8" stroke="black"/>
<rect x="136" y="514" clip-path="url(#clipPath1)" fill="rgb(0,0,139)" width="4" stroke-dasharray="none" height="8" stroke="none"/>
<rect x="136" y="514" clip-path="url(#clipPath1)" fill="none" width="4" stroke-dasharray="none" height="8" stroke="black"/>
<rect x="140" y="518" clip-path="url(#clipPath1)" fill="rgb(0,0,139)" width="4" stroke-dasharray="none" height="4" stroke="none"/>
<rect x="140" y="518" clip-path="url(#clipPath1)" fill="none" width="4" stroke-dasharray="none" height="4" stroke="black"/>
<rect x="144" y="514" clip-path="url(#clipPath1)" fill="rgb(0,0,139)" width="4" stroke-dasharray="none" height="8" stroke="none"/>
<rect x="144" y="514" clip-path="url(#clipPath1)" fill="none" width="4" stroke-dasharray="none" height="8" stroke="black"/>
<rect x="148" y="514" clip-path="url(#clipPath1)" fill="rgb(0,0,139)" width="4" stroke-dasharray="none" height="8" stroke="none"/>
<rect x="148" y="514" clip-path="url(#clipPath1)" fill="none" width="4" stroke-dasharray="none" height="8" stroke="black"/>
<rect x="152" y="518" clip-path="url(#clipPath1)" fill="rgb(0,0,139)" width="4" stroke-dasharray="none" height="4" stroke="none"/>
<rect x="152" y="518" clip-path="url(#clipPath1)" fill="none" width="4" stroke-dasharray="none" height="4" stroke="black"/>
<rect x="156" y="514" clip-path="url(#clipPath1)" fill="rgb(0,0,139)" width="4" stroke-dasharray="none" height="8" stroke="none"/>
<rect x="156" y="514" clip-path="url(#clipPath1)" fill="none" width="4" stroke-dasharray="none" height="8" stroke="black"/>
<rect x="160" y="514" clip-path="url(#clipPath1)" fill="rgb(0,0,139)" width="4" stroke-dasharray="none" height="8" stroke="none"/>
<rect x="160" y="514" clip-path="url(#clipPath1)" fill="none" width="4" stroke-dasharray="none" height="8" stroke="black"/>
<rect x="164" y="518" clip-path="url(#clipPath1)" fill="rgb(0,0,139)" width="4" stroke-dasharray="none" height="4" stroke="none"/>
<rect x="164" y="518" clip-path="url(#clipPath1)" fill="none" width="4" stroke-dasharray="none" height="4" stroke="black"/>
<rect x="168" y="514" clip-path="url(#clipPath1)" fill="rgb(0,0,139)" width="4" stroke-dasharray="none" height="8" stroke="none"/>
<rect x="168" y="514" clip-path="url(#clipPath1)" fill="none" width="4" stroke-dasharray="none" height="8" stroke="black"/>
<rect x="172" y="514" clip-path="url(#clipPath1)" fill="rgb(0,0,139)" width="5" stroke-dasharray="none" height="8" stroke="none"/>
<rect x="172" y="514" clip-path="url(#clipPath1)" fill="none" width="5" stroke-dasharray="none" height="8" stroke="black"/>
<rect x="177" y="518" clip-path="url(#clipPath1)" fill="rgb(0,0,139)" width="4" stroke-dasharray="none" height="4" stroke="none"/>
<rect x="177" y="518" clip-path="url(#clipPath1)" fill="none" width="4" stroke-dasharray="none" height="4" stroke="black"/>
<rect x="181" y="514" clip-path="url(#clipPath1)" fill="rgb(0,0,139)" width="4" stroke-dasharray="none" height="8" stroke="none"/>
<rect x="181" y="514" clip-path="url(#clipPath1)" fill="none" width="4" stroke-dasharray="none" height="8" stroke="black"/>
<rect x="185" y="514" clip-path="url(#clipPath1)" fill="rgb(0,0,139)" width="4" stroke-dasharray="none" height="8" stroke="none"/>
<rect x="185" y="514" clip-path="url(#clipPath1)" fill="none" width="4" stroke-dasharray="none" height="8" stroke="black"/>
<rect x="189" y="518" clip-path="url(#clipPath1)" fill="rgb(0,0,139)" width="4" stroke-dasharray="none" height="4" stroke="none"/>
<rect x="189" y="518" clip-path="url(#clipPath1)" fill="none" width="4" stroke-dasharray="none" height="4" stroke="black"/>
<rect x="193" y="514" clip-path="url(#clipPath1)" fill="rgb(0,0,139)" width="4" stroke-dasharray="none" height="8" stroke="none"/>
<rect x="193" y="514" clip-path="url(#clipPath1)" fill="none" width="4" stroke-dasharray="none" height="8" stroke="black"/>
<rect x="197" y="518" clip-path="url(#clipPath1)" fill="rgb(0,0,139)" width="4" stroke-dasharray="none" height="4" stroke="none"/>
<rect x="197" y="518" clip-path="url(#clipPath1)" fill="none" width="4" stroke-dasharray="none" height="4" stroke="black"/>
<rect x="201" y="514" clip-path="url(#clipPath1)" fill="rgb(0,0,139)" width="4" stroke-dasharray="none" height="8" stroke="none"/>
<rect x="201" y="514" clip-path="url(#clipPath1)" fill="none" width="4" stroke-dasharray="none" height="8" stroke="black"/>
<rect x="205" y="514" clip-path="url(#clipPath1)" fill="rgb(0,0,139)" width="4" stroke-dasharray="none" height="8" stroke="none"/>
<rect x="205" y="514" clip-path="url(#clipPath1)" fill="none" width="4" stroke-dasharray="none" height="8" stroke="black"/>
<rect x="209" y="518" clip-path="url(#clipPath1)" fill="rgb(0,0,139)" width="4" stroke-dasharray="none" height="4" stroke="none"/>
<rect x="209" y="518" clip-path="url(#clipPath1)" fill="none" width="4" stroke-dasharray="none" height="4" stroke="black"/>
<rect x="213" y="514" clip-path="url(#clipPath1)" fill="rgb(0,0,139)" width="4" stroke-dasharray="none" height="8" stroke="none"/>
<rect x="213" y="514" clip-path="url(#clipPath1)" fill="none" width="4" stroke-dasharray="none" height="8" stroke="black"/>
<rect x="217" y="514" clip-path="url(#clipPath1)" fill="rgb(0,0,139)" width="4" stroke-dasharray="none" height="8" stroke="none"/>
<rect x="217" y="514" clip-path="url(#clipPath1)" fill="none" width="4" stroke-dasharray="none" height="8" stroke="black"/>
<rect x="221" y="518" clip-path="url(#clipPath1)" fill="rgb(0,0,139)" width="4" stroke-dasharray="none" height="4" stroke="none"/>
<rect x="221" y="518" clip-path="url(#clipPath1)" fill="none" width="4" stroke-dasharray="none" height="4" stroke="black"/>
<rect x="225" y="514" clip-path="url(#clipPath1)" fill="rgb(0,0,139)" width="4" stroke-dasharray="none" height="8" stroke="none"/>
<rect x="225" y="514" clip-path="url(#clipPath1)" fill="none" width="4" stroke-dasharray="none" height="8" stroke="black"/>
<rect x="229" y="514" clip-path="url(#clipPath1)" fill="rgb(0,0,139)" width="4" stroke-dasharray="none" height="8" stroke="none"/>
<rect x="229" y="514" clip-path="url(#clipPath1)" fill="none" width="4" stroke-dasharray="none" height="8" stroke="black"/>
<rect x="233" y="514" clip-path="url(#clipPath1)" fill="rgb(0,0,139)" width="4" stroke-dasharray="none" height="8" stroke="none"/>
<rect x="233" y="514" clip-path="url(#clipPath1)" fill="none" width="4" stroke-dasharray="none" height="8" stroke="black"/>
<rect x="237" y="514" clip-path="url(#clipPath1)" fill="rgb(0,0,139)" width="4" stroke-dasharray="none" height="8" stroke="none"/>
<rect x="237" y="514" clip-path="url(#clipPath1)" fill="none" width="4" stroke-dasharray="none" height="8" stroke="black"/>
<rect x="241" y="518" clip-path="url(#clipPath1)" fill="rgb(0,0,139)" width="4" stroke-dasharray="none" height="4" stroke="none"/>
<rect x="241" y="518" clip-path="url(#clipPath1)" fill="none" width="4" stroke-dasharray="none" height="4" stroke="black"/>
<rect x="245" y="514" clip-path="url(#clipPath1)" fill="rgb(0,0,139)" width="4" stroke-dasharray="none" height="8" stroke="none"/>
<rect x="245" y="514" clip-path="url(#clipPath1)" fill="none" width="4" stroke-dasharray="none" height="8" stroke="black"/>
<rect x="249" y="514" clip-path="url(#clipPath1)" fill="rgb(0,0,139)" width="4" stroke-dasharray="none" height="8" stroke="none"/>
<rect x="249" y="514" clip-path="url(#clipPath1)" fill="none" width="4" stroke-dasharray="none" height="8" stroke="black"/>
<rect x="253" y="518" clip-path="url(#clipPath1)" fill="rgb(0,0,139)" width="4" stroke-dasharray="none" height="4" stroke="none"/>
<rect x="253" y="518" clip-path="url(#clipPath1)" fill="none" width="4" stroke-dasharray="none" height="4" stroke="black"/>
<rect x="257" y="514" clip-path="url(#clipPath1)" fill="rgb(0,0,139)" width="4" stroke-dasharray="none" height="8" stroke="none"/>
<rect x="257" y="514" clip-path="url(#clipPath1)" fill="none" width="4" stroke-dasharray="none" height="8" stroke="black"/>
<rect x="261" y="514" clip-path="url(#clipPath1)" fill="rgb(0,0,139)" width="4" stroke-dasharray="none" height="8" stroke="none"/>
<rect x="261" y="514" clip-path="url(#clipPath1)" fill="none" width="4" stroke-dasharray="none" height="8" stroke="black"/>
<rect x="265" y="514" clip-path="url(#clipPath1)" fill="rgb(0,0,139)" width="4" stroke-dasharray="none" height="8" stroke="none"/>
<rect x="265" y="514" clip-path="url(#clipPath1)" fill="none" width="4" stroke-dasharray="none" height="8" stroke="black"/>
<rect x="269" y="518" clip-path="url(#clipPath1)" fill="rgb(0,0,139)" width="4" stroke-dasharray="none" height="4" stroke="none"/>
<rect x="269" y="518" clip-path="url(#clipPath1)" fill="none" width="4" stroke-dasharray="none" height="4" stroke="black"/>
<rect x="273" y="514" clip-path="url(#clipPath1)" fill="rgb(0,0,139)" width="4" stroke-dasharray="none" height="8" stroke="none"/>
<rect x="273" y="514" clip-path="url(#clipPath1)" fill="none" width="4" stroke-dasharray="none" height="8" stroke="black"/>
<rect x="277" y="514" clip-path="url(#clipPath1)" fill="rgb(0,0,139)" width="4" stroke-dasharray="none" height="8" stroke="none"/>
<rect x="277" y="514" clip-path="url(#clipPath1)" fill="none" width="4" stroke-dasharray="none" height="8" stroke="black"/>
<rect x="281" y="518" clip-path="url(#clipPath1)" fill="rgb(0,0,139)" width="4" stroke-dasharray="none" height="4" stroke="none"/>
<rect x="281" y="518" clip-path="url(#clipPath1)" fill="none" width="4" stroke-dasharray="none" height="4" stroke="black"/>
<rect x="285" y="518" clip-path="url(#clipPath1)" fill="rgb(0,0,139)" width="4" stroke-dasharray="none" height="4" stroke="none"/>
<rect x="285" y="518" clip-path="url(#clipPath1)" fill="none" width="4" stroke-dasharray="none" height="4" stroke="black"/>
<line clip-path="url(#clipPath1)" fill="none" x1="289" x2="293" y1="522" y2="522" stroke-dasharray="none" stroke="black"/>
<line clip-path="url(#clipPath1)" fill="none" x1="293" x2="297" y1="522" y2="522" stroke-dasharray="none" stroke="black"/>
<line clip-path="url(#clipPath1)" fill="none" x1="297" x2="301" y1="522" y2="522" stroke-dasharray="none" stroke="black"/>
<line clip-path="url(#clipPath1)" fill="none" x1="301" x2="305" y1="522" y2="522" stroke-dasharray="none" stroke="black"/>
<line clip-path="url(#clipPath1)" fill="none" x1="305" x2="309" y1="522" y2="522" stroke-dasharray="none" stroke="black"/>
<rect x="309" y="518" clip-path="url(#clipPath1)" fill="rgb(0,0,139)" width="4" stroke-dasharray="none" height="4" stroke="none"/>
<rect x="309" y="518" clip-path="url(#clipPath1)" fill="none" width="4" stroke-dasharray="none" height="4" stroke="black"/>
<line clip-path="url(#clipPath1)" fill="none" x1="313" x2="317" y1="522" y2="522" stroke-dasharray="none" stroke="black"/>
<line clip-path="url(#clipPath1)" fill="none" x1="317" x2="322" y1="522" y2="522" stroke-dasharray="none" stroke="black"/>
<line clip-path="url(#clipPath1)" fill="none" x1="322" x2="326" y1="522" y2="522" stroke-dasharray="none" stroke="black"/>
<line clip-path="url(#clipPath1)" fill="none" x1="326" x2="330" y1="522" y2="522" stroke-dasharray="none" stroke="black"/>
<line clip-path="url(#clipPath1)" fill="none" x1="330" x2="334" y1="522" y2="522" stroke-dasharray="none" stroke="black"/>
<rect x="334" y="518" clip-path="url(#clipPath1)" fill="rgb(0,0,139)" width="4" stroke-dasharray="none" height="4" stroke="none"/>
<rect x="334" y="518" clip-path="url(#clipPath1)" fill="none" width="4" stroke-dasharray="none" height="4" stroke="black"/>
<line clip-path="url(#clipPath1)" fill="none" x1="338" x2="342" y1="522" y2="522" stroke-dasharray="none" stroke="black"/>
<line clip-path="url(#clipPath1)" fill="none" x1="342" x2="346" y1="522" y2="522" stroke-dasharray="none" stroke="black"/>
<line clip-path="url(#clipPath1)" fill="none" x1="346" x2="350" y1="522" y2="522" stroke-dasharray="none" stroke="black"/>
<line clip-path="url(#clipPath1)" fill="none" x1="350" x2="354" y1="522" y2="522" stroke-dasharray="none" stroke="black"/>
<line clip-path="url(#clipPath1)" fill="none" x1="354" x2="358" y1="522" y2="522" stroke-dasharray="none" stroke="black"/>
<line clip-path="url(#clipPath1)" fill="none" x1="358" x2="362" y1="522" y2="522" stroke-dasharray="none" stroke="black"/>
<rect x="362" y="518" clip-path="url(#clipPath1)" fill="rgb(0,0,139)" width="4" stroke-dasharray="none" height="4" stroke="none"/>
<rect x="362" y="518" clip-path="url(#clipPath1)" fill="none" width="4" stroke-dasharray="none" height="4" stroke="black"/>
<line clip-path="url(#clipPath1)" fill="none" x1="366" x2="370" y1="522" y2="522" stroke-dasharray="none" stroke="black"/>
<line clip-path="url(#clipPath1)" fill="none" x1="370" x2="374" y1="522" y2="522" stroke-dasharray="none" stroke="black"/>
<line clip-path="url(#clipPath1)" fill="none" x1="374" x2="378" y1="522" y2="522" stroke-dasharray="none" stroke="black"/>
<line clip-path="url(#clipPath1)" fill="none" x1="378" x2="382" y1="522" y2="522" stroke-dasharray="none" stroke="black"/>
<line clip-path="url(#clipPath1)" fill="none" x1="382" x2="386" y1="522" y2="522" stroke-dasharray="none" stroke="black"/>
<rect x="386" y="518" clip-path="url(#clipPath1)" fill="rgb(0,0,139)" width="4" stroke-dasharray="none" height="4" stroke="none"/>
<rect x="386" y="518" clip-path="url(#clipPath1)" fill="none" width="4" stroke-dasharray="none" height="4" stroke="black"/>
<line clip-path="url(#clipPath1)" fill="none" x1="390" x2="394" y1="522" y2="522" stroke-dasharray="none" stroke="black"/>
<line clip-path="url(#clipPath1)" fill="none" x1="394" x2="398" y1="522" y2="522" stroke-dasharray="none" stroke="black"/>
<line clip-path="url(#clipPath1)" fill="none" x1="398" x2="402" y1="522" y2="522" stroke-dasharray="none" stroke="black"/>
<line clip-path="url(#clipPath1)" fill="none" x1="402" x2="406" y1="522" y2="522" stroke-dasharray="none" stroke="black"/>
<line clip-path="url(#clipPath1)" fill="none" x1="406" x2="410" y1="522" y2="522" stroke-dasharray="none" stroke="black"/>
<line clip-path="url(#clipPath1)" fill="none" x1="410" x2="414" y1="522" y2="522" stroke-dasharray="none" stroke="black"/>
<rect x="414" y="518" clip-path="url(#clipPath1)" fill="rgb(0,0,139)" width="4" stroke-dasharray="none" height="4" stroke="none"/>
<rect x="414" y="518" clip-path="url(#clipPath1)" fill="none" width="4" stroke-dasharray="none" height="4" stroke="black"/>
<line clip-path="url(#clipPath1)" fill="none" x1="418" x2="422" y1="522" y2="522" stroke-dasharray="none" stroke="black"/>
<line clip-path="url(#clipPath1)" fill="none" x1="422" x2="426" y1="522" y2="522" stroke-dasharray="none" stroke="black"/>
<line clip-path="url(#clipPath1)" fill="none" x1="426" x2="430" y1="522" y2="522" stroke-dasharray="none" stroke="black"/>
<line clip-path="url(#clipPath1)" fill="none" x1="430" x2="434" y1="522" y2="522" stroke-dasharray="none" stroke="black"/>
<line clip-path="url(#clipPath1)" fill="none" x1="434" x2="438" y1="522" y2="522" stroke-dasharray="none" stroke="black"/>
<rect x="438" y="518" clip-path="url(#clipPath1)" fill="rgb(0,0,139)" width="4" stroke-dasharray="none" height="4" stroke="none"/>
<rect x="438" y="518" clip-path="url(#clipPath1)" fill="none" width="4" stroke-dasharray="none" height="4" stroke="black"/>
<line clip-path="url(#clipPath1)" fill="none" x1="442" x2="446" y1="522" y2="522" stroke-dasharray="none" stroke="black"/>
<line clip-path="url(#clipPath1)" fill="none" x1="446" x2="450" y1="522" y2="522" stroke-dasharray="none" stroke="black"/>
<line clip-path="url(#clipPath1)" fill="none" x1="450" x2="454" y1="522" y2="522" stroke-dasharray="none" stroke="black"/>
<line clip-path="url(#clipPath1)" fill="none" x1="454" x2="458" y1="522" y2="522" stroke-dasharray="none" stroke="black"/>
<line clip-path="url(#clipPath1)" fill="none" x1="458" x2="462" y1="522" y2="522" stroke-dasharray="none" stroke="black"/>
<line clip-path="url(#clipPath1)" fill="none" x1="462" x2="467" y1="522" y2="522" stroke-dasharray="none" stroke="black"/>
<rect x="467" y="518" clip-path="url(#clipPath1)" fill="rgb(0,0,139)" width="4" stroke-dasharray="none" height="4" stroke="none"/>
<rect x="467" y="518" clip-path="url(#clipPath1)" fill="none" width="4" stroke-dasharray="none" height="4" stroke="black"/>
<line clip-path="url(#clipPath1)" fill="none" x1="471" x2="475" y1="522" y2="522" stroke-dasharray="none" stroke="black"/>
<line clip-path="url(#clipPath1)" fill="none" x1="475" x2="479" y1="522" y2="522" stroke-dasharray="none" stroke="black"/>
<line clip-path="url(#clipPath1)" fill="none" x1="479" x2="483" y1="522" y2="522" stroke-dasharray="none" stroke="black"/>
<line clip-path="url(#clipPath1)" fill="none" x1="483" x2="487" y1="522" y2="522" stroke-dasharray="none" stroke="black"/>
<line clip-path="url(#clipPath1)" fill="none" x1="487" x2="491" y1="522" y2="522" stroke-dasharray="none" stroke="black"/>
<rect x="491" y="518" clip-path="url(#clipPath1)" fill="rgb(0,0,139)" width="4" stroke-dasharray="none" height="4" stroke="none"/>
<rect x="491" y="518" clip-path="url(#clipPath1)" fill="none" width="4" stroke-dasharray="none" height="4" stroke="black"/>
<line clip-path="url(#clipPath1)" fill="none" x1="495" x2="499" y1="522" y2="522" stroke-dasharray="none" stroke="black"/>
<line clip-path="url(#clipPath1)" fill="none" x1="499" x2="503" y1="522" y2="522" stroke-dasharray="none" stroke="black"/>
<line clip-path="url(#clipPath1)" fill="none" x1="503" x2="507" y1="522" y2="522" stroke-dasharray="none" stroke="black"/>
<line clip-path="url(#clipPath1)" fill="none" x1="507" x2="511" y1="522" y2="522" stroke-dasharray="none" stroke="black"/>
<line clip-path="url(#clipPath1)" fill="none" x1="511" x2="515" y1="522" y2="522" stroke-dasharray="none" stroke="black"/>
<line clip-path="url(#clipPath1)" fill="none" x1="515" x2="519" y1="522" y2="522" stroke-dasharray="none" stroke="black"/>
<rect x="519" y="518" clip-path="url(#clipPath1)" fill="rgb(0,0,139)" width="4" stroke-dasharray="none" height="4" stroke="none"/>
<rect x="519" y="518" clip-path="url(#clipPath1)" fill="none" width="4" stroke-dasharray="none" height="4" stroke="black"/>
<line clip-path="url(#clipPath1)" fill="none" x1="523" x2="527" y1="522" y2="522" stroke-dasharray="none" stroke="black"/>
<line clip-path="url(#clipPath1)" fill="none" x1="527" x2="531" y1="522" y2="522" stroke-dasharray="none" stroke="black"/>
<line clip-path="url(#clipPath1)" fill="none" x1="531" x2="535" y1="522" y2="522" stroke-dasharray="none" stroke="black"/>
<line clip-path="url(#clipPath1)" fill="none" x1="535" x2="539" y1="522" y2="522" stroke-dasharray="none" stroke="black"/>
<line clip-path="url(#clipPath1)" fill="none" x1="539" x2="543" y1="522" y2="522" stroke-dasharray="none" stroke="black"/>
<rect x="543" y="518" clip-path="url(#clipPath1)" fill="rgb(0,0,139)" width="4" stroke-dasharray="none" height="4" stroke="none"/>
<rect x="543" y="518" clip-path="url(#clipPath1)" fill="none" width="4" stroke-dasharray="none" height="4" stroke="black"/>
<line clip-path="url(#clipPath1)" fill="none" x1="547" x2="551" y1="522" y2="522" stroke-dasharray="none" stroke="black"/>
<line clip-path="url(#clipPath1)" fill="none" x1="551" x2="555" y1="522" y2="522" stroke-dasharray="none" stroke="black"/>
<line clip-path="url(#clipPath1)" fill="none" x1="555" x2="559" y1="522" y2="522" stroke-dasharray="none" stroke="black"/>
<line clip-path="url(#clipPath1)" fill="none" x1="559" x2="563" y1="522" y2="522" stroke-dasharray="none" stroke="black"/>
<line clip-path="url(#clipPath1)" fill="none" x1="563" x2="567" y1="522" y2="522" stroke-dasharray="none" stroke="black"/>
<line clip-path="url(#clipPath1)" fill="none" x1="567" x2="571" y1="522" y2="522" stroke-dasharray="none" stroke="black"/>
<rect x="571" y="518" clip-path="url(#clipPath1)" fill="rgb(0,0,139)" width="4" stroke-dasharray="none" height="4" stroke="none"/>
<rect x="571" y="518" clip-path="url(#clipPath1)" fill="none" width="4" stroke-dasharray="none" height="4" stroke="black"/>
<line clip-path="url(#clipPath1)" fill="none" x1="575" x2="579" y1="522" y2="522" stroke-dasharray="none" stroke="black"/>
<line clip-path="url(#clipPath1)" fill="none" x1="579" x2="583" y1="522" y2="522" stroke-dasharray="none" stroke="black"/>
<line clip-path="url(#clipPath1)" fill="none" x1="583" x2="587" y1="522" y2="522" stroke-dasharray="none" stroke="black"/>
<line clip-path="url(#clipPath1)" fill="none" x1="587" x2="591" y1="522" y2="522" stroke-dasharray="none" stroke="black"/>
<line clip-path="url(#clipPath1)" fill="none" x1="591" x2="595" y1="522" y2="522" stroke-dasharray="none" stroke="black"/>
<rect x="595" y="518" clip-path="url(#clipPath1)" fill="rgb(0,0,139)" width="4" stroke-dasharray="none" height="4" stroke="none"/>
<rect x="595" y="518" clip-path="url(#clipPath1)" fill="none" width="4" stroke-dasharray="none" height="4" stroke="black"/>
<line clip-path="url(#clipPath1)" fill="none" x1="599" x2="603" y1="522" y2="522" stroke-dasharray="none" stroke="black"/>
<line clip-path="url(#clipPath1)" fill="none" x1="603" x2="607" y1="522" y2="522" stroke-dasharray="none" stroke="black"/>
<line clip-path="url(#clipPath1)" fill="none" x1="607" x2="612" y1="522" y2="522" stroke-dasharray="none" stroke="black"/>
<line clip-path="url(#clipPath1)" fill="none" x1="612" x2="616" y1="522" y2="522" stroke-dasharray="none" stroke="black"/>
<line clip-path="url(#clipPath1)" fill="none" x1="616" x2="620" y1="522" y2="522" stroke-dasharray="none" stroke="black"/>
<line clip-path="url(#clipPath1)" fill="none" x1="620" x2="624" y1="522" y2="522" stroke-dasharray="none" stroke="black"/>
<rect x="624" y="518" clip-path="url(#clipPath1)" fill="rgb(0,0,139)" width="4" stroke-dasharray="none" height="4" stroke="none"/>
<rect x="624" y="518" clip-path="url(#clipPath1)" fill="none" width="4" stroke-dasharray="none" height="4" stroke="black"/>
<line clip-path="url(#clipPath1)" fill="none" x1="628" x2="632" y1="522" y2="522" stroke-dasharray="none" stroke="black"/>
<line clip-path="url(#clipPath1)" fill="none" x1="632" x2="636" y1="522" y2="522" stroke-dasharray="none" stroke="black"/>
<line clip-path="url(#clipPath1)" fill="none" x1="636" x2="640" y1="522" y2="522" stroke-dasharray="none" stroke="black"/>
<line clip-path="url(#clipPath1)" fill="none" x1="640" x2="644" y1="522" y2="522" stroke-dasharray="none" stroke="black"/>
<line clip-path="url(#clipPath1)" fill="none" x1="644" x2="648" y1="522" y2="522" stroke-dasharray="none" stroke="black"/>
<rect x="648" y="518" clip-path="url(#clipPath1)" fill="rgb(0,0,139)" width="4" stroke-dasharray="none" height="4" stroke="none"/>
<rect x="648" y="518" clip-path="url(#clipPath1)" fill="none" width="4" stroke-dasharray="none" height="4" stroke="black"/>
<line clip-path="url(#clipPath1)" fill="none" x1="652" x2="656" y1="522" y2="522" stroke-dasharray="none" stroke="black"/>
<line clip-path="url(#clipPath1)" fill="none" x1="656" x2="660" y1="522" y2="522" stroke-dasharray="none" stroke="black"/>
<line clip-path="url(#clipPath1)" fill="none" x1="660" x2="664" y1="522" y2="522" stroke-dasharray="none" stroke="black"/>
<line clip-path="url(#clipPath1)" fill="none" x1="664" x2="668" y1="522" y2="522" stroke-dasharray="none" stroke="black"/>
<line clip-path="url(#clipPath1)" fill="none" x1="668" x2="672" y1="522" y2="522" stroke-dasharray="none" stroke="black"/>
<line clip-path="url(#clipPath1)" fill="none" x1="672" x2="676" y1="522" y2="522" stroke-dasharray="none" stroke="black"/>
<line clip-path="url(#clipPath1)" fill="none" x1="676" x2="680" y1="522" y2="522" stroke-dasharray="none" stroke="black"/>
<line clip-path="url(#clipPath1)" fill="none" x1="680" x2="684" y1="522" y2="522" stroke-dasharray="none" stroke="black"/>
<line clip-path="url(#clipPath1)" fill="none" x1="684" x2="688" y1="522" y2="522" stroke-dasharray="none" stroke="black"/>
<line clip-path="url(#clipPath1)" fill="none" x1="688" x2="692" y1="522" y2="522" stroke-dasharray="none" stroke="black"/>
<line clip-path="url(#clipPath1)" fill="none" x1="692" x2="696" y1="522" y2="522" stroke-dasharray="none" stroke="black"/>
<line clip-path="url(#clipPath1)" fill="none" x1="696" x2="700" y1="522" y2="522" stroke-dasharray="none" stroke="black"/>
<line clip-path="url(#clipPath1)" fill="none" x1="700" x2="704" y1="522" y2="522" stroke-dasharray="none" stroke="black"/>
<line clip-path="url(#clipPath1)" fill="none" x1="704" x2="708" y1="522" y2="522" stroke-dasharray="none" stroke="black"/>
<line clip-path="url(#clipPath1)" fill="none" x1="708" x2="712" y1="522" y2="522" stroke-dasharray="none" stroke="black"/>
<line clip-path="url(#clipPath1)" fill="none" x1="712" x2="716" y1="522" y2="522" stroke-dasharray="none" stroke="black"/>
<line clip-path="url(#clipPath1)" fill="none" x1="716" x2="720" y1="522" y2="522" stroke-dasharray="none" stroke="black"/>
<line clip-path="url(#clipPath1)" fill="none" x1="720" x2="724" y1="522" y2="522" stroke-dasharray="none" stroke="black"/>
<line clip-path="url(#clipPath1)" fill="none" x1="724" x2="728" y1="522" y2="522" stroke-dasharray="none" stroke="black"/>
<line clip-path="url(#clipPath1)" fill="none" x1="728" x2="732" y1="522" y2="522" stroke-dasharray="none" stroke="black"/>
<line clip-path="url(#clipPath1)" fill="none" x1="732" x2="736" y1="522" y2="522" stroke-dasharray="none" stroke="black"/>
<line clip-path="url(#clipPath1)" fill="none" x1="736" x2="740" y1="522" y2="522" stroke-dasharray="none" stroke="black"/>
<line clip-path="url(#clipPath1)" fill="none" x1="740" x2="744" y1="522" y2="522" stroke-dasharray="none" stroke="black"/>
<line clip-path="url(#clipPath1)" fill="none" x1="744" x2="748" y1="522" y2="522" stroke-dasharray="none" stroke="black"/>
<line clip-path="url(#clipPath1)" fill="none" x1="748" x2="752" y1="522" y2="522" stroke-dasharray="none" stroke="black"/>
<line clip-path="url(#clipPath1)" fill="none" x1="752" x2="757" y1="522" y2="522" stroke-dasharray="none" stroke="black"/>
<line clip-path="url(#clipPath1)" fill="none" x1="757" x2="761" y1="522" y2="522" stroke-dasharray="none" stroke="black"/>
<line clip-path="url(#clipPath1)" fill="none" x1="761" x2="765" y1="522" y2="522" stroke-dasharray="none" stroke="black"/>
<line clip-path="url(#clipPath1)" fill="none" x1="765" x2="769" y1="522" y2="522" stroke-dasharray="none" stroke="black"/>
<line clip-path="url(#clipPath1)" fill="none" x1="769" x2="773" y1="522" y2="522" stroke-dasharray="none" stroke="black"/>
<line clip-path="url(#clipPath1)" fill="none" x1="773" x2="777" y1="522" y2="522" stroke-dasharray="none" stroke="black"/>
<line clip-path="url(#clipPath1)" fill="none" x1="777" x2="781" y1="522" y2="522" stroke-dasharray="none" stroke="black"/>
<line clip-path="url(#clipPath1)" fill="none" x1="781" x2="785" y1="522" y2="522" stroke-dasharray="none" stroke="black"/>
<line clip-path="url(#clipPath1)" fill="none" x1="785" x2="789" y1="522" y2="522" stroke-dasharray="none" stroke="black"/>
<line clip-path="url(#clipPath1)" fill="none" x1="789" x2="793" y1="522" y2="522" stroke-dasharray="none" stroke="black"/>
<line clip-path="url(#clipPath1)" fill="none" x1="793" x2="797" y1="522" y2="522" stroke-dasharray="none" stroke="black"/>
<line clip-path="url(#clipPath1)" fill="none" x1="797" x2="801" y1="522" y2="522" stroke-dasharray="none" stroke="black"/>
<line clip-path="url(#clipPath1)" fill="none" x1="801" x2="805" y1="522" y2="522" stroke-dasharray="none" stroke="black"/>
<line clip-path="url(#clipPath1)" fill="none" x1="805" x2="809" y1="522" y2="522" stroke-dasharray="none" stroke="black"/>
<line clip-path="url(#clipPath1)" fill="none" x1="809" x2="813" y1="522" y2="522" stroke-dasharray="none" stroke="black"/>
<line clip-path="url(#clipPath1)" fill="none" x1="813" x2="817" y1="522" y2="522" stroke-dasharray="none" stroke="black"/>
<line clip-path="url(#clipPath1)" fill="none" x1="817" x2="821" y1="522" y2="522" stroke-dasharray="none" stroke="black"/>
<line clip-path="url(#clipPath1)" fill="none" x1="821" x2="825" y1="522" y2="522" stroke-dasharray="none" stroke="black"/>
<line clip-path="url(#clipPath1)" fill="none" x1="825" x2="829" y1="522" y2="522" stroke-dasharray="none" stroke="black"/>
<line clip-path="url(#clipPath1)" fill="none" x1="829" x2="833" y1="522" y2="522" stroke-dasharray="none" stroke="black"/>
<line clip-path="url(#clipPath1)" fill="none" x1="833" x2="837" y1="522" y2="522" stroke-dasharray="none" stroke="black"/>
<rect x="32" y="22" clip-path="url(#clipPath2)" fill="none" width="642" stroke-dasharray="none" height="500" stroke="black"/>
</g>
<g text-rendering="geometricPrecision" font-size="13" font-family="'Arial'" stroke-linecap="butt">
<line clip-path="url(#clipPath2)" fill="none" x1="32" x2="674" y1="20" y2="20"/>
<line clip-path="url(#clipPath2)" fill="none" x1="32" x2="674" y1="524" y2="524"/>
<line clip-path="url(#clipPath2)" fill="none" x1="32" x2="32" y1="16" y2="20"/>
<line clip-path="url(#clipPath2)" fill="none" x1="32" x2="32" y1="528" y2="524"/>
<text font-size="11" x="26" y="13" clip-path="url(#clipPath2)" stroke="none" xml:space="preserve">0.0</text>
<text font-size="11" x="26" y="539" clip-path="url(#clipPath2)" stroke="none" xml:space="preserve">0.0</text>
<line clip-path="url(#clipPath2)" fill="none" x1="66" x2="66" y1="18" y2="20"/>
<line clip-path="url(#clipPath2)" fill="none" x1="66" x2="66" y1="526" y2="524"/>
<line clip-path="url(#clipPath2)" fill="none" x1="100" x2="100" y1="16" y2="20"/>
<line clip-path="url(#clipPath2)" fill="none" x1="100" x2="100" y1="528" y2="524"/>
<text font-size="11" x="91" y="13" clip-path="url(#clipPath2)" stroke="none" xml:space="preserve">0.02</text>
<text font-size="11" x="91" y="539" clip-path="url(#clipPath2)" stroke="none" xml:space="preserve">0.02</text>
<line clip-path="url(#clipPath2)" fill="none" x1="134" x2="134" y1="18" y2="20"/>
<line clip-path="url(#clipPath2)" fill="none" x1="134" x2="134" y1="526" y2="524"/>
<line clip-path="url(#clipPath2)" fill="none" x1="168" x2="168" y1="16" y2="20"/>
<line clip-path="url(#clipPath2)" fill="none" x1="168" x2="168" y1="528" y2="524"/>
<text font-size="11" x="159" y="13" clip-path="url(#clipPath2)" stroke="none" xml:space="preserve">0.04</text>
<text font-size="11" x="159" y="539" clip-path="url(#clipPath2)" stroke="none" xml:space="preserve">0.04</text>
<line clip-path="url(#clipPath2)" fill="none" x1="202" x2="202" y1="18" y2="20"/>
<line clip-path="url(#clipPath2)" fill="none" x1="202" x2="202" y1="526" y2="524"/>
<line clip-path="url(#clipPath2)" fill="none" x1="237" x2="237" y1="16" y2="20"/>
<line clip-path="url(#clipPath2)" fill="none" x1="237" x2="237" y1="528" y2="524"/>
<text font-size="11" x="228" y="13" clip-path="url(#clipPath2)" stroke="none" xml:space="preserve">0.06</text>
<text font-size="11" x="228" y="539" clip-path="url(#clipPath2)" stroke="none" xml:space="preserve">0.06</text>
<line clip-path="url(#clipPath2)" fill="none" x1="271" x2="271" y1="18" y2="20"/>
<line clip-path="url(#clipPath2)" fill="none" x1="271" x2="271" y1="526" y2="524"/>
<line clip-path="url(#clipPath2)" fill="none" x1="305" x2="305" y1="16" y2="20"/>
<line clip-path="url(#clipPath2)" fill="none" x1="305" x2="305" y1="528" y2="524"/>
<text font-size="11" x="296" y="13" clip-path="url(#clipPath2)" stroke="none" xml:space="preserve">0.08</text>
<text font-size="11" x="296" y="539" clip-path="url(#clipPath2)" stroke="none" xml:space="preserve">0.08</text>
<line clip-path="url(#clipPath2)" fill="none" x1="339" x2="339" y1="18" y2="20"/>
<line clip-path="url(#clipPath2)" fill="none" x1="339" x2="339" y1="526" y2="524"/>
<line clip-path="url(#clipPath2)" fill="none" x1="373" x2="373" y1="16" y2="20"/>
<line clip-path="url(#clipPath2)" fill="none" x1="373" x2="373" y1="528" y2="524"/>
<text font-size="11" x="364" y="13" clip-path="url(#clipPath2)" stroke="none" xml:space="preserve">0.10</text>
<text font-size="11" x="364" y="539" clip-path="url(#clipPath2)" stroke="none" xml:space="preserve">0.10</text>
<line clip-path="url(#clipPath2)" fill="none" x1="408" x2="408" y1="18" y2="20"/>
<line clip-path="url(#clipPath2)" fill="none" x1="408" x2="408" y1="526" y2="524"/>
<line clip-path="url(#clipPath2)" fill="none" x1="442" x2="442" y1="16" y2="20"/>
<line clip-path="url(#clipPath2)" fill="none" x1="442" x2="442" y1="528" y2="524"/>
<text font-size="11" x="433" y="13" clip-path="url(#clipPath2)" stroke="none" xml:space="preserve">0.12</text>
<text font-size="11" x="433" y="539" clip-path="url(#clipPath2)" stroke="none" xml:space="preserve">0.12</text>
<line clip-path="url(#clipPath2)" fill="none" x1="476" x2="476" y1="18" y2="20"/>
<line clip-path="url(#clipPath2)" fill="none" x1="476" x2="476" y1="526" y2="524"/>
<line clip-path="url(#clipPath2)" fill="none" x1="510" x2="510" y1="16" y2="20"/>
<line clip-path="url(#clipPath2)" fill="none" x1="510" x2="510" y1="528" y2="524"/>
<text font-size="11" x="501" y="13" clip-path="url(#clipPath2)" stroke="none" xml:space="preserve">0.14</text>
<text font-size="11" x="501" y="539" clip-path="url(#clipPath2)" stroke="none" xml:space="preserve">0.14</text>
<line clip-path="url(#clipPath2)" fill="none" x1="544" x2="544" y1="18" y2="20"/>
<line clip-path="url(#clipPath2)" fill="none" x1="544" x2="544" y1="526" y2="524"/>
<line clip-path="url(#clipPath2)" fill="none" x1="579" x2="579" y1="16" y2="20"/>
<line clip-path="url(#clipPath2)" fill="none" x1="579" x2="579" y1="528" y2="524"/>
<text font-size="11" x="570" y="13" clip-path="url(#clipPath2)" stroke="none" xml:space="preserve">0.16</text>
<text font-size="11" x="570" y="539" clip-path="url(#clipPath2)" stroke="none" xml:space="preserve">0.16</text>
<line clip-path="url(#clipPath2)" fill="none" x1="613" x2="613" y1="18" y2="20"/>
<line clip-path="url(#clipPath2)" fill="none" x1="613" x2="613" y1="526" y2="524"/>
<line clip-path="url(#clipPath2)" fill="none" x1="647" x2="647" y1="16" y2="20"/>
<line clip-path="url(#clipPath2)" fill="none" x1="647" x2="647" y1="528" y2="524"/>
<text font-size="11" x="638" y="13" clip-path="url(#clipPath2)" stroke="none" xml:space="preserve">0.18</text>
<text font-size="11" x="638" y="539" clip-path="url(#clipPath2)" stroke="none" xml:space="preserve">0.18</text>
<line clip-path="url(#clipPath2)" fill="none" x1="30" x2="30" y1="22" y2="522"/>
<line clip-path="url(#clipPath2)" fill="none" x1="676" x2="676" y1="22" y2="522"/>
<line clip-path="url(#clipPath2)" fill="none" x1="26" x2="30" y1="522" y2="522"/>
<line clip-path="url(#clipPath2)" fill="none" x1="680" x2="676" y1="522" y2="522"/>
<text font-size="11" x="20" y="526" clip-path="url(#clipPath2)" stroke="none" xml:space="preserve">0</text>
<text font-size="11" x="683" y="526" clip-path="url(#clipPath2)" stroke="none" xml:space="preserve">0</text>
<line clip-path="url(#clipPath2)" fill="none" x1="28" x2="30" y1="480" y2="480"/>
<line clip-path="url(#clipPath2)" fill="none" x1="678" x2="676" y1="480" y2="480"/>
<line clip-path="url(#clipPath2)" fill="none" x1="26" x2="30" y1="439" y2="439"/>
<line clip-path="url(#clipPath2)" fill="none" x1="680" x2="676" y1="439" y2="439"/>
<text font-size="11" x="15" y="443" clip-path="url(#clipPath2)" stroke="none" xml:space="preserve">20</text>
<text font-size="11" x="683" y="443" clip-path="url(#clipPath2)" stroke="none" xml:space="preserve">20</text>
<line clip-path="url(#clipPath2)" fill="none" x1="28" x2="30" y1="397" y2="397"/>
<line clip-path="url(#clipPath2)" fill="none" x1="678" x2="676" y1="397" y2="397"/>
<line clip-path="url(#clipPath2)" fill="none" x1="26" x2="30" y1="356" y2="356"/>
<line clip-path="url(#clipPath2)" fill="none" x1="680" x2="676" y1="356" y2="356"/>
<text font-size="11" x="15" y="360" clip-path="url(#clipPath2)" stroke="none" xml:space="preserve">40</text>
<text font-size="11" x="683" y="360" clip-path="url(#clipPath2)" stroke="none" xml:space="preserve">40</text>
<line clip-path="url(#clipPath2)" fill="none" x1="28" x2="30" y1="314" y2="314"/>
<line clip-path="url(#clipPath2)" fill="none" x1="678" x2="676" y1="314" y2="314"/>
<line clip-path="url(#clipPath2)" fill="none" x1="26" x2="30" y1="273" y2="273"/>
<line clip-path="url(#clipPath2)" fill="none" x1="680" x2="676" y1="273" y2="273"/>
<text font-size="11" x="15" y="277" clip-path="url(#clipPath2)" stroke="none" xml:space="preserve">60</text>
<text font-size="11" x="683" y="277" clip-path="url(#clipPath2)" stroke="none" xml:space="preserve">60</text>
<line clip-path="url(#clipPath2)" fill="none" x1="28" x2="30" y1="231" y2="231"/>
<line clip-path="url(#clipPath2)" fill="none" x1="678" x2="676" y1="231" y2="231"/>
<line clip-path="url(#clipPath2)" fill="none" x1="26" x2="30" y1="190" y2="190"/>
<line clip-path="url(#clipPath2)" fill="none" x1="680" x2="676" y1="190" y2="190"/>
<text font-size="11" x="15" y="194" clip-path="url(#clipPath2)" stroke="none" xml:space="preserve">80</text>
<text font-size="11" x="683" y="194" clip-path="url(#clipPath2)" stroke="none" xml:space="preserve">80</text>
<line clip-path="url(#clipPath2)" fill="none" x1="28" x2="30" y1="148" y2="148"/>
<line clip-path="url(#clipPath2)" fill="none" x1="678" x2="676" y1="148" y2="148"/>
<line clip-path="url(#clipPath2)" fill="none" x1="26" x2="30" y1="106" y2="106"/>
<line clip-path="url(#clipPath2)" fill="none" x1="680" x2="676" y1="106" y2="106"/>
<text font-size="11" x="10" y="110" clip-path="url(#clipPath2)" stroke="none" xml:space="preserve">100</text>
<text font-size="11" x="683" y="110" clip-path="url(#clipPath2)" stroke="none" xml:space="preserve">100</text>
<line clip-path="url(#clipPath2)" fill="none" x1="28" x2="30" y1="65" y2="65"/>
<line clip-path="url(#clipPath2)" fill="none" x1="678" x2="676" y1="65" y2="65"/>
<line clip-path="url(#clipPath2)" fill="none" x1="26" x2="30" y1="23" y2="23"/>
<line clip-path="url(#clipPath2)" fill="none" x1="680" x2="676" y1="23" y2="23"/>
<text font-size="11" x="10" y="27" clip-path="url(#clipPath2)" stroke="none" xml:space="preserve">120</text>
<text font-size="11" x="683" y="27" clip-path="url(#clipPath2)" stroke="none" xml:space="preserve">120</text>
</g>
</g>
</svg>
