<?xml version="1.0" encoding="UTF-8"?><svg xmlns="http://www.w3.org/2000/svg" xmlns:xlink="http://www.w3.org/1999/xlink" stroke-dasharray="none" shape-rendering="auto" font-family="'Dialog'" width="701" text-rendering="auto" fill-opacity="1" contentScriptType="text/ecmascript" color-interpolation="auto" color-rendering="auto" preserveAspectRatio="xMidYMid meet" font-size="12" fill="black" stroke="black" image-rendering="auto" stroke-miterlimit="10" zoomAndPan="magnify" version="1.0" stroke-linecap="square" stroke-linejoin="miter" contentStyleType="text/css" font-style="normal" height="453" stroke-width="1" stroke-dashoffset="0" font-weight="normal" stroke-opacity="1">
<!--Generated by the Batik Graphics2D SVG Generator-->
<defs id="genericDefs"/>
<g>
<defs id="defs1">
<clipPath clipPathUnits="userSpaceOnUse" id="clipPath1">
<path d="M48 22 L653 22 L653 431 L48 431 L48 22 Z"/>
</clipPath>
<clipPath clipPathUnits="userSpaceOnUse" id="clipPath2">
<path d="M-1 -1 L702 -1 L702 454 L-1 454 L-1 -1 Z"/>
</clipPath>
</defs>
<g font-size="15" fill="white" text-rendering="geometricPrecision" font-family="'Cantarell'" stroke-linejoin="round" stroke="white" stroke-width="0" stroke-miterlimit="0">
<rect x="49" y="23" clip-path="url(#clipPath1)" width="603" height="407" stroke="none"/>
</g>
<g stroke-linecap="butt" font-size="15" fill="rgb(204,204,204)" text-rendering="geometricPrecision" font-family="'Cantarell'" stroke-dasharray="3,3" stroke="rgb(204,204,204)">
<line clip-path="url(#clipPath1)" fill="none" x1="49" x2="652" y1="430" y2="430"/>
<line clip-path="url(#clipPath1)" fill="none" x1="49" x2="652" y1="338" y2="338"/>
<line clip-path="url(#clipPath1)" fill="none" x1="49" x2="652" y1="247" y2="247"/>
<line clip-path="url(#clipPath1)" fill="none" x1="49" x2="652" y1="155" y2="155"/>
<line clip-path="url(#clipPath1)" fill="none" x1="49" x2="652" y1="63" y2="63"/>
<line clip-path="url(#clipPath1)" fill="none" x1="-197" x2="-191" y1="430" y2="430" stroke-dasharray="none" stroke="black"/>
<line clip-path="url(#clipPath1)" fill="none" x1="-191" x2="-186" y1="430" y2="430" stroke-dasharray="none" stroke="black"/>
<line clip-path="url(#clipPath1)" fill="none" x1="-186" x2="-180" y1="430" y2="430" stroke-dasharray="none" stroke="black"/>
<line clip-path="url(#clipPath1)" fill="none" x1="-180" x2="-175" y1="430" y2="430" stroke-dasharray="none" stroke="black"/>
<line clip-path="url(#clipPath1)" fill="none" x1="-175" x2="-169" y1="430" y2="430" stroke-dasharray="none" stroke="black"/>
<line clip-path="url(#clipPath1)" fill="none" x1="-169" x2="-164" y1="430" y2="430" stroke-dasharray="none" stroke="black"/>
<line clip-path="url(#clipPath1)" fill="none" x1="-164" x2="-158" y1="430" y2="430" stroke-dasharray="none" stroke="black"/>
<line clip-path="url(#clipPath1)" fill="none" x1="-158" x2="-153" y1="430" y2="430" stroke-dasharray="none" stroke="black"/>
<line clip-path="url(#clipPath1)" fill="none" x1="-153" x2="-148" y1="430" y2="430" stroke-dasharray="none" stroke="black"/>
<line clip-path="url(#clipPath1)" fill="none" x1="-148" x2="-142" y1="430" y2="430" stroke-dasharray="none" stroke="black"/>
<line clip-path="url(#clipPath1)" fill="none" x1="-142" x2="-137" y1="430" y2="430" stroke-dasharray="none" stroke="black"/>
<line clip-path="url(#clipPath1)" fill="none" x1="-137" x2="-131" y1="430" y2="430" stroke-dasharray="none" stroke="black"/>
<line clip-path="url(#clipPath1)" fill="none" x1="-131" x2="-126" y1="430" y2="430" stroke-dasharray="none" stroke="black"/>
<line clip-path="url(#clipPath1)" fill="none" x1="-126" x2="-120" y1="430" y2="430" stroke-dasharray="none" stroke="black"/>
<line clip-path="url(#clipPath1)" fill="none" x1="-120" x2="-115" y1="430" y2="430" stroke-dasharray="none" stroke="black"/>
<line clip-path="url(#clipPath1)" fill="none" x1="-115" x2="-110" y1="430" y2="430" stroke-dasharray="none" stroke="black"/>
<line clip-path="url(#clipPath1)" fill="none" x1="-110" x2="-104" y1="430" y2="430" stroke-dasharray="none" stroke="black"/>
<line clip-path="url(#clipPath1)" fill="none" x1="-104" x2="-99" y1="430" y2="430" stroke-dasharray="none" stroke="black"/>
<line clip-path="url(#clipPath1)" fill="none" x1="-99" x2="-93" y1="430" y2="430" stroke-dasharray="none" stroke="black"/>
<line clip-path="url(#clipPath1)" fill="none" x1="-93" x2="-88" y1="430" y2="430" stroke-dasharray="none" stroke="black"/>
<line clip-path="url(#clipPath1)" fill="none" x1="-88" x2="-82" y1="430" y2="430" stroke-dasharray="none" stroke="black"/>
<line clip-path="url(#clipPath1)" fill="none" x1="-82" x2="-77" y1="430" y2="430" stroke-dasharray="none" stroke="black"/>
<line clip-path="url(#clipPath1)" fill="none" x1="-77" x2="-72" y1="430" y2="430" stroke-dasharray="none" stroke="black"/>
<line clip-path="url(#clipPath1)" fill="none" x1="-72" x2="-66" y1="430" y2="430" stroke-dasharray="none" stroke="black"/>
<line clip-path="url(#clipPath1)" fill="none" x1="-66" x2="-61" y1="430" y2="430" stroke-dasharray="none" stroke="black"/>
<line clip-path="url(#clipPath1)" fill="none" x1="-61" x2="-55" y1="430" y2="430" stroke-dasharray="none" stroke="black"/>
<line clip-path="url(#clipPath1)" fill="none" x1="-55" x2="-50" y1="430" y2="430" stroke-dasharray="none" stroke="black"/>
<line clip-path="url(#clipPath1)" fill="none" x1="-50" x2="-44" y1="430" y2="430" stroke-dasharray="none" stroke="black"/>
<line clip-path="url(#clipPath1)" fill="none" x1="-44" x2="-39" y1="430" y2="430" stroke-dasharray="none" stroke="black"/>
<line clip-path="url(#clipPath1)" fill="none" x1="-39" x2="-34" y1="430" y2="430" stroke-dasharray="none" stroke="black"/>
<line clip-path="url(#clipPath1)" fill="none" x1="-34" x2="-28" y1="430" y2="430" stroke-dasharray="none" stroke="black"/>
<line clip-path="url(#clipPath1)" fill="none" x1="-28" x2="-23" y1="430" y2="430" stroke-dasharray="none" stroke="black"/>
<line clip-path="url(#clipPath1)" fill="none" x1="-23" x2="-17" y1="430" y2="430" stroke-dasharray="none" stroke="black"/>
<line clip-path="url(#clipPath1)" fill="none" x1="-17" x2="-12" y1="430" y2="430" stroke-dasharray="none" stroke="black"/>
<line clip-path="url(#clipPath1)" fill="none" x1="-12" x2="-6" y1="430" y2="430" stroke-dasharray="none" stroke="black"/>
<line clip-path="url(#clipPath1)" fill="none" x1="-6" x2="-1" y1="430" y2="430" stroke-dasharray="none" stroke="black"/>
<line clip-path="url(#clipPath1)" fill="none" x1="-1" x2="3" y1="430" y2="430" stroke-dasharray="none" stroke="black"/>
<line clip-path="url(#clipPath1)" fill="none" x1="3" x2="9" y1="430" y2="430" stroke-dasharray="none" stroke="black"/>
<line clip-path="url(#clipPath1)" fill="none" x1="9" x2="14" y1="430" y2="430" stroke-dasharray="none" stroke="black"/>
<line clip-path="url(#clipPath1)" fill="none" x1="14" x2="20" y1="430" y2="430" stroke-dasharray="none" stroke="black"/>
<line clip-path="url(#clipPath1)" fill="none" x1="20" x2="25" y1="430" y2="430" stroke-dasharray="none" stroke="black"/>
<line clip-path="url(#clipPath1)" fill="none" x1="25" x2="31" y1="430" y2="430" stroke-dasharray="none" stroke="black"/>
<line clip-path="url(#clipPath1)" fill="none" x1="31" x2="36" y1="430" y2="430" stroke-dasharray="none" stroke="black"/>
<line clip-path="url(#clipPath1)" fill="none" x1="36" x2="41" y1="430" y2="430" stroke-dasharray="none" stroke="black"/>
<line clip-path="url(#clipPath1)" fill="none" x1="41" x2="47" y1="430" y2="430" stroke-dasharray="none" stroke="black"/>
<line clip-path="url(#clipPath1)" fill="none" x1="47" x2="52" y1="430" y2="430" stroke-dasharray="none" stroke="black"/>
<line clip-path="url(#clipPath1)" fill="none" x1="52" x2="58" y1="430" y2="430" stroke-dasharray="none" stroke="black"/>
<line clip-path="url(#clipPath1)" fill="none" x1="58" x2="63" y1="430" y2="430" stroke-dasharray="none" stroke="black"/>
<line clip-path="url(#clipPath1)" fill="none" x1="63" x2="69" y1="430" y2="430" stroke-dasharray="none" stroke="black"/>
<rect x="69" y="69" clip-path="url(#clipPath1)" fill="rgb(0,0,139)" width="5" stroke-dasharray="none" height="361" stroke="none"/>
<rect x="69" y="69" clip-path="url(#clipPath1)" fill="none" width="5" stroke-dasharray="none" height="361" stroke="black"/>
<rect x="74" y="293" clip-path="url(#clipPath1)" fill="rgb(0,0,139)" width="6" stroke-dasharray="none" height="137" stroke="none"/>
<rect x="74" y="293" clip-path="url(#clipPath1)" fill="none" width="6" stroke-dasharray="none" height="137" stroke="black"/>
<rect x="80" y="352" clip-path="url(#clipPath1)" fill="rgb(0,0,139)" width="5" stroke-dasharray="none" height="78" stroke="none"/>
<rect x="80" y="352" clip-path="url(#clipPath1)" fill="none" width="5" stroke-dasharray="none" height="78" stroke="black"/>
<rect x="85" y="397" clip-path="url(#clipPath1)" fill="rgb(0,0,139)" width="5" stroke-dasharray="none" height="33" stroke="none"/>
<rect x="85" y="397" clip-path="url(#clipPath1)" fill="none" width="5" stroke-dasharray="none" height="33" stroke="black"/>
<rect x="90" y="411" clip-path="url(#clipPath1)" fill="rgb(0,0,139)" width="6" stroke-dasharray="none" height="19" stroke="none"/>
<rect x="90" y="411" clip-path="url(#clipPath1)" fill="none" width="6" stroke-dasharray="none" height="19" stroke="black"/>
<rect x="96" y="419" clip-path="url(#clipPath1)" fill="rgb(0,0,139)" width="5" stroke-dasharray="none" height="11" stroke="none"/>
<rect x="96" y="419" clip-path="url(#clipPath1)" fill="none" width="5" stroke-dasharray="none" height="11" stroke="black"/>
<rect x="101" y="422" clip-path="url(#clipPath1)" fill="rgb(0,0,139)" width="6" stroke-dasharray="none" height="8" stroke="none"/>
<rect x="101" y="422" clip-path="url(#clipPath1)" fill="none" width="6" stroke-dasharray="none" height="8" stroke="black"/>
<rect x="107" y="425" clip-path="url(#clipPath1)" fill="rgb(0,0,139)" width="5" stroke-dasharray="none" height="5" stroke="none"/>
<rect x="107" y="425" clip-path="url(#clipPath1)" fill="none" width="5" stroke-dasharray="none" height="5" stroke="black"/>
<rect x="112" y="424" clip-path="url(#clipPath1)" fill="rgb(0,0,139)" width="6" stroke-dasharray="none" height="6" stroke="none"/>
<rect x="112" y="424" clip-path="url(#clipPath1)" fill="none" width="6" stroke-dasharray="none" height="6" stroke="black"/>
<rect x="118" y="426" clip-path="url(#clipPath1)" fill="rgb(0,0,139)" width="5" stroke-dasharray="none" height="4" stroke="none"/>
<rect x="118" y="426" clip-path="url(#clipPath1)" fill="none" width="5" stroke-dasharray="none" height="4" stroke="black"/>
<rect x="123" y="426" clip-path="url(#clipPath1)" fill="rgb(0,0,139)" width="5" stroke-dasharray="none" height="4" stroke="none"/>
<rect x="123" y="426" clip-path="url(#clipPath1)" fill="none" width="5" stroke-dasharray="none" height="4" stroke="black"/>
<rect x="128" y="427" clip-path="url(#clipPath1)" fill="rgb(0,0,139)" width="6" stroke-dasharray="none" height="3" stroke="none"/>
<rect x="128" y="427" clip-path="url(#clipPath1)" fill="none" width="6" stroke-dasharray="none" height="3" stroke="black"/>
<rect x="134" y="427" clip-path="url(#clipPath1)" fill="rgb(0,0,139)" width="5" stroke-dasharray="none" height="3" stroke="none"/>
<rect x="134" y="427" clip-path="url(#clipPath1)" fill="none" width="5" stroke-dasharray="none" height="3" stroke="black"/>
<rect x="139" y="427" clip-path="url(#clipPath1)" fill="rgb(0,0,139)" width="6" stroke-dasharray="none" height="3" stroke="none"/>
<rect x="139" y="427" clip-path="url(#clipPath1)" fill="none" width="6" stroke-dasharray="none" height="3" stroke="black"/>
<rect x="145" y="427" clip-path="url(#clipPath1)" fill="rgb(0,0,139)" width="5" stroke-dasharray="none" height="3" stroke="none"/>
<rect x="145" y="427" clip-path="url(#clipPath1)" fill="none" width="5" stroke-dasharray="none" height="3" stroke="black"/>
<rect x="150" y="427" clip-path="url(#clipPath1)" fill="rgb(0,0,139)" width="6" stroke-dasharray="none" height="3" stroke="none"/>
<rect x="150" y="427" clip-path="url(#clipPath1)" fill="none" width="6" stroke-dasharray="none" height="3" stroke="black"/>
<rect x="156" y="428" clip-path="url(#clipPath1)" fill="rgb(0,0,139)" width="5" stroke-dasharray="none" height="2" stroke="none"/>
<rect x="156" y="428" clip-path="url(#clipPath1)" fill="none" width="5" stroke-dasharray="none" height="2" stroke="black"/>
<rect x="161" y="426" clip-path="url(#clipPath1)" fill="rgb(0,0,139)" width="5" stroke-dasharray="none" height="4" stroke="none"/>
<rect x="161" y="426" clip-path="url(#clipPath1)" fill="none" width="5" stroke-dasharray="none" height="4" stroke="black"/>
<rect x="166" y="426" clip-path="url(#clipPath1)" fill="rgb(0,0,139)" width="6" stroke-dasharray="none" height="4" stroke="none"/>
<rect x="166" y="426" clip-path="url(#clipPath1)" fill="none" width="6" stroke-dasharray="none" height="4" stroke="black"/>
<rect x="172" y="427" clip-path="url(#clipPath1)" fill="rgb(0,0,139)" width="5" stroke-dasharray="none" height="3" stroke="none"/>
<rect x="172" y="427" clip-path="url(#clipPath1)" fill="none" width="5" stroke-dasharray="none" height="3" stroke="black"/>
<rect x="177" y="427" clip-path="url(#clipPath1)" fill="rgb(0,0,139)" width="6" stroke-dasharray="none" height="3" stroke="none"/>
<rect x="177" y="427" clip-path="url(#clipPath1)" fill="none" width="6" stroke-dasharray="none" height="3" stroke="black"/>
<rect x="183" y="427" clip-path="url(#clipPath1)" fill="rgb(0,0,139)" width="5" stroke-dasharray="none" height="3" stroke="none"/>
<rect x="183" y="427" clip-path="url(#clipPath1)" fill="none" width="5" stroke-dasharray="none" height="3" stroke="black"/>
<rect x="188" y="427" clip-path="url(#clipPath1)" fill="rgb(0,0,139)" width="6" stroke-dasharray="none" height="3" stroke="none"/>
<rect x="188" y="427" clip-path="url(#clipPath1)" fill="none" width="6" stroke-dasharray="none" height="3" stroke="black"/>
<rect x="194" y="427" clip-path="url(#clipPath1)" fill="rgb(0,0,139)" width="5" stroke-dasharray="none" height="3" stroke="none"/>
<rect x="194" y="427" clip-path="url(#clipPath1)" fill="none" width="5" stroke-dasharray="none" height="3" stroke="black"/>
<rect x="199" y="427" clip-path="url(#clipPath1)" fill="rgb(0,0,139)" width="5" stroke-dasharray="none" height="3" stroke="none"/>
<rect x="199" y="427" clip-path="url(#clipPath1)" fill="none" width="5" stroke-dasharray="none" height="3" stroke="black"/>
<rect x="204" y="428" clip-path="url(#clipPath1)" fill="rgb(0,0,139)" width="6" stroke-dasharray="none" height="2" stroke="none"/>
<rect x="204" y="428" clip-path="url(#clipPath1)" fill="none" width="6" stroke-dasharray="none" height="2" stroke="black"/>
<rect x="210" y="428" clip-path="url(#clipPath1)" fill="rgb(0,0,139)" width="5" stroke-dasharray="none" height="2" stroke="none"/>
<rect x="210" y="428" clip-path="url(#clipPath1)" fill="none" width="5" stroke-dasharray="none" height="2" stroke="black"/>
<rect x="215" y="428" clip-path="url(#clipPath1)" fill="rgb(0,0,139)" width="6" stroke-dasharray="none" height="2" stroke="none"/>
<rect x="215" y="428" clip-path="url(#clipPath1)" fill="none" width="6" stroke-dasharray="none" height="2" stroke="black"/>
<rect x="221" y="427" clip-path="url(#clipPath1)" fill="rgb(0,0,139)" width="5" stroke-dasharray="none" height="3" stroke="none"/>
<rect x="221" y="427" clip-path="url(#clipPath1)" fill="none" width="5" stroke-dasharray="none" height="3" stroke="black"/>
<rect x="226" y="427" clip-path="url(#clipPath1)" fill="rgb(0,0,139)" width="6" stroke-dasharray="none" height="3" stroke="none"/>
<rect x="226" y="427" clip-path="url(#clipPath1)" fill="none" width="6" stroke-dasharray="none" height="3" stroke="black"/>
<rect x="232" y="428" clip-path="url(#clipPath1)" fill="rgb(0,0,139)" width="5" stroke-dasharray="none" height="2" stroke="none"/>
<rect x="232" y="428" clip-path="url(#clipPath1)" fill="none" width="5" stroke-dasharray="none" height="2" stroke="black"/>
<rect x="237" y="427" clip-path="url(#clipPath1)" fill="rgb(0,0,139)" width="5" stroke-dasharray="none" height="3" stroke="none"/>
<rect x="237" y="427" clip-path="url(#clipPath1)" fill="none" width="5" stroke-dasharray="none" height="3" stroke="black"/>
<rect x="242" y="427" clip-path="url(#clipPath1)" fill="rgb(0,0,139)" width="6" stroke-dasharray="none" height="3" stroke="none"/>
<rect x="242" y="427" clip-path="url(#clipPath1)" fill="none" width="6" stroke-dasharray="none" height="3" stroke="black"/>
<rect x="248" y="427" clip-path="url(#clipPath1)" fill="rgb(0,0,139)" width="5" stroke-dasharray="none" height="3" stroke="none"/>
<rect x="248" y="427" clip-path="url(#clipPath1)" fill="none" width="5" stroke-dasharray="none" height="3" stroke="black"/>
<rect x="253" y="427" clip-path="url(#clipPath1)" fill="rgb(0,0,139)" width="6" stroke-dasharray="none" height="3" stroke="none"/>
<rect x="253" y="427" clip-path="url(#clipPath1)" fill="none" width="6" stroke-dasharray="none" height="3" stroke="black"/>
<rect x="259" y="428" clip-path="url(#clipPath1)" fill="rgb(0,0,139)" width="5" stroke-dasharray="none" height="2" stroke="none"/>
<rect x="259" y="428" clip-path="url(#clipPath1)" fill="none" width="5" stroke-dasharray="none" height="2" stroke="black"/>
<rect x="264" y="428" clip-path="url(#clipPath1)" fill="rgb(0,0,139)" width="6" stroke-dasharray="none" height="2" stroke="none"/>
<rect x="264" y="428" clip-path="url(#clipPath1)" fill="none" width="6" stroke-dasharray="none" height="2" stroke="black"/>
<rect x="270" y="428" clip-path="url(#clipPath1)" fill="rgb(0,0,139)" width="5" stroke-dasharray="none" height="2" stroke="none"/>
<rect x="270" y="428" clip-path="url(#clipPath1)" fill="none" width="5" stroke-dasharray="none" height="2" stroke="black"/>
<rect x="275" y="429" clip-path="url(#clipPath1)" fill="rgb(0,0,139)" width="5" stroke-dasharray="none" height="1" stroke="none"/>
<rect x="275" y="429" clip-path="url(#clipPath1)" fill="none" width="5" stroke-dasharray="none" height="1" stroke="black"/>
<rect x="280" y="428" clip-path="url(#clipPath1)" fill="rgb(0,0,139)" width="6" stroke-dasharray="none" height="2" stroke="none"/>
<rect x="280" y="428" clip-path="url(#clipPath1)" fill="none" width="6" stroke-dasharray="none" height="2" stroke="black"/>
<rect x="286" y="429" clip-path="url(#clipPath1)" fill="rgb(0,0,139)" width="5" stroke-dasharray="none" height="1" stroke="none"/>
<rect x="286" y="429" clip-path="url(#clipPath1)" fill="none" width="5" stroke-dasharray="none" height="1" stroke="black"/>
<rect x="291" y="429" clip-path="url(#clipPath1)" fill="rgb(0,0,139)" width="6" stroke-dasharray="none" height="1" stroke="none"/>
<rect x="291" y="429" clip-path="url(#clipPath1)" fill="none" width="6" stroke-dasharray="none" height="1" stroke="black"/>
<rect x="297" y="429" clip-path="url(#clipPath1)" fill="rgb(0,0,139)" width="5" stroke-dasharray="none" height="1" stroke="none"/>
<rect x="297" y="429" clip-path="url(#clipPath1)" fill="none" width="5" stroke-dasharray="none" height="1" stroke="black"/>
<rect x="302" y="429" clip-path="url(#clipPath1)" fill="rgb(0,0,139)" width="6" stroke-dasharray="none" height="1" stroke="none"/>
<rect x="302" y="429" clip-path="url(#clipPath1)" fill="none" width="6" stroke-dasharray="none" height="1" stroke="black"/>
<rect x="308" y="429" clip-path="url(#clipPath1)" fill="rgb(0,0,139)" width="5" stroke-dasharray="none" height="1" stroke="none"/>
<rect x="308" y="429" clip-path="url(#clipPath1)" fill="none" width="5" stroke-dasharray="none" height="1" stroke="black"/>
<rect x="313" y="429" clip-path="url(#clipPath1)" fill="rgb(0,0,139)" width="5" stroke-dasharray="none" height="1" stroke="none"/>
<rect x="313" y="429" clip-path="url(#clipPath1)" fill="none" width="5" stroke-dasharray="none" height="1" stroke="black"/>
<rect x="318" y="428" clip-path="url(#clipPath1)" fill="rgb(0,0,139)" width="6" stroke-dasharray="none" height="2" stroke="none"/>
<rect x="318" y="428" clip-path="url(#clipPath1)" fill="none" width="6" stroke-dasharray="none" height="2" stroke="black"/>
<rect x="324" y="428" clip-path="url(#clipPath1)" fill="rgb(0,0,139)" width="5" stroke-dasharray="none" height="2" stroke="none"/>
<rect x="324" y="428" clip-path="url(#clipPath1)" fill="none" width="5" stroke-dasharray="none" height="2" stroke="black"/>
<rect x="329" y="428" clip-path="url(#clipPath1)" fill="rgb(0,0,139)" width="6" stroke-dasharray="none" height="2" stroke="none"/>
<rect x="329" y="428" clip-path="url(#clipPath1)" fill="none" width="6" stroke-dasharray="none" height="2" stroke="black"/>
<rect x="335" y="428" clip-path="url(#clipPath1)" fill="rgb(0,0,139)" width="5" stroke-dasharray="none" height="2" stroke="none"/>
<rect x="335" y="428" clip-path="url(#clipPath1)" fill="none" width="5" stroke-dasharray="none" height="2" stroke="black"/>
<rect x="340" y="428" clip-path="url(#clipPath1)" fill="rgb(0,0,139)" width="6" stroke-dasharray="none" height="2" stroke="none"/>
<rect x="340" y="428" clip-path="url(#clipPath1)" fill="none" width="6" stroke-dasharray="none" height="2" stroke="black"/>
<rect x="346" y="428" clip-path="url(#clipPath1)" fill="rgb(0,0,139)" width="5" stroke-dasharray="none" height="2" stroke="none"/>
<rect x="346" y="428" clip-path="url(#clipPath1)" fill="none" width="5" stroke-dasharray="none" height="2" stroke="black"/>
<rect x="351" y="428" clip-path="url(#clipPath1)" fill="rgb(0,0,139)" width="6" stroke-dasharray="none" height="2" stroke="none"/>
<rect x="351" y="428" clip-path="url(#clipPath1)" fill="none" width="6" stroke-dasharray="none" height="2" stroke="black"/>
<rect x="357" y="429" clip-path="url(#clipPath1)" fill="rgb(0,0,139)" width="5" stroke-dasharray="none" height="1" stroke="none"/>
<rect x="357" y="429" clip-path="url(#clipPath1)" fill="none" width="5" stroke-dasharray="none" height="1" stroke="black"/>
<rect x="362" y="428" clip-path="url(#clipPath1)" fill="rgb(0,0,139)" width="5" stroke-dasharray="none" height="2" stroke="none"/>
<rect x="362" y="428" clip-path="url(#clipPath1)" fill="none" width="5" stroke-dasharray="none" height="2" stroke="black"/>
<rect x="367" y="428" clip-path="url(#clipPath1)" fill="rgb(0,0,139)" width="6" stroke-dasharray="none" height="2" stroke="none"/>
<rect x="367" y="428" clip-path="url(#clipPath1)" fill="none" width="6" stroke-dasharray="none" height="2" stroke="black"/>
<rect x="373" y="428" clip-path="url(#clipPath1)" fill="rgb(0,0,139)" width="5" stroke-dasharray="none" height="2" stroke="none"/>
<rect x="373" y="428" clip-path="url(#clipPath1)" fill="none" width="5" stroke-dasharray="none" height="2" stroke="black"/>
<rect x="378" y="428" clip-path="url(#clipPath1)" fill="rgb(0,0,139)" width="6" stroke-dasharray="none" height="2" stroke="none"/>
<rect x="378" y="428" clip-path="url(#clipPath1)" fill="none" width="6" stroke-dasharray="none" height="2" stroke="black"/>
<rect x="384" y="429" clip-path="url(#clipPath1)" fill="rgb(0,0,139)" width="5" stroke-dasharray="none" height="1" stroke="none"/>
<rect x="384" y="429" clip-path="url(#clipPath1)" fill="none" width="5" stroke-dasharray="none" height="1" stroke="black"/>
<rect x="389" y="429" clip-path="url(#clipPath1)" fill="rgb(0,0,139)" width="6" stroke-dasharray="none" height="1" stroke="none"/>
<rect x="389" y="429" clip-path="url(#clipPath1)" fill="none" width="6" stroke-dasharray="none" height="1" stroke="black"/>
<rect x="395" y="429" clip-path="url(#clipPath1)" fill="rgb(0,0,139)" width="5" stroke-dasharray="none" height="1" stroke="none"/>
<rect x="395" y="429" clip-path="url(#clipPath1)" fill="none" width="5" stroke-dasharray="none" height="1" stroke="black"/>
<rect x="400" y="429" clip-path="url(#clipPath1)" fill="rgb(0,0,139)" width="5" stroke-dasharray="none" height="1" stroke="none"/>
<rect x="400" y="429" clip-path="url(#clipPath1)" fill="none" width="5" stroke-dasharray="none" height="1" stroke="black"/>
<rect x="405" y="428" clip-path="url(#clipPath1)" fill="rgb(0,0,139)" width="6" stroke-dasharray="none" height="2" stroke="none"/>
<rect x="405" y="428" clip-path="url(#clipPath1)" fill="none" width="6" stroke-dasharray="none" height="2" stroke="black"/>
<rect x="411" y="429" clip-path="url(#clipPath1)" fill="rgb(0,0,139)" width="5" stroke-dasharray="none" height="1" stroke="none"/>
<rect x="411" y="429" clip-path="url(#clipPath1)" fill="none" width="5" stroke-dasharray="none" height="1" stroke="black"/>
<rect x="416" y="429" clip-path="url(#clipPath1)" fill="rgb(0,0,139)" width="6" stroke-dasharray="none" height="1" stroke="none"/>
<rect x="416" y="429" clip-path="url(#clipPath1)" fill="none" width="6" stroke-dasharray="none" height="1" stroke="black"/>
<rect x="422" y="429" clip-path="url(#clipPath1)" fill="rgb(0,0,139)" width="5" stroke-dasharray="none" height="1" stroke="none"/>
<rect x="422" y="429" clip-path="url(#clipPath1)" fill="none" width="5" stroke-dasharray="none" height="1" stroke="black"/>
<rect x="427" y="429" clip-path="url(#clipPath1)" fill="rgb(0,0,139)" width="6" stroke-dasharray="none" height="1" stroke="none"/>
<rect x="427" y="429" clip-path="url(#clipPath1)" fill="none" width="6" stroke-dasharray="none" height="1" stroke="black"/>
<rect x="433" y="429" clip-path="url(#clipPath1)" fill="rgb(0,0,139)" width="5" stroke-dasharray="none" height="1" stroke="none"/>
<rect x="433" y="429" clip-path="url(#clipPath1)" fill="none" width="5" stroke-dasharray="none" height="1" stroke="black"/>
<rect x="438" y="429" clip-path="url(#clipPath1)" fill="rgb(0,0,139)" width="5" stroke-dasharray="none" height="1" stroke="none"/>
<rect x="438" y="429" clip-path="url(#clipPath1)" fill="none" width="5" stroke-dasharray="none" height="1" stroke="black"/>
<rect x="443" y="429" clip-path="url(#clipPath1)" fill="rgb(0,0,139)" width="6" stroke-dasharray="none" height="1" stroke="none"/>
<rect x="443" y="429" clip-path="url(#clipPath1)" fill="none" width="6" stroke-dasharray="none" height="1" stroke="black"/>
<rect x="449" y="429" clip-path="url(#clipPath1)" fill="rgb(0,0,139)" width="5" stroke-dasharray="none" height="1" stroke="none"/>
<rect x="449" y="429" clip-path="url(#clipPath1)" fill="none" width="5" stroke-dasharray="none" height="1" stroke="black"/>
<line clip-path="url(#clipPath1)" fill="none" x1="454" x2="460" y1="430" y2="430" stroke-dasharray="none" stroke="black"/>
<rect x="460" y="429" clip-path="url(#clipPath1)" fill="rgb(0,0,139)" width="5" stroke-dasharray="none" height="1" stroke="none"/>
<rect x="460" y="429" clip-path="url(#clipPath1)" fill="none" width="5" stroke-dasharray="none" height="1" stroke="black"/>
<rect x="465" y="429" clip-path="url(#clipPath1)" fill="rgb(0,0,139)" width="6" stroke-dasharray="none" height="1" stroke="none"/>
<rect x="465" y="429" clip-path="url(#clipPath1)" fill="none" width="6" stroke-dasharray="none" height="1" stroke="black"/>
<line clip-path="url(#clipPath1)" fill="none" x1="471" x2="476" y1="430" y2="430" stroke-dasharray="none" stroke="black"/>
<line clip-path="url(#clipPath1)" fill="none" x1="476" x2="481" y1="430" y2="430" stroke-dasharray="none" stroke="black"/>
<rect x="481" y="429" clip-path="url(#clipPath1)" fill="rgb(0,0,139)" width="6" stroke-dasharray="none" height="1" stroke="none"/>
<rect x="481" y="429" clip-path="url(#clipPath1)" fill="none" width="6" stroke-dasharray="none" height="1" stroke="black"/>
<line clip-path="url(#clipPath1)" fill="none" x1="487" x2="492" y1="430" y2="430" stroke-dasharray="none" stroke="black"/>
<rect x="492" y="429" clip-path="url(#clipPath1)" fill="rgb(0,0,139)" width="6" stroke-dasharray="none" height="1" stroke="none"/>
<rect x="492" y="429" clip-path="url(#clipPath1)" fill="none" width="6" stroke-dasharray="none" height="1" stroke="black"/>
<rect x="498" y="429" clip-path="url(#clipPath1)" fill="rgb(0,0,139)" width="5" stroke-dasharray="none" height="1" stroke="none"/>
<rect x="498" y="429" clip-path="url(#clipPath1)" fill="none" width="5" stroke-dasharray="none" height="1" stroke="black"/>
<rect x="503" y="429" clip-path="url(#clipPath1)" fill="rgb(0,0,139)" width="6" stroke-dasharray="none" height="1" stroke="none"/>
<rect x="503" y="429" clip-path="url(#clipPath1)" fill="none" width="6" stroke-dasharray="none" height="1" stroke="black"/>
<rect x="509" y="429" clip-path="url(#clipPath1)" fill="rgb(0,0,139)" width="5" stroke-dasharray="none" height="1" stroke="none"/>
<rect x="509" y="429" clip-path="url(#clipPath1)" fill="none" width="5" stroke-dasharray="none" height="1" stroke="black"/>
<rect x="514" y="429" clip-path="url(#clipPath1)" fill="rgb(0,0,139)" width="5" stroke-dasharray="none" height="1" stroke="none"/>
<rect x="514" y="429" clip-path="url(#clipPath1)" fill="none" width="5" stroke-dasharray="none" height="1" stroke="black"/>
<rect x="519" y="429" clip-path="url(#clipPath1)" fill="rgb(0,0,139)" width="6" stroke-dasharray="none" height="1" stroke="none"/>
<rect x="519" y="429" clip-path="url(#clipPath1)" fill="none" width="6" stroke-dasharray="none" height="1" stroke="black"/>
<line clip-path="url(#clipPath1)" fill="none" x1="525" x2="530" y1="430" y2="430" stroke-dasharray="none" stroke="black"/>
<line clip-path="url(#clipPath1)" fill="none" x1="530" x2="536" y1="430" y2="430" stroke-dasharray="none" stroke="black"/>
<line clip-path="url(#clipPath1)" fill="none" x1="536" x2="541" y1="430" y2="430" stroke-dasharray="none" stroke="black"/>
<line clip-path="url(#clipPath1)" fill="none" x1="541" x2="547" y1="430" y2="430" stroke-dasharray="none" stroke="black"/>
<rect x="547" y="429" clip-path="url(#clipPath1)" fill="rgb(0,0,139)" width="5" stroke-dasharray="none" height="1" stroke="none"/>
<rect x="547" y="429" clip-path="url(#clipPath1)" fill="none" width="5" stroke-dasharray="none" height="1" stroke="black"/>
<line clip-path="url(#clipPath1)" fill="none" x1="552" x2="557" y1="430" y2="430" stroke-dasharray="none" stroke="black"/>
<line clip-path="url(#clipPath1)" fill="none" x1="557" x2="563" y1="430" y2="430" stroke-dasharray="none" stroke="black"/>
<line clip-path="url(#clipPath1)" fill="none" x1="563" x2="568" y1="430" y2="430" stroke-dasharray="none" stroke="black"/>
<line clip-path="url(#clipPath1)" fill="none" x1="568" x2="574" y1="430" y2="430" stroke-dasharray="none" stroke="black"/>
<line clip-path="url(#clipPath1)" fill="none" x1="574" x2="579" y1="430" y2="430" stroke-dasharray="none" stroke="black"/>
<line clip-path="url(#clipPath1)" fill="none" x1="579" x2="585" y1="430" y2="430" stroke-dasharray="none" stroke="black"/>
<line clip-path="url(#clipPath1)" fill="none" x1="585" x2="590" y1="430" y2="430" stroke-dasharray="none" stroke="black"/>
<line clip-path="url(#clipPath1)" fill="none" x1="590" x2="595" y1="430" y2="430" stroke-dasharray="none" stroke="black"/>
<line clip-path="url(#clipPath1)" fill="none" x1="595" x2="601" y1="430" y2="430" stroke-dasharray="none" stroke="black"/>
<line clip-path="url(#clipPath1)" fill="none" x1="601" x2="606" y1="430" y2="430" stroke-dasharray="none" stroke="black"/>
<line clip-path="url(#clipPath1)" fill="none" x1="606" x2="612" y1="430" y2="430" stroke-dasharray="none" stroke="black"/>
<line clip-path="url(#clipPath1)" fill="none" x1="612" x2="617" y1="430" y2="430" stroke-dasharray="none" stroke="black"/>
<line clip-path="url(#clipPath1)" fill="none" x1="617" x2="623" y1="430" y2="430" stroke-dasharray="none" stroke="black"/>
<line clip-path="url(#clipPath1)" fill="none" x1="623" x2="628" y1="430" y2="430" stroke-dasharray="none" stroke="black"/>
<line clip-path="url(#clipPath1)" fill="none" x1="628" x2="634" y1="430" y2="430" stroke-dasharray="none" stroke="black"/>
<line clip-path="url(#clipPath1)" fill="none" x1="634" x2="639" y1="430" y2="430" stroke-dasharray="none" stroke="black"/>
<line clip-path="url(#clipPath1)" fill="none" x1="639" x2="644" y1="430" y2="430" stroke-dasharray="none" stroke="black"/>
<line clip-path="url(#clipPath1)" fill="none" x1="644" x2="650" y1="430" y2="430" stroke-dasharray="none" stroke="black"/>
<line clip-path="url(#clipPath1)" fill="none" x1="650" x2="655" y1="430" y2="430" stroke-dasharray="none" stroke="black"/>
<line clip-path="url(#clipPath1)" fill="none" x1="655" x2="661" y1="430" y2="430" stroke-dasharray="none" stroke="black"/>
<line clip-path="url(#clipPath1)" fill="none" x1="661" x2="666" y1="430" y2="430" stroke-dasharray="none" stroke="black"/>
<line clip-path="url(#clipPath1)" fill="none" x1="666" x2="672" y1="430" y2="430" stroke-dasharray="none" stroke="black"/>
<line clip-path="url(#clipPath1)" fill="none" x1="672" x2="677" y1="430" y2="430" stroke-dasharray="none" stroke="black"/>
<line clip-path="url(#clipPath1)" fill="none" x1="677" x2="682" y1="430" y2="430" stroke-dasharray="none" stroke="black"/>
<line clip-path="url(#clipPath1)" fill="none" x1="682" x2="688" y1="430" y2="430" stroke-dasharray="none" stroke="black"/>
<line clip-path="url(#clipPath1)" fill="none" x1="688" x2="693" y1="430" y2="430" stroke-dasharray="none" stroke="black"/>
<line clip-path="url(#clipPath1)" fill="none" x1="693" x2="699" y1="430" y2="430" stroke-dasharray="none" stroke="black"/>
<line clip-path="url(#clipPath1)" fill="none" x1="699" x2="704" y1="430" y2="430" stroke-dasharray="none" stroke="black"/>
<line clip-path="url(#clipPath1)" fill="none" x1="704" x2="710" y1="430" y2="430" stroke-dasharray="none" stroke="black"/>
<line clip-path="url(#clipPath1)" fill="none" x1="710" x2="715" y1="430" y2="430" stroke-dasharray="none" stroke="black"/>
<line clip-path="url(#clipPath1)" fill="none" x1="715" x2="720" y1="430" y2="430" stroke-dasharray="none" stroke="black"/>
<line clip-path="url(#clipPath1)" fill="none" x1="720" x2="726" y1="430" y2="430" stroke-dasharray="none" stroke="black"/>
<line clip-path="url(#clipPath1)" fill="none" x1="726" x2="731" y1="430" y2="430" stroke-dasharray="none" stroke="black"/>
<line clip-path="url(#clipPath1)" fill="none" x1="731" x2="737" y1="430" y2="430" stroke-dasharray="none" stroke="black"/>
<line clip-path="url(#clipPath1)" fill="none" x1="737" x2="742" y1="430" y2="430" stroke-dasharray="none" stroke="black"/>
<line clip-path="url(#clipPath1)" fill="none" x1="742" x2="748" y1="430" y2="430" stroke-dasharray="none" stroke="black"/>
<line clip-path="url(#clipPath1)" fill="none" x1="748" x2="753" y1="430" y2="430" stroke-dasharray="none" stroke="black"/>
<line clip-path="url(#clipPath1)" fill="none" x1="753" x2="758" y1="430" y2="430" stroke-dasharray="none" stroke="black"/>
<line clip-path="url(#clipPath1)" fill="none" x1="758" x2="764" y1="430" y2="430" stroke-dasharray="none" stroke="black"/>
<line clip-path="url(#clipPath1)" fill="none" x1="764" x2="769" y1="430" y2="430" stroke-dasharray="none" stroke="black"/>
<line clip-path="url(#clipPath1)" fill="none" x1="769" x2="775" y1="430" y2="430" stroke-dasharray="none" stroke="black"/>
<line clip-path="url(#clipPath1)" fill="none" x1="775" x2="780" y1="430" y2="430" stroke-dasharray="none" stroke="black"/>
<line clip-path="url(#clipPath1)" fill="none" x1="780" x2="786" y1="430" y2="430" stroke-dasharray="none" stroke="black"/>
<line clip-path="url(#clipPath1)" fill="none" x1="786" x2="791" y1="430" y2="430" stroke-dasharray="none" stroke="black"/>
<line clip-path="url(#clipPath1)" fill="none" x1="791" x2="796" y1="430" y2="430" stroke-dasharray="none" stroke="black"/>
<line clip-path="url(#clipPath1)" fill="none" x1="796" x2="802" y1="430" y2="430" stroke-dasharray="none" stroke="black"/>
<line clip-path="url(#clipPath1)" fill="none" x1="802" x2="807" y1="430" y2="430" stroke-dasharray="none" stroke="black"/>
<line clip-path="url(#clipPath1)" fill="none" x1="807" x2="813" y1="430" y2="430" stroke-dasharray="none" stroke="black"/>
<line clip-path="url(#clipPath1)" fill="none" x1="813" x2="818" y1="430" y2="430" stroke-dasharray="none" stroke="black"/>
<line clip-path="url(#clipPath1)" fill="none" x1="818" x2="824" y1="430" y2="430" stroke-dasharray="none" stroke="black"/>
<line clip-path="url(#clipPath1)" fill="none" x1="824" x2="829" y1="430" y2="430" stroke-dasharray="none" stroke="black"/>
<line clip-path="url(#clipPath1)" fill="none" x1="829" x2="834" y1="430" y2="430" stroke-dasharray="none" stroke="black"/>
<line clip-path="url(#clipPath1)" fill="none" x1="834" x2="840" y1="430" y2="430" stroke-dasharray="none" stroke="black"/>
<line clip-path="url(#clipPath1)" fill="none" x1="840" x2="845" y1="430" y2="430" stroke-dasharray="none" stroke="black"/>
<line clip-path="url(#clipPath1)" fill="none" x1="845" x2="851" y1="430" y2="430" stroke-dasharray="none" stroke="black"/>
<line clip-path="url(#clipPath1)" fill="none" x1="851" x2="856" y1="430" y2="430" stroke-dasharray="none" stroke="black"/>
<line clip-path="url(#clipPath1)" fill="none" x1="856" x2="862" y1="430" y2="430" stroke-dasharray="none" stroke="black"/>
<line clip-path="url(#clipPath1)" fill="none" x1="862" x2="867" y1="430" y2="430" stroke-dasharray="none" stroke="black"/>
<line clip-path="url(#clipPath1)" fill="none" x1="867" x2="872" y1="430" y2="430" stroke-dasharray="none" stroke="black"/>
<line clip-path="url(#clipPath1)" fill="none" x1="872" x2="878" y1="430" y2="430" stroke-dasharray="none" stroke="black"/>
<line clip-path="url(#clipPath1)" fill="none" x1="878" x2="883" y1="430" y2="430" stroke-dasharray="none" stroke="black"/>
<line clip-path="url(#clipPath1)" fill="none" x1="883" x2="889" y1="430" y2="430" stroke-dasharray="none" stroke="black"/>
<rect x="49" y="23" clip-path="url(#clipPath2)" fill="none" width="603" stroke-dasharray="none" height="407" stroke="black"/>
</g>
<g text-rendering="geometricPrecision" font-size="13" stroke-linecap="butt">
<line clip-path="url(#clipPath2)" fill="none" x1="49" x2="652" y1="21" y2="21"/>
<line clip-path="url(#clipPath2)" fill="none" x1="49" x2="652" y1="432" y2="432"/>
<line clip-path="url(#clipPath2)" fill="none" x1="54" x2="54" y1="17" y2="21"/>
<line clip-path="url(#clipPath2)" fill="none" x1="54" x2="54" y1="436" y2="432"/>
<text x="34" font-size="11" y="14" clip-path="url(#clipPath2)" stroke="none" xml:space="preserve">0.00030</text>
<text x="34" font-size="11" y="448" clip-path="url(#clipPath2)" stroke="none" xml:space="preserve">0.00030</text>
<line clip-path="url(#clipPath2)" fill="none" x1="71" x2="71" y1="19" y2="21"/>
<line clip-path="url(#clipPath2)" fill="none" x1="71" x2="71" y1="434" y2="432"/>
<line clip-path="url(#clipPath2)" fill="none" x1="88" x2="88" y1="19" y2="21"/>
<line clip-path="url(#clipPath2)" fill="none" x1="88" x2="88" y1="434" y2="432"/>
<line clip-path="url(#clipPath2)" fill="none" x1="104" x2="104" y1="19" y2="21"/>
<line clip-path="url(#clipPath2)" fill="none" x1="104" x2="104" y1="434" y2="432"/>
<line clip-path="url(#clipPath2)" fill="none" x1="121" x2="121" y1="19" y2="21"/>
<line clip-path="url(#clipPath2)" fill="none" x1="121" x2="121" y1="434" y2="432"/>
<line clip-path="url(#clipPath2)" fill="none" x1="138" x2="138" y1="17" y2="21"/>
<line clip-path="url(#clipPath2)" fill="none" x1="138" x2="138" y1="436" y2="432"/>
<text x="118" font-size="11" y="14" clip-path="url(#clipPath2)" stroke="none" xml:space="preserve">0.00040</text>
<text x="118" font-size="11" y="448" clip-path="url(#clipPath2)" stroke="none" xml:space="preserve">0.00040</text>
<line clip-path="url(#clipPath2)" fill="none" x1="155" x2="155" y1="19" y2="21"/>
<line clip-path="url(#clipPath2)" fill="none" x1="155" x2="155" y1="434" y2="432"/>
<line clip-path="url(#clipPath2)" fill="none" x1="171" x2="171" y1="19" y2="21"/>
<line clip-path="url(#clipPath2)" fill="none" x1="171" x2="171" y1="434" y2="432"/>
<line clip-path="url(#clipPath2)" fill="none" x1="188" x2="188" y1="19" y2="21"/>
<line clip-path="url(#clipPath2)" fill="none" x1="188" x2="188" y1="434" y2="432"/>
<line clip-path="url(#clipPath2)" fill="none" x1="205" x2="205" y1="19" y2="21"/>
<line clip-path="url(#clipPath2)" fill="none" x1="205" x2="205" y1="434" y2="432"/>
<line clip-path="url(#clipPath2)" fill="none" x1="222" x2="222" y1="17" y2="21"/>
<line clip-path="url(#clipPath2)" fill="none" x1="222" x2="222" y1="436" y2="432"/>
<text x="202" font-size="11" y="14" clip-path="url(#clipPath2)" stroke="none" xml:space="preserve">0.00050</text>
<text x="202" font-size="11" y="448" clip-path="url(#clipPath2)" stroke="none" xml:space="preserve">0.00050</text>
<line clip-path="url(#clipPath2)" fill="none" x1="239" x2="239" y1="19" y2="21"/>
<line clip-path="url(#clipPath2)" fill="none" x1="239" x2="239" y1="434" y2="432"/>
<line clip-path="url(#clipPath2)" fill="none" x1="255" x2="255" y1="19" y2="21"/>
<line clip-path="url(#clipPath2)" fill="none" x1="255" x2="255" y1="434" y2="432"/>
<line clip-path="url(#clipPath2)" fill="none" x1="272" x2="272" y1="19" y2="21"/>
<line clip-path="url(#clipPath2)" fill="none" x1="272" x2="272" y1="434" y2="432"/>
<line clip-path="url(#clipPath2)" fill="none" x1="289" x2="289" y1="19" y2="21"/>
<line clip-path="url(#clipPath2)" fill="none" x1="289" x2="289" y1="434" y2="432"/>
<line clip-path="url(#clipPath2)" fill="none" x1="306" x2="306" y1="17" y2="21"/>
<line clip-path="url(#clipPath2)" fill="none" x1="306" x2="306" y1="436" y2="432"/>
<text x="286" font-size="11" y="14" clip-path="url(#clipPath2)" stroke="none" xml:space="preserve">0.00060</text>
<text x="286" font-size="11" y="448" clip-path="url(#clipPath2)" stroke="none" xml:space="preserve">0.00060</text>
<line clip-path="url(#clipPath2)" fill="none" x1="322" x2="322" y1="19" y2="21"/>
<line clip-path="url(#clipPath2)" fill="none" x1="322" x2="322" y1="434" y2="432"/>
<line clip-path="url(#clipPath2)" fill="none" x1="339" x2="339" y1="19" y2="21"/>
<line clip-path="url(#clipPath2)" fill="none" x1="339" x2="339" y1="434" y2="432"/>
<line clip-path="url(#clipPath2)" fill="none" x1="356" x2="356" y1="19" y2="21"/>
<line clip-path="url(#clipPath2)" fill="none" x1="356" x2="356" y1="434" y2="432"/>
<line clip-path="url(#clipPath2)" fill="none" x1="373" x2="373" y1="19" y2="21"/>
<line clip-path="url(#clipPath2)" fill="none" x1="373" x2="373" y1="434" y2="432"/>
<line clip-path="url(#clipPath2)" fill="none" x1="389" x2="389" y1="17" y2="21"/>
<line clip-path="url(#clipPath2)" fill="none" x1="389" x2="389" y1="436" y2="432"/>
<text x="369" font-size="11" y="14" clip-path="url(#clipPath2)" stroke="none" xml:space="preserve">0.00070</text>
<text x="369" font-size="11" y="448" clip-path="url(#clipPath2)" stroke="none" xml:space="preserve">0.00070</text>
<line clip-path="url(#clipPath2)" fill="none" x1="406" x2="406" y1="19" y2="21"/>
<line clip-path="url(#clipPath2)" fill="none" x1="406" x2="406" y1="434" y2="432"/>
<line clip-path="url(#clipPath2)" fill="none" x1="423" x2="423" y1="19" y2="21"/>
<line clip-path="url(#clipPath2)" fill="none" x1="423" x2="423" y1="434" y2="432"/>
<line clip-path="url(#clipPath2)" fill="none" x1="440" x2="440" y1="19" y2="21"/>
<line clip-path="url(#clipPath2)" fill="none" x1="440" x2="440" y1="434" y2="432"/>
<line clip-path="url(#clipPath2)" fill="none" x1="457" x2="457" y1="19" y2="21"/>
<line clip-path="url(#clipPath2)" fill="none" x1="457" x2="457" y1="434" y2="432"/>
<line clip-path="url(#clipPath2)" fill="none" x1="473" x2="473" y1="17" y2="21"/>
<line clip-path="url(#clipPath2)" fill="none" x1="473" x2="473" y1="436" y2="432"/>
<text x="453" font-size="11" y="14" clip-path="url(#clipPath2)" stroke="none" xml:space="preserve">0.00080</text>
<text x="453" font-size="11" y="448" clip-path="url(#clipPath2)" stroke="none" xml:space="preserve">0.00080</text>
<line clip-path="url(#clipPath2)" fill="none" x1="490" x2="490" y1="19" y2="21"/>
<line clip-path="url(#clipPath2)" fill="none" x1="490" x2="490" y1="434" y2="432"/>
<line clip-path="url(#clipPath2)" fill="none" x1="507" x2="507" y1="19" y2="21"/>
<line clip-path="url(#clipPath2)" fill="none" x1="507" x2="507" y1="434" y2="432"/>
<line clip-path="url(#clipPath2)" fill="none" x1="524" x2="524" y1="19" y2="21"/>
<line clip-path="url(#clipPath2)" fill="none" x1="524" x2="524" y1="434" y2="432"/>
<line clip-path="url(#clipPath2)" fill="none" x1="540" x2="540" y1="19" y2="21"/>
<line clip-path="url(#clipPath2)" fill="none" x1="540" x2="540" y1="434" y2="432"/>
<line clip-path="url(#clipPath2)" fill="none" x1="557" x2="557" y1="17" y2="21"/>
<line clip-path="url(#clipPath2)" fill="none" x1="557" x2="557" y1="436" y2="432"/>
<text x="537" font-size="11" y="14" clip-path="url(#clipPath2)" stroke="none" xml:space="preserve">0.00090</text>
<text x="537" font-size="11" y="448" clip-path="url(#clipPath2)" stroke="none" xml:space="preserve">0.00090</text>
<line clip-path="url(#clipPath2)" fill="none" x1="574" x2="574" y1="19" y2="21"/>
<line clip-path="url(#clipPath2)" fill="none" x1="574" x2="574" y1="434" y2="432"/>
<line clip-path="url(#clipPath2)" fill="none" x1="591" x2="591" y1="19" y2="21"/>
<line clip-path="url(#clipPath2)" fill="none" x1="591" x2="591" y1="434" y2="432"/>
<line clip-path="url(#clipPath2)" fill="none" x1="608" x2="608" y1="19" y2="21"/>
<line clip-path="url(#clipPath2)" fill="none" x1="608" x2="608" y1="434" y2="432"/>
<line clip-path="url(#clipPath2)" fill="none" x1="624" x2="624" y1="19" y2="21"/>
<line clip-path="url(#clipPath2)" fill="none" x1="624" x2="624" y1="434" y2="432"/>
<line clip-path="url(#clipPath2)" fill="none" x1="641" x2="641" y1="17" y2="21"/>
<line clip-path="url(#clipPath2)" fill="none" x1="641" x2="641" y1="436" y2="432"/>
<text x="621" font-size="11" y="14" clip-path="url(#clipPath2)" stroke="none" xml:space="preserve">0.00100</text>
<text x="621" font-size="11" y="448" clip-path="url(#clipPath2)" stroke="none" xml:space="preserve">0.00100</text>
<line clip-path="url(#clipPath2)" fill="none" x1="47" x2="47" y1="23" y2="430"/>
<line clip-path="url(#clipPath2)" fill="none" x1="654" x2="654" y1="23" y2="430"/>
<line clip-path="url(#clipPath2)" fill="none" x1="43" x2="47" y1="430" y2="430"/>
<line clip-path="url(#clipPath2)" fill="none" x1="658" x2="654" y1="430" y2="430"/>
<text x="36" font-size="11" y="435" clip-path="url(#clipPath2)" stroke="none" xml:space="preserve">0</text>
<text x="661" font-size="11" y="435" clip-path="url(#clipPath2)" stroke="none" xml:space="preserve">0</text>
<line clip-path="url(#clipPath2)" fill="none" x1="45" x2="47" y1="384" y2="384"/>
<line clip-path="url(#clipPath2)" fill="none" x1="656" x2="654" y1="384" y2="384"/>
<line clip-path="url(#clipPath2)" fill="none" x1="43" x2="47" y1="338" y2="338"/>
<line clip-path="url(#clipPath2)" fill="none" x1="658" x2="654" y1="338" y2="338"/>
<text x="18" font-size="11" y="343" clip-path="url(#clipPath2)" stroke="none" xml:space="preserve">2000</text>
<text x="661" font-size="11" y="343" clip-path="url(#clipPath2)" stroke="none" xml:space="preserve">2000</text>
<line clip-path="url(#clipPath2)" fill="none" x1="45" x2="47" y1="292" y2="292"/>
<line clip-path="url(#clipPath2)" fill="none" x1="656" x2="654" y1="292" y2="292"/>
<line clip-path="url(#clipPath2)" fill="none" x1="43" x2="47" y1="247" y2="247"/>
<line clip-path="url(#clipPath2)" fill="none" x1="658" x2="654" y1="247" y2="247"/>
<text x="18" font-size="11" y="252" clip-path="url(#clipPath2)" stroke="none" xml:space="preserve">4000</text>
<text x="661" font-size="11" y="252" clip-path="url(#clipPath2)" stroke="none" xml:space="preserve">4000</text>
<line clip-path="url(#clipPath2)" fill="none" x1="45" x2="47" y1="201" y2="201"/>
<line clip-path="url(#clipPath2)" fill="none" x1="656" x2="654" y1="201" y2="201"/>
<line clip-path="url(#clipPath2)" fill="none" x1="43" x2="47" y1="155" y2="155"/>
<line clip-path="url(#clipPath2)" fill="none" x1="658" x2="654" y1="155" y2="155"/>
<text x="18" font-size="11" y="160" clip-path="url(#clipPath2)" stroke="none" xml:space="preserve">6000</text>
<text x="661" font-size="11" y="160" clip-path="url(#clipPath2)" stroke="none" xml:space="preserve">6000</text>
<line clip-path="url(#clipPath2)" fill="none" x1="45" x2="47" y1="109" y2="109"/>
<line clip-path="url(#clipPath2)" fill="none" x1="656" x2="654" y1="109" y2="109"/>
<line clip-path="url(#clipPath2)" fill="none" x1="43" x2="47" y1="63" y2="63"/>
<line clip-path="url(#clipPath2)" fill="none" x1="658" x2="654" y1="63" y2="63"/>
<text x="18" font-size="11" y="68" clip-path="url(#clipPath2)" stroke="none" xml:space="preserve">8000</text>
<text x="661" font-size="11" y="68" clip-path="url(#clipPath2)" stroke="none" xml:space="preserve">8000</text>
</g>
</g>
</svg>
