<?xml version="1.0" encoding="UTF-8"?><svg xmlns="http://www.w3.org/2000/svg" xmlns:xlink="http://www.w3.org/1999/xlink" stroke-dasharray="none" shape-rendering="auto" font-family="'Dialog'" width="714" text-rendering="auto" fill-opacity="1" contentScriptType="text/ecmascript" color-interpolation="auto" color-rendering="auto" preserveAspectRatio="xMidYMid meet" font-size="12" fill="black" stroke="black" image-rendering="auto" stroke-miterlimit="10" zoomAndPan="magnify" version="1.0" stroke-linecap="square" stroke-linejoin="miter" contentStyleType="text/css" font-style="normal" height="453" stroke-width="1" stroke-dashoffset="0" font-weight="normal" stroke-opacity="1">
<!--Generated by the Batik Graphics2D SVG Generator-->
<defs id="genericDefs"/>
<g>
<defs id="defs1">
<clipPath clipPathUnits="userSpaceOnUse" id="clipPath1">
<path d="M27 22 L687 22 L687 431 L27 431 L27 22 Z"/>
</clipPath>
<clipPath clipPathUnits="userSpaceOnUse" id="clipPath2">
<path d="M-1 -1 L715 -1 L715 454 L-1 454 L-1 -1 Z"/>
</clipPath>
</defs>
<g font-size="15" fill="white" text-rendering="geometricPrecision" font-family="'Cantarell'" stroke-linejoin="round" stroke="white" stroke-width="0" stroke-miterlimit="0">
<rect x="28" y="23" clip-path="url(#clipPath1)" width="658" height="407" stroke="none"/>
</g>
<g stroke-linecap="butt" font-size="15" fill="rgb(204,204,204)" text-rendering="geometricPrecision" font-family="'Cantarell'" stroke-dasharray="3,3" stroke="rgb(204,204,204)">
<line clip-path="url(#clipPath1)" fill="none" x1="28" x2="686" y1="430" y2="430"/>
<line clip-path="url(#clipPath1)" fill="none" x1="28" x2="686" y1="379" y2="379"/>
<line clip-path="url(#clipPath1)" fill="none" x1="28" x2="686" y1="328" y2="328"/>
<line clip-path="url(#clipPath1)" fill="none" x1="28" x2="686" y1="277" y2="277"/>
<line clip-path="url(#clipPath1)" fill="none" x1="28" x2="686" y1="226" y2="226"/>
<line clip-path="url(#clipPath1)" fill="none" x1="28" x2="686" y1="175" y2="175"/>
<line clip-path="url(#clipPath1)" fill="none" x1="28" x2="686" y1="124" y2="124"/>
<line clip-path="url(#clipPath1)" fill="none" x1="28" x2="686" y1="73" y2="73"/>
<line clip-path="url(#clipPath1)" fill="none" x1="-714" x2="-706" y1="430" y2="430" stroke-dasharray="none" stroke="black"/>
<line clip-path="url(#clipPath1)" fill="none" x1="-706" x2="-698" y1="430" y2="430" stroke-dasharray="none" stroke="black"/>
<line clip-path="url(#clipPath1)" fill="none" x1="-698" x2="-690" y1="430" y2="430" stroke-dasharray="none" stroke="black"/>
<line clip-path="url(#clipPath1)" fill="none" x1="-690" x2="-682" y1="430" y2="430" stroke-dasharray="none" stroke="black"/>
<line clip-path="url(#clipPath1)" fill="none" x1="-682" x2="-674" y1="430" y2="430" stroke-dasharray="none" stroke="black"/>
<line clip-path="url(#clipPath1)" fill="none" x1="-674" x2="-666" y1="430" y2="430" stroke-dasharray="none" stroke="black"/>
<line clip-path="url(#clipPath1)" fill="none" x1="-666" x2="-659" y1="430" y2="430" stroke-dasharray="none" stroke="black"/>
<line clip-path="url(#clipPath1)" fill="none" x1="-659" x2="-651" y1="430" y2="430" stroke-dasharray="none" stroke="black"/>
<line clip-path="url(#clipPath1)" fill="none" x1="-651" x2="-643" y1="430" y2="430" stroke-dasharray="none" stroke="black"/>
<line clip-path="url(#clipPath1)" fill="none" x1="-643" x2="-635" y1="430" y2="430" stroke-dasharray="none" stroke="black"/>
<line clip-path="url(#clipPath1)" fill="none" x1="-635" x2="-627" y1="430" y2="430" stroke-dasharray="none" stroke="black"/>
<line clip-path="url(#clipPath1)" fill="none" x1="-627" x2="-619" y1="430" y2="430" stroke-dasharray="none" stroke="black"/>
<line clip-path="url(#clipPath1)" fill="none" x1="-619" x2="-612" y1="430" y2="430" stroke-dasharray="none" stroke="black"/>
<line clip-path="url(#clipPath1)" fill="none" x1="-612" x2="-604" y1="430" y2="430" stroke-dasharray="none" stroke="black"/>
<line clip-path="url(#clipPath1)" fill="none" x1="-604" x2="-596" y1="430" y2="430" stroke-dasharray="none" stroke="black"/>
<line clip-path="url(#clipPath1)" fill="none" x1="-596" x2="-588" y1="430" y2="430" stroke-dasharray="none" stroke="black"/>
<line clip-path="url(#clipPath1)" fill="none" x1="-588" x2="-580" y1="430" y2="430" stroke-dasharray="none" stroke="black"/>
<line clip-path="url(#clipPath1)" fill="none" x1="-580" x2="-572" y1="430" y2="430" stroke-dasharray="none" stroke="black"/>
<line clip-path="url(#clipPath1)" fill="none" x1="-572" x2="-565" y1="430" y2="430" stroke-dasharray="none" stroke="black"/>
<line clip-path="url(#clipPath1)" fill="none" x1="-565" x2="-557" y1="430" y2="430" stroke-dasharray="none" stroke="black"/>
<line clip-path="url(#clipPath1)" fill="none" x1="-557" x2="-549" y1="430" y2="430" stroke-dasharray="none" stroke="black"/>
<line clip-path="url(#clipPath1)" fill="none" x1="-549" x2="-541" y1="430" y2="430" stroke-dasharray="none" stroke="black"/>
<line clip-path="url(#clipPath1)" fill="none" x1="-541" x2="-533" y1="430" y2="430" stroke-dasharray="none" stroke="black"/>
<line clip-path="url(#clipPath1)" fill="none" x1="-533" x2="-525" y1="430" y2="430" stroke-dasharray="none" stroke="black"/>
<line clip-path="url(#clipPath1)" fill="none" x1="-525" x2="-518" y1="430" y2="430" stroke-dasharray="none" stroke="black"/>
<line clip-path="url(#clipPath1)" fill="none" x1="-518" x2="-510" y1="430" y2="430" stroke-dasharray="none" stroke="black"/>
<line clip-path="url(#clipPath1)" fill="none" x1="-510" x2="-502" y1="430" y2="430" stroke-dasharray="none" stroke="black"/>
<line clip-path="url(#clipPath1)" fill="none" x1="-502" x2="-494" y1="430" y2="430" stroke-dasharray="none" stroke="black"/>
<line clip-path="url(#clipPath1)" fill="none" x1="-494" x2="-486" y1="430" y2="430" stroke-dasharray="none" stroke="black"/>
<line clip-path="url(#clipPath1)" fill="none" x1="-486" x2="-478" y1="430" y2="430" stroke-dasharray="none" stroke="black"/>
<line clip-path="url(#clipPath1)" fill="none" x1="-478" x2="-471" y1="430" y2="430" stroke-dasharray="none" stroke="black"/>
<line clip-path="url(#clipPath1)" fill="none" x1="-471" x2="-463" y1="430" y2="430" stroke-dasharray="none" stroke="black"/>
<line clip-path="url(#clipPath1)" fill="none" x1="-463" x2="-455" y1="430" y2="430" stroke-dasharray="none" stroke="black"/>
<line clip-path="url(#clipPath1)" fill="none" x1="-455" x2="-447" y1="430" y2="430" stroke-dasharray="none" stroke="black"/>
<line clip-path="url(#clipPath1)" fill="none" x1="-447" x2="-439" y1="430" y2="430" stroke-dasharray="none" stroke="black"/>
<line clip-path="url(#clipPath1)" fill="none" x1="-439" x2="-431" y1="430" y2="430" stroke-dasharray="none" stroke="black"/>
<line clip-path="url(#clipPath1)" fill="none" x1="-431" x2="-424" y1="430" y2="430" stroke-dasharray="none" stroke="black"/>
<line clip-path="url(#clipPath1)" fill="none" x1="-424" x2="-416" y1="430" y2="430" stroke-dasharray="none" stroke="black"/>
<line clip-path="url(#clipPath1)" fill="none" x1="-416" x2="-408" y1="430" y2="430" stroke-dasharray="none" stroke="black"/>
<line clip-path="url(#clipPath1)" fill="none" x1="-408" x2="-400" y1="430" y2="430" stroke-dasharray="none" stroke="black"/>
<line clip-path="url(#clipPath1)" fill="none" x1="-400" x2="-392" y1="430" y2="430" stroke-dasharray="none" stroke="black"/>
<line clip-path="url(#clipPath1)" fill="none" x1="-392" x2="-384" y1="430" y2="430" stroke-dasharray="none" stroke="black"/>
<line clip-path="url(#clipPath1)" fill="none" x1="-384" x2="-377" y1="430" y2="430" stroke-dasharray="none" stroke="black"/>
<line clip-path="url(#clipPath1)" fill="none" x1="-377" x2="-369" y1="430" y2="430" stroke-dasharray="none" stroke="black"/>
<line clip-path="url(#clipPath1)" fill="none" x1="-369" x2="-361" y1="430" y2="430" stroke-dasharray="none" stroke="black"/>
<line clip-path="url(#clipPath1)" fill="none" x1="-361" x2="-353" y1="430" y2="430" stroke-dasharray="none" stroke="black"/>
<line clip-path="url(#clipPath1)" fill="none" x1="-353" x2="-345" y1="430" y2="430" stroke-dasharray="none" stroke="black"/>
<line clip-path="url(#clipPath1)" fill="none" x1="-345" x2="-337" y1="430" y2="430" stroke-dasharray="none" stroke="black"/>
<line clip-path="url(#clipPath1)" fill="none" x1="-337" x2="-329" y1="430" y2="430" stroke-dasharray="none" stroke="black"/>
<line clip-path="url(#clipPath1)" fill="none" x1="-329" x2="-322" y1="430" y2="430" stroke-dasharray="none" stroke="black"/>
<line clip-path="url(#clipPath1)" fill="none" x1="-322" x2="-314" y1="430" y2="430" stroke-dasharray="none" stroke="black"/>
<line clip-path="url(#clipPath1)" fill="none" x1="-314" x2="-306" y1="430" y2="430" stroke-dasharray="none" stroke="black"/>
<line clip-path="url(#clipPath1)" fill="none" x1="-306" x2="-298" y1="430" y2="430" stroke-dasharray="none" stroke="black"/>
<line clip-path="url(#clipPath1)" fill="none" x1="-298" x2="-290" y1="430" y2="430" stroke-dasharray="none" stroke="black"/>
<line clip-path="url(#clipPath1)" fill="none" x1="-290" x2="-282" y1="430" y2="430" stroke-dasharray="none" stroke="black"/>
<line clip-path="url(#clipPath1)" fill="none" x1="-282" x2="-275" y1="430" y2="430" stroke-dasharray="none" stroke="black"/>
<line clip-path="url(#clipPath1)" fill="none" x1="-275" x2="-267" y1="430" y2="430" stroke-dasharray="none" stroke="black"/>
<line clip-path="url(#clipPath1)" fill="none" x1="-267" x2="-259" y1="430" y2="430" stroke-dasharray="none" stroke="black"/>
<line clip-path="url(#clipPath1)" fill="none" x1="-259" x2="-251" y1="430" y2="430" stroke-dasharray="none" stroke="black"/>
<line clip-path="url(#clipPath1)" fill="none" x1="-251" x2="-243" y1="430" y2="430" stroke-dasharray="none" stroke="black"/>
<line clip-path="url(#clipPath1)" fill="none" x1="-243" x2="-235" y1="430" y2="430" stroke-dasharray="none" stroke="black"/>
<line clip-path="url(#clipPath1)" fill="none" x1="-235" x2="-228" y1="430" y2="430" stroke-dasharray="none" stroke="black"/>
<line clip-path="url(#clipPath1)" fill="none" x1="-228" x2="-220" y1="430" y2="430" stroke-dasharray="none" stroke="black"/>
<line clip-path="url(#clipPath1)" fill="none" x1="-220" x2="-212" y1="430" y2="430" stroke-dasharray="none" stroke="black"/>
<line clip-path="url(#clipPath1)" fill="none" x1="-212" x2="-204" y1="430" y2="430" stroke-dasharray="none" stroke="black"/>
<line clip-path="url(#clipPath1)" fill="none" x1="-204" x2="-196" y1="430" y2="430" stroke-dasharray="none" stroke="black"/>
<line clip-path="url(#clipPath1)" fill="none" x1="-196" x2="-188" y1="430" y2="430" stroke-dasharray="none" stroke="black"/>
<line clip-path="url(#clipPath1)" fill="none" x1="-188" x2="-181" y1="430" y2="430" stroke-dasharray="none" stroke="black"/>
<line clip-path="url(#clipPath1)" fill="none" x1="-181" x2="-173" y1="430" y2="430" stroke-dasharray="none" stroke="black"/>
<line clip-path="url(#clipPath1)" fill="none" x1="-173" x2="-165" y1="430" y2="430" stroke-dasharray="none" stroke="black"/>
<line clip-path="url(#clipPath1)" fill="none" x1="-165" x2="-157" y1="430" y2="430" stroke-dasharray="none" stroke="black"/>
<line clip-path="url(#clipPath1)" fill="none" x1="-157" x2="-149" y1="430" y2="430" stroke-dasharray="none" stroke="black"/>
<line clip-path="url(#clipPath1)" fill="none" x1="-149" x2="-141" y1="430" y2="430" stroke-dasharray="none" stroke="black"/>
<line clip-path="url(#clipPath1)" fill="none" x1="-141" x2="-134" y1="430" y2="430" stroke-dasharray="none" stroke="black"/>
<line clip-path="url(#clipPath1)" fill="none" x1="-134" x2="-126" y1="430" y2="430" stroke-dasharray="none" stroke="black"/>
<line clip-path="url(#clipPath1)" fill="none" x1="-126" x2="-118" y1="430" y2="430" stroke-dasharray="none" stroke="black"/>
<line clip-path="url(#clipPath1)" fill="none" x1="-118" x2="-110" y1="430" y2="430" stroke-dasharray="none" stroke="black"/>
<line clip-path="url(#clipPath1)" fill="none" x1="-110" x2="-102" y1="430" y2="430" stroke-dasharray="none" stroke="black"/>
<line clip-path="url(#clipPath1)" fill="none" x1="-102" x2="-94" y1="430" y2="430" stroke-dasharray="none" stroke="black"/>
<line clip-path="url(#clipPath1)" fill="none" x1="-94" x2="-87" y1="430" y2="430" stroke-dasharray="none" stroke="black"/>
<line clip-path="url(#clipPath1)" fill="none" x1="-87" x2="-79" y1="430" y2="430" stroke-dasharray="none" stroke="black"/>
<line clip-path="url(#clipPath1)" fill="none" x1="-79" x2="-71" y1="430" y2="430" stroke-dasharray="none" stroke="black"/>
<line clip-path="url(#clipPath1)" fill="none" x1="-71" x2="-63" y1="430" y2="430" stroke-dasharray="none" stroke="black"/>
<line clip-path="url(#clipPath1)" fill="none" x1="-63" x2="-55" y1="430" y2="430" stroke-dasharray="none" stroke="black"/>
<line clip-path="url(#clipPath1)" fill="none" x1="-55" x2="-47" y1="430" y2="430" stroke-dasharray="none" stroke="black"/>
<line clip-path="url(#clipPath1)" fill="none" x1="-47" x2="-40" y1="430" y2="430" stroke-dasharray="none" stroke="black"/>
<line clip-path="url(#clipPath1)" fill="none" x1="-40" x2="-32" y1="430" y2="430" stroke-dasharray="none" stroke="black"/>
<line clip-path="url(#clipPath1)" fill="none" x1="-32" x2="-24" y1="430" y2="430" stroke-dasharray="none" stroke="black"/>
<line clip-path="url(#clipPath1)" fill="none" x1="-24" x2="-16" y1="430" y2="430" stroke-dasharray="none" stroke="black"/>
<line clip-path="url(#clipPath1)" fill="none" x1="-16" x2="-8" y1="430" y2="430" stroke-dasharray="none" stroke="black"/>
<line clip-path="url(#clipPath1)" fill="none" x1="-8" x2="0" y1="430" y2="430" stroke-dasharray="none" stroke="black"/>
<line clip-path="url(#clipPath1)" fill="none" x1="0" x2="7" y1="430" y2="430" stroke-dasharray="none" stroke="black"/>
<line clip-path="url(#clipPath1)" fill="none" x1="7" x2="14" y1="430" y2="430" stroke-dasharray="none" stroke="black"/>
<line clip-path="url(#clipPath1)" fill="none" x1="14" x2="22" y1="430" y2="430" stroke-dasharray="none" stroke="black"/>
<line clip-path="url(#clipPath1)" fill="none" x1="22" x2="30" y1="430" y2="430" stroke-dasharray="none" stroke="black"/>
<line clip-path="url(#clipPath1)" fill="none" x1="30" x2="38" y1="430" y2="430" stroke-dasharray="none" stroke="black"/>
<line clip-path="url(#clipPath1)" fill="none" x1="38" x2="46" y1="430" y2="430" stroke-dasharray="none" stroke="black"/>
<line clip-path="url(#clipPath1)" fill="none" x1="46" x2="54" y1="430" y2="430" stroke-dasharray="none" stroke="black"/>
<line clip-path="url(#clipPath1)" fill="none" x1="54" x2="61" y1="430" y2="430" stroke-dasharray="none" stroke="black"/>
<line clip-path="url(#clipPath1)" fill="none" x1="61" x2="69" y1="430" y2="430" stroke-dasharray="none" stroke="black"/>
<line clip-path="url(#clipPath1)" fill="none" x1="69" x2="77" y1="430" y2="430" stroke-dasharray="none" stroke="black"/>
<line clip-path="url(#clipPath1)" fill="none" x1="77" x2="85" y1="430" y2="430" stroke-dasharray="none" stroke="black"/>
<line clip-path="url(#clipPath1)" fill="none" x1="85" x2="93" y1="430" y2="430" stroke-dasharray="none" stroke="black"/>
<line clip-path="url(#clipPath1)" fill="none" x1="93" x2="101" y1="430" y2="430" stroke-dasharray="none" stroke="black"/>
<line clip-path="url(#clipPath1)" fill="none" x1="101" x2="108" y1="430" y2="430" stroke-dasharray="none" stroke="black"/>
<line clip-path="url(#clipPath1)" fill="none" x1="108" x2="116" y1="430" y2="430" stroke-dasharray="none" stroke="black"/>
<line clip-path="url(#clipPath1)" fill="none" x1="116" x2="124" y1="430" y2="430" stroke-dasharray="none" stroke="black"/>
<line clip-path="url(#clipPath1)" fill="none" x1="124" x2="132" y1="430" y2="430" stroke-dasharray="none" stroke="black"/>
<line clip-path="url(#clipPath1)" fill="none" x1="132" x2="140" y1="430" y2="430" stroke-dasharray="none" stroke="black"/>
<line clip-path="url(#clipPath1)" fill="none" x1="140" x2="148" y1="430" y2="430" stroke-dasharray="none" stroke="black"/>
<line clip-path="url(#clipPath1)" fill="none" x1="148" x2="155" y1="430" y2="430" stroke-dasharray="none" stroke="black"/>
<line clip-path="url(#clipPath1)" fill="none" x1="155" x2="163" y1="430" y2="430" stroke-dasharray="none" stroke="black"/>
<line clip-path="url(#clipPath1)" fill="none" x1="163" x2="171" y1="430" y2="430" stroke-dasharray="none" stroke="black"/>
<line clip-path="url(#clipPath1)" fill="none" x1="171" x2="179" y1="430" y2="430" stroke-dasharray="none" stroke="black"/>
<line clip-path="url(#clipPath1)" fill="none" x1="179" x2="187" y1="430" y2="430" stroke-dasharray="none" stroke="black"/>
<line clip-path="url(#clipPath1)" fill="none" x1="187" x2="195" y1="430" y2="430" stroke-dasharray="none" stroke="black"/>
<line clip-path="url(#clipPath1)" fill="none" x1="195" x2="202" y1="430" y2="430" stroke-dasharray="none" stroke="black"/>
<line clip-path="url(#clipPath1)" fill="none" x1="202" x2="210" y1="430" y2="430" stroke-dasharray="none" stroke="black"/>
<line clip-path="url(#clipPath1)" fill="none" x1="210" x2="218" y1="430" y2="430" stroke-dasharray="none" stroke="black"/>
<line clip-path="url(#clipPath1)" fill="none" x1="218" x2="226" y1="430" y2="430" stroke-dasharray="none" stroke="black"/>
<rect x="226" y="124" clip-path="url(#clipPath1)" fill="rgb(0,0,139)" width="8" stroke-dasharray="none" height="306" stroke="none"/>
<rect x="226" y="124" clip-path="url(#clipPath1)" fill="none" width="8" stroke-dasharray="none" height="306" stroke="black"/>
<rect x="234" y="175" clip-path="url(#clipPath1)" fill="rgb(0,0,139)" width="8" stroke-dasharray="none" height="255" stroke="none"/>
<rect x="234" y="175" clip-path="url(#clipPath1)" fill="none" width="8" stroke-dasharray="none" height="255" stroke="black"/>
<rect x="242" y="277" clip-path="url(#clipPath1)" fill="rgb(0,0,139)" width="7" stroke-dasharray="none" height="153" stroke="none"/>
<rect x="242" y="277" clip-path="url(#clipPath1)" fill="none" width="7" stroke-dasharray="none" height="153" stroke="black"/>
<line clip-path="url(#clipPath1)" fill="none" x1="249" x2="257" y1="430" y2="430" stroke-dasharray="none" stroke="black"/>
<rect x="257" y="379" clip-path="url(#clipPath1)" fill="rgb(0,0,139)" width="8" stroke-dasharray="none" height="51" stroke="none"/>
<rect x="257" y="379" clip-path="url(#clipPath1)" fill="none" width="8" stroke-dasharray="none" height="51" stroke="black"/>
<rect x="265" y="379" clip-path="url(#clipPath1)" fill="rgb(0,0,139)" width="8" stroke-dasharray="none" height="51" stroke="none"/>
<rect x="265" y="379" clip-path="url(#clipPath1)" fill="none" width="8" stroke-dasharray="none" height="51" stroke="black"/>
<rect x="273" y="379" clip-path="url(#clipPath1)" fill="rgb(0,0,139)" width="8" stroke-dasharray="none" height="51" stroke="none"/>
<rect x="273" y="379" clip-path="url(#clipPath1)" fill="none" width="8" stroke-dasharray="none" height="51" stroke="black"/>
<rect x="281" y="328" clip-path="url(#clipPath1)" fill="rgb(0,0,139)" width="8" stroke-dasharray="none" height="102" stroke="none"/>
<rect x="281" y="328" clip-path="url(#clipPath1)" fill="none" width="8" stroke-dasharray="none" height="102" stroke="black"/>
<rect x="289" y="328" clip-path="url(#clipPath1)" fill="rgb(0,0,139)" width="7" stroke-dasharray="none" height="102" stroke="none"/>
<rect x="289" y="328" clip-path="url(#clipPath1)" fill="none" width="7" stroke-dasharray="none" height="102" stroke="black"/>
<rect x="296" y="328" clip-path="url(#clipPath1)" fill="rgb(0,0,139)" width="8" stroke-dasharray="none" height="102" stroke="none"/>
<rect x="296" y="328" clip-path="url(#clipPath1)" fill="none" width="8" stroke-dasharray="none" height="102" stroke="black"/>
<rect x="304" y="379" clip-path="url(#clipPath1)" fill="rgb(0,0,139)" width="8" stroke-dasharray="none" height="51" stroke="none"/>
<rect x="304" y="379" clip-path="url(#clipPath1)" fill="none" width="8" stroke-dasharray="none" height="51" stroke="black"/>
<rect x="312" y="277" clip-path="url(#clipPath1)" fill="rgb(0,0,139)" width="8" stroke-dasharray="none" height="153" stroke="none"/>
<rect x="312" y="277" clip-path="url(#clipPath1)" fill="none" width="8" stroke-dasharray="none" height="153" stroke="black"/>
<rect x="320" y="226" clip-path="url(#clipPath1)" fill="rgb(0,0,139)" width="8" stroke-dasharray="none" height="204" stroke="none"/>
<rect x="320" y="226" clip-path="url(#clipPath1)" fill="none" width="8" stroke-dasharray="none" height="204" stroke="black"/>
<rect x="328" y="124" clip-path="url(#clipPath1)" fill="rgb(0,0,139)" width="8" stroke-dasharray="none" height="306" stroke="none"/>
<rect x="328" y="124" clip-path="url(#clipPath1)" fill="none" width="8" stroke-dasharray="none" height="306" stroke="black"/>
<rect x="336" y="328" clip-path="url(#clipPath1)" fill="rgb(0,0,139)" width="7" stroke-dasharray="none" height="102" stroke="none"/>
<rect x="336" y="328" clip-path="url(#clipPath1)" fill="none" width="7" stroke-dasharray="none" height="102" stroke="black"/>
<line clip-path="url(#clipPath1)" fill="none" x1="343" x2="351" y1="430" y2="430" stroke-dasharray="none" stroke="black"/>
<rect x="351" y="379" clip-path="url(#clipPath1)" fill="rgb(0,0,139)" width="8" stroke-dasharray="none" height="51" stroke="none"/>
<rect x="351" y="379" clip-path="url(#clipPath1)" fill="none" width="8" stroke-dasharray="none" height="51" stroke="black"/>
<rect x="359" y="379" clip-path="url(#clipPath1)" fill="rgb(0,0,139)" width="8" stroke-dasharray="none" height="51" stroke="none"/>
<rect x="359" y="379" clip-path="url(#clipPath1)" fill="none" width="8" stroke-dasharray="none" height="51" stroke="black"/>
<rect x="367" y="328" clip-path="url(#clipPath1)" fill="rgb(0,0,139)" width="8" stroke-dasharray="none" height="102" stroke="none"/>
<rect x="367" y="328" clip-path="url(#clipPath1)" fill="none" width="8" stroke-dasharray="none" height="102" stroke="black"/>
<rect x="375" y="277" clip-path="url(#clipPath1)" fill="rgb(0,0,139)" width="8" stroke-dasharray="none" height="153" stroke="none"/>
<rect x="375" y="277" clip-path="url(#clipPath1)" fill="none" width="8" stroke-dasharray="none" height="153" stroke="black"/>
<rect x="383" y="379" clip-path="url(#clipPath1)" fill="rgb(0,0,139)" width="8" stroke-dasharray="none" height="51" stroke="none"/>
<rect x="383" y="379" clip-path="url(#clipPath1)" fill="none" width="8" stroke-dasharray="none" height="51" stroke="black"/>
<rect x="391" y="379" clip-path="url(#clipPath1)" fill="rgb(0,0,139)" width="7" stroke-dasharray="none" height="51" stroke="none"/>
<rect x="391" y="379" clip-path="url(#clipPath1)" fill="none" width="7" stroke-dasharray="none" height="51" stroke="black"/>
<rect x="398" y="175" clip-path="url(#clipPath1)" fill="rgb(0,0,139)" width="8" stroke-dasharray="none" height="255" stroke="none"/>
<rect x="398" y="175" clip-path="url(#clipPath1)" fill="none" width="8" stroke-dasharray="none" height="255" stroke="black"/>
<rect x="406" y="379" clip-path="url(#clipPath1)" fill="rgb(0,0,139)" width="8" stroke-dasharray="none" height="51" stroke="none"/>
<rect x="406" y="379" clip-path="url(#clipPath1)" fill="none" width="8" stroke-dasharray="none" height="51" stroke="black"/>
<rect x="414" y="175" clip-path="url(#clipPath1)" fill="rgb(0,0,139)" width="8" stroke-dasharray="none" height="255" stroke="none"/>
<rect x="414" y="175" clip-path="url(#clipPath1)" fill="none" width="8" stroke-dasharray="none" height="255" stroke="black"/>
<line clip-path="url(#clipPath1)" fill="none" x1="422" x2="430" y1="430" y2="430" stroke-dasharray="none" stroke="black"/>
<rect x="430" y="226" clip-path="url(#clipPath1)" fill="rgb(0,0,139)" width="8" stroke-dasharray="none" height="204" stroke="none"/>
<rect x="430" y="226" clip-path="url(#clipPath1)" fill="none" width="8" stroke-dasharray="none" height="204" stroke="black"/>
<line clip-path="url(#clipPath1)" fill="none" x1="438" x2="445" y1="430" y2="430" stroke-dasharray="none" stroke="black"/>
<rect x="445" y="328" clip-path="url(#clipPath1)" fill="rgb(0,0,139)" width="8" stroke-dasharray="none" height="102" stroke="none"/>
<rect x="445" y="328" clip-path="url(#clipPath1)" fill="none" width="8" stroke-dasharray="none" height="102" stroke="black"/>
<rect x="453" y="277" clip-path="url(#clipPath1)" fill="rgb(0,0,139)" width="8" stroke-dasharray="none" height="153" stroke="none"/>
<rect x="453" y="277" clip-path="url(#clipPath1)" fill="none" width="8" stroke-dasharray="none" height="153" stroke="black"/>
<rect x="461" y="277" clip-path="url(#clipPath1)" fill="rgb(0,0,139)" width="8" stroke-dasharray="none" height="153" stroke="none"/>
<rect x="461" y="277" clip-path="url(#clipPath1)" fill="none" width="8" stroke-dasharray="none" height="153" stroke="black"/>
<rect x="469" y="379" clip-path="url(#clipPath1)" fill="rgb(0,0,139)" width="8" stroke-dasharray="none" height="51" stroke="none"/>
<rect x="469" y="379" clip-path="url(#clipPath1)" fill="none" width="8" stroke-dasharray="none" height="51" stroke="black"/>
<rect x="477" y="379" clip-path="url(#clipPath1)" fill="rgb(0,0,139)" width="8" stroke-dasharray="none" height="51" stroke="none"/>
<rect x="477" y="379" clip-path="url(#clipPath1)" fill="none" width="8" stroke-dasharray="none" height="51" stroke="black"/>
<rect x="485" y="328" clip-path="url(#clipPath1)" fill="rgb(0,0,139)" width="7" stroke-dasharray="none" height="102" stroke="none"/>
<rect x="485" y="328" clip-path="url(#clipPath1)" fill="none" width="7" stroke-dasharray="none" height="102" stroke="black"/>
<line clip-path="url(#clipPath1)" fill="none" x1="492" x2="500" y1="430" y2="430" stroke-dasharray="none" stroke="black"/>
<line clip-path="url(#clipPath1)" fill="none" x1="500" x2="508" y1="430" y2="430" stroke-dasharray="none" stroke="black"/>
<line clip-path="url(#clipPath1)" fill="none" x1="508" x2="516" y1="430" y2="430" stroke-dasharray="none" stroke="black"/>
<line clip-path="url(#clipPath1)" fill="none" x1="516" x2="524" y1="430" y2="430" stroke-dasharray="none" stroke="black"/>
<line clip-path="url(#clipPath1)" fill="none" x1="524" x2="532" y1="430" y2="430" stroke-dasharray="none" stroke="black"/>
<line clip-path="url(#clipPath1)" fill="none" x1="532" x2="539" y1="430" y2="430" stroke-dasharray="none" stroke="black"/>
<line clip-path="url(#clipPath1)" fill="none" x1="539" x2="547" y1="430" y2="430" stroke-dasharray="none" stroke="black"/>
<line clip-path="url(#clipPath1)" fill="none" x1="547" x2="555" y1="430" y2="430" stroke-dasharray="none" stroke="black"/>
<line clip-path="url(#clipPath1)" fill="none" x1="555" x2="563" y1="430" y2="430" stroke-dasharray="none" stroke="black"/>
<line clip-path="url(#clipPath1)" fill="none" x1="563" x2="571" y1="430" y2="430" stroke-dasharray="none" stroke="black"/>
<line clip-path="url(#clipPath1)" fill="none" x1="571" x2="579" y1="430" y2="430" stroke-dasharray="none" stroke="black"/>
<line clip-path="url(#clipPath1)" fill="none" x1="579" x2="586" y1="430" y2="430" stroke-dasharray="none" stroke="black"/>
<line clip-path="url(#clipPath1)" fill="none" x1="586" x2="594" y1="430" y2="430" stroke-dasharray="none" stroke="black"/>
<line clip-path="url(#clipPath1)" fill="none" x1="594" x2="602" y1="430" y2="430" stroke-dasharray="none" stroke="black"/>
<line clip-path="url(#clipPath1)" fill="none" x1="602" x2="610" y1="430" y2="430" stroke-dasharray="none" stroke="black"/>
<line clip-path="url(#clipPath1)" fill="none" x1="610" x2="618" y1="430" y2="430" stroke-dasharray="none" stroke="black"/>
<line clip-path="url(#clipPath1)" fill="none" x1="618" x2="626" y1="430" y2="430" stroke-dasharray="none" stroke="black"/>
<line clip-path="url(#clipPath1)" fill="none" x1="626" x2="633" y1="430" y2="430" stroke-dasharray="none" stroke="black"/>
<line clip-path="url(#clipPath1)" fill="none" x1="633" x2="641" y1="430" y2="430" stroke-dasharray="none" stroke="black"/>
<line clip-path="url(#clipPath1)" fill="none" x1="641" x2="649" y1="430" y2="430" stroke-dasharray="none" stroke="black"/>
<line clip-path="url(#clipPath1)" fill="none" x1="649" x2="657" y1="430" y2="430" stroke-dasharray="none" stroke="black"/>
<line clip-path="url(#clipPath1)" fill="none" x1="657" x2="665" y1="430" y2="430" stroke-dasharray="none" stroke="black"/>
<line clip-path="url(#clipPath1)" fill="none" x1="665" x2="673" y1="430" y2="430" stroke-dasharray="none" stroke="black"/>
<line clip-path="url(#clipPath1)" fill="none" x1="673" x2="680" y1="430" y2="430" stroke-dasharray="none" stroke="black"/>
<line clip-path="url(#clipPath1)" fill="none" x1="680" x2="688" y1="430" y2="430" stroke-dasharray="none" stroke="black"/>
<line clip-path="url(#clipPath1)" fill="none" x1="688" x2="696" y1="430" y2="430" stroke-dasharray="none" stroke="black"/>
<line clip-path="url(#clipPath1)" fill="none" x1="696" x2="704" y1="430" y2="430" stroke-dasharray="none" stroke="black"/>
<line clip-path="url(#clipPath1)" fill="none" x1="704" x2="712" y1="430" y2="430" stroke-dasharray="none" stroke="black"/>
<line clip-path="url(#clipPath1)" fill="none" x1="712" x2="720" y1="430" y2="430" stroke-dasharray="none" stroke="black"/>
<line clip-path="url(#clipPath1)" fill="none" x1="720" x2="728" y1="430" y2="430" stroke-dasharray="none" stroke="black"/>
<line clip-path="url(#clipPath1)" fill="none" x1="728" x2="735" y1="430" y2="430" stroke-dasharray="none" stroke="black"/>
<line clip-path="url(#clipPath1)" fill="none" x1="735" x2="743" y1="430" y2="430" stroke-dasharray="none" stroke="black"/>
<line clip-path="url(#clipPath1)" fill="none" x1="743" x2="751" y1="430" y2="430" stroke-dasharray="none" stroke="black"/>
<line clip-path="url(#clipPath1)" fill="none" x1="751" x2="759" y1="430" y2="430" stroke-dasharray="none" stroke="black"/>
<line clip-path="url(#clipPath1)" fill="none" x1="759" x2="767" y1="430" y2="430" stroke-dasharray="none" stroke="black"/>
<line clip-path="url(#clipPath1)" fill="none" x1="767" x2="775" y1="430" y2="430" stroke-dasharray="none" stroke="black"/>
<line clip-path="url(#clipPath1)" fill="none" x1="775" x2="782" y1="430" y2="430" stroke-dasharray="none" stroke="black"/>
<line clip-path="url(#clipPath1)" fill="none" x1="782" x2="790" y1="430" y2="430" stroke-dasharray="none" stroke="black"/>
<line clip-path="url(#clipPath1)" fill="none" x1="790" x2="798" y1="430" y2="430" stroke-dasharray="none" stroke="black"/>
<line clip-path="url(#clipPath1)" fill="none" x1="798" x2="806" y1="430" y2="430" stroke-dasharray="none" stroke="black"/>
<line clip-path="url(#clipPath1)" fill="none" x1="806" x2="814" y1="430" y2="430" stroke-dasharray="none" stroke="black"/>
<line clip-path="url(#clipPath1)" fill="none" x1="814" x2="822" y1="430" y2="430" stroke-dasharray="none" stroke="black"/>
<line clip-path="url(#clipPath1)" fill="none" x1="822" x2="829" y1="430" y2="430" stroke-dasharray="none" stroke="black"/>
<line clip-path="url(#clipPath1)" fill="none" x1="829" x2="837" y1="430" y2="430" stroke-dasharray="none" stroke="black"/>
<line clip-path="url(#clipPath1)" fill="none" x1="837" x2="845" y1="430" y2="430" stroke-dasharray="none" stroke="black"/>
<line clip-path="url(#clipPath1)" fill="none" x1="845" x2="853" y1="430" y2="430" stroke-dasharray="none" stroke="black"/>
<rect x="28" y="23" clip-path="url(#clipPath2)" fill="none" width="658" stroke-dasharray="none" height="407" stroke="black"/>
</g>
<g text-rendering="geometricPrecision" font-size="13" stroke-linecap="butt">
<line clip-path="url(#clipPath2)" fill="none" x1="28" x2="686" y1="21" y2="21"/>
<line clip-path="url(#clipPath2)" fill="none" x1="28" x2="686" y1="432" y2="432"/>
<line clip-path="url(#clipPath2)" fill="none" x1="66" x2="66" y1="17" y2="21"/>
<line clip-path="url(#clipPath2)" fill="none" x1="66" x2="66" y1="436" y2="432"/>
<text x="46" font-size="11" y="14" clip-path="url(#clipPath2)" stroke="none" xml:space="preserve">0.00020</text>
<text x="46" font-size="11" y="448" clip-path="url(#clipPath2)" stroke="none" xml:space="preserve">0.00020</text>
<line clip-path="url(#clipPath2)" fill="none" x1="105" x2="105" y1="19" y2="21"/>
<line clip-path="url(#clipPath2)" fill="none" x1="105" x2="105" y1="434" y2="432"/>
<line clip-path="url(#clipPath2)" fill="none" x1="144" x2="144" y1="17" y2="21"/>
<line clip-path="url(#clipPath2)" fill="none" x1="144" x2="144" y1="436" y2="432"/>
<text x="124" font-size="11" y="14" clip-path="url(#clipPath2)" stroke="none" xml:space="preserve">0.00022</text>
<text x="124" font-size="11" y="448" clip-path="url(#clipPath2)" stroke="none" xml:space="preserve">0.00022</text>
<line clip-path="url(#clipPath2)" fill="none" x1="183" x2="183" y1="19" y2="21"/>
<line clip-path="url(#clipPath2)" fill="none" x1="183" x2="183" y1="434" y2="432"/>
<line clip-path="url(#clipPath2)" fill="none" x1="222" x2="222" y1="17" y2="21"/>
<line clip-path="url(#clipPath2)" fill="none" x1="222" x2="222" y1="436" y2="432"/>
<text x="202" font-size="11" y="14" clip-path="url(#clipPath2)" stroke="none" xml:space="preserve">0.00024</text>
<text x="202" font-size="11" y="448" clip-path="url(#clipPath2)" stroke="none" xml:space="preserve">0.00024</text>
<line clip-path="url(#clipPath2)" fill="none" x1="261" x2="261" y1="19" y2="21"/>
<line clip-path="url(#clipPath2)" fill="none" x1="261" x2="261" y1="434" y2="432"/>
<line clip-path="url(#clipPath2)" fill="none" x1="300" x2="300" y1="17" y2="21"/>
<line clip-path="url(#clipPath2)" fill="none" x1="300" x2="300" y1="436" y2="432"/>
<text x="280" font-size="11" y="14" clip-path="url(#clipPath2)" stroke="none" xml:space="preserve">0.00026</text>
<text x="280" font-size="11" y="448" clip-path="url(#clipPath2)" stroke="none" xml:space="preserve">0.00026</text>
<line clip-path="url(#clipPath2)" fill="none" x1="339" x2="339" y1="19" y2="21"/>
<line clip-path="url(#clipPath2)" fill="none" x1="339" x2="339" y1="434" y2="432"/>
<line clip-path="url(#clipPath2)" fill="none" x1="378" x2="378" y1="17" y2="21"/>
<line clip-path="url(#clipPath2)" fill="none" x1="378" x2="378" y1="436" y2="432"/>
<text x="358" font-size="11" y="14" clip-path="url(#clipPath2)" stroke="none" xml:space="preserve">0.00028</text>
<text x="358" font-size="11" y="448" clip-path="url(#clipPath2)" stroke="none" xml:space="preserve">0.00028</text>
<line clip-path="url(#clipPath2)" fill="none" x1="417" x2="417" y1="19" y2="21"/>
<line clip-path="url(#clipPath2)" fill="none" x1="417" x2="417" y1="434" y2="432"/>
<line clip-path="url(#clipPath2)" fill="none" x1="456" x2="456" y1="17" y2="21"/>
<line clip-path="url(#clipPath2)" fill="none" x1="456" x2="456" y1="436" y2="432"/>
<text x="436" font-size="11" y="14" clip-path="url(#clipPath2)" stroke="none" xml:space="preserve">0.00030</text>
<text x="436" font-size="11" y="448" clip-path="url(#clipPath2)" stroke="none" xml:space="preserve">0.00030</text>
<line clip-path="url(#clipPath2)" fill="none" x1="495" x2="495" y1="19" y2="21"/>
<line clip-path="url(#clipPath2)" fill="none" x1="495" x2="495" y1="434" y2="432"/>
<line clip-path="url(#clipPath2)" fill="none" x1="534" x2="534" y1="17" y2="21"/>
<line clip-path="url(#clipPath2)" fill="none" x1="534" x2="534" y1="436" y2="432"/>
<text x="514" font-size="11" y="14" clip-path="url(#clipPath2)" stroke="none" xml:space="preserve">0.00032</text>
<text x="514" font-size="11" y="448" clip-path="url(#clipPath2)" stroke="none" xml:space="preserve">0.00032</text>
<line clip-path="url(#clipPath2)" fill="none" x1="573" x2="573" y1="19" y2="21"/>
<line clip-path="url(#clipPath2)" fill="none" x1="573" x2="573" y1="434" y2="432"/>
<line clip-path="url(#clipPath2)" fill="none" x1="612" x2="612" y1="17" y2="21"/>
<line clip-path="url(#clipPath2)" fill="none" x1="612" x2="612" y1="436" y2="432"/>
<text x="592" font-size="11" y="14" clip-path="url(#clipPath2)" stroke="none" xml:space="preserve">0.00034</text>
<text x="592" font-size="11" y="448" clip-path="url(#clipPath2)" stroke="none" xml:space="preserve">0.00034</text>
<line clip-path="url(#clipPath2)" fill="none" x1="651" x2="651" y1="19" y2="21"/>
<line clip-path="url(#clipPath2)" fill="none" x1="651" x2="651" y1="434" y2="432"/>
<line clip-path="url(#clipPath2)" fill="none" x1="26" x2="26" y1="23" y2="430"/>
<line clip-path="url(#clipPath2)" fill="none" x1="688" x2="688" y1="23" y2="430"/>
<line clip-path="url(#clipPath2)" fill="none" x1="22" x2="26" y1="430" y2="430"/>
<line clip-path="url(#clipPath2)" fill="none" x1="692" x2="688" y1="430" y2="430"/>
<text x="15" font-size="11" y="435" clip-path="url(#clipPath2)" stroke="none" xml:space="preserve">0</text>
<text x="695" font-size="11" y="435" clip-path="url(#clipPath2)" stroke="none" xml:space="preserve">0</text>
<line clip-path="url(#clipPath2)" fill="none" x1="24" x2="26" y1="419" y2="419"/>
<line clip-path="url(#clipPath2)" fill="none" x1="690" x2="688" y1="419" y2="419"/>
<line clip-path="url(#clipPath2)" fill="none" x1="24" x2="26" y1="409" y2="409"/>
<line clip-path="url(#clipPath2)" fill="none" x1="690" x2="688" y1="409" y2="409"/>
<line clip-path="url(#clipPath2)" fill="none" x1="24" x2="26" y1="399" y2="399"/>
<line clip-path="url(#clipPath2)" fill="none" x1="690" x2="688" y1="399" y2="399"/>
<line clip-path="url(#clipPath2)" fill="none" x1="24" x2="26" y1="389" y2="389"/>
<line clip-path="url(#clipPath2)" fill="none" x1="690" x2="688" y1="389" y2="389"/>
<line clip-path="url(#clipPath2)" fill="none" x1="22" x2="26" y1="379" y2="379"/>
<line clip-path="url(#clipPath2)" fill="none" x1="692" x2="688" y1="379" y2="379"/>
<text x="3" font-size="11" y="384" clip-path="url(#clipPath2)" stroke="none" xml:space="preserve">1.0</text>
<text x="695" font-size="11" y="384" clip-path="url(#clipPath2)" stroke="none" xml:space="preserve">1.0</text>
<line clip-path="url(#clipPath2)" fill="none" x1="24" x2="26" y1="368" y2="368"/>
<line clip-path="url(#clipPath2)" fill="none" x1="690" x2="688" y1="368" y2="368"/>
<line clip-path="url(#clipPath2)" fill="none" x1="24" x2="26" y1="358" y2="358"/>
<line clip-path="url(#clipPath2)" fill="none" x1="690" x2="688" y1="358" y2="358"/>
<line clip-path="url(#clipPath2)" fill="none" x1="24" x2="26" y1="348" y2="348"/>
<line clip-path="url(#clipPath2)" fill="none" x1="690" x2="688" y1="348" y2="348"/>
<line clip-path="url(#clipPath2)" fill="none" x1="24" x2="26" y1="338" y2="338"/>
<line clip-path="url(#clipPath2)" fill="none" x1="690" x2="688" y1="338" y2="338"/>
<line clip-path="url(#clipPath2)" fill="none" x1="22" x2="26" y1="328" y2="328"/>
<line clip-path="url(#clipPath2)" fill="none" x1="692" x2="688" y1="328" y2="328"/>
<text x="3" font-size="11" y="333" clip-path="url(#clipPath2)" stroke="none" xml:space="preserve">2.0</text>
<text x="695" font-size="11" y="333" clip-path="url(#clipPath2)" stroke="none" xml:space="preserve">2.0</text>
<line clip-path="url(#clipPath2)" fill="none" x1="24" x2="26" y1="318" y2="318"/>
<line clip-path="url(#clipPath2)" fill="none" x1="690" x2="688" y1="318" y2="318"/>
<line clip-path="url(#clipPath2)" fill="none" x1="24" x2="26" y1="307" y2="307"/>
<line clip-path="url(#clipPath2)" fill="none" x1="690" x2="688" y1="307" y2="307"/>
<line clip-path="url(#clipPath2)" fill="none" x1="24" x2="26" y1="297" y2="297"/>
<line clip-path="url(#clipPath2)" fill="none" x1="690" x2="688" y1="297" y2="297"/>
<line clip-path="url(#clipPath2)" fill="none" x1="24" x2="26" y1="287" y2="287"/>
<line clip-path="url(#clipPath2)" fill="none" x1="690" x2="688" y1="287" y2="287"/>
<line clip-path="url(#clipPath2)" fill="none" x1="22" x2="26" y1="277" y2="277"/>
<line clip-path="url(#clipPath2)" fill="none" x1="692" x2="688" y1="277" y2="277"/>
<text x="3" font-size="11" y="282" clip-path="url(#clipPath2)" stroke="none" xml:space="preserve">3.0</text>
<text x="695" font-size="11" y="282" clip-path="url(#clipPath2)" stroke="none" xml:space="preserve">3.0</text>
<line clip-path="url(#clipPath2)" fill="none" x1="24" x2="26" y1="267" y2="267"/>
<line clip-path="url(#clipPath2)" fill="none" x1="690" x2="688" y1="267" y2="267"/>
<line clip-path="url(#clipPath2)" fill="none" x1="24" x2="26" y1="257" y2="257"/>
<line clip-path="url(#clipPath2)" fill="none" x1="690" x2="688" y1="257" y2="257"/>
<line clip-path="url(#clipPath2)" fill="none" x1="24" x2="26" y1="246" y2="246"/>
<line clip-path="url(#clipPath2)" fill="none" x1="690" x2="688" y1="246" y2="246"/>
<line clip-path="url(#clipPath2)" fill="none" x1="24" x2="26" y1="236" y2="236"/>
<line clip-path="url(#clipPath2)" fill="none" x1="690" x2="688" y1="236" y2="236"/>
<line clip-path="url(#clipPath2)" fill="none" x1="22" x2="26" y1="226" y2="226"/>
<line clip-path="url(#clipPath2)" fill="none" x1="692" x2="688" y1="226" y2="226"/>
<text x="3" font-size="11" y="231" clip-path="url(#clipPath2)" stroke="none" xml:space="preserve">4.0</text>
<text x="695" font-size="11" y="231" clip-path="url(#clipPath2)" stroke="none" xml:space="preserve">4.0</text>
<line clip-path="url(#clipPath2)" fill="none" x1="24" x2="26" y1="216" y2="216"/>
<line clip-path="url(#clipPath2)" fill="none" x1="690" x2="688" y1="216" y2="216"/>
<line clip-path="url(#clipPath2)" fill="none" x1="24" x2="26" y1="206" y2="206"/>
<line clip-path="url(#clipPath2)" fill="none" x1="690" x2="688" y1="206" y2="206"/>
<line clip-path="url(#clipPath2)" fill="none" x1="24" x2="26" y1="195" y2="195"/>
<line clip-path="url(#clipPath2)" fill="none" x1="690" x2="688" y1="195" y2="195"/>
<line clip-path="url(#clipPath2)" fill="none" x1="24" x2="26" y1="185" y2="185"/>
<line clip-path="url(#clipPath2)" fill="none" x1="690" x2="688" y1="185" y2="185"/>
<line clip-path="url(#clipPath2)" fill="none" x1="22" x2="26" y1="175" y2="175"/>
<line clip-path="url(#clipPath2)" fill="none" x1="692" x2="688" y1="175" y2="175"/>
<text x="3" font-size="11" y="180" clip-path="url(#clipPath2)" stroke="none" xml:space="preserve">5.0</text>
<text x="695" font-size="11" y="180" clip-path="url(#clipPath2)" stroke="none" xml:space="preserve">5.0</text>
<line clip-path="url(#clipPath2)" fill="none" x1="24" x2="26" y1="165" y2="165"/>
<line clip-path="url(#clipPath2)" fill="none" x1="690" x2="688" y1="165" y2="165"/>
<line clip-path="url(#clipPath2)" fill="none" x1="24" x2="26" y1="155" y2="155"/>
<line clip-path="url(#clipPath2)" fill="none" x1="690" x2="688" y1="155" y2="155"/>
<line clip-path="url(#clipPath2)" fill="none" x1="24" x2="26" y1="145" y2="145"/>
<line clip-path="url(#clipPath2)" fill="none" x1="690" x2="688" y1="145" y2="145"/>
<line clip-path="url(#clipPath2)" fill="none" x1="24" x2="26" y1="134" y2="134"/>
<line clip-path="url(#clipPath2)" fill="none" x1="690" x2="688" y1="134" y2="134"/>
<line clip-path="url(#clipPath2)" fill="none" x1="22" x2="26" y1="124" y2="124"/>
<line clip-path="url(#clipPath2)" fill="none" x1="692" x2="688" y1="124" y2="124"/>
<text x="3" font-size="11" y="129" clip-path="url(#clipPath2)" stroke="none" xml:space="preserve">6.0</text>
<text x="695" font-size="11" y="129" clip-path="url(#clipPath2)" stroke="none" xml:space="preserve">6.0</text>
<line clip-path="url(#clipPath2)" fill="none" x1="24" x2="26" y1="114" y2="114"/>
<line clip-path="url(#clipPath2)" fill="none" x1="690" x2="688" y1="114" y2="114"/>
<line clip-path="url(#clipPath2)" fill="none" x1="24" x2="26" y1="104" y2="104"/>
<line clip-path="url(#clipPath2)" fill="none" x1="690" x2="688" y1="104" y2="104"/>
<line clip-path="url(#clipPath2)" fill="none" x1="24" x2="26" y1="94" y2="94"/>
<line clip-path="url(#clipPath2)" fill="none" x1="690" x2="688" y1="94" y2="94"/>
<line clip-path="url(#clipPath2)" fill="none" x1="24" x2="26" y1="84" y2="84"/>
<line clip-path="url(#clipPath2)" fill="none" x1="690" x2="688" y1="84" y2="84"/>
<line clip-path="url(#clipPath2)" fill="none" x1="22" x2="26" y1="73" y2="73"/>
<line clip-path="url(#clipPath2)" fill="none" x1="692" x2="688" y1="73" y2="73"/>
<text x="3" font-size="11" y="78" clip-path="url(#clipPath2)" stroke="none" xml:space="preserve">7.0</text>
<text x="695" font-size="11" y="78" clip-path="url(#clipPath2)" stroke="none" xml:space="preserve">7.0</text>
<line clip-path="url(#clipPath2)" fill="none" x1="24" x2="26" y1="63" y2="63"/>
<line clip-path="url(#clipPath2)" fill="none" x1="690" x2="688" y1="63" y2="63"/>
<line clip-path="url(#clipPath2)" fill="none" x1="24" x2="26" y1="53" y2="53"/>
<line clip-path="url(#clipPath2)" fill="none" x1="690" x2="688" y1="53" y2="53"/>
<line clip-path="url(#clipPath2)" fill="none" x1="24" x2="26" y1="43" y2="43"/>
<line clip-path="url(#clipPath2)" fill="none" x1="690" x2="688" y1="43" y2="43"/>
<line clip-path="url(#clipPath2)" fill="none" x1="24" x2="26" y1="33" y2="33"/>
<line clip-path="url(#clipPath2)" fill="none" x1="690" x2="688" y1="33" y2="33"/>
</g>
</g>
</svg>
