<?xml version="1.0" encoding="UTF-8"?><svg xmlns="http://www.w3.org/2000/svg" xmlns:xlink="http://www.w3.org/1999/xlink" stroke-dasharray="none" shape-rendering="auto" font-family="'Dialog'" width="701" text-rendering="auto" fill-opacity="1" contentScriptType="text/ecmascript" color-interpolation="auto" color-rendering="auto" preserveAspectRatio="xMidYMid meet" font-size="12" fill="black" stroke="black" image-rendering="auto" stroke-miterlimit="10" zoomAndPan="magnify" version="1.0" stroke-linecap="square" stroke-linejoin="miter" contentStyleType="text/css" font-style="normal" height="453" stroke-width="1" stroke-dashoffset="0" font-weight="normal" stroke-opacity="1">
<!--Generated by the Batik Graphics2D SVG Generator-->
<defs id="genericDefs"/>
<g>
<defs id="defs1">
<clipPath clipPathUnits="userSpaceOnUse" id="clipPath1">
<path d="M27 22 L674 22 L674 431 L27 431 L27 22 Z"/>
</clipPath>
<clipPath clipPathUnits="userSpaceOnUse" id="clipPath2">
<path d="M-1 -1 L702 -1 L702 454 L-1 454 L-1 -1 Z"/>
</clipPath>
</defs>
<g font-size="15" fill="white" text-rendering="geometricPrecision" font-family="'Cantarell'" stroke-linejoin="round" stroke="white" stroke-width="0" stroke-miterlimit="0">
<rect x="28" y="23" clip-path="url(#clipPath1)" width="645" height="407" stroke="none"/>
</g>
<g stroke-linecap="butt" font-size="15" fill="rgb(204,204,204)" text-rendering="geometricPrecision" font-family="'Cantarell'" stroke-dasharray="3,3" stroke="rgb(204,204,204)">
<line clip-path="url(#clipPath1)" fill="none" x1="28" x2="673" y1="430" y2="430"/>
<line clip-path="url(#clipPath1)" fill="none" x1="28" x2="673" y1="367" y2="367"/>
<line clip-path="url(#clipPath1)" fill="none" x1="28" x2="673" y1="304" y2="304"/>
<line clip-path="url(#clipPath1)" fill="none" x1="28" x2="673" y1="242" y2="242"/>
<line clip-path="url(#clipPath1)" fill="none" x1="28" x2="673" y1="179" y2="179"/>
<line clip-path="url(#clipPath1)" fill="none" x1="28" x2="673" y1="116" y2="116"/>
<line clip-path="url(#clipPath1)" fill="none" x1="28" x2="673" y1="54" y2="54"/>
<line clip-path="url(#clipPath1)" fill="none" x1="4" x2="8" y1="430" y2="430" stroke-dasharray="none" stroke="black"/>
<line clip-path="url(#clipPath1)" fill="none" x1="8" x2="12" y1="430" y2="430" stroke-dasharray="none" stroke="black"/>
<line clip-path="url(#clipPath1)" fill="none" x1="12" x2="16" y1="430" y2="430" stroke-dasharray="none" stroke="black"/>
<line clip-path="url(#clipPath1)" fill="none" x1="16" x2="20" y1="430" y2="430" stroke-dasharray="none" stroke="black"/>
<line clip-path="url(#clipPath1)" fill="none" x1="20" x2="25" y1="430" y2="430" stroke-dasharray="none" stroke="black"/>
<line clip-path="url(#clipPath1)" fill="none" x1="25" x2="29" y1="430" y2="430" stroke-dasharray="none" stroke="black"/>
<line clip-path="url(#clipPath1)" fill="none" x1="29" x2="33" y1="430" y2="430" stroke-dasharray="none" stroke="black"/>
<line clip-path="url(#clipPath1)" fill="none" x1="33" x2="37" y1="430" y2="430" stroke-dasharray="none" stroke="black"/>
<line clip-path="url(#clipPath1)" fill="none" x1="37" x2="42" y1="430" y2="430" stroke-dasharray="none" stroke="black"/>
<line clip-path="url(#clipPath1)" fill="none" x1="42" x2="46" y1="430" y2="430" stroke-dasharray="none" stroke="black"/>
<line clip-path="url(#clipPath1)" fill="none" x1="46" x2="50" y1="430" y2="430" stroke-dasharray="none" stroke="black"/>
<line clip-path="url(#clipPath1)" fill="none" x1="50" x2="54" y1="430" y2="430" stroke-dasharray="none" stroke="black"/>
<line clip-path="url(#clipPath1)" fill="none" x1="54" x2="59" y1="430" y2="430" stroke-dasharray="none" stroke="black"/>
<rect x="59" y="342" clip-path="url(#clipPath1)" fill="rgb(0,0,139)" width="4" stroke-dasharray="none" height="88" stroke="none"/>
<rect x="59" y="342" clip-path="url(#clipPath1)" fill="none" width="4" stroke-dasharray="none" height="88" stroke="black"/>
<rect x="63" y="392" clip-path="url(#clipPath1)" fill="rgb(0,0,139)" width="4" stroke-dasharray="none" height="38" stroke="none"/>
<rect x="63" y="392" clip-path="url(#clipPath1)" fill="none" width="4" stroke-dasharray="none" height="38" stroke="black"/>
<rect x="67" y="386" clip-path="url(#clipPath1)" fill="rgb(0,0,139)" width="4" stroke-dasharray="none" height="44" stroke="none"/>
<rect x="67" y="386" clip-path="url(#clipPath1)" fill="none" width="4" stroke-dasharray="none" height="44" stroke="black"/>
<rect x="71" y="392" clip-path="url(#clipPath1)" fill="rgb(0,0,139)" width="5" stroke-dasharray="none" height="38" stroke="none"/>
<rect x="71" y="392" clip-path="url(#clipPath1)" fill="none" width="5" stroke-dasharray="none" height="38" stroke="black"/>
<rect x="76" y="367" clip-path="url(#clipPath1)" fill="rgb(0,0,139)" width="4" stroke-dasharray="none" height="63" stroke="none"/>
<rect x="76" y="367" clip-path="url(#clipPath1)" fill="none" width="4" stroke-dasharray="none" height="63" stroke="black"/>
<rect x="80" y="354" clip-path="url(#clipPath1)" fill="rgb(0,0,139)" width="4" stroke-dasharray="none" height="76" stroke="none"/>
<rect x="80" y="354" clip-path="url(#clipPath1)" fill="none" width="4" stroke-dasharray="none" height="76" stroke="black"/>
<rect x="84" y="417" clip-path="url(#clipPath1)" fill="rgb(0,0,139)" width="4" stroke-dasharray="none" height="13" stroke="none"/>
<rect x="84" y="417" clip-path="url(#clipPath1)" fill="none" width="4" stroke-dasharray="none" height="13" stroke="black"/>
<rect x="88" y="392" clip-path="url(#clipPath1)" fill="rgb(0,0,139)" width="5" stroke-dasharray="none" height="38" stroke="none"/>
<rect x="88" y="392" clip-path="url(#clipPath1)" fill="none" width="5" stroke-dasharray="none" height="38" stroke="black"/>
<rect x="93" y="373" clip-path="url(#clipPath1)" fill="rgb(0,0,139)" width="4" stroke-dasharray="none" height="57" stroke="none"/>
<rect x="93" y="373" clip-path="url(#clipPath1)" fill="none" width="4" stroke-dasharray="none" height="57" stroke="black"/>
<rect x="97" y="367" clip-path="url(#clipPath1)" fill="rgb(0,0,139)" width="4" stroke-dasharray="none" height="63" stroke="none"/>
<rect x="97" y="367" clip-path="url(#clipPath1)" fill="none" width="4" stroke-dasharray="none" height="63" stroke="black"/>
<rect x="101" y="398" clip-path="url(#clipPath1)" fill="rgb(0,0,139)" width="4" stroke-dasharray="none" height="32" stroke="none"/>
<rect x="101" y="398" clip-path="url(#clipPath1)" fill="none" width="4" stroke-dasharray="none" height="32" stroke="black"/>
<rect x="105" y="404" clip-path="url(#clipPath1)" fill="rgb(0,0,139)" width="5" stroke-dasharray="none" height="26" stroke="none"/>
<rect x="105" y="404" clip-path="url(#clipPath1)" fill="none" width="5" stroke-dasharray="none" height="26" stroke="black"/>
<rect x="110" y="404" clip-path="url(#clipPath1)" fill="rgb(0,0,139)" width="4" stroke-dasharray="none" height="26" stroke="none"/>
<rect x="110" y="404" clip-path="url(#clipPath1)" fill="none" width="4" stroke-dasharray="none" height="26" stroke="black"/>
<rect x="114" y="411" clip-path="url(#clipPath1)" fill="rgb(0,0,139)" width="4" stroke-dasharray="none" height="19" stroke="none"/>
<rect x="114" y="411" clip-path="url(#clipPath1)" fill="none" width="4" stroke-dasharray="none" height="19" stroke="black"/>
<rect x="118" y="423" clip-path="url(#clipPath1)" fill="rgb(0,0,139)" width="4" stroke-dasharray="none" height="7" stroke="none"/>
<rect x="118" y="423" clip-path="url(#clipPath1)" fill="none" width="4" stroke-dasharray="none" height="7" stroke="black"/>
<line clip-path="url(#clipPath1)" fill="none" x1="122" x2="127" y1="430" y2="430" stroke-dasharray="none" stroke="black"/>
<rect x="127" y="417" clip-path="url(#clipPath1)" fill="rgb(0,0,139)" width="4" stroke-dasharray="none" height="13" stroke="none"/>
<rect x="127" y="417" clip-path="url(#clipPath1)" fill="none" width="4" stroke-dasharray="none" height="13" stroke="black"/>
<rect x="131" y="411" clip-path="url(#clipPath1)" fill="rgb(0,0,139)" width="4" stroke-dasharray="none" height="19" stroke="none"/>
<rect x="131" y="411" clip-path="url(#clipPath1)" fill="none" width="4" stroke-dasharray="none" height="19" stroke="black"/>
<rect x="135" y="417" clip-path="url(#clipPath1)" fill="rgb(0,0,139)" width="4" stroke-dasharray="none" height="13" stroke="none"/>
<rect x="135" y="417" clip-path="url(#clipPath1)" fill="none" width="4" stroke-dasharray="none" height="13" stroke="black"/>
<rect x="139" y="423" clip-path="url(#clipPath1)" fill="rgb(0,0,139)" width="5" stroke-dasharray="none" height="7" stroke="none"/>
<rect x="139" y="423" clip-path="url(#clipPath1)" fill="none" width="5" stroke-dasharray="none" height="7" stroke="black"/>
<rect x="144" y="417" clip-path="url(#clipPath1)" fill="rgb(0,0,139)" width="4" stroke-dasharray="none" height="13" stroke="none"/>
<rect x="144" y="417" clip-path="url(#clipPath1)" fill="none" width="4" stroke-dasharray="none" height="13" stroke="black"/>
<line clip-path="url(#clipPath1)" fill="none" x1="148" x2="152" y1="430" y2="430" stroke-dasharray="none" stroke="black"/>
<line clip-path="url(#clipPath1)" fill="none" x1="152" x2="156" y1="430" y2="430" stroke-dasharray="none" stroke="black"/>
<rect x="156" y="417" clip-path="url(#clipPath1)" fill="rgb(0,0,139)" width="5" stroke-dasharray="none" height="13" stroke="none"/>
<rect x="156" y="417" clip-path="url(#clipPath1)" fill="none" width="5" stroke-dasharray="none" height="13" stroke="black"/>
<rect x="161" y="423" clip-path="url(#clipPath1)" fill="rgb(0,0,139)" width="4" stroke-dasharray="none" height="7" stroke="none"/>
<rect x="161" y="423" clip-path="url(#clipPath1)" fill="none" width="4" stroke-dasharray="none" height="7" stroke="black"/>
<line clip-path="url(#clipPath1)" fill="none" x1="165" x2="169" y1="430" y2="430" stroke-dasharray="none" stroke="black"/>
<line clip-path="url(#clipPath1)" fill="none" x1="169" x2="173" y1="430" y2="430" stroke-dasharray="none" stroke="black"/>
<line clip-path="url(#clipPath1)" fill="none" x1="173" x2="178" y1="430" y2="430" stroke-dasharray="none" stroke="black"/>
<line clip-path="url(#clipPath1)" fill="none" x1="178" x2="182" y1="430" y2="430" stroke-dasharray="none" stroke="black"/>
<line clip-path="url(#clipPath1)" fill="none" x1="182" x2="186" y1="430" y2="430" stroke-dasharray="none" stroke="black"/>
<line clip-path="url(#clipPath1)" fill="none" x1="186" x2="190" y1="430" y2="430" stroke-dasharray="none" stroke="black"/>
<line clip-path="url(#clipPath1)" fill="none" x1="190" x2="195" y1="430" y2="430" stroke-dasharray="none" stroke="black"/>
<line clip-path="url(#clipPath1)" fill="none" x1="195" x2="199" y1="430" y2="430" stroke-dasharray="none" stroke="black"/>
<line clip-path="url(#clipPath1)" fill="none" x1="199" x2="203" y1="430" y2="430" stroke-dasharray="none" stroke="black"/>
<line clip-path="url(#clipPath1)" fill="none" x1="203" x2="207" y1="430" y2="430" stroke-dasharray="none" stroke="black"/>
<line clip-path="url(#clipPath1)" fill="none" x1="207" x2="212" y1="430" y2="430" stroke-dasharray="none" stroke="black"/>
<line clip-path="url(#clipPath1)" fill="none" x1="212" x2="216" y1="430" y2="430" stroke-dasharray="none" stroke="black"/>
<line clip-path="url(#clipPath1)" fill="none" x1="216" x2="220" y1="430" y2="430" stroke-dasharray="none" stroke="black"/>
<line clip-path="url(#clipPath1)" fill="none" x1="220" x2="224" y1="430" y2="430" stroke-dasharray="none" stroke="black"/>
<line clip-path="url(#clipPath1)" fill="none" x1="224" x2="229" y1="430" y2="430" stroke-dasharray="none" stroke="black"/>
<line clip-path="url(#clipPath1)" fill="none" x1="229" x2="233" y1="430" y2="430" stroke-dasharray="none" stroke="black"/>
<line clip-path="url(#clipPath1)" fill="none" x1="233" x2="237" y1="430" y2="430" stroke-dasharray="none" stroke="black"/>
<line clip-path="url(#clipPath1)" fill="none" x1="237" x2="241" y1="430" y2="430" stroke-dasharray="none" stroke="black"/>
<line clip-path="url(#clipPath1)" fill="none" x1="241" x2="246" y1="430" y2="430" stroke-dasharray="none" stroke="black"/>
<line clip-path="url(#clipPath1)" fill="none" x1="246" x2="250" y1="430" y2="430" stroke-dasharray="none" stroke="black"/>
<line clip-path="url(#clipPath1)" fill="none" x1="250" x2="254" y1="430" y2="430" stroke-dasharray="none" stroke="black"/>
<line clip-path="url(#clipPath1)" fill="none" x1="254" x2="258" y1="430" y2="430" stroke-dasharray="none" stroke="black"/>
<line clip-path="url(#clipPath1)" fill="none" x1="258" x2="263" y1="430" y2="430" stroke-dasharray="none" stroke="black"/>
<line clip-path="url(#clipPath1)" fill="none" x1="263" x2="267" y1="430" y2="430" stroke-dasharray="none" stroke="black"/>
<line clip-path="url(#clipPath1)" fill="none" x1="267" x2="271" y1="430" y2="430" stroke-dasharray="none" stroke="black"/>
<line clip-path="url(#clipPath1)" fill="none" x1="271" x2="275" y1="430" y2="430" stroke-dasharray="none" stroke="black"/>
<line clip-path="url(#clipPath1)" fill="none" x1="275" x2="280" y1="430" y2="430" stroke-dasharray="none" stroke="black"/>
<line clip-path="url(#clipPath1)" fill="none" x1="280" x2="284" y1="430" y2="430" stroke-dasharray="none" stroke="black"/>
<line clip-path="url(#clipPath1)" fill="none" x1="284" x2="288" y1="430" y2="430" stroke-dasharray="none" stroke="black"/>
<line clip-path="url(#clipPath1)" fill="none" x1="288" x2="292" y1="430" y2="430" stroke-dasharray="none" stroke="black"/>
<line clip-path="url(#clipPath1)" fill="none" x1="292" x2="297" y1="430" y2="430" stroke-dasharray="none" stroke="black"/>
<line clip-path="url(#clipPath1)" fill="none" x1="297" x2="301" y1="430" y2="430" stroke-dasharray="none" stroke="black"/>
<line clip-path="url(#clipPath1)" fill="none" x1="301" x2="305" y1="430" y2="430" stroke-dasharray="none" stroke="black"/>
<line clip-path="url(#clipPath1)" fill="none" x1="305" x2="309" y1="430" y2="430" stroke-dasharray="none" stroke="black"/>
<line clip-path="url(#clipPath1)" fill="none" x1="309" x2="314" y1="430" y2="430" stroke-dasharray="none" stroke="black"/>
<line clip-path="url(#clipPath1)" fill="none" x1="314" x2="318" y1="430" y2="430" stroke-dasharray="none" stroke="black"/>
<line clip-path="url(#clipPath1)" fill="none" x1="318" x2="322" y1="430" y2="430" stroke-dasharray="none" stroke="black"/>
<line clip-path="url(#clipPath1)" fill="none" x1="322" x2="326" y1="430" y2="430" stroke-dasharray="none" stroke="black"/>
<line clip-path="url(#clipPath1)" fill="none" x1="326" x2="331" y1="430" y2="430" stroke-dasharray="none" stroke="black"/>
<line clip-path="url(#clipPath1)" fill="none" x1="331" x2="335" y1="430" y2="430" stroke-dasharray="none" stroke="black"/>
<line clip-path="url(#clipPath1)" fill="none" x1="335" x2="339" y1="430" y2="430" stroke-dasharray="none" stroke="black"/>
<line clip-path="url(#clipPath1)" fill="none" x1="339" x2="343" y1="430" y2="430" stroke-dasharray="none" stroke="black"/>
<line clip-path="url(#clipPath1)" fill="none" x1="343" x2="348" y1="430" y2="430" stroke-dasharray="none" stroke="black"/>
<line clip-path="url(#clipPath1)" fill="none" x1="348" x2="352" y1="430" y2="430" stroke-dasharray="none" stroke="black"/>
<line clip-path="url(#clipPath1)" fill="none" x1="352" x2="356" y1="430" y2="430" stroke-dasharray="none" stroke="black"/>
<line clip-path="url(#clipPath1)" fill="none" x1="356" x2="360" y1="430" y2="430" stroke-dasharray="none" stroke="black"/>
<line clip-path="url(#clipPath1)" fill="none" x1="360" x2="365" y1="430" y2="430" stroke-dasharray="none" stroke="black"/>
<line clip-path="url(#clipPath1)" fill="none" x1="365" x2="369" y1="430" y2="430" stroke-dasharray="none" stroke="black"/>
<line clip-path="url(#clipPath1)" fill="none" x1="369" x2="373" y1="430" y2="430" stroke-dasharray="none" stroke="black"/>
<line clip-path="url(#clipPath1)" fill="none" x1="373" x2="377" y1="430" y2="430" stroke-dasharray="none" stroke="black"/>
<line clip-path="url(#clipPath1)" fill="none" x1="377" x2="382" y1="430" y2="430" stroke-dasharray="none" stroke="black"/>
<line clip-path="url(#clipPath1)" fill="none" x1="382" x2="386" y1="430" y2="430" stroke-dasharray="none" stroke="black"/>
<line clip-path="url(#clipPath1)" fill="none" x1="386" x2="390" y1="430" y2="430" stroke-dasharray="none" stroke="black"/>
<line clip-path="url(#clipPath1)" fill="none" x1="390" x2="394" y1="430" y2="430" stroke-dasharray="none" stroke="black"/>
<line clip-path="url(#clipPath1)" fill="none" x1="394" x2="399" y1="430" y2="430" stroke-dasharray="none" stroke="black"/>
<line clip-path="url(#clipPath1)" fill="none" x1="399" x2="403" y1="430" y2="430" stroke-dasharray="none" stroke="black"/>
<line clip-path="url(#clipPath1)" fill="none" x1="403" x2="407" y1="430" y2="430" stroke-dasharray="none" stroke="black"/>
<line clip-path="url(#clipPath1)" fill="none" x1="407" x2="411" y1="430" y2="430" stroke-dasharray="none" stroke="black"/>
<line clip-path="url(#clipPath1)" fill="none" x1="411" x2="416" y1="430" y2="430" stroke-dasharray="none" stroke="black"/>
<line clip-path="url(#clipPath1)" fill="none" x1="416" x2="420" y1="430" y2="430" stroke-dasharray="none" stroke="black"/>
<line clip-path="url(#clipPath1)" fill="none" x1="420" x2="424" y1="430" y2="430" stroke-dasharray="none" stroke="black"/>
<line clip-path="url(#clipPath1)" fill="none" x1="424" x2="428" y1="430" y2="430" stroke-dasharray="none" stroke="black"/>
<line clip-path="url(#clipPath1)" fill="none" x1="428" x2="433" y1="430" y2="430" stroke-dasharray="none" stroke="black"/>
<line clip-path="url(#clipPath1)" fill="none" x1="433" x2="437" y1="430" y2="430" stroke-dasharray="none" stroke="black"/>
<line clip-path="url(#clipPath1)" fill="none" x1="437" x2="441" y1="430" y2="430" stroke-dasharray="none" stroke="black"/>
<line clip-path="url(#clipPath1)" fill="none" x1="441" x2="445" y1="430" y2="430" stroke-dasharray="none" stroke="black"/>
<line clip-path="url(#clipPath1)" fill="none" x1="445" x2="450" y1="430" y2="430" stroke-dasharray="none" stroke="black"/>
<line clip-path="url(#clipPath1)" fill="none" x1="450" x2="454" y1="430" y2="430" stroke-dasharray="none" stroke="black"/>
<line clip-path="url(#clipPath1)" fill="none" x1="454" x2="458" y1="430" y2="430" stroke-dasharray="none" stroke="black"/>
<line clip-path="url(#clipPath1)" fill="none" x1="458" x2="462" y1="430" y2="430" stroke-dasharray="none" stroke="black"/>
<line clip-path="url(#clipPath1)" fill="none" x1="462" x2="467" y1="430" y2="430" stroke-dasharray="none" stroke="black"/>
<line clip-path="url(#clipPath1)" fill="none" x1="467" x2="471" y1="430" y2="430" stroke-dasharray="none" stroke="black"/>
<line clip-path="url(#clipPath1)" fill="none" x1="471" x2="475" y1="430" y2="430" stroke-dasharray="none" stroke="black"/>
<line clip-path="url(#clipPath1)" fill="none" x1="475" x2="479" y1="430" y2="430" stroke-dasharray="none" stroke="black"/>
<line clip-path="url(#clipPath1)" fill="none" x1="479" x2="484" y1="430" y2="430" stroke-dasharray="none" stroke="black"/>
<line clip-path="url(#clipPath1)" fill="none" x1="484" x2="488" y1="430" y2="430" stroke-dasharray="none" stroke="black"/>
<line clip-path="url(#clipPath1)" fill="none" x1="488" x2="492" y1="430" y2="430" stroke-dasharray="none" stroke="black"/>
<line clip-path="url(#clipPath1)" fill="none" x1="492" x2="496" y1="430" y2="430" stroke-dasharray="none" stroke="black"/>
<line clip-path="url(#clipPath1)" fill="none" x1="496" x2="501" y1="430" y2="430" stroke-dasharray="none" stroke="black"/>
<line clip-path="url(#clipPath1)" fill="none" x1="501" x2="505" y1="430" y2="430" stroke-dasharray="none" stroke="black"/>
<line clip-path="url(#clipPath1)" fill="none" x1="505" x2="509" y1="430" y2="430" stroke-dasharray="none" stroke="black"/>
<line clip-path="url(#clipPath1)" fill="none" x1="509" x2="513" y1="430" y2="430" stroke-dasharray="none" stroke="black"/>
<line clip-path="url(#clipPath1)" fill="none" x1="513" x2="518" y1="430" y2="430" stroke-dasharray="none" stroke="black"/>
<line clip-path="url(#clipPath1)" fill="none" x1="518" x2="522" y1="430" y2="430" stroke-dasharray="none" stroke="black"/>
<line clip-path="url(#clipPath1)" fill="none" x1="522" x2="526" y1="430" y2="430" stroke-dasharray="none" stroke="black"/>
<line clip-path="url(#clipPath1)" fill="none" x1="526" x2="530" y1="430" y2="430" stroke-dasharray="none" stroke="black"/>
<line clip-path="url(#clipPath1)" fill="none" x1="530" x2="535" y1="430" y2="430" stroke-dasharray="none" stroke="black"/>
<line clip-path="url(#clipPath1)" fill="none" x1="535" x2="539" y1="430" y2="430" stroke-dasharray="none" stroke="black"/>
<line clip-path="url(#clipPath1)" fill="none" x1="539" x2="543" y1="430" y2="430" stroke-dasharray="none" stroke="black"/>
<line clip-path="url(#clipPath1)" fill="none" x1="543" x2="547" y1="430" y2="430" stroke-dasharray="none" stroke="black"/>
<line clip-path="url(#clipPath1)" fill="none" x1="547" x2="552" y1="430" y2="430" stroke-dasharray="none" stroke="black"/>
<line clip-path="url(#clipPath1)" fill="none" x1="552" x2="556" y1="430" y2="430" stroke-dasharray="none" stroke="black"/>
<line clip-path="url(#clipPath1)" fill="none" x1="556" x2="560" y1="430" y2="430" stroke-dasharray="none" stroke="black"/>
<line clip-path="url(#clipPath1)" fill="none" x1="560" x2="564" y1="430" y2="430" stroke-dasharray="none" stroke="black"/>
<line clip-path="url(#clipPath1)" fill="none" x1="564" x2="569" y1="430" y2="430" stroke-dasharray="none" stroke="black"/>
<line clip-path="url(#clipPath1)" fill="none" x1="569" x2="573" y1="430" y2="430" stroke-dasharray="none" stroke="black"/>
<line clip-path="url(#clipPath1)" fill="none" x1="573" x2="577" y1="430" y2="430" stroke-dasharray="none" stroke="black"/>
<line clip-path="url(#clipPath1)" fill="none" x1="577" x2="581" y1="430" y2="430" stroke-dasharray="none" stroke="black"/>
<line clip-path="url(#clipPath1)" fill="none" x1="581" x2="586" y1="430" y2="430" stroke-dasharray="none" stroke="black"/>
<rect x="586" y="73" clip-path="url(#clipPath1)" fill="rgb(0,0,139)" width="4" stroke-dasharray="none" height="357" stroke="none"/>
<rect x="586" y="73" clip-path="url(#clipPath1)" fill="none" width="4" stroke-dasharray="none" height="357" stroke="black"/>
<rect x="590" y="361" clip-path="url(#clipPath1)" fill="rgb(0,0,139)" width="4" stroke-dasharray="none" height="69" stroke="none"/>
<rect x="590" y="361" clip-path="url(#clipPath1)" fill="none" width="4" stroke-dasharray="none" height="69" stroke="black"/>
<rect x="594" y="317" clip-path="url(#clipPath1)" fill="rgb(0,0,139)" width="4" stroke-dasharray="none" height="113" stroke="none"/>
<rect x="594" y="317" clip-path="url(#clipPath1)" fill="none" width="4" stroke-dasharray="none" height="113" stroke="black"/>
<rect x="598" y="354" clip-path="url(#clipPath1)" fill="rgb(0,0,139)" width="5" stroke-dasharray="none" height="76" stroke="none"/>
<rect x="598" y="354" clip-path="url(#clipPath1)" fill="none" width="5" stroke-dasharray="none" height="76" stroke="black"/>
<rect x="603" y="417" clip-path="url(#clipPath1)" fill="rgb(0,0,139)" width="4" stroke-dasharray="none" height="13" stroke="none"/>
<rect x="603" y="417" clip-path="url(#clipPath1)" fill="none" width="4" stroke-dasharray="none" height="13" stroke="black"/>
<rect x="607" y="404" clip-path="url(#clipPath1)" fill="rgb(0,0,139)" width="4" stroke-dasharray="none" height="26" stroke="none"/>
<rect x="607" y="404" clip-path="url(#clipPath1)" fill="none" width="4" stroke-dasharray="none" height="26" stroke="black"/>
<line clip-path="url(#clipPath1)" fill="none" x1="611" x2="615" y1="430" y2="430" stroke-dasharray="none" stroke="black"/>
<rect x="615" y="423" clip-path="url(#clipPath1)" fill="rgb(0,0,139)" width="5" stroke-dasharray="none" height="7" stroke="none"/>
<rect x="615" y="423" clip-path="url(#clipPath1)" fill="none" width="5" stroke-dasharray="none" height="7" stroke="black"/>
<rect x="620" y="423" clip-path="url(#clipPath1)" fill="rgb(0,0,139)" width="4" stroke-dasharray="none" height="7" stroke="none"/>
<rect x="620" y="423" clip-path="url(#clipPath1)" fill="none" width="4" stroke-dasharray="none" height="7" stroke="black"/>
<rect x="624" y="423" clip-path="url(#clipPath1)" fill="rgb(0,0,139)" width="4" stroke-dasharray="none" height="7" stroke="none"/>
<rect x="624" y="423" clip-path="url(#clipPath1)" fill="none" width="4" stroke-dasharray="none" height="7" stroke="black"/>
<line clip-path="url(#clipPath1)" fill="none" x1="628" x2="632" y1="430" y2="430" stroke-dasharray="none" stroke="black"/>
<rect x="632" y="423" clip-path="url(#clipPath1)" fill="rgb(0,0,139)" width="5" stroke-dasharray="none" height="7" stroke="none"/>
<rect x="632" y="423" clip-path="url(#clipPath1)" fill="none" width="5" stroke-dasharray="none" height="7" stroke="black"/>
<line clip-path="url(#clipPath1)" fill="none" x1="637" x2="641" y1="430" y2="430" stroke-dasharray="none" stroke="black"/>
<rect x="641" y="417" clip-path="url(#clipPath1)" fill="rgb(0,0,139)" width="4" stroke-dasharray="none" height="13" stroke="none"/>
<rect x="641" y="417" clip-path="url(#clipPath1)" fill="none" width="4" stroke-dasharray="none" height="13" stroke="black"/>
<line clip-path="url(#clipPath1)" fill="none" x1="645" x2="649" y1="430" y2="430" stroke-dasharray="none" stroke="black"/>
<rect x="649" y="423" clip-path="url(#clipPath1)" fill="rgb(0,0,139)" width="5" stroke-dasharray="none" height="7" stroke="none"/>
<rect x="649" y="423" clip-path="url(#clipPath1)" fill="none" width="5" stroke-dasharray="none" height="7" stroke="black"/>
<rect x="654" y="423" clip-path="url(#clipPath1)" fill="rgb(0,0,139)" width="4" stroke-dasharray="none" height="7" stroke="none"/>
<rect x="654" y="423" clip-path="url(#clipPath1)" fill="none" width="4" stroke-dasharray="none" height="7" stroke="black"/>
<line clip-path="url(#clipPath1)" fill="none" x1="658" x2="662" y1="430" y2="430" stroke-dasharray="none" stroke="black"/>
<line clip-path="url(#clipPath1)" fill="none" x1="662" x2="666" y1="430" y2="430" stroke-dasharray="none" stroke="black"/>
<line clip-path="url(#clipPath1)" fill="none" x1="666" x2="671" y1="430" y2="430" stroke-dasharray="none" stroke="black"/>
<line clip-path="url(#clipPath1)" fill="none" x1="671" x2="675" y1="430" y2="430" stroke-dasharray="none" stroke="black"/>
<line clip-path="url(#clipPath1)" fill="none" x1="675" x2="679" y1="430" y2="430" stroke-dasharray="none" stroke="black"/>
<line clip-path="url(#clipPath1)" fill="none" x1="679" x2="683" y1="430" y2="430" stroke-dasharray="none" stroke="black"/>
<line clip-path="url(#clipPath1)" fill="none" x1="683" x2="688" y1="430" y2="430" stroke-dasharray="none" stroke="black"/>
<line clip-path="url(#clipPath1)" fill="none" x1="688" x2="692" y1="430" y2="430" stroke-dasharray="none" stroke="black"/>
<line clip-path="url(#clipPath1)" fill="none" x1="692" x2="696" y1="430" y2="430" stroke-dasharray="none" stroke="black"/>
<line clip-path="url(#clipPath1)" fill="none" x1="696" x2="700" y1="430" y2="430" stroke-dasharray="none" stroke="black"/>
<line clip-path="url(#clipPath1)" fill="none" x1="700" x2="705" y1="430" y2="430" stroke-dasharray="none" stroke="black"/>
<line clip-path="url(#clipPath1)" fill="none" x1="705" x2="709" y1="430" y2="430" stroke-dasharray="none" stroke="black"/>
<line clip-path="url(#clipPath1)" fill="none" x1="709" x2="713" y1="430" y2="430" stroke-dasharray="none" stroke="black"/>
<line clip-path="url(#clipPath1)" fill="none" x1="713" x2="717" y1="430" y2="430" stroke-dasharray="none" stroke="black"/>
<line clip-path="url(#clipPath1)" fill="none" x1="717" x2="722" y1="430" y2="430" stroke-dasharray="none" stroke="black"/>
<line clip-path="url(#clipPath1)" fill="none" x1="722" x2="726" y1="430" y2="430" stroke-dasharray="none" stroke="black"/>
<line clip-path="url(#clipPath1)" fill="none" x1="726" x2="730" y1="430" y2="430" stroke-dasharray="none" stroke="black"/>
<line clip-path="url(#clipPath1)" fill="none" x1="730" x2="734" y1="430" y2="430" stroke-dasharray="none" stroke="black"/>
<line clip-path="url(#clipPath1)" fill="none" x1="734" x2="739" y1="430" y2="430" stroke-dasharray="none" stroke="black"/>
<line clip-path="url(#clipPath1)" fill="none" x1="739" x2="743" y1="430" y2="430" stroke-dasharray="none" stroke="black"/>
<line clip-path="url(#clipPath1)" fill="none" x1="743" x2="747" y1="430" y2="430" stroke-dasharray="none" stroke="black"/>
<line clip-path="url(#clipPath1)" fill="none" x1="747" x2="751" y1="430" y2="430" stroke-dasharray="none" stroke="black"/>
<line clip-path="url(#clipPath1)" fill="none" x1="751" x2="756" y1="430" y2="430" stroke-dasharray="none" stroke="black"/>
<line clip-path="url(#clipPath1)" fill="none" x1="756" x2="760" y1="430" y2="430" stroke-dasharray="none" stroke="black"/>
<line clip-path="url(#clipPath1)" fill="none" x1="760" x2="764" y1="430" y2="430" stroke-dasharray="none" stroke="black"/>
<line clip-path="url(#clipPath1)" fill="none" x1="764" x2="768" y1="430" y2="430" stroke-dasharray="none" stroke="black"/>
<line clip-path="url(#clipPath1)" fill="none" x1="768" x2="773" y1="430" y2="430" stroke-dasharray="none" stroke="black"/>
<line clip-path="url(#clipPath1)" fill="none" x1="773" x2="777" y1="430" y2="430" stroke-dasharray="none" stroke="black"/>
<line clip-path="url(#clipPath1)" fill="none" x1="777" x2="781" y1="430" y2="430" stroke-dasharray="none" stroke="black"/>
<line clip-path="url(#clipPath1)" fill="none" x1="781" x2="785" y1="430" y2="430" stroke-dasharray="none" stroke="black"/>
<line clip-path="url(#clipPath1)" fill="none" x1="785" x2="790" y1="430" y2="430" stroke-dasharray="none" stroke="black"/>
<line clip-path="url(#clipPath1)" fill="none" x1="790" x2="794" y1="430" y2="430" stroke-dasharray="none" stroke="black"/>
<line clip-path="url(#clipPath1)" fill="none" x1="794" x2="798" y1="430" y2="430" stroke-dasharray="none" stroke="black"/>
<line clip-path="url(#clipPath1)" fill="none" x1="798" x2="802" y1="430" y2="430" stroke-dasharray="none" stroke="black"/>
<line clip-path="url(#clipPath1)" fill="none" x1="802" x2="807" y1="430" y2="430" stroke-dasharray="none" stroke="black"/>
<line clip-path="url(#clipPath1)" fill="none" x1="807" x2="811" y1="430" y2="430" stroke-dasharray="none" stroke="black"/>
<line clip-path="url(#clipPath1)" fill="none" x1="811" x2="815" y1="430" y2="430" stroke-dasharray="none" stroke="black"/>
<line clip-path="url(#clipPath1)" fill="none" x1="815" x2="819" y1="430" y2="430" stroke-dasharray="none" stroke="black"/>
<line clip-path="url(#clipPath1)" fill="none" x1="819" x2="824" y1="430" y2="430" stroke-dasharray="none" stroke="black"/>
<line clip-path="url(#clipPath1)" fill="none" x1="824" x2="828" y1="430" y2="430" stroke-dasharray="none" stroke="black"/>
<line clip-path="url(#clipPath1)" fill="none" x1="828" x2="832" y1="430" y2="430" stroke-dasharray="none" stroke="black"/>
<line clip-path="url(#clipPath1)" fill="none" x1="832" x2="836" y1="430" y2="430" stroke-dasharray="none" stroke="black"/>
<line clip-path="url(#clipPath1)" fill="none" x1="836" x2="841" y1="430" y2="430" stroke-dasharray="none" stroke="black"/>
<line clip-path="url(#clipPath1)" fill="none" x1="841" x2="845" y1="430" y2="430" stroke-dasharray="none" stroke="black"/>
<line clip-path="url(#clipPath1)" fill="none" x1="845" x2="849" y1="430" y2="430" stroke-dasharray="none" stroke="black"/>
<line clip-path="url(#clipPath1)" fill="none" x1="849" x2="853" y1="430" y2="430" stroke-dasharray="none" stroke="black"/>
<rect x="28" y="23" clip-path="url(#clipPath2)" fill="none" width="645" stroke-dasharray="none" height="407" stroke="black"/>
</g>
<g text-rendering="geometricPrecision" font-size="13" stroke-linecap="butt">
<line clip-path="url(#clipPath2)" fill="none" x1="28" x2="673" y1="21" y2="21"/>
<line clip-path="url(#clipPath2)" fill="none" x1="28" x2="673" y1="432" y2="432"/>
<line clip-path="url(#clipPath2)" fill="none" x1="34" x2="34" y1="19" y2="21"/>
<line clip-path="url(#clipPath2)" fill="none" x1="34" x2="34" y1="434" y2="432"/>
<line clip-path="url(#clipPath2)" fill="none" x1="49" x2="49" y1="19" y2="21"/>
<line clip-path="url(#clipPath2)" fill="none" x1="49" x2="49" y1="434" y2="432"/>
<line clip-path="url(#clipPath2)" fill="none" x1="65" x2="65" y1="19" y2="21"/>
<line clip-path="url(#clipPath2)" fill="none" x1="65" x2="65" y1="434" y2="432"/>
<line clip-path="url(#clipPath2)" fill="none" x1="80" x2="80" y1="17" y2="21"/>
<line clip-path="url(#clipPath2)" fill="none" x1="80" x2="80" y1="436" y2="432"/>
<text x="60" font-size="11" y="14" clip-path="url(#clipPath2)" stroke="none" xml:space="preserve">0.00010</text>
<text x="60" font-size="11" y="448" clip-path="url(#clipPath2)" stroke="none" xml:space="preserve">0.00010</text>
<line clip-path="url(#clipPath2)" fill="none" x1="95" x2="95" y1="19" y2="21"/>
<line clip-path="url(#clipPath2)" fill="none" x1="95" x2="95" y1="434" y2="432"/>
<line clip-path="url(#clipPath2)" fill="none" x1="110" x2="110" y1="19" y2="21"/>
<line clip-path="url(#clipPath2)" fill="none" x1="110" x2="110" y1="434" y2="432"/>
<line clip-path="url(#clipPath2)" fill="none" x1="126" x2="126" y1="19" y2="21"/>
<line clip-path="url(#clipPath2)" fill="none" x1="126" x2="126" y1="434" y2="432"/>
<line clip-path="url(#clipPath2)" fill="none" x1="141" x2="141" y1="19" y2="21"/>
<line clip-path="url(#clipPath2)" fill="none" x1="141" x2="141" y1="434" y2="432"/>
<line clip-path="url(#clipPath2)" fill="none" x1="156" x2="156" y1="17" y2="21"/>
<line clip-path="url(#clipPath2)" fill="none" x1="156" x2="156" y1="436" y2="432"/>
<text x="136" font-size="11" y="14" clip-path="url(#clipPath2)" stroke="none" xml:space="preserve">0.00020</text>
<text x="136" font-size="11" y="448" clip-path="url(#clipPath2)" stroke="none" xml:space="preserve">0.00020</text>
<line clip-path="url(#clipPath2)" fill="none" x1="172" x2="172" y1="19" y2="21"/>
<line clip-path="url(#clipPath2)" fill="none" x1="172" x2="172" y1="434" y2="432"/>
<line clip-path="url(#clipPath2)" fill="none" x1="187" x2="187" y1="19" y2="21"/>
<line clip-path="url(#clipPath2)" fill="none" x1="187" x2="187" y1="434" y2="432"/>
<line clip-path="url(#clipPath2)" fill="none" x1="202" x2="202" y1="19" y2="21"/>
<line clip-path="url(#clipPath2)" fill="none" x1="202" x2="202" y1="434" y2="432"/>
<line clip-path="url(#clipPath2)" fill="none" x1="217" x2="217" y1="19" y2="21"/>
<line clip-path="url(#clipPath2)" fill="none" x1="217" x2="217" y1="434" y2="432"/>
<line clip-path="url(#clipPath2)" fill="none" x1="233" x2="233" y1="17" y2="21"/>
<line clip-path="url(#clipPath2)" fill="none" x1="233" x2="233" y1="436" y2="432"/>
<text x="213" font-size="11" y="14" clip-path="url(#clipPath2)" stroke="none" xml:space="preserve">0.00030</text>
<text x="213" font-size="11" y="448" clip-path="url(#clipPath2)" stroke="none" xml:space="preserve">0.00030</text>
<line clip-path="url(#clipPath2)" fill="none" x1="248" x2="248" y1="19" y2="21"/>
<line clip-path="url(#clipPath2)" fill="none" x1="248" x2="248" y1="434" y2="432"/>
<line clip-path="url(#clipPath2)" fill="none" x1="263" x2="263" y1="19" y2="21"/>
<line clip-path="url(#clipPath2)" fill="none" x1="263" x2="263" y1="434" y2="432"/>
<line clip-path="url(#clipPath2)" fill="none" x1="278" x2="278" y1="19" y2="21"/>
<line clip-path="url(#clipPath2)" fill="none" x1="278" x2="278" y1="434" y2="432"/>
<line clip-path="url(#clipPath2)" fill="none" x1="294" x2="294" y1="19" y2="21"/>
<line clip-path="url(#clipPath2)" fill="none" x1="294" x2="294" y1="434" y2="432"/>
<line clip-path="url(#clipPath2)" fill="none" x1="309" x2="309" y1="17" y2="21"/>
<line clip-path="url(#clipPath2)" fill="none" x1="309" x2="309" y1="436" y2="432"/>
<text x="289" font-size="11" y="14" clip-path="url(#clipPath2)" stroke="none" xml:space="preserve">0.00040</text>
<text x="289" font-size="11" y="448" clip-path="url(#clipPath2)" stroke="none" xml:space="preserve">0.00040</text>
<line clip-path="url(#clipPath2)" fill="none" x1="324" x2="324" y1="19" y2="21"/>
<line clip-path="url(#clipPath2)" fill="none" x1="324" x2="324" y1="434" y2="432"/>
<line clip-path="url(#clipPath2)" fill="none" x1="340" x2="340" y1="19" y2="21"/>
<line clip-path="url(#clipPath2)" fill="none" x1="340" x2="340" y1="434" y2="432"/>
<line clip-path="url(#clipPath2)" fill="none" x1="355" x2="355" y1="19" y2="21"/>
<line clip-path="url(#clipPath2)" fill="none" x1="355" x2="355" y1="434" y2="432"/>
<line clip-path="url(#clipPath2)" fill="none" x1="370" x2="370" y1="19" y2="21"/>
<line clip-path="url(#clipPath2)" fill="none" x1="370" x2="370" y1="434" y2="432"/>
<line clip-path="url(#clipPath2)" fill="none" x1="385" x2="385" y1="17" y2="21"/>
<line clip-path="url(#clipPath2)" fill="none" x1="385" x2="385" y1="436" y2="432"/>
<text x="365" font-size="11" y="14" clip-path="url(#clipPath2)" stroke="none" xml:space="preserve">0.00050</text>
<text x="365" font-size="11" y="448" clip-path="url(#clipPath2)" stroke="none" xml:space="preserve">0.00050</text>
<line clip-path="url(#clipPath2)" fill="none" x1="401" x2="401" y1="19" y2="21"/>
<line clip-path="url(#clipPath2)" fill="none" x1="401" x2="401" y1="434" y2="432"/>
<line clip-path="url(#clipPath2)" fill="none" x1="416" x2="416" y1="19" y2="21"/>
<line clip-path="url(#clipPath2)" fill="none" x1="416" x2="416" y1="434" y2="432"/>
<line clip-path="url(#clipPath2)" fill="none" x1="431" x2="431" y1="19" y2="21"/>
<line clip-path="url(#clipPath2)" fill="none" x1="431" x2="431" y1="434" y2="432"/>
<line clip-path="url(#clipPath2)" fill="none" x1="447" x2="447" y1="19" y2="21"/>
<line clip-path="url(#clipPath2)" fill="none" x1="447" x2="447" y1="434" y2="432"/>
<line clip-path="url(#clipPath2)" fill="none" x1="462" x2="462" y1="17" y2="21"/>
<line clip-path="url(#clipPath2)" fill="none" x1="462" x2="462" y1="436" y2="432"/>
<text x="442" font-size="11" y="14" clip-path="url(#clipPath2)" stroke="none" xml:space="preserve">0.00060</text>
<text x="442" font-size="11" y="448" clip-path="url(#clipPath2)" stroke="none" xml:space="preserve">0.00060</text>
<line clip-path="url(#clipPath2)" fill="none" x1="477" x2="477" y1="19" y2="21"/>
<line clip-path="url(#clipPath2)" fill="none" x1="477" x2="477" y1="434" y2="432"/>
<line clip-path="url(#clipPath2)" fill="none" x1="492" x2="492" y1="19" y2="21"/>
<line clip-path="url(#clipPath2)" fill="none" x1="492" x2="492" y1="434" y2="432"/>
<line clip-path="url(#clipPath2)" fill="none" x1="508" x2="508" y1="19" y2="21"/>
<line clip-path="url(#clipPath2)" fill="none" x1="508" x2="508" y1="434" y2="432"/>
<line clip-path="url(#clipPath2)" fill="none" x1="523" x2="523" y1="19" y2="21"/>
<line clip-path="url(#clipPath2)" fill="none" x1="523" x2="523" y1="434" y2="432"/>
<line clip-path="url(#clipPath2)" fill="none" x1="538" x2="538" y1="17" y2="21"/>
<line clip-path="url(#clipPath2)" fill="none" x1="538" x2="538" y1="436" y2="432"/>
<text x="518" font-size="11" y="14" clip-path="url(#clipPath2)" stroke="none" xml:space="preserve">0.00070</text>
<text x="518" font-size="11" y="448" clip-path="url(#clipPath2)" stroke="none" xml:space="preserve">0.00070</text>
<line clip-path="url(#clipPath2)" fill="none" x1="553" x2="553" y1="19" y2="21"/>
<line clip-path="url(#clipPath2)" fill="none" x1="553" x2="553" y1="434" y2="432"/>
<line clip-path="url(#clipPath2)" fill="none" x1="569" x2="569" y1="19" y2="21"/>
<line clip-path="url(#clipPath2)" fill="none" x1="569" x2="569" y1="434" y2="432"/>
<line clip-path="url(#clipPath2)" fill="none" x1="584" x2="584" y1="19" y2="21"/>
<line clip-path="url(#clipPath2)" fill="none" x1="584" x2="584" y1="434" y2="432"/>
<line clip-path="url(#clipPath2)" fill="none" x1="599" x2="599" y1="19" y2="21"/>
<line clip-path="url(#clipPath2)" fill="none" x1="599" x2="599" y1="434" y2="432"/>
<line clip-path="url(#clipPath2)" fill="none" x1="615" x2="615" y1="17" y2="21"/>
<line clip-path="url(#clipPath2)" fill="none" x1="615" x2="615" y1="436" y2="432"/>
<text x="595" font-size="11" y="14" clip-path="url(#clipPath2)" stroke="none" xml:space="preserve">0.00080</text>
<text x="595" font-size="11" y="448" clip-path="url(#clipPath2)" stroke="none" xml:space="preserve">0.00080</text>
<line clip-path="url(#clipPath2)" fill="none" x1="630" x2="630" y1="19" y2="21"/>
<line clip-path="url(#clipPath2)" fill="none" x1="630" x2="630" y1="434" y2="432"/>
<line clip-path="url(#clipPath2)" fill="none" x1="645" x2="645" y1="19" y2="21"/>
<line clip-path="url(#clipPath2)" fill="none" x1="645" x2="645" y1="434" y2="432"/>
<line clip-path="url(#clipPath2)" fill="none" x1="660" x2="660" y1="19" y2="21"/>
<line clip-path="url(#clipPath2)" fill="none" x1="660" x2="660" y1="434" y2="432"/>
<line clip-path="url(#clipPath2)" fill="none" x1="26" x2="26" y1="23" y2="430"/>
<line clip-path="url(#clipPath2)" fill="none" x1="675" x2="675" y1="23" y2="430"/>
<line clip-path="url(#clipPath2)" fill="none" x1="22" x2="26" y1="430" y2="430"/>
<line clip-path="url(#clipPath2)" fill="none" x1="679" x2="675" y1="430" y2="430"/>
<text x="15" font-size="11" y="435" clip-path="url(#clipPath2)" stroke="none" xml:space="preserve">0</text>
<text x="682" font-size="11" y="435" clip-path="url(#clipPath2)" stroke="none" xml:space="preserve">0</text>
<line clip-path="url(#clipPath2)" fill="none" x1="24" x2="26" y1="417" y2="417"/>
<line clip-path="url(#clipPath2)" fill="none" x1="677" x2="675" y1="417" y2="417"/>
<line clip-path="url(#clipPath2)" fill="none" x1="24" x2="26" y1="404" y2="404"/>
<line clip-path="url(#clipPath2)" fill="none" x1="677" x2="675" y1="404" y2="404"/>
<line clip-path="url(#clipPath2)" fill="none" x1="24" x2="26" y1="392" y2="392"/>
<line clip-path="url(#clipPath2)" fill="none" x1="677" x2="675" y1="392" y2="392"/>
<line clip-path="url(#clipPath2)" fill="none" x1="24" x2="26" y1="379" y2="379"/>
<line clip-path="url(#clipPath2)" fill="none" x1="677" x2="675" y1="379" y2="379"/>
<line clip-path="url(#clipPath2)" fill="none" x1="22" x2="26" y1="367" y2="367"/>
<line clip-path="url(#clipPath2)" fill="none" x1="679" x2="675" y1="367" y2="367"/>
<text x="9" font-size="11" y="372" clip-path="url(#clipPath2)" stroke="none" xml:space="preserve">10</text>
<text x="682" font-size="11" y="372" clip-path="url(#clipPath2)" stroke="none" xml:space="preserve">10</text>
<line clip-path="url(#clipPath2)" fill="none" x1="24" x2="26" y1="354" y2="354"/>
<line clip-path="url(#clipPath2)" fill="none" x1="677" x2="675" y1="354" y2="354"/>
<line clip-path="url(#clipPath2)" fill="none" x1="24" x2="26" y1="342" y2="342"/>
<line clip-path="url(#clipPath2)" fill="none" x1="677" x2="675" y1="342" y2="342"/>
<line clip-path="url(#clipPath2)" fill="none" x1="24" x2="26" y1="329" y2="329"/>
<line clip-path="url(#clipPath2)" fill="none" x1="677" x2="675" y1="329" y2="329"/>
<line clip-path="url(#clipPath2)" fill="none" x1="24" x2="26" y1="317" y2="317"/>
<line clip-path="url(#clipPath2)" fill="none" x1="677" x2="675" y1="317" y2="317"/>
<line clip-path="url(#clipPath2)" fill="none" x1="22" x2="26" y1="304" y2="304"/>
<line clip-path="url(#clipPath2)" fill="none" x1="679" x2="675" y1="304" y2="304"/>
<text x="9" font-size="11" y="309" clip-path="url(#clipPath2)" stroke="none" xml:space="preserve">20</text>
<text x="682" font-size="11" y="309" clip-path="url(#clipPath2)" stroke="none" xml:space="preserve">20</text>
<line clip-path="url(#clipPath2)" fill="none" x1="24" x2="26" y1="292" y2="292"/>
<line clip-path="url(#clipPath2)" fill="none" x1="677" x2="675" y1="292" y2="292"/>
<line clip-path="url(#clipPath2)" fill="none" x1="24" x2="26" y1="279" y2="279"/>
<line clip-path="url(#clipPath2)" fill="none" x1="677" x2="675" y1="279" y2="279"/>
<line clip-path="url(#clipPath2)" fill="none" x1="24" x2="26" y1="267" y2="267"/>
<line clip-path="url(#clipPath2)" fill="none" x1="677" x2="675" y1="267" y2="267"/>
<line clip-path="url(#clipPath2)" fill="none" x1="24" x2="26" y1="254" y2="254"/>
<line clip-path="url(#clipPath2)" fill="none" x1="677" x2="675" y1="254" y2="254"/>
<line clip-path="url(#clipPath2)" fill="none" x1="22" x2="26" y1="242" y2="242"/>
<line clip-path="url(#clipPath2)" fill="none" x1="679" x2="675" y1="242" y2="242"/>
<text x="9" font-size="11" y="247" clip-path="url(#clipPath2)" stroke="none" xml:space="preserve">30</text>
<text x="682" font-size="11" y="247" clip-path="url(#clipPath2)" stroke="none" xml:space="preserve">30</text>
<line clip-path="url(#clipPath2)" fill="none" x1="24" x2="26" y1="229" y2="229"/>
<line clip-path="url(#clipPath2)" fill="none" x1="677" x2="675" y1="229" y2="229"/>
<line clip-path="url(#clipPath2)" fill="none" x1="24" x2="26" y1="217" y2="217"/>
<line clip-path="url(#clipPath2)" fill="none" x1="677" x2="675" y1="217" y2="217"/>
<line clip-path="url(#clipPath2)" fill="none" x1="24" x2="26" y1="204" y2="204"/>
<line clip-path="url(#clipPath2)" fill="none" x1="677" x2="675" y1="204" y2="204"/>
<line clip-path="url(#clipPath2)" fill="none" x1="24" x2="26" y1="192" y2="192"/>
<line clip-path="url(#clipPath2)" fill="none" x1="677" x2="675" y1="192" y2="192"/>
<line clip-path="url(#clipPath2)" fill="none" x1="22" x2="26" y1="179" y2="179"/>
<line clip-path="url(#clipPath2)" fill="none" x1="679" x2="675" y1="179" y2="179"/>
<text x="9" font-size="11" y="184" clip-path="url(#clipPath2)" stroke="none" xml:space="preserve">40</text>
<text x="682" font-size="11" y="184" clip-path="url(#clipPath2)" stroke="none" xml:space="preserve">40</text>
<line clip-path="url(#clipPath2)" fill="none" x1="24" x2="26" y1="166" y2="166"/>
<line clip-path="url(#clipPath2)" fill="none" x1="677" x2="675" y1="166" y2="166"/>
<line clip-path="url(#clipPath2)" fill="none" x1="24" x2="26" y1="154" y2="154"/>
<line clip-path="url(#clipPath2)" fill="none" x1="677" x2="675" y1="154" y2="154"/>
<line clip-path="url(#clipPath2)" fill="none" x1="24" x2="26" y1="141" y2="141"/>
<line clip-path="url(#clipPath2)" fill="none" x1="677" x2="675" y1="141" y2="141"/>
<line clip-path="url(#clipPath2)" fill="none" x1="24" x2="26" y1="129" y2="129"/>
<line clip-path="url(#clipPath2)" fill="none" x1="677" x2="675" y1="129" y2="129"/>
<line clip-path="url(#clipPath2)" fill="none" x1="22" x2="26" y1="116" y2="116"/>
<line clip-path="url(#clipPath2)" fill="none" x1="679" x2="675" y1="116" y2="116"/>
<text x="9" font-size="11" y="121" clip-path="url(#clipPath2)" stroke="none" xml:space="preserve">50</text>
<text x="682" font-size="11" y="121" clip-path="url(#clipPath2)" stroke="none" xml:space="preserve">50</text>
<line clip-path="url(#clipPath2)" fill="none" x1="24" x2="26" y1="104" y2="104"/>
<line clip-path="url(#clipPath2)" fill="none" x1="677" x2="675" y1="104" y2="104"/>
<line clip-path="url(#clipPath2)" fill="none" x1="24" x2="26" y1="91" y2="91"/>
<line clip-path="url(#clipPath2)" fill="none" x1="677" x2="675" y1="91" y2="91"/>
<line clip-path="url(#clipPath2)" fill="none" x1="24" x2="26" y1="79" y2="79"/>
<line clip-path="url(#clipPath2)" fill="none" x1="677" x2="675" y1="79" y2="79"/>
<line clip-path="url(#clipPath2)" fill="none" x1="24" x2="26" y1="66" y2="66"/>
<line clip-path="url(#clipPath2)" fill="none" x1="677" x2="675" y1="66" y2="66"/>
<line clip-path="url(#clipPath2)" fill="none" x1="22" x2="26" y1="54" y2="54"/>
<line clip-path="url(#clipPath2)" fill="none" x1="679" x2="675" y1="54" y2="54"/>
<text x="9" font-size="11" y="59" clip-path="url(#clipPath2)" stroke="none" xml:space="preserve">60</text>
<text x="682" font-size="11" y="59" clip-path="url(#clipPath2)" stroke="none" xml:space="preserve">60</text>
<line clip-path="url(#clipPath2)" fill="none" x1="24" x2="26" y1="41" y2="41"/>
<line clip-path="url(#clipPath2)" fill="none" x1="677" x2="675" y1="41" y2="41"/>
<line clip-path="url(#clipPath2)" fill="none" x1="24" x2="26" y1="29" y2="29"/>
<line clip-path="url(#clipPath2)" fill="none" x1="677" x2="675" y1="29" y2="29"/>
</g>
</g>
</svg>
