<?xml version="1.0" encoding="UTF-8"?><svg xmlns="http://www.w3.org/2000/svg" xmlns:xlink="http://www.w3.org/1999/xlink" stroke-dasharray="none" shape-rendering="auto" font-family="'Dialog'" width="714" text-rendering="auto" fill-opacity="1" contentScriptType="text/ecmascript" color-interpolation="auto" color-rendering="auto" preserveAspectRatio="xMidYMid meet" font-size="12" fill="black" stroke="black" image-rendering="auto" stroke-miterlimit="10" zoomAndPan="magnify" version="1.0" stroke-linecap="square" stroke-linejoin="miter" contentStyleType="text/css" font-style="normal" height="466" stroke-width="1" stroke-dashoffset="0" font-weight="normal" stroke-opacity="1">
<!--Generated by the Batik Graphics2D SVG Generator-->
<defs id="genericDefs"/>
<g>
<defs id="defs1">
<clipPath clipPathUnits="userSpaceOnUse" id="clipPath1">
<path d="M31 37 L683 37 L683 411 L31 411 L31 37 Z"/>
</clipPath>
<clipPath clipPathUnits="userSpaceOnUse" id="clipPath2">
<path d="M-1 -1 L715 -1 L715 467 L-1 467 L-1 -1 Z"/>
</clipPath>
<clipPath clipPathUnits="userSpaceOnUse" id="clipPath3">
<path d="M139 437 L575 437 L575 463 L139 463 L139 437 Z"/>
</clipPath>
</defs>
<g font-size="15" fill="white" text-rendering="geometricPrecision" font-family="'Cantarell'" stroke-linejoin="round" stroke="white" stroke-width="0" stroke-miterlimit="0">
<rect x="32" y="38" clip-path="url(#clipPath1)" width="650" height="372" stroke="none"/>
</g>
<g stroke-linecap="butt" font-size="15" fill="rgb(204,204,204)" text-rendering="geometricPrecision" font-family="'Cantarell'" stroke-dasharray="3,3" stroke="rgb(204,204,204)">
<line clip-path="url(#clipPath1)" fill="none" x1="32" x2="32" y1="38" y2="410"/>
<line clip-path="url(#clipPath1)" fill="none" x1="97" x2="97" y1="38" y2="410"/>
<line clip-path="url(#clipPath1)" fill="none" x1="163" x2="163" y1="38" y2="410"/>
<line clip-path="url(#clipPath1)" fill="none" x1="229" x2="229" y1="38" y2="410"/>
<line clip-path="url(#clipPath1)" fill="none" x1="295" x2="295" y1="38" y2="410"/>
<line clip-path="url(#clipPath1)" fill="none" x1="361" x2="361" y1="38" y2="410"/>
<line clip-path="url(#clipPath1)" fill="none" x1="427" x2="427" y1="38" y2="410"/>
<line clip-path="url(#clipPath1)" fill="none" x1="493" x2="493" y1="38" y2="410"/>
<line clip-path="url(#clipPath1)" fill="none" x1="559" x2="559" y1="38" y2="410"/>
<line clip-path="url(#clipPath1)" fill="none" x1="625" x2="625" y1="38" y2="410"/>
<line clip-path="url(#clipPath1)" fill="none" x1="32" x2="682" y1="410" y2="410"/>
<line clip-path="url(#clipPath1)" fill="none" x1="32" x2="682" y1="354" y2="354"/>
<line clip-path="url(#clipPath1)" fill="none" x1="32" x2="682" y1="298" y2="298"/>
<line clip-path="url(#clipPath1)" fill="none" x1="32" x2="682" y1="242" y2="242"/>
<line clip-path="url(#clipPath1)" fill="none" x1="32" x2="682" y1="186" y2="186"/>
<line clip-path="url(#clipPath1)" fill="none" x1="32" x2="682" y1="131" y2="131"/>
<line clip-path="url(#clipPath1)" fill="none" x1="32" x2="682" y1="75" y2="75"/>
<rect x="76" y="129" clip-path="url(#clipPath1)" fill="rgb(0,0,139)" width="5" height="5" stroke="none"/>
</g>
<g stroke-linecap="butt" font-size="15" fill="rgb(0,0,139)" text-rendering="geometricPrecision" font-family="'Cantarell'" shape-rendering="crispEdges" stroke="rgb(0,0,139)">
<line clip-path="url(#clipPath1)" fill="none" x1="78" x2="78" y1="131" y2="410"/>
<rect x="76" y="408" clip-path="url(#clipPath1)" width="5" shape-rendering="auto" height="5" stroke="none"/>
<line clip-path="url(#clipPath1)" fill="none" x1="78" x2="96" y1="410" y2="131" shape-rendering="auto"/>
<rect x="94" y="129" clip-path="url(#clipPath1)" width="5" shape-rendering="auto" height="5" stroke="none"/>
<line clip-path="url(#clipPath1)" fill="none" x1="96" x2="96" y1="131" y2="410"/>
<rect x="94" y="408" clip-path="url(#clipPath1)" width="5" shape-rendering="auto" height="5" stroke="none"/>
<line clip-path="url(#clipPath1)" fill="none" x1="96" x2="121" y1="410" y2="131" shape-rendering="auto"/>
<rect x="119" y="129" clip-path="url(#clipPath1)" width="5" shape-rendering="auto" height="5" stroke="none"/>
<line clip-path="url(#clipPath1)" fill="none" x1="121" x2="121" y1="131" y2="410"/>
<rect x="119" y="408" clip-path="url(#clipPath1)" width="5" shape-rendering="auto" height="5" stroke="none"/>
<line clip-path="url(#clipPath1)" fill="none" x1="121" x2="139" y1="410" y2="131" shape-rendering="auto"/>
<rect x="137" y="129" clip-path="url(#clipPath1)" width="5" shape-rendering="auto" height="5" stroke="none"/>
<line clip-path="url(#clipPath1)" fill="none" x1="139" x2="139" y1="131" y2="410"/>
<rect x="137" y="408" clip-path="url(#clipPath1)" width="5" shape-rendering="auto" height="5" stroke="none"/>
<line clip-path="url(#clipPath1)" fill="none" x1="139" x2="162" y1="410" y2="131" shape-rendering="auto"/>
<rect x="160" y="129" clip-path="url(#clipPath1)" width="5" shape-rendering="auto" height="5" stroke="none"/>
<line clip-path="url(#clipPath1)" fill="none" x1="162" x2="162" y1="131" y2="410"/>
<rect x="160" y="408" clip-path="url(#clipPath1)" width="5" shape-rendering="auto" height="5" stroke="none"/>
<line clip-path="url(#clipPath1)" fill="none" x1="162" x2="176" y1="410" y2="131" shape-rendering="auto"/>
<rect x="174" y="129" clip-path="url(#clipPath1)" width="5" shape-rendering="auto" height="5" stroke="none"/>
<line clip-path="url(#clipPath1)" fill="none" x1="176" x2="176" y1="131" y2="410"/>
<rect x="174" y="408" clip-path="url(#clipPath1)" width="5" shape-rendering="auto" height="5" stroke="none"/>
<line clip-path="url(#clipPath1)" fill="none" x1="176" x2="196" y1="410" y2="131" shape-rendering="auto"/>
<rect x="194" y="129" clip-path="url(#clipPath1)" width="5" shape-rendering="auto" height="5" stroke="none"/>
<line clip-path="url(#clipPath1)" fill="none" x1="196" x2="196" y1="131" y2="410"/>
<rect x="194" y="408" clip-path="url(#clipPath1)" width="5" shape-rendering="auto" height="5" stroke="none"/>
<line clip-path="url(#clipPath1)" fill="none" x1="196" x2="211" y1="410" y2="131" shape-rendering="auto"/>
<rect x="209" y="129" clip-path="url(#clipPath1)" width="5" shape-rendering="auto" height="5" stroke="none"/>
<line clip-path="url(#clipPath1)" fill="none" x1="211" x2="211" y1="131" y2="410"/>
<rect x="209" y="408" clip-path="url(#clipPath1)" width="5" shape-rendering="auto" height="5" stroke="none"/>
<line clip-path="url(#clipPath1)" fill="none" x1="211" x2="230" y1="410" y2="131" shape-rendering="auto"/>
<rect x="228" y="129" clip-path="url(#clipPath1)" width="5" shape-rendering="auto" height="5" stroke="none"/>
<line clip-path="url(#clipPath1)" fill="none" x1="230" x2="230" y1="131" y2="410"/>
<rect x="228" y="408" clip-path="url(#clipPath1)" width="5" shape-rendering="auto" height="5" stroke="none"/>
<line clip-path="url(#clipPath1)" fill="none" x1="230" x2="254" y1="410" y2="131" shape-rendering="auto"/>
<rect x="252" y="129" clip-path="url(#clipPath1)" width="5" shape-rendering="auto" height="5" stroke="none"/>
<line clip-path="url(#clipPath1)" fill="none" x1="254" x2="255" y1="131" y2="410" shape-rendering="auto"/>
<rect x="253" y="408" clip-path="url(#clipPath1)" width="5" shape-rendering="auto" height="5" stroke="none"/>
<line clip-path="url(#clipPath1)" fill="none" x1="255" x2="278" y1="410" y2="131" shape-rendering="auto"/>
<rect x="276" y="129" clip-path="url(#clipPath1)" width="5" shape-rendering="auto" height="5" stroke="none"/>
<line clip-path="url(#clipPath1)" fill="none" x1="278" x2="278" y1="131" y2="410"/>
<rect x="276" y="408" clip-path="url(#clipPath1)" width="5" shape-rendering="auto" height="5" stroke="none"/>
<line clip-path="url(#clipPath1)" fill="none" x1="278" x2="301" y1="410" y2="131" shape-rendering="auto"/>
<rect x="299" y="129" clip-path="url(#clipPath1)" width="5" shape-rendering="auto" height="5" stroke="none"/>
<line clip-path="url(#clipPath1)" fill="none" x1="301" x2="301" y1="131" y2="410"/>
<rect x="299" y="408" clip-path="url(#clipPath1)" width="5" shape-rendering="auto" height="5" stroke="none"/>
<line clip-path="url(#clipPath1)" fill="none" x1="301" x2="322" y1="410" y2="131" shape-rendering="auto"/>
<rect x="320" y="129" clip-path="url(#clipPath1)" width="5" shape-rendering="auto" height="5" stroke="none"/>
<line clip-path="url(#clipPath1)" fill="none" x1="322" x2="322" y1="131" y2="410"/>
<rect x="320" y="408" clip-path="url(#clipPath1)" width="5" shape-rendering="auto" height="5" stroke="none"/>
<line clip-path="url(#clipPath1)" fill="none" x1="322" x2="347" y1="410" y2="131" shape-rendering="auto"/>
<rect x="345" y="129" clip-path="url(#clipPath1)" width="5" shape-rendering="auto" height="5" stroke="none"/>
<line clip-path="url(#clipPath1)" fill="none" x1="347" x2="347" y1="131" y2="410"/>
<rect x="345" y="408" clip-path="url(#clipPath1)" width="5" shape-rendering="auto" height="5" stroke="none"/>
<line clip-path="url(#clipPath1)" fill="none" x1="347" x2="364" y1="410" y2="131" shape-rendering="auto"/>
<rect x="362" y="129" clip-path="url(#clipPath1)" width="5" shape-rendering="auto" height="5" stroke="none"/>
<line clip-path="url(#clipPath1)" fill="none" x1="364" x2="364" y1="131" y2="410"/>
<rect x="362" y="408" clip-path="url(#clipPath1)" width="5" shape-rendering="auto" height="5" stroke="none"/>
<line clip-path="url(#clipPath1)" fill="none" x1="364" x2="381" y1="410" y2="131" shape-rendering="auto"/>
<rect x="379" y="129" clip-path="url(#clipPath1)" width="5" shape-rendering="auto" height="5" stroke="none"/>
<line clip-path="url(#clipPath1)" fill="none" x1="381" x2="381" y1="131" y2="410"/>
<rect x="379" y="408" clip-path="url(#clipPath1)" width="5" shape-rendering="auto" height="5" stroke="none"/>
<line clip-path="url(#clipPath1)" fill="none" x1="381" x2="400" y1="410" y2="131" shape-rendering="auto"/>
<rect x="398" y="129" clip-path="url(#clipPath1)" width="5" shape-rendering="auto" height="5" stroke="none"/>
<line clip-path="url(#clipPath1)" fill="none" x1="400" x2="400" y1="131" y2="410"/>
<rect x="398" y="408" clip-path="url(#clipPath1)" width="5" shape-rendering="auto" height="5" stroke="none"/>
<line clip-path="url(#clipPath1)" fill="none" x1="400" x2="418" y1="410" y2="131" shape-rendering="auto"/>
<rect x="416" y="129" clip-path="url(#clipPath1)" width="5" shape-rendering="auto" height="5" stroke="none"/>
<line clip-path="url(#clipPath1)" fill="none" x1="418" x2="418" y1="131" y2="410"/>
<rect x="416" y="408" clip-path="url(#clipPath1)" width="5" shape-rendering="auto" height="5" stroke="none"/>
<line clip-path="url(#clipPath1)" fill="none" x1="418" x2="440" y1="410" y2="131" shape-rendering="auto"/>
<rect x="438" y="129" clip-path="url(#clipPath1)" width="5" shape-rendering="auto" height="5" stroke="none"/>
<line clip-path="url(#clipPath1)" fill="none" x1="440" x2="440" y1="131" y2="410"/>
<rect x="438" y="408" clip-path="url(#clipPath1)" width="5" shape-rendering="auto" height="5" stroke="none"/>
<line clip-path="url(#clipPath1)" fill="none" x1="440" x2="465" y1="410" y2="131" shape-rendering="auto"/>
<rect x="463" y="129" clip-path="url(#clipPath1)" width="5" shape-rendering="auto" height="5" stroke="none"/>
<line clip-path="url(#clipPath1)" fill="none" x1="465" x2="465" y1="131" y2="410"/>
<rect x="463" y="408" clip-path="url(#clipPath1)" width="5" shape-rendering="auto" height="5" stroke="none"/>
<line clip-path="url(#clipPath1)" fill="none" x1="465" x2="480" y1="410" y2="131" shape-rendering="auto"/>
<rect x="478" y="129" clip-path="url(#clipPath1)" width="5" shape-rendering="auto" height="5" stroke="none"/>
<line clip-path="url(#clipPath1)" fill="none" x1="480" x2="480" y1="131" y2="410"/>
<rect x="478" y="408" clip-path="url(#clipPath1)" width="5" shape-rendering="auto" height="5" stroke="none"/>
<line clip-path="url(#clipPath1)" fill="none" x1="480" x2="503" y1="410" y2="131" shape-rendering="auto"/>
<rect x="501" y="129" clip-path="url(#clipPath1)" width="5" shape-rendering="auto" height="5" stroke="none"/>
<line clip-path="url(#clipPath1)" fill="none" x1="503" x2="503" y1="131" y2="410"/>
<rect x="501" y="408" clip-path="url(#clipPath1)" width="5" shape-rendering="auto" height="5" stroke="none"/>
<line clip-path="url(#clipPath1)" fill="none" x1="503" x2="525" y1="410" y2="131" shape-rendering="auto"/>
<rect x="523" y="129" clip-path="url(#clipPath1)" width="5" shape-rendering="auto" height="5" stroke="none"/>
<line clip-path="url(#clipPath1)" fill="none" x1="525" x2="525" y1="131" y2="410"/>
<rect x="523" y="408" clip-path="url(#clipPath1)" width="5" shape-rendering="auto" height="5" stroke="none"/>
<line clip-path="url(#clipPath1)" fill="none" x1="525" x2="550" y1="410" y2="131" shape-rendering="auto"/>
<rect x="548" y="129" clip-path="url(#clipPath1)" width="5" shape-rendering="auto" height="5" stroke="none"/>
<line clip-path="url(#clipPath1)" fill="none" x1="550" x2="550" y1="131" y2="410"/>
<rect x="548" y="408" clip-path="url(#clipPath1)" width="5" shape-rendering="auto" height="5" stroke="none"/>
<line clip-path="url(#clipPath1)" fill="none" x1="550" x2="569" y1="410" y2="131" shape-rendering="auto"/>
<rect x="567" y="129" clip-path="url(#clipPath1)" width="5" shape-rendering="auto" height="5" stroke="none"/>
<line clip-path="url(#clipPath1)" fill="none" x1="569" x2="569" y1="131" y2="410"/>
<rect x="567" y="408" clip-path="url(#clipPath1)" width="5" shape-rendering="auto" height="5" stroke="none"/>
<line clip-path="url(#clipPath1)" fill="none" x1="569" x2="589" y1="410" y2="131" shape-rendering="auto"/>
<rect x="587" y="129" clip-path="url(#clipPath1)" width="5" shape-rendering="auto" height="5" stroke="none"/>
<line clip-path="url(#clipPath1)" fill="none" x1="589" x2="589" y1="131" y2="410"/>
<rect x="587" y="408" clip-path="url(#clipPath1)" width="5" shape-rendering="auto" height="5" stroke="none"/>
<line clip-path="url(#clipPath1)" fill="none" x1="589" x2="605" y1="410" y2="131" shape-rendering="auto"/>
<rect x="603" y="129" clip-path="url(#clipPath1)" width="5" shape-rendering="auto" height="5" stroke="none"/>
<line clip-path="url(#clipPath1)" fill="none" x1="605" x2="605" y1="131" y2="410"/>
<rect x="603" y="408" clip-path="url(#clipPath1)" width="5" shape-rendering="auto" height="5" stroke="none"/>
<line clip-path="url(#clipPath1)" fill="none" x1="605" x2="628" y1="410" y2="131" shape-rendering="auto"/>
<rect x="626" y="129" clip-path="url(#clipPath1)" width="5" shape-rendering="auto" height="5" stroke="none"/>
<line clip-path="url(#clipPath1)" fill="none" x1="628" x2="628" y1="131" y2="410"/>
<rect x="626" y="408" clip-path="url(#clipPath1)" width="5" shape-rendering="auto" height="5" stroke="none"/>
<line clip-path="url(#clipPath1)" fill="none" x1="628" x2="654" y1="410" y2="131" shape-rendering="auto"/>
<rect x="652" y="129" clip-path="url(#clipPath1)" width="5" shape-rendering="auto" height="5" stroke="none"/>
<line clip-path="url(#clipPath1)" fill="none" x1="654" x2="654" y1="131" y2="410"/>
<rect x="652" y="408" clip-path="url(#clipPath1)" width="5" shape-rendering="auto" height="5" stroke="none"/>
<line clip-path="url(#clipPath1)" fill="none" x1="654" x2="673" y1="410" y2="131" shape-rendering="auto"/>
<rect x="671" y="129" clip-path="url(#clipPath1)" width="5" shape-rendering="auto" height="5" stroke="none"/>
<line clip-path="url(#clipPath1)" fill="none" x1="673" x2="673" y1="131" y2="410"/>
<rect x="671" y="408" clip-path="url(#clipPath1)" width="5" shape-rendering="auto" height="5" stroke="none"/>
<circle clip-path="url(#clipPath1)" fill="rgb(238,0,0)" shape-rendering="auto" r="2" cx="77" cy="131" stroke="none"/>
<line clip-path="url(#clipPath1)" fill="none" x1="77" x2="77" y1="131" y2="410" stroke="rgb(238,0,0)"/>
<circle clip-path="url(#clipPath1)" fill="rgb(238,0,0)" shape-rendering="auto" r="2" cx="77" cy="410" stroke="none"/>
<line clip-path="url(#clipPath1)" fill="none" x1="77" x2="96" y1="410" y2="131" shape-rendering="auto" stroke="rgb(238,0,0)"/>
<circle clip-path="url(#clipPath1)" fill="rgb(238,0,0)" shape-rendering="auto" r="2" cx="96" cy="131" stroke="none"/>
<line clip-path="url(#clipPath1)" fill="none" x1="96" x2="96" y1="131" y2="410" stroke="rgb(238,0,0)"/>
<circle clip-path="url(#clipPath1)" fill="rgb(238,0,0)" shape-rendering="auto" r="2" cx="96" cy="410" stroke="none"/>
<line clip-path="url(#clipPath1)" fill="none" x1="96" x2="121" y1="410" y2="131" shape-rendering="auto" stroke="rgb(238,0,0)"/>
<circle clip-path="url(#clipPath1)" fill="rgb(238,0,0)" shape-rendering="auto" r="2" cx="121" cy="131" stroke="none"/>
<line clip-path="url(#clipPath1)" fill="none" x1="121" x2="121" y1="131" y2="410" stroke="rgb(238,0,0)"/>
<circle clip-path="url(#clipPath1)" fill="rgb(238,0,0)" shape-rendering="auto" r="2" cx="121" cy="410" stroke="none"/>
<line clip-path="url(#clipPath1)" fill="none" x1="121" x2="139" y1="410" y2="131" shape-rendering="auto" stroke="rgb(238,0,0)"/>
<circle clip-path="url(#clipPath1)" fill="rgb(238,0,0)" shape-rendering="auto" r="2" cx="139" cy="131" stroke="none"/>
<line clip-path="url(#clipPath1)" fill="none" x1="139" x2="139" y1="131" y2="410" stroke="rgb(238,0,0)"/>
<circle clip-path="url(#clipPath1)" fill="rgb(238,0,0)" shape-rendering="auto" r="2" cx="139" cy="410" stroke="none"/>
<line clip-path="url(#clipPath1)" fill="none" x1="139" x2="161" y1="410" y2="131" shape-rendering="auto" stroke="rgb(238,0,0)"/>
<circle clip-path="url(#clipPath1)" fill="rgb(238,0,0)" shape-rendering="auto" r="2" cx="161" cy="131" stroke="none"/>
<line clip-path="url(#clipPath1)" fill="none" x1="161" x2="161" y1="131" y2="410" stroke="rgb(238,0,0)"/>
<circle clip-path="url(#clipPath1)" fill="rgb(238,0,0)" shape-rendering="auto" r="2" cx="161" cy="410" stroke="none"/>
<line clip-path="url(#clipPath1)" fill="none" x1="161" x2="176" y1="410" y2="131" shape-rendering="auto" stroke="rgb(238,0,0)"/>
<circle clip-path="url(#clipPath1)" fill="rgb(238,0,0)" shape-rendering="auto" r="2" cx="176" cy="131" stroke="none"/>
<line clip-path="url(#clipPath1)" fill="none" x1="176" x2="176" y1="131" y2="410" stroke="rgb(238,0,0)"/>
<circle clip-path="url(#clipPath1)" fill="rgb(238,0,0)" shape-rendering="auto" r="2" cx="176" cy="410" stroke="none"/>
<line clip-path="url(#clipPath1)" fill="none" x1="176" x2="196" y1="410" y2="131" shape-rendering="auto" stroke="rgb(238,0,0)"/>
<circle clip-path="url(#clipPath1)" fill="rgb(238,0,0)" shape-rendering="auto" r="2" cx="196" cy="131" stroke="none"/>
<line clip-path="url(#clipPath1)" fill="none" x1="196" x2="196" y1="131" y2="410" stroke="rgb(238,0,0)"/>
<circle clip-path="url(#clipPath1)" fill="rgb(238,0,0)" shape-rendering="auto" r="2" cx="196" cy="410" stroke="none"/>
<line clip-path="url(#clipPath1)" fill="none" x1="196" x2="211" y1="410" y2="131" shape-rendering="auto" stroke="rgb(238,0,0)"/>
<circle clip-path="url(#clipPath1)" fill="rgb(238,0,0)" shape-rendering="auto" r="2" cx="211" cy="131" stroke="none"/>
<line clip-path="url(#clipPath1)" fill="none" x1="211" x2="211" y1="131" y2="410" stroke="rgb(238,0,0)"/>
<circle clip-path="url(#clipPath1)" fill="rgb(238,0,0)" shape-rendering="auto" r="2" cx="211" cy="410" stroke="none"/>
<line clip-path="url(#clipPath1)" fill="none" x1="211" x2="229" y1="410" y2="131" shape-rendering="auto" stroke="rgb(238,0,0)"/>
<circle clip-path="url(#clipPath1)" fill="rgb(238,0,0)" shape-rendering="auto" r="2" cx="229" cy="131" stroke="none"/>
<line clip-path="url(#clipPath1)" fill="none" x1="229" x2="229" y1="131" y2="410" stroke="rgb(238,0,0)"/>
<circle clip-path="url(#clipPath1)" fill="rgb(238,0,0)" shape-rendering="auto" r="2" cx="229" cy="410" stroke="none"/>
<line clip-path="url(#clipPath1)" fill="none" x1="229" x2="254" y1="410" y2="131" shape-rendering="auto" stroke="rgb(238,0,0)"/>
<circle clip-path="url(#clipPath1)" fill="rgb(238,0,0)" shape-rendering="auto" r="2" cx="254" cy="131" stroke="none"/>
<line clip-path="url(#clipPath1)" fill="none" x1="254" x2="254" y1="131" y2="410" stroke="rgb(238,0,0)"/>
<circle clip-path="url(#clipPath1)" fill="rgb(238,0,0)" shape-rendering="auto" r="2" cx="254" cy="410" stroke="none"/>
<line clip-path="url(#clipPath1)" fill="none" x1="254" x2="278" y1="410" y2="131" shape-rendering="auto" stroke="rgb(238,0,0)"/>
<circle clip-path="url(#clipPath1)" fill="rgb(238,0,0)" shape-rendering="auto" r="2" cx="278" cy="131" stroke="none"/>
<line clip-path="url(#clipPath1)" fill="none" x1="278" x2="278" y1="131" y2="410" stroke="rgb(238,0,0)"/>
<circle clip-path="url(#clipPath1)" fill="rgb(238,0,0)" shape-rendering="auto" r="2" cx="278" cy="410" stroke="none"/>
<line clip-path="url(#clipPath1)" fill="none" x1="278" x2="301" y1="410" y2="131" shape-rendering="auto" stroke="rgb(238,0,0)"/>
<circle clip-path="url(#clipPath1)" fill="rgb(238,0,0)" shape-rendering="auto" r="2" cx="301" cy="131" stroke="none"/>
<line clip-path="url(#clipPath1)" fill="none" x1="301" x2="301" y1="131" y2="410" stroke="rgb(238,0,0)"/>
<circle clip-path="url(#clipPath1)" fill="rgb(238,0,0)" shape-rendering="auto" r="2" cx="301" cy="410" stroke="none"/>
<line clip-path="url(#clipPath1)" fill="none" x1="301" x2="322" y1="410" y2="131" shape-rendering="auto" stroke="rgb(238,0,0)"/>
<circle clip-path="url(#clipPath1)" fill="rgb(238,0,0)" shape-rendering="auto" r="2" cx="322" cy="131" stroke="none"/>
<line clip-path="url(#clipPath1)" fill="none" x1="322" x2="322" y1="131" y2="410" stroke="rgb(238,0,0)"/>
<circle clip-path="url(#clipPath1)" fill="rgb(238,0,0)" shape-rendering="auto" r="2" cx="322" cy="410" stroke="none"/>
<line clip-path="url(#clipPath1)" fill="none" x1="322" x2="347" y1="410" y2="131" shape-rendering="auto" stroke="rgb(238,0,0)"/>
<circle clip-path="url(#clipPath1)" fill="rgb(238,0,0)" shape-rendering="auto" r="2" cx="347" cy="131" stroke="none"/>
<line clip-path="url(#clipPath1)" fill="none" x1="347" x2="347" y1="131" y2="410" stroke="rgb(238,0,0)"/>
<circle clip-path="url(#clipPath1)" fill="rgb(238,0,0)" shape-rendering="auto" r="2" cx="347" cy="410" stroke="none"/>
<line clip-path="url(#clipPath1)" fill="none" x1="347" x2="364" y1="410" y2="131" shape-rendering="auto" stroke="rgb(238,0,0)"/>
<circle clip-path="url(#clipPath1)" fill="rgb(238,0,0)" shape-rendering="auto" r="2" cx="364" cy="131" stroke="none"/>
<line clip-path="url(#clipPath1)" fill="none" x1="364" x2="364" y1="131" y2="410" stroke="rgb(238,0,0)"/>
<circle clip-path="url(#clipPath1)" fill="rgb(238,0,0)" shape-rendering="auto" r="2" cx="364" cy="410" stroke="none"/>
<line clip-path="url(#clipPath1)" fill="none" x1="364" x2="381" y1="410" y2="131" shape-rendering="auto" stroke="rgb(238,0,0)"/>
<circle clip-path="url(#clipPath1)" fill="rgb(238,0,0)" shape-rendering="auto" r="2" cx="381" cy="131" stroke="none"/>
<line clip-path="url(#clipPath1)" fill="none" x1="381" x2="381" y1="131" y2="410" stroke="rgb(238,0,0)"/>
<circle clip-path="url(#clipPath1)" fill="rgb(238,0,0)" shape-rendering="auto" r="2" cx="381" cy="410" stroke="none"/>
<line clip-path="url(#clipPath1)" fill="none" x1="381" x2="400" y1="410" y2="131" shape-rendering="auto" stroke="rgb(238,0,0)"/>
<circle clip-path="url(#clipPath1)" fill="rgb(238,0,0)" shape-rendering="auto" r="2" cx="400" cy="131" stroke="none"/>
<line clip-path="url(#clipPath1)" fill="none" x1="400" x2="400" y1="131" y2="410" stroke="rgb(238,0,0)"/>
<circle clip-path="url(#clipPath1)" fill="rgb(238,0,0)" shape-rendering="auto" r="2" cx="400" cy="410" stroke="none"/>
<line clip-path="url(#clipPath1)" fill="none" x1="400" x2="418" y1="410" y2="131" shape-rendering="auto" stroke="rgb(238,0,0)"/>
<circle clip-path="url(#clipPath1)" fill="rgb(238,0,0)" shape-rendering="auto" r="2" cx="418" cy="131" stroke="none"/>
<line clip-path="url(#clipPath1)" fill="none" x1="418" x2="418" y1="131" y2="410" stroke="rgb(238,0,0)"/>
<circle clip-path="url(#clipPath1)" fill="rgb(238,0,0)" shape-rendering="auto" r="2" cx="418" cy="410" stroke="none"/>
<line clip-path="url(#clipPath1)" fill="none" x1="418" x2="440" y1="410" y2="131" shape-rendering="auto" stroke="rgb(238,0,0)"/>
<circle clip-path="url(#clipPath1)" fill="rgb(238,0,0)" shape-rendering="auto" r="2" cx="440" cy="131" stroke="none"/>
<line clip-path="url(#clipPath1)" fill="none" x1="440" x2="440" y1="131" y2="410" stroke="rgb(238,0,0)"/>
<circle clip-path="url(#clipPath1)" fill="rgb(238,0,0)" shape-rendering="auto" r="2" cx="440" cy="410" stroke="none"/>
<line clip-path="url(#clipPath1)" fill="none" x1="440" x2="465" y1="410" y2="131" shape-rendering="auto" stroke="rgb(238,0,0)"/>
<circle clip-path="url(#clipPath1)" fill="rgb(238,0,0)" shape-rendering="auto" r="2" cx="465" cy="131" stroke="none"/>
<line clip-path="url(#clipPath1)" fill="none" x1="465" x2="465" y1="131" y2="410" stroke="rgb(238,0,0)"/>
<circle clip-path="url(#clipPath1)" fill="rgb(238,0,0)" shape-rendering="auto" r="2" cx="465" cy="410" stroke="none"/>
<line clip-path="url(#clipPath1)" fill="none" x1="465" x2="480" y1="410" y2="131" shape-rendering="auto" stroke="rgb(238,0,0)"/>
<circle clip-path="url(#clipPath1)" fill="rgb(238,0,0)" shape-rendering="auto" r="2" cx="480" cy="131" stroke="none"/>
<line clip-path="url(#clipPath1)" fill="none" x1="480" x2="480" y1="131" y2="410" stroke="rgb(238,0,0)"/>
<circle clip-path="url(#clipPath1)" fill="rgb(238,0,0)" shape-rendering="auto" r="2" cx="480" cy="410" stroke="none"/>
<line clip-path="url(#clipPath1)" fill="none" x1="480" x2="503" y1="410" y2="131" shape-rendering="auto" stroke="rgb(238,0,0)"/>
<circle clip-path="url(#clipPath1)" fill="rgb(238,0,0)" shape-rendering="auto" r="2" cx="503" cy="131" stroke="none"/>
<line clip-path="url(#clipPath1)" fill="none" x1="503" x2="503" y1="131" y2="410" stroke="rgb(238,0,0)"/>
<circle clip-path="url(#clipPath1)" fill="rgb(238,0,0)" shape-rendering="auto" r="2" cx="503" cy="410" stroke="none"/>
<line clip-path="url(#clipPath1)" fill="none" x1="503" x2="525" y1="410" y2="131" shape-rendering="auto" stroke="rgb(238,0,0)"/>
<circle clip-path="url(#clipPath1)" fill="rgb(238,0,0)" shape-rendering="auto" r="2" cx="525" cy="131" stroke="none"/>
<line clip-path="url(#clipPath1)" fill="none" x1="525" x2="525" y1="131" y2="410" stroke="rgb(238,0,0)"/>
<circle clip-path="url(#clipPath1)" fill="rgb(238,0,0)" shape-rendering="auto" r="2" cx="525" cy="410" stroke="none"/>
<line clip-path="url(#clipPath1)" fill="none" x1="525" x2="549" y1="410" y2="131" shape-rendering="auto" stroke="rgb(238,0,0)"/>
<circle clip-path="url(#clipPath1)" fill="rgb(238,0,0)" shape-rendering="auto" r="2" cx="549" cy="131" stroke="none"/>
<line clip-path="url(#clipPath1)" fill="none" x1="549" x2="549" y1="131" y2="410" stroke="rgb(238,0,0)"/>
<circle clip-path="url(#clipPath1)" fill="rgb(238,0,0)" shape-rendering="auto" r="2" cx="549" cy="410" stroke="none"/>
<line clip-path="url(#clipPath1)" fill="none" x1="549" x2="569" y1="410" y2="131" shape-rendering="auto" stroke="rgb(238,0,0)"/>
<circle clip-path="url(#clipPath1)" fill="rgb(238,0,0)" shape-rendering="auto" r="2" cx="569" cy="131" stroke="none"/>
<line clip-path="url(#clipPath1)" fill="none" x1="569" x2="569" y1="131" y2="410" stroke="rgb(238,0,0)"/>
<circle clip-path="url(#clipPath1)" fill="rgb(238,0,0)" shape-rendering="auto" r="2" cx="569" cy="410" stroke="none"/>
<line clip-path="url(#clipPath1)" fill="none" x1="569" x2="589" y1="410" y2="131" shape-rendering="auto" stroke="rgb(238,0,0)"/>
<circle clip-path="url(#clipPath1)" fill="rgb(238,0,0)" shape-rendering="auto" r="2" cx="589" cy="131" stroke="none"/>
<line clip-path="url(#clipPath1)" fill="none" x1="589" x2="589" y1="131" y2="410" stroke="rgb(238,0,0)"/>
<circle clip-path="url(#clipPath1)" fill="rgb(238,0,0)" shape-rendering="auto" r="2" cx="589" cy="410" stroke="none"/>
<line clip-path="url(#clipPath1)" fill="none" x1="589" x2="605" y1="410" y2="131" shape-rendering="auto" stroke="rgb(238,0,0)"/>
<circle clip-path="url(#clipPath1)" fill="rgb(238,0,0)" shape-rendering="auto" r="2" cx="605" cy="131" stroke="none"/>
<line clip-path="url(#clipPath1)" fill="none" x1="605" x2="605" y1="131" y2="410" stroke="rgb(238,0,0)"/>
<circle clip-path="url(#clipPath1)" fill="rgb(238,0,0)" shape-rendering="auto" r="2" cx="605" cy="410" stroke="none"/>
<line clip-path="url(#clipPath1)" fill="none" x1="605" x2="628" y1="410" y2="131" shape-rendering="auto" stroke="rgb(238,0,0)"/>
<circle clip-path="url(#clipPath1)" fill="rgb(238,0,0)" shape-rendering="auto" r="2" cx="628" cy="131" stroke="none"/>
<line clip-path="url(#clipPath1)" fill="none" x1="628" x2="628" y1="131" y2="410" stroke="rgb(238,0,0)"/>
<circle clip-path="url(#clipPath1)" fill="rgb(238,0,0)" shape-rendering="auto" r="2" cx="628" cy="410" stroke="none"/>
<line clip-path="url(#clipPath1)" fill="none" x1="628" x2="654" y1="410" y2="131" shape-rendering="auto" stroke="rgb(238,0,0)"/>
<circle clip-path="url(#clipPath1)" fill="rgb(238,0,0)" shape-rendering="auto" r="2" cx="654" cy="131" stroke="none"/>
<line clip-path="url(#clipPath1)" fill="none" x1="654" x2="654" y1="131" y2="410" stroke="rgb(238,0,0)"/>
<circle clip-path="url(#clipPath1)" fill="rgb(238,0,0)" shape-rendering="auto" r="2" cx="654" cy="410" stroke="none"/>
<line clip-path="url(#clipPath1)" fill="none" x1="654" x2="673" y1="410" y2="131" shape-rendering="auto" stroke="rgb(238,0,0)"/>
<circle clip-path="url(#clipPath1)" fill="rgb(238,0,0)" shape-rendering="auto" r="2" cx="673" cy="131" stroke="none"/>
<line clip-path="url(#clipPath1)" fill="none" x1="673" x2="673" y1="131" y2="410" stroke="rgb(238,0,0)"/>
<circle clip-path="url(#clipPath1)" fill="rgb(238,0,0)" shape-rendering="auto" r="2" cx="673" cy="410" stroke="none"/>
<rect x="32" y="38" clip-path="url(#clipPath2)" fill="none" width="650" shape-rendering="auto" height="372" stroke="black"/>
</g>
<g text-rendering="geometricPrecision" font-size="13" stroke-linecap="butt">
<text xml:space="preserve" x="241" y="13" clip-path="url(#clipPath2)" stroke="none">SubstationHSR.MU1.endNodeSwitch</text>
<rect x="140" y="438" clip-path="url(#clipPath3)" fill="white" width="433" height="23" stroke="none"/>
<line clip-path="url(#clipPath3)" fill="none" x1="146" x2="160" y1="449" y2="449" stroke="rgb(0,0,139)"/>
<rect x="150" y="446" clip-path="url(#clipPath3)" fill="rgb(0,0,139)" width="7" height="7" stroke="none"/>
<text x="162" font-size="11" y="454" clip-path="url(#clipPath3)" stroke="none" xml:space="preserve">A: QueueSize EXPRESS from Ring</text>
<line clip-path="url(#clipPath3)" fill="none" x1="362" x2="376" y1="449" y2="449" stroke="rgb(238,0,0)"/>
<circle clip-path="url(#clipPath3)" fill="rgb(238,0,0)" r="3" cx="369" cy="449" stroke="none"/>
<text x="378" font-size="11" y="454" clip-path="url(#clipPath3)" stroke="none" xml:space="preserve">B: QueueSize EXPRESS from Ring</text>
<line clip-path="url(#clipPath2)" fill="none" x1="32" x2="682" y1="36" y2="36"/>
<line clip-path="url(#clipPath2)" fill="none" x1="32" x2="682" y1="412" y2="412"/>
<line clip-path="url(#clipPath2)" fill="none" x1="32" x2="32" y1="32" y2="36"/>
<line clip-path="url(#clipPath2)" fill="none" x1="32" x2="32" y1="416" y2="412"/>
<text x="24" font-size="11" y="29" clip-path="url(#clipPath2)" stroke="none" xml:space="preserve">0.0</text>
<text x="24" font-size="11" y="428" clip-path="url(#clipPath2)" stroke="none" xml:space="preserve">0.0</text>
<line clip-path="url(#clipPath2)" fill="none" x1="45" x2="45" y1="34" y2="36"/>
<line clip-path="url(#clipPath2)" fill="none" x1="45" x2="45" y1="414" y2="412"/>
<line clip-path="url(#clipPath2)" fill="none" x1="58" x2="58" y1="34" y2="36"/>
<line clip-path="url(#clipPath2)" fill="none" x1="58" x2="58" y1="414" y2="412"/>
<line clip-path="url(#clipPath2)" fill="none" x1="71" x2="71" y1="34" y2="36"/>
<line clip-path="url(#clipPath2)" fill="none" x1="71" x2="71" y1="414" y2="412"/>
<line clip-path="url(#clipPath2)" fill="none" x1="84" x2="84" y1="34" y2="36"/>
<line clip-path="url(#clipPath2)" fill="none" x1="84" x2="84" y1="414" y2="412"/>
<line clip-path="url(#clipPath2)" fill="none" x1="97" x2="97" y1="32" y2="36"/>
<line clip-path="url(#clipPath2)" fill="none" x1="97" x2="97" y1="416" y2="412"/>
<text x="86" font-size="11" y="29" clip-path="url(#clipPath2)" stroke="none" xml:space="preserve">0.05</text>
<text x="86" font-size="11" y="428" clip-path="url(#clipPath2)" stroke="none" xml:space="preserve">0.05</text>
<line clip-path="url(#clipPath2)" fill="none" x1="111" x2="111" y1="34" y2="36"/>
<line clip-path="url(#clipPath2)" fill="none" x1="111" x2="111" y1="414" y2="412"/>
<line clip-path="url(#clipPath2)" fill="none" x1="124" x2="124" y1="34" y2="36"/>
<line clip-path="url(#clipPath2)" fill="none" x1="124" x2="124" y1="414" y2="412"/>
<line clip-path="url(#clipPath2)" fill="none" x1="137" x2="137" y1="34" y2="36"/>
<line clip-path="url(#clipPath2)" fill="none" x1="137" x2="137" y1="414" y2="412"/>
<line clip-path="url(#clipPath2)" fill="none" x1="150" x2="150" y1="34" y2="36"/>
<line clip-path="url(#clipPath2)" fill="none" x1="150" x2="150" y1="414" y2="412"/>
<line clip-path="url(#clipPath2)" fill="none" x1="163" x2="163" y1="32" y2="36"/>
<line clip-path="url(#clipPath2)" fill="none" x1="163" x2="163" y1="416" y2="412"/>
<text x="152" font-size="11" y="29" clip-path="url(#clipPath2)" stroke="none" xml:space="preserve">0.10</text>
<text x="152" font-size="11" y="428" clip-path="url(#clipPath2)" stroke="none" xml:space="preserve">0.10</text>
<line clip-path="url(#clipPath2)" fill="none" x1="176" x2="176" y1="34" y2="36"/>
<line clip-path="url(#clipPath2)" fill="none" x1="176" x2="176" y1="414" y2="412"/>
<line clip-path="url(#clipPath2)" fill="none" x1="190" x2="190" y1="34" y2="36"/>
<line clip-path="url(#clipPath2)" fill="none" x1="190" x2="190" y1="414" y2="412"/>
<line clip-path="url(#clipPath2)" fill="none" x1="203" x2="203" y1="34" y2="36"/>
<line clip-path="url(#clipPath2)" fill="none" x1="203" x2="203" y1="414" y2="412"/>
<line clip-path="url(#clipPath2)" fill="none" x1="216" x2="216" y1="34" y2="36"/>
<line clip-path="url(#clipPath2)" fill="none" x1="216" x2="216" y1="414" y2="412"/>
<line clip-path="url(#clipPath2)" fill="none" x1="229" x2="229" y1="32" y2="36"/>
<line clip-path="url(#clipPath2)" fill="none" x1="229" x2="229" y1="416" y2="412"/>
<text x="218" font-size="11" y="29" clip-path="url(#clipPath2)" stroke="none" xml:space="preserve">0.15</text>
<text x="218" font-size="11" y="428" clip-path="url(#clipPath2)" stroke="none" xml:space="preserve">0.15</text>
<line clip-path="url(#clipPath2)" fill="none" x1="242" x2="242" y1="34" y2="36"/>
<line clip-path="url(#clipPath2)" fill="none" x1="242" x2="242" y1="414" y2="412"/>
<line clip-path="url(#clipPath2)" fill="none" x1="256" x2="256" y1="34" y2="36"/>
<line clip-path="url(#clipPath2)" fill="none" x1="256" x2="256" y1="414" y2="412"/>
<line clip-path="url(#clipPath2)" fill="none" x1="269" x2="269" y1="34" y2="36"/>
<line clip-path="url(#clipPath2)" fill="none" x1="269" x2="269" y1="414" y2="412"/>
<line clip-path="url(#clipPath2)" fill="none" x1="282" x2="282" y1="34" y2="36"/>
<line clip-path="url(#clipPath2)" fill="none" x1="282" x2="282" y1="414" y2="412"/>
<line clip-path="url(#clipPath2)" fill="none" x1="295" x2="295" y1="32" y2="36"/>
<line clip-path="url(#clipPath2)" fill="none" x1="295" x2="295" y1="416" y2="412"/>
<text x="284" font-size="11" y="29" clip-path="url(#clipPath2)" stroke="none" xml:space="preserve">0.20</text>
<text x="284" font-size="11" y="428" clip-path="url(#clipPath2)" stroke="none" xml:space="preserve">0.20</text>
<line clip-path="url(#clipPath2)" fill="none" x1="308" x2="308" y1="34" y2="36"/>
<line clip-path="url(#clipPath2)" fill="none" x1="308" x2="308" y1="414" y2="412"/>
<line clip-path="url(#clipPath2)" fill="none" x1="321" x2="321" y1="34" y2="36"/>
<line clip-path="url(#clipPath2)" fill="none" x1="321" x2="321" y1="414" y2="412"/>
<line clip-path="url(#clipPath2)" fill="none" x1="335" x2="335" y1="34" y2="36"/>
<line clip-path="url(#clipPath2)" fill="none" x1="335" x2="335" y1="414" y2="412"/>
<line clip-path="url(#clipPath2)" fill="none" x1="348" x2="348" y1="34" y2="36"/>
<line clip-path="url(#clipPath2)" fill="none" x1="348" x2="348" y1="414" y2="412"/>
<line clip-path="url(#clipPath2)" fill="none" x1="361" x2="361" y1="32" y2="36"/>
<line clip-path="url(#clipPath2)" fill="none" x1="361" x2="361" y1="416" y2="412"/>
<text x="350" font-size="11" y="29" clip-path="url(#clipPath2)" stroke="none" xml:space="preserve">0.25</text>
<text x="350" font-size="11" y="428" clip-path="url(#clipPath2)" stroke="none" xml:space="preserve">0.25</text>
<line clip-path="url(#clipPath2)" fill="none" x1="374" x2="374" y1="34" y2="36"/>
<line clip-path="url(#clipPath2)" fill="none" x1="374" x2="374" y1="414" y2="412"/>
<line clip-path="url(#clipPath2)" fill="none" x1="387" x2="387" y1="34" y2="36"/>
<line clip-path="url(#clipPath2)" fill="none" x1="387" x2="387" y1="414" y2="412"/>
<line clip-path="url(#clipPath2)" fill="none" x1="401" x2="401" y1="34" y2="36"/>
<line clip-path="url(#clipPath2)" fill="none" x1="401" x2="401" y1="414" y2="412"/>
<line clip-path="url(#clipPath2)" fill="none" x1="414" x2="414" y1="34" y2="36"/>
<line clip-path="url(#clipPath2)" fill="none" x1="414" x2="414" y1="414" y2="412"/>
<line clip-path="url(#clipPath2)" fill="none" x1="427" x2="427" y1="32" y2="36"/>
<line clip-path="url(#clipPath2)" fill="none" x1="427" x2="427" y1="416" y2="412"/>
<text x="416" font-size="11" y="29" clip-path="url(#clipPath2)" stroke="none" xml:space="preserve">0.30</text>
<text x="416" font-size="11" y="428" clip-path="url(#clipPath2)" stroke="none" xml:space="preserve">0.30</text>
<line clip-path="url(#clipPath2)" fill="none" x1="440" x2="440" y1="34" y2="36"/>
<line clip-path="url(#clipPath2)" fill="none" x1="440" x2="440" y1="414" y2="412"/>
<line clip-path="url(#clipPath2)" fill="none" x1="453" x2="453" y1="34" y2="36"/>
<line clip-path="url(#clipPath2)" fill="none" x1="453" x2="453" y1="414" y2="412"/>
<line clip-path="url(#clipPath2)" fill="none" x1="466" x2="466" y1="34" y2="36"/>
<line clip-path="url(#clipPath2)" fill="none" x1="466" x2="466" y1="414" y2="412"/>
<line clip-path="url(#clipPath2)" fill="none" x1="480" x2="480" y1="34" y2="36"/>
<line clip-path="url(#clipPath2)" fill="none" x1="480" x2="480" y1="414" y2="412"/>
<line clip-path="url(#clipPath2)" fill="none" x1="493" x2="493" y1="32" y2="36"/>
<line clip-path="url(#clipPath2)" fill="none" x1="493" x2="493" y1="416" y2="412"/>
<text x="482" font-size="11" y="29" clip-path="url(#clipPath2)" stroke="none" xml:space="preserve">0.35</text>
<text x="482" font-size="11" y="428" clip-path="url(#clipPath2)" stroke="none" xml:space="preserve">0.35</text>
<line clip-path="url(#clipPath2)" fill="none" x1="506" x2="506" y1="34" y2="36"/>
<line clip-path="url(#clipPath2)" fill="none" x1="506" x2="506" y1="414" y2="412"/>
<line clip-path="url(#clipPath2)" fill="none" x1="519" x2="519" y1="34" y2="36"/>
<line clip-path="url(#clipPath2)" fill="none" x1="519" x2="519" y1="414" y2="412"/>
<line clip-path="url(#clipPath2)" fill="none" x1="532" x2="532" y1="34" y2="36"/>
<line clip-path="url(#clipPath2)" fill="none" x1="532" x2="532" y1="414" y2="412"/>
<line clip-path="url(#clipPath2)" fill="none" x1="546" x2="546" y1="34" y2="36"/>
<line clip-path="url(#clipPath2)" fill="none" x1="546" x2="546" y1="414" y2="412"/>
<line clip-path="url(#clipPath2)" fill="none" x1="559" x2="559" y1="32" y2="36"/>
<line clip-path="url(#clipPath2)" fill="none" x1="559" x2="559" y1="416" y2="412"/>
<text x="548" font-size="11" y="29" clip-path="url(#clipPath2)" stroke="none" xml:space="preserve">0.40</text>
<text x="548" font-size="11" y="428" clip-path="url(#clipPath2)" stroke="none" xml:space="preserve">0.40</text>
<line clip-path="url(#clipPath2)" fill="none" x1="572" x2="572" y1="34" y2="36"/>
<line clip-path="url(#clipPath2)" fill="none" x1="572" x2="572" y1="414" y2="412"/>
<line clip-path="url(#clipPath2)" fill="none" x1="585" x2="585" y1="34" y2="36"/>
<line clip-path="url(#clipPath2)" fill="none" x1="585" x2="585" y1="414" y2="412"/>
<line clip-path="url(#clipPath2)" fill="none" x1="598" x2="598" y1="34" y2="36"/>
<line clip-path="url(#clipPath2)" fill="none" x1="598" x2="598" y1="414" y2="412"/>
<line clip-path="url(#clipPath2)" fill="none" x1="611" x2="611" y1="34" y2="36"/>
<line clip-path="url(#clipPath2)" fill="none" x1="611" x2="611" y1="414" y2="412"/>
<line clip-path="url(#clipPath2)" fill="none" x1="625" x2="625" y1="32" y2="36"/>
<line clip-path="url(#clipPath2)" fill="none" x1="625" x2="625" y1="416" y2="412"/>
<text x="614" font-size="11" y="29" clip-path="url(#clipPath2)" stroke="none" xml:space="preserve">0.45</text>
<text x="614" font-size="11" y="428" clip-path="url(#clipPath2)" stroke="none" xml:space="preserve">0.45</text>
<line clip-path="url(#clipPath2)" fill="none" x1="638" x2="638" y1="34" y2="36"/>
<line clip-path="url(#clipPath2)" fill="none" x1="638" x2="638" y1="414" y2="412"/>
<line clip-path="url(#clipPath2)" fill="none" x1="651" x2="651" y1="34" y2="36"/>
<line clip-path="url(#clipPath2)" fill="none" x1="651" x2="651" y1="414" y2="412"/>
<line clip-path="url(#clipPath2)" fill="none" x1="664" x2="664" y1="34" y2="36"/>
<line clip-path="url(#clipPath2)" fill="none" x1="664" x2="664" y1="414" y2="412"/>
<line clip-path="url(#clipPath2)" fill="none" x1="677" x2="677" y1="34" y2="36"/>
<line clip-path="url(#clipPath2)" fill="none" x1="677" x2="677" y1="414" y2="412"/>
<line clip-path="url(#clipPath2)" fill="none" x1="30" x2="30" y1="38" y2="410"/>
<line clip-path="url(#clipPath2)" fill="none" x1="684" x2="684" y1="38" y2="410"/>
<line clip-path="url(#clipPath2)" fill="none" x1="26" x2="30" y1="410" y2="410"/>
<line clip-path="url(#clipPath2)" fill="none" x1="688" x2="684" y1="410" y2="410"/>
<text x="19" font-size="11" y="415" clip-path="url(#clipPath2)" stroke="none" xml:space="preserve">0</text>
<text x="691" font-size="11" y="415" clip-path="url(#clipPath2)" stroke="none" xml:space="preserve">0</text>
<line clip-path="url(#clipPath2)" fill="none" x1="28" x2="30" y1="382" y2="382"/>
<line clip-path="url(#clipPath2)" fill="none" x1="686" x2="684" y1="382" y2="382"/>
<line clip-path="url(#clipPath2)" fill="none" x1="26" x2="30" y1="354" y2="354"/>
<line clip-path="url(#clipPath2)" fill="none" x1="688" x2="684" y1="354" y2="354"/>
<text x="7" font-size="11" y="359" clip-path="url(#clipPath2)" stroke="none" xml:space="preserve">0.2</text>
<text x="691" font-size="11" y="359" clip-path="url(#clipPath2)" stroke="none" xml:space="preserve">0.2</text>
<line clip-path="url(#clipPath2)" fill="none" x1="28" x2="30" y1="326" y2="326"/>
<line clip-path="url(#clipPath2)" fill="none" x1="686" x2="684" y1="326" y2="326"/>
<line clip-path="url(#clipPath2)" fill="none" x1="26" x2="30" y1="298" y2="298"/>
<line clip-path="url(#clipPath2)" fill="none" x1="688" x2="684" y1="298" y2="298"/>
<text x="7" font-size="11" y="303" clip-path="url(#clipPath2)" stroke="none" xml:space="preserve">0.4</text>
<text x="691" font-size="11" y="303" clip-path="url(#clipPath2)" stroke="none" xml:space="preserve">0.4</text>
<line clip-path="url(#clipPath2)" fill="none" x1="28" x2="30" y1="270" y2="270"/>
<line clip-path="url(#clipPath2)" fill="none" x1="686" x2="684" y1="270" y2="270"/>
<line clip-path="url(#clipPath2)" fill="none" x1="26" x2="30" y1="242" y2="242"/>
<line clip-path="url(#clipPath2)" fill="none" x1="688" x2="684" y1="242" y2="242"/>
<text x="7" font-size="11" y="247" clip-path="url(#clipPath2)" stroke="none" xml:space="preserve">0.6</text>
<text x="691" font-size="11" y="247" clip-path="url(#clipPath2)" stroke="none" xml:space="preserve">0.6</text>
<line clip-path="url(#clipPath2)" fill="none" x1="28" x2="30" y1="214" y2="214"/>
<line clip-path="url(#clipPath2)" fill="none" x1="686" x2="684" y1="214" y2="214"/>
<line clip-path="url(#clipPath2)" fill="none" x1="26" x2="30" y1="186" y2="186"/>
<line clip-path="url(#clipPath2)" fill="none" x1="688" x2="684" y1="186" y2="186"/>
<text x="7" font-size="11" y="191" clip-path="url(#clipPath2)" stroke="none" xml:space="preserve">0.8</text>
<text x="691" font-size="11" y="191" clip-path="url(#clipPath2)" stroke="none" xml:space="preserve">0.8</text>
<line clip-path="url(#clipPath2)" fill="none" x1="28" x2="30" y1="158" y2="158"/>
<line clip-path="url(#clipPath2)" fill="none" x1="686" x2="684" y1="158" y2="158"/>
<line clip-path="url(#clipPath2)" fill="none" x1="26" x2="30" y1="131" y2="131"/>
<line clip-path="url(#clipPath2)" fill="none" x1="688" x2="684" y1="131" y2="131"/>
<text x="7" font-size="11" y="136" clip-path="url(#clipPath2)" stroke="none" xml:space="preserve">1.0</text>
<text x="691" font-size="11" y="136" clip-path="url(#clipPath2)" stroke="none" xml:space="preserve">1.0</text>
<line clip-path="url(#clipPath2)" fill="none" x1="28" x2="30" y1="103" y2="103"/>
<line clip-path="url(#clipPath2)" fill="none" x1="686" x2="684" y1="103" y2="103"/>
<line clip-path="url(#clipPath2)" fill="none" x1="26" x2="30" y1="75" y2="75"/>
<line clip-path="url(#clipPath2)" fill="none" x1="688" x2="684" y1="75" y2="75"/>
<text x="7" font-size="11" y="80" clip-path="url(#clipPath2)" stroke="none" xml:space="preserve">1.2</text>
<text x="691" font-size="11" y="80" clip-path="url(#clipPath2)" stroke="none" xml:space="preserve">1.2</text>
<line clip-path="url(#clipPath2)" fill="none" x1="28" x2="30" y1="47" y2="47"/>
<line clip-path="url(#clipPath2)" fill="none" x1="686" x2="684" y1="47" y2="47"/>
</g>
</g>
</svg>
