<?xml version="1.0" encoding="UTF-8"?><svg xmlns="http://www.w3.org/2000/svg" xmlns:xlink="http://www.w3.org/1999/xlink" stroke-dasharray="none" shape-rendering="auto" font-family="'Dialog'" width="701" text-rendering="auto" fill-opacity="1" contentScriptType="text/ecmascript" color-interpolation="auto" color-rendering="auto" preserveAspectRatio="xMidYMid meet" font-size="12" fill="black" stroke="black" image-rendering="auto" stroke-miterlimit="10" zoomAndPan="magnify" version="1.0" stroke-linecap="square" stroke-linejoin="miter" contentStyleType="text/css" font-style="normal" height="453" stroke-width="1" stroke-dashoffset="0" font-weight="normal" stroke-opacity="1">
<!--Generated by the Batik Graphics2D SVG Generator-->
<defs id="genericDefs"/>
<g>
<defs id="defs1">
<clipPath clipPathUnits="userSpaceOnUse" id="clipPath1">
<path d="M27 22 L674 22 L674 431 L27 431 L27 22 Z"/>
</clipPath>
<clipPath clipPathUnits="userSpaceOnUse" id="clipPath2">
<path d="M-1 -1 L702 -1 L702 454 L-1 454 L-1 -1 Z"/>
</clipPath>
</defs>
<g font-size="15" fill="white" text-rendering="geometricPrecision" font-family="'Cantarell'" stroke-linejoin="round" stroke="white" stroke-width="0" stroke-miterlimit="0">
<rect x="28" y="23" clip-path="url(#clipPath1)" width="645" height="407" stroke="none"/>
</g>
<g stroke-linecap="butt" font-size="15" fill="rgb(204,204,204)" text-rendering="geometricPrecision" font-family="'Cantarell'" stroke-dasharray="3,3" stroke="rgb(204,204,204)">
<line clip-path="url(#clipPath1)" fill="none" x1="28" x2="673" y1="430" y2="430"/>
<line clip-path="url(#clipPath1)" fill="none" x1="28" x2="673" y1="368" y2="368"/>
<line clip-path="url(#clipPath1)" fill="none" x1="28" x2="673" y1="305" y2="305"/>
<line clip-path="url(#clipPath1)" fill="none" x1="28" x2="673" y1="242" y2="242"/>
<line clip-path="url(#clipPath1)" fill="none" x1="28" x2="673" y1="180" y2="180"/>
<line clip-path="url(#clipPath1)" fill="none" x1="28" x2="673" y1="117" y2="117"/>
<line clip-path="url(#clipPath1)" fill="none" x1="28" x2="673" y1="54" y2="54"/>
<line clip-path="url(#clipPath1)" fill="none" x1="11" x2="15" y1="430" y2="430" stroke-dasharray="none" stroke="black"/>
<line clip-path="url(#clipPath1)" fill="none" x1="15" x2="19" y1="430" y2="430" stroke-dasharray="none" stroke="black"/>
<line clip-path="url(#clipPath1)" fill="none" x1="19" x2="23" y1="430" y2="430" stroke-dasharray="none" stroke="black"/>
<line clip-path="url(#clipPath1)" fill="none" x1="23" x2="28" y1="430" y2="430" stroke-dasharray="none" stroke="black"/>
<line clip-path="url(#clipPath1)" fill="none" x1="28" x2="32" y1="430" y2="430" stroke-dasharray="none" stroke="black"/>
<line clip-path="url(#clipPath1)" fill="none" x1="32" x2="36" y1="430" y2="430" stroke-dasharray="none" stroke="black"/>
<line clip-path="url(#clipPath1)" fill="none" x1="36" x2="40" y1="430" y2="430" stroke-dasharray="none" stroke="black"/>
<line clip-path="url(#clipPath1)" fill="none" x1="40" x2="45" y1="430" y2="430" stroke-dasharray="none" stroke="black"/>
<rect x="45" y="79" clip-path="url(#clipPath1)" fill="rgb(0,0,139)" width="4" stroke-dasharray="none" height="351" stroke="none"/>
<rect x="45" y="79" clip-path="url(#clipPath1)" fill="none" width="4" stroke-dasharray="none" height="351" stroke="black"/>
<line clip-path="url(#clipPath1)" fill="none" x1="49" x2="53" y1="430" y2="430" stroke-dasharray="none" stroke="black"/>
<line clip-path="url(#clipPath1)" fill="none" x1="53" x2="57" y1="430" y2="430" stroke-dasharray="none" stroke="black"/>
<line clip-path="url(#clipPath1)" fill="none" x1="57" x2="62" y1="430" y2="430" stroke-dasharray="none" stroke="black"/>
<line clip-path="url(#clipPath1)" fill="none" x1="62" x2="66" y1="430" y2="430" stroke-dasharray="none" stroke="black"/>
<line clip-path="url(#clipPath1)" fill="none" x1="66" x2="70" y1="430" y2="430" stroke-dasharray="none" stroke="black"/>
<line clip-path="url(#clipPath1)" fill="none" x1="70" x2="75" y1="430" y2="430" stroke-dasharray="none" stroke="black"/>
<line clip-path="url(#clipPath1)" fill="none" x1="75" x2="79" y1="430" y2="430" stroke-dasharray="none" stroke="black"/>
<line clip-path="url(#clipPath1)" fill="none" x1="79" x2="83" y1="430" y2="430" stroke-dasharray="none" stroke="black"/>
<line clip-path="url(#clipPath1)" fill="none" x1="83" x2="87" y1="430" y2="430" stroke-dasharray="none" stroke="black"/>
<line clip-path="url(#clipPath1)" fill="none" x1="87" x2="92" y1="430" y2="430" stroke-dasharray="none" stroke="black"/>
<line clip-path="url(#clipPath1)" fill="none" x1="92" x2="96" y1="430" y2="430" stroke-dasharray="none" stroke="black"/>
<rect x="96" y="424" clip-path="url(#clipPath1)" fill="rgb(0,0,139)" width="4" stroke-dasharray="none" height="6" stroke="none"/>
<rect x="96" y="424" clip-path="url(#clipPath1)" fill="none" width="4" stroke-dasharray="none" height="6" stroke="black"/>
<rect x="100" y="424" clip-path="url(#clipPath1)" fill="rgb(0,0,139)" width="4" stroke-dasharray="none" height="6" stroke="none"/>
<rect x="100" y="424" clip-path="url(#clipPath1)" fill="none" width="4" stroke-dasharray="none" height="6" stroke="black"/>
<rect x="104" y="424" clip-path="url(#clipPath1)" fill="rgb(0,0,139)" width="5" stroke-dasharray="none" height="6" stroke="none"/>
<rect x="104" y="424" clip-path="url(#clipPath1)" fill="none" width="5" stroke-dasharray="none" height="6" stroke="black"/>
<rect x="109" y="418" clip-path="url(#clipPath1)" fill="rgb(0,0,139)" width="4" stroke-dasharray="none" height="12" stroke="none"/>
<rect x="109" y="418" clip-path="url(#clipPath1)" fill="none" width="4" stroke-dasharray="none" height="12" stroke="black"/>
<rect x="113" y="412" clip-path="url(#clipPath1)" fill="rgb(0,0,139)" width="4" stroke-dasharray="none" height="18" stroke="none"/>
<rect x="113" y="412" clip-path="url(#clipPath1)" fill="none" width="4" stroke-dasharray="none" height="18" stroke="black"/>
<rect x="117" y="412" clip-path="url(#clipPath1)" fill="rgb(0,0,139)" width="4" stroke-dasharray="none" height="18" stroke="none"/>
<rect x="117" y="412" clip-path="url(#clipPath1)" fill="none" width="4" stroke-dasharray="none" height="18" stroke="black"/>
<rect x="121" y="424" clip-path="url(#clipPath1)" fill="rgb(0,0,139)" width="5" stroke-dasharray="none" height="6" stroke="none"/>
<rect x="121" y="424" clip-path="url(#clipPath1)" fill="none" width="5" stroke-dasharray="none" height="6" stroke="black"/>
<line clip-path="url(#clipPath1)" fill="none" x1="126" x2="130" y1="430" y2="430" stroke-dasharray="none" stroke="black"/>
<rect x="130" y="424" clip-path="url(#clipPath1)" fill="rgb(0,0,139)" width="4" stroke-dasharray="none" height="6" stroke="none"/>
<rect x="130" y="424" clip-path="url(#clipPath1)" fill="none" width="4" stroke-dasharray="none" height="6" stroke="black"/>
<rect x="134" y="424" clip-path="url(#clipPath1)" fill="rgb(0,0,139)" width="5" stroke-dasharray="none" height="6" stroke="none"/>
<rect x="134" y="424" clip-path="url(#clipPath1)" fill="none" width="5" stroke-dasharray="none" height="6" stroke="black"/>
<line clip-path="url(#clipPath1)" fill="none" x1="139" x2="143" y1="430" y2="430" stroke-dasharray="none" stroke="black"/>
<line clip-path="url(#clipPath1)" fill="none" x1="143" x2="147" y1="430" y2="430" stroke-dasharray="none" stroke="black"/>
<line clip-path="url(#clipPath1)" fill="none" x1="147" x2="151" y1="430" y2="430" stroke-dasharray="none" stroke="black"/>
<line clip-path="url(#clipPath1)" fill="none" x1="151" x2="156" y1="430" y2="430" stroke-dasharray="none" stroke="black"/>
<line clip-path="url(#clipPath1)" fill="none" x1="156" x2="160" y1="430" y2="430" stroke-dasharray="none" stroke="black"/>
<line clip-path="url(#clipPath1)" fill="none" x1="160" x2="164" y1="430" y2="430" stroke-dasharray="none" stroke="black"/>
<line clip-path="url(#clipPath1)" fill="none" x1="164" x2="168" y1="430" y2="430" stroke-dasharray="none" stroke="black"/>
<rect x="168" y="424" clip-path="url(#clipPath1)" fill="rgb(0,0,139)" width="5" stroke-dasharray="none" height="6" stroke="none"/>
<rect x="168" y="424" clip-path="url(#clipPath1)" fill="none" width="5" stroke-dasharray="none" height="6" stroke="black"/>
<line clip-path="url(#clipPath1)" fill="none" x1="173" x2="177" y1="430" y2="430" stroke-dasharray="none" stroke="black"/>
<rect x="177" y="424" clip-path="url(#clipPath1)" fill="rgb(0,0,139)" width="4" stroke-dasharray="none" height="6" stroke="none"/>
<rect x="177" y="424" clip-path="url(#clipPath1)" fill="none" width="4" stroke-dasharray="none" height="6" stroke="black"/>
<rect x="181" y="424" clip-path="url(#clipPath1)" fill="rgb(0,0,139)" width="4" stroke-dasharray="none" height="6" stroke="none"/>
<rect x="181" y="424" clip-path="url(#clipPath1)" fill="none" width="4" stroke-dasharray="none" height="6" stroke="black"/>
<line clip-path="url(#clipPath1)" fill="none" x1="185" x2="190" y1="430" y2="430" stroke-dasharray="none" stroke="black"/>
<rect x="190" y="412" clip-path="url(#clipPath1)" fill="rgb(0,0,139)" width="4" stroke-dasharray="none" height="18" stroke="none"/>
<rect x="190" y="412" clip-path="url(#clipPath1)" fill="none" width="4" stroke-dasharray="none" height="18" stroke="black"/>
<rect x="194" y="412" clip-path="url(#clipPath1)" fill="rgb(0,0,139)" width="4" stroke-dasharray="none" height="18" stroke="none"/>
<rect x="194" y="412" clip-path="url(#clipPath1)" fill="none" width="4" stroke-dasharray="none" height="18" stroke="black"/>
<rect x="198" y="418" clip-path="url(#clipPath1)" fill="rgb(0,0,139)" width="5" stroke-dasharray="none" height="12" stroke="none"/>
<rect x="198" y="418" clip-path="url(#clipPath1)" fill="none" width="5" stroke-dasharray="none" height="12" stroke="black"/>
<line clip-path="url(#clipPath1)" fill="none" x1="203" x2="207" y1="430" y2="430" stroke-dasharray="none" stroke="black"/>
<line clip-path="url(#clipPath1)" fill="none" x1="207" x2="211" y1="430" y2="430" stroke-dasharray="none" stroke="black"/>
<rect x="211" y="418" clip-path="url(#clipPath1)" fill="rgb(0,0,139)" width="4" stroke-dasharray="none" height="12" stroke="none"/>
<rect x="211" y="418" clip-path="url(#clipPath1)" fill="none" width="4" stroke-dasharray="none" height="12" stroke="black"/>
<line clip-path="url(#clipPath1)" fill="none" x1="215" x2="220" y1="430" y2="430" stroke-dasharray="none" stroke="black"/>
<line clip-path="url(#clipPath1)" fill="none" x1="220" x2="224" y1="430" y2="430" stroke-dasharray="none" stroke="black"/>
<rect x="224" y="418" clip-path="url(#clipPath1)" fill="rgb(0,0,139)" width="4" stroke-dasharray="none" height="12" stroke="none"/>
<rect x="224" y="418" clip-path="url(#clipPath1)" fill="none" width="4" stroke-dasharray="none" height="12" stroke="black"/>
<line clip-path="url(#clipPath1)" fill="none" x1="228" x2="232" y1="430" y2="430" stroke-dasharray="none" stroke="black"/>
<line clip-path="url(#clipPath1)" fill="none" x1="232" x2="237" y1="430" y2="430" stroke-dasharray="none" stroke="black"/>
<rect x="237" y="418" clip-path="url(#clipPath1)" fill="rgb(0,0,139)" width="4" stroke-dasharray="none" height="12" stroke="none"/>
<rect x="237" y="418" clip-path="url(#clipPath1)" fill="none" width="4" stroke-dasharray="none" height="12" stroke="black"/>
<line clip-path="url(#clipPath1)" fill="none" x1="241" x2="245" y1="430" y2="430" stroke-dasharray="none" stroke="black"/>
<line clip-path="url(#clipPath1)" fill="none" x1="245" x2="249" y1="430" y2="430" stroke-dasharray="none" stroke="black"/>
<rect x="249" y="418" clip-path="url(#clipPath1)" fill="rgb(0,0,139)" width="5" stroke-dasharray="none" height="12" stroke="none"/>
<rect x="249" y="418" clip-path="url(#clipPath1)" fill="none" width="5" stroke-dasharray="none" height="12" stroke="black"/>
<line clip-path="url(#clipPath1)" fill="none" x1="254" x2="258" y1="430" y2="430" stroke-dasharray="none" stroke="black"/>
<rect x="258" y="424" clip-path="url(#clipPath1)" fill="rgb(0,0,139)" width="4" stroke-dasharray="none" height="6" stroke="none"/>
<rect x="258" y="424" clip-path="url(#clipPath1)" fill="none" width="4" stroke-dasharray="none" height="6" stroke="black"/>
<rect x="262" y="424" clip-path="url(#clipPath1)" fill="rgb(0,0,139)" width="5" stroke-dasharray="none" height="6" stroke="none"/>
<rect x="262" y="424" clip-path="url(#clipPath1)" fill="none" width="5" stroke-dasharray="none" height="6" stroke="black"/>
<rect x="267" y="424" clip-path="url(#clipPath1)" fill="rgb(0,0,139)" width="4" stroke-dasharray="none" height="6" stroke="none"/>
<rect x="267" y="424" clip-path="url(#clipPath1)" fill="none" width="4" stroke-dasharray="none" height="6" stroke="black"/>
<rect x="271" y="418" clip-path="url(#clipPath1)" fill="rgb(0,0,139)" width="4" stroke-dasharray="none" height="12" stroke="none"/>
<rect x="271" y="418" clip-path="url(#clipPath1)" fill="none" width="4" stroke-dasharray="none" height="12" stroke="black"/>
<line clip-path="url(#clipPath1)" fill="none" x1="275" x2="279" y1="430" y2="430" stroke-dasharray="none" stroke="black"/>
<rect x="279" y="424" clip-path="url(#clipPath1)" fill="rgb(0,0,139)" width="5" stroke-dasharray="none" height="6" stroke="none"/>
<rect x="279" y="424" clip-path="url(#clipPath1)" fill="none" width="5" stroke-dasharray="none" height="6" stroke="black"/>
<rect x="284" y="424" clip-path="url(#clipPath1)" fill="rgb(0,0,139)" width="4" stroke-dasharray="none" height="6" stroke="none"/>
<rect x="284" y="424" clip-path="url(#clipPath1)" fill="none" width="4" stroke-dasharray="none" height="6" stroke="black"/>
<line clip-path="url(#clipPath1)" fill="none" x1="288" x2="292" y1="430" y2="430" stroke-dasharray="none" stroke="black"/>
<line clip-path="url(#clipPath1)" fill="none" x1="292" x2="296" y1="430" y2="430" stroke-dasharray="none" stroke="black"/>
<rect x="296" y="418" clip-path="url(#clipPath1)" fill="rgb(0,0,139)" width="5" stroke-dasharray="none" height="12" stroke="none"/>
<rect x="296" y="418" clip-path="url(#clipPath1)" fill="none" width="5" stroke-dasharray="none" height="12" stroke="black"/>
<rect x="301" y="424" clip-path="url(#clipPath1)" fill="rgb(0,0,139)" width="4" stroke-dasharray="none" height="6" stroke="none"/>
<rect x="301" y="424" clip-path="url(#clipPath1)" fill="none" width="4" stroke-dasharray="none" height="6" stroke="black"/>
<rect x="305" y="424" clip-path="url(#clipPath1)" fill="rgb(0,0,139)" width="4" stroke-dasharray="none" height="6" stroke="none"/>
<rect x="305" y="424" clip-path="url(#clipPath1)" fill="none" width="4" stroke-dasharray="none" height="6" stroke="black"/>
<line clip-path="url(#clipPath1)" fill="none" x1="309" x2="314" y1="430" y2="430" stroke-dasharray="none" stroke="black"/>
<rect x="314" y="418" clip-path="url(#clipPath1)" fill="rgb(0,0,139)" width="4" stroke-dasharray="none" height="12" stroke="none"/>
<rect x="314" y="418" clip-path="url(#clipPath1)" fill="none" width="4" stroke-dasharray="none" height="12" stroke="black"/>
<line clip-path="url(#clipPath1)" fill="none" x1="318" x2="322" y1="430" y2="430" stroke-dasharray="none" stroke="black"/>
<line clip-path="url(#clipPath1)" fill="none" x1="322" x2="326" y1="430" y2="430" stroke-dasharray="none" stroke="black"/>
<line clip-path="url(#clipPath1)" fill="none" x1="326" x2="331" y1="430" y2="430" stroke-dasharray="none" stroke="black"/>
<line clip-path="url(#clipPath1)" fill="none" x1="331" x2="335" y1="430" y2="430" stroke-dasharray="none" stroke="black"/>
<line clip-path="url(#clipPath1)" fill="none" x1="335" x2="339" y1="430" y2="430" stroke-dasharray="none" stroke="black"/>
<line clip-path="url(#clipPath1)" fill="none" x1="339" x2="343" y1="430" y2="430" stroke-dasharray="none" stroke="black"/>
<line clip-path="url(#clipPath1)" fill="none" x1="343" x2="348" y1="430" y2="430" stroke-dasharray="none" stroke="black"/>
<line clip-path="url(#clipPath1)" fill="none" x1="348" x2="352" y1="430" y2="430" stroke-dasharray="none" stroke="black"/>
<rect x="352" y="155" clip-path="url(#clipPath1)" fill="rgb(0,0,139)" width="4" stroke-dasharray="none" height="275" stroke="none"/>
<rect x="352" y="155" clip-path="url(#clipPath1)" fill="none" width="4" stroke-dasharray="none" height="275" stroke="black"/>
<rect x="356" y="387" clip-path="url(#clipPath1)" fill="rgb(0,0,139)" width="4" stroke-dasharray="none" height="43" stroke="none"/>
<rect x="356" y="387" clip-path="url(#clipPath1)" fill="none" width="4" stroke-dasharray="none" height="43" stroke="black"/>
<rect x="360" y="393" clip-path="url(#clipPath1)" fill="rgb(0,0,139)" width="5" stroke-dasharray="none" height="37" stroke="none"/>
<rect x="360" y="393" clip-path="url(#clipPath1)" fill="none" width="5" stroke-dasharray="none" height="37" stroke="black"/>
<rect x="365" y="418" clip-path="url(#clipPath1)" fill="rgb(0,0,139)" width="4" stroke-dasharray="none" height="12" stroke="none"/>
<rect x="365" y="418" clip-path="url(#clipPath1)" fill="none" width="4" stroke-dasharray="none" height="12" stroke="black"/>
<rect x="369" y="424" clip-path="url(#clipPath1)" fill="rgb(0,0,139)" width="4" stroke-dasharray="none" height="6" stroke="none"/>
<rect x="369" y="424" clip-path="url(#clipPath1)" fill="none" width="4" stroke-dasharray="none" height="6" stroke="black"/>
<rect x="373" y="424" clip-path="url(#clipPath1)" fill="rgb(0,0,139)" width="5" stroke-dasharray="none" height="6" stroke="none"/>
<rect x="373" y="424" clip-path="url(#clipPath1)" fill="none" width="5" stroke-dasharray="none" height="6" stroke="black"/>
<rect x="378" y="412" clip-path="url(#clipPath1)" fill="rgb(0,0,139)" width="4" stroke-dasharray="none" height="18" stroke="none"/>
<rect x="378" y="412" clip-path="url(#clipPath1)" fill="none" width="4" stroke-dasharray="none" height="18" stroke="black"/>
<rect x="382" y="424" clip-path="url(#clipPath1)" fill="rgb(0,0,139)" width="4" stroke-dasharray="none" height="6" stroke="none"/>
<rect x="382" y="424" clip-path="url(#clipPath1)" fill="none" width="4" stroke-dasharray="none" height="6" stroke="black"/>
<rect x="386" y="418" clip-path="url(#clipPath1)" fill="rgb(0,0,139)" width="4" stroke-dasharray="none" height="12" stroke="none"/>
<rect x="386" y="418" clip-path="url(#clipPath1)" fill="none" width="4" stroke-dasharray="none" height="12" stroke="black"/>
<rect x="390" y="424" clip-path="url(#clipPath1)" fill="rgb(0,0,139)" width="5" stroke-dasharray="none" height="6" stroke="none"/>
<rect x="390" y="424" clip-path="url(#clipPath1)" fill="none" width="5" stroke-dasharray="none" height="6" stroke="black"/>
<rect x="395" y="424" clip-path="url(#clipPath1)" fill="rgb(0,0,139)" width="4" stroke-dasharray="none" height="6" stroke="none"/>
<rect x="395" y="424" clip-path="url(#clipPath1)" fill="none" width="4" stroke-dasharray="none" height="6" stroke="black"/>
<rect x="399" y="380" clip-path="url(#clipPath1)" fill="rgb(0,0,139)" width="4" stroke-dasharray="none" height="50" stroke="none"/>
<rect x="399" y="380" clip-path="url(#clipPath1)" fill="none" width="4" stroke-dasharray="none" height="50" stroke="black"/>
<rect x="403" y="424" clip-path="url(#clipPath1)" fill="rgb(0,0,139)" width="4" stroke-dasharray="none" height="6" stroke="none"/>
<rect x="403" y="424" clip-path="url(#clipPath1)" fill="none" width="4" stroke-dasharray="none" height="6" stroke="black"/>
<line clip-path="url(#clipPath1)" fill="none" x1="407" x2="412" y1="430" y2="430" stroke-dasharray="none" stroke="black"/>
<line clip-path="url(#clipPath1)" fill="none" x1="412" x2="416" y1="430" y2="430" stroke-dasharray="none" stroke="black"/>
<line clip-path="url(#clipPath1)" fill="none" x1="416" x2="420" y1="430" y2="430" stroke-dasharray="none" stroke="black"/>
<line clip-path="url(#clipPath1)" fill="none" x1="420" x2="424" y1="430" y2="430" stroke-dasharray="none" stroke="black"/>
<line clip-path="url(#clipPath1)" fill="none" x1="424" x2="429" y1="430" y2="430" stroke-dasharray="none" stroke="black"/>
<line clip-path="url(#clipPath1)" fill="none" x1="429" x2="433" y1="430" y2="430" stroke-dasharray="none" stroke="black"/>
<rect x="433" y="424" clip-path="url(#clipPath1)" fill="rgb(0,0,139)" width="4" stroke-dasharray="none" height="6" stroke="none"/>
<rect x="433" y="424" clip-path="url(#clipPath1)" fill="none" width="4" stroke-dasharray="none" height="6" stroke="black"/>
<rect x="437" y="424" clip-path="url(#clipPath1)" fill="rgb(0,0,139)" width="5" stroke-dasharray="none" height="6" stroke="none"/>
<rect x="437" y="424" clip-path="url(#clipPath1)" fill="none" width="5" stroke-dasharray="none" height="6" stroke="black"/>
<rect x="442" y="412" clip-path="url(#clipPath1)" fill="rgb(0,0,139)" width="4" stroke-dasharray="none" height="18" stroke="none"/>
<rect x="442" y="412" clip-path="url(#clipPath1)" fill="none" width="4" stroke-dasharray="none" height="18" stroke="black"/>
<line clip-path="url(#clipPath1)" fill="none" x1="446" x2="450" y1="430" y2="430" stroke-dasharray="none" stroke="black"/>
<rect x="450" y="399" clip-path="url(#clipPath1)" fill="rgb(0,0,139)" width="4" stroke-dasharray="none" height="31" stroke="none"/>
<rect x="450" y="399" clip-path="url(#clipPath1)" fill="none" width="4" stroke-dasharray="none" height="31" stroke="black"/>
<rect x="454" y="412" clip-path="url(#clipPath1)" fill="rgb(0,0,139)" width="5" stroke-dasharray="none" height="18" stroke="none"/>
<rect x="454" y="412" clip-path="url(#clipPath1)" fill="none" width="5" stroke-dasharray="none" height="18" stroke="black"/>
<line clip-path="url(#clipPath1)" fill="none" x1="459" x2="463" y1="430" y2="430" stroke-dasharray="none" stroke="black"/>
<line clip-path="url(#clipPath1)" fill="none" x1="463" x2="467" y1="430" y2="430" stroke-dasharray="none" stroke="black"/>
<line clip-path="url(#clipPath1)" fill="none" x1="467" x2="471" y1="430" y2="430" stroke-dasharray="none" stroke="black"/>
<rect x="471" y="424" clip-path="url(#clipPath1)" fill="rgb(0,0,139)" width="5" stroke-dasharray="none" height="6" stroke="none"/>
<rect x="471" y="424" clip-path="url(#clipPath1)" fill="none" width="5" stroke-dasharray="none" height="6" stroke="black"/>
<line clip-path="url(#clipPath1)" fill="none" x1="476" x2="480" y1="430" y2="430" stroke-dasharray="none" stroke="black"/>
<line clip-path="url(#clipPath1)" fill="none" x1="480" x2="484" y1="430" y2="430" stroke-dasharray="none" stroke="black"/>
<line clip-path="url(#clipPath1)" fill="none" x1="484" x2="488" y1="430" y2="430" stroke-dasharray="none" stroke="black"/>
<line clip-path="url(#clipPath1)" fill="none" x1="488" x2="493" y1="430" y2="430" stroke-dasharray="none" stroke="black"/>
<line clip-path="url(#clipPath1)" fill="none" x1="493" x2="497" y1="430" y2="430" stroke-dasharray="none" stroke="black"/>
<line clip-path="url(#clipPath1)" fill="none" x1="497" x2="501" y1="430" y2="430" stroke-dasharray="none" stroke="black"/>
<line clip-path="url(#clipPath1)" fill="none" x1="501" x2="506" y1="430" y2="430" stroke-dasharray="none" stroke="black"/>
<rect x="506" y="424" clip-path="url(#clipPath1)" fill="rgb(0,0,139)" width="4" stroke-dasharray="none" height="6" stroke="none"/>
<rect x="506" y="424" clip-path="url(#clipPath1)" fill="none" width="4" stroke-dasharray="none" height="6" stroke="black"/>
<rect x="510" y="424" clip-path="url(#clipPath1)" fill="rgb(0,0,139)" width="4" stroke-dasharray="none" height="6" stroke="none"/>
<rect x="510" y="424" clip-path="url(#clipPath1)" fill="none" width="4" stroke-dasharray="none" height="6" stroke="black"/>
<rect x="514" y="424" clip-path="url(#clipPath1)" fill="rgb(0,0,139)" width="4" stroke-dasharray="none" height="6" stroke="none"/>
<rect x="514" y="424" clip-path="url(#clipPath1)" fill="none" width="4" stroke-dasharray="none" height="6" stroke="black"/>
<rect x="518" y="412" clip-path="url(#clipPath1)" fill="rgb(0,0,139)" width="5" stroke-dasharray="none" height="18" stroke="none"/>
<rect x="518" y="412" clip-path="url(#clipPath1)" fill="none" width="5" stroke-dasharray="none" height="18" stroke="black"/>
<line clip-path="url(#clipPath1)" fill="none" x1="523" x2="527" y1="430" y2="430" stroke-dasharray="none" stroke="black"/>
<rect x="527" y="412" clip-path="url(#clipPath1)" fill="rgb(0,0,139)" width="4" stroke-dasharray="none" height="18" stroke="none"/>
<rect x="527" y="412" clip-path="url(#clipPath1)" fill="none" width="4" stroke-dasharray="none" height="18" stroke="black"/>
<rect x="531" y="418" clip-path="url(#clipPath1)" fill="rgb(0,0,139)" width="4" stroke-dasharray="none" height="12" stroke="none"/>
<rect x="531" y="418" clip-path="url(#clipPath1)" fill="none" width="4" stroke-dasharray="none" height="12" stroke="black"/>
<line clip-path="url(#clipPath1)" fill="none" x1="535" x2="540" y1="430" y2="430" stroke-dasharray="none" stroke="black"/>
<rect x="540" y="418" clip-path="url(#clipPath1)" fill="rgb(0,0,139)" width="4" stroke-dasharray="none" height="12" stroke="none"/>
<rect x="540" y="418" clip-path="url(#clipPath1)" fill="none" width="4" stroke-dasharray="none" height="12" stroke="black"/>
<rect x="544" y="424" clip-path="url(#clipPath1)" fill="rgb(0,0,139)" width="4" stroke-dasharray="none" height="6" stroke="none"/>
<rect x="544" y="424" clip-path="url(#clipPath1)" fill="none" width="4" stroke-dasharray="none" height="6" stroke="black"/>
<line clip-path="url(#clipPath1)" fill="none" x1="548" x2="552" y1="430" y2="430" stroke-dasharray="none" stroke="black"/>
<rect x="552" y="424" clip-path="url(#clipPath1)" fill="rgb(0,0,139)" width="5" stroke-dasharray="none" height="6" stroke="none"/>
<rect x="552" y="424" clip-path="url(#clipPath1)" fill="none" width="5" stroke-dasharray="none" height="6" stroke="black"/>
<line clip-path="url(#clipPath1)" fill="none" x1="557" x2="561" y1="430" y2="430" stroke-dasharray="none" stroke="black"/>
<line clip-path="url(#clipPath1)" fill="none" x1="561" x2="565" y1="430" y2="430" stroke-dasharray="none" stroke="black"/>
<line clip-path="url(#clipPath1)" fill="none" x1="565" x2="570" y1="430" y2="430" stroke-dasharray="none" stroke="black"/>
<rect x="570" y="424" clip-path="url(#clipPath1)" fill="rgb(0,0,139)" width="4" stroke-dasharray="none" height="6" stroke="none"/>
<rect x="570" y="424" clip-path="url(#clipPath1)" fill="none" width="4" stroke-dasharray="none" height="6" stroke="black"/>
<line clip-path="url(#clipPath1)" fill="none" x1="574" x2="578" y1="430" y2="430" stroke-dasharray="none" stroke="black"/>
<rect x="578" y="424" clip-path="url(#clipPath1)" fill="rgb(0,0,139)" width="4" stroke-dasharray="none" height="6" stroke="none"/>
<rect x="578" y="424" clip-path="url(#clipPath1)" fill="none" width="4" stroke-dasharray="none" height="6" stroke="black"/>
<rect x="582" y="424" clip-path="url(#clipPath1)" fill="rgb(0,0,139)" width="5" stroke-dasharray="none" height="6" stroke="none"/>
<rect x="582" y="424" clip-path="url(#clipPath1)" fill="none" width="5" stroke-dasharray="none" height="6" stroke="black"/>
<line clip-path="url(#clipPath1)" fill="none" x1="587" x2="591" y1="430" y2="430" stroke-dasharray="none" stroke="black"/>
<line clip-path="url(#clipPath1)" fill="none" x1="591" x2="595" y1="430" y2="430" stroke-dasharray="none" stroke="black"/>
<line clip-path="url(#clipPath1)" fill="none" x1="595" x2="599" y1="430" y2="430" stroke-dasharray="none" stroke="black"/>
<line clip-path="url(#clipPath1)" fill="none" x1="599" x2="604" y1="430" y2="430" stroke-dasharray="none" stroke="black"/>
<line clip-path="url(#clipPath1)" fill="none" x1="604" x2="608" y1="430" y2="430" stroke-dasharray="none" stroke="black"/>
<rect x="608" y="424" clip-path="url(#clipPath1)" fill="rgb(0,0,139)" width="4" stroke-dasharray="none" height="6" stroke="none"/>
<rect x="608" y="424" clip-path="url(#clipPath1)" fill="none" width="4" stroke-dasharray="none" height="6" stroke="black"/>
<line clip-path="url(#clipPath1)" fill="none" x1="612" x2="617" y1="430" y2="430" stroke-dasharray="none" stroke="black"/>
<line clip-path="url(#clipPath1)" fill="none" x1="617" x2="621" y1="430" y2="430" stroke-dasharray="none" stroke="black"/>
<line clip-path="url(#clipPath1)" fill="none" x1="621" x2="625" y1="430" y2="430" stroke-dasharray="none" stroke="black"/>
<line clip-path="url(#clipPath1)" fill="none" x1="625" x2="629" y1="430" y2="430" stroke-dasharray="none" stroke="black"/>
<rect x="629" y="424" clip-path="url(#clipPath1)" fill="rgb(0,0,139)" width="5" stroke-dasharray="none" height="6" stroke="none"/>
<rect x="629" y="424" clip-path="url(#clipPath1)" fill="none" width="5" stroke-dasharray="none" height="6" stroke="black"/>
<line clip-path="url(#clipPath1)" fill="none" x1="634" x2="638" y1="430" y2="430" stroke-dasharray="none" stroke="black"/>
<line clip-path="url(#clipPath1)" fill="none" x1="638" x2="642" y1="430" y2="430" stroke-dasharray="none" stroke="black"/>
<rect x="642" y="424" clip-path="url(#clipPath1)" fill="rgb(0,0,139)" width="4" stroke-dasharray="none" height="6" stroke="none"/>
<rect x="642" y="424" clip-path="url(#clipPath1)" fill="none" width="4" stroke-dasharray="none" height="6" stroke="black"/>
<rect x="646" y="424" clip-path="url(#clipPath1)" fill="rgb(0,0,139)" width="5" stroke-dasharray="none" height="6" stroke="none"/>
<rect x="646" y="424" clip-path="url(#clipPath1)" fill="none" width="5" stroke-dasharray="none" height="6" stroke="black"/>
<line clip-path="url(#clipPath1)" fill="none" x1="651" x2="655" y1="430" y2="430" stroke-dasharray="none" stroke="black"/>
<rect x="655" y="418" clip-path="url(#clipPath1)" fill="rgb(0,0,139)" width="4" stroke-dasharray="none" height="12" stroke="none"/>
<rect x="655" y="418" clip-path="url(#clipPath1)" fill="none" width="4" stroke-dasharray="none" height="12" stroke="black"/>
<rect x="659" y="412" clip-path="url(#clipPath1)" fill="rgb(0,0,139)" width="4" stroke-dasharray="none" height="18" stroke="none"/>
<rect x="659" y="412" clip-path="url(#clipPath1)" fill="none" width="4" stroke-dasharray="none" height="18" stroke="black"/>
<rect x="663" y="412" clip-path="url(#clipPath1)" fill="rgb(0,0,139)" width="5" stroke-dasharray="none" height="18" stroke="none"/>
<rect x="663" y="412" clip-path="url(#clipPath1)" fill="none" width="5" stroke-dasharray="none" height="18" stroke="black"/>
<line clip-path="url(#clipPath1)" fill="none" x1="668" x2="672" y1="430" y2="430" stroke-dasharray="none" stroke="black"/>
<line clip-path="url(#clipPath1)" fill="none" x1="672" x2="676" y1="430" y2="430" stroke-dasharray="none" stroke="black"/>
<line clip-path="url(#clipPath1)" fill="none" x1="676" x2="681" y1="430" y2="430" stroke-dasharray="none" stroke="black"/>
<line clip-path="url(#clipPath1)" fill="none" x1="681" x2="685" y1="430" y2="430" stroke-dasharray="none" stroke="black"/>
<line clip-path="url(#clipPath1)" fill="none" x1="685" x2="689" y1="430" y2="430" stroke-dasharray="none" stroke="black"/>
<line clip-path="url(#clipPath1)" fill="none" x1="689" x2="693" y1="430" y2="430" stroke-dasharray="none" stroke="black"/>
<line clip-path="url(#clipPath1)" fill="none" x1="693" x2="698" y1="430" y2="430" stroke-dasharray="none" stroke="black"/>
<line clip-path="url(#clipPath1)" fill="none" x1="698" x2="702" y1="430" y2="430" stroke-dasharray="none" stroke="black"/>
<line clip-path="url(#clipPath1)" fill="none" x1="702" x2="706" y1="430" y2="430" stroke-dasharray="none" stroke="black"/>
<line clip-path="url(#clipPath1)" fill="none" x1="706" x2="710" y1="430" y2="430" stroke-dasharray="none" stroke="black"/>
<line clip-path="url(#clipPath1)" fill="none" x1="710" x2="715" y1="430" y2="430" stroke-dasharray="none" stroke="black"/>
<line clip-path="url(#clipPath1)" fill="none" x1="715" x2="719" y1="430" y2="430" stroke-dasharray="none" stroke="black"/>
<line clip-path="url(#clipPath1)" fill="none" x1="719" x2="723" y1="430" y2="430" stroke-dasharray="none" stroke="black"/>
<line clip-path="url(#clipPath1)" fill="none" x1="723" x2="727" y1="430" y2="430" stroke-dasharray="none" stroke="black"/>
<line clip-path="url(#clipPath1)" fill="none" x1="727" x2="732" y1="430" y2="430" stroke-dasharray="none" stroke="black"/>
<line clip-path="url(#clipPath1)" fill="none" x1="732" x2="736" y1="430" y2="430" stroke-dasharray="none" stroke="black"/>
<line clip-path="url(#clipPath1)" fill="none" x1="736" x2="740" y1="430" y2="430" stroke-dasharray="none" stroke="black"/>
<line clip-path="url(#clipPath1)" fill="none" x1="740" x2="745" y1="430" y2="430" stroke-dasharray="none" stroke="black"/>
<line clip-path="url(#clipPath1)" fill="none" x1="745" x2="749" y1="430" y2="430" stroke-dasharray="none" stroke="black"/>
<line clip-path="url(#clipPath1)" fill="none" x1="749" x2="753" y1="430" y2="430" stroke-dasharray="none" stroke="black"/>
<line clip-path="url(#clipPath1)" fill="none" x1="753" x2="757" y1="430" y2="430" stroke-dasharray="none" stroke="black"/>
<line clip-path="url(#clipPath1)" fill="none" x1="757" x2="762" y1="430" y2="430" stroke-dasharray="none" stroke="black"/>
<line clip-path="url(#clipPath1)" fill="none" x1="762" x2="766" y1="430" y2="430" stroke-dasharray="none" stroke="black"/>
<line clip-path="url(#clipPath1)" fill="none" x1="766" x2="770" y1="430" y2="430" stroke-dasharray="none" stroke="black"/>
<line clip-path="url(#clipPath1)" fill="none" x1="770" x2="774" y1="430" y2="430" stroke-dasharray="none" stroke="black"/>
<line clip-path="url(#clipPath1)" fill="none" x1="774" x2="779" y1="430" y2="430" stroke-dasharray="none" stroke="black"/>
<line clip-path="url(#clipPath1)" fill="none" x1="779" x2="783" y1="430" y2="430" stroke-dasharray="none" stroke="black"/>
<line clip-path="url(#clipPath1)" fill="none" x1="783" x2="787" y1="430" y2="430" stroke-dasharray="none" stroke="black"/>
<line clip-path="url(#clipPath1)" fill="none" x1="787" x2="791" y1="430" y2="430" stroke-dasharray="none" stroke="black"/>
<line clip-path="url(#clipPath1)" fill="none" x1="791" x2="796" y1="430" y2="430" stroke-dasharray="none" stroke="black"/>
<line clip-path="url(#clipPath1)" fill="none" x1="796" x2="800" y1="430" y2="430" stroke-dasharray="none" stroke="black"/>
<line clip-path="url(#clipPath1)" fill="none" x1="800" x2="804" y1="430" y2="430" stroke-dasharray="none" stroke="black"/>
<line clip-path="url(#clipPath1)" fill="none" x1="804" x2="809" y1="430" y2="430" stroke-dasharray="none" stroke="black"/>
<line clip-path="url(#clipPath1)" fill="none" x1="809" x2="813" y1="430" y2="430" stroke-dasharray="none" stroke="black"/>
<line clip-path="url(#clipPath1)" fill="none" x1="813" x2="817" y1="430" y2="430" stroke-dasharray="none" stroke="black"/>
<line clip-path="url(#clipPath1)" fill="none" x1="817" x2="821" y1="430" y2="430" stroke-dasharray="none" stroke="black"/>
<line clip-path="url(#clipPath1)" fill="none" x1="821" x2="826" y1="430" y2="430" stroke-dasharray="none" stroke="black"/>
<line clip-path="url(#clipPath1)" fill="none" x1="826" x2="830" y1="430" y2="430" stroke-dasharray="none" stroke="black"/>
<line clip-path="url(#clipPath1)" fill="none" x1="830" x2="834" y1="430" y2="430" stroke-dasharray="none" stroke="black"/>
<line clip-path="url(#clipPath1)" fill="none" x1="834" x2="838" y1="430" y2="430" stroke-dasharray="none" stroke="black"/>
<line clip-path="url(#clipPath1)" fill="none" x1="838" x2="843" y1="430" y2="430" stroke-dasharray="none" stroke="black"/>
<line clip-path="url(#clipPath1)" fill="none" x1="843" x2="847" y1="430" y2="430" stroke-dasharray="none" stroke="black"/>
<line clip-path="url(#clipPath1)" fill="none" x1="847" x2="851" y1="430" y2="430" stroke-dasharray="none" stroke="black"/>
<line clip-path="url(#clipPath1)" fill="none" x1="851" x2="855" y1="430" y2="430" stroke-dasharray="none" stroke="black"/>
<line clip-path="url(#clipPath1)" fill="none" x1="855" x2="860" y1="430" y2="430" stroke-dasharray="none" stroke="black"/>
<line clip-path="url(#clipPath1)" fill="none" x1="860" x2="864" y1="430" y2="430" stroke-dasharray="none" stroke="black"/>
<rect x="28" y="23" clip-path="url(#clipPath2)" fill="none" width="645" stroke-dasharray="none" height="407" stroke="black"/>
</g>
<g text-rendering="geometricPrecision" font-size="13" stroke-linecap="butt">
<line clip-path="url(#clipPath2)" fill="none" x1="28" x2="673" y1="21" y2="21"/>
<line clip-path="url(#clipPath2)" fill="none" x1="28" x2="673" y1="432" y2="432"/>
<line clip-path="url(#clipPath2)" fill="none" x1="55" x2="55" y1="19" y2="21"/>
<line clip-path="url(#clipPath2)" fill="none" x1="55" x2="55" y1="434" y2="432"/>
<line clip-path="url(#clipPath2)" fill="none" x1="100" x2="100" y1="17" y2="21"/>
<line clip-path="url(#clipPath2)" fill="none" x1="100" x2="100" y1="436" y2="432"/>
<text x="83" font-size="11" y="14" clip-path="url(#clipPath2)" stroke="none" xml:space="preserve">0.0002</text>
<text x="83" font-size="11" y="448" clip-path="url(#clipPath2)" stroke="none" xml:space="preserve">0.0002</text>
<line clip-path="url(#clipPath2)" fill="none" x1="145" x2="145" y1="19" y2="21"/>
<line clip-path="url(#clipPath2)" fill="none" x1="145" x2="145" y1="434" y2="432"/>
<line clip-path="url(#clipPath2)" fill="none" x1="190" x2="190" y1="17" y2="21"/>
<line clip-path="url(#clipPath2)" fill="none" x1="190" x2="190" y1="436" y2="432"/>
<text x="173" font-size="11" y="14" clip-path="url(#clipPath2)" stroke="none" xml:space="preserve">0.0004</text>
<text x="173" font-size="11" y="448" clip-path="url(#clipPath2)" stroke="none" xml:space="preserve">0.0004</text>
<line clip-path="url(#clipPath2)" fill="none" x1="235" x2="235" y1="19" y2="21"/>
<line clip-path="url(#clipPath2)" fill="none" x1="235" x2="235" y1="434" y2="432"/>
<line clip-path="url(#clipPath2)" fill="none" x1="280" x2="280" y1="17" y2="21"/>
<line clip-path="url(#clipPath2)" fill="none" x1="280" x2="280" y1="436" y2="432"/>
<text x="263" font-size="11" y="14" clip-path="url(#clipPath2)" stroke="none" xml:space="preserve">0.0006</text>
<text x="263" font-size="11" y="448" clip-path="url(#clipPath2)" stroke="none" xml:space="preserve">0.0006</text>
<line clip-path="url(#clipPath2)" fill="none" x1="325" x2="325" y1="19" y2="21"/>
<line clip-path="url(#clipPath2)" fill="none" x1="325" x2="325" y1="434" y2="432"/>
<line clip-path="url(#clipPath2)" fill="none" x1="370" x2="370" y1="17" y2="21"/>
<line clip-path="url(#clipPath2)" fill="none" x1="370" x2="370" y1="436" y2="432"/>
<text x="353" font-size="11" y="14" clip-path="url(#clipPath2)" stroke="none" xml:space="preserve">0.0008</text>
<text x="353" font-size="11" y="448" clip-path="url(#clipPath2)" stroke="none" xml:space="preserve">0.0008</text>
<line clip-path="url(#clipPath2)" fill="none" x1="415" x2="415" y1="19" y2="21"/>
<line clip-path="url(#clipPath2)" fill="none" x1="415" x2="415" y1="434" y2="432"/>
<line clip-path="url(#clipPath2)" fill="none" x1="460" x2="460" y1="17" y2="21"/>
<line clip-path="url(#clipPath2)" fill="none" x1="460" x2="460" y1="436" y2="432"/>
<text x="443" font-size="11" y="14" clip-path="url(#clipPath2)" stroke="none" xml:space="preserve">0.0010</text>
<text x="443" font-size="11" y="448" clip-path="url(#clipPath2)" stroke="none" xml:space="preserve">0.0010</text>
<line clip-path="url(#clipPath2)" fill="none" x1="505" x2="505" y1="19" y2="21"/>
<line clip-path="url(#clipPath2)" fill="none" x1="505" x2="505" y1="434" y2="432"/>
<line clip-path="url(#clipPath2)" fill="none" x1="550" x2="550" y1="17" y2="21"/>
<line clip-path="url(#clipPath2)" fill="none" x1="550" x2="550" y1="436" y2="432"/>
<text x="533" font-size="11" y="14" clip-path="url(#clipPath2)" stroke="none" xml:space="preserve">0.0012</text>
<text x="533" font-size="11" y="448" clip-path="url(#clipPath2)" stroke="none" xml:space="preserve">0.0012</text>
<line clip-path="url(#clipPath2)" fill="none" x1="595" x2="595" y1="19" y2="21"/>
<line clip-path="url(#clipPath2)" fill="none" x1="595" x2="595" y1="434" y2="432"/>
<line clip-path="url(#clipPath2)" fill="none" x1="640" x2="640" y1="17" y2="21"/>
<line clip-path="url(#clipPath2)" fill="none" x1="640" x2="640" y1="436" y2="432"/>
<text x="623" font-size="11" y="14" clip-path="url(#clipPath2)" stroke="none" xml:space="preserve">0.0014</text>
<text x="623" font-size="11" y="448" clip-path="url(#clipPath2)" stroke="none" xml:space="preserve">0.0014</text>
<line clip-path="url(#clipPath2)" fill="none" x1="26" x2="26" y1="23" y2="430"/>
<line clip-path="url(#clipPath2)" fill="none" x1="675" x2="675" y1="23" y2="430"/>
<line clip-path="url(#clipPath2)" fill="none" x1="22" x2="26" y1="430" y2="430"/>
<line clip-path="url(#clipPath2)" fill="none" x1="679" x2="675" y1="430" y2="430"/>
<text x="15" font-size="11" y="435" clip-path="url(#clipPath2)" stroke="none" xml:space="preserve">0</text>
<text x="682" font-size="11" y="435" clip-path="url(#clipPath2)" stroke="none" xml:space="preserve">0</text>
<line clip-path="url(#clipPath2)" fill="none" x1="24" x2="26" y1="418" y2="418"/>
<line clip-path="url(#clipPath2)" fill="none" x1="677" x2="675" y1="418" y2="418"/>
<line clip-path="url(#clipPath2)" fill="none" x1="24" x2="26" y1="405" y2="405"/>
<line clip-path="url(#clipPath2)" fill="none" x1="677" x2="675" y1="405" y2="405"/>
<line clip-path="url(#clipPath2)" fill="none" x1="24" x2="26" y1="393" y2="393"/>
<line clip-path="url(#clipPath2)" fill="none" x1="677" x2="675" y1="393" y2="393"/>
<line clip-path="url(#clipPath2)" fill="none" x1="24" x2="26" y1="380" y2="380"/>
<line clip-path="url(#clipPath2)" fill="none" x1="677" x2="675" y1="380" y2="380"/>
<line clip-path="url(#clipPath2)" fill="none" x1="22" x2="26" y1="368" y2="368"/>
<line clip-path="url(#clipPath2)" fill="none" x1="679" x2="675" y1="368" y2="368"/>
<text x="9" font-size="11" y="373" clip-path="url(#clipPath2)" stroke="none" xml:space="preserve">10</text>
<text x="682" font-size="11" y="373" clip-path="url(#clipPath2)" stroke="none" xml:space="preserve">10</text>
<line clip-path="url(#clipPath2)" fill="none" x1="24" x2="26" y1="355" y2="355"/>
<line clip-path="url(#clipPath2)" fill="none" x1="677" x2="675" y1="355" y2="355"/>
<line clip-path="url(#clipPath2)" fill="none" x1="24" x2="26" y1="343" y2="343"/>
<line clip-path="url(#clipPath2)" fill="none" x1="677" x2="675" y1="343" y2="343"/>
<line clip-path="url(#clipPath2)" fill="none" x1="24" x2="26" y1="330" y2="330"/>
<line clip-path="url(#clipPath2)" fill="none" x1="677" x2="675" y1="330" y2="330"/>
<line clip-path="url(#clipPath2)" fill="none" x1="24" x2="26" y1="318" y2="318"/>
<line clip-path="url(#clipPath2)" fill="none" x1="677" x2="675" y1="318" y2="318"/>
<line clip-path="url(#clipPath2)" fill="none" x1="22" x2="26" y1="305" y2="305"/>
<line clip-path="url(#clipPath2)" fill="none" x1="679" x2="675" y1="305" y2="305"/>
<text x="9" font-size="11" y="310" clip-path="url(#clipPath2)" stroke="none" xml:space="preserve">20</text>
<text x="682" font-size="11" y="310" clip-path="url(#clipPath2)" stroke="none" xml:space="preserve">20</text>
<line clip-path="url(#clipPath2)" fill="none" x1="24" x2="26" y1="293" y2="293"/>
<line clip-path="url(#clipPath2)" fill="none" x1="677" x2="675" y1="293" y2="293"/>
<line clip-path="url(#clipPath2)" fill="none" x1="24" x2="26" y1="280" y2="280"/>
<line clip-path="url(#clipPath2)" fill="none" x1="677" x2="675" y1="280" y2="280"/>
<line clip-path="url(#clipPath2)" fill="none" x1="24" x2="26" y1="267" y2="267"/>
<line clip-path="url(#clipPath2)" fill="none" x1="677" x2="675" y1="267" y2="267"/>
<line clip-path="url(#clipPath2)" fill="none" x1="24" x2="26" y1="255" y2="255"/>
<line clip-path="url(#clipPath2)" fill="none" x1="677" x2="675" y1="255" y2="255"/>
<line clip-path="url(#clipPath2)" fill="none" x1="22" x2="26" y1="242" y2="242"/>
<line clip-path="url(#clipPath2)" fill="none" x1="679" x2="675" y1="242" y2="242"/>
<text x="9" font-size="11" y="247" clip-path="url(#clipPath2)" stroke="none" xml:space="preserve">30</text>
<text x="682" font-size="11" y="247" clip-path="url(#clipPath2)" stroke="none" xml:space="preserve">30</text>
<line clip-path="url(#clipPath2)" fill="none" x1="24" x2="26" y1="230" y2="230"/>
<line clip-path="url(#clipPath2)" fill="none" x1="677" x2="675" y1="230" y2="230"/>
<line clip-path="url(#clipPath2)" fill="none" x1="24" x2="26" y1="217" y2="217"/>
<line clip-path="url(#clipPath2)" fill="none" x1="677" x2="675" y1="217" y2="217"/>
<line clip-path="url(#clipPath2)" fill="none" x1="24" x2="26" y1="205" y2="205"/>
<line clip-path="url(#clipPath2)" fill="none" x1="677" x2="675" y1="205" y2="205"/>
<line clip-path="url(#clipPath2)" fill="none" x1="24" x2="26" y1="192" y2="192"/>
<line clip-path="url(#clipPath2)" fill="none" x1="677" x2="675" y1="192" y2="192"/>
<line clip-path="url(#clipPath2)" fill="none" x1="22" x2="26" y1="180" y2="180"/>
<line clip-path="url(#clipPath2)" fill="none" x1="679" x2="675" y1="180" y2="180"/>
<text x="9" font-size="11" y="185" clip-path="url(#clipPath2)" stroke="none" xml:space="preserve">40</text>
<text x="682" font-size="11" y="185" clip-path="url(#clipPath2)" stroke="none" xml:space="preserve">40</text>
<line clip-path="url(#clipPath2)" fill="none" x1="24" x2="26" y1="167" y2="167"/>
<line clip-path="url(#clipPath2)" fill="none" x1="677" x2="675" y1="167" y2="167"/>
<line clip-path="url(#clipPath2)" fill="none" x1="24" x2="26" y1="155" y2="155"/>
<line clip-path="url(#clipPath2)" fill="none" x1="677" x2="675" y1="155" y2="155"/>
<line clip-path="url(#clipPath2)" fill="none" x1="24" x2="26" y1="142" y2="142"/>
<line clip-path="url(#clipPath2)" fill="none" x1="677" x2="675" y1="142" y2="142"/>
<line clip-path="url(#clipPath2)" fill="none" x1="24" x2="26" y1="130" y2="130"/>
<line clip-path="url(#clipPath2)" fill="none" x1="677" x2="675" y1="130" y2="130"/>
<line clip-path="url(#clipPath2)" fill="none" x1="22" x2="26" y1="117" y2="117"/>
<line clip-path="url(#clipPath2)" fill="none" x1="679" x2="675" y1="117" y2="117"/>
<text x="9" font-size="11" y="122" clip-path="url(#clipPath2)" stroke="none" xml:space="preserve">50</text>
<text x="682" font-size="11" y="122" clip-path="url(#clipPath2)" stroke="none" xml:space="preserve">50</text>
<line clip-path="url(#clipPath2)" fill="none" x1="24" x2="26" y1="105" y2="105"/>
<line clip-path="url(#clipPath2)" fill="none" x1="677" x2="675" y1="105" y2="105"/>
<line clip-path="url(#clipPath2)" fill="none" x1="24" x2="26" y1="92" y2="92"/>
<line clip-path="url(#clipPath2)" fill="none" x1="677" x2="675" y1="92" y2="92"/>
<line clip-path="url(#clipPath2)" fill="none" x1="24" x2="26" y1="79" y2="79"/>
<line clip-path="url(#clipPath2)" fill="none" x1="677" x2="675" y1="79" y2="79"/>
<line clip-path="url(#clipPath2)" fill="none" x1="24" x2="26" y1="67" y2="67"/>
<line clip-path="url(#clipPath2)" fill="none" x1="677" x2="675" y1="67" y2="67"/>
<line clip-path="url(#clipPath2)" fill="none" x1="22" x2="26" y1="54" y2="54"/>
<line clip-path="url(#clipPath2)" fill="none" x1="679" x2="675" y1="54" y2="54"/>
<text x="9" font-size="11" y="59" clip-path="url(#clipPath2)" stroke="none" xml:space="preserve">60</text>
<text x="682" font-size="11" y="59" clip-path="url(#clipPath2)" stroke="none" xml:space="preserve">60</text>
<line clip-path="url(#clipPath2)" fill="none" x1="24" x2="26" y1="42" y2="42"/>
<line clip-path="url(#clipPath2)" fill="none" x1="677" x2="675" y1="42" y2="42"/>
<line clip-path="url(#clipPath2)" fill="none" x1="24" x2="26" y1="29" y2="29"/>
<line clip-path="url(#clipPath2)" fill="none" x1="677" x2="675" y1="29" y2="29"/>
</g>
</g>
</svg>
