<?xml version="1.0" encoding="UTF-8"?><svg xmlns="http://www.w3.org/2000/svg" xmlns:xlink="http://www.w3.org/1999/xlink" stroke-dasharray="none" shape-rendering="auto" font-family="'Dialog'" width="714" text-rendering="auto" fill-opacity="1" contentScriptType="text/ecmascript" color-interpolation="auto" color-rendering="auto" preserveAspectRatio="xMidYMid meet" font-size="12" fill="black" stroke="black" image-rendering="auto" stroke-miterlimit="10" zoomAndPan="magnify" version="1.0" stroke-linecap="square" stroke-linejoin="miter" contentStyleType="text/css" font-style="normal" height="453" stroke-width="1" stroke-dashoffset="0" font-weight="normal" stroke-opacity="1">
<!--Generated by the Batik Graphics2D SVG Generator-->
<defs id="genericDefs"/>
<g>
<defs id="defs1">
<clipPath clipPathUnits="userSpaceOnUse" id="clipPath1">
<path d="M27 22 L687 22 L687 431 L27 431 L27 22 Z"/>
</clipPath>
<clipPath clipPathUnits="userSpaceOnUse" id="clipPath2">
<path d="M-1 -1 L715 -1 L715 454 L-1 454 L-1 -1 Z"/>
</clipPath>
</defs>
<g font-size="15" fill="white" text-rendering="geometricPrecision" font-family="'Cantarell'" stroke-linejoin="round" stroke="white" stroke-width="0" stroke-miterlimit="0">
<rect x="28" y="23" clip-path="url(#clipPath1)" width="658" height="407" stroke="none"/>
</g>
<g stroke-linecap="butt" font-size="15" fill="rgb(204,204,204)" text-rendering="geometricPrecision" font-family="'Cantarell'" stroke-dasharray="3,3" stroke="rgb(204,204,204)">
<line clip-path="url(#clipPath1)" fill="none" x1="28" x2="686" y1="430" y2="430"/>
<line clip-path="url(#clipPath1)" fill="none" x1="28" x2="686" y1="334" y2="334"/>
<line clip-path="url(#clipPath1)" fill="none" x1="28" x2="686" y1="239" y2="239"/>
<line clip-path="url(#clipPath1)" fill="none" x1="28" x2="686" y1="143" y2="143"/>
<line clip-path="url(#clipPath1)" fill="none" x1="28" x2="686" y1="48" y2="48"/>
<line clip-path="url(#clipPath1)" fill="none" x1="-723" x2="-715" y1="430" y2="430" stroke-dasharray="none" stroke="black"/>
<line clip-path="url(#clipPath1)" fill="none" x1="-715" x2="-707" y1="430" y2="430" stroke-dasharray="none" stroke="black"/>
<line clip-path="url(#clipPath1)" fill="none" x1="-707" x2="-699" y1="430" y2="430" stroke-dasharray="none" stroke="black"/>
<line clip-path="url(#clipPath1)" fill="none" x1="-699" x2="-691" y1="430" y2="430" stroke-dasharray="none" stroke="black"/>
<line clip-path="url(#clipPath1)" fill="none" x1="-691" x2="-683" y1="430" y2="430" stroke-dasharray="none" stroke="black"/>
<line clip-path="url(#clipPath1)" fill="none" x1="-683" x2="-675" y1="430" y2="430" stroke-dasharray="none" stroke="black"/>
<line clip-path="url(#clipPath1)" fill="none" x1="-675" x2="-667" y1="430" y2="430" stroke-dasharray="none" stroke="black"/>
<line clip-path="url(#clipPath1)" fill="none" x1="-667" x2="-659" y1="430" y2="430" stroke-dasharray="none" stroke="black"/>
<line clip-path="url(#clipPath1)" fill="none" x1="-659" x2="-651" y1="430" y2="430" stroke-dasharray="none" stroke="black"/>
<line clip-path="url(#clipPath1)" fill="none" x1="-651" x2="-643" y1="430" y2="430" stroke-dasharray="none" stroke="black"/>
<line clip-path="url(#clipPath1)" fill="none" x1="-643" x2="-635" y1="430" y2="430" stroke-dasharray="none" stroke="black"/>
<line clip-path="url(#clipPath1)" fill="none" x1="-635" x2="-627" y1="430" y2="430" stroke-dasharray="none" stroke="black"/>
<line clip-path="url(#clipPath1)" fill="none" x1="-627" x2="-619" y1="430" y2="430" stroke-dasharray="none" stroke="black"/>
<line clip-path="url(#clipPath1)" fill="none" x1="-619" x2="-611" y1="430" y2="430" stroke-dasharray="none" stroke="black"/>
<line clip-path="url(#clipPath1)" fill="none" x1="-611" x2="-603" y1="430" y2="430" stroke-dasharray="none" stroke="black"/>
<line clip-path="url(#clipPath1)" fill="none" x1="-603" x2="-595" y1="430" y2="430" stroke-dasharray="none" stroke="black"/>
<line clip-path="url(#clipPath1)" fill="none" x1="-595" x2="-587" y1="430" y2="430" stroke-dasharray="none" stroke="black"/>
<line clip-path="url(#clipPath1)" fill="none" x1="-587" x2="-579" y1="430" y2="430" stroke-dasharray="none" stroke="black"/>
<line clip-path="url(#clipPath1)" fill="none" x1="-579" x2="-571" y1="430" y2="430" stroke-dasharray="none" stroke="black"/>
<line clip-path="url(#clipPath1)" fill="none" x1="-571" x2="-563" y1="430" y2="430" stroke-dasharray="none" stroke="black"/>
<line clip-path="url(#clipPath1)" fill="none" x1="-563" x2="-555" y1="430" y2="430" stroke-dasharray="none" stroke="black"/>
<line clip-path="url(#clipPath1)" fill="none" x1="-555" x2="-547" y1="430" y2="430" stroke-dasharray="none" stroke="black"/>
<line clip-path="url(#clipPath1)" fill="none" x1="-547" x2="-539" y1="430" y2="430" stroke-dasharray="none" stroke="black"/>
<line clip-path="url(#clipPath1)" fill="none" x1="-539" x2="-531" y1="430" y2="430" stroke-dasharray="none" stroke="black"/>
<line clip-path="url(#clipPath1)" fill="none" x1="-531" x2="-523" y1="430" y2="430" stroke-dasharray="none" stroke="black"/>
<line clip-path="url(#clipPath1)" fill="none" x1="-523" x2="-515" y1="430" y2="430" stroke-dasharray="none" stroke="black"/>
<line clip-path="url(#clipPath1)" fill="none" x1="-515" x2="-507" y1="430" y2="430" stroke-dasharray="none" stroke="black"/>
<line clip-path="url(#clipPath1)" fill="none" x1="-507" x2="-499" y1="430" y2="430" stroke-dasharray="none" stroke="black"/>
<line clip-path="url(#clipPath1)" fill="none" x1="-499" x2="-491" y1="430" y2="430" stroke-dasharray="none" stroke="black"/>
<line clip-path="url(#clipPath1)" fill="none" x1="-491" x2="-483" y1="430" y2="430" stroke-dasharray="none" stroke="black"/>
<line clip-path="url(#clipPath1)" fill="none" x1="-483" x2="-475" y1="430" y2="430" stroke-dasharray="none" stroke="black"/>
<line clip-path="url(#clipPath1)" fill="none" x1="-475" x2="-467" y1="430" y2="430" stroke-dasharray="none" stroke="black"/>
<line clip-path="url(#clipPath1)" fill="none" x1="-467" x2="-459" y1="430" y2="430" stroke-dasharray="none" stroke="black"/>
<line clip-path="url(#clipPath1)" fill="none" x1="-459" x2="-451" y1="430" y2="430" stroke-dasharray="none" stroke="black"/>
<line clip-path="url(#clipPath1)" fill="none" x1="-451" x2="-443" y1="430" y2="430" stroke-dasharray="none" stroke="black"/>
<line clip-path="url(#clipPath1)" fill="none" x1="-443" x2="-435" y1="430" y2="430" stroke-dasharray="none" stroke="black"/>
<line clip-path="url(#clipPath1)" fill="none" x1="-435" x2="-427" y1="430" y2="430" stroke-dasharray="none" stroke="black"/>
<line clip-path="url(#clipPath1)" fill="none" x1="-427" x2="-419" y1="430" y2="430" stroke-dasharray="none" stroke="black"/>
<line clip-path="url(#clipPath1)" fill="none" x1="-419" x2="-411" y1="430" y2="430" stroke-dasharray="none" stroke="black"/>
<line clip-path="url(#clipPath1)" fill="none" x1="-411" x2="-403" y1="430" y2="430" stroke-dasharray="none" stroke="black"/>
<line clip-path="url(#clipPath1)" fill="none" x1="-403" x2="-395" y1="430" y2="430" stroke-dasharray="none" stroke="black"/>
<line clip-path="url(#clipPath1)" fill="none" x1="-395" x2="-387" y1="430" y2="430" stroke-dasharray="none" stroke="black"/>
<line clip-path="url(#clipPath1)" fill="none" x1="-387" x2="-379" y1="430" y2="430" stroke-dasharray="none" stroke="black"/>
<line clip-path="url(#clipPath1)" fill="none" x1="-379" x2="-371" y1="430" y2="430" stroke-dasharray="none" stroke="black"/>
<line clip-path="url(#clipPath1)" fill="none" x1="-371" x2="-363" y1="430" y2="430" stroke-dasharray="none" stroke="black"/>
<line clip-path="url(#clipPath1)" fill="none" x1="-363" x2="-355" y1="430" y2="430" stroke-dasharray="none" stroke="black"/>
<line clip-path="url(#clipPath1)" fill="none" x1="-355" x2="-347" y1="430" y2="430" stroke-dasharray="none" stroke="black"/>
<line clip-path="url(#clipPath1)" fill="none" x1="-347" x2="-339" y1="430" y2="430" stroke-dasharray="none" stroke="black"/>
<line clip-path="url(#clipPath1)" fill="none" x1="-339" x2="-331" y1="430" y2="430" stroke-dasharray="none" stroke="black"/>
<line clip-path="url(#clipPath1)" fill="none" x1="-331" x2="-323" y1="430" y2="430" stroke-dasharray="none" stroke="black"/>
<line clip-path="url(#clipPath1)" fill="none" x1="-323" x2="-315" y1="430" y2="430" stroke-dasharray="none" stroke="black"/>
<line clip-path="url(#clipPath1)" fill="none" x1="-315" x2="-307" y1="430" y2="430" stroke-dasharray="none" stroke="black"/>
<line clip-path="url(#clipPath1)" fill="none" x1="-307" x2="-299" y1="430" y2="430" stroke-dasharray="none" stroke="black"/>
<line clip-path="url(#clipPath1)" fill="none" x1="-299" x2="-291" y1="430" y2="430" stroke-dasharray="none" stroke="black"/>
<line clip-path="url(#clipPath1)" fill="none" x1="-291" x2="-283" y1="430" y2="430" stroke-dasharray="none" stroke="black"/>
<line clip-path="url(#clipPath1)" fill="none" x1="-283" x2="-275" y1="430" y2="430" stroke-dasharray="none" stroke="black"/>
<line clip-path="url(#clipPath1)" fill="none" x1="-275" x2="-267" y1="430" y2="430" stroke-dasharray="none" stroke="black"/>
<line clip-path="url(#clipPath1)" fill="none" x1="-267" x2="-259" y1="430" y2="430" stroke-dasharray="none" stroke="black"/>
<line clip-path="url(#clipPath1)" fill="none" x1="-259" x2="-251" y1="430" y2="430" stroke-dasharray="none" stroke="black"/>
<line clip-path="url(#clipPath1)" fill="none" x1="-251" x2="-243" y1="430" y2="430" stroke-dasharray="none" stroke="black"/>
<line clip-path="url(#clipPath1)" fill="none" x1="-243" x2="-235" y1="430" y2="430" stroke-dasharray="none" stroke="black"/>
<line clip-path="url(#clipPath1)" fill="none" x1="-235" x2="-227" y1="430" y2="430" stroke-dasharray="none" stroke="black"/>
<line clip-path="url(#clipPath1)" fill="none" x1="-227" x2="-219" y1="430" y2="430" stroke-dasharray="none" stroke="black"/>
<line clip-path="url(#clipPath1)" fill="none" x1="-219" x2="-211" y1="430" y2="430" stroke-dasharray="none" stroke="black"/>
<line clip-path="url(#clipPath1)" fill="none" x1="-211" x2="-203" y1="430" y2="430" stroke-dasharray="none" stroke="black"/>
<line clip-path="url(#clipPath1)" fill="none" x1="-203" x2="-195" y1="430" y2="430" stroke-dasharray="none" stroke="black"/>
<line clip-path="url(#clipPath1)" fill="none" x1="-195" x2="-187" y1="430" y2="430" stroke-dasharray="none" stroke="black"/>
<line clip-path="url(#clipPath1)" fill="none" x1="-187" x2="-179" y1="430" y2="430" stroke-dasharray="none" stroke="black"/>
<line clip-path="url(#clipPath1)" fill="none" x1="-179" x2="-171" y1="430" y2="430" stroke-dasharray="none" stroke="black"/>
<line clip-path="url(#clipPath1)" fill="none" x1="-171" x2="-163" y1="430" y2="430" stroke-dasharray="none" stroke="black"/>
<line clip-path="url(#clipPath1)" fill="none" x1="-163" x2="-155" y1="430" y2="430" stroke-dasharray="none" stroke="black"/>
<line clip-path="url(#clipPath1)" fill="none" x1="-155" x2="-147" y1="430" y2="430" stroke-dasharray="none" stroke="black"/>
<line clip-path="url(#clipPath1)" fill="none" x1="-147" x2="-139" y1="430" y2="430" stroke-dasharray="none" stroke="black"/>
<line clip-path="url(#clipPath1)" fill="none" x1="-139" x2="-131" y1="430" y2="430" stroke-dasharray="none" stroke="black"/>
<line clip-path="url(#clipPath1)" fill="none" x1="-131" x2="-123" y1="430" y2="430" stroke-dasharray="none" stroke="black"/>
<line clip-path="url(#clipPath1)" fill="none" x1="-123" x2="-115" y1="430" y2="430" stroke-dasharray="none" stroke="black"/>
<line clip-path="url(#clipPath1)" fill="none" x1="-115" x2="-107" y1="430" y2="430" stroke-dasharray="none" stroke="black"/>
<line clip-path="url(#clipPath1)" fill="none" x1="-107" x2="-99" y1="430" y2="430" stroke-dasharray="none" stroke="black"/>
<line clip-path="url(#clipPath1)" fill="none" x1="-99" x2="-91" y1="430" y2="430" stroke-dasharray="none" stroke="black"/>
<line clip-path="url(#clipPath1)" fill="none" x1="-91" x2="-83" y1="430" y2="430" stroke-dasharray="none" stroke="black"/>
<line clip-path="url(#clipPath1)" fill="none" x1="-83" x2="-75" y1="430" y2="430" stroke-dasharray="none" stroke="black"/>
<line clip-path="url(#clipPath1)" fill="none" x1="-75" x2="-67" y1="430" y2="430" stroke-dasharray="none" stroke="black"/>
<line clip-path="url(#clipPath1)" fill="none" x1="-67" x2="-59" y1="430" y2="430" stroke-dasharray="none" stroke="black"/>
<line clip-path="url(#clipPath1)" fill="none" x1="-59" x2="-51" y1="430" y2="430" stroke-dasharray="none" stroke="black"/>
<line clip-path="url(#clipPath1)" fill="none" x1="-51" x2="-43" y1="430" y2="430" stroke-dasharray="none" stroke="black"/>
<line clip-path="url(#clipPath1)" fill="none" x1="-43" x2="-35" y1="430" y2="430" stroke-dasharray="none" stroke="black"/>
<line clip-path="url(#clipPath1)" fill="none" x1="-35" x2="-27" y1="430" y2="430" stroke-dasharray="none" stroke="black"/>
<line clip-path="url(#clipPath1)" fill="none" x1="-27" x2="-19" y1="430" y2="430" stroke-dasharray="none" stroke="black"/>
<line clip-path="url(#clipPath1)" fill="none" x1="-19" x2="-11" y1="430" y2="430" stroke-dasharray="none" stroke="black"/>
<line clip-path="url(#clipPath1)" fill="none" x1="-11" x2="-3" y1="430" y2="430" stroke-dasharray="none" stroke="black"/>
<line clip-path="url(#clipPath1)" fill="none" x1="-3" x2="4" y1="430" y2="430" stroke-dasharray="none" stroke="black"/>
<line clip-path="url(#clipPath1)" fill="none" x1="4" x2="12" y1="430" y2="430" stroke-dasharray="none" stroke="black"/>
<line clip-path="url(#clipPath1)" fill="none" x1="12" x2="20" y1="430" y2="430" stroke-dasharray="none" stroke="black"/>
<line clip-path="url(#clipPath1)" fill="none" x1="20" x2="28" y1="430" y2="430" stroke-dasharray="none" stroke="black"/>
<line clip-path="url(#clipPath1)" fill="none" x1="28" x2="36" y1="430" y2="430" stroke-dasharray="none" stroke="black"/>
<line clip-path="url(#clipPath1)" fill="none" x1="36" x2="44" y1="430" y2="430" stroke-dasharray="none" stroke="black"/>
<line clip-path="url(#clipPath1)" fill="none" x1="44" x2="52" y1="430" y2="430" stroke-dasharray="none" stroke="black"/>
<line clip-path="url(#clipPath1)" fill="none" x1="52" x2="60" y1="430" y2="430" stroke-dasharray="none" stroke="black"/>
<line clip-path="url(#clipPath1)" fill="none" x1="60" x2="68" y1="430" y2="430" stroke-dasharray="none" stroke="black"/>
<line clip-path="url(#clipPath1)" fill="none" x1="68" x2="76" y1="430" y2="430" stroke-dasharray="none" stroke="black"/>
<line clip-path="url(#clipPath1)" fill="none" x1="76" x2="84" y1="430" y2="430" stroke-dasharray="none" stroke="black"/>
<line clip-path="url(#clipPath1)" fill="none" x1="84" x2="92" y1="430" y2="430" stroke-dasharray="none" stroke="black"/>
<line clip-path="url(#clipPath1)" fill="none" x1="92" x2="100" y1="430" y2="430" stroke-dasharray="none" stroke="black"/>
<line clip-path="url(#clipPath1)" fill="none" x1="100" x2="108" y1="430" y2="430" stroke-dasharray="none" stroke="black"/>
<line clip-path="url(#clipPath1)" fill="none" x1="108" x2="116" y1="430" y2="430" stroke-dasharray="none" stroke="black"/>
<line clip-path="url(#clipPath1)" fill="none" x1="116" x2="124" y1="430" y2="430" stroke-dasharray="none" stroke="black"/>
<line clip-path="url(#clipPath1)" fill="none" x1="124" x2="132" y1="430" y2="430" stroke-dasharray="none" stroke="black"/>
<line clip-path="url(#clipPath1)" fill="none" x1="132" x2="140" y1="430" y2="430" stroke-dasharray="none" stroke="black"/>
<line clip-path="url(#clipPath1)" fill="none" x1="140" x2="148" y1="430" y2="430" stroke-dasharray="none" stroke="black"/>
<line clip-path="url(#clipPath1)" fill="none" x1="148" x2="156" y1="430" y2="430" stroke-dasharray="none" stroke="black"/>
<line clip-path="url(#clipPath1)" fill="none" x1="156" x2="164" y1="430" y2="430" stroke-dasharray="none" stroke="black"/>
<line clip-path="url(#clipPath1)" fill="none" x1="164" x2="172" y1="430" y2="430" stroke-dasharray="none" stroke="black"/>
<line clip-path="url(#clipPath1)" fill="none" x1="172" x2="180" y1="430" y2="430" stroke-dasharray="none" stroke="black"/>
<line clip-path="url(#clipPath1)" fill="none" x1="180" x2="188" y1="430" y2="430" stroke-dasharray="none" stroke="black"/>
<line clip-path="url(#clipPath1)" fill="none" x1="188" x2="196" y1="430" y2="430" stroke-dasharray="none" stroke="black"/>
<line clip-path="url(#clipPath1)" fill="none" x1="196" x2="204" y1="430" y2="430" stroke-dasharray="none" stroke="black"/>
<line clip-path="url(#clipPath1)" fill="none" x1="204" x2="212" y1="430" y2="430" stroke-dasharray="none" stroke="black"/>
<line clip-path="url(#clipPath1)" fill="none" x1="212" x2="220" y1="430" y2="430" stroke-dasharray="none" stroke="black"/>
<line clip-path="url(#clipPath1)" fill="none" x1="220" x2="228" y1="430" y2="430" stroke-dasharray="none" stroke="black"/>
<line clip-path="url(#clipPath1)" fill="none" x1="228" x2="236" y1="430" y2="430" stroke-dasharray="none" stroke="black"/>
<line clip-path="url(#clipPath1)" fill="none" x1="236" x2="244" y1="430" y2="430" stroke-dasharray="none" stroke="black"/>
<rect x="244" y="124" clip-path="url(#clipPath1)" fill="rgb(0,0,139)" width="8" stroke-dasharray="none" height="306" stroke="none"/>
<rect x="244" y="124" clip-path="url(#clipPath1)" fill="none" width="8" stroke-dasharray="none" height="306" stroke="black"/>
<rect x="252" y="382" clip-path="url(#clipPath1)" fill="rgb(0,0,139)" width="8" stroke-dasharray="none" height="48" stroke="none"/>
<rect x="252" y="382" clip-path="url(#clipPath1)" fill="none" width="8" stroke-dasharray="none" height="48" stroke="black"/>
<rect x="260" y="420" clip-path="url(#clipPath1)" fill="rgb(0,0,139)" width="8" stroke-dasharray="none" height="10" stroke="none"/>
<rect x="260" y="420" clip-path="url(#clipPath1)" fill="none" width="8" stroke-dasharray="none" height="10" stroke="black"/>
<rect x="268" y="420" clip-path="url(#clipPath1)" fill="rgb(0,0,139)" width="8" stroke-dasharray="none" height="10" stroke="none"/>
<rect x="268" y="420" clip-path="url(#clipPath1)" fill="none" width="8" stroke-dasharray="none" height="10" stroke="black"/>
<rect x="276" y="420" clip-path="url(#clipPath1)" fill="rgb(0,0,139)" width="8" stroke-dasharray="none" height="10" stroke="none"/>
<rect x="276" y="420" clip-path="url(#clipPath1)" fill="none" width="8" stroke-dasharray="none" height="10" stroke="black"/>
<line clip-path="url(#clipPath1)" fill="none" x1="284" x2="292" y1="430" y2="430" stroke-dasharray="none" stroke="black"/>
<rect x="292" y="420" clip-path="url(#clipPath1)" fill="rgb(0,0,139)" width="8" stroke-dasharray="none" height="10" stroke="none"/>
<rect x="292" y="420" clip-path="url(#clipPath1)" fill="none" width="8" stroke-dasharray="none" height="10" stroke="black"/>
<line clip-path="url(#clipPath1)" fill="none" x1="300" x2="308" y1="430" y2="430" stroke-dasharray="none" stroke="black"/>
<rect x="308" y="420" clip-path="url(#clipPath1)" fill="rgb(0,0,139)" width="8" stroke-dasharray="none" height="10" stroke="none"/>
<rect x="308" y="420" clip-path="url(#clipPath1)" fill="none" width="8" stroke-dasharray="none" height="10" stroke="black"/>
<rect x="316" y="420" clip-path="url(#clipPath1)" fill="rgb(0,0,139)" width="8" stroke-dasharray="none" height="10" stroke="none"/>
<rect x="316" y="420" clip-path="url(#clipPath1)" fill="none" width="8" stroke-dasharray="none" height="10" stroke="black"/>
<rect x="324" y="410" clip-path="url(#clipPath1)" fill="rgb(0,0,139)" width="8" stroke-dasharray="none" height="20" stroke="none"/>
<rect x="324" y="410" clip-path="url(#clipPath1)" fill="none" width="8" stroke-dasharray="none" height="20" stroke="black"/>
<line clip-path="url(#clipPath1)" fill="none" x1="332" x2="340" y1="430" y2="430" stroke-dasharray="none" stroke="black"/>
<line clip-path="url(#clipPath1)" fill="none" x1="340" x2="348" y1="430" y2="430" stroke-dasharray="none" stroke="black"/>
<rect x="348" y="420" clip-path="url(#clipPath1)" fill="rgb(0,0,139)" width="8" stroke-dasharray="none" height="10" stroke="none"/>
<rect x="348" y="420" clip-path="url(#clipPath1)" fill="none" width="8" stroke-dasharray="none" height="10" stroke="black"/>
<rect x="356" y="420" clip-path="url(#clipPath1)" fill="rgb(0,0,139)" width="8" stroke-dasharray="none" height="10" stroke="none"/>
<rect x="356" y="420" clip-path="url(#clipPath1)" fill="none" width="8" stroke-dasharray="none" height="10" stroke="black"/>
<line clip-path="url(#clipPath1)" fill="none" x1="364" x2="372" y1="430" y2="430" stroke-dasharray="none" stroke="black"/>
<line clip-path="url(#clipPath1)" fill="none" x1="372" x2="379" y1="430" y2="430" stroke-dasharray="none" stroke="black"/>
<rect x="379" y="420" clip-path="url(#clipPath1)" fill="rgb(0,0,139)" width="8" stroke-dasharray="none" height="10" stroke="none"/>
<rect x="379" y="420" clip-path="url(#clipPath1)" fill="none" width="8" stroke-dasharray="none" height="10" stroke="black"/>
<line clip-path="url(#clipPath1)" fill="none" x1="387" x2="395" y1="430" y2="430" stroke-dasharray="none" stroke="black"/>
<line clip-path="url(#clipPath1)" fill="none" x1="395" x2="403" y1="430" y2="430" stroke-dasharray="none" stroke="black"/>
<rect x="403" y="420" clip-path="url(#clipPath1)" fill="rgb(0,0,139)" width="8" stroke-dasharray="none" height="10" stroke="none"/>
<rect x="403" y="420" clip-path="url(#clipPath1)" fill="none" width="8" stroke-dasharray="none" height="10" stroke="black"/>
<rect x="411" y="420" clip-path="url(#clipPath1)" fill="rgb(0,0,139)" width="8" stroke-dasharray="none" height="10" stroke="none"/>
<rect x="411" y="420" clip-path="url(#clipPath1)" fill="none" width="8" stroke-dasharray="none" height="10" stroke="black"/>
<rect x="419" y="391" clip-path="url(#clipPath1)" fill="rgb(0,0,139)" width="8" stroke-dasharray="none" height="39" stroke="none"/>
<rect x="419" y="391" clip-path="url(#clipPath1)" fill="none" width="8" stroke-dasharray="none" height="39" stroke="black"/>
<line clip-path="url(#clipPath1)" fill="none" x1="427" x2="435" y1="430" y2="430" stroke-dasharray="none" stroke="black"/>
<line clip-path="url(#clipPath1)" fill="none" x1="435" x2="443" y1="430" y2="430" stroke-dasharray="none" stroke="black"/>
<rect x="443" y="410" clip-path="url(#clipPath1)" fill="rgb(0,0,139)" width="8" stroke-dasharray="none" height="20" stroke="none"/>
<rect x="443" y="410" clip-path="url(#clipPath1)" fill="none" width="8" stroke-dasharray="none" height="20" stroke="black"/>
<rect x="451" y="401" clip-path="url(#clipPath1)" fill="rgb(0,0,139)" width="8" stroke-dasharray="none" height="29" stroke="none"/>
<rect x="451" y="401" clip-path="url(#clipPath1)" fill="none" width="8" stroke-dasharray="none" height="29" stroke="black"/>
<rect x="459" y="401" clip-path="url(#clipPath1)" fill="rgb(0,0,139)" width="8" stroke-dasharray="none" height="29" stroke="none"/>
<rect x="459" y="401" clip-path="url(#clipPath1)" fill="none" width="8" stroke-dasharray="none" height="29" stroke="black"/>
<rect x="467" y="410" clip-path="url(#clipPath1)" fill="rgb(0,0,139)" width="8" stroke-dasharray="none" height="20" stroke="none"/>
<rect x="467" y="410" clip-path="url(#clipPath1)" fill="none" width="8" stroke-dasharray="none" height="20" stroke="black"/>
<rect x="475" y="410" clip-path="url(#clipPath1)" fill="rgb(0,0,139)" width="8" stroke-dasharray="none" height="20" stroke="none"/>
<rect x="475" y="410" clip-path="url(#clipPath1)" fill="none" width="8" stroke-dasharray="none" height="20" stroke="black"/>
<rect x="483" y="410" clip-path="url(#clipPath1)" fill="rgb(0,0,139)" width="8" stroke-dasharray="none" height="20" stroke="none"/>
<rect x="483" y="410" clip-path="url(#clipPath1)" fill="none" width="8" stroke-dasharray="none" height="20" stroke="black"/>
<rect x="491" y="401" clip-path="url(#clipPath1)" fill="rgb(0,0,139)" width="8" stroke-dasharray="none" height="29" stroke="none"/>
<rect x="491" y="401" clip-path="url(#clipPath1)" fill="none" width="8" stroke-dasharray="none" height="29" stroke="black"/>
<rect x="499" y="391" clip-path="url(#clipPath1)" fill="rgb(0,0,139)" width="8" stroke-dasharray="none" height="39" stroke="none"/>
<rect x="499" y="391" clip-path="url(#clipPath1)" fill="none" width="8" stroke-dasharray="none" height="39" stroke="black"/>
<line clip-path="url(#clipPath1)" fill="none" x1="507" x2="515" y1="430" y2="430" stroke-dasharray="none" stroke="black"/>
<line clip-path="url(#clipPath1)" fill="none" x1="515" x2="523" y1="430" y2="430" stroke-dasharray="none" stroke="black"/>
<line clip-path="url(#clipPath1)" fill="none" x1="523" x2="531" y1="430" y2="430" stroke-dasharray="none" stroke="black"/>
<line clip-path="url(#clipPath1)" fill="none" x1="531" x2="539" y1="430" y2="430" stroke-dasharray="none" stroke="black"/>
<line clip-path="url(#clipPath1)" fill="none" x1="539" x2="547" y1="430" y2="430" stroke-dasharray="none" stroke="black"/>
<line clip-path="url(#clipPath1)" fill="none" x1="547" x2="555" y1="430" y2="430" stroke-dasharray="none" stroke="black"/>
<line clip-path="url(#clipPath1)" fill="none" x1="555" x2="563" y1="430" y2="430" stroke-dasharray="none" stroke="black"/>
<line clip-path="url(#clipPath1)" fill="none" x1="563" x2="571" y1="430" y2="430" stroke-dasharray="none" stroke="black"/>
<line clip-path="url(#clipPath1)" fill="none" x1="571" x2="579" y1="430" y2="430" stroke-dasharray="none" stroke="black"/>
<line clip-path="url(#clipPath1)" fill="none" x1="579" x2="587" y1="430" y2="430" stroke-dasharray="none" stroke="black"/>
<line clip-path="url(#clipPath1)" fill="none" x1="587" x2="595" y1="430" y2="430" stroke-dasharray="none" stroke="black"/>
<line clip-path="url(#clipPath1)" fill="none" x1="595" x2="603" y1="430" y2="430" stroke-dasharray="none" stroke="black"/>
<line clip-path="url(#clipPath1)" fill="none" x1="603" x2="611" y1="430" y2="430" stroke-dasharray="none" stroke="black"/>
<line clip-path="url(#clipPath1)" fill="none" x1="611" x2="619" y1="430" y2="430" stroke-dasharray="none" stroke="black"/>
<line clip-path="url(#clipPath1)" fill="none" x1="619" x2="627" y1="430" y2="430" stroke-dasharray="none" stroke="black"/>
<line clip-path="url(#clipPath1)" fill="none" x1="627" x2="635" y1="430" y2="430" stroke-dasharray="none" stroke="black"/>
<line clip-path="url(#clipPath1)" fill="none" x1="635" x2="643" y1="430" y2="430" stroke-dasharray="none" stroke="black"/>
<line clip-path="url(#clipPath1)" fill="none" x1="643" x2="651" y1="430" y2="430" stroke-dasharray="none" stroke="black"/>
<line clip-path="url(#clipPath1)" fill="none" x1="651" x2="659" y1="430" y2="430" stroke-dasharray="none" stroke="black"/>
<line clip-path="url(#clipPath1)" fill="none" x1="659" x2="667" y1="430" y2="430" stroke-dasharray="none" stroke="black"/>
<line clip-path="url(#clipPath1)" fill="none" x1="667" x2="675" y1="430" y2="430" stroke-dasharray="none" stroke="black"/>
<line clip-path="url(#clipPath1)" fill="none" x1="675" x2="683" y1="430" y2="430" stroke-dasharray="none" stroke="black"/>
<line clip-path="url(#clipPath1)" fill="none" x1="683" x2="691" y1="430" y2="430" stroke-dasharray="none" stroke="black"/>
<line clip-path="url(#clipPath1)" fill="none" x1="691" x2="699" y1="430" y2="430" stroke-dasharray="none" stroke="black"/>
<line clip-path="url(#clipPath1)" fill="none" x1="699" x2="707" y1="430" y2="430" stroke-dasharray="none" stroke="black"/>
<line clip-path="url(#clipPath1)" fill="none" x1="707" x2="715" y1="430" y2="430" stroke-dasharray="none" stroke="black"/>
<line clip-path="url(#clipPath1)" fill="none" x1="715" x2="723" y1="430" y2="430" stroke-dasharray="none" stroke="black"/>
<line clip-path="url(#clipPath1)" fill="none" x1="723" x2="731" y1="430" y2="430" stroke-dasharray="none" stroke="black"/>
<line clip-path="url(#clipPath1)" fill="none" x1="731" x2="739" y1="430" y2="430" stroke-dasharray="none" stroke="black"/>
<line clip-path="url(#clipPath1)" fill="none" x1="739" x2="747" y1="430" y2="430" stroke-dasharray="none" stroke="black"/>
<line clip-path="url(#clipPath1)" fill="none" x1="747" x2="755" y1="430" y2="430" stroke-dasharray="none" stroke="black"/>
<line clip-path="url(#clipPath1)" fill="none" x1="755" x2="763" y1="430" y2="430" stroke-dasharray="none" stroke="black"/>
<line clip-path="url(#clipPath1)" fill="none" x1="763" x2="771" y1="430" y2="430" stroke-dasharray="none" stroke="black"/>
<line clip-path="url(#clipPath1)" fill="none" x1="771" x2="779" y1="430" y2="430" stroke-dasharray="none" stroke="black"/>
<line clip-path="url(#clipPath1)" fill="none" x1="779" x2="787" y1="430" y2="430" stroke-dasharray="none" stroke="black"/>
<line clip-path="url(#clipPath1)" fill="none" x1="787" x2="795" y1="430" y2="430" stroke-dasharray="none" stroke="black"/>
<line clip-path="url(#clipPath1)" fill="none" x1="795" x2="803" y1="430" y2="430" stroke-dasharray="none" stroke="black"/>
<line clip-path="url(#clipPath1)" fill="none" x1="803" x2="811" y1="430" y2="430" stroke-dasharray="none" stroke="black"/>
<line clip-path="url(#clipPath1)" fill="none" x1="811" x2="819" y1="430" y2="430" stroke-dasharray="none" stroke="black"/>
<line clip-path="url(#clipPath1)" fill="none" x1="819" x2="827" y1="430" y2="430" stroke-dasharray="none" stroke="black"/>
<line clip-path="url(#clipPath1)" fill="none" x1="827" x2="835" y1="430" y2="430" stroke-dasharray="none" stroke="black"/>
<line clip-path="url(#clipPath1)" fill="none" x1="835" x2="843" y1="430" y2="430" stroke-dasharray="none" stroke="black"/>
<line clip-path="url(#clipPath1)" fill="none" x1="843" x2="851" y1="430" y2="430" stroke-dasharray="none" stroke="black"/>
<line clip-path="url(#clipPath1)" fill="none" x1="851" x2="859" y1="430" y2="430" stroke-dasharray="none" stroke="black"/>
<line clip-path="url(#clipPath1)" fill="none" x1="859" x2="867" y1="430" y2="430" stroke-dasharray="none" stroke="black"/>
<line clip-path="url(#clipPath1)" fill="none" x1="867" x2="875" y1="430" y2="430" stroke-dasharray="none" stroke="black"/>
<rect x="28" y="23" clip-path="url(#clipPath2)" fill="none" width="658" stroke-dasharray="none" height="407" stroke="black"/>
</g>
<g text-rendering="geometricPrecision" font-size="13" stroke-linecap="butt">
<line clip-path="url(#clipPath2)" fill="none" x1="28" x2="686" y1="21" y2="21"/>
<line clip-path="url(#clipPath2)" fill="none" x1="28" x2="686" y1="432" y2="432"/>
<line clip-path="url(#clipPath2)" fill="none" x1="41" x2="41" y1="19" y2="21"/>
<line clip-path="url(#clipPath2)" fill="none" x1="41" x2="41" y1="434" y2="432"/>
<line clip-path="url(#clipPath2)" fill="none" x1="82" x2="82" y1="17" y2="21"/>
<line clip-path="url(#clipPath2)" fill="none" x1="82" x2="82" y1="436" y2="432"/>
<text x="62" font-size="11" y="14" clip-path="url(#clipPath2)" stroke="none" xml:space="preserve">0.00020</text>
<text x="62" font-size="11" y="448" clip-path="url(#clipPath2)" stroke="none" xml:space="preserve">0.00020</text>
<line clip-path="url(#clipPath2)" fill="none" x1="122" x2="122" y1="19" y2="21"/>
<line clip-path="url(#clipPath2)" fill="none" x1="122" x2="122" y1="434" y2="432"/>
<line clip-path="url(#clipPath2)" fill="none" x1="162" x2="162" y1="17" y2="21"/>
<line clip-path="url(#clipPath2)" fill="none" x1="162" x2="162" y1="436" y2="432"/>
<text x="142" font-size="11" y="14" clip-path="url(#clipPath2)" stroke="none" xml:space="preserve">0.00022</text>
<text x="142" font-size="11" y="448" clip-path="url(#clipPath2)" stroke="none" xml:space="preserve">0.00022</text>
<line clip-path="url(#clipPath2)" fill="none" x1="202" x2="202" y1="19" y2="21"/>
<line clip-path="url(#clipPath2)" fill="none" x1="202" x2="202" y1="434" y2="432"/>
<line clip-path="url(#clipPath2)" fill="none" x1="243" x2="243" y1="17" y2="21"/>
<line clip-path="url(#clipPath2)" fill="none" x1="243" x2="243" y1="436" y2="432"/>
<text x="223" font-size="11" y="14" clip-path="url(#clipPath2)" stroke="none" xml:space="preserve">0.00024</text>
<text x="223" font-size="11" y="448" clip-path="url(#clipPath2)" stroke="none" xml:space="preserve">0.00024</text>
<line clip-path="url(#clipPath2)" fill="none" x1="283" x2="283" y1="19" y2="21"/>
<line clip-path="url(#clipPath2)" fill="none" x1="283" x2="283" y1="434" y2="432"/>
<line clip-path="url(#clipPath2)" fill="none" x1="323" x2="323" y1="17" y2="21"/>
<line clip-path="url(#clipPath2)" fill="none" x1="323" x2="323" y1="436" y2="432"/>
<text x="303" font-size="11" y="14" clip-path="url(#clipPath2)" stroke="none" xml:space="preserve">0.00026</text>
<text x="303" font-size="11" y="448" clip-path="url(#clipPath2)" stroke="none" xml:space="preserve">0.00026</text>
<line clip-path="url(#clipPath2)" fill="none" x1="363" x2="363" y1="19" y2="21"/>
<line clip-path="url(#clipPath2)" fill="none" x1="363" x2="363" y1="434" y2="432"/>
<line clip-path="url(#clipPath2)" fill="none" x1="404" x2="404" y1="17" y2="21"/>
<line clip-path="url(#clipPath2)" fill="none" x1="404" x2="404" y1="436" y2="432"/>
<text x="384" font-size="11" y="14" clip-path="url(#clipPath2)" stroke="none" xml:space="preserve">0.00028</text>
<text x="384" font-size="11" y="448" clip-path="url(#clipPath2)" stroke="none" xml:space="preserve">0.00028</text>
<line clip-path="url(#clipPath2)" fill="none" x1="444" x2="444" y1="19" y2="21"/>
<line clip-path="url(#clipPath2)" fill="none" x1="444" x2="444" y1="434" y2="432"/>
<line clip-path="url(#clipPath2)" fill="none" x1="484" x2="484" y1="17" y2="21"/>
<line clip-path="url(#clipPath2)" fill="none" x1="484" x2="484" y1="436" y2="432"/>
<text x="464" font-size="11" y="14" clip-path="url(#clipPath2)" stroke="none" xml:space="preserve">0.00030</text>
<text x="464" font-size="11" y="448" clip-path="url(#clipPath2)" stroke="none" xml:space="preserve">0.00030</text>
<line clip-path="url(#clipPath2)" fill="none" x1="524" x2="524" y1="19" y2="21"/>
<line clip-path="url(#clipPath2)" fill="none" x1="524" x2="524" y1="434" y2="432"/>
<line clip-path="url(#clipPath2)" fill="none" x1="565" x2="565" y1="17" y2="21"/>
<line clip-path="url(#clipPath2)" fill="none" x1="565" x2="565" y1="436" y2="432"/>
<text x="545" font-size="11" y="14" clip-path="url(#clipPath2)" stroke="none" xml:space="preserve">0.00032</text>
<text x="545" font-size="11" y="448" clip-path="url(#clipPath2)" stroke="none" xml:space="preserve">0.00032</text>
<line clip-path="url(#clipPath2)" fill="none" x1="605" x2="605" y1="19" y2="21"/>
<line clip-path="url(#clipPath2)" fill="none" x1="605" x2="605" y1="434" y2="432"/>
<line clip-path="url(#clipPath2)" fill="none" x1="645" x2="645" y1="17" y2="21"/>
<line clip-path="url(#clipPath2)" fill="none" x1="645" x2="645" y1="436" y2="432"/>
<text x="625" font-size="11" y="14" clip-path="url(#clipPath2)" stroke="none" xml:space="preserve">0.00034</text>
<text x="625" font-size="11" y="448" clip-path="url(#clipPath2)" stroke="none" xml:space="preserve">0.00034</text>
<line clip-path="url(#clipPath2)" fill="none" x1="685" x2="685" y1="19" y2="21"/>
<line clip-path="url(#clipPath2)" fill="none" x1="685" x2="685" y1="434" y2="432"/>
<line clip-path="url(#clipPath2)" fill="none" x1="26" x2="26" y1="23" y2="430"/>
<line clip-path="url(#clipPath2)" fill="none" x1="688" x2="688" y1="23" y2="430"/>
<line clip-path="url(#clipPath2)" fill="none" x1="22" x2="26" y1="430" y2="430"/>
<line clip-path="url(#clipPath2)" fill="none" x1="692" x2="688" y1="430" y2="430"/>
<text x="15" font-size="11" y="435" clip-path="url(#clipPath2)" stroke="none" xml:space="preserve">0</text>
<text x="695" font-size="11" y="435" clip-path="url(#clipPath2)" stroke="none" xml:space="preserve">0</text>
<line clip-path="url(#clipPath2)" fill="none" x1="24" x2="26" y1="410" y2="410"/>
<line clip-path="url(#clipPath2)" fill="none" x1="690" x2="688" y1="410" y2="410"/>
<line clip-path="url(#clipPath2)" fill="none" x1="24" x2="26" y1="391" y2="391"/>
<line clip-path="url(#clipPath2)" fill="none" x1="690" x2="688" y1="391" y2="391"/>
<line clip-path="url(#clipPath2)" fill="none" x1="24" x2="26" y1="372" y2="372"/>
<line clip-path="url(#clipPath2)" fill="none" x1="690" x2="688" y1="372" y2="372"/>
<line clip-path="url(#clipPath2)" fill="none" x1="24" x2="26" y1="353" y2="353"/>
<line clip-path="url(#clipPath2)" fill="none" x1="690" x2="688" y1="353" y2="353"/>
<line clip-path="url(#clipPath2)" fill="none" x1="22" x2="26" y1="334" y2="334"/>
<line clip-path="url(#clipPath2)" fill="none" x1="692" x2="688" y1="334" y2="334"/>
<text x="9" font-size="11" y="339" clip-path="url(#clipPath2)" stroke="none" xml:space="preserve">10</text>
<text x="695" font-size="11" y="339" clip-path="url(#clipPath2)" stroke="none" xml:space="preserve">10</text>
<line clip-path="url(#clipPath2)" fill="none" x1="24" x2="26" y1="315" y2="315"/>
<line clip-path="url(#clipPath2)" fill="none" x1="690" x2="688" y1="315" y2="315"/>
<line clip-path="url(#clipPath2)" fill="none" x1="24" x2="26" y1="296" y2="296"/>
<line clip-path="url(#clipPath2)" fill="none" x1="690" x2="688" y1="296" y2="296"/>
<line clip-path="url(#clipPath2)" fill="none" x1="24" x2="26" y1="277" y2="277"/>
<line clip-path="url(#clipPath2)" fill="none" x1="690" x2="688" y1="277" y2="277"/>
<line clip-path="url(#clipPath2)" fill="none" x1="24" x2="26" y1="258" y2="258"/>
<line clip-path="url(#clipPath2)" fill="none" x1="690" x2="688" y1="258" y2="258"/>
<line clip-path="url(#clipPath2)" fill="none" x1="22" x2="26" y1="239" y2="239"/>
<line clip-path="url(#clipPath2)" fill="none" x1="692" x2="688" y1="239" y2="239"/>
<text x="9" font-size="11" y="244" clip-path="url(#clipPath2)" stroke="none" xml:space="preserve">20</text>
<text x="695" font-size="11" y="244" clip-path="url(#clipPath2)" stroke="none" xml:space="preserve">20</text>
<line clip-path="url(#clipPath2)" fill="none" x1="24" x2="26" y1="220" y2="220"/>
<line clip-path="url(#clipPath2)" fill="none" x1="690" x2="688" y1="220" y2="220"/>
<line clip-path="url(#clipPath2)" fill="none" x1="24" x2="26" y1="201" y2="201"/>
<line clip-path="url(#clipPath2)" fill="none" x1="690" x2="688" y1="201" y2="201"/>
<line clip-path="url(#clipPath2)" fill="none" x1="24" x2="26" y1="181" y2="181"/>
<line clip-path="url(#clipPath2)" fill="none" x1="690" x2="688" y1="181" y2="181"/>
<line clip-path="url(#clipPath2)" fill="none" x1="24" x2="26" y1="162" y2="162"/>
<line clip-path="url(#clipPath2)" fill="none" x1="690" x2="688" y1="162" y2="162"/>
<line clip-path="url(#clipPath2)" fill="none" x1="22" x2="26" y1="143" y2="143"/>
<line clip-path="url(#clipPath2)" fill="none" x1="692" x2="688" y1="143" y2="143"/>
<text x="9" font-size="11" y="148" clip-path="url(#clipPath2)" stroke="none" xml:space="preserve">30</text>
<text x="695" font-size="11" y="148" clip-path="url(#clipPath2)" stroke="none" xml:space="preserve">30</text>
<line clip-path="url(#clipPath2)" fill="none" x1="24" x2="26" y1="124" y2="124"/>
<line clip-path="url(#clipPath2)" fill="none" x1="690" x2="688" y1="124" y2="124"/>
<line clip-path="url(#clipPath2)" fill="none" x1="24" x2="26" y1="105" y2="105"/>
<line clip-path="url(#clipPath2)" fill="none" x1="690" x2="688" y1="105" y2="105"/>
<line clip-path="url(#clipPath2)" fill="none" x1="24" x2="26" y1="86" y2="86"/>
<line clip-path="url(#clipPath2)" fill="none" x1="690" x2="688" y1="86" y2="86"/>
<line clip-path="url(#clipPath2)" fill="none" x1="24" x2="26" y1="67" y2="67"/>
<line clip-path="url(#clipPath2)" fill="none" x1="690" x2="688" y1="67" y2="67"/>
<line clip-path="url(#clipPath2)" fill="none" x1="22" x2="26" y1="48" y2="48"/>
<line clip-path="url(#clipPath2)" fill="none" x1="692" x2="688" y1="48" y2="48"/>
<text x="9" font-size="11" y="53" clip-path="url(#clipPath2)" stroke="none" xml:space="preserve">40</text>
<text x="695" font-size="11" y="53" clip-path="url(#clipPath2)" stroke="none" xml:space="preserve">40</text>
<line clip-path="url(#clipPath2)" fill="none" x1="24" x2="26" y1="29" y2="29"/>
<line clip-path="url(#clipPath2)" fill="none" x1="690" x2="688" y1="29" y2="29"/>
</g>
</g>
</svg>
