<?xml version="1.0" encoding="UTF-8"?><svg xmlns="http://www.w3.org/2000/svg" xmlns:xlink="http://www.w3.org/1999/xlink" stroke-dasharray="none" shape-rendering="auto" font-family="'Dialog'" width="706" text-rendering="auto" fill-opacity="1" contentScriptType="text/ecmascript" color-interpolation="auto" color-rendering="auto" preserveAspectRatio="xMidYMid meet" font-size="12" fill="black" stroke="black" image-rendering="auto" stroke-miterlimit="10" zoomAndPan="magnify" version="1.0" stroke-linecap="square" stroke-linejoin="miter" contentStyleType="text/css" font-style="normal" height="544" stroke-width="1" stroke-dashoffset="0" font-weight="normal" stroke-opacity="1">
<!--Generated by the Batik Graphics2D SVG Generator-->
<defs id="genericDefs"/>
<g>
<defs id="defs1">
<clipPath clipPathUnits="userSpaceOnUse" id="clipPath1">
<path d="M25 21 L681 21 L681 523 L25 523 L25 21 Z"/>
</clipPath>
<clipPath clipPathUnits="userSpaceOnUse" id="clipPath2">
<path d="M-1 -1 L707 -1 L707 545 L-1 545 L-1 -1 Z"/>
</clipPath>
</defs>
<g font-size="15" fill="white" text-rendering="geometricPrecision" font-family="'Cantarell'" stroke-linejoin="round" stroke="white" stroke-width="0" stroke-miterlimit="0">
<rect x="26" y="22" clip-path="url(#clipPath1)" width="654" height="500" stroke="none"/>
</g>
<g font-size="15" stroke-linecap="butt" fill="rgb(204,204,204)" text-rendering="geometricPrecision" font-family="'Cantarell'" stroke-dasharray="3,3" stroke="rgb(204,204,204)">
<line clip-path="url(#clipPath1)" fill="none" x1="26" x2="680" y1="522" y2="522"/>
<line clip-path="url(#clipPath1)" fill="none" x1="26" x2="680" y1="426" y2="426"/>
<line clip-path="url(#clipPath1)" fill="none" x1="26" x2="680" y1="329" y2="329"/>
<line clip-path="url(#clipPath1)" fill="none" x1="26" x2="680" y1="232" y2="232"/>
<line clip-path="url(#clipPath1)" fill="none" x1="26" x2="680" y1="135" y2="135"/>
<line clip-path="url(#clipPath1)" fill="none" x1="26" x2="680" y1="38" y2="38"/>
<line clip-path="url(#clipPath1)" fill="none" x1="-3222" x2="-3196" y1="522" y2="522" stroke-dasharray="none" stroke="black"/>
<line clip-path="url(#clipPath1)" fill="none" x1="-3196" x2="-3171" y1="522" y2="522" stroke-dasharray="none" stroke="black"/>
<line clip-path="url(#clipPath1)" fill="none" x1="-3171" x2="-3146" y1="522" y2="522" stroke-dasharray="none" stroke="black"/>
<line clip-path="url(#clipPath1)" fill="none" x1="-3146" x2="-3121" y1="522" y2="522" stroke-dasharray="none" stroke="black"/>
<line clip-path="url(#clipPath1)" fill="none" x1="-3121" x2="-3096" y1="522" y2="522" stroke-dasharray="none" stroke="black"/>
<line clip-path="url(#clipPath1)" fill="none" x1="-3096" x2="-3071" y1="522" y2="522" stroke-dasharray="none" stroke="black"/>
<line clip-path="url(#clipPath1)" fill="none" x1="-3071" x2="-3045" y1="522" y2="522" stroke-dasharray="none" stroke="black"/>
<line clip-path="url(#clipPath1)" fill="none" x1="-3045" x2="-3020" y1="522" y2="522" stroke-dasharray="none" stroke="black"/>
<line clip-path="url(#clipPath1)" fill="none" x1="-3020" x2="-2995" y1="522" y2="522" stroke-dasharray="none" stroke="black"/>
<line clip-path="url(#clipPath1)" fill="none" x1="-2995" x2="-2970" y1="522" y2="522" stroke-dasharray="none" stroke="black"/>
<line clip-path="url(#clipPath1)" fill="none" x1="-2970" x2="-2945" y1="522" y2="522" stroke-dasharray="none" stroke="black"/>
<line clip-path="url(#clipPath1)" fill="none" x1="-2945" x2="-2920" y1="522" y2="522" stroke-dasharray="none" stroke="black"/>
<line clip-path="url(#clipPath1)" fill="none" x1="-2920" x2="-2895" y1="522" y2="522" stroke-dasharray="none" stroke="black"/>
<line clip-path="url(#clipPath1)" fill="none" x1="-2895" x2="-2869" y1="522" y2="522" stroke-dasharray="none" stroke="black"/>
<line clip-path="url(#clipPath1)" fill="none" x1="-2869" x2="-2844" y1="522" y2="522" stroke-dasharray="none" stroke="black"/>
<line clip-path="url(#clipPath1)" fill="none" x1="-2844" x2="-2819" y1="522" y2="522" stroke-dasharray="none" stroke="black"/>
<line clip-path="url(#clipPath1)" fill="none" x1="-2819" x2="-2794" y1="522" y2="522" stroke-dasharray="none" stroke="black"/>
<line clip-path="url(#clipPath1)" fill="none" x1="-2794" x2="-2769" y1="522" y2="522" stroke-dasharray="none" stroke="black"/>
<line clip-path="url(#clipPath1)" fill="none" x1="-2769" x2="-2744" y1="522" y2="522" stroke-dasharray="none" stroke="black"/>
<line clip-path="url(#clipPath1)" fill="none" x1="-2744" x2="-2719" y1="522" y2="522" stroke-dasharray="none" stroke="black"/>
<line clip-path="url(#clipPath1)" fill="none" x1="-2719" x2="-2693" y1="522" y2="522" stroke-dasharray="none" stroke="black"/>
<line clip-path="url(#clipPath1)" fill="none" x1="-2693" x2="-2668" y1="522" y2="522" stroke-dasharray="none" stroke="black"/>
<line clip-path="url(#clipPath1)" fill="none" x1="-2668" x2="-2643" y1="522" y2="522" stroke-dasharray="none" stroke="black"/>
<line clip-path="url(#clipPath1)" fill="none" x1="-2643" x2="-2618" y1="522" y2="522" stroke-dasharray="none" stroke="black"/>
<line clip-path="url(#clipPath1)" fill="none" x1="-2618" x2="-2593" y1="522" y2="522" stroke-dasharray="none" stroke="black"/>
<line clip-path="url(#clipPath1)" fill="none" x1="-2593" x2="-2568" y1="522" y2="522" stroke-dasharray="none" stroke="black"/>
<line clip-path="url(#clipPath1)" fill="none" x1="-2568" x2="-2543" y1="522" y2="522" stroke-dasharray="none" stroke="black"/>
<line clip-path="url(#clipPath1)" fill="none" x1="-2543" x2="-2517" y1="522" y2="522" stroke-dasharray="none" stroke="black"/>
<line clip-path="url(#clipPath1)" fill="none" x1="-2517" x2="-2492" y1="522" y2="522" stroke-dasharray="none" stroke="black"/>
<line clip-path="url(#clipPath1)" fill="none" x1="-2492" x2="-2467" y1="522" y2="522" stroke-dasharray="none" stroke="black"/>
<line clip-path="url(#clipPath1)" fill="none" x1="-2467" x2="-2442" y1="522" y2="522" stroke-dasharray="none" stroke="black"/>
<line clip-path="url(#clipPath1)" fill="none" x1="-2442" x2="-2417" y1="522" y2="522" stroke-dasharray="none" stroke="black"/>
<line clip-path="url(#clipPath1)" fill="none" x1="-2417" x2="-2392" y1="522" y2="522" stroke-dasharray="none" stroke="black"/>
<line clip-path="url(#clipPath1)" fill="none" x1="-2392" x2="-2367" y1="522" y2="522" stroke-dasharray="none" stroke="black"/>
<line clip-path="url(#clipPath1)" fill="none" x1="-2367" x2="-2341" y1="522" y2="522" stroke-dasharray="none" stroke="black"/>
<line clip-path="url(#clipPath1)" fill="none" x1="-2341" x2="-2316" y1="522" y2="522" stroke-dasharray="none" stroke="black"/>
<line clip-path="url(#clipPath1)" fill="none" x1="-2316" x2="-2291" y1="522" y2="522" stroke-dasharray="none" stroke="black"/>
<line clip-path="url(#clipPath1)" fill="none" x1="-2291" x2="-2266" y1="522" y2="522" stroke-dasharray="none" stroke="black"/>
<line clip-path="url(#clipPath1)" fill="none" x1="-2266" x2="-2241" y1="522" y2="522" stroke-dasharray="none" stroke="black"/>
<line clip-path="url(#clipPath1)" fill="none" x1="-2241" x2="-2216" y1="522" y2="522" stroke-dasharray="none" stroke="black"/>
<line clip-path="url(#clipPath1)" fill="none" x1="-2216" x2="-2191" y1="522" y2="522" stroke-dasharray="none" stroke="black"/>
<line clip-path="url(#clipPath1)" fill="none" x1="-2191" x2="-2165" y1="522" y2="522" stroke-dasharray="none" stroke="black"/>
<line clip-path="url(#clipPath1)" fill="none" x1="-2165" x2="-2140" y1="522" y2="522" stroke-dasharray="none" stroke="black"/>
<line clip-path="url(#clipPath1)" fill="none" x1="-2140" x2="-2115" y1="522" y2="522" stroke-dasharray="none" stroke="black"/>
<line clip-path="url(#clipPath1)" fill="none" x1="-2115" x2="-2090" y1="522" y2="522" stroke-dasharray="none" stroke="black"/>
<line clip-path="url(#clipPath1)" fill="none" x1="-2090" x2="-2065" y1="522" y2="522" stroke-dasharray="none" stroke="black"/>
<line clip-path="url(#clipPath1)" fill="none" x1="-2065" x2="-2040" y1="522" y2="522" stroke-dasharray="none" stroke="black"/>
<line clip-path="url(#clipPath1)" fill="none" x1="-2040" x2="-2014" y1="522" y2="522" stroke-dasharray="none" stroke="black"/>
<line clip-path="url(#clipPath1)" fill="none" x1="-2014" x2="-1989" y1="522" y2="522" stroke-dasharray="none" stroke="black"/>
<line clip-path="url(#clipPath1)" fill="none" x1="-1989" x2="-1964" y1="522" y2="522" stroke-dasharray="none" stroke="black"/>
<line clip-path="url(#clipPath1)" fill="none" x1="-1964" x2="-1939" y1="522" y2="522" stroke-dasharray="none" stroke="black"/>
<line clip-path="url(#clipPath1)" fill="none" x1="-1939" x2="-1914" y1="522" y2="522" stroke-dasharray="none" stroke="black"/>
<line clip-path="url(#clipPath1)" fill="none" x1="-1914" x2="-1889" y1="522" y2="522" stroke-dasharray="none" stroke="black"/>
<line clip-path="url(#clipPath1)" fill="none" x1="-1889" x2="-1864" y1="522" y2="522" stroke-dasharray="none" stroke="black"/>
<line clip-path="url(#clipPath1)" fill="none" x1="-1864" x2="-1838" y1="522" y2="522" stroke-dasharray="none" stroke="black"/>
<line clip-path="url(#clipPath1)" fill="none" x1="-1838" x2="-1813" y1="522" y2="522" stroke-dasharray="none" stroke="black"/>
<line clip-path="url(#clipPath1)" fill="none" x1="-1813" x2="-1788" y1="522" y2="522" stroke-dasharray="none" stroke="black"/>
<line clip-path="url(#clipPath1)" fill="none" x1="-1788" x2="-1763" y1="522" y2="522" stroke-dasharray="none" stroke="black"/>
<line clip-path="url(#clipPath1)" fill="none" x1="-1763" x2="-1738" y1="522" y2="522" stroke-dasharray="none" stroke="black"/>
<line clip-path="url(#clipPath1)" fill="none" x1="-1738" x2="-1713" y1="522" y2="522" stroke-dasharray="none" stroke="black"/>
<line clip-path="url(#clipPath1)" fill="none" x1="-1713" x2="-1688" y1="522" y2="522" stroke-dasharray="none" stroke="black"/>
<line clip-path="url(#clipPath1)" fill="none" x1="-1688" x2="-1662" y1="522" y2="522" stroke-dasharray="none" stroke="black"/>
<line clip-path="url(#clipPath1)" fill="none" x1="-1662" x2="-1637" y1="522" y2="522" stroke-dasharray="none" stroke="black"/>
<line clip-path="url(#clipPath1)" fill="none" x1="-1637" x2="-1612" y1="522" y2="522" stroke-dasharray="none" stroke="black"/>
<line clip-path="url(#clipPath1)" fill="none" x1="-1612" x2="-1587" y1="522" y2="522" stroke-dasharray="none" stroke="black"/>
<line clip-path="url(#clipPath1)" fill="none" x1="-1587" x2="-1562" y1="522" y2="522" stroke-dasharray="none" stroke="black"/>
<line clip-path="url(#clipPath1)" fill="none" x1="-1562" x2="-1537" y1="522" y2="522" stroke-dasharray="none" stroke="black"/>
<line clip-path="url(#clipPath1)" fill="none" x1="-1537" x2="-1512" y1="522" y2="522" stroke-dasharray="none" stroke="black"/>
<line clip-path="url(#clipPath1)" fill="none" x1="-1512" x2="-1486" y1="522" y2="522" stroke-dasharray="none" stroke="black"/>
<line clip-path="url(#clipPath1)" fill="none" x1="-1486" x2="-1461" y1="522" y2="522" stroke-dasharray="none" stroke="black"/>
<line clip-path="url(#clipPath1)" fill="none" x1="-1461" x2="-1436" y1="522" y2="522" stroke-dasharray="none" stroke="black"/>
<line clip-path="url(#clipPath1)" fill="none" x1="-1436" x2="-1411" y1="522" y2="522" stroke-dasharray="none" stroke="black"/>
<line clip-path="url(#clipPath1)" fill="none" x1="-1411" x2="-1386" y1="522" y2="522" stroke-dasharray="none" stroke="black"/>
<line clip-path="url(#clipPath1)" fill="none" x1="-1386" x2="-1361" y1="522" y2="522" stroke-dasharray="none" stroke="black"/>
<line clip-path="url(#clipPath1)" fill="none" x1="-1361" x2="-1336" y1="522" y2="522" stroke-dasharray="none" stroke="black"/>
<line clip-path="url(#clipPath1)" fill="none" x1="-1336" x2="-1310" y1="522" y2="522" stroke-dasharray="none" stroke="black"/>
<line clip-path="url(#clipPath1)" fill="none" x1="-1310" x2="-1285" y1="522" y2="522" stroke-dasharray="none" stroke="black"/>
<line clip-path="url(#clipPath1)" fill="none" x1="-1285" x2="-1260" y1="522" y2="522" stroke-dasharray="none" stroke="black"/>
<line clip-path="url(#clipPath1)" fill="none" x1="-1260" x2="-1235" y1="522" y2="522" stroke-dasharray="none" stroke="black"/>
<line clip-path="url(#clipPath1)" fill="none" x1="-1235" x2="-1210" y1="522" y2="522" stroke-dasharray="none" stroke="black"/>
<line clip-path="url(#clipPath1)" fill="none" x1="-1210" x2="-1185" y1="522" y2="522" stroke-dasharray="none" stroke="black"/>
<line clip-path="url(#clipPath1)" fill="none" x1="-1185" x2="-1160" y1="522" y2="522" stroke-dasharray="none" stroke="black"/>
<line clip-path="url(#clipPath1)" fill="none" x1="-1160" x2="-1134" y1="522" y2="522" stroke-dasharray="none" stroke="black"/>
<line clip-path="url(#clipPath1)" fill="none" x1="-1134" x2="-1109" y1="522" y2="522" stroke-dasharray="none" stroke="black"/>
<line clip-path="url(#clipPath1)" fill="none" x1="-1109" x2="-1084" y1="522" y2="522" stroke-dasharray="none" stroke="black"/>
<line clip-path="url(#clipPath1)" fill="none" x1="-1084" x2="-1059" y1="522" y2="522" stroke-dasharray="none" stroke="black"/>
<line clip-path="url(#clipPath1)" fill="none" x1="-1059" x2="-1034" y1="522" y2="522" stroke-dasharray="none" stroke="black"/>
<line clip-path="url(#clipPath1)" fill="none" x1="-1034" x2="-1009" y1="522" y2="522" stroke-dasharray="none" stroke="black"/>
<line clip-path="url(#clipPath1)" fill="none" x1="-1009" x2="-983" y1="522" y2="522" stroke-dasharray="none" stroke="black"/>
<line clip-path="url(#clipPath1)" fill="none" x1="-983" x2="-958" y1="522" y2="522" stroke-dasharray="none" stroke="black"/>
<line clip-path="url(#clipPath1)" fill="none" x1="-958" x2="-933" y1="522" y2="522" stroke-dasharray="none" stroke="black"/>
<line clip-path="url(#clipPath1)" fill="none" x1="-933" x2="-908" y1="522" y2="522" stroke-dasharray="none" stroke="black"/>
<line clip-path="url(#clipPath1)" fill="none" x1="-908" x2="-883" y1="522" y2="522" stroke-dasharray="none" stroke="black"/>
<line clip-path="url(#clipPath1)" fill="none" x1="-883" x2="-858" y1="522" y2="522" stroke-dasharray="none" stroke="black"/>
<line clip-path="url(#clipPath1)" fill="none" x1="-858" x2="-833" y1="522" y2="522" stroke-dasharray="none" stroke="black"/>
<line clip-path="url(#clipPath1)" fill="none" x1="-833" x2="-807" y1="522" y2="522" stroke-dasharray="none" stroke="black"/>
<line clip-path="url(#clipPath1)" fill="none" x1="-807" x2="-782" y1="522" y2="522" stroke-dasharray="none" stroke="black"/>
<line clip-path="url(#clipPath1)" fill="none" x1="-782" x2="-757" y1="522" y2="522" stroke-dasharray="none" stroke="black"/>
<line clip-path="url(#clipPath1)" fill="none" x1="-757" x2="-732" y1="522" y2="522" stroke-dasharray="none" stroke="black"/>
<line clip-path="url(#clipPath1)" fill="none" x1="-732" x2="-707" y1="522" y2="522" stroke-dasharray="none" stroke="black"/>
<line clip-path="url(#clipPath1)" fill="none" x1="-707" x2="-682" y1="522" y2="522" stroke-dasharray="none" stroke="black"/>
<line clip-path="url(#clipPath1)" fill="none" x1="-682" x2="-657" y1="522" y2="522" stroke-dasharray="none" stroke="black"/>
<line clip-path="url(#clipPath1)" fill="none" x1="-657" x2="-631" y1="522" y2="522" stroke-dasharray="none" stroke="black"/>
<line clip-path="url(#clipPath1)" fill="none" x1="-631" x2="-606" y1="522" y2="522" stroke-dasharray="none" stroke="black"/>
<line clip-path="url(#clipPath1)" fill="none" x1="-606" x2="-581" y1="522" y2="522" stroke-dasharray="none" stroke="black"/>
<line clip-path="url(#clipPath1)" fill="none" x1="-581" x2="-556" y1="522" y2="522" stroke-dasharray="none" stroke="black"/>
<line clip-path="url(#clipPath1)" fill="none" x1="-556" x2="-531" y1="522" y2="522" stroke-dasharray="none" stroke="black"/>
<line clip-path="url(#clipPath1)" fill="none" x1="-531" x2="-506" y1="522" y2="522" stroke-dasharray="none" stroke="black"/>
<line clip-path="url(#clipPath1)" fill="none" x1="-506" x2="-481" y1="522" y2="522" stroke-dasharray="none" stroke="black"/>
<line clip-path="url(#clipPath1)" fill="none" x1="-481" x2="-455" y1="522" y2="522" stroke-dasharray="none" stroke="black"/>
<line clip-path="url(#clipPath1)" fill="none" x1="-455" x2="-430" y1="522" y2="522" stroke-dasharray="none" stroke="black"/>
<line clip-path="url(#clipPath1)" fill="none" x1="-430" x2="-405" y1="522" y2="522" stroke-dasharray="none" stroke="black"/>
<line clip-path="url(#clipPath1)" fill="none" x1="-405" x2="-380" y1="522" y2="522" stroke-dasharray="none" stroke="black"/>
<line clip-path="url(#clipPath1)" fill="none" x1="-380" x2="-355" y1="522" y2="522" stroke-dasharray="none" stroke="black"/>
<line clip-path="url(#clipPath1)" fill="none" x1="-355" x2="-330" y1="522" y2="522" stroke-dasharray="none" stroke="black"/>
<line clip-path="url(#clipPath1)" fill="none" x1="-330" x2="-305" y1="522" y2="522" stroke-dasharray="none" stroke="black"/>
<line clip-path="url(#clipPath1)" fill="none" x1="-305" x2="-279" y1="522" y2="522" stroke-dasharray="none" stroke="black"/>
<line clip-path="url(#clipPath1)" fill="none" x1="-279" x2="-254" y1="522" y2="522" stroke-dasharray="none" stroke="black"/>
<line clip-path="url(#clipPath1)" fill="none" x1="-254" x2="-229" y1="522" y2="522" stroke-dasharray="none" stroke="black"/>
<line clip-path="url(#clipPath1)" fill="none" x1="-229" x2="-204" y1="522" y2="522" stroke-dasharray="none" stroke="black"/>
<line clip-path="url(#clipPath1)" fill="none" x1="-204" x2="-179" y1="522" y2="522" stroke-dasharray="none" stroke="black"/>
<line clip-path="url(#clipPath1)" fill="none" x1="-179" x2="-154" y1="522" y2="522" stroke-dasharray="none" stroke="black"/>
<line clip-path="url(#clipPath1)" fill="none" x1="-154" x2="-129" y1="522" y2="522" stroke-dasharray="none" stroke="black"/>
<line clip-path="url(#clipPath1)" fill="none" x1="-129" x2="-103" y1="522" y2="522" stroke-dasharray="none" stroke="black"/>
<line clip-path="url(#clipPath1)" fill="none" x1="-103" x2="-78" y1="522" y2="522" stroke-dasharray="none" stroke="black"/>
<line clip-path="url(#clipPath1)" fill="none" x1="-78" x2="-53" y1="522" y2="522" stroke-dasharray="none" stroke="black"/>
<line clip-path="url(#clipPath1)" fill="none" x1="-53" x2="-28" y1="522" y2="522" stroke-dasharray="none" stroke="black"/>
<line clip-path="url(#clipPath1)" fill="none" x1="-28" x2="-3" y1="522" y2="522" stroke-dasharray="none" stroke="black"/>
<line clip-path="url(#clipPath1)" fill="none" x1="-3" x2="21" y1="522" y2="522" stroke-dasharray="none" stroke="black"/>
<line clip-path="url(#clipPath1)" fill="none" x1="21" x2="46" y1="522" y2="522" stroke-dasharray="none" stroke="black"/>
<rect x="46" y="474" clip-path="url(#clipPath1)" fill="rgb(0,0,139)" width="26" stroke-dasharray="none" height="48" stroke="none"/>
<rect x="46" y="474" clip-path="url(#clipPath1)" fill="none" width="26" stroke-dasharray="none" height="48" stroke="black"/>
<line clip-path="url(#clipPath1)" fill="none" x1="72" x2="97" y1="522" y2="522" stroke-dasharray="none" stroke="black"/>
<line clip-path="url(#clipPath1)" fill="none" x1="97" x2="122" y1="522" y2="522" stroke-dasharray="none" stroke="black"/>
<rect x="122" y="426" clip-path="url(#clipPath1)" fill="rgb(0,0,139)" width="25" stroke-dasharray="none" height="96" stroke="none"/>
<rect x="122" y="426" clip-path="url(#clipPath1)" fill="none" width="25" stroke-dasharray="none" height="96" stroke="black"/>
<line clip-path="url(#clipPath1)" fill="none" x1="147" x2="172" y1="522" y2="522" stroke-dasharray="none" stroke="black"/>
<rect x="172" y="474" clip-path="url(#clipPath1)" fill="rgb(0,0,139)" width="25" stroke-dasharray="none" height="48" stroke="none"/>
<rect x="172" y="474" clip-path="url(#clipPath1)" fill="none" width="25" stroke-dasharray="none" height="48" stroke="black"/>
<line clip-path="url(#clipPath1)" fill="none" x1="197" x2="223" y1="522" y2="522" stroke-dasharray="none" stroke="black"/>
<rect x="223" y="474" clip-path="url(#clipPath1)" fill="rgb(0,0,139)" width="25" stroke-dasharray="none" height="48" stroke="none"/>
<rect x="223" y="474" clip-path="url(#clipPath1)" fill="none" width="25" stroke-dasharray="none" height="48" stroke="black"/>
<line clip-path="url(#clipPath1)" fill="none" x1="248" x2="273" y1="522" y2="522" stroke-dasharray="none" stroke="black"/>
<rect x="273" y="474" clip-path="url(#clipPath1)" fill="rgb(0,0,139)" width="25" stroke-dasharray="none" height="48" stroke="none"/>
<rect x="273" y="474" clip-path="url(#clipPath1)" fill="none" width="25" stroke-dasharray="none" height="48" stroke="black"/>
<line clip-path="url(#clipPath1)" fill="none" x1="298" x2="323" y1="522" y2="522" stroke-dasharray="none" stroke="black"/>
<rect x="323" y="474" clip-path="url(#clipPath1)" fill="rgb(0,0,139)" width="25" stroke-dasharray="none" height="48" stroke="none"/>
<rect x="323" y="474" clip-path="url(#clipPath1)" fill="none" width="25" stroke-dasharray="none" height="48" stroke="black"/>
<rect x="348" y="426" clip-path="url(#clipPath1)" fill="rgb(0,0,139)" width="25" stroke-dasharray="none" height="96" stroke="none"/>
<rect x="348" y="426" clip-path="url(#clipPath1)" fill="none" width="25" stroke-dasharray="none" height="96" stroke="black"/>
<rect x="373" y="280" clip-path="url(#clipPath1)" fill="rgb(0,0,139)" width="26" stroke-dasharray="none" height="242" stroke="none"/>
<rect x="373" y="280" clip-path="url(#clipPath1)" fill="none" width="26" stroke-dasharray="none" height="242" stroke="black"/>
<rect x="399" y="232" clip-path="url(#clipPath1)" fill="rgb(0,0,139)" width="25" stroke-dasharray="none" height="290" stroke="none"/>
<rect x="399" y="232" clip-path="url(#clipPath1)" fill="none" width="25" stroke-dasharray="none" height="290" stroke="black"/>
<rect x="424" y="426" clip-path="url(#clipPath1)" fill="rgb(0,0,139)" width="25" stroke-dasharray="none" height="96" stroke="none"/>
<rect x="424" y="426" clip-path="url(#clipPath1)" fill="none" width="25" stroke-dasharray="none" height="96" stroke="black"/>
<rect x="449" y="86" clip-path="url(#clipPath1)" fill="rgb(0,0,139)" width="25" stroke-dasharray="none" height="436" stroke="none"/>
<rect x="449" y="86" clip-path="url(#clipPath1)" fill="none" width="25" stroke-dasharray="none" height="436" stroke="black"/>
<rect x="474" y="86" clip-path="url(#clipPath1)" fill="rgb(0,0,139)" width="25" stroke-dasharray="none" height="436" stroke="none"/>
<rect x="474" y="86" clip-path="url(#clipPath1)" fill="none" width="25" stroke-dasharray="none" height="436" stroke="black"/>
<rect x="499" y="38" clip-path="url(#clipPath1)" fill="rgb(0,0,139)" width="25" stroke-dasharray="none" height="484" stroke="none"/>
<rect x="499" y="38" clip-path="url(#clipPath1)" fill="none" width="25" stroke-dasharray="none" height="484" stroke="black"/>
<rect x="524" y="183" clip-path="url(#clipPath1)" fill="rgb(0,0,139)" width="25" stroke-dasharray="none" height="339" stroke="none"/>
<rect x="524" y="183" clip-path="url(#clipPath1)" fill="none" width="25" stroke-dasharray="none" height="339" stroke="black"/>
<rect x="549" y="86" clip-path="url(#clipPath1)" fill="rgb(0,0,139)" width="26" stroke-dasharray="none" height="436" stroke="none"/>
<rect x="549" y="86" clip-path="url(#clipPath1)" fill="none" width="26" stroke-dasharray="none" height="436" stroke="black"/>
<rect x="575" y="232" clip-path="url(#clipPath1)" fill="rgb(0,0,139)" width="25" stroke-dasharray="none" height="290" stroke="none"/>
<rect x="575" y="232" clip-path="url(#clipPath1)" fill="none" width="25" stroke-dasharray="none" height="290" stroke="black"/>
<line clip-path="url(#clipPath1)" fill="none" x1="600" x2="625" y1="522" y2="522" stroke-dasharray="none" stroke="black"/>
<rect x="625" y="426" clip-path="url(#clipPath1)" fill="rgb(0,0,139)" width="25" stroke-dasharray="none" height="96" stroke="none"/>
<rect x="625" y="426" clip-path="url(#clipPath1)" fill="none" width="25" stroke-dasharray="none" height="96" stroke="black"/>
<line clip-path="url(#clipPath1)" fill="none" x1="650" x2="675" y1="522" y2="522" stroke-dasharray="none" stroke="black"/>
<line clip-path="url(#clipPath1)" fill="none" x1="675" x2="700" y1="522" y2="522" stroke-dasharray="none" stroke="black"/>
<line clip-path="url(#clipPath1)" fill="none" x1="700" x2="725" y1="522" y2="522" stroke-dasharray="none" stroke="black"/>
<line clip-path="url(#clipPath1)" fill="none" x1="725" x2="751" y1="522" y2="522" stroke-dasharray="none" stroke="black"/>
<line clip-path="url(#clipPath1)" fill="none" x1="751" x2="776" y1="522" y2="522" stroke-dasharray="none" stroke="black"/>
<line clip-path="url(#clipPath1)" fill="none" x1="776" x2="801" y1="522" y2="522" stroke-dasharray="none" stroke="black"/>
<line clip-path="url(#clipPath1)" fill="none" x1="801" x2="826" y1="522" y2="522" stroke-dasharray="none" stroke="black"/>
<line clip-path="url(#clipPath1)" fill="none" x1="826" x2="851" y1="522" y2="522" stroke-dasharray="none" stroke="black"/>
<line clip-path="url(#clipPath1)" fill="none" x1="851" x2="876" y1="522" y2="522" stroke-dasharray="none" stroke="black"/>
<line clip-path="url(#clipPath1)" fill="none" x1="876" x2="901" y1="522" y2="522" stroke-dasharray="none" stroke="black"/>
<line clip-path="url(#clipPath1)" fill="none" x1="901" x2="927" y1="522" y2="522" stroke-dasharray="none" stroke="black"/>
<line clip-path="url(#clipPath1)" fill="none" x1="927" x2="952" y1="522" y2="522" stroke-dasharray="none" stroke="black"/>
<line clip-path="url(#clipPath1)" fill="none" x1="952" x2="977" y1="522" y2="522" stroke-dasharray="none" stroke="black"/>
<line clip-path="url(#clipPath1)" fill="none" x1="977" x2="1002" y1="522" y2="522" stroke-dasharray="none" stroke="black"/>
<line clip-path="url(#clipPath1)" fill="none" x1="1002" x2="1027" y1="522" y2="522" stroke-dasharray="none" stroke="black"/>
<line clip-path="url(#clipPath1)" fill="none" x1="1027" x2="1052" y1="522" y2="522" stroke-dasharray="none" stroke="black"/>
<line clip-path="url(#clipPath1)" fill="none" x1="1052" x2="1077" y1="522" y2="522" stroke-dasharray="none" stroke="black"/>
<line clip-path="url(#clipPath1)" fill="none" x1="1077" x2="1103" y1="522" y2="522" stroke-dasharray="none" stroke="black"/>
<line clip-path="url(#clipPath1)" fill="none" x1="1103" x2="1128" y1="522" y2="522" stroke-dasharray="none" stroke="black"/>
<line clip-path="url(#clipPath1)" fill="none" x1="1128" x2="1153" y1="522" y2="522" stroke-dasharray="none" stroke="black"/>
<line clip-path="url(#clipPath1)" fill="none" x1="1153" x2="1178" y1="522" y2="522" stroke-dasharray="none" stroke="black"/>
<line clip-path="url(#clipPath1)" fill="none" x1="1178" x2="1203" y1="522" y2="522" stroke-dasharray="none" stroke="black"/>
<line clip-path="url(#clipPath1)" fill="none" x1="1203" x2="1228" y1="522" y2="522" stroke-dasharray="none" stroke="black"/>
<line clip-path="url(#clipPath1)" fill="none" x1="1228" x2="1254" y1="522" y2="522" stroke-dasharray="none" stroke="black"/>
<line clip-path="url(#clipPath1)" fill="none" x1="1254" x2="1279" y1="522" y2="522" stroke-dasharray="none" stroke="black"/>
<line clip-path="url(#clipPath1)" fill="none" x1="1279" x2="1304" y1="522" y2="522" stroke-dasharray="none" stroke="black"/>
<line clip-path="url(#clipPath1)" fill="none" x1="1304" x2="1329" y1="522" y2="522" stroke-dasharray="none" stroke="black"/>
<line clip-path="url(#clipPath1)" fill="none" x1="1329" x2="1354" y1="522" y2="522" stroke-dasharray="none" stroke="black"/>
<line clip-path="url(#clipPath1)" fill="none" x1="1354" x2="1379" y1="522" y2="522" stroke-dasharray="none" stroke="black"/>
<line clip-path="url(#clipPath1)" fill="none" x1="1379" x2="1404" y1="522" y2="522" stroke-dasharray="none" stroke="black"/>
<line clip-path="url(#clipPath1)" fill="none" x1="1404" x2="1430" y1="522" y2="522" stroke-dasharray="none" stroke="black"/>
<line clip-path="url(#clipPath1)" fill="none" x1="1430" x2="1455" y1="522" y2="522" stroke-dasharray="none" stroke="black"/>
<line clip-path="url(#clipPath1)" fill="none" x1="1455" x2="1480" y1="522" y2="522" stroke-dasharray="none" stroke="black"/>
<line clip-path="url(#clipPath1)" fill="none" x1="1480" x2="1505" y1="522" y2="522" stroke-dasharray="none" stroke="black"/>
<line clip-path="url(#clipPath1)" fill="none" x1="1505" x2="1530" y1="522" y2="522" stroke-dasharray="none" stroke="black"/>
<line clip-path="url(#clipPath1)" fill="none" x1="1530" x2="1555" y1="522" y2="522" stroke-dasharray="none" stroke="black"/>
<line clip-path="url(#clipPath1)" fill="none" x1="1555" x2="1580" y1="522" y2="522" stroke-dasharray="none" stroke="black"/>
<line clip-path="url(#clipPath1)" fill="none" x1="1580" x2="1606" y1="522" y2="522" stroke-dasharray="none" stroke="black"/>
<line clip-path="url(#clipPath1)" fill="none" x1="1606" x2="1631" y1="522" y2="522" stroke-dasharray="none" stroke="black"/>
<line clip-path="url(#clipPath1)" fill="none" x1="1631" x2="1656" y1="522" y2="522" stroke-dasharray="none" stroke="black"/>
<line clip-path="url(#clipPath1)" fill="none" x1="1656" x2="1681" y1="522" y2="522" stroke-dasharray="none" stroke="black"/>
<line clip-path="url(#clipPath1)" fill="none" x1="1681" x2="1706" y1="522" y2="522" stroke-dasharray="none" stroke="black"/>
<line clip-path="url(#clipPath1)" fill="none" x1="1706" x2="1731" y1="522" y2="522" stroke-dasharray="none" stroke="black"/>
<line clip-path="url(#clipPath1)" fill="none" x1="1731" x2="1756" y1="522" y2="522" stroke-dasharray="none" stroke="black"/>
<line clip-path="url(#clipPath1)" fill="none" x1="1756" x2="1782" y1="522" y2="522" stroke-dasharray="none" stroke="black"/>
<line clip-path="url(#clipPath1)" fill="none" x1="1782" x2="1807" y1="522" y2="522" stroke-dasharray="none" stroke="black"/>
<rect x="26" y="22" clip-path="url(#clipPath2)" fill="none" width="654" stroke-dasharray="none" height="500" stroke="black"/>
</g>
<g text-rendering="geometricPrecision" font-size="13" font-family="'Arial'" stroke-linecap="butt">
<line clip-path="url(#clipPath2)" fill="none" x1="26" x2="680" y1="20" y2="20"/>
<line clip-path="url(#clipPath2)" fill="none" x1="26" x2="680" y1="524" y2="524"/>
<line clip-path="url(#clipPath2)" fill="none" x1="34" x2="34" y1="18" y2="20"/>
<line clip-path="url(#clipPath2)" fill="none" x1="34" x2="34" y1="526" y2="524"/>
<line clip-path="url(#clipPath2)" fill="none" x1="45" x2="45" y1="18" y2="20"/>
<line clip-path="url(#clipPath2)" fill="none" x1="45" x2="45" y1="526" y2="524"/>
<line clip-path="url(#clipPath2)" fill="none" x1="55" x2="55" y1="18" y2="20"/>
<line clip-path="url(#clipPath2)" fill="none" x1="55" x2="55" y1="526" y2="524"/>
<line clip-path="url(#clipPath2)" fill="none" x1="66" x2="66" y1="16" y2="20"/>
<line clip-path="url(#clipPath2)" fill="none" x1="66" x2="66" y1="528" y2="524"/>
<text font-size="11" x="47" y="13" clip-path="url(#clipPath2)" stroke="none" xml:space="preserve">0.000310</text>
<text font-size="11" x="47" y="539" clip-path="url(#clipPath2)" stroke="none" xml:space="preserve">0.000310</text>
<line clip-path="url(#clipPath2)" fill="none" x1="76" x2="76" y1="18" y2="20"/>
<line clip-path="url(#clipPath2)" fill="none" x1="76" x2="76" y1="526" y2="524"/>
<line clip-path="url(#clipPath2)" fill="none" x1="87" x2="87" y1="18" y2="20"/>
<line clip-path="url(#clipPath2)" fill="none" x1="87" x2="87" y1="526" y2="524"/>
<line clip-path="url(#clipPath2)" fill="none" x1="98" x2="98" y1="18" y2="20"/>
<line clip-path="url(#clipPath2)" fill="none" x1="98" x2="98" y1="526" y2="524"/>
<line clip-path="url(#clipPath2)" fill="none" x1="108" x2="108" y1="18" y2="20"/>
<line clip-path="url(#clipPath2)" fill="none" x1="108" x2="108" y1="526" y2="524"/>
<line clip-path="url(#clipPath2)" fill="none" x1="119" x2="119" y1="16" y2="20"/>
<line clip-path="url(#clipPath2)" fill="none" x1="119" x2="119" y1="528" y2="524"/>
<text font-size="11" x="100" y="13" clip-path="url(#clipPath2)" stroke="none" xml:space="preserve">0.000315</text>
<text font-size="11" x="100" y="539" clip-path="url(#clipPath2)" stroke="none" xml:space="preserve">0.000315</text>
<line clip-path="url(#clipPath2)" fill="none" x1="129" x2="129" y1="18" y2="20"/>
<line clip-path="url(#clipPath2)" fill="none" x1="129" x2="129" y1="526" y2="524"/>
<line clip-path="url(#clipPath2)" fill="none" x1="140" x2="140" y1="18" y2="20"/>
<line clip-path="url(#clipPath2)" fill="none" x1="140" x2="140" y1="526" y2="524"/>
<line clip-path="url(#clipPath2)" fill="none" x1="151" x2="151" y1="18" y2="20"/>
<line clip-path="url(#clipPath2)" fill="none" x1="151" x2="151" y1="526" y2="524"/>
<line clip-path="url(#clipPath2)" fill="none" x1="161" x2="161" y1="18" y2="20"/>
<line clip-path="url(#clipPath2)" fill="none" x1="161" x2="161" y1="526" y2="524"/>
<line clip-path="url(#clipPath2)" fill="none" x1="172" x2="172" y1="16" y2="20"/>
<line clip-path="url(#clipPath2)" fill="none" x1="172" x2="172" y1="528" y2="524"/>
<text font-size="11" x="153" y="13" clip-path="url(#clipPath2)" stroke="none" xml:space="preserve">0.000320</text>
<text font-size="11" x="153" y="539" clip-path="url(#clipPath2)" stroke="none" xml:space="preserve">0.000320</text>
<line clip-path="url(#clipPath2)" fill="none" x1="182" x2="182" y1="18" y2="20"/>
<line clip-path="url(#clipPath2)" fill="none" x1="182" x2="182" y1="526" y2="524"/>
<line clip-path="url(#clipPath2)" fill="none" x1="193" x2="193" y1="18" y2="20"/>
<line clip-path="url(#clipPath2)" fill="none" x1="193" x2="193" y1="526" y2="524"/>
<line clip-path="url(#clipPath2)" fill="none" x1="204" x2="204" y1="18" y2="20"/>
<line clip-path="url(#clipPath2)" fill="none" x1="204" x2="204" y1="526" y2="524"/>
<line clip-path="url(#clipPath2)" fill="none" x1="214" x2="214" y1="18" y2="20"/>
<line clip-path="url(#clipPath2)" fill="none" x1="214" x2="214" y1="526" y2="524"/>
<line clip-path="url(#clipPath2)" fill="none" x1="225" x2="225" y1="16" y2="20"/>
<line clip-path="url(#clipPath2)" fill="none" x1="225" x2="225" y1="528" y2="524"/>
<text font-size="11" x="206" y="13" clip-path="url(#clipPath2)" stroke="none" xml:space="preserve">0.000325</text>
<text font-size="11" x="206" y="539" clip-path="url(#clipPath2)" stroke="none" xml:space="preserve">0.000325</text>
<line clip-path="url(#clipPath2)" fill="none" x1="235" x2="235" y1="18" y2="20"/>
<line clip-path="url(#clipPath2)" fill="none" x1="235" x2="235" y1="526" y2="524"/>
<line clip-path="url(#clipPath2)" fill="none" x1="246" x2="246" y1="18" y2="20"/>
<line clip-path="url(#clipPath2)" fill="none" x1="246" x2="246" y1="526" y2="524"/>
<line clip-path="url(#clipPath2)" fill="none" x1="257" x2="257" y1="18" y2="20"/>
<line clip-path="url(#clipPath2)" fill="none" x1="257" x2="257" y1="526" y2="524"/>
<line clip-path="url(#clipPath2)" fill="none" x1="267" x2="267" y1="18" y2="20"/>
<line clip-path="url(#clipPath2)" fill="none" x1="267" x2="267" y1="526" y2="524"/>
<line clip-path="url(#clipPath2)" fill="none" x1="278" x2="278" y1="16" y2="20"/>
<line clip-path="url(#clipPath2)" fill="none" x1="278" x2="278" y1="528" y2="524"/>
<text font-size="11" x="259" y="13" clip-path="url(#clipPath2)" stroke="none" xml:space="preserve">0.000330</text>
<text font-size="11" x="259" y="539" clip-path="url(#clipPath2)" stroke="none" xml:space="preserve">0.000330</text>
<line clip-path="url(#clipPath2)" fill="none" x1="289" x2="289" y1="18" y2="20"/>
<line clip-path="url(#clipPath2)" fill="none" x1="289" x2="289" y1="526" y2="524"/>
<line clip-path="url(#clipPath2)" fill="none" x1="299" x2="299" y1="18" y2="20"/>
<line clip-path="url(#clipPath2)" fill="none" x1="299" x2="299" y1="526" y2="524"/>
<line clip-path="url(#clipPath2)" fill="none" x1="310" x2="310" y1="18" y2="20"/>
<line clip-path="url(#clipPath2)" fill="none" x1="310" x2="310" y1="526" y2="524"/>
<line clip-path="url(#clipPath2)" fill="none" x1="320" x2="320" y1="18" y2="20"/>
<line clip-path="url(#clipPath2)" fill="none" x1="320" x2="320" y1="526" y2="524"/>
<line clip-path="url(#clipPath2)" fill="none" x1="331" x2="331" y1="16" y2="20"/>
<line clip-path="url(#clipPath2)" fill="none" x1="331" x2="331" y1="528" y2="524"/>
<text font-size="11" x="312" y="13" clip-path="url(#clipPath2)" stroke="none" xml:space="preserve">0.000335</text>
<text font-size="11" x="312" y="539" clip-path="url(#clipPath2)" stroke="none" xml:space="preserve">0.000335</text>
<line clip-path="url(#clipPath2)" fill="none" x1="342" x2="342" y1="18" y2="20"/>
<line clip-path="url(#clipPath2)" fill="none" x1="342" x2="342" y1="526" y2="524"/>
<line clip-path="url(#clipPath2)" fill="none" x1="352" x2="352" y1="18" y2="20"/>
<line clip-path="url(#clipPath2)" fill="none" x1="352" x2="352" y1="526" y2="524"/>
<line clip-path="url(#clipPath2)" fill="none" x1="363" x2="363" y1="18" y2="20"/>
<line clip-path="url(#clipPath2)" fill="none" x1="363" x2="363" y1="526" y2="524"/>
<line clip-path="url(#clipPath2)" fill="none" x1="373" x2="373" y1="18" y2="20"/>
<line clip-path="url(#clipPath2)" fill="none" x1="373" x2="373" y1="526" y2="524"/>
<line clip-path="url(#clipPath2)" fill="none" x1="384" x2="384" y1="16" y2="20"/>
<line clip-path="url(#clipPath2)" fill="none" x1="384" x2="384" y1="528" y2="524"/>
<text font-size="11" x="365" y="13" clip-path="url(#clipPath2)" stroke="none" xml:space="preserve">0.000340</text>
<text font-size="11" x="365" y="539" clip-path="url(#clipPath2)" stroke="none" xml:space="preserve">0.000340</text>
<line clip-path="url(#clipPath2)" fill="none" x1="395" x2="395" y1="18" y2="20"/>
<line clip-path="url(#clipPath2)" fill="none" x1="395" x2="395" y1="526" y2="524"/>
<line clip-path="url(#clipPath2)" fill="none" x1="405" x2="405" y1="18" y2="20"/>
<line clip-path="url(#clipPath2)" fill="none" x1="405" x2="405" y1="526" y2="524"/>
<line clip-path="url(#clipPath2)" fill="none" x1="416" x2="416" y1="18" y2="20"/>
<line clip-path="url(#clipPath2)" fill="none" x1="416" x2="416" y1="526" y2="524"/>
<line clip-path="url(#clipPath2)" fill="none" x1="426" x2="426" y1="18" y2="20"/>
<line clip-path="url(#clipPath2)" fill="none" x1="426" x2="426" y1="526" y2="524"/>
<line clip-path="url(#clipPath2)" fill="none" x1="437" x2="437" y1="16" y2="20"/>
<line clip-path="url(#clipPath2)" fill="none" x1="437" x2="437" y1="528" y2="524"/>
<text font-size="11" x="418" y="13" clip-path="url(#clipPath2)" stroke="none" xml:space="preserve">0.000345</text>
<text font-size="11" x="418" y="539" clip-path="url(#clipPath2)" stroke="none" xml:space="preserve">0.000345</text>
<line clip-path="url(#clipPath2)" fill="none" x1="448" x2="448" y1="18" y2="20"/>
<line clip-path="url(#clipPath2)" fill="none" x1="448" x2="448" y1="526" y2="524"/>
<line clip-path="url(#clipPath2)" fill="none" x1="458" x2="458" y1="18" y2="20"/>
<line clip-path="url(#clipPath2)" fill="none" x1="458" x2="458" y1="526" y2="524"/>
<line clip-path="url(#clipPath2)" fill="none" x1="469" x2="469" y1="18" y2="20"/>
<line clip-path="url(#clipPath2)" fill="none" x1="469" x2="469" y1="526" y2="524"/>
<line clip-path="url(#clipPath2)" fill="none" x1="479" x2="479" y1="18" y2="20"/>
<line clip-path="url(#clipPath2)" fill="none" x1="479" x2="479" y1="526" y2="524"/>
<line clip-path="url(#clipPath2)" fill="none" x1="490" x2="490" y1="16" y2="20"/>
<line clip-path="url(#clipPath2)" fill="none" x1="490" x2="490" y1="528" y2="524"/>
<text font-size="11" x="471" y="13" clip-path="url(#clipPath2)" stroke="none" xml:space="preserve">0.000350</text>
<text font-size="11" x="471" y="539" clip-path="url(#clipPath2)" stroke="none" xml:space="preserve">0.000350</text>
<line clip-path="url(#clipPath2)" fill="none" x1="501" x2="501" y1="18" y2="20"/>
<line clip-path="url(#clipPath2)" fill="none" x1="501" x2="501" y1="526" y2="524"/>
<line clip-path="url(#clipPath2)" fill="none" x1="511" x2="511" y1="18" y2="20"/>
<line clip-path="url(#clipPath2)" fill="none" x1="511" x2="511" y1="526" y2="524"/>
<line clip-path="url(#clipPath2)" fill="none" x1="522" x2="522" y1="18" y2="20"/>
<line clip-path="url(#clipPath2)" fill="none" x1="522" x2="522" y1="526" y2="524"/>
<line clip-path="url(#clipPath2)" fill="none" x1="532" x2="532" y1="18" y2="20"/>
<line clip-path="url(#clipPath2)" fill="none" x1="532" x2="532" y1="526" y2="524"/>
<line clip-path="url(#clipPath2)" fill="none" x1="543" x2="543" y1="16" y2="20"/>
<line clip-path="url(#clipPath2)" fill="none" x1="543" x2="543" y1="528" y2="524"/>
<text font-size="11" x="524" y="13" clip-path="url(#clipPath2)" stroke="none" xml:space="preserve">0.000355</text>
<text font-size="11" x="524" y="539" clip-path="url(#clipPath2)" stroke="none" xml:space="preserve">0.000355</text>
<line clip-path="url(#clipPath2)" fill="none" x1="554" x2="554" y1="18" y2="20"/>
<line clip-path="url(#clipPath2)" fill="none" x1="554" x2="554" y1="526" y2="524"/>
<line clip-path="url(#clipPath2)" fill="none" x1="564" x2="564" y1="18" y2="20"/>
<line clip-path="url(#clipPath2)" fill="none" x1="564" x2="564" y1="526" y2="524"/>
<line clip-path="url(#clipPath2)" fill="none" x1="575" x2="575" y1="18" y2="20"/>
<line clip-path="url(#clipPath2)" fill="none" x1="575" x2="575" y1="526" y2="524"/>
<line clip-path="url(#clipPath2)" fill="none" x1="586" x2="586" y1="18" y2="20"/>
<line clip-path="url(#clipPath2)" fill="none" x1="586" x2="586" y1="526" y2="524"/>
<line clip-path="url(#clipPath2)" fill="none" x1="596" x2="596" y1="16" y2="20"/>
<line clip-path="url(#clipPath2)" fill="none" x1="596" x2="596" y1="528" y2="524"/>
<text font-size="11" x="577" y="13" clip-path="url(#clipPath2)" stroke="none" xml:space="preserve">0.000360</text>
<text font-size="11" x="577" y="539" clip-path="url(#clipPath2)" stroke="none" xml:space="preserve">0.000360</text>
<line clip-path="url(#clipPath2)" fill="none" x1="607" x2="607" y1="18" y2="20"/>
<line clip-path="url(#clipPath2)" fill="none" x1="607" x2="607" y1="526" y2="524"/>
<line clip-path="url(#clipPath2)" fill="none" x1="617" x2="617" y1="18" y2="20"/>
<line clip-path="url(#clipPath2)" fill="none" x1="617" x2="617" y1="526" y2="524"/>
<line clip-path="url(#clipPath2)" fill="none" x1="628" x2="628" y1="18" y2="20"/>
<line clip-path="url(#clipPath2)" fill="none" x1="628" x2="628" y1="526" y2="524"/>
<line clip-path="url(#clipPath2)" fill="none" x1="639" x2="639" y1="18" y2="20"/>
<line clip-path="url(#clipPath2)" fill="none" x1="639" x2="639" y1="526" y2="524"/>
<line clip-path="url(#clipPath2)" fill="none" x1="649" x2="649" y1="16" y2="20"/>
<line clip-path="url(#clipPath2)" fill="none" x1="649" x2="649" y1="528" y2="524"/>
<text font-size="11" x="630" y="13" clip-path="url(#clipPath2)" stroke="none" xml:space="preserve">0.000365</text>
<text font-size="11" x="630" y="539" clip-path="url(#clipPath2)" stroke="none" xml:space="preserve">0.000365</text>
<line clip-path="url(#clipPath2)" fill="none" x1="660" x2="660" y1="18" y2="20"/>
<line clip-path="url(#clipPath2)" fill="none" x1="660" x2="660" y1="526" y2="524"/>
<line clip-path="url(#clipPath2)" fill="none" x1="670" x2="670" y1="18" y2="20"/>
<line clip-path="url(#clipPath2)" fill="none" x1="670" x2="670" y1="526" y2="524"/>
<line clip-path="url(#clipPath2)" fill="none" x1="24" x2="24" y1="22" y2="522"/>
<line clip-path="url(#clipPath2)" fill="none" x1="682" x2="682" y1="22" y2="522"/>
<line clip-path="url(#clipPath2)" fill="none" x1="20" x2="24" y1="522" y2="522"/>
<line clip-path="url(#clipPath2)" fill="none" x1="686" x2="682" y1="522" y2="522"/>
<text font-size="11" x="14" y="526" clip-path="url(#clipPath2)" stroke="none" xml:space="preserve">0</text>
<text font-size="11" x="689" y="526" clip-path="url(#clipPath2)" stroke="none" xml:space="preserve">0</text>
<line clip-path="url(#clipPath2)" fill="none" x1="22" x2="24" y1="474" y2="474"/>
<line clip-path="url(#clipPath2)" fill="none" x1="684" x2="682" y1="474" y2="474"/>
<line clip-path="url(#clipPath2)" fill="none" x1="20" x2="24" y1="426" y2="426"/>
<line clip-path="url(#clipPath2)" fill="none" x1="686" x2="682" y1="426" y2="426"/>
<text font-size="11" x="14" y="430" clip-path="url(#clipPath2)" stroke="none" xml:space="preserve">2</text>
<text font-size="11" x="689" y="430" clip-path="url(#clipPath2)" stroke="none" xml:space="preserve">2</text>
<line clip-path="url(#clipPath2)" fill="none" x1="22" x2="24" y1="377" y2="377"/>
<line clip-path="url(#clipPath2)" fill="none" x1="684" x2="682" y1="377" y2="377"/>
<line clip-path="url(#clipPath2)" fill="none" x1="20" x2="24" y1="329" y2="329"/>
<line clip-path="url(#clipPath2)" fill="none" x1="686" x2="682" y1="329" y2="329"/>
<text font-size="11" x="14" y="333" clip-path="url(#clipPath2)" stroke="none" xml:space="preserve">4</text>
<text font-size="11" x="689" y="333" clip-path="url(#clipPath2)" stroke="none" xml:space="preserve">4</text>
<line clip-path="url(#clipPath2)" fill="none" x1="22" x2="24" y1="280" y2="280"/>
<line clip-path="url(#clipPath2)" fill="none" x1="684" x2="682" y1="280" y2="280"/>
<line clip-path="url(#clipPath2)" fill="none" x1="20" x2="24" y1="232" y2="232"/>
<line clip-path="url(#clipPath2)" fill="none" x1="686" x2="682" y1="232" y2="232"/>
<text font-size="11" x="14" y="236" clip-path="url(#clipPath2)" stroke="none" xml:space="preserve">6</text>
<text font-size="11" x="689" y="236" clip-path="url(#clipPath2)" stroke="none" xml:space="preserve">6</text>
<line clip-path="url(#clipPath2)" fill="none" x1="22" x2="24" y1="183" y2="183"/>
<line clip-path="url(#clipPath2)" fill="none" x1="684" x2="682" y1="183" y2="183"/>
<line clip-path="url(#clipPath2)" fill="none" x1="20" x2="24" y1="135" y2="135"/>
<line clip-path="url(#clipPath2)" fill="none" x1="686" x2="682" y1="135" y2="135"/>
<text font-size="11" x="14" y="139" clip-path="url(#clipPath2)" stroke="none" xml:space="preserve">8</text>
<text font-size="11" x="689" y="139" clip-path="url(#clipPath2)" stroke="none" xml:space="preserve">8</text>
<line clip-path="url(#clipPath2)" fill="none" x1="22" x2="24" y1="86" y2="86"/>
<line clip-path="url(#clipPath2)" fill="none" x1="684" x2="682" y1="86" y2="86"/>
<line clip-path="url(#clipPath2)" fill="none" x1="20" x2="24" y1="38" y2="38"/>
<line clip-path="url(#clipPath2)" fill="none" x1="686" x2="682" y1="38" y2="38"/>
<text font-size="11" x="9" y="42" clip-path="url(#clipPath2)" stroke="none" xml:space="preserve">10</text>
<text font-size="11" x="689" y="42" clip-path="url(#clipPath2)" stroke="none" xml:space="preserve">10</text>
</g>
</g>
</svg>
