<?xml version="1.0" encoding="UTF-8"?><svg xmlns="http://www.w3.org/2000/svg" xmlns:xlink="http://www.w3.org/1999/xlink" stroke-dasharray="none" shape-rendering="auto" font-family="'Dialog'" width="788" text-rendering="auto" fill-opacity="1" contentScriptType="text/ecmascript" color-interpolation="auto" color-rendering="auto" preserveAspectRatio="xMidYMid meet" font-size="12" fill="black" stroke="black" image-rendering="auto" stroke-miterlimit="10" zoomAndPan="magnify" version="1.0" stroke-linecap="square" stroke-linejoin="miter" contentStyleType="text/css" font-style="normal" height="520" stroke-width="1" stroke-dashoffset="0" font-weight="normal" stroke-opacity="1">
<!--Generated by the Batik Graphics2D SVG Generator-->
<defs id="genericDefs"/>
<g>
<defs id="defs1">
<clipPath clipPathUnits="userSpaceOnUse" id="clipPath1">
<path d="M25 21 L763 21 L763 499 L25 499 L25 21 Z"/>
</clipPath>
<clipPath clipPathUnits="userSpaceOnUse" id="clipPath2">
<path d="M-1 -1 L789 -1 L789 521 L-1 521 L-1 -1 Z"/>
</clipPath>
</defs>
<g font-size="15" fill="white" text-rendering="geometricPrecision" font-family="'Cantarell'" stroke-linejoin="round" stroke="white" stroke-width="0" stroke-miterlimit="0">
<rect x="26" y="22" clip-path="url(#clipPath1)" width="736" height="476" stroke="none"/>
</g>
<g font-size="15" stroke-linecap="butt" fill="rgb(204,204,204)" text-rendering="geometricPrecision" font-family="'Cantarell'" stroke-dasharray="3,3" stroke="rgb(204,204,204)">
<line clip-path="url(#clipPath1)" fill="none" x1="26" x2="762" y1="498" y2="498"/>
<line clip-path="url(#clipPath1)" fill="none" x1="26" x2="762" y1="424" y2="424"/>
<line clip-path="url(#clipPath1)" fill="none" x1="26" x2="762" y1="351" y2="351"/>
<line clip-path="url(#clipPath1)" fill="none" x1="26" x2="762" y1="277" y2="277"/>
<line clip-path="url(#clipPath1)" fill="none" x1="26" x2="762" y1="204" y2="204"/>
<line clip-path="url(#clipPath1)" fill="none" x1="26" x2="762" y1="130" y2="130"/>
<line clip-path="url(#clipPath1)" fill="none" x1="26" x2="762" y1="57" y2="57"/>
<line clip-path="url(#clipPath1)" fill="none" x1="-1320" x2="-1308" y1="498" y2="498" stroke-dasharray="none" stroke="black"/>
<line clip-path="url(#clipPath1)" fill="none" x1="-1308" x2="-1296" y1="498" y2="498" stroke-dasharray="none" stroke="black"/>
<line clip-path="url(#clipPath1)" fill="none" x1="-1296" x2="-1284" y1="498" y2="498" stroke-dasharray="none" stroke="black"/>
<line clip-path="url(#clipPath1)" fill="none" x1="-1284" x2="-1273" y1="498" y2="498" stroke-dasharray="none" stroke="black"/>
<line clip-path="url(#clipPath1)" fill="none" x1="-1273" x2="-1261" y1="498" y2="498" stroke-dasharray="none" stroke="black"/>
<line clip-path="url(#clipPath1)" fill="none" x1="-1261" x2="-1249" y1="498" y2="498" stroke-dasharray="none" stroke="black"/>
<line clip-path="url(#clipPath1)" fill="none" x1="-1249" x2="-1238" y1="498" y2="498" stroke-dasharray="none" stroke="black"/>
<line clip-path="url(#clipPath1)" fill="none" x1="-1238" x2="-1226" y1="498" y2="498" stroke-dasharray="none" stroke="black"/>
<line clip-path="url(#clipPath1)" fill="none" x1="-1226" x2="-1214" y1="498" y2="498" stroke-dasharray="none" stroke="black"/>
<line clip-path="url(#clipPath1)" fill="none" x1="-1214" x2="-1203" y1="498" y2="498" stroke-dasharray="none" stroke="black"/>
<line clip-path="url(#clipPath1)" fill="none" x1="-1203" x2="-1191" y1="498" y2="498" stroke-dasharray="none" stroke="black"/>
<line clip-path="url(#clipPath1)" fill="none" x1="-1191" x2="-1179" y1="498" y2="498" stroke-dasharray="none" stroke="black"/>
<line clip-path="url(#clipPath1)" fill="none" x1="-1179" x2="-1168" y1="498" y2="498" stroke-dasharray="none" stroke="black"/>
<line clip-path="url(#clipPath1)" fill="none" x1="-1168" x2="-1156" y1="498" y2="498" stroke-dasharray="none" stroke="black"/>
<line clip-path="url(#clipPath1)" fill="none" x1="-1156" x2="-1144" y1="498" y2="498" stroke-dasharray="none" stroke="black"/>
<line clip-path="url(#clipPath1)" fill="none" x1="-1144" x2="-1132" y1="498" y2="498" stroke-dasharray="none" stroke="black"/>
<line clip-path="url(#clipPath1)" fill="none" x1="-1132" x2="-1121" y1="498" y2="498" stroke-dasharray="none" stroke="black"/>
<line clip-path="url(#clipPath1)" fill="none" x1="-1121" x2="-1109" y1="498" y2="498" stroke-dasharray="none" stroke="black"/>
<line clip-path="url(#clipPath1)" fill="none" x1="-1109" x2="-1097" y1="498" y2="498" stroke-dasharray="none" stroke="black"/>
<line clip-path="url(#clipPath1)" fill="none" x1="-1097" x2="-1086" y1="498" y2="498" stroke-dasharray="none" stroke="black"/>
<line clip-path="url(#clipPath1)" fill="none" x1="-1086" x2="-1074" y1="498" y2="498" stroke-dasharray="none" stroke="black"/>
<line clip-path="url(#clipPath1)" fill="none" x1="-1074" x2="-1062" y1="498" y2="498" stroke-dasharray="none" stroke="black"/>
<line clip-path="url(#clipPath1)" fill="none" x1="-1062" x2="-1051" y1="498" y2="498" stroke-dasharray="none" stroke="black"/>
<line clip-path="url(#clipPath1)" fill="none" x1="-1051" x2="-1039" y1="498" y2="498" stroke-dasharray="none" stroke="black"/>
<line clip-path="url(#clipPath1)" fill="none" x1="-1039" x2="-1027" y1="498" y2="498" stroke-dasharray="none" stroke="black"/>
<line clip-path="url(#clipPath1)" fill="none" x1="-1027" x2="-1016" y1="498" y2="498" stroke-dasharray="none" stroke="black"/>
<line clip-path="url(#clipPath1)" fill="none" x1="-1016" x2="-1004" y1="498" y2="498" stroke-dasharray="none" stroke="black"/>
<line clip-path="url(#clipPath1)" fill="none" x1="-1004" x2="-992" y1="498" y2="498" stroke-dasharray="none" stroke="black"/>
<line clip-path="url(#clipPath1)" fill="none" x1="-992" x2="-980" y1="498" y2="498" stroke-dasharray="none" stroke="black"/>
<line clip-path="url(#clipPath1)" fill="none" x1="-980" x2="-969" y1="498" y2="498" stroke-dasharray="none" stroke="black"/>
<line clip-path="url(#clipPath1)" fill="none" x1="-969" x2="-957" y1="498" y2="498" stroke-dasharray="none" stroke="black"/>
<line clip-path="url(#clipPath1)" fill="none" x1="-957" x2="-945" y1="498" y2="498" stroke-dasharray="none" stroke="black"/>
<line clip-path="url(#clipPath1)" fill="none" x1="-945" x2="-934" y1="498" y2="498" stroke-dasharray="none" stroke="black"/>
<line clip-path="url(#clipPath1)" fill="none" x1="-934" x2="-922" y1="498" y2="498" stroke-dasharray="none" stroke="black"/>
<line clip-path="url(#clipPath1)" fill="none" x1="-922" x2="-910" y1="498" y2="498" stroke-dasharray="none" stroke="black"/>
<line clip-path="url(#clipPath1)" fill="none" x1="-910" x2="-899" y1="498" y2="498" stroke-dasharray="none" stroke="black"/>
<line clip-path="url(#clipPath1)" fill="none" x1="-899" x2="-887" y1="498" y2="498" stroke-dasharray="none" stroke="black"/>
<line clip-path="url(#clipPath1)" fill="none" x1="-887" x2="-875" y1="498" y2="498" stroke-dasharray="none" stroke="black"/>
<line clip-path="url(#clipPath1)" fill="none" x1="-875" x2="-864" y1="498" y2="498" stroke-dasharray="none" stroke="black"/>
<line clip-path="url(#clipPath1)" fill="none" x1="-864" x2="-852" y1="498" y2="498" stroke-dasharray="none" stroke="black"/>
<line clip-path="url(#clipPath1)" fill="none" x1="-852" x2="-840" y1="498" y2="498" stroke-dasharray="none" stroke="black"/>
<line clip-path="url(#clipPath1)" fill="none" x1="-840" x2="-828" y1="498" y2="498" stroke-dasharray="none" stroke="black"/>
<line clip-path="url(#clipPath1)" fill="none" x1="-828" x2="-817" y1="498" y2="498" stroke-dasharray="none" stroke="black"/>
<line clip-path="url(#clipPath1)" fill="none" x1="-817" x2="-805" y1="498" y2="498" stroke-dasharray="none" stroke="black"/>
<line clip-path="url(#clipPath1)" fill="none" x1="-805" x2="-793" y1="498" y2="498" stroke-dasharray="none" stroke="black"/>
<line clip-path="url(#clipPath1)" fill="none" x1="-793" x2="-782" y1="498" y2="498" stroke-dasharray="none" stroke="black"/>
<line clip-path="url(#clipPath1)" fill="none" x1="-782" x2="-770" y1="498" y2="498" stroke-dasharray="none" stroke="black"/>
<line clip-path="url(#clipPath1)" fill="none" x1="-770" x2="-758" y1="498" y2="498" stroke-dasharray="none" stroke="black"/>
<line clip-path="url(#clipPath1)" fill="none" x1="-758" x2="-747" y1="498" y2="498" stroke-dasharray="none" stroke="black"/>
<line clip-path="url(#clipPath1)" fill="none" x1="-747" x2="-735" y1="498" y2="498" stroke-dasharray="none" stroke="black"/>
<line clip-path="url(#clipPath1)" fill="none" x1="-735" x2="-723" y1="498" y2="498" stroke-dasharray="none" stroke="black"/>
<line clip-path="url(#clipPath1)" fill="none" x1="-723" x2="-712" y1="498" y2="498" stroke-dasharray="none" stroke="black"/>
<line clip-path="url(#clipPath1)" fill="none" x1="-712" x2="-700" y1="498" y2="498" stroke-dasharray="none" stroke="black"/>
<line clip-path="url(#clipPath1)" fill="none" x1="-700" x2="-688" y1="498" y2="498" stroke-dasharray="none" stroke="black"/>
<line clip-path="url(#clipPath1)" fill="none" x1="-688" x2="-677" y1="498" y2="498" stroke-dasharray="none" stroke="black"/>
<line clip-path="url(#clipPath1)" fill="none" x1="-677" x2="-665" y1="498" y2="498" stroke-dasharray="none" stroke="black"/>
<line clip-path="url(#clipPath1)" fill="none" x1="-665" x2="-653" y1="498" y2="498" stroke-dasharray="none" stroke="black"/>
<line clip-path="url(#clipPath1)" fill="none" x1="-653" x2="-641" y1="498" y2="498" stroke-dasharray="none" stroke="black"/>
<line clip-path="url(#clipPath1)" fill="none" x1="-641" x2="-630" y1="498" y2="498" stroke-dasharray="none" stroke="black"/>
<line clip-path="url(#clipPath1)" fill="none" x1="-630" x2="-618" y1="498" y2="498" stroke-dasharray="none" stroke="black"/>
<line clip-path="url(#clipPath1)" fill="none" x1="-618" x2="-606" y1="498" y2="498" stroke-dasharray="none" stroke="black"/>
<line clip-path="url(#clipPath1)" fill="none" x1="-606" x2="-595" y1="498" y2="498" stroke-dasharray="none" stroke="black"/>
<line clip-path="url(#clipPath1)" fill="none" x1="-595" x2="-583" y1="498" y2="498" stroke-dasharray="none" stroke="black"/>
<line clip-path="url(#clipPath1)" fill="none" x1="-583" x2="-571" y1="498" y2="498" stroke-dasharray="none" stroke="black"/>
<line clip-path="url(#clipPath1)" fill="none" x1="-571" x2="-560" y1="498" y2="498" stroke-dasharray="none" stroke="black"/>
<line clip-path="url(#clipPath1)" fill="none" x1="-560" x2="-548" y1="498" y2="498" stroke-dasharray="none" stroke="black"/>
<line clip-path="url(#clipPath1)" fill="none" x1="-548" x2="-536" y1="498" y2="498" stroke-dasharray="none" stroke="black"/>
<line clip-path="url(#clipPath1)" fill="none" x1="-536" x2="-525" y1="498" y2="498" stroke-dasharray="none" stroke="black"/>
<line clip-path="url(#clipPath1)" fill="none" x1="-525" x2="-513" y1="498" y2="498" stroke-dasharray="none" stroke="black"/>
<line clip-path="url(#clipPath1)" fill="none" x1="-513" x2="-501" y1="498" y2="498" stroke-dasharray="none" stroke="black"/>
<line clip-path="url(#clipPath1)" fill="none" x1="-501" x2="-489" y1="498" y2="498" stroke-dasharray="none" stroke="black"/>
<line clip-path="url(#clipPath1)" fill="none" x1="-489" x2="-478" y1="498" y2="498" stroke-dasharray="none" stroke="black"/>
<line clip-path="url(#clipPath1)" fill="none" x1="-478" x2="-466" y1="498" y2="498" stroke-dasharray="none" stroke="black"/>
<line clip-path="url(#clipPath1)" fill="none" x1="-466" x2="-454" y1="498" y2="498" stroke-dasharray="none" stroke="black"/>
<line clip-path="url(#clipPath1)" fill="none" x1="-454" x2="-443" y1="498" y2="498" stroke-dasharray="none" stroke="black"/>
<line clip-path="url(#clipPath1)" fill="none" x1="-443" x2="-431" y1="498" y2="498" stroke-dasharray="none" stroke="black"/>
<line clip-path="url(#clipPath1)" fill="none" x1="-431" x2="-419" y1="498" y2="498" stroke-dasharray="none" stroke="black"/>
<line clip-path="url(#clipPath1)" fill="none" x1="-419" x2="-408" y1="498" y2="498" stroke-dasharray="none" stroke="black"/>
<line clip-path="url(#clipPath1)" fill="none" x1="-408" x2="-396" y1="498" y2="498" stroke-dasharray="none" stroke="black"/>
<line clip-path="url(#clipPath1)" fill="none" x1="-396" x2="-384" y1="498" y2="498" stroke-dasharray="none" stroke="black"/>
<line clip-path="url(#clipPath1)" fill="none" x1="-384" x2="-373" y1="498" y2="498" stroke-dasharray="none" stroke="black"/>
<line clip-path="url(#clipPath1)" fill="none" x1="-373" x2="-361" y1="498" y2="498" stroke-dasharray="none" stroke="black"/>
<line clip-path="url(#clipPath1)" fill="none" x1="-361" x2="-349" y1="498" y2="498" stroke-dasharray="none" stroke="black"/>
<line clip-path="url(#clipPath1)" fill="none" x1="-349" x2="-337" y1="498" y2="498" stroke-dasharray="none" stroke="black"/>
<line clip-path="url(#clipPath1)" fill="none" x1="-337" x2="-326" y1="498" y2="498" stroke-dasharray="none" stroke="black"/>
<line clip-path="url(#clipPath1)" fill="none" x1="-326" x2="-314" y1="498" y2="498" stroke-dasharray="none" stroke="black"/>
<line clip-path="url(#clipPath1)" fill="none" x1="-314" x2="-302" y1="498" y2="498" stroke-dasharray="none" stroke="black"/>
<line clip-path="url(#clipPath1)" fill="none" x1="-302" x2="-291" y1="498" y2="498" stroke-dasharray="none" stroke="black"/>
<line clip-path="url(#clipPath1)" fill="none" x1="-291" x2="-279" y1="498" y2="498" stroke-dasharray="none" stroke="black"/>
<line clip-path="url(#clipPath1)" fill="none" x1="-279" x2="-267" y1="498" y2="498" stroke-dasharray="none" stroke="black"/>
<line clip-path="url(#clipPath1)" fill="none" x1="-267" x2="-256" y1="498" y2="498" stroke-dasharray="none" stroke="black"/>
<line clip-path="url(#clipPath1)" fill="none" x1="-256" x2="-244" y1="498" y2="498" stroke-dasharray="none" stroke="black"/>
<line clip-path="url(#clipPath1)" fill="none" x1="-244" x2="-232" y1="498" y2="498" stroke-dasharray="none" stroke="black"/>
<line clip-path="url(#clipPath1)" fill="none" x1="-232" x2="-221" y1="498" y2="498" stroke-dasharray="none" stroke="black"/>
<line clip-path="url(#clipPath1)" fill="none" x1="-221" x2="-209" y1="498" y2="498" stroke-dasharray="none" stroke="black"/>
<line clip-path="url(#clipPath1)" fill="none" x1="-209" x2="-197" y1="498" y2="498" stroke-dasharray="none" stroke="black"/>
<line clip-path="url(#clipPath1)" fill="none" x1="-197" x2="-186" y1="498" y2="498" stroke-dasharray="none" stroke="black"/>
<line clip-path="url(#clipPath1)" fill="none" x1="-186" x2="-174" y1="498" y2="498" stroke-dasharray="none" stroke="black"/>
<line clip-path="url(#clipPath1)" fill="none" x1="-174" x2="-162" y1="498" y2="498" stroke-dasharray="none" stroke="black"/>
<line clip-path="url(#clipPath1)" fill="none" x1="-162" x2="-150" y1="498" y2="498" stroke-dasharray="none" stroke="black"/>
<line clip-path="url(#clipPath1)" fill="none" x1="-150" x2="-139" y1="498" y2="498" stroke-dasharray="none" stroke="black"/>
<line clip-path="url(#clipPath1)" fill="none" x1="-139" x2="-127" y1="498" y2="498" stroke-dasharray="none" stroke="black"/>
<line clip-path="url(#clipPath1)" fill="none" x1="-127" x2="-115" y1="498" y2="498" stroke-dasharray="none" stroke="black"/>
<line clip-path="url(#clipPath1)" fill="none" x1="-115" x2="-104" y1="498" y2="498" stroke-dasharray="none" stroke="black"/>
<line clip-path="url(#clipPath1)" fill="none" x1="-104" x2="-92" y1="498" y2="498" stroke-dasharray="none" stroke="black"/>
<line clip-path="url(#clipPath1)" fill="none" x1="-92" x2="-80" y1="498" y2="498" stroke-dasharray="none" stroke="black"/>
<line clip-path="url(#clipPath1)" fill="none" x1="-80" x2="-69" y1="498" y2="498" stroke-dasharray="none" stroke="black"/>
<line clip-path="url(#clipPath1)" fill="none" x1="-69" x2="-57" y1="498" y2="498" stroke-dasharray="none" stroke="black"/>
<line clip-path="url(#clipPath1)" fill="none" x1="-57" x2="-45" y1="498" y2="498" stroke-dasharray="none" stroke="black"/>
<line clip-path="url(#clipPath1)" fill="none" x1="-45" x2="-34" y1="498" y2="498" stroke-dasharray="none" stroke="black"/>
<line clip-path="url(#clipPath1)" fill="none" x1="-34" x2="-22" y1="498" y2="498" stroke-dasharray="none" stroke="black"/>
<line clip-path="url(#clipPath1)" fill="none" x1="-22" x2="-10" y1="498" y2="498" stroke-dasharray="none" stroke="black"/>
<line clip-path="url(#clipPath1)" fill="none" x1="-10" x2="1" y1="498" y2="498" stroke-dasharray="none" stroke="black"/>
<line clip-path="url(#clipPath1)" fill="none" x1="1" x2="12" y1="498" y2="498" stroke-dasharray="none" stroke="black"/>
<line clip-path="url(#clipPath1)" fill="none" x1="12" x2="24" y1="498" y2="498" stroke-dasharray="none" stroke="black"/>
<line clip-path="url(#clipPath1)" fill="none" x1="24" x2="36" y1="498" y2="498" stroke-dasharray="none" stroke="black"/>
<line clip-path="url(#clipPath1)" fill="none" x1="36" x2="47" y1="498" y2="498" stroke-dasharray="none" stroke="black"/>
<line clip-path="url(#clipPath1)" fill="none" x1="47" x2="59" y1="498" y2="498" stroke-dasharray="none" stroke="black"/>
<line clip-path="url(#clipPath1)" fill="none" x1="59" x2="71" y1="498" y2="498" stroke-dasharray="none" stroke="black"/>
<line clip-path="url(#clipPath1)" fill="none" x1="71" x2="82" y1="498" y2="498" stroke-dasharray="none" stroke="black"/>
<line clip-path="url(#clipPath1)" fill="none" x1="82" x2="94" y1="498" y2="498" stroke-dasharray="none" stroke="black"/>
<line clip-path="url(#clipPath1)" fill="none" x1="94" x2="106" y1="498" y2="498" stroke-dasharray="none" stroke="black"/>
<line clip-path="url(#clipPath1)" fill="none" x1="106" x2="117" y1="498" y2="498" stroke-dasharray="none" stroke="black"/>
<line clip-path="url(#clipPath1)" fill="none" x1="117" x2="129" y1="498" y2="498" stroke-dasharray="none" stroke="black"/>
<line clip-path="url(#clipPath1)" fill="none" x1="129" x2="141" y1="498" y2="498" stroke-dasharray="none" stroke="black"/>
<line clip-path="url(#clipPath1)" fill="none" x1="141" x2="153" y1="498" y2="498" stroke-dasharray="none" stroke="black"/>
<line clip-path="url(#clipPath1)" fill="none" x1="153" x2="164" y1="498" y2="498" stroke-dasharray="none" stroke="black"/>
<line clip-path="url(#clipPath1)" fill="none" x1="164" x2="176" y1="498" y2="498" stroke-dasharray="none" stroke="black"/>
<line clip-path="url(#clipPath1)" fill="none" x1="176" x2="188" y1="498" y2="498" stroke-dasharray="none" stroke="black"/>
<line clip-path="url(#clipPath1)" fill="none" x1="188" x2="199" y1="498" y2="498" stroke-dasharray="none" stroke="black"/>
<rect x="199" y="461" clip-path="url(#clipPath1)" fill="rgb(0,0,139)" width="12" stroke-dasharray="none" height="37" stroke="none"/>
<rect x="199" y="461" clip-path="url(#clipPath1)" fill="none" width="12" stroke-dasharray="none" height="37" stroke="black"/>
<line clip-path="url(#clipPath1)" fill="none" x1="211" x2="223" y1="498" y2="498" stroke-dasharray="none" stroke="black"/>
<line clip-path="url(#clipPath1)" fill="none" x1="223" x2="234" y1="498" y2="498" stroke-dasharray="none" stroke="black"/>
<rect x="234" y="424" clip-path="url(#clipPath1)" fill="rgb(0,0,139)" width="12" stroke-dasharray="none" height="74" stroke="none"/>
<rect x="234" y="424" clip-path="url(#clipPath1)" fill="none" width="12" stroke-dasharray="none" height="74" stroke="black"/>
<line clip-path="url(#clipPath1)" fill="none" x1="246" x2="258" y1="498" y2="498" stroke-dasharray="none" stroke="black"/>
<rect x="258" y="461" clip-path="url(#clipPath1)" fill="rgb(0,0,139)" width="11" stroke-dasharray="none" height="37" stroke="none"/>
<rect x="258" y="461" clip-path="url(#clipPath1)" fill="none" width="11" stroke-dasharray="none" height="37" stroke="black"/>
<line clip-path="url(#clipPath1)" fill="none" x1="269" x2="281" y1="498" y2="498" stroke-dasharray="none" stroke="black"/>
<rect x="281" y="461" clip-path="url(#clipPath1)" fill="rgb(0,0,139)" width="12" stroke-dasharray="none" height="37" stroke="none"/>
<rect x="281" y="461" clip-path="url(#clipPath1)" fill="none" width="12" stroke-dasharray="none" height="37" stroke="black"/>
<line clip-path="url(#clipPath1)" fill="none" x1="293" x2="304" y1="498" y2="498" stroke-dasharray="none" stroke="black"/>
<rect x="304" y="461" clip-path="url(#clipPath1)" fill="rgb(0,0,139)" width="12" stroke-dasharray="none" height="37" stroke="none"/>
<rect x="304" y="461" clip-path="url(#clipPath1)" fill="none" width="12" stroke-dasharray="none" height="37" stroke="black"/>
<line clip-path="url(#clipPath1)" fill="none" x1="316" x2="328" y1="498" y2="498" stroke-dasharray="none" stroke="black"/>
<rect x="328" y="461" clip-path="url(#clipPath1)" fill="rgb(0,0,139)" width="12" stroke-dasharray="none" height="37" stroke="none"/>
<rect x="328" y="461" clip-path="url(#clipPath1)" fill="none" width="12" stroke-dasharray="none" height="37" stroke="black"/>
<rect x="340" y="424" clip-path="url(#clipPath1)" fill="rgb(0,0,139)" width="11" stroke-dasharray="none" height="74" stroke="none"/>
<rect x="340" y="424" clip-path="url(#clipPath1)" fill="none" width="11" stroke-dasharray="none" height="74" stroke="black"/>
<rect x="351" y="314" clip-path="url(#clipPath1)" fill="rgb(0,0,139)" width="12" stroke-dasharray="none" height="184" stroke="none"/>
<rect x="351" y="314" clip-path="url(#clipPath1)" fill="none" width="12" stroke-dasharray="none" height="184" stroke="black"/>
<rect x="363" y="277" clip-path="url(#clipPath1)" fill="rgb(0,0,139)" width="12" stroke-dasharray="none" height="221" stroke="none"/>
<rect x="363" y="277" clip-path="url(#clipPath1)" fill="none" width="12" stroke-dasharray="none" height="221" stroke="black"/>
<rect x="375" y="424" clip-path="url(#clipPath1)" fill="rgb(0,0,139)" width="11" stroke-dasharray="none" height="74" stroke="none"/>
<rect x="375" y="424" clip-path="url(#clipPath1)" fill="none" width="11" stroke-dasharray="none" height="74" stroke="black"/>
<rect x="386" y="167" clip-path="url(#clipPath1)" fill="rgb(0,0,139)" width="12" stroke-dasharray="none" height="331" stroke="none"/>
<rect x="386" y="167" clip-path="url(#clipPath1)" fill="none" width="12" stroke-dasharray="none" height="331" stroke="black"/>
<rect x="398" y="167" clip-path="url(#clipPath1)" fill="rgb(0,0,139)" width="12" stroke-dasharray="none" height="331" stroke="none"/>
<rect x="398" y="167" clip-path="url(#clipPath1)" fill="none" width="12" stroke-dasharray="none" height="331" stroke="black"/>
<rect x="410" y="130" clip-path="url(#clipPath1)" fill="rgb(0,0,139)" width="11" stroke-dasharray="none" height="368" stroke="none"/>
<rect x="410" y="130" clip-path="url(#clipPath1)" fill="none" width="11" stroke-dasharray="none" height="368" stroke="black"/>
<rect x="421" y="240" clip-path="url(#clipPath1)" fill="rgb(0,0,139)" width="12" stroke-dasharray="none" height="258" stroke="none"/>
<rect x="421" y="240" clip-path="url(#clipPath1)" fill="none" width="12" stroke-dasharray="none" height="258" stroke="black"/>
<rect x="433" y="167" clip-path="url(#clipPath1)" fill="rgb(0,0,139)" width="12" stroke-dasharray="none" height="331" stroke="none"/>
<rect x="433" y="167" clip-path="url(#clipPath1)" fill="none" width="12" stroke-dasharray="none" height="331" stroke="black"/>
<rect x="445" y="277" clip-path="url(#clipPath1)" fill="rgb(0,0,139)" width="11" stroke-dasharray="none" height="221" stroke="none"/>
<rect x="445" y="277" clip-path="url(#clipPath1)" fill="none" width="11" stroke-dasharray="none" height="221" stroke="black"/>
<line clip-path="url(#clipPath1)" fill="none" x1="456" x2="468" y1="498" y2="498" stroke-dasharray="none" stroke="black"/>
<rect x="468" y="424" clip-path="url(#clipPath1)" fill="rgb(0,0,139)" width="12" stroke-dasharray="none" height="74" stroke="none"/>
<rect x="468" y="424" clip-path="url(#clipPath1)" fill="none" width="12" stroke-dasharray="none" height="74" stroke="black"/>
<line clip-path="url(#clipPath1)" fill="none" x1="480" x2="492" y1="498" y2="498" stroke-dasharray="none" stroke="black"/>
<line clip-path="url(#clipPath1)" fill="none" x1="492" x2="503" y1="498" y2="498" stroke-dasharray="none" stroke="black"/>
<line clip-path="url(#clipPath1)" fill="none" x1="503" x2="515" y1="498" y2="498" stroke-dasharray="none" stroke="black"/>
<line clip-path="url(#clipPath1)" fill="none" x1="515" x2="527" y1="498" y2="498" stroke-dasharray="none" stroke="black"/>
<line clip-path="url(#clipPath1)" fill="none" x1="527" x2="538" y1="498" y2="498" stroke-dasharray="none" stroke="black"/>
<line clip-path="url(#clipPath1)" fill="none" x1="538" x2="550" y1="498" y2="498" stroke-dasharray="none" stroke="black"/>
<line clip-path="url(#clipPath1)" fill="none" x1="550" x2="562" y1="498" y2="498" stroke-dasharray="none" stroke="black"/>
<line clip-path="url(#clipPath1)" fill="none" x1="562" x2="573" y1="498" y2="498" stroke-dasharray="none" stroke="black"/>
<line clip-path="url(#clipPath1)" fill="none" x1="573" x2="585" y1="498" y2="498" stroke-dasharray="none" stroke="black"/>
<line clip-path="url(#clipPath1)" fill="none" x1="585" x2="597" y1="498" y2="498" stroke-dasharray="none" stroke="black"/>
<line clip-path="url(#clipPath1)" fill="none" x1="597" x2="608" y1="498" y2="498" stroke-dasharray="none" stroke="black"/>
<line clip-path="url(#clipPath1)" fill="none" x1="608" x2="620" y1="498" y2="498" stroke-dasharray="none" stroke="black"/>
<line clip-path="url(#clipPath1)" fill="none" x1="620" x2="632" y1="498" y2="498" stroke-dasharray="none" stroke="black"/>
<line clip-path="url(#clipPath1)" fill="none" x1="632" x2="644" y1="498" y2="498" stroke-dasharray="none" stroke="black"/>
<line clip-path="url(#clipPath1)" fill="none" x1="644" x2="655" y1="498" y2="498" stroke-dasharray="none" stroke="black"/>
<line clip-path="url(#clipPath1)" fill="none" x1="655" x2="667" y1="498" y2="498" stroke-dasharray="none" stroke="black"/>
<line clip-path="url(#clipPath1)" fill="none" x1="667" x2="679" y1="498" y2="498" stroke-dasharray="none" stroke="black"/>
<line clip-path="url(#clipPath1)" fill="none" x1="679" x2="690" y1="498" y2="498" stroke-dasharray="none" stroke="black"/>
<line clip-path="url(#clipPath1)" fill="none" x1="690" x2="702" y1="498" y2="498" stroke-dasharray="none" stroke="black"/>
<line clip-path="url(#clipPath1)" fill="none" x1="702" x2="714" y1="498" y2="498" stroke-dasharray="none" stroke="black"/>
<line clip-path="url(#clipPath1)" fill="none" x1="714" x2="725" y1="498" y2="498" stroke-dasharray="none" stroke="black"/>
<line clip-path="url(#clipPath1)" fill="none" x1="725" x2="737" y1="498" y2="498" stroke-dasharray="none" stroke="black"/>
<line clip-path="url(#clipPath1)" fill="none" x1="737" x2="749" y1="498" y2="498" stroke-dasharray="none" stroke="black"/>
<line clip-path="url(#clipPath1)" fill="none" x1="749" x2="760" y1="498" y2="498" stroke-dasharray="none" stroke="black"/>
<line clip-path="url(#clipPath1)" fill="none" x1="760" x2="772" y1="498" y2="498" stroke-dasharray="none" stroke="black"/>
<line clip-path="url(#clipPath1)" fill="none" x1="772" x2="784" y1="498" y2="498" stroke-dasharray="none" stroke="black"/>
<line clip-path="url(#clipPath1)" fill="none" x1="784" x2="796" y1="498" y2="498" stroke-dasharray="none" stroke="black"/>
<line clip-path="url(#clipPath1)" fill="none" x1="796" x2="807" y1="498" y2="498" stroke-dasharray="none" stroke="black"/>
<line clip-path="url(#clipPath1)" fill="none" x1="807" x2="819" y1="498" y2="498" stroke-dasharray="none" stroke="black"/>
<line clip-path="url(#clipPath1)" fill="none" x1="819" x2="831" y1="498" y2="498" stroke-dasharray="none" stroke="black"/>
<line clip-path="url(#clipPath1)" fill="none" x1="831" x2="842" y1="498" y2="498" stroke-dasharray="none" stroke="black"/>
<line clip-path="url(#clipPath1)" fill="none" x1="842" x2="854" y1="498" y2="498" stroke-dasharray="none" stroke="black"/>
<line clip-path="url(#clipPath1)" fill="none" x1="854" x2="866" y1="498" y2="498" stroke-dasharray="none" stroke="black"/>
<line clip-path="url(#clipPath1)" fill="none" x1="866" x2="877" y1="498" y2="498" stroke-dasharray="none" stroke="black"/>
<line clip-path="url(#clipPath1)" fill="none" x1="877" x2="889" y1="498" y2="498" stroke-dasharray="none" stroke="black"/>
<line clip-path="url(#clipPath1)" fill="none" x1="889" x2="901" y1="498" y2="498" stroke-dasharray="none" stroke="black"/>
<line clip-path="url(#clipPath1)" fill="none" x1="901" x2="912" y1="498" y2="498" stroke-dasharray="none" stroke="black"/>
<line clip-path="url(#clipPath1)" fill="none" x1="912" x2="924" y1="498" y2="498" stroke-dasharray="none" stroke="black"/>
<line clip-path="url(#clipPath1)" fill="none" x1="924" x2="936" y1="498" y2="498" stroke-dasharray="none" stroke="black"/>
<line clip-path="url(#clipPath1)" fill="none" x1="936" x2="947" y1="498" y2="498" stroke-dasharray="none" stroke="black"/>
<line clip-path="url(#clipPath1)" fill="none" x1="947" x2="959" y1="498" y2="498" stroke-dasharray="none" stroke="black"/>
<line clip-path="url(#clipPath1)" fill="none" x1="959" x2="971" y1="498" y2="498" stroke-dasharray="none" stroke="black"/>
<line clip-path="url(#clipPath1)" fill="none" x1="971" x2="983" y1="498" y2="498" stroke-dasharray="none" stroke="black"/>
<line clip-path="url(#clipPath1)" fill="none" x1="983" x2="994" y1="498" y2="498" stroke-dasharray="none" stroke="black"/>
<line clip-path="url(#clipPath1)" fill="none" x1="994" x2="1006" y1="498" y2="498" stroke-dasharray="none" stroke="black"/>
<line clip-path="url(#clipPath1)" fill="none" x1="1006" x2="1018" y1="498" y2="498" stroke-dasharray="none" stroke="black"/>
<rect x="26" y="22" clip-path="url(#clipPath2)" fill="none" width="736" stroke-dasharray="none" height="476" stroke="black"/>
</g>
<g text-rendering="geometricPrecision" font-size="13" font-family="'Arial'" stroke-linecap="butt">
<line clip-path="url(#clipPath2)" fill="none" x1="26" x2="762" y1="20" y2="20"/>
<line clip-path="url(#clipPath2)" fill="none" x1="26" x2="762" y1="500" y2="500"/>
<line clip-path="url(#clipPath2)" fill="none" x1="60" x2="60" y1="16" y2="20"/>
<line clip-path="url(#clipPath2)" fill="none" x1="60" x2="60" y1="504" y2="500"/>
<text font-size="11" x="44" y="13" clip-path="url(#clipPath2)" stroke="none" xml:space="preserve">0.00028</text>
<text font-size="11" x="44" y="515" clip-path="url(#clipPath2)" stroke="none" xml:space="preserve">0.00028</text>
<line clip-path="url(#clipPath2)" fill="none" x1="110" x2="110" y1="18" y2="20"/>
<line clip-path="url(#clipPath2)" fill="none" x1="110" x2="110" y1="502" y2="500"/>
<line clip-path="url(#clipPath2)" fill="none" x1="159" x2="159" y1="16" y2="20"/>
<line clip-path="url(#clipPath2)" fill="none" x1="159" x2="159" y1="504" y2="500"/>
<text font-size="11" x="143" y="13" clip-path="url(#clipPath2)" stroke="none" xml:space="preserve">0.00030</text>
<text font-size="11" x="143" y="515" clip-path="url(#clipPath2)" stroke="none" xml:space="preserve">0.00030</text>
<line clip-path="url(#clipPath2)" fill="none" x1="208" x2="208" y1="18" y2="20"/>
<line clip-path="url(#clipPath2)" fill="none" x1="208" x2="208" y1="502" y2="500"/>
<line clip-path="url(#clipPath2)" fill="none" x1="258" x2="258" y1="16" y2="20"/>
<line clip-path="url(#clipPath2)" fill="none" x1="258" x2="258" y1="504" y2="500"/>
<text font-size="11" x="242" y="13" clip-path="url(#clipPath2)" stroke="none" xml:space="preserve">0.00032</text>
<text font-size="11" x="242" y="515" clip-path="url(#clipPath2)" stroke="none" xml:space="preserve">0.00032</text>
<line clip-path="url(#clipPath2)" fill="none" x1="307" x2="307" y1="18" y2="20"/>
<line clip-path="url(#clipPath2)" fill="none" x1="307" x2="307" y1="502" y2="500"/>
<line clip-path="url(#clipPath2)" fill="none" x1="356" x2="356" y1="16" y2="20"/>
<line clip-path="url(#clipPath2)" fill="none" x1="356" x2="356" y1="504" y2="500"/>
<text font-size="11" x="340" y="13" clip-path="url(#clipPath2)" stroke="none" xml:space="preserve">0.00034</text>
<text font-size="11" x="340" y="515" clip-path="url(#clipPath2)" stroke="none" xml:space="preserve">0.00034</text>
<line clip-path="url(#clipPath2)" fill="none" x1="405" x2="405" y1="18" y2="20"/>
<line clip-path="url(#clipPath2)" fill="none" x1="405" x2="405" y1="502" y2="500"/>
<line clip-path="url(#clipPath2)" fill="none" x1="455" x2="455" y1="16" y2="20"/>
<line clip-path="url(#clipPath2)" fill="none" x1="455" x2="455" y1="504" y2="500"/>
<text font-size="11" x="439" y="13" clip-path="url(#clipPath2)" stroke="none" xml:space="preserve">0.00036</text>
<text font-size="11" x="439" y="515" clip-path="url(#clipPath2)" stroke="none" xml:space="preserve">0.00036</text>
<line clip-path="url(#clipPath2)" fill="none" x1="504" x2="504" y1="18" y2="20"/>
<line clip-path="url(#clipPath2)" fill="none" x1="504" x2="504" y1="502" y2="500"/>
<line clip-path="url(#clipPath2)" fill="none" x1="553" x2="553" y1="16" y2="20"/>
<line clip-path="url(#clipPath2)" fill="none" x1="553" x2="553" y1="504" y2="500"/>
<text font-size="11" x="537" y="13" clip-path="url(#clipPath2)" stroke="none" xml:space="preserve">0.00038</text>
<text font-size="11" x="537" y="515" clip-path="url(#clipPath2)" stroke="none" xml:space="preserve">0.00038</text>
<line clip-path="url(#clipPath2)" fill="none" x1="603" x2="603" y1="18" y2="20"/>
<line clip-path="url(#clipPath2)" fill="none" x1="603" x2="603" y1="502" y2="500"/>
<line clip-path="url(#clipPath2)" fill="none" x1="652" x2="652" y1="16" y2="20"/>
<line clip-path="url(#clipPath2)" fill="none" x1="652" x2="652" y1="504" y2="500"/>
<text font-size="11" x="636" y="13" clip-path="url(#clipPath2)" stroke="none" xml:space="preserve">0.00040</text>
<text font-size="11" x="636" y="515" clip-path="url(#clipPath2)" stroke="none" xml:space="preserve">0.00040</text>
<line clip-path="url(#clipPath2)" fill="none" x1="701" x2="701" y1="18" y2="20"/>
<line clip-path="url(#clipPath2)" fill="none" x1="701" x2="701" y1="502" y2="500"/>
<line clip-path="url(#clipPath2)" fill="none" x1="751" x2="751" y1="16" y2="20"/>
<line clip-path="url(#clipPath2)" fill="none" x1="751" x2="751" y1="504" y2="500"/>
<text font-size="11" x="735" y="13" clip-path="url(#clipPath2)" stroke="none" xml:space="preserve">0.00042</text>
<text font-size="11" x="735" y="515" clip-path="url(#clipPath2)" stroke="none" xml:space="preserve">0.00042</text>
<line clip-path="url(#clipPath2)" fill="none" x1="24" x2="24" y1="22" y2="498"/>
<line clip-path="url(#clipPath2)" fill="none" x1="764" x2="764" y1="22" y2="498"/>
<line clip-path="url(#clipPath2)" fill="none" x1="20" x2="24" y1="498" y2="498"/>
<line clip-path="url(#clipPath2)" fill="none" x1="768" x2="764" y1="498" y2="498"/>
<text font-size="11" x="14" y="502" clip-path="url(#clipPath2)" stroke="none" xml:space="preserve">0</text>
<text font-size="11" x="771" y="502" clip-path="url(#clipPath2)" stroke="none" xml:space="preserve">0</text>
<line clip-path="url(#clipPath2)" fill="none" x1="22" x2="24" y1="461" y2="461"/>
<line clip-path="url(#clipPath2)" fill="none" x1="766" x2="764" y1="461" y2="461"/>
<line clip-path="url(#clipPath2)" fill="none" x1="20" x2="24" y1="424" y2="424"/>
<line clip-path="url(#clipPath2)" fill="none" x1="768" x2="764" y1="424" y2="424"/>
<text font-size="11" x="14" y="428" clip-path="url(#clipPath2)" stroke="none" xml:space="preserve">2</text>
<text font-size="11" x="771" y="428" clip-path="url(#clipPath2)" stroke="none" xml:space="preserve">2</text>
<line clip-path="url(#clipPath2)" fill="none" x1="22" x2="24" y1="387" y2="387"/>
<line clip-path="url(#clipPath2)" fill="none" x1="766" x2="764" y1="387" y2="387"/>
<line clip-path="url(#clipPath2)" fill="none" x1="20" x2="24" y1="351" y2="351"/>
<line clip-path="url(#clipPath2)" fill="none" x1="768" x2="764" y1="351" y2="351"/>
<text font-size="11" x="14" y="355" clip-path="url(#clipPath2)" stroke="none" xml:space="preserve">4</text>
<text font-size="11" x="771" y="355" clip-path="url(#clipPath2)" stroke="none" xml:space="preserve">4</text>
<line clip-path="url(#clipPath2)" fill="none" x1="22" x2="24" y1="314" y2="314"/>
<line clip-path="url(#clipPath2)" fill="none" x1="766" x2="764" y1="314" y2="314"/>
<line clip-path="url(#clipPath2)" fill="none" x1="20" x2="24" y1="277" y2="277"/>
<line clip-path="url(#clipPath2)" fill="none" x1="768" x2="764" y1="277" y2="277"/>
<text font-size="11" x="14" y="281" clip-path="url(#clipPath2)" stroke="none" xml:space="preserve">6</text>
<text font-size="11" x="771" y="281" clip-path="url(#clipPath2)" stroke="none" xml:space="preserve">6</text>
<line clip-path="url(#clipPath2)" fill="none" x1="22" x2="24" y1="240" y2="240"/>
<line clip-path="url(#clipPath2)" fill="none" x1="766" x2="764" y1="240" y2="240"/>
<line clip-path="url(#clipPath2)" fill="none" x1="20" x2="24" y1="204" y2="204"/>
<line clip-path="url(#clipPath2)" fill="none" x1="768" x2="764" y1="204" y2="204"/>
<text font-size="11" x="14" y="208" clip-path="url(#clipPath2)" stroke="none" xml:space="preserve">8</text>
<text font-size="11" x="771" y="208" clip-path="url(#clipPath2)" stroke="none" xml:space="preserve">8</text>
<line clip-path="url(#clipPath2)" fill="none" x1="22" x2="24" y1="167" y2="167"/>
<line clip-path="url(#clipPath2)" fill="none" x1="766" x2="764" y1="167" y2="167"/>
<line clip-path="url(#clipPath2)" fill="none" x1="20" x2="24" y1="130" y2="130"/>
<line clip-path="url(#clipPath2)" fill="none" x1="768" x2="764" y1="130" y2="130"/>
<text font-size="11" x="9" y="134" clip-path="url(#clipPath2)" stroke="none" xml:space="preserve">10</text>
<text font-size="11" x="771" y="134" clip-path="url(#clipPath2)" stroke="none" xml:space="preserve">10</text>
<line clip-path="url(#clipPath2)" fill="none" x1="22" x2="24" y1="93" y2="93"/>
<line clip-path="url(#clipPath2)" fill="none" x1="766" x2="764" y1="93" y2="93"/>
<line clip-path="url(#clipPath2)" fill="none" x1="20" x2="24" y1="57" y2="57"/>
<line clip-path="url(#clipPath2)" fill="none" x1="768" x2="764" y1="57" y2="57"/>
<text font-size="11" x="9" y="61" clip-path="url(#clipPath2)" stroke="none" xml:space="preserve">12</text>
<text font-size="11" x="771" y="61" clip-path="url(#clipPath2)" stroke="none" xml:space="preserve">12</text>
</g>
</g>
</svg>
