<?xml version="1.0" encoding="UTF-8"?><svg xmlns="http://www.w3.org/2000/svg" xmlns:xlink="http://www.w3.org/1999/xlink" stroke-dasharray="none" shape-rendering="auto" font-family="'Dialog'" width="706" text-rendering="auto" fill-opacity="1" contentScriptType="text/ecmascript" color-interpolation="auto" color-rendering="auto" preserveAspectRatio="xMidYMid meet" font-size="12" fill="black" stroke="black" image-rendering="auto" stroke-miterlimit="10" zoomAndPan="magnify" version="1.0" stroke-linecap="square" stroke-linejoin="miter" contentStyleType="text/css" font-style="normal" height="544" stroke-width="1" stroke-dashoffset="0" font-weight="normal" stroke-opacity="1">
<!--Generated by the Batik Graphics2D SVG Generator-->
<defs id="genericDefs"/>
<g>
<defs id="defs1">
<clipPath clipPathUnits="userSpaceOnUse" id="clipPath1">
<path d="M37 21 L669 21 L669 523 L37 523 L37 21 Z"/>
</clipPath>
<clipPath clipPathUnits="userSpaceOnUse" id="clipPath2">
<path d="M-1 -1 L707 -1 L707 545 L-1 545 L-1 -1 Z"/>
</clipPath>
</defs>
<g font-size="15" fill="white" text-rendering="geometricPrecision" font-family="'Cantarell'" stroke-linejoin="round" stroke="white" stroke-width="0" stroke-miterlimit="0">
<rect x="38" y="22" clip-path="url(#clipPath1)" width="630" height="500" stroke="none"/>
</g>
<g font-size="15" stroke-linecap="butt" fill="rgb(204,204,204)" text-rendering="geometricPrecision" font-family="'Cantarell'" stroke-dasharray="3,3" stroke="rgb(204,204,204)">
<line clip-path="url(#clipPath1)" fill="none" x1="38" x2="668" y1="460" y2="460"/>
<line clip-path="url(#clipPath1)" fill="none" x1="38" x2="668" y1="396" y2="396"/>
<line clip-path="url(#clipPath1)" fill="none" x1="38" x2="668" y1="333" y2="333"/>
<line clip-path="url(#clipPath1)" fill="none" x1="38" x2="668" y1="269" y2="269"/>
<line clip-path="url(#clipPath1)" fill="none" x1="38" x2="668" y1="206" y2="206"/>
<line clip-path="url(#clipPath1)" fill="none" x1="38" x2="668" y1="142" y2="142"/>
<line clip-path="url(#clipPath1)" fill="none" x1="38" x2="668" y1="79" y2="79"/>
<line clip-path="url(#clipPath1)" fill="none" x1="-316" x2="-310" y1="523" y2="523" stroke-dasharray="none" stroke="black"/>
<line clip-path="url(#clipPath1)" fill="none" x1="-310" x2="-304" y1="523" y2="523" stroke-dasharray="none" stroke="black"/>
<line clip-path="url(#clipPath1)" fill="none" x1="-304" x2="-298" y1="523" y2="523" stroke-dasharray="none" stroke="black"/>
<line clip-path="url(#clipPath1)" fill="none" x1="-298" x2="-292" y1="523" y2="523" stroke-dasharray="none" stroke="black"/>
<line clip-path="url(#clipPath1)" fill="none" x1="-292" x2="-286" y1="523" y2="523" stroke-dasharray="none" stroke="black"/>
<line clip-path="url(#clipPath1)" fill="none" x1="-286" x2="-280" y1="523" y2="523" stroke-dasharray="none" stroke="black"/>
<line clip-path="url(#clipPath1)" fill="none" x1="-280" x2="-275" y1="523" y2="523" stroke-dasharray="none" stroke="black"/>
<line clip-path="url(#clipPath1)" fill="none" x1="-275" x2="-269" y1="523" y2="523" stroke-dasharray="none" stroke="black"/>
<line clip-path="url(#clipPath1)" fill="none" x1="-269" x2="-263" y1="523" y2="523" stroke-dasharray="none" stroke="black"/>
<line clip-path="url(#clipPath1)" fill="none" x1="-263" x2="-257" y1="523" y2="523" stroke-dasharray="none" stroke="black"/>
<line clip-path="url(#clipPath1)" fill="none" x1="-257" x2="-251" y1="523" y2="523" stroke-dasharray="none" stroke="black"/>
<line clip-path="url(#clipPath1)" fill="none" x1="-251" x2="-245" y1="523" y2="523" stroke-dasharray="none" stroke="black"/>
<line clip-path="url(#clipPath1)" fill="none" x1="-245" x2="-240" y1="523" y2="523" stroke-dasharray="none" stroke="black"/>
<line clip-path="url(#clipPath1)" fill="none" x1="-240" x2="-234" y1="523" y2="523" stroke-dasharray="none" stroke="black"/>
<line clip-path="url(#clipPath1)" fill="none" x1="-234" x2="-228" y1="523" y2="523" stroke-dasharray="none" stroke="black"/>
<line clip-path="url(#clipPath1)" fill="none" x1="-228" x2="-222" y1="523" y2="523" stroke-dasharray="none" stroke="black"/>
<line clip-path="url(#clipPath1)" fill="none" x1="-222" x2="-216" y1="523" y2="523" stroke-dasharray="none" stroke="black"/>
<line clip-path="url(#clipPath1)" fill="none" x1="-216" x2="-210" y1="523" y2="523" stroke-dasharray="none" stroke="black"/>
<line clip-path="url(#clipPath1)" fill="none" x1="-210" x2="-205" y1="523" y2="523" stroke-dasharray="none" stroke="black"/>
<line clip-path="url(#clipPath1)" fill="none" x1="-205" x2="-199" y1="523" y2="523" stroke-dasharray="none" stroke="black"/>
<line clip-path="url(#clipPath1)" fill="none" x1="-199" x2="-193" y1="523" y2="523" stroke-dasharray="none" stroke="black"/>
<line clip-path="url(#clipPath1)" fill="none" x1="-193" x2="-187" y1="523" y2="523" stroke-dasharray="none" stroke="black"/>
<line clip-path="url(#clipPath1)" fill="none" x1="-187" x2="-181" y1="523" y2="523" stroke-dasharray="none" stroke="black"/>
<line clip-path="url(#clipPath1)" fill="none" x1="-181" x2="-175" y1="523" y2="523" stroke-dasharray="none" stroke="black"/>
<line clip-path="url(#clipPath1)" fill="none" x1="-175" x2="-170" y1="523" y2="523" stroke-dasharray="none" stroke="black"/>
<line clip-path="url(#clipPath1)" fill="none" x1="-170" x2="-164" y1="523" y2="523" stroke-dasharray="none" stroke="black"/>
<line clip-path="url(#clipPath1)" fill="none" x1="-164" x2="-158" y1="523" y2="523" stroke-dasharray="none" stroke="black"/>
<line clip-path="url(#clipPath1)" fill="none" x1="-158" x2="-152" y1="523" y2="523" stroke-dasharray="none" stroke="black"/>
<line clip-path="url(#clipPath1)" fill="none" x1="-152" x2="-146" y1="523" y2="523" stroke-dasharray="none" stroke="black"/>
<line clip-path="url(#clipPath1)" fill="none" x1="-146" x2="-140" y1="523" y2="523" stroke-dasharray="none" stroke="black"/>
<line clip-path="url(#clipPath1)" fill="none" x1="-140" x2="-135" y1="523" y2="523" stroke-dasharray="none" stroke="black"/>
<line clip-path="url(#clipPath1)" fill="none" x1="-135" x2="-129" y1="523" y2="523" stroke-dasharray="none" stroke="black"/>
<line clip-path="url(#clipPath1)" fill="none" x1="-129" x2="-123" y1="523" y2="523" stroke-dasharray="none" stroke="black"/>
<line clip-path="url(#clipPath1)" fill="none" x1="-123" x2="-117" y1="523" y2="523" stroke-dasharray="none" stroke="black"/>
<line clip-path="url(#clipPath1)" fill="none" x1="-117" x2="-111" y1="523" y2="523" stroke-dasharray="none" stroke="black"/>
<line clip-path="url(#clipPath1)" fill="none" x1="-111" x2="-105" y1="523" y2="523" stroke-dasharray="none" stroke="black"/>
<line clip-path="url(#clipPath1)" fill="none" x1="-105" x2="-100" y1="523" y2="523" stroke-dasharray="none" stroke="black"/>
<line clip-path="url(#clipPath1)" fill="none" x1="-100" x2="-94" y1="523" y2="523" stroke-dasharray="none" stroke="black"/>
<line clip-path="url(#clipPath1)" fill="none" x1="-94" x2="-88" y1="523" y2="523" stroke-dasharray="none" stroke="black"/>
<line clip-path="url(#clipPath1)" fill="none" x1="-88" x2="-82" y1="523" y2="523" stroke-dasharray="none" stroke="black"/>
<line clip-path="url(#clipPath1)" fill="none" x1="-82" x2="-76" y1="523" y2="523" stroke-dasharray="none" stroke="black"/>
<line clip-path="url(#clipPath1)" fill="none" x1="-76" x2="-70" y1="523" y2="523" stroke-dasharray="none" stroke="black"/>
<line clip-path="url(#clipPath1)" fill="none" x1="-70" x2="-65" y1="523" y2="523" stroke-dasharray="none" stroke="black"/>
<line clip-path="url(#clipPath1)" fill="none" x1="-65" x2="-59" y1="523" y2="523" stroke-dasharray="none" stroke="black"/>
<line clip-path="url(#clipPath1)" fill="none" x1="-59" x2="-53" y1="523" y2="523" stroke-dasharray="none" stroke="black"/>
<line clip-path="url(#clipPath1)" fill="none" x1="-53" x2="-47" y1="523" y2="523" stroke-dasharray="none" stroke="black"/>
<line clip-path="url(#clipPath1)" fill="none" x1="-47" x2="-41" y1="523" y2="523" stroke-dasharray="none" stroke="black"/>
<line clip-path="url(#clipPath1)" fill="none" x1="-41" x2="-35" y1="523" y2="523" stroke-dasharray="none" stroke="black"/>
<line clip-path="url(#clipPath1)" fill="none" x1="-35" x2="-30" y1="523" y2="523" stroke-dasharray="none" stroke="black"/>
<line clip-path="url(#clipPath1)" fill="none" x1="-30" x2="-24" y1="523" y2="523" stroke-dasharray="none" stroke="black"/>
<line clip-path="url(#clipPath1)" fill="none" x1="-24" x2="-18" y1="523" y2="523" stroke-dasharray="none" stroke="black"/>
<line clip-path="url(#clipPath1)" fill="none" x1="-18" x2="-12" y1="523" y2="523" stroke-dasharray="none" stroke="black"/>
<line clip-path="url(#clipPath1)" fill="none" x1="-12" x2="-6" y1="523" y2="523" stroke-dasharray="none" stroke="black"/>
<line clip-path="url(#clipPath1)" fill="none" x1="-6" x2="0" y1="523" y2="523" stroke-dasharray="none" stroke="black"/>
<line clip-path="url(#clipPath1)" fill="none" x1="0" x2="4" y1="523" y2="523" stroke-dasharray="none" stroke="black"/>
<line clip-path="url(#clipPath1)" fill="none" x1="4" x2="10" y1="523" y2="523" stroke-dasharray="none" stroke="black"/>
<line clip-path="url(#clipPath1)" fill="none" x1="10" x2="16" y1="523" y2="523" stroke-dasharray="none" stroke="black"/>
<line clip-path="url(#clipPath1)" fill="none" x1="16" x2="22" y1="523" y2="523" stroke-dasharray="none" stroke="black"/>
<line clip-path="url(#clipPath1)" fill="none" x1="22" x2="28" y1="523" y2="523" stroke-dasharray="none" stroke="black"/>
<line clip-path="url(#clipPath1)" fill="none" x1="28" x2="34" y1="523" y2="523" stroke-dasharray="none" stroke="black"/>
<line clip-path="url(#clipPath1)" fill="none" x1="34" x2="39" y1="523" y2="523" stroke-dasharray="none" stroke="black"/>
<line clip-path="url(#clipPath1)" fill="none" x1="39" x2="45" y1="523" y2="523" stroke-dasharray="none" stroke="black"/>
<line clip-path="url(#clipPath1)" fill="none" x1="45" x2="51" y1="523" y2="523" stroke-dasharray="none" stroke="black"/>
<line clip-path="url(#clipPath1)" fill="none" x1="51" x2="57" y1="523" y2="523" stroke-dasharray="none" stroke="black"/>
<line clip-path="url(#clipPath1)" fill="none" x1="57" x2="63" y1="523" y2="523" stroke-dasharray="none" stroke="black"/>
<line clip-path="url(#clipPath1)" fill="none" x1="63" x2="69" y1="523" y2="523" stroke-dasharray="none" stroke="black"/>
<line clip-path="url(#clipPath1)" fill="none" x1="69" x2="74" y1="523" y2="523" stroke-dasharray="none" stroke="black"/>
<line clip-path="url(#clipPath1)" fill="none" x1="74" x2="80" y1="523" y2="523" stroke-dasharray="none" stroke="black"/>
<line clip-path="url(#clipPath1)" fill="none" x1="80" x2="86" y1="523" y2="523" stroke-dasharray="none" stroke="black"/>
<line clip-path="url(#clipPath1)" fill="none" x1="86" x2="92" y1="523" y2="523" stroke-dasharray="none" stroke="black"/>
<line clip-path="url(#clipPath1)" fill="none" x1="92" x2="98" y1="523" y2="523" stroke-dasharray="none" stroke="black"/>
<line clip-path="url(#clipPath1)" fill="none" x1="98" x2="104" y1="523" y2="523" stroke-dasharray="none" stroke="black"/>
<line clip-path="url(#clipPath1)" fill="none" x1="104" x2="109" y1="523" y2="523" stroke-dasharray="none" stroke="black"/>
<line clip-path="url(#clipPath1)" fill="none" x1="109" x2="115" y1="523" y2="523" stroke-dasharray="none" stroke="black"/>
<line clip-path="url(#clipPath1)" fill="none" x1="115" x2="121" y1="523" y2="523" stroke-dasharray="none" stroke="black"/>
<line clip-path="url(#clipPath1)" fill="none" x1="121" x2="127" y1="523" y2="523" stroke-dasharray="none" stroke="black"/>
<line clip-path="url(#clipPath1)" fill="none" x1="127" x2="133" y1="523" y2="523" stroke-dasharray="none" stroke="black"/>
<line clip-path="url(#clipPath1)" fill="none" x1="133" x2="139" y1="523" y2="523" stroke-dasharray="none" stroke="black"/>
<line clip-path="url(#clipPath1)" fill="none" x1="139" x2="144" y1="523" y2="523" stroke-dasharray="none" stroke="black"/>
<line clip-path="url(#clipPath1)" fill="none" x1="144" x2="150" y1="523" y2="523" stroke-dasharray="none" stroke="black"/>
<line clip-path="url(#clipPath1)" fill="none" x1="150" x2="156" y1="523" y2="523" stroke-dasharray="none" stroke="black"/>
<line clip-path="url(#clipPath1)" fill="none" x1="156" x2="162" y1="523" y2="523" stroke-dasharray="none" stroke="black"/>
<line clip-path="url(#clipPath1)" fill="none" x1="162" x2="168" y1="523" y2="523" stroke-dasharray="none" stroke="black"/>
<line clip-path="url(#clipPath1)" fill="none" x1="168" x2="174" y1="523" y2="523" stroke-dasharray="none" stroke="black"/>
<line clip-path="url(#clipPath1)" fill="none" x1="174" x2="179" y1="523" y2="523" stroke-dasharray="none" stroke="black"/>
<line clip-path="url(#clipPath1)" fill="none" x1="179" x2="185" y1="523" y2="523" stroke-dasharray="none" stroke="black"/>
<line clip-path="url(#clipPath1)" fill="none" x1="185" x2="191" y1="523" y2="523" stroke-dasharray="none" stroke="black"/>
<line clip-path="url(#clipPath1)" fill="none" x1="191" x2="197" y1="523" y2="523" stroke-dasharray="none" stroke="black"/>
<line clip-path="url(#clipPath1)" fill="none" x1="197" x2="203" y1="523" y2="523" stroke-dasharray="none" stroke="black"/>
<line clip-path="url(#clipPath1)" fill="none" x1="203" x2="209" y1="523" y2="523" stroke-dasharray="none" stroke="black"/>
<line clip-path="url(#clipPath1)" fill="none" x1="209" x2="214" y1="523" y2="523" stroke-dasharray="none" stroke="black"/>
<line clip-path="url(#clipPath1)" fill="none" x1="214" x2="220" y1="523" y2="523" stroke-dasharray="none" stroke="black"/>
<line clip-path="url(#clipPath1)" fill="none" x1="220" x2="226" y1="523" y2="523" stroke-dasharray="none" stroke="black"/>
<line clip-path="url(#clipPath1)" fill="none" x1="226" x2="232" y1="523" y2="523" stroke-dasharray="none" stroke="black"/>
<line clip-path="url(#clipPath1)" fill="none" x1="232" x2="238" y1="523" y2="523" stroke-dasharray="none" stroke="black"/>
<line clip-path="url(#clipPath1)" fill="none" x1="238" x2="244" y1="523" y2="523" stroke-dasharray="none" stroke="black"/>
<line clip-path="url(#clipPath1)" fill="none" x1="244" x2="249" y1="523" y2="523" stroke-dasharray="none" stroke="black"/>
<line clip-path="url(#clipPath1)" fill="none" x1="249" x2="255" y1="523" y2="523" stroke-dasharray="none" stroke="black"/>
<rect x="255" y="522" clip-path="url(#clipPath1)" fill="rgb(0,0,139)" width="6" stroke-dasharray="none" height="1" stroke="none"/>
<rect x="255" y="522" clip-path="url(#clipPath1)" fill="none" width="6" stroke-dasharray="none" height="1" stroke="black"/>
<rect x="261" y="516" clip-path="url(#clipPath1)" fill="rgb(0,0,139)" width="6" stroke-dasharray="none" height="7" stroke="none"/>
<rect x="261" y="516" clip-path="url(#clipPath1)" fill="none" width="6" stroke-dasharray="none" height="7" stroke="black"/>
<rect x="267" y="512" clip-path="url(#clipPath1)" fill="rgb(0,0,139)" width="6" stroke-dasharray="none" height="11" stroke="none"/>
<rect x="267" y="512" clip-path="url(#clipPath1)" fill="none" width="6" stroke-dasharray="none" height="11" stroke="black"/>
<rect x="273" y="478" clip-path="url(#clipPath1)" fill="rgb(0,0,139)" width="6" stroke-dasharray="none" height="45" stroke="none"/>
<rect x="273" y="478" clip-path="url(#clipPath1)" fill="none" width="6" stroke-dasharray="none" height="45" stroke="black"/>
<rect x="279" y="453" clip-path="url(#clipPath1)" fill="rgb(0,0,139)" width="5" stroke-dasharray="none" height="70" stroke="none"/>
<rect x="279" y="453" clip-path="url(#clipPath1)" fill="none" width="5" stroke-dasharray="none" height="70" stroke="black"/>
<rect x="284" y="407" clip-path="url(#clipPath1)" fill="rgb(0,0,139)" width="6" stroke-dasharray="none" height="116" stroke="none"/>
<rect x="284" y="407" clip-path="url(#clipPath1)" fill="none" width="6" stroke-dasharray="none" height="116" stroke="black"/>
<rect x="290" y="392" clip-path="url(#clipPath1)" fill="rgb(0,0,139)" width="6" stroke-dasharray="none" height="131" stroke="none"/>
<rect x="290" y="392" clip-path="url(#clipPath1)" fill="none" width="6" stroke-dasharray="none" height="131" stroke="black"/>
<rect x="296" y="354" clip-path="url(#clipPath1)" fill="rgb(0,0,139)" width="6" stroke-dasharray="none" height="169" stroke="none"/>
<rect x="296" y="354" clip-path="url(#clipPath1)" fill="none" width="6" stroke-dasharray="none" height="169" stroke="black"/>
<rect x="302" y="365" clip-path="url(#clipPath1)" fill="rgb(0,0,139)" width="6" stroke-dasharray="none" height="158" stroke="none"/>
<rect x="302" y="365" clip-path="url(#clipPath1)" fill="none" width="6" stroke-dasharray="none" height="158" stroke="black"/>
<rect x="308" y="344" clip-path="url(#clipPath1)" fill="rgb(0,0,139)" width="6" stroke-dasharray="none" height="179" stroke="none"/>
<rect x="308" y="344" clip-path="url(#clipPath1)" fill="none" width="6" stroke-dasharray="none" height="179" stroke="black"/>
<rect x="314" y="337" clip-path="url(#clipPath1)" fill="rgb(0,0,139)" width="5" stroke-dasharray="none" height="186" stroke="none"/>
<rect x="314" y="337" clip-path="url(#clipPath1)" fill="none" width="5" stroke-dasharray="none" height="186" stroke="black"/>
<rect x="319" y="331" clip-path="url(#clipPath1)" fill="rgb(0,0,139)" width="6" stroke-dasharray="none" height="192" stroke="none"/>
<rect x="319" y="331" clip-path="url(#clipPath1)" fill="none" width="6" stroke-dasharray="none" height="192" stroke="black"/>
<rect x="325" y="318" clip-path="url(#clipPath1)" fill="rgb(0,0,139)" width="6" stroke-dasharray="none" height="205" stroke="none"/>
<rect x="325" y="318" clip-path="url(#clipPath1)" fill="none" width="6" stroke-dasharray="none" height="205" stroke="black"/>
<rect x="331" y="312" clip-path="url(#clipPath1)" fill="rgb(0,0,139)" width="6" stroke-dasharray="none" height="211" stroke="none"/>
<rect x="331" y="312" clip-path="url(#clipPath1)" fill="none" width="6" stroke-dasharray="none" height="211" stroke="black"/>
<rect x="337" y="320" clip-path="url(#clipPath1)" fill="rgb(0,0,139)" width="6" stroke-dasharray="none" height="203" stroke="none"/>
<rect x="337" y="320" clip-path="url(#clipPath1)" fill="none" width="6" stroke-dasharray="none" height="203" stroke="black"/>
<rect x="343" y="279" clip-path="url(#clipPath1)" fill="rgb(0,0,139)" width="6" stroke-dasharray="none" height="244" stroke="none"/>
<rect x="343" y="279" clip-path="url(#clipPath1)" fill="none" width="6" stroke-dasharray="none" height="244" stroke="black"/>
<rect x="349" y="283" clip-path="url(#clipPath1)" fill="rgb(0,0,139)" width="5" stroke-dasharray="none" height="240" stroke="none"/>
<rect x="349" y="283" clip-path="url(#clipPath1)" fill="none" width="5" stroke-dasharray="none" height="240" stroke="black"/>
<rect x="354" y="243" clip-path="url(#clipPath1)" fill="rgb(0,0,139)" width="6" stroke-dasharray="none" height="280" stroke="none"/>
<rect x="354" y="243" clip-path="url(#clipPath1)" fill="none" width="6" stroke-dasharray="none" height="280" stroke="black"/>
<rect x="360" y="231" clip-path="url(#clipPath1)" fill="rgb(0,0,139)" width="6" stroke-dasharray="none" height="292" stroke="none"/>
<rect x="360" y="231" clip-path="url(#clipPath1)" fill="none" width="6" stroke-dasharray="none" height="292" stroke="black"/>
<rect x="366" y="203" clip-path="url(#clipPath1)" fill="rgb(0,0,139)" width="6" stroke-dasharray="none" height="320" stroke="none"/>
<rect x="366" y="203" clip-path="url(#clipPath1)" fill="none" width="6" stroke-dasharray="none" height="320" stroke="black"/>
<rect x="372" y="166" clip-path="url(#clipPath1)" fill="rgb(0,0,139)" width="6" stroke-dasharray="none" height="357" stroke="none"/>
<rect x="372" y="166" clip-path="url(#clipPath1)" fill="none" width="6" stroke-dasharray="none" height="357" stroke="black"/>
<rect x="378" y="151" clip-path="url(#clipPath1)" fill="rgb(0,0,139)" width="6" stroke-dasharray="none" height="372" stroke="none"/>
<rect x="378" y="151" clip-path="url(#clipPath1)" fill="none" width="6" stroke-dasharray="none" height="372" stroke="black"/>
<rect x="384" y="129" clip-path="url(#clipPath1)" fill="rgb(0,0,139)" width="5" stroke-dasharray="none" height="394" stroke="none"/>
<rect x="384" y="129" clip-path="url(#clipPath1)" fill="none" width="5" stroke-dasharray="none" height="394" stroke="black"/>
<rect x="389" y="91" clip-path="url(#clipPath1)" fill="rgb(0,0,139)" width="6" stroke-dasharray="none" height="432" stroke="none"/>
<rect x="389" y="91" clip-path="url(#clipPath1)" fill="none" width="6" stroke-dasharray="none" height="432" stroke="black"/>
<rect x="395" y="93" clip-path="url(#clipPath1)" fill="rgb(0,0,139)" width="6" stroke-dasharray="none" height="430" stroke="none"/>
<rect x="395" y="93" clip-path="url(#clipPath1)" fill="none" width="6" stroke-dasharray="none" height="430" stroke="black"/>
<rect x="401" y="88" clip-path="url(#clipPath1)" fill="rgb(0,0,139)" width="6" stroke-dasharray="none" height="435" stroke="none"/>
<rect x="401" y="88" clip-path="url(#clipPath1)" fill="none" width="6" stroke-dasharray="none" height="435" stroke="black"/>
<rect x="407" y="59" clip-path="url(#clipPath1)" fill="rgb(0,0,139)" width="6" stroke-dasharray="none" height="464" stroke="none"/>
<rect x="407" y="59" clip-path="url(#clipPath1)" fill="none" width="6" stroke-dasharray="none" height="464" stroke="black"/>
<rect x="413" y="68" clip-path="url(#clipPath1)" fill="rgb(0,0,139)" width="6" stroke-dasharray="none" height="455" stroke="none"/>
<rect x="413" y="68" clip-path="url(#clipPath1)" fill="none" width="6" stroke-dasharray="none" height="455" stroke="black"/>
<rect x="419" y="68" clip-path="url(#clipPath1)" fill="rgb(0,0,139)" width="5" stroke-dasharray="none" height="455" stroke="none"/>
<rect x="419" y="68" clip-path="url(#clipPath1)" fill="none" width="5" stroke-dasharray="none" height="455" stroke="black"/>
<rect x="424" y="65" clip-path="url(#clipPath1)" fill="rgb(0,0,139)" width="6" stroke-dasharray="none" height="458" stroke="none"/>
<rect x="424" y="65" clip-path="url(#clipPath1)" fill="none" width="6" stroke-dasharray="none" height="458" stroke="black"/>
<rect x="430" y="78" clip-path="url(#clipPath1)" fill="rgb(0,0,139)" width="6" stroke-dasharray="none" height="445" stroke="none"/>
<rect x="430" y="78" clip-path="url(#clipPath1)" fill="none" width="6" stroke-dasharray="none" height="445" stroke="black"/>
<rect x="436" y="94" clip-path="url(#clipPath1)" fill="rgb(0,0,139)" width="6" stroke-dasharray="none" height="429" stroke="none"/>
<rect x="436" y="94" clip-path="url(#clipPath1)" fill="none" width="6" stroke-dasharray="none" height="429" stroke="black"/>
<rect x="442" y="139" clip-path="url(#clipPath1)" fill="rgb(0,0,139)" width="6" stroke-dasharray="none" height="384" stroke="none"/>
<rect x="442" y="139" clip-path="url(#clipPath1)" fill="none" width="6" stroke-dasharray="none" height="384" stroke="black"/>
<rect x="448" y="141" clip-path="url(#clipPath1)" fill="rgb(0,0,139)" width="6" stroke-dasharray="none" height="382" stroke="none"/>
<rect x="448" y="141" clip-path="url(#clipPath1)" fill="none" width="6" stroke-dasharray="none" height="382" stroke="black"/>
<rect x="454" y="182" clip-path="url(#clipPath1)" fill="rgb(0,0,139)" width="5" stroke-dasharray="none" height="341" stroke="none"/>
<rect x="454" y="182" clip-path="url(#clipPath1)" fill="none" width="5" stroke-dasharray="none" height="341" stroke="black"/>
<rect x="459" y="202" clip-path="url(#clipPath1)" fill="rgb(0,0,139)" width="6" stroke-dasharray="none" height="321" stroke="none"/>
<rect x="459" y="202" clip-path="url(#clipPath1)" fill="none" width="6" stroke-dasharray="none" height="321" stroke="black"/>
<rect x="465" y="198" clip-path="url(#clipPath1)" fill="rgb(0,0,139)" width="6" stroke-dasharray="none" height="325" stroke="none"/>
<rect x="465" y="198" clip-path="url(#clipPath1)" fill="none" width="6" stroke-dasharray="none" height="325" stroke="black"/>
<rect x="471" y="256" clip-path="url(#clipPath1)" fill="rgb(0,0,139)" width="6" stroke-dasharray="none" height="267" stroke="none"/>
<rect x="471" y="256" clip-path="url(#clipPath1)" fill="none" width="6" stroke-dasharray="none" height="267" stroke="black"/>
<rect x="477" y="266" clip-path="url(#clipPath1)" fill="rgb(0,0,139)" width="6" stroke-dasharray="none" height="257" stroke="none"/>
<rect x="477" y="266" clip-path="url(#clipPath1)" fill="none" width="6" stroke-dasharray="none" height="257" stroke="black"/>
<rect x="483" y="304" clip-path="url(#clipPath1)" fill="rgb(0,0,139)" width="6" stroke-dasharray="none" height="219" stroke="none"/>
<rect x="483" y="304" clip-path="url(#clipPath1)" fill="none" width="6" stroke-dasharray="none" height="219" stroke="black"/>
<rect x="489" y="328" clip-path="url(#clipPath1)" fill="rgb(0,0,139)" width="5" stroke-dasharray="none" height="195" stroke="none"/>
<rect x="489" y="328" clip-path="url(#clipPath1)" fill="none" width="5" stroke-dasharray="none" height="195" stroke="black"/>
<rect x="494" y="370" clip-path="url(#clipPath1)" fill="rgb(0,0,139)" width="6" stroke-dasharray="none" height="153" stroke="none"/>
<rect x="494" y="370" clip-path="url(#clipPath1)" fill="none" width="6" stroke-dasharray="none" height="153" stroke="black"/>
<rect x="500" y="384" clip-path="url(#clipPath1)" fill="rgb(0,0,139)" width="6" stroke-dasharray="none" height="139" stroke="none"/>
<rect x="500" y="384" clip-path="url(#clipPath1)" fill="none" width="6" stroke-dasharray="none" height="139" stroke="black"/>
<rect x="506" y="414" clip-path="url(#clipPath1)" fill="rgb(0,0,139)" width="6" stroke-dasharray="none" height="109" stroke="none"/>
<rect x="506" y="414" clip-path="url(#clipPath1)" fill="none" width="6" stroke-dasharray="none" height="109" stroke="black"/>
<rect x="512" y="428" clip-path="url(#clipPath1)" fill="rgb(0,0,139)" width="6" stroke-dasharray="none" height="95" stroke="none"/>
<rect x="512" y="428" clip-path="url(#clipPath1)" fill="none" width="6" stroke-dasharray="none" height="95" stroke="black"/>
<rect x="518" y="470" clip-path="url(#clipPath1)" fill="rgb(0,0,139)" width="6" stroke-dasharray="none" height="53" stroke="none"/>
<rect x="518" y="470" clip-path="url(#clipPath1)" fill="none" width="6" stroke-dasharray="none" height="53" stroke="black"/>
<rect x="524" y="478" clip-path="url(#clipPath1)" fill="rgb(0,0,139)" width="5" stroke-dasharray="none" height="45" stroke="none"/>
<rect x="524" y="478" clip-path="url(#clipPath1)" fill="none" width="5" stroke-dasharray="none" height="45" stroke="black"/>
<rect x="529" y="492" clip-path="url(#clipPath1)" fill="rgb(0,0,139)" width="6" stroke-dasharray="none" height="31" stroke="none"/>
<rect x="529" y="492" clip-path="url(#clipPath1)" fill="none" width="6" stroke-dasharray="none" height="31" stroke="black"/>
<rect x="535" y="500" clip-path="url(#clipPath1)" fill="rgb(0,0,139)" width="6" stroke-dasharray="none" height="23" stroke="none"/>
<rect x="535" y="500" clip-path="url(#clipPath1)" fill="none" width="6" stroke-dasharray="none" height="23" stroke="black"/>
<rect x="541" y="509" clip-path="url(#clipPath1)" fill="rgb(0,0,139)" width="6" stroke-dasharray="none" height="14" stroke="none"/>
<rect x="541" y="509" clip-path="url(#clipPath1)" fill="none" width="6" stroke-dasharray="none" height="14" stroke="black"/>
<rect x="547" y="512" clip-path="url(#clipPath1)" fill="rgb(0,0,139)" width="6" stroke-dasharray="none" height="11" stroke="none"/>
<rect x="547" y="512" clip-path="url(#clipPath1)" fill="none" width="6" stroke-dasharray="none" height="11" stroke="black"/>
<rect x="553" y="515" clip-path="url(#clipPath1)" fill="rgb(0,0,139)" width="6" stroke-dasharray="none" height="8" stroke="none"/>
<rect x="553" y="515" clip-path="url(#clipPath1)" fill="none" width="6" stroke-dasharray="none" height="8" stroke="black"/>
<rect x="559" y="518" clip-path="url(#clipPath1)" fill="rgb(0,0,139)" width="5" stroke-dasharray="none" height="5" stroke="none"/>
<rect x="559" y="518" clip-path="url(#clipPath1)" fill="none" width="5" stroke-dasharray="none" height="5" stroke="black"/>
<rect x="564" y="522" clip-path="url(#clipPath1)" fill="rgb(0,0,139)" width="6" stroke-dasharray="none" height="1" stroke="none"/>
<rect x="564" y="522" clip-path="url(#clipPath1)" fill="none" width="6" stroke-dasharray="none" height="1" stroke="black"/>
<rect x="570" y="522" clip-path="url(#clipPath1)" fill="rgb(0,0,139)" width="6" stroke-dasharray="none" height="1" stroke="none"/>
<rect x="570" y="522" clip-path="url(#clipPath1)" fill="none" width="6" stroke-dasharray="none" height="1" stroke="black"/>
<line clip-path="url(#clipPath1)" fill="none" x1="576" x2="582" y1="523" y2="523" stroke-dasharray="none" stroke="black"/>
<line clip-path="url(#clipPath1)" fill="none" x1="582" x2="588" y1="523" y2="523" stroke-dasharray="none" stroke="black"/>
<line clip-path="url(#clipPath1)" fill="none" x1="588" x2="594" y1="523" y2="523" stroke-dasharray="none" stroke="black"/>
<line clip-path="url(#clipPath1)" fill="none" x1="594" x2="599" y1="523" y2="523" stroke-dasharray="none" stroke="black"/>
<line clip-path="url(#clipPath1)" fill="none" x1="599" x2="605" y1="523" y2="523" stroke-dasharray="none" stroke="black"/>
<line clip-path="url(#clipPath1)" fill="none" x1="605" x2="611" y1="523" y2="523" stroke-dasharray="none" stroke="black"/>
<line clip-path="url(#clipPath1)" fill="none" x1="611" x2="617" y1="523" y2="523" stroke-dasharray="none" stroke="black"/>
<line clip-path="url(#clipPath1)" fill="none" x1="617" x2="623" y1="523" y2="523" stroke-dasharray="none" stroke="black"/>
<line clip-path="url(#clipPath1)" fill="none" x1="623" x2="629" y1="523" y2="523" stroke-dasharray="none" stroke="black"/>
<line clip-path="url(#clipPath1)" fill="none" x1="629" x2="634" y1="523" y2="523" stroke-dasharray="none" stroke="black"/>
<line clip-path="url(#clipPath1)" fill="none" x1="634" x2="640" y1="523" y2="523" stroke-dasharray="none" stroke="black"/>
<line clip-path="url(#clipPath1)" fill="none" x1="640" x2="646" y1="523" y2="523" stroke-dasharray="none" stroke="black"/>
<line clip-path="url(#clipPath1)" fill="none" x1="646" x2="652" y1="523" y2="523" stroke-dasharray="none" stroke="black"/>
<line clip-path="url(#clipPath1)" fill="none" x1="652" x2="658" y1="523" y2="523" stroke-dasharray="none" stroke="black"/>
<line clip-path="url(#clipPath1)" fill="none" x1="658" x2="664" y1="523" y2="523" stroke-dasharray="none" stroke="black"/>
<line clip-path="url(#clipPath1)" fill="none" x1="664" x2="669" y1="523" y2="523" stroke-dasharray="none" stroke="black"/>
<line clip-path="url(#clipPath1)" fill="none" x1="669" x2="675" y1="523" y2="523" stroke-dasharray="none" stroke="black"/>
<line clip-path="url(#clipPath1)" fill="none" x1="675" x2="681" y1="523" y2="523" stroke-dasharray="none" stroke="black"/>
<line clip-path="url(#clipPath1)" fill="none" x1="681" x2="687" y1="523" y2="523" stroke-dasharray="none" stroke="black"/>
<line clip-path="url(#clipPath1)" fill="none" x1="687" x2="693" y1="523" y2="523" stroke-dasharray="none" stroke="black"/>
<line clip-path="url(#clipPath1)" fill="none" x1="693" x2="699" y1="523" y2="523" stroke-dasharray="none" stroke="black"/>
<line clip-path="url(#clipPath1)" fill="none" x1="699" x2="704" y1="523" y2="523" stroke-dasharray="none" stroke="black"/>
<line clip-path="url(#clipPath1)" fill="none" x1="704" x2="710" y1="523" y2="523" stroke-dasharray="none" stroke="black"/>
<line clip-path="url(#clipPath1)" fill="none" x1="710" x2="716" y1="523" y2="523" stroke-dasharray="none" stroke="black"/>
<line clip-path="url(#clipPath1)" fill="none" x1="716" x2="722" y1="523" y2="523" stroke-dasharray="none" stroke="black"/>
<line clip-path="url(#clipPath1)" fill="none" x1="722" x2="728" y1="523" y2="523" stroke-dasharray="none" stroke="black"/>
<line clip-path="url(#clipPath1)" fill="none" x1="728" x2="734" y1="523" y2="523" stroke-dasharray="none" stroke="black"/>
<line clip-path="url(#clipPath1)" fill="none" x1="734" x2="739" y1="523" y2="523" stroke-dasharray="none" stroke="black"/>
<line clip-path="url(#clipPath1)" fill="none" x1="739" x2="745" y1="523" y2="523" stroke-dasharray="none" stroke="black"/>
<line clip-path="url(#clipPath1)" fill="none" x1="745" x2="751" y1="523" y2="523" stroke-dasharray="none" stroke="black"/>
<line clip-path="url(#clipPath1)" fill="none" x1="751" x2="757" y1="523" y2="523" stroke-dasharray="none" stroke="black"/>
<line clip-path="url(#clipPath1)" fill="none" x1="757" x2="763" y1="523" y2="523" stroke-dasharray="none" stroke="black"/>
<line clip-path="url(#clipPath1)" fill="none" x1="763" x2="769" y1="523" y2="523" stroke-dasharray="none" stroke="black"/>
<line clip-path="url(#clipPath1)" fill="none" x1="769" x2="774" y1="523" y2="523" stroke-dasharray="none" stroke="black"/>
<line clip-path="url(#clipPath1)" fill="none" x1="774" x2="780" y1="523" y2="523" stroke-dasharray="none" stroke="black"/>
<line clip-path="url(#clipPath1)" fill="none" x1="780" x2="786" y1="523" y2="523" stroke-dasharray="none" stroke="black"/>
<line clip-path="url(#clipPath1)" fill="none" x1="786" x2="792" y1="523" y2="523" stroke-dasharray="none" stroke="black"/>
<line clip-path="url(#clipPath1)" fill="none" x1="792" x2="798" y1="523" y2="523" stroke-dasharray="none" stroke="black"/>
<line clip-path="url(#clipPath1)" fill="none" x1="798" x2="804" y1="523" y2="523" stroke-dasharray="none" stroke="black"/>
<line clip-path="url(#clipPath1)" fill="none" x1="804" x2="809" y1="523" y2="523" stroke-dasharray="none" stroke="black"/>
<line clip-path="url(#clipPath1)" fill="none" x1="809" x2="815" y1="523" y2="523" stroke-dasharray="none" stroke="black"/>
<line clip-path="url(#clipPath1)" fill="none" x1="815" x2="821" y1="523" y2="523" stroke-dasharray="none" stroke="black"/>
<line clip-path="url(#clipPath1)" fill="none" x1="821" x2="827" y1="523" y2="523" stroke-dasharray="none" stroke="black"/>
<line clip-path="url(#clipPath1)" fill="none" x1="827" x2="833" y1="523" y2="523" stroke-dasharray="none" stroke="black"/>
<line clip-path="url(#clipPath1)" fill="none" x1="833" x2="839" y1="523" y2="523" stroke-dasharray="none" stroke="black"/>
<line clip-path="url(#clipPath1)" fill="none" x1="839" x2="844" y1="523" y2="523" stroke-dasharray="none" stroke="black"/>
<line clip-path="url(#clipPath1)" fill="none" x1="844" x2="850" y1="523" y2="523" stroke-dasharray="none" stroke="black"/>
<rect x="38" y="22" clip-path="url(#clipPath2)" fill="none" width="630" stroke-dasharray="none" height="500" stroke="black"/>
</g>
<g text-rendering="geometricPrecision" font-size="13" font-family="'Arial'" stroke-linecap="butt">
<line clip-path="url(#clipPath2)" fill="none" x1="38" x2="668" y1="20" y2="20"/>
<line clip-path="url(#clipPath2)" fill="none" x1="38" x2="668" y1="524" y2="524"/>
<line clip-path="url(#clipPath2)" fill="none" x1="49" x2="49" y1="18" y2="20"/>
<line clip-path="url(#clipPath2)" fill="none" x1="49" x2="49" y1="526" y2="524"/>
<line clip-path="url(#clipPath2)" fill="none" x1="65" x2="65" y1="18" y2="20"/>
<line clip-path="url(#clipPath2)" fill="none" x1="65" x2="65" y1="526" y2="524"/>
<line clip-path="url(#clipPath2)" fill="none" x1="81" x2="81" y1="16" y2="20"/>
<line clip-path="url(#clipPath2)" fill="none" x1="81" x2="81" y1="528" y2="524"/>
<text font-size="11" x="65" y="13" clip-path="url(#clipPath2)" stroke="none" xml:space="preserve">0.00050</text>
<text font-size="11" x="65" y="539" clip-path="url(#clipPath2)" stroke="none" xml:space="preserve">0.00050</text>
<line clip-path="url(#clipPath2)" fill="none" x1="97" x2="97" y1="18" y2="20"/>
<line clip-path="url(#clipPath2)" fill="none" x1="97" x2="97" y1="526" y2="524"/>
<line clip-path="url(#clipPath2)" fill="none" x1="113" x2="113" y1="18" y2="20"/>
<line clip-path="url(#clipPath2)" fill="none" x1="113" x2="113" y1="526" y2="524"/>
<line clip-path="url(#clipPath2)" fill="none" x1="129" x2="129" y1="18" y2="20"/>
<line clip-path="url(#clipPath2)" fill="none" x1="129" x2="129" y1="526" y2="524"/>
<line clip-path="url(#clipPath2)" fill="none" x1="145" x2="145" y1="18" y2="20"/>
<line clip-path="url(#clipPath2)" fill="none" x1="145" x2="145" y1="526" y2="524"/>
<line clip-path="url(#clipPath2)" fill="none" x1="160" x2="160" y1="16" y2="20"/>
<line clip-path="url(#clipPath2)" fill="none" x1="160" x2="160" y1="528" y2="524"/>
<text font-size="11" x="144" y="13" clip-path="url(#clipPath2)" stroke="none" xml:space="preserve">0.00060</text>
<text font-size="11" x="144" y="539" clip-path="url(#clipPath2)" stroke="none" xml:space="preserve">0.00060</text>
<line clip-path="url(#clipPath2)" fill="none" x1="176" x2="176" y1="18" y2="20"/>
<line clip-path="url(#clipPath2)" fill="none" x1="176" x2="176" y1="526" y2="524"/>
<line clip-path="url(#clipPath2)" fill="none" x1="192" x2="192" y1="18" y2="20"/>
<line clip-path="url(#clipPath2)" fill="none" x1="192" x2="192" y1="526" y2="524"/>
<line clip-path="url(#clipPath2)" fill="none" x1="208" x2="208" y1="18" y2="20"/>
<line clip-path="url(#clipPath2)" fill="none" x1="208" x2="208" y1="526" y2="524"/>
<line clip-path="url(#clipPath2)" fill="none" x1="224" x2="224" y1="18" y2="20"/>
<line clip-path="url(#clipPath2)" fill="none" x1="224" x2="224" y1="526" y2="524"/>
<line clip-path="url(#clipPath2)" fill="none" x1="240" x2="240" y1="16" y2="20"/>
<line clip-path="url(#clipPath2)" fill="none" x1="240" x2="240" y1="528" y2="524"/>
<text font-size="11" x="224" y="13" clip-path="url(#clipPath2)" stroke="none" xml:space="preserve">0.00070</text>
<text font-size="11" x="224" y="539" clip-path="url(#clipPath2)" stroke="none" xml:space="preserve">0.00070</text>
<line clip-path="url(#clipPath2)" fill="none" x1="256" x2="256" y1="18" y2="20"/>
<line clip-path="url(#clipPath2)" fill="none" x1="256" x2="256" y1="526" y2="524"/>
<line clip-path="url(#clipPath2)" fill="none" x1="272" x2="272" y1="18" y2="20"/>
<line clip-path="url(#clipPath2)" fill="none" x1="272" x2="272" y1="526" y2="524"/>
<line clip-path="url(#clipPath2)" fill="none" x1="288" x2="288" y1="18" y2="20"/>
<line clip-path="url(#clipPath2)" fill="none" x1="288" x2="288" y1="526" y2="524"/>
<line clip-path="url(#clipPath2)" fill="none" x1="304" x2="304" y1="18" y2="20"/>
<line clip-path="url(#clipPath2)" fill="none" x1="304" x2="304" y1="526" y2="524"/>
<line clip-path="url(#clipPath2)" fill="none" x1="319" x2="319" y1="16" y2="20"/>
<line clip-path="url(#clipPath2)" fill="none" x1="319" x2="319" y1="528" y2="524"/>
<text font-size="11" x="303" y="13" clip-path="url(#clipPath2)" stroke="none" xml:space="preserve">0.00080</text>
<text font-size="11" x="303" y="539" clip-path="url(#clipPath2)" stroke="none" xml:space="preserve">0.00080</text>
<line clip-path="url(#clipPath2)" fill="none" x1="335" x2="335" y1="18" y2="20"/>
<line clip-path="url(#clipPath2)" fill="none" x1="335" x2="335" y1="526" y2="524"/>
<line clip-path="url(#clipPath2)" fill="none" x1="351" x2="351" y1="18" y2="20"/>
<line clip-path="url(#clipPath2)" fill="none" x1="351" x2="351" y1="526" y2="524"/>
<line clip-path="url(#clipPath2)" fill="none" x1="367" x2="367" y1="18" y2="20"/>
<line clip-path="url(#clipPath2)" fill="none" x1="367" x2="367" y1="526" y2="524"/>
<line clip-path="url(#clipPath2)" fill="none" x1="383" x2="383" y1="18" y2="20"/>
<line clip-path="url(#clipPath2)" fill="none" x1="383" x2="383" y1="526" y2="524"/>
<line clip-path="url(#clipPath2)" fill="none" x1="399" x2="399" y1="16" y2="20"/>
<line clip-path="url(#clipPath2)" fill="none" x1="399" x2="399" y1="528" y2="524"/>
<text font-size="11" x="383" y="13" clip-path="url(#clipPath2)" stroke="none" xml:space="preserve">0.00090</text>
<text font-size="11" x="383" y="539" clip-path="url(#clipPath2)" stroke="none" xml:space="preserve">0.00090</text>
<line clip-path="url(#clipPath2)" fill="none" x1="415" x2="415" y1="18" y2="20"/>
<line clip-path="url(#clipPath2)" fill="none" x1="415" x2="415" y1="526" y2="524"/>
<line clip-path="url(#clipPath2)" fill="none" x1="431" x2="431" y1="18" y2="20"/>
<line clip-path="url(#clipPath2)" fill="none" x1="431" x2="431" y1="526" y2="524"/>
<line clip-path="url(#clipPath2)" fill="none" x1="447" x2="447" y1="18" y2="20"/>
<line clip-path="url(#clipPath2)" fill="none" x1="447" x2="447" y1="526" y2="524"/>
<line clip-path="url(#clipPath2)" fill="none" x1="462" x2="462" y1="18" y2="20"/>
<line clip-path="url(#clipPath2)" fill="none" x1="462" x2="462" y1="526" y2="524"/>
<line clip-path="url(#clipPath2)" fill="none" x1="478" x2="478" y1="16" y2="20"/>
<line clip-path="url(#clipPath2)" fill="none" x1="478" x2="478" y1="528" y2="524"/>
<text font-size="11" x="462" y="13" clip-path="url(#clipPath2)" stroke="none" xml:space="preserve">0.00100</text>
<text font-size="11" x="462" y="539" clip-path="url(#clipPath2)" stroke="none" xml:space="preserve">0.00100</text>
<line clip-path="url(#clipPath2)" fill="none" x1="494" x2="494" y1="18" y2="20"/>
<line clip-path="url(#clipPath2)" fill="none" x1="494" x2="494" y1="526" y2="524"/>
<line clip-path="url(#clipPath2)" fill="none" x1="510" x2="510" y1="18" y2="20"/>
<line clip-path="url(#clipPath2)" fill="none" x1="510" x2="510" y1="526" y2="524"/>
<line clip-path="url(#clipPath2)" fill="none" x1="526" x2="526" y1="18" y2="20"/>
<line clip-path="url(#clipPath2)" fill="none" x1="526" x2="526" y1="526" y2="524"/>
<line clip-path="url(#clipPath2)" fill="none" x1="542" x2="542" y1="18" y2="20"/>
<line clip-path="url(#clipPath2)" fill="none" x1="542" x2="542" y1="526" y2="524"/>
<line clip-path="url(#clipPath2)" fill="none" x1="558" x2="558" y1="16" y2="20"/>
<line clip-path="url(#clipPath2)" fill="none" x1="558" x2="558" y1="528" y2="524"/>
<text font-size="11" x="542" y="13" clip-path="url(#clipPath2)" stroke="none" xml:space="preserve">0.00110</text>
<text font-size="11" x="542" y="539" clip-path="url(#clipPath2)" stroke="none" xml:space="preserve">0.00110</text>
<line clip-path="url(#clipPath2)" fill="none" x1="574" x2="574" y1="18" y2="20"/>
<line clip-path="url(#clipPath2)" fill="none" x1="574" x2="574" y1="526" y2="524"/>
<line clip-path="url(#clipPath2)" fill="none" x1="590" x2="590" y1="18" y2="20"/>
<line clip-path="url(#clipPath2)" fill="none" x1="590" x2="590" y1="526" y2="524"/>
<line clip-path="url(#clipPath2)" fill="none" x1="606" x2="606" y1="18" y2="20"/>
<line clip-path="url(#clipPath2)" fill="none" x1="606" x2="606" y1="526" y2="524"/>
<line clip-path="url(#clipPath2)" fill="none" x1="621" x2="621" y1="18" y2="20"/>
<line clip-path="url(#clipPath2)" fill="none" x1="621" x2="621" y1="526" y2="524"/>
<line clip-path="url(#clipPath2)" fill="none" x1="637" x2="637" y1="16" y2="20"/>
<line clip-path="url(#clipPath2)" fill="none" x1="637" x2="637" y1="528" y2="524"/>
<text font-size="11" x="621" y="13" clip-path="url(#clipPath2)" stroke="none" xml:space="preserve">0.00120</text>
<text font-size="11" x="621" y="539" clip-path="url(#clipPath2)" stroke="none" xml:space="preserve">0.00120</text>
<line clip-path="url(#clipPath2)" fill="none" x1="653" x2="653" y1="18" y2="20"/>
<line clip-path="url(#clipPath2)" fill="none" x1="653" x2="653" y1="526" y2="524"/>
<line clip-path="url(#clipPath2)" fill="none" x1="36" x2="36" y1="22" y2="522"/>
<line clip-path="url(#clipPath2)" fill="none" x1="670" x2="670" y1="22" y2="522"/>
<line clip-path="url(#clipPath2)" fill="none" x1="34" x2="36" y1="492" y2="492"/>
<line clip-path="url(#clipPath2)" fill="none" x1="672" x2="670" y1="492" y2="492"/>
<line clip-path="url(#clipPath2)" fill="none" x1="32" x2="36" y1="460" y2="460"/>
<line clip-path="url(#clipPath2)" fill="none" x1="674" x2="670" y1="460" y2="460"/>
<text font-size="11" x="16" y="464" clip-path="url(#clipPath2)" stroke="none" xml:space="preserve">200</text>
<text font-size="11" x="677" y="464" clip-path="url(#clipPath2)" stroke="none" xml:space="preserve">200</text>
<line clip-path="url(#clipPath2)" fill="none" x1="34" x2="36" y1="428" y2="428"/>
<line clip-path="url(#clipPath2)" fill="none" x1="672" x2="670" y1="428" y2="428"/>
<line clip-path="url(#clipPath2)" fill="none" x1="32" x2="36" y1="396" y2="396"/>
<line clip-path="url(#clipPath2)" fill="none" x1="674" x2="670" y1="396" y2="396"/>
<text font-size="11" x="16" y="400" clip-path="url(#clipPath2)" stroke="none" xml:space="preserve">400</text>
<text font-size="11" x="677" y="400" clip-path="url(#clipPath2)" stroke="none" xml:space="preserve">400</text>
<line clip-path="url(#clipPath2)" fill="none" x1="34" x2="36" y1="364" y2="364"/>
<line clip-path="url(#clipPath2)" fill="none" x1="672" x2="670" y1="364" y2="364"/>
<line clip-path="url(#clipPath2)" fill="none" x1="32" x2="36" y1="333" y2="333"/>
<line clip-path="url(#clipPath2)" fill="none" x1="674" x2="670" y1="333" y2="333"/>
<text font-size="11" x="16" y="337" clip-path="url(#clipPath2)" stroke="none" xml:space="preserve">600</text>
<text font-size="11" x="677" y="337" clip-path="url(#clipPath2)" stroke="none" xml:space="preserve">600</text>
<line clip-path="url(#clipPath2)" fill="none" x1="34" x2="36" y1="301" y2="301"/>
<line clip-path="url(#clipPath2)" fill="none" x1="672" x2="670" y1="301" y2="301"/>
<line clip-path="url(#clipPath2)" fill="none" x1="32" x2="36" y1="269" y2="269"/>
<line clip-path="url(#clipPath2)" fill="none" x1="674" x2="670" y1="269" y2="269"/>
<text font-size="11" x="16" y="273" clip-path="url(#clipPath2)" stroke="none" xml:space="preserve">800</text>
<text font-size="11" x="677" y="273" clip-path="url(#clipPath2)" stroke="none" xml:space="preserve">800</text>
<line clip-path="url(#clipPath2)" fill="none" x1="34" x2="36" y1="237" y2="237"/>
<line clip-path="url(#clipPath2)" fill="none" x1="672" x2="670" y1="237" y2="237"/>
<line clip-path="url(#clipPath2)" fill="none" x1="32" x2="36" y1="206" y2="206"/>
<line clip-path="url(#clipPath2)" fill="none" x1="674" x2="670" y1="206" y2="206"/>
<text font-size="11" x="11" y="210" clip-path="url(#clipPath2)" stroke="none" xml:space="preserve">1000</text>
<text font-size="11" x="677" y="210" clip-path="url(#clipPath2)" stroke="none" xml:space="preserve">1000</text>
<line clip-path="url(#clipPath2)" fill="none" x1="34" x2="36" y1="174" y2="174"/>
<line clip-path="url(#clipPath2)" fill="none" x1="672" x2="670" y1="174" y2="174"/>
<line clip-path="url(#clipPath2)" fill="none" x1="32" x2="36" y1="142" y2="142"/>
<line clip-path="url(#clipPath2)" fill="none" x1="674" x2="670" y1="142" y2="142"/>
<text font-size="11" x="11" y="146" clip-path="url(#clipPath2)" stroke="none" xml:space="preserve">1200</text>
<text font-size="11" x="677" y="146" clip-path="url(#clipPath2)" stroke="none" xml:space="preserve">1200</text>
<line clip-path="url(#clipPath2)" fill="none" x1="34" x2="36" y1="110" y2="110"/>
<line clip-path="url(#clipPath2)" fill="none" x1="672" x2="670" y1="110" y2="110"/>
<line clip-path="url(#clipPath2)" fill="none" x1="32" x2="36" y1="79" y2="79"/>
<line clip-path="url(#clipPath2)" fill="none" x1="674" x2="670" y1="79" y2="79"/>
<text font-size="11" x="11" y="83" clip-path="url(#clipPath2)" stroke="none" xml:space="preserve">1400</text>
<text font-size="11" x="677" y="83" clip-path="url(#clipPath2)" stroke="none" xml:space="preserve">1400</text>
<line clip-path="url(#clipPath2)" fill="none" x1="34" x2="36" y1="47" y2="47"/>
<line clip-path="url(#clipPath2)" fill="none" x1="672" x2="670" y1="47" y2="47"/>
</g>
</g>
</svg>
