<?xml version="1.0" encoding="UTF-8"?><svg xmlns="http://www.w3.org/2000/svg" xmlns:xlink="http://www.w3.org/1999/xlink" stroke-dasharray="none" shape-rendering="auto" font-family="'Dialog'" width="701" text-rendering="auto" fill-opacity="1" contentScriptType="text/ecmascript" color-interpolation="auto" color-rendering="auto" preserveAspectRatio="xMidYMid meet" font-size="12" fill="black" stroke="black" image-rendering="auto" stroke-miterlimit="10" zoomAndPan="magnify" version="1.0" stroke-linecap="square" stroke-linejoin="miter" contentStyleType="text/css" font-style="normal" height="453" stroke-width="1" stroke-dashoffset="0" font-weight="normal" stroke-opacity="1">
<!--Generated by the Batik Graphics2D SVG Generator-->
<defs id="genericDefs"/>
<g>
<defs id="defs1">
<clipPath clipPathUnits="userSpaceOnUse" id="clipPath1">
<path d="M48 22 L653 22 L653 431 L48 431 L48 22 Z"/>
</clipPath>
<clipPath clipPathUnits="userSpaceOnUse" id="clipPath2">
<path d="M-1 -1 L702 -1 L702 454 L-1 454 L-1 -1 Z"/>
</clipPath>
</defs>
<g font-size="15" fill="white" text-rendering="geometricPrecision" font-family="'Cantarell'" stroke-linejoin="round" stroke="white" stroke-width="0" stroke-miterlimit="0">
<rect x="49" y="23" clip-path="url(#clipPath1)" width="603" height="407" stroke="none"/>
</g>
<g stroke-linecap="butt" font-size="15" fill="rgb(204,204,204)" text-rendering="geometricPrecision" font-family="'Cantarell'" stroke-dasharray="3,3" stroke="rgb(204,204,204)">
<line clip-path="url(#clipPath1)" fill="none" x1="49" x2="652" y1="430" y2="430"/>
<line clip-path="url(#clipPath1)" fill="none" x1="49" x2="652" y1="333" y2="333"/>
<line clip-path="url(#clipPath1)" fill="none" x1="49" x2="652" y1="235" y2="235"/>
<line clip-path="url(#clipPath1)" fill="none" x1="49" x2="652" y1="138" y2="138"/>
<line clip-path="url(#clipPath1)" fill="none" x1="49" x2="652" y1="40" y2="40"/>
<line clip-path="url(#clipPath1)" fill="none" x1="-197" x2="-191" y1="430" y2="430" stroke-dasharray="none" stroke="black"/>
<line clip-path="url(#clipPath1)" fill="none" x1="-191" x2="-185" y1="430" y2="430" stroke-dasharray="none" stroke="black"/>
<line clip-path="url(#clipPath1)" fill="none" x1="-185" x2="-180" y1="430" y2="430" stroke-dasharray="none" stroke="black"/>
<line clip-path="url(#clipPath1)" fill="none" x1="-180" x2="-174" y1="430" y2="430" stroke-dasharray="none" stroke="black"/>
<line clip-path="url(#clipPath1)" fill="none" x1="-174" x2="-169" y1="430" y2="430" stroke-dasharray="none" stroke="black"/>
<line clip-path="url(#clipPath1)" fill="none" x1="-169" x2="-163" y1="430" y2="430" stroke-dasharray="none" stroke="black"/>
<line clip-path="url(#clipPath1)" fill="none" x1="-163" x2="-158" y1="430" y2="430" stroke-dasharray="none" stroke="black"/>
<line clip-path="url(#clipPath1)" fill="none" x1="-158" x2="-152" y1="430" y2="430" stroke-dasharray="none" stroke="black"/>
<line clip-path="url(#clipPath1)" fill="none" x1="-152" x2="-147" y1="430" y2="430" stroke-dasharray="none" stroke="black"/>
<line clip-path="url(#clipPath1)" fill="none" x1="-147" x2="-141" y1="430" y2="430" stroke-dasharray="none" stroke="black"/>
<line clip-path="url(#clipPath1)" fill="none" x1="-141" x2="-136" y1="430" y2="430" stroke-dasharray="none" stroke="black"/>
<line clip-path="url(#clipPath1)" fill="none" x1="-136" x2="-130" y1="430" y2="430" stroke-dasharray="none" stroke="black"/>
<line clip-path="url(#clipPath1)" fill="none" x1="-130" x2="-125" y1="430" y2="430" stroke-dasharray="none" stroke="black"/>
<line clip-path="url(#clipPath1)" fill="none" x1="-125" x2="-119" y1="430" y2="430" stroke-dasharray="none" stroke="black"/>
<line clip-path="url(#clipPath1)" fill="none" x1="-119" x2="-114" y1="430" y2="430" stroke-dasharray="none" stroke="black"/>
<line clip-path="url(#clipPath1)" fill="none" x1="-114" x2="-108" y1="430" y2="430" stroke-dasharray="none" stroke="black"/>
<line clip-path="url(#clipPath1)" fill="none" x1="-108" x2="-103" y1="430" y2="430" stroke-dasharray="none" stroke="black"/>
<line clip-path="url(#clipPath1)" fill="none" x1="-103" x2="-97" y1="430" y2="430" stroke-dasharray="none" stroke="black"/>
<line clip-path="url(#clipPath1)" fill="none" x1="-97" x2="-92" y1="430" y2="430" stroke-dasharray="none" stroke="black"/>
<line clip-path="url(#clipPath1)" fill="none" x1="-92" x2="-86" y1="430" y2="430" stroke-dasharray="none" stroke="black"/>
<line clip-path="url(#clipPath1)" fill="none" x1="-86" x2="-81" y1="430" y2="430" stroke-dasharray="none" stroke="black"/>
<line clip-path="url(#clipPath1)" fill="none" x1="-81" x2="-75" y1="430" y2="430" stroke-dasharray="none" stroke="black"/>
<line clip-path="url(#clipPath1)" fill="none" x1="-75" x2="-70" y1="430" y2="430" stroke-dasharray="none" stroke="black"/>
<line clip-path="url(#clipPath1)" fill="none" x1="-70" x2="-64" y1="430" y2="430" stroke-dasharray="none" stroke="black"/>
<line clip-path="url(#clipPath1)" fill="none" x1="-64" x2="-59" y1="430" y2="430" stroke-dasharray="none" stroke="black"/>
<line clip-path="url(#clipPath1)" fill="none" x1="-59" x2="-53" y1="430" y2="430" stroke-dasharray="none" stroke="black"/>
<line clip-path="url(#clipPath1)" fill="none" x1="-53" x2="-48" y1="430" y2="430" stroke-dasharray="none" stroke="black"/>
<line clip-path="url(#clipPath1)" fill="none" x1="-48" x2="-42" y1="430" y2="430" stroke-dasharray="none" stroke="black"/>
<line clip-path="url(#clipPath1)" fill="none" x1="-42" x2="-37" y1="430" y2="430" stroke-dasharray="none" stroke="black"/>
<line clip-path="url(#clipPath1)" fill="none" x1="-37" x2="-31" y1="430" y2="430" stroke-dasharray="none" stroke="black"/>
<line clip-path="url(#clipPath1)" fill="none" x1="-31" x2="-26" y1="430" y2="430" stroke-dasharray="none" stroke="black"/>
<line clip-path="url(#clipPath1)" fill="none" x1="-26" x2="-20" y1="430" y2="430" stroke-dasharray="none" stroke="black"/>
<line clip-path="url(#clipPath1)" fill="none" x1="-20" x2="-15" y1="430" y2="430" stroke-dasharray="none" stroke="black"/>
<line clip-path="url(#clipPath1)" fill="none" x1="-15" x2="-9" y1="430" y2="430" stroke-dasharray="none" stroke="black"/>
<line clip-path="url(#clipPath1)" fill="none" x1="-9" x2="-4" y1="430" y2="430" stroke-dasharray="none" stroke="black"/>
<line clip-path="url(#clipPath1)" fill="none" x1="-4" x2="1" y1="430" y2="430" stroke-dasharray="none" stroke="black"/>
<line clip-path="url(#clipPath1)" fill="none" x1="1" x2="6" y1="430" y2="430" stroke-dasharray="none" stroke="black"/>
<line clip-path="url(#clipPath1)" fill="none" x1="6" x2="12" y1="430" y2="430" stroke-dasharray="none" stroke="black"/>
<line clip-path="url(#clipPath1)" fill="none" x1="12" x2="17" y1="430" y2="430" stroke-dasharray="none" stroke="black"/>
<line clip-path="url(#clipPath1)" fill="none" x1="17" x2="23" y1="430" y2="430" stroke-dasharray="none" stroke="black"/>
<line clip-path="url(#clipPath1)" fill="none" x1="23" x2="28" y1="430" y2="430" stroke-dasharray="none" stroke="black"/>
<line clip-path="url(#clipPath1)" fill="none" x1="28" x2="34" y1="430" y2="430" stroke-dasharray="none" stroke="black"/>
<line clip-path="url(#clipPath1)" fill="none" x1="34" x2="39" y1="430" y2="430" stroke-dasharray="none" stroke="black"/>
<line clip-path="url(#clipPath1)" fill="none" x1="39" x2="45" y1="430" y2="430" stroke-dasharray="none" stroke="black"/>
<line clip-path="url(#clipPath1)" fill="none" x1="45" x2="51" y1="430" y2="430" stroke-dasharray="none" stroke="black"/>
<line clip-path="url(#clipPath1)" fill="none" x1="51" x2="56" y1="430" y2="430" stroke-dasharray="none" stroke="black"/>
<line clip-path="url(#clipPath1)" fill="none" x1="56" x2="62" y1="430" y2="430" stroke-dasharray="none" stroke="black"/>
<line clip-path="url(#clipPath1)" fill="none" x1="62" x2="67" y1="430" y2="430" stroke-dasharray="none" stroke="black"/>
<rect x="67" y="74" clip-path="url(#clipPath1)" fill="rgb(0,0,139)" width="6" stroke-dasharray="none" height="356" stroke="none"/>
<rect x="67" y="74" clip-path="url(#clipPath1)" fill="none" width="6" stroke-dasharray="none" height="356" stroke="black"/>
<rect x="73" y="280" clip-path="url(#clipPath1)" fill="rgb(0,0,139)" width="5" stroke-dasharray="none" height="150" stroke="none"/>
<rect x="73" y="280" clip-path="url(#clipPath1)" fill="none" width="5" stroke-dasharray="none" height="150" stroke="black"/>
<rect x="78" y="331" clip-path="url(#clipPath1)" fill="rgb(0,0,139)" width="6" stroke-dasharray="none" height="99" stroke="none"/>
<rect x="78" y="331" clip-path="url(#clipPath1)" fill="none" width="6" stroke-dasharray="none" height="99" stroke="black"/>
<rect x="84" y="391" clip-path="url(#clipPath1)" fill="rgb(0,0,139)" width="5" stroke-dasharray="none" height="39" stroke="none"/>
<rect x="84" y="391" clip-path="url(#clipPath1)" fill="none" width="5" stroke-dasharray="none" height="39" stroke="black"/>
<rect x="89" y="408" clip-path="url(#clipPath1)" fill="rgb(0,0,139)" width="6" stroke-dasharray="none" height="22" stroke="none"/>
<rect x="89" y="408" clip-path="url(#clipPath1)" fill="none" width="6" stroke-dasharray="none" height="22" stroke="black"/>
<rect x="95" y="418" clip-path="url(#clipPath1)" fill="rgb(0,0,139)" width="5" stroke-dasharray="none" height="12" stroke="none"/>
<rect x="95" y="418" clip-path="url(#clipPath1)" fill="none" width="5" stroke-dasharray="none" height="12" stroke="black"/>
<rect x="100" y="422" clip-path="url(#clipPath1)" fill="rgb(0,0,139)" width="6" stroke-dasharray="none" height="8" stroke="none"/>
<rect x="100" y="422" clip-path="url(#clipPath1)" fill="none" width="6" stroke-dasharray="none" height="8" stroke="black"/>
<rect x="106" y="425" clip-path="url(#clipPath1)" fill="rgb(0,0,139)" width="5" stroke-dasharray="none" height="5" stroke="none"/>
<rect x="106" y="425" clip-path="url(#clipPath1)" fill="none" width="5" stroke-dasharray="none" height="5" stroke="black"/>
<rect x="111" y="424" clip-path="url(#clipPath1)" fill="rgb(0,0,139)" width="6" stroke-dasharray="none" height="6" stroke="none"/>
<rect x="111" y="424" clip-path="url(#clipPath1)" fill="none" width="6" stroke-dasharray="none" height="6" stroke="black"/>
<rect x="117" y="426" clip-path="url(#clipPath1)" fill="rgb(0,0,139)" width="5" stroke-dasharray="none" height="4" stroke="none"/>
<rect x="117" y="426" clip-path="url(#clipPath1)" fill="none" width="5" stroke-dasharray="none" height="4" stroke="black"/>
<rect x="122" y="426" clip-path="url(#clipPath1)" fill="rgb(0,0,139)" width="6" stroke-dasharray="none" height="4" stroke="none"/>
<rect x="122" y="426" clip-path="url(#clipPath1)" fill="none" width="6" stroke-dasharray="none" height="4" stroke="black"/>
<rect x="128" y="427" clip-path="url(#clipPath1)" fill="rgb(0,0,139)" width="5" stroke-dasharray="none" height="3" stroke="none"/>
<rect x="128" y="427" clip-path="url(#clipPath1)" fill="none" width="5" stroke-dasharray="none" height="3" stroke="black"/>
<rect x="133" y="427" clip-path="url(#clipPath1)" fill="rgb(0,0,139)" width="6" stroke-dasharray="none" height="3" stroke="none"/>
<rect x="133" y="427" clip-path="url(#clipPath1)" fill="none" width="6" stroke-dasharray="none" height="3" stroke="black"/>
<rect x="139" y="427" clip-path="url(#clipPath1)" fill="rgb(0,0,139)" width="5" stroke-dasharray="none" height="3" stroke="none"/>
<rect x="139" y="427" clip-path="url(#clipPath1)" fill="none" width="5" stroke-dasharray="none" height="3" stroke="black"/>
<rect x="144" y="427" clip-path="url(#clipPath1)" fill="rgb(0,0,139)" width="6" stroke-dasharray="none" height="3" stroke="none"/>
<rect x="144" y="427" clip-path="url(#clipPath1)" fill="none" width="6" stroke-dasharray="none" height="3" stroke="black"/>
<rect x="150" y="426" clip-path="url(#clipPath1)" fill="rgb(0,0,139)" width="5" stroke-dasharray="none" height="4" stroke="none"/>
<rect x="150" y="426" clip-path="url(#clipPath1)" fill="none" width="5" stroke-dasharray="none" height="4" stroke="black"/>
<rect x="155" y="427" clip-path="url(#clipPath1)" fill="rgb(0,0,139)" width="6" stroke-dasharray="none" height="3" stroke="none"/>
<rect x="155" y="427" clip-path="url(#clipPath1)" fill="none" width="6" stroke-dasharray="none" height="3" stroke="black"/>
<rect x="161" y="427" clip-path="url(#clipPath1)" fill="rgb(0,0,139)" width="5" stroke-dasharray="none" height="3" stroke="none"/>
<rect x="161" y="427" clip-path="url(#clipPath1)" fill="none" width="5" stroke-dasharray="none" height="3" stroke="black"/>
<rect x="166" y="427" clip-path="url(#clipPath1)" fill="rgb(0,0,139)" width="6" stroke-dasharray="none" height="3" stroke="none"/>
<rect x="166" y="427" clip-path="url(#clipPath1)" fill="none" width="6" stroke-dasharray="none" height="3" stroke="black"/>
<rect x="172" y="427" clip-path="url(#clipPath1)" fill="rgb(0,0,139)" width="5" stroke-dasharray="none" height="3" stroke="none"/>
<rect x="172" y="427" clip-path="url(#clipPath1)" fill="none" width="5" stroke-dasharray="none" height="3" stroke="black"/>
<rect x="177" y="427" clip-path="url(#clipPath1)" fill="rgb(0,0,139)" width="6" stroke-dasharray="none" height="3" stroke="none"/>
<rect x="177" y="427" clip-path="url(#clipPath1)" fill="none" width="6" stroke-dasharray="none" height="3" stroke="black"/>
<rect x="183" y="427" clip-path="url(#clipPath1)" fill="rgb(0,0,139)" width="5" stroke-dasharray="none" height="3" stroke="none"/>
<rect x="183" y="427" clip-path="url(#clipPath1)" fill="none" width="5" stroke-dasharray="none" height="3" stroke="black"/>
<rect x="188" y="427" clip-path="url(#clipPath1)" fill="rgb(0,0,139)" width="6" stroke-dasharray="none" height="3" stroke="none"/>
<rect x="188" y="427" clip-path="url(#clipPath1)" fill="none" width="6" stroke-dasharray="none" height="3" stroke="black"/>
<rect x="194" y="427" clip-path="url(#clipPath1)" fill="rgb(0,0,139)" width="5" stroke-dasharray="none" height="3" stroke="none"/>
<rect x="194" y="427" clip-path="url(#clipPath1)" fill="none" width="5" stroke-dasharray="none" height="3" stroke="black"/>
<rect x="199" y="427" clip-path="url(#clipPath1)" fill="rgb(0,0,139)" width="6" stroke-dasharray="none" height="3" stroke="none"/>
<rect x="199" y="427" clip-path="url(#clipPath1)" fill="none" width="6" stroke-dasharray="none" height="3" stroke="black"/>
<rect x="205" y="427" clip-path="url(#clipPath1)" fill="rgb(0,0,139)" width="5" stroke-dasharray="none" height="3" stroke="none"/>
<rect x="205" y="427" clip-path="url(#clipPath1)" fill="none" width="5" stroke-dasharray="none" height="3" stroke="black"/>
<rect x="210" y="428" clip-path="url(#clipPath1)" fill="rgb(0,0,139)" width="6" stroke-dasharray="none" height="2" stroke="none"/>
<rect x="210" y="428" clip-path="url(#clipPath1)" fill="none" width="6" stroke-dasharray="none" height="2" stroke="black"/>
<rect x="216" y="428" clip-path="url(#clipPath1)" fill="rgb(0,0,139)" width="5" stroke-dasharray="none" height="2" stroke="none"/>
<rect x="216" y="428" clip-path="url(#clipPath1)" fill="none" width="5" stroke-dasharray="none" height="2" stroke="black"/>
<rect x="221" y="427" clip-path="url(#clipPath1)" fill="rgb(0,0,139)" width="6" stroke-dasharray="none" height="3" stroke="none"/>
<rect x="221" y="427" clip-path="url(#clipPath1)" fill="none" width="6" stroke-dasharray="none" height="3" stroke="black"/>
<rect x="227" y="427" clip-path="url(#clipPath1)" fill="rgb(0,0,139)" width="5" stroke-dasharray="none" height="3" stroke="none"/>
<rect x="227" y="427" clip-path="url(#clipPath1)" fill="none" width="5" stroke-dasharray="none" height="3" stroke="black"/>
<rect x="232" y="427" clip-path="url(#clipPath1)" fill="rgb(0,0,139)" width="6" stroke-dasharray="none" height="3" stroke="none"/>
<rect x="232" y="427" clip-path="url(#clipPath1)" fill="none" width="6" stroke-dasharray="none" height="3" stroke="black"/>
<rect x="238" y="427" clip-path="url(#clipPath1)" fill="rgb(0,0,139)" width="5" stroke-dasharray="none" height="3" stroke="none"/>
<rect x="238" y="427" clip-path="url(#clipPath1)" fill="none" width="5" stroke-dasharray="none" height="3" stroke="black"/>
<rect x="243" y="427" clip-path="url(#clipPath1)" fill="rgb(0,0,139)" width="6" stroke-dasharray="none" height="3" stroke="none"/>
<rect x="243" y="427" clip-path="url(#clipPath1)" fill="none" width="6" stroke-dasharray="none" height="3" stroke="black"/>
<rect x="249" y="427" clip-path="url(#clipPath1)" fill="rgb(0,0,139)" width="5" stroke-dasharray="none" height="3" stroke="none"/>
<rect x="249" y="427" clip-path="url(#clipPath1)" fill="none" width="5" stroke-dasharray="none" height="3" stroke="black"/>
<rect x="254" y="427" clip-path="url(#clipPath1)" fill="rgb(0,0,139)" width="6" stroke-dasharray="none" height="3" stroke="none"/>
<rect x="254" y="427" clip-path="url(#clipPath1)" fill="none" width="6" stroke-dasharray="none" height="3" stroke="black"/>
<rect x="260" y="428" clip-path="url(#clipPath1)" fill="rgb(0,0,139)" width="5" stroke-dasharray="none" height="2" stroke="none"/>
<rect x="260" y="428" clip-path="url(#clipPath1)" fill="none" width="5" stroke-dasharray="none" height="2" stroke="black"/>
<rect x="265" y="428" clip-path="url(#clipPath1)" fill="rgb(0,0,139)" width="6" stroke-dasharray="none" height="2" stroke="none"/>
<rect x="265" y="428" clip-path="url(#clipPath1)" fill="none" width="6" stroke-dasharray="none" height="2" stroke="black"/>
<rect x="271" y="428" clip-path="url(#clipPath1)" fill="rgb(0,0,139)" width="5" stroke-dasharray="none" height="2" stroke="none"/>
<rect x="271" y="428" clip-path="url(#clipPath1)" fill="none" width="5" stroke-dasharray="none" height="2" stroke="black"/>
<rect x="276" y="428" clip-path="url(#clipPath1)" fill="rgb(0,0,139)" width="6" stroke-dasharray="none" height="2" stroke="none"/>
<rect x="276" y="428" clip-path="url(#clipPath1)" fill="none" width="6" stroke-dasharray="none" height="2" stroke="black"/>
<rect x="282" y="428" clip-path="url(#clipPath1)" fill="rgb(0,0,139)" width="5" stroke-dasharray="none" height="2" stroke="none"/>
<rect x="282" y="428" clip-path="url(#clipPath1)" fill="none" width="5" stroke-dasharray="none" height="2" stroke="black"/>
<rect x="287" y="428" clip-path="url(#clipPath1)" fill="rgb(0,0,139)" width="6" stroke-dasharray="none" height="2" stroke="none"/>
<rect x="287" y="428" clip-path="url(#clipPath1)" fill="none" width="6" stroke-dasharray="none" height="2" stroke="black"/>
<rect x="293" y="428" clip-path="url(#clipPath1)" fill="rgb(0,0,139)" width="6" stroke-dasharray="none" height="2" stroke="none"/>
<rect x="293" y="428" clip-path="url(#clipPath1)" fill="none" width="6" stroke-dasharray="none" height="2" stroke="black"/>
<rect x="299" y="429" clip-path="url(#clipPath1)" fill="rgb(0,0,139)" width="5" stroke-dasharray="none" height="1" stroke="none"/>
<rect x="299" y="429" clip-path="url(#clipPath1)" fill="none" width="5" stroke-dasharray="none" height="1" stroke="black"/>
<rect x="304" y="429" clip-path="url(#clipPath1)" fill="rgb(0,0,139)" width="6" stroke-dasharray="none" height="1" stroke="none"/>
<rect x="304" y="429" clip-path="url(#clipPath1)" fill="none" width="6" stroke-dasharray="none" height="1" stroke="black"/>
<rect x="310" y="428" clip-path="url(#clipPath1)" fill="rgb(0,0,139)" width="5" stroke-dasharray="none" height="2" stroke="none"/>
<rect x="310" y="428" clip-path="url(#clipPath1)" fill="none" width="5" stroke-dasharray="none" height="2" stroke="black"/>
<rect x="315" y="428" clip-path="url(#clipPath1)" fill="rgb(0,0,139)" width="6" stroke-dasharray="none" height="2" stroke="none"/>
<rect x="315" y="428" clip-path="url(#clipPath1)" fill="none" width="6" stroke-dasharray="none" height="2" stroke="black"/>
<rect x="321" y="428" clip-path="url(#clipPath1)" fill="rgb(0,0,139)" width="5" stroke-dasharray="none" height="2" stroke="none"/>
<rect x="321" y="428" clip-path="url(#clipPath1)" fill="none" width="5" stroke-dasharray="none" height="2" stroke="black"/>
<rect x="326" y="429" clip-path="url(#clipPath1)" fill="rgb(0,0,139)" width="6" stroke-dasharray="none" height="1" stroke="none"/>
<rect x="326" y="429" clip-path="url(#clipPath1)" fill="none" width="6" stroke-dasharray="none" height="1" stroke="black"/>
<rect x="332" y="428" clip-path="url(#clipPath1)" fill="rgb(0,0,139)" width="5" stroke-dasharray="none" height="2" stroke="none"/>
<rect x="332" y="428" clip-path="url(#clipPath1)" fill="none" width="5" stroke-dasharray="none" height="2" stroke="black"/>
<rect x="337" y="428" clip-path="url(#clipPath1)" fill="rgb(0,0,139)" width="6" stroke-dasharray="none" height="2" stroke="none"/>
<rect x="337" y="428" clip-path="url(#clipPath1)" fill="none" width="6" stroke-dasharray="none" height="2" stroke="black"/>
<rect x="343" y="428" clip-path="url(#clipPath1)" fill="rgb(0,0,139)" width="5" stroke-dasharray="none" height="2" stroke="none"/>
<rect x="343" y="428" clip-path="url(#clipPath1)" fill="none" width="5" stroke-dasharray="none" height="2" stroke="black"/>
<rect x="348" y="428" clip-path="url(#clipPath1)" fill="rgb(0,0,139)" width="6" stroke-dasharray="none" height="2" stroke="none"/>
<rect x="348" y="428" clip-path="url(#clipPath1)" fill="none" width="6" stroke-dasharray="none" height="2" stroke="black"/>
<rect x="354" y="428" clip-path="url(#clipPath1)" fill="rgb(0,0,139)" width="5" stroke-dasharray="none" height="2" stroke="none"/>
<rect x="354" y="428" clip-path="url(#clipPath1)" fill="none" width="5" stroke-dasharray="none" height="2" stroke="black"/>
<rect x="359" y="429" clip-path="url(#clipPath1)" fill="rgb(0,0,139)" width="6" stroke-dasharray="none" height="1" stroke="none"/>
<rect x="359" y="429" clip-path="url(#clipPath1)" fill="none" width="6" stroke-dasharray="none" height="1" stroke="black"/>
<rect x="365" y="428" clip-path="url(#clipPath1)" fill="rgb(0,0,139)" width="5" stroke-dasharray="none" height="2" stroke="none"/>
<rect x="365" y="428" clip-path="url(#clipPath1)" fill="none" width="5" stroke-dasharray="none" height="2" stroke="black"/>
<rect x="370" y="428" clip-path="url(#clipPath1)" fill="rgb(0,0,139)" width="6" stroke-dasharray="none" height="2" stroke="none"/>
<rect x="370" y="428" clip-path="url(#clipPath1)" fill="none" width="6" stroke-dasharray="none" height="2" stroke="black"/>
<rect x="376" y="428" clip-path="url(#clipPath1)" fill="rgb(0,0,139)" width="5" stroke-dasharray="none" height="2" stroke="none"/>
<rect x="376" y="428" clip-path="url(#clipPath1)" fill="none" width="5" stroke-dasharray="none" height="2" stroke="black"/>
<rect x="381" y="429" clip-path="url(#clipPath1)" fill="rgb(0,0,139)" width="6" stroke-dasharray="none" height="1" stroke="none"/>
<rect x="381" y="429" clip-path="url(#clipPath1)" fill="none" width="6" stroke-dasharray="none" height="1" stroke="black"/>
<rect x="387" y="429" clip-path="url(#clipPath1)" fill="rgb(0,0,139)" width="5" stroke-dasharray="none" height="1" stroke="none"/>
<rect x="387" y="429" clip-path="url(#clipPath1)" fill="none" width="5" stroke-dasharray="none" height="1" stroke="black"/>
<rect x="392" y="429" clip-path="url(#clipPath1)" fill="rgb(0,0,139)" width="6" stroke-dasharray="none" height="1" stroke="none"/>
<rect x="392" y="429" clip-path="url(#clipPath1)" fill="none" width="6" stroke-dasharray="none" height="1" stroke="black"/>
<rect x="398" y="429" clip-path="url(#clipPath1)" fill="rgb(0,0,139)" width="5" stroke-dasharray="none" height="1" stroke="none"/>
<rect x="398" y="429" clip-path="url(#clipPath1)" fill="none" width="5" stroke-dasharray="none" height="1" stroke="black"/>
<rect x="403" y="429" clip-path="url(#clipPath1)" fill="rgb(0,0,139)" width="6" stroke-dasharray="none" height="1" stroke="none"/>
<rect x="403" y="429" clip-path="url(#clipPath1)" fill="none" width="6" stroke-dasharray="none" height="1" stroke="black"/>
<rect x="409" y="429" clip-path="url(#clipPath1)" fill="rgb(0,0,139)" width="5" stroke-dasharray="none" height="1" stroke="none"/>
<rect x="409" y="429" clip-path="url(#clipPath1)" fill="none" width="5" stroke-dasharray="none" height="1" stroke="black"/>
<rect x="414" y="429" clip-path="url(#clipPath1)" fill="rgb(0,0,139)" width="6" stroke-dasharray="none" height="1" stroke="none"/>
<rect x="414" y="429" clip-path="url(#clipPath1)" fill="none" width="6" stroke-dasharray="none" height="1" stroke="black"/>
<rect x="420" y="429" clip-path="url(#clipPath1)" fill="rgb(0,0,139)" width="5" stroke-dasharray="none" height="1" stroke="none"/>
<rect x="420" y="429" clip-path="url(#clipPath1)" fill="none" width="5" stroke-dasharray="none" height="1" stroke="black"/>
<rect x="425" y="429" clip-path="url(#clipPath1)" fill="rgb(0,0,139)" width="6" stroke-dasharray="none" height="1" stroke="none"/>
<rect x="425" y="429" clip-path="url(#clipPath1)" fill="none" width="6" stroke-dasharray="none" height="1" stroke="black"/>
<rect x="431" y="429" clip-path="url(#clipPath1)" fill="rgb(0,0,139)" width="5" stroke-dasharray="none" height="1" stroke="none"/>
<rect x="431" y="429" clip-path="url(#clipPath1)" fill="none" width="5" stroke-dasharray="none" height="1" stroke="black"/>
<rect x="436" y="429" clip-path="url(#clipPath1)" fill="rgb(0,0,139)" width="6" stroke-dasharray="none" height="1" stroke="none"/>
<rect x="436" y="429" clip-path="url(#clipPath1)" fill="none" width="6" stroke-dasharray="none" height="1" stroke="black"/>
<rect x="442" y="429" clip-path="url(#clipPath1)" fill="rgb(0,0,139)" width="5" stroke-dasharray="none" height="1" stroke="none"/>
<rect x="442" y="429" clip-path="url(#clipPath1)" fill="none" width="5" stroke-dasharray="none" height="1" stroke="black"/>
<rect x="447" y="429" clip-path="url(#clipPath1)" fill="rgb(0,0,139)" width="6" stroke-dasharray="none" height="1" stroke="none"/>
<rect x="447" y="429" clip-path="url(#clipPath1)" fill="none" width="6" stroke-dasharray="none" height="1" stroke="black"/>
<line clip-path="url(#clipPath1)" fill="none" x1="453" x2="458" y1="430" y2="430" stroke-dasharray="none" stroke="black"/>
<rect x="458" y="429" clip-path="url(#clipPath1)" fill="rgb(0,0,139)" width="6" stroke-dasharray="none" height="1" stroke="none"/>
<rect x="458" y="429" clip-path="url(#clipPath1)" fill="none" width="6" stroke-dasharray="none" height="1" stroke="black"/>
<rect x="464" y="429" clip-path="url(#clipPath1)" fill="rgb(0,0,139)" width="5" stroke-dasharray="none" height="1" stroke="none"/>
<rect x="464" y="429" clip-path="url(#clipPath1)" fill="none" width="5" stroke-dasharray="none" height="1" stroke="black"/>
<line clip-path="url(#clipPath1)" fill="none" x1="469" x2="475" y1="430" y2="430" stroke-dasharray="none" stroke="black"/>
<line clip-path="url(#clipPath1)" fill="none" x1="475" x2="480" y1="430" y2="430" stroke-dasharray="none" stroke="black"/>
<rect x="480" y="429" clip-path="url(#clipPath1)" fill="rgb(0,0,139)" width="6" stroke-dasharray="none" height="1" stroke="none"/>
<rect x="480" y="429" clip-path="url(#clipPath1)" fill="none" width="6" stroke-dasharray="none" height="1" stroke="black"/>
<line clip-path="url(#clipPath1)" fill="none" x1="486" x2="491" y1="430" y2="430" stroke-dasharray="none" stroke="black"/>
<rect x="491" y="429" clip-path="url(#clipPath1)" fill="rgb(0,0,139)" width="6" stroke-dasharray="none" height="1" stroke="none"/>
<rect x="491" y="429" clip-path="url(#clipPath1)" fill="none" width="6" stroke-dasharray="none" height="1" stroke="black"/>
<line clip-path="url(#clipPath1)" fill="none" x1="497" x2="502" y1="430" y2="430" stroke-dasharray="none" stroke="black"/>
<line clip-path="url(#clipPath1)" fill="none" x1="502" x2="508" y1="430" y2="430" stroke-dasharray="none" stroke="black"/>
<rect x="508" y="429" clip-path="url(#clipPath1)" fill="rgb(0,0,139)" width="5" stroke-dasharray="none" height="1" stroke="none"/>
<rect x="508" y="429" clip-path="url(#clipPath1)" fill="none" width="5" stroke-dasharray="none" height="1" stroke="black"/>
<rect x="513" y="429" clip-path="url(#clipPath1)" fill="rgb(0,0,139)" width="6" stroke-dasharray="none" height="1" stroke="none"/>
<rect x="513" y="429" clip-path="url(#clipPath1)" fill="none" width="6" stroke-dasharray="none" height="1" stroke="black"/>
<line clip-path="url(#clipPath1)" fill="none" x1="519" x2="524" y1="430" y2="430" stroke-dasharray="none" stroke="black"/>
<line clip-path="url(#clipPath1)" fill="none" x1="524" x2="530" y1="430" y2="430" stroke-dasharray="none" stroke="black"/>
<line clip-path="url(#clipPath1)" fill="none" x1="530" x2="536" y1="430" y2="430" stroke-dasharray="none" stroke="black"/>
<line clip-path="url(#clipPath1)" fill="none" x1="536" x2="541" y1="430" y2="430" stroke-dasharray="none" stroke="black"/>
<line clip-path="url(#clipPath1)" fill="none" x1="541" x2="547" y1="430" y2="430" stroke-dasharray="none" stroke="black"/>
<line clip-path="url(#clipPath1)" fill="none" x1="547" x2="552" y1="430" y2="430" stroke-dasharray="none" stroke="black"/>
<line clip-path="url(#clipPath1)" fill="none" x1="552" x2="558" y1="430" y2="430" stroke-dasharray="none" stroke="black"/>
<line clip-path="url(#clipPath1)" fill="none" x1="558" x2="563" y1="430" y2="430" stroke-dasharray="none" stroke="black"/>
<line clip-path="url(#clipPath1)" fill="none" x1="563" x2="569" y1="430" y2="430" stroke-dasharray="none" stroke="black"/>
<line clip-path="url(#clipPath1)" fill="none" x1="569" x2="574" y1="430" y2="430" stroke-dasharray="none" stroke="black"/>
<line clip-path="url(#clipPath1)" fill="none" x1="574" x2="580" y1="430" y2="430" stroke-dasharray="none" stroke="black"/>
<line clip-path="url(#clipPath1)" fill="none" x1="580" x2="585" y1="430" y2="430" stroke-dasharray="none" stroke="black"/>
<line clip-path="url(#clipPath1)" fill="none" x1="585" x2="591" y1="430" y2="430" stroke-dasharray="none" stroke="black"/>
<line clip-path="url(#clipPath1)" fill="none" x1="591" x2="596" y1="430" y2="430" stroke-dasharray="none" stroke="black"/>
<line clip-path="url(#clipPath1)" fill="none" x1="596" x2="602" y1="430" y2="430" stroke-dasharray="none" stroke="black"/>
<line clip-path="url(#clipPath1)" fill="none" x1="602" x2="607" y1="430" y2="430" stroke-dasharray="none" stroke="black"/>
<line clip-path="url(#clipPath1)" fill="none" x1="607" x2="613" y1="430" y2="430" stroke-dasharray="none" stroke="black"/>
<line clip-path="url(#clipPath1)" fill="none" x1="613" x2="618" y1="430" y2="430" stroke-dasharray="none" stroke="black"/>
<line clip-path="url(#clipPath1)" fill="none" x1="618" x2="624" y1="430" y2="430" stroke-dasharray="none" stroke="black"/>
<line clip-path="url(#clipPath1)" fill="none" x1="624" x2="629" y1="430" y2="430" stroke-dasharray="none" stroke="black"/>
<line clip-path="url(#clipPath1)" fill="none" x1="629" x2="635" y1="430" y2="430" stroke-dasharray="none" stroke="black"/>
<line clip-path="url(#clipPath1)" fill="none" x1="635" x2="640" y1="430" y2="430" stroke-dasharray="none" stroke="black"/>
<line clip-path="url(#clipPath1)" fill="none" x1="640" x2="646" y1="430" y2="430" stroke-dasharray="none" stroke="black"/>
<line clip-path="url(#clipPath1)" fill="none" x1="646" x2="651" y1="430" y2="430" stroke-dasharray="none" stroke="black"/>
<line clip-path="url(#clipPath1)" fill="none" x1="651" x2="657" y1="430" y2="430" stroke-dasharray="none" stroke="black"/>
<line clip-path="url(#clipPath1)" fill="none" x1="657" x2="662" y1="430" y2="430" stroke-dasharray="none" stroke="black"/>
<line clip-path="url(#clipPath1)" fill="none" x1="662" x2="668" y1="430" y2="430" stroke-dasharray="none" stroke="black"/>
<line clip-path="url(#clipPath1)" fill="none" x1="668" x2="673" y1="430" y2="430" stroke-dasharray="none" stroke="black"/>
<line clip-path="url(#clipPath1)" fill="none" x1="673" x2="679" y1="430" y2="430" stroke-dasharray="none" stroke="black"/>
<line clip-path="url(#clipPath1)" fill="none" x1="679" x2="684" y1="430" y2="430" stroke-dasharray="none" stroke="black"/>
<line clip-path="url(#clipPath1)" fill="none" x1="684" x2="690" y1="430" y2="430" stroke-dasharray="none" stroke="black"/>
<line clip-path="url(#clipPath1)" fill="none" x1="690" x2="695" y1="430" y2="430" stroke-dasharray="none" stroke="black"/>
<line clip-path="url(#clipPath1)" fill="none" x1="695" x2="701" y1="430" y2="430" stroke-dasharray="none" stroke="black"/>
<line clip-path="url(#clipPath1)" fill="none" x1="701" x2="706" y1="430" y2="430" stroke-dasharray="none" stroke="black"/>
<line clip-path="url(#clipPath1)" fill="none" x1="706" x2="712" y1="430" y2="430" stroke-dasharray="none" stroke="black"/>
<line clip-path="url(#clipPath1)" fill="none" x1="712" x2="717" y1="430" y2="430" stroke-dasharray="none" stroke="black"/>
<line clip-path="url(#clipPath1)" fill="none" x1="717" x2="723" y1="430" y2="430" stroke-dasharray="none" stroke="black"/>
<line clip-path="url(#clipPath1)" fill="none" x1="723" x2="728" y1="430" y2="430" stroke-dasharray="none" stroke="black"/>
<line clip-path="url(#clipPath1)" fill="none" x1="728" x2="734" y1="430" y2="430" stroke-dasharray="none" stroke="black"/>
<line clip-path="url(#clipPath1)" fill="none" x1="734" x2="739" y1="430" y2="430" stroke-dasharray="none" stroke="black"/>
<line clip-path="url(#clipPath1)" fill="none" x1="739" x2="745" y1="430" y2="430" stroke-dasharray="none" stroke="black"/>
<line clip-path="url(#clipPath1)" fill="none" x1="745" x2="750" y1="430" y2="430" stroke-dasharray="none" stroke="black"/>
<line clip-path="url(#clipPath1)" fill="none" x1="750" x2="756" y1="430" y2="430" stroke-dasharray="none" stroke="black"/>
<line clip-path="url(#clipPath1)" fill="none" x1="756" x2="761" y1="430" y2="430" stroke-dasharray="none" stroke="black"/>
<line clip-path="url(#clipPath1)" fill="none" x1="761" x2="767" y1="430" y2="430" stroke-dasharray="none" stroke="black"/>
<line clip-path="url(#clipPath1)" fill="none" x1="767" x2="772" y1="430" y2="430" stroke-dasharray="none" stroke="black"/>
<line clip-path="url(#clipPath1)" fill="none" x1="772" x2="778" y1="430" y2="430" stroke-dasharray="none" stroke="black"/>
<line clip-path="url(#clipPath1)" fill="none" x1="778" x2="784" y1="430" y2="430" stroke-dasharray="none" stroke="black"/>
<line clip-path="url(#clipPath1)" fill="none" x1="784" x2="789" y1="430" y2="430" stroke-dasharray="none" stroke="black"/>
<line clip-path="url(#clipPath1)" fill="none" x1="789" x2="795" y1="430" y2="430" stroke-dasharray="none" stroke="black"/>
<line clip-path="url(#clipPath1)" fill="none" x1="795" x2="800" y1="430" y2="430" stroke-dasharray="none" stroke="black"/>
<line clip-path="url(#clipPath1)" fill="none" x1="800" x2="806" y1="430" y2="430" stroke-dasharray="none" stroke="black"/>
<line clip-path="url(#clipPath1)" fill="none" x1="806" x2="811" y1="430" y2="430" stroke-dasharray="none" stroke="black"/>
<line clip-path="url(#clipPath1)" fill="none" x1="811" x2="817" y1="430" y2="430" stroke-dasharray="none" stroke="black"/>
<line clip-path="url(#clipPath1)" fill="none" x1="817" x2="822" y1="430" y2="430" stroke-dasharray="none" stroke="black"/>
<line clip-path="url(#clipPath1)" fill="none" x1="822" x2="828" y1="430" y2="430" stroke-dasharray="none" stroke="black"/>
<line clip-path="url(#clipPath1)" fill="none" x1="828" x2="833" y1="430" y2="430" stroke-dasharray="none" stroke="black"/>
<line clip-path="url(#clipPath1)" fill="none" x1="833" x2="839" y1="430" y2="430" stroke-dasharray="none" stroke="black"/>
<line clip-path="url(#clipPath1)" fill="none" x1="839" x2="844" y1="430" y2="430" stroke-dasharray="none" stroke="black"/>
<line clip-path="url(#clipPath1)" fill="none" x1="844" x2="850" y1="430" y2="430" stroke-dasharray="none" stroke="black"/>
<line clip-path="url(#clipPath1)" fill="none" x1="850" x2="855" y1="430" y2="430" stroke-dasharray="none" stroke="black"/>
<line clip-path="url(#clipPath1)" fill="none" x1="855" x2="861" y1="430" y2="430" stroke-dasharray="none" stroke="black"/>
<line clip-path="url(#clipPath1)" fill="none" x1="861" x2="866" y1="430" y2="430" stroke-dasharray="none" stroke="black"/>
<line clip-path="url(#clipPath1)" fill="none" x1="866" x2="872" y1="430" y2="430" stroke-dasharray="none" stroke="black"/>
<line clip-path="url(#clipPath1)" fill="none" x1="872" x2="877" y1="430" y2="430" stroke-dasharray="none" stroke="black"/>
<line clip-path="url(#clipPath1)" fill="none" x1="877" x2="883" y1="430" y2="430" stroke-dasharray="none" stroke="black"/>
<line clip-path="url(#clipPath1)" fill="none" x1="883" x2="888" y1="430" y2="430" stroke-dasharray="none" stroke="black"/>
<line clip-path="url(#clipPath1)" fill="none" x1="888" x2="894" y1="430" y2="430" stroke-dasharray="none" stroke="black"/>
<line clip-path="url(#clipPath1)" fill="none" x1="894" x2="899" y1="430" y2="430" stroke-dasharray="none" stroke="black"/>
<line clip-path="url(#clipPath1)" fill="none" x1="899" x2="905" y1="430" y2="430" stroke-dasharray="none" stroke="black"/>
<rect x="49" y="23" clip-path="url(#clipPath2)" fill="none" width="603" stroke-dasharray="none" height="407" stroke="black"/>
</g>
<g text-rendering="geometricPrecision" font-size="13" stroke-linecap="butt">
<line clip-path="url(#clipPath2)" fill="none" x1="49" x2="652" y1="21" y2="21"/>
<line clip-path="url(#clipPath2)" fill="none" x1="49" x2="652" y1="432" y2="432"/>
<line clip-path="url(#clipPath2)" fill="none" x1="54" x2="54" y1="17" y2="21"/>
<line clip-path="url(#clipPath2)" fill="none" x1="54" x2="54" y1="436" y2="432"/>
<text x="34" font-size="11" y="14" clip-path="url(#clipPath2)" stroke="none" xml:space="preserve">0.00030</text>
<text x="34" font-size="11" y="448" clip-path="url(#clipPath2)" stroke="none" xml:space="preserve">0.00030</text>
<line clip-path="url(#clipPath2)" fill="none" x1="70" x2="70" y1="19" y2="21"/>
<line clip-path="url(#clipPath2)" fill="none" x1="70" x2="70" y1="434" y2="432"/>
<line clip-path="url(#clipPath2)" fill="none" x1="87" x2="87" y1="19" y2="21"/>
<line clip-path="url(#clipPath2)" fill="none" x1="87" x2="87" y1="434" y2="432"/>
<line clip-path="url(#clipPath2)" fill="none" x1="104" x2="104" y1="19" y2="21"/>
<line clip-path="url(#clipPath2)" fill="none" x1="104" x2="104" y1="434" y2="432"/>
<line clip-path="url(#clipPath2)" fill="none" x1="121" x2="121" y1="19" y2="21"/>
<line clip-path="url(#clipPath2)" fill="none" x1="121" x2="121" y1="434" y2="432"/>
<line clip-path="url(#clipPath2)" fill="none" x1="137" x2="137" y1="17" y2="21"/>
<line clip-path="url(#clipPath2)" fill="none" x1="137" x2="137" y1="436" y2="432"/>
<text x="117" font-size="11" y="14" clip-path="url(#clipPath2)" stroke="none" xml:space="preserve">0.00040</text>
<text x="117" font-size="11" y="448" clip-path="url(#clipPath2)" stroke="none" xml:space="preserve">0.00040</text>
<line clip-path="url(#clipPath2)" fill="none" x1="154" x2="154" y1="19" y2="21"/>
<line clip-path="url(#clipPath2)" fill="none" x1="154" x2="154" y1="434" y2="432"/>
<line clip-path="url(#clipPath2)" fill="none" x1="171" x2="171" y1="19" y2="21"/>
<line clip-path="url(#clipPath2)" fill="none" x1="171" x2="171" y1="434" y2="432"/>
<line clip-path="url(#clipPath2)" fill="none" x1="187" x2="187" y1="19" y2="21"/>
<line clip-path="url(#clipPath2)" fill="none" x1="187" x2="187" y1="434" y2="432"/>
<line clip-path="url(#clipPath2)" fill="none" x1="204" x2="204" y1="19" y2="21"/>
<line clip-path="url(#clipPath2)" fill="none" x1="204" x2="204" y1="434" y2="432"/>
<line clip-path="url(#clipPath2)" fill="none" x1="221" x2="221" y1="17" y2="21"/>
<line clip-path="url(#clipPath2)" fill="none" x1="221" x2="221" y1="436" y2="432"/>
<text x="201" font-size="11" y="14" clip-path="url(#clipPath2)" stroke="none" xml:space="preserve">0.00050</text>
<text x="201" font-size="11" y="448" clip-path="url(#clipPath2)" stroke="none" xml:space="preserve">0.00050</text>
<line clip-path="url(#clipPath2)" fill="none" x1="238" x2="238" y1="19" y2="21"/>
<line clip-path="url(#clipPath2)" fill="none" x1="238" x2="238" y1="434" y2="432"/>
<line clip-path="url(#clipPath2)" fill="none" x1="254" x2="254" y1="19" y2="21"/>
<line clip-path="url(#clipPath2)" fill="none" x1="254" x2="254" y1="434" y2="432"/>
<line clip-path="url(#clipPath2)" fill="none" x1="271" x2="271" y1="19" y2="21"/>
<line clip-path="url(#clipPath2)" fill="none" x1="271" x2="271" y1="434" y2="432"/>
<line clip-path="url(#clipPath2)" fill="none" x1="288" x2="288" y1="19" y2="21"/>
<line clip-path="url(#clipPath2)" fill="none" x1="288" x2="288" y1="434" y2="432"/>
<line clip-path="url(#clipPath2)" fill="none" x1="305" x2="305" y1="17" y2="21"/>
<line clip-path="url(#clipPath2)" fill="none" x1="305" x2="305" y1="436" y2="432"/>
<text x="285" font-size="11" y="14" clip-path="url(#clipPath2)" stroke="none" xml:space="preserve">0.00060</text>
<text x="285" font-size="11" y="448" clip-path="url(#clipPath2)" stroke="none" xml:space="preserve">0.00060</text>
<line clip-path="url(#clipPath2)" fill="none" x1="321" x2="321" y1="19" y2="21"/>
<line clip-path="url(#clipPath2)" fill="none" x1="321" x2="321" y1="434" y2="432"/>
<line clip-path="url(#clipPath2)" fill="none" x1="338" x2="338" y1="19" y2="21"/>
<line clip-path="url(#clipPath2)" fill="none" x1="338" x2="338" y1="434" y2="432"/>
<line clip-path="url(#clipPath2)" fill="none" x1="355" x2="355" y1="19" y2="21"/>
<line clip-path="url(#clipPath2)" fill="none" x1="355" x2="355" y1="434" y2="432"/>
<line clip-path="url(#clipPath2)" fill="none" x1="372" x2="372" y1="19" y2="21"/>
<line clip-path="url(#clipPath2)" fill="none" x1="372" x2="372" y1="434" y2="432"/>
<line clip-path="url(#clipPath2)" fill="none" x1="388" x2="388" y1="17" y2="21"/>
<line clip-path="url(#clipPath2)" fill="none" x1="388" x2="388" y1="436" y2="432"/>
<text x="368" font-size="11" y="14" clip-path="url(#clipPath2)" stroke="none" xml:space="preserve">0.00070</text>
<text x="368" font-size="11" y="448" clip-path="url(#clipPath2)" stroke="none" xml:space="preserve">0.00070</text>
<line clip-path="url(#clipPath2)" fill="none" x1="405" x2="405" y1="19" y2="21"/>
<line clip-path="url(#clipPath2)" fill="none" x1="405" x2="405" y1="434" y2="432"/>
<line clip-path="url(#clipPath2)" fill="none" x1="422" x2="422" y1="19" y2="21"/>
<line clip-path="url(#clipPath2)" fill="none" x1="422" x2="422" y1="434" y2="432"/>
<line clip-path="url(#clipPath2)" fill="none" x1="439" x2="439" y1="19" y2="21"/>
<line clip-path="url(#clipPath2)" fill="none" x1="439" x2="439" y1="434" y2="432"/>
<line clip-path="url(#clipPath2)" fill="none" x1="455" x2="455" y1="19" y2="21"/>
<line clip-path="url(#clipPath2)" fill="none" x1="455" x2="455" y1="434" y2="432"/>
<line clip-path="url(#clipPath2)" fill="none" x1="472" x2="472" y1="17" y2="21"/>
<line clip-path="url(#clipPath2)" fill="none" x1="472" x2="472" y1="436" y2="432"/>
<text x="452" font-size="11" y="14" clip-path="url(#clipPath2)" stroke="none" xml:space="preserve">0.00080</text>
<text x="452" font-size="11" y="448" clip-path="url(#clipPath2)" stroke="none" xml:space="preserve">0.00080</text>
<line clip-path="url(#clipPath2)" fill="none" x1="489" x2="489" y1="19" y2="21"/>
<line clip-path="url(#clipPath2)" fill="none" x1="489" x2="489" y1="434" y2="432"/>
<line clip-path="url(#clipPath2)" fill="none" x1="506" x2="506" y1="19" y2="21"/>
<line clip-path="url(#clipPath2)" fill="none" x1="506" x2="506" y1="434" y2="432"/>
<line clip-path="url(#clipPath2)" fill="none" x1="522" x2="522" y1="19" y2="21"/>
<line clip-path="url(#clipPath2)" fill="none" x1="522" x2="522" y1="434" y2="432"/>
<line clip-path="url(#clipPath2)" fill="none" x1="539" x2="539" y1="19" y2="21"/>
<line clip-path="url(#clipPath2)" fill="none" x1="539" x2="539" y1="434" y2="432"/>
<line clip-path="url(#clipPath2)" fill="none" x1="556" x2="556" y1="17" y2="21"/>
<line clip-path="url(#clipPath2)" fill="none" x1="556" x2="556" y1="436" y2="432"/>
<text x="536" font-size="11" y="14" clip-path="url(#clipPath2)" stroke="none" xml:space="preserve">0.00090</text>
<text x="536" font-size="11" y="448" clip-path="url(#clipPath2)" stroke="none" xml:space="preserve">0.00090</text>
<line clip-path="url(#clipPath2)" fill="none" x1="572" x2="572" y1="19" y2="21"/>
<line clip-path="url(#clipPath2)" fill="none" x1="572" x2="572" y1="434" y2="432"/>
<line clip-path="url(#clipPath2)" fill="none" x1="589" x2="589" y1="19" y2="21"/>
<line clip-path="url(#clipPath2)" fill="none" x1="589" x2="589" y1="434" y2="432"/>
<line clip-path="url(#clipPath2)" fill="none" x1="606" x2="606" y1="19" y2="21"/>
<line clip-path="url(#clipPath2)" fill="none" x1="606" x2="606" y1="434" y2="432"/>
<line clip-path="url(#clipPath2)" fill="none" x1="623" x2="623" y1="19" y2="21"/>
<line clip-path="url(#clipPath2)" fill="none" x1="623" x2="623" y1="434" y2="432"/>
<line clip-path="url(#clipPath2)" fill="none" x1="639" x2="639" y1="17" y2="21"/>
<line clip-path="url(#clipPath2)" fill="none" x1="639" x2="639" y1="436" y2="432"/>
<text x="619" font-size="11" y="14" clip-path="url(#clipPath2)" stroke="none" xml:space="preserve">0.00100</text>
<text x="619" font-size="11" y="448" clip-path="url(#clipPath2)" stroke="none" xml:space="preserve">0.00100</text>
<line clip-path="url(#clipPath2)" fill="none" x1="47" x2="47" y1="23" y2="430"/>
<line clip-path="url(#clipPath2)" fill="none" x1="654" x2="654" y1="23" y2="430"/>
<line clip-path="url(#clipPath2)" fill="none" x1="43" x2="47" y1="430" y2="430"/>
<line clip-path="url(#clipPath2)" fill="none" x1="658" x2="654" y1="430" y2="430"/>
<text x="36" font-size="11" y="435" clip-path="url(#clipPath2)" stroke="none" xml:space="preserve">0</text>
<text x="661" font-size="11" y="435" clip-path="url(#clipPath2)" stroke="none" xml:space="preserve">0</text>
<line clip-path="url(#clipPath2)" fill="none" x1="45" x2="47" y1="381" y2="381"/>
<line clip-path="url(#clipPath2)" fill="none" x1="656" x2="654" y1="381" y2="381"/>
<line clip-path="url(#clipPath2)" fill="none" x1="43" x2="47" y1="333" y2="333"/>
<line clip-path="url(#clipPath2)" fill="none" x1="658" x2="654" y1="333" y2="333"/>
<text x="18" font-size="11" y="338" clip-path="url(#clipPath2)" stroke="none" xml:space="preserve">2000</text>
<text x="661" font-size="11" y="338" clip-path="url(#clipPath2)" stroke="none" xml:space="preserve">2000</text>
<line clip-path="url(#clipPath2)" fill="none" x1="45" x2="47" y1="284" y2="284"/>
<line clip-path="url(#clipPath2)" fill="none" x1="656" x2="654" y1="284" y2="284"/>
<line clip-path="url(#clipPath2)" fill="none" x1="43" x2="47" y1="235" y2="235"/>
<line clip-path="url(#clipPath2)" fill="none" x1="658" x2="654" y1="235" y2="235"/>
<text x="18" font-size="11" y="240" clip-path="url(#clipPath2)" stroke="none" xml:space="preserve">4000</text>
<text x="661" font-size="11" y="240" clip-path="url(#clipPath2)" stroke="none" xml:space="preserve">4000</text>
<line clip-path="url(#clipPath2)" fill="none" x1="45" x2="47" y1="186" y2="186"/>
<line clip-path="url(#clipPath2)" fill="none" x1="656" x2="654" y1="186" y2="186"/>
<line clip-path="url(#clipPath2)" fill="none" x1="43" x2="47" y1="138" y2="138"/>
<line clip-path="url(#clipPath2)" fill="none" x1="658" x2="654" y1="138" y2="138"/>
<text x="18" font-size="11" y="143" clip-path="url(#clipPath2)" stroke="none" xml:space="preserve">6000</text>
<text x="661" font-size="11" y="143" clip-path="url(#clipPath2)" stroke="none" xml:space="preserve">6000</text>
<line clip-path="url(#clipPath2)" fill="none" x1="45" x2="47" y1="89" y2="89"/>
<line clip-path="url(#clipPath2)" fill="none" x1="656" x2="654" y1="89" y2="89"/>
<line clip-path="url(#clipPath2)" fill="none" x1="43" x2="47" y1="40" y2="40"/>
<line clip-path="url(#clipPath2)" fill="none" x1="658" x2="654" y1="40" y2="40"/>
<text x="18" font-size="11" y="45" clip-path="url(#clipPath2)" stroke="none" xml:space="preserve">8000</text>
<text x="661" font-size="11" y="45" clip-path="url(#clipPath2)" stroke="none" xml:space="preserve">8000</text>
</g>
</g>
</svg>
