<?xml version="1.0" encoding="UTF-8"?><svg xmlns="http://www.w3.org/2000/svg" xmlns:xlink="http://www.w3.org/1999/xlink" stroke-dasharray="none" shape-rendering="auto" font-family="'Dialog'" width="701" text-rendering="auto" fill-opacity="1" contentScriptType="text/ecmascript" color-interpolation="auto" color-rendering="auto" preserveAspectRatio="xMidYMid meet" font-size="12" fill="black" stroke="black" image-rendering="auto" stroke-miterlimit="10" zoomAndPan="magnify" version="1.0" stroke-linecap="square" stroke-linejoin="miter" contentStyleType="text/css" font-style="normal" height="453" stroke-width="1" stroke-dashoffset="0" font-weight="normal" stroke-opacity="1">
<!--Generated by the Batik Graphics2D SVG Generator-->
<defs id="genericDefs"/>
<g>
<defs id="defs1">
<clipPath clipPathUnits="userSpaceOnUse" id="clipPath1">
<path d="M27 22 L674 22 L674 431 L27 431 L27 22 Z"/>
</clipPath>
<clipPath clipPathUnits="userSpaceOnUse" id="clipPath2">
<path d="M-1 -1 L702 -1 L702 454 L-1 454 L-1 -1 Z"/>
</clipPath>
</defs>
<g font-size="15" fill="white" text-rendering="geometricPrecision" font-family="'Cantarell'" stroke-linejoin="round" stroke="white" stroke-width="0" stroke-miterlimit="0">
<rect x="28" y="23" clip-path="url(#clipPath1)" width="645" height="407" stroke="none"/>
</g>
<g stroke-linecap="butt" font-size="15" fill="rgb(204,204,204)" text-rendering="geometricPrecision" font-family="'Cantarell'" stroke-dasharray="3,3" stroke="rgb(204,204,204)">
<line clip-path="url(#clipPath1)" fill="none" x1="28" x2="673" y1="430" y2="430"/>
<line clip-path="url(#clipPath1)" fill="none" x1="28" x2="673" y1="364" y2="364"/>
<line clip-path="url(#clipPath1)" fill="none" x1="28" x2="673" y1="299" y2="299"/>
<line clip-path="url(#clipPath1)" fill="none" x1="28" x2="673" y1="234" y2="234"/>
<line clip-path="url(#clipPath1)" fill="none" x1="28" x2="673" y1="168" y2="168"/>
<line clip-path="url(#clipPath1)" fill="none" x1="28" x2="673" y1="103" y2="103"/>
<line clip-path="url(#clipPath1)" fill="none" x1="28" x2="673" y1="37" y2="37"/>
<line clip-path="url(#clipPath1)" fill="none" x1="-30" x2="-25" y1="430" y2="430" stroke-dasharray="none" stroke="black"/>
<line clip-path="url(#clipPath1)" fill="none" x1="-25" x2="-20" y1="430" y2="430" stroke-dasharray="none" stroke="black"/>
<line clip-path="url(#clipPath1)" fill="none" x1="-20" x2="-16" y1="430" y2="430" stroke-dasharray="none" stroke="black"/>
<line clip-path="url(#clipPath1)" fill="none" x1="-16" x2="-11" y1="430" y2="430" stroke-dasharray="none" stroke="black"/>
<line clip-path="url(#clipPath1)" fill="none" x1="-11" x2="-6" y1="430" y2="430" stroke-dasharray="none" stroke="black"/>
<line clip-path="url(#clipPath1)" fill="none" x1="-6" x2="-2" y1="430" y2="430" stroke-dasharray="none" stroke="black"/>
<line clip-path="url(#clipPath1)" fill="none" x1="-2" x2="2" y1="430" y2="430" stroke-dasharray="none" stroke="black"/>
<line clip-path="url(#clipPath1)" fill="none" x1="2" x2="6" y1="430" y2="430" stroke-dasharray="none" stroke="black"/>
<line clip-path="url(#clipPath1)" fill="none" x1="6" x2="11" y1="430" y2="430" stroke-dasharray="none" stroke="black"/>
<line clip-path="url(#clipPath1)" fill="none" x1="11" x2="16" y1="430" y2="430" stroke-dasharray="none" stroke="black"/>
<line clip-path="url(#clipPath1)" fill="none" x1="16" x2="20" y1="430" y2="430" stroke-dasharray="none" stroke="black"/>
<line clip-path="url(#clipPath1)" fill="none" x1="20" x2="25" y1="430" y2="430" stroke-dasharray="none" stroke="black"/>
<line clip-path="url(#clipPath1)" fill="none" x1="25" x2="29" y1="430" y2="430" stroke-dasharray="none" stroke="black"/>
<rect x="29" y="338" clip-path="url(#clipPath1)" fill="rgb(0,0,139)" width="5" stroke-dasharray="none" height="92" stroke="none"/>
<rect x="29" y="338" clip-path="url(#clipPath1)" fill="none" width="5" stroke-dasharray="none" height="92" stroke="black"/>
<rect x="34" y="391" clip-path="url(#clipPath1)" fill="rgb(0,0,139)" width="5" stroke-dasharray="none" height="39" stroke="none"/>
<rect x="34" y="391" clip-path="url(#clipPath1)" fill="none" width="5" stroke-dasharray="none" height="39" stroke="black"/>
<rect x="39" y="384" clip-path="url(#clipPath1)" fill="rgb(0,0,139)" width="4" stroke-dasharray="none" height="46" stroke="none"/>
<rect x="39" y="384" clip-path="url(#clipPath1)" fill="none" width="4" stroke-dasharray="none" height="46" stroke="black"/>
<rect x="43" y="391" clip-path="url(#clipPath1)" fill="rgb(0,0,139)" width="5" stroke-dasharray="none" height="39" stroke="none"/>
<rect x="43" y="391" clip-path="url(#clipPath1)" fill="none" width="5" stroke-dasharray="none" height="39" stroke="black"/>
<rect x="48" y="364" clip-path="url(#clipPath1)" fill="rgb(0,0,139)" width="4" stroke-dasharray="none" height="66" stroke="none"/>
<rect x="48" y="364" clip-path="url(#clipPath1)" fill="none" width="4" stroke-dasharray="none" height="66" stroke="black"/>
<rect x="52" y="351" clip-path="url(#clipPath1)" fill="rgb(0,0,139)" width="5" stroke-dasharray="none" height="79" stroke="none"/>
<rect x="52" y="351" clip-path="url(#clipPath1)" fill="none" width="5" stroke-dasharray="none" height="79" stroke="black"/>
<rect x="57" y="417" clip-path="url(#clipPath1)" fill="rgb(0,0,139)" width="5" stroke-dasharray="none" height="13" stroke="none"/>
<rect x="57" y="417" clip-path="url(#clipPath1)" fill="none" width="5" stroke-dasharray="none" height="13" stroke="black"/>
<rect x="62" y="391" clip-path="url(#clipPath1)" fill="rgb(0,0,139)" width="4" stroke-dasharray="none" height="39" stroke="none"/>
<rect x="62" y="391" clip-path="url(#clipPath1)" fill="none" width="4" stroke-dasharray="none" height="39" stroke="black"/>
<rect x="66" y="371" clip-path="url(#clipPath1)" fill="rgb(0,0,139)" width="5" stroke-dasharray="none" height="59" stroke="none"/>
<rect x="66" y="371" clip-path="url(#clipPath1)" fill="none" width="5" stroke-dasharray="none" height="59" stroke="black"/>
<rect x="71" y="364" clip-path="url(#clipPath1)" fill="rgb(0,0,139)" width="4" stroke-dasharray="none" height="66" stroke="none"/>
<rect x="71" y="364" clip-path="url(#clipPath1)" fill="none" width="4" stroke-dasharray="none" height="66" stroke="black"/>
<rect x="75" y="397" clip-path="url(#clipPath1)" fill="rgb(0,0,139)" width="5" stroke-dasharray="none" height="33" stroke="none"/>
<rect x="75" y="397" clip-path="url(#clipPath1)" fill="none" width="5" stroke-dasharray="none" height="33" stroke="black"/>
<rect x="80" y="404" clip-path="url(#clipPath1)" fill="rgb(0,0,139)" width="5" stroke-dasharray="none" height="26" stroke="none"/>
<rect x="80" y="404" clip-path="url(#clipPath1)" fill="none" width="5" stroke-dasharray="none" height="26" stroke="black"/>
<rect x="85" y="404" clip-path="url(#clipPath1)" fill="rgb(0,0,139)" width="4" stroke-dasharray="none" height="26" stroke="none"/>
<rect x="85" y="404" clip-path="url(#clipPath1)" fill="none" width="4" stroke-dasharray="none" height="26" stroke="black"/>
<rect x="89" y="410" clip-path="url(#clipPath1)" fill="rgb(0,0,139)" width="5" stroke-dasharray="none" height="20" stroke="none"/>
<rect x="89" y="410" clip-path="url(#clipPath1)" fill="none" width="5" stroke-dasharray="none" height="20" stroke="black"/>
<rect x="94" y="423" clip-path="url(#clipPath1)" fill="rgb(0,0,139)" width="5" stroke-dasharray="none" height="7" stroke="none"/>
<rect x="94" y="423" clip-path="url(#clipPath1)" fill="none" width="5" stroke-dasharray="none" height="7" stroke="black"/>
<line clip-path="url(#clipPath1)" fill="none" x1="99" x2="103" y1="430" y2="430" stroke-dasharray="none" stroke="black"/>
<rect x="103" y="417" clip-path="url(#clipPath1)" fill="rgb(0,0,139)" width="5" stroke-dasharray="none" height="13" stroke="none"/>
<rect x="103" y="417" clip-path="url(#clipPath1)" fill="none" width="5" stroke-dasharray="none" height="13" stroke="black"/>
<rect x="108" y="410" clip-path="url(#clipPath1)" fill="rgb(0,0,139)" width="4" stroke-dasharray="none" height="20" stroke="none"/>
<rect x="108" y="410" clip-path="url(#clipPath1)" fill="none" width="4" stroke-dasharray="none" height="20" stroke="black"/>
<rect x="112" y="417" clip-path="url(#clipPath1)" fill="rgb(0,0,139)" width="5" stroke-dasharray="none" height="13" stroke="none"/>
<rect x="112" y="417" clip-path="url(#clipPath1)" fill="none" width="5" stroke-dasharray="none" height="13" stroke="black"/>
<rect x="117" y="423" clip-path="url(#clipPath1)" fill="rgb(0,0,139)" width="5" stroke-dasharray="none" height="7" stroke="none"/>
<rect x="117" y="423" clip-path="url(#clipPath1)" fill="none" width="5" stroke-dasharray="none" height="7" stroke="black"/>
<rect x="122" y="417" clip-path="url(#clipPath1)" fill="rgb(0,0,139)" width="4" stroke-dasharray="none" height="13" stroke="none"/>
<rect x="122" y="417" clip-path="url(#clipPath1)" fill="none" width="4" stroke-dasharray="none" height="13" stroke="black"/>
<line clip-path="url(#clipPath1)" fill="none" x1="126" x2="131" y1="430" y2="430" stroke-dasharray="none" stroke="black"/>
<line clip-path="url(#clipPath1)" fill="none" x1="131" x2="135" y1="430" y2="430" stroke-dasharray="none" stroke="black"/>
<rect x="135" y="417" clip-path="url(#clipPath1)" fill="rgb(0,0,139)" width="5" stroke-dasharray="none" height="13" stroke="none"/>
<rect x="135" y="417" clip-path="url(#clipPath1)" fill="none" width="5" stroke-dasharray="none" height="13" stroke="black"/>
<rect x="140" y="423" clip-path="url(#clipPath1)" fill="rgb(0,0,139)" width="5" stroke-dasharray="none" height="7" stroke="none"/>
<rect x="140" y="423" clip-path="url(#clipPath1)" fill="none" width="5" stroke-dasharray="none" height="7" stroke="black"/>
<line clip-path="url(#clipPath1)" fill="none" x1="145" x2="149" y1="430" y2="430" stroke-dasharray="none" stroke="black"/>
<line clip-path="url(#clipPath1)" fill="none" x1="149" x2="154" y1="430" y2="430" stroke-dasharray="none" stroke="black"/>
<line clip-path="url(#clipPath1)" fill="none" x1="154" x2="158" y1="430" y2="430" stroke-dasharray="none" stroke="black"/>
<line clip-path="url(#clipPath1)" fill="none" x1="158" x2="163" y1="430" y2="430" stroke-dasharray="none" stroke="black"/>
<line clip-path="url(#clipPath1)" fill="none" x1="163" x2="168" y1="430" y2="430" stroke-dasharray="none" stroke="black"/>
<line clip-path="url(#clipPath1)" fill="none" x1="168" x2="172" y1="430" y2="430" stroke-dasharray="none" stroke="black"/>
<line clip-path="url(#clipPath1)" fill="none" x1="172" x2="177" y1="430" y2="430" stroke-dasharray="none" stroke="black"/>
<line clip-path="url(#clipPath1)" fill="none" x1="177" x2="181" y1="430" y2="430" stroke-dasharray="none" stroke="black"/>
<line clip-path="url(#clipPath1)" fill="none" x1="181" x2="186" y1="430" y2="430" stroke-dasharray="none" stroke="black"/>
<line clip-path="url(#clipPath1)" fill="none" x1="186" x2="191" y1="430" y2="430" stroke-dasharray="none" stroke="black"/>
<line clip-path="url(#clipPath1)" fill="none" x1="191" x2="195" y1="430" y2="430" stroke-dasharray="none" stroke="black"/>
<line clip-path="url(#clipPath1)" fill="none" x1="195" x2="200" y1="430" y2="430" stroke-dasharray="none" stroke="black"/>
<line clip-path="url(#clipPath1)" fill="none" x1="200" x2="205" y1="430" y2="430" stroke-dasharray="none" stroke="black"/>
<line clip-path="url(#clipPath1)" fill="none" x1="205" x2="209" y1="430" y2="430" stroke-dasharray="none" stroke="black"/>
<line clip-path="url(#clipPath1)" fill="none" x1="209" x2="214" y1="430" y2="430" stroke-dasharray="none" stroke="black"/>
<line clip-path="url(#clipPath1)" fill="none" x1="214" x2="218" y1="430" y2="430" stroke-dasharray="none" stroke="black"/>
<line clip-path="url(#clipPath1)" fill="none" x1="218" x2="223" y1="430" y2="430" stroke-dasharray="none" stroke="black"/>
<line clip-path="url(#clipPath1)" fill="none" x1="223" x2="228" y1="430" y2="430" stroke-dasharray="none" stroke="black"/>
<line clip-path="url(#clipPath1)" fill="none" x1="228" x2="232" y1="430" y2="430" stroke-dasharray="none" stroke="black"/>
<line clip-path="url(#clipPath1)" fill="none" x1="232" x2="237" y1="430" y2="430" stroke-dasharray="none" stroke="black"/>
<line clip-path="url(#clipPath1)" fill="none" x1="237" x2="241" y1="430" y2="430" stroke-dasharray="none" stroke="black"/>
<line clip-path="url(#clipPath1)" fill="none" x1="241" x2="246" y1="430" y2="430" stroke-dasharray="none" stroke="black"/>
<line clip-path="url(#clipPath1)" fill="none" x1="246" x2="251" y1="430" y2="430" stroke-dasharray="none" stroke="black"/>
<line clip-path="url(#clipPath1)" fill="none" x1="251" x2="255" y1="430" y2="430" stroke-dasharray="none" stroke="black"/>
<line clip-path="url(#clipPath1)" fill="none" x1="255" x2="260" y1="430" y2="430" stroke-dasharray="none" stroke="black"/>
<line clip-path="url(#clipPath1)" fill="none" x1="260" x2="264" y1="430" y2="430" stroke-dasharray="none" stroke="black"/>
<line clip-path="url(#clipPath1)" fill="none" x1="264" x2="269" y1="430" y2="430" stroke-dasharray="none" stroke="black"/>
<line clip-path="url(#clipPath1)" fill="none" x1="269" x2="274" y1="430" y2="430" stroke-dasharray="none" stroke="black"/>
<line clip-path="url(#clipPath1)" fill="none" x1="274" x2="278" y1="430" y2="430" stroke-dasharray="none" stroke="black"/>
<line clip-path="url(#clipPath1)" fill="none" x1="278" x2="283" y1="430" y2="430" stroke-dasharray="none" stroke="black"/>
<line clip-path="url(#clipPath1)" fill="none" x1="283" x2="287" y1="430" y2="430" stroke-dasharray="none" stroke="black"/>
<line clip-path="url(#clipPath1)" fill="none" x1="287" x2="292" y1="430" y2="430" stroke-dasharray="none" stroke="black"/>
<line clip-path="url(#clipPath1)" fill="none" x1="292" x2="297" y1="430" y2="430" stroke-dasharray="none" stroke="black"/>
<line clip-path="url(#clipPath1)" fill="none" x1="297" x2="301" y1="430" y2="430" stroke-dasharray="none" stroke="black"/>
<line clip-path="url(#clipPath1)" fill="none" x1="301" x2="306" y1="430" y2="430" stroke-dasharray="none" stroke="black"/>
<line clip-path="url(#clipPath1)" fill="none" x1="306" x2="310" y1="430" y2="430" stroke-dasharray="none" stroke="black"/>
<line clip-path="url(#clipPath1)" fill="none" x1="310" x2="315" y1="430" y2="430" stroke-dasharray="none" stroke="black"/>
<line clip-path="url(#clipPath1)" fill="none" x1="315" x2="320" y1="430" y2="430" stroke-dasharray="none" stroke="black"/>
<line clip-path="url(#clipPath1)" fill="none" x1="320" x2="324" y1="430" y2="430" stroke-dasharray="none" stroke="black"/>
<line clip-path="url(#clipPath1)" fill="none" x1="324" x2="329" y1="430" y2="430" stroke-dasharray="none" stroke="black"/>
<line clip-path="url(#clipPath1)" fill="none" x1="329" x2="334" y1="430" y2="430" stroke-dasharray="none" stroke="black"/>
<line clip-path="url(#clipPath1)" fill="none" x1="334" x2="338" y1="430" y2="430" stroke-dasharray="none" stroke="black"/>
<line clip-path="url(#clipPath1)" fill="none" x1="338" x2="343" y1="430" y2="430" stroke-dasharray="none" stroke="black"/>
<line clip-path="url(#clipPath1)" fill="none" x1="343" x2="347" y1="430" y2="430" stroke-dasharray="none" stroke="black"/>
<line clip-path="url(#clipPath1)" fill="none" x1="347" x2="352" y1="430" y2="430" stroke-dasharray="none" stroke="black"/>
<line clip-path="url(#clipPath1)" fill="none" x1="352" x2="357" y1="430" y2="430" stroke-dasharray="none" stroke="black"/>
<line clip-path="url(#clipPath1)" fill="none" x1="357" x2="361" y1="430" y2="430" stroke-dasharray="none" stroke="black"/>
<line clip-path="url(#clipPath1)" fill="none" x1="361" x2="366" y1="430" y2="430" stroke-dasharray="none" stroke="black"/>
<line clip-path="url(#clipPath1)" fill="none" x1="366" x2="370" y1="430" y2="430" stroke-dasharray="none" stroke="black"/>
<line clip-path="url(#clipPath1)" fill="none" x1="370" x2="375" y1="430" y2="430" stroke-dasharray="none" stroke="black"/>
<line clip-path="url(#clipPath1)" fill="none" x1="375" x2="380" y1="430" y2="430" stroke-dasharray="none" stroke="black"/>
<line clip-path="url(#clipPath1)" fill="none" x1="380" x2="384" y1="430" y2="430" stroke-dasharray="none" stroke="black"/>
<line clip-path="url(#clipPath1)" fill="none" x1="384" x2="389" y1="430" y2="430" stroke-dasharray="none" stroke="black"/>
<line clip-path="url(#clipPath1)" fill="none" x1="389" x2="393" y1="430" y2="430" stroke-dasharray="none" stroke="black"/>
<line clip-path="url(#clipPath1)" fill="none" x1="393" x2="398" y1="430" y2="430" stroke-dasharray="none" stroke="black"/>
<line clip-path="url(#clipPath1)" fill="none" x1="398" x2="403" y1="430" y2="430" stroke-dasharray="none" stroke="black"/>
<line clip-path="url(#clipPath1)" fill="none" x1="403" x2="407" y1="430" y2="430" stroke-dasharray="none" stroke="black"/>
<line clip-path="url(#clipPath1)" fill="none" x1="407" x2="412" y1="430" y2="430" stroke-dasharray="none" stroke="black"/>
<line clip-path="url(#clipPath1)" fill="none" x1="412" x2="416" y1="430" y2="430" stroke-dasharray="none" stroke="black"/>
<line clip-path="url(#clipPath1)" fill="none" x1="416" x2="421" y1="430" y2="430" stroke-dasharray="none" stroke="black"/>
<line clip-path="url(#clipPath1)" fill="none" x1="421" x2="426" y1="430" y2="430" stroke-dasharray="none" stroke="black"/>
<line clip-path="url(#clipPath1)" fill="none" x1="426" x2="430" y1="430" y2="430" stroke-dasharray="none" stroke="black"/>
<line clip-path="url(#clipPath1)" fill="none" x1="430" x2="435" y1="430" y2="430" stroke-dasharray="none" stroke="black"/>
<line clip-path="url(#clipPath1)" fill="none" x1="435" x2="440" y1="430" y2="430" stroke-dasharray="none" stroke="black"/>
<line clip-path="url(#clipPath1)" fill="none" x1="440" x2="444" y1="430" y2="430" stroke-dasharray="none" stroke="black"/>
<line clip-path="url(#clipPath1)" fill="none" x1="444" x2="449" y1="430" y2="430" stroke-dasharray="none" stroke="black"/>
<line clip-path="url(#clipPath1)" fill="none" x1="449" x2="453" y1="430" y2="430" stroke-dasharray="none" stroke="black"/>
<line clip-path="url(#clipPath1)" fill="none" x1="453" x2="458" y1="430" y2="430" stroke-dasharray="none" stroke="black"/>
<line clip-path="url(#clipPath1)" fill="none" x1="458" x2="463" y1="430" y2="430" stroke-dasharray="none" stroke="black"/>
<line clip-path="url(#clipPath1)" fill="none" x1="463" x2="467" y1="430" y2="430" stroke-dasharray="none" stroke="black"/>
<line clip-path="url(#clipPath1)" fill="none" x1="467" x2="472" y1="430" y2="430" stroke-dasharray="none" stroke="black"/>
<line clip-path="url(#clipPath1)" fill="none" x1="472" x2="476" y1="430" y2="430" stroke-dasharray="none" stroke="black"/>
<line clip-path="url(#clipPath1)" fill="none" x1="476" x2="481" y1="430" y2="430" stroke-dasharray="none" stroke="black"/>
<line clip-path="url(#clipPath1)" fill="none" x1="481" x2="486" y1="430" y2="430" stroke-dasharray="none" stroke="black"/>
<line clip-path="url(#clipPath1)" fill="none" x1="486" x2="490" y1="430" y2="430" stroke-dasharray="none" stroke="black"/>
<line clip-path="url(#clipPath1)" fill="none" x1="490" x2="495" y1="430" y2="430" stroke-dasharray="none" stroke="black"/>
<line clip-path="url(#clipPath1)" fill="none" x1="495" x2="499" y1="430" y2="430" stroke-dasharray="none" stroke="black"/>
<line clip-path="url(#clipPath1)" fill="none" x1="499" x2="504" y1="430" y2="430" stroke-dasharray="none" stroke="black"/>
<line clip-path="url(#clipPath1)" fill="none" x1="504" x2="509" y1="430" y2="430" stroke-dasharray="none" stroke="black"/>
<line clip-path="url(#clipPath1)" fill="none" x1="509" x2="513" y1="430" y2="430" stroke-dasharray="none" stroke="black"/>
<line clip-path="url(#clipPath1)" fill="none" x1="513" x2="518" y1="430" y2="430" stroke-dasharray="none" stroke="black"/>
<line clip-path="url(#clipPath1)" fill="none" x1="518" x2="522" y1="430" y2="430" stroke-dasharray="none" stroke="black"/>
<line clip-path="url(#clipPath1)" fill="none" x1="522" x2="527" y1="430" y2="430" stroke-dasharray="none" stroke="black"/>
<line clip-path="url(#clipPath1)" fill="none" x1="527" x2="532" y1="430" y2="430" stroke-dasharray="none" stroke="black"/>
<line clip-path="url(#clipPath1)" fill="none" x1="532" x2="536" y1="430" y2="430" stroke-dasharray="none" stroke="black"/>
<line clip-path="url(#clipPath1)" fill="none" x1="536" x2="541" y1="430" y2="430" stroke-dasharray="none" stroke="black"/>
<line clip-path="url(#clipPath1)" fill="none" x1="541" x2="545" y1="430" y2="430" stroke-dasharray="none" stroke="black"/>
<line clip-path="url(#clipPath1)" fill="none" x1="545" x2="550" y1="430" y2="430" stroke-dasharray="none" stroke="black"/>
<line clip-path="url(#clipPath1)" fill="none" x1="550" x2="555" y1="430" y2="430" stroke-dasharray="none" stroke="black"/>
<line clip-path="url(#clipPath1)" fill="none" x1="555" x2="559" y1="430" y2="430" stroke-dasharray="none" stroke="black"/>
<line clip-path="url(#clipPath1)" fill="none" x1="559" x2="564" y1="430" y2="430" stroke-dasharray="none" stroke="black"/>
<line clip-path="url(#clipPath1)" fill="none" x1="564" x2="569" y1="430" y2="430" stroke-dasharray="none" stroke="black"/>
<line clip-path="url(#clipPath1)" fill="none" x1="569" x2="573" y1="430" y2="430" stroke-dasharray="none" stroke="black"/>
<line clip-path="url(#clipPath1)" fill="none" x1="573" x2="578" y1="430" y2="430" stroke-dasharray="none" stroke="black"/>
<line clip-path="url(#clipPath1)" fill="none" x1="578" x2="582" y1="430" y2="430" stroke-dasharray="none" stroke="black"/>
<line clip-path="url(#clipPath1)" fill="none" x1="582" x2="587" y1="430" y2="430" stroke-dasharray="none" stroke="black"/>
<line clip-path="url(#clipPath1)" fill="none" x1="587" x2="592" y1="430" y2="430" stroke-dasharray="none" stroke="black"/>
<line clip-path="url(#clipPath1)" fill="none" x1="592" x2="596" y1="430" y2="430" stroke-dasharray="none" stroke="black"/>
<line clip-path="url(#clipPath1)" fill="none" x1="596" x2="601" y1="430" y2="430" stroke-dasharray="none" stroke="black"/>
<rect x="601" y="57" clip-path="url(#clipPath1)" fill="rgb(0,0,139)" width="4" stroke-dasharray="none" height="373" stroke="none"/>
<rect x="601" y="57" clip-path="url(#clipPath1)" fill="none" width="4" stroke-dasharray="none" height="373" stroke="black"/>
<rect x="605" y="358" clip-path="url(#clipPath1)" fill="rgb(0,0,139)" width="5" stroke-dasharray="none" height="72" stroke="none"/>
<rect x="605" y="358" clip-path="url(#clipPath1)" fill="none" width="5" stroke-dasharray="none" height="72" stroke="black"/>
<rect x="610" y="312" clip-path="url(#clipPath1)" fill="rgb(0,0,139)" width="5" stroke-dasharray="none" height="118" stroke="none"/>
<rect x="610" y="312" clip-path="url(#clipPath1)" fill="none" width="5" stroke-dasharray="none" height="118" stroke="black"/>
<rect x="615" y="351" clip-path="url(#clipPath1)" fill="rgb(0,0,139)" width="4" stroke-dasharray="none" height="79" stroke="none"/>
<rect x="615" y="351" clip-path="url(#clipPath1)" fill="none" width="4" stroke-dasharray="none" height="79" stroke="black"/>
<rect x="619" y="417" clip-path="url(#clipPath1)" fill="rgb(0,0,139)" width="5" stroke-dasharray="none" height="13" stroke="none"/>
<rect x="619" y="417" clip-path="url(#clipPath1)" fill="none" width="5" stroke-dasharray="none" height="13" stroke="black"/>
<rect x="624" y="404" clip-path="url(#clipPath1)" fill="rgb(0,0,139)" width="4" stroke-dasharray="none" height="26" stroke="none"/>
<rect x="624" y="404" clip-path="url(#clipPath1)" fill="none" width="4" stroke-dasharray="none" height="26" stroke="black"/>
<line clip-path="url(#clipPath1)" fill="none" x1="628" x2="633" y1="430" y2="430" stroke-dasharray="none" stroke="black"/>
<rect x="633" y="423" clip-path="url(#clipPath1)" fill="rgb(0,0,139)" width="5" stroke-dasharray="none" height="7" stroke="none"/>
<rect x="633" y="423" clip-path="url(#clipPath1)" fill="none" width="5" stroke-dasharray="none" height="7" stroke="black"/>
<rect x="638" y="423" clip-path="url(#clipPath1)" fill="rgb(0,0,139)" width="4" stroke-dasharray="none" height="7" stroke="none"/>
<rect x="638" y="423" clip-path="url(#clipPath1)" fill="none" width="4" stroke-dasharray="none" height="7" stroke="black"/>
<rect x="642" y="423" clip-path="url(#clipPath1)" fill="rgb(0,0,139)" width="5" stroke-dasharray="none" height="7" stroke="none"/>
<rect x="642" y="423" clip-path="url(#clipPath1)" fill="none" width="5" stroke-dasharray="none" height="7" stroke="black"/>
<line clip-path="url(#clipPath1)" fill="none" x1="647" x2="651" y1="430" y2="430" stroke-dasharray="none" stroke="black"/>
<rect x="651" y="423" clip-path="url(#clipPath1)" fill="rgb(0,0,139)" width="5" stroke-dasharray="none" height="7" stroke="none"/>
<rect x="651" y="423" clip-path="url(#clipPath1)" fill="none" width="5" stroke-dasharray="none" height="7" stroke="black"/>
<line clip-path="url(#clipPath1)" fill="none" x1="656" x2="661" y1="430" y2="430" stroke-dasharray="none" stroke="black"/>
<rect x="661" y="417" clip-path="url(#clipPath1)" fill="rgb(0,0,139)" width="4" stroke-dasharray="none" height="13" stroke="none"/>
<rect x="661" y="417" clip-path="url(#clipPath1)" fill="none" width="4" stroke-dasharray="none" height="13" stroke="black"/>
<line clip-path="url(#clipPath1)" fill="none" x1="665" x2="670" y1="430" y2="430" stroke-dasharray="none" stroke="black"/>
<rect x="670" y="423" clip-path="url(#clipPath1)" fill="rgb(0,0,139)" width="5" stroke-dasharray="none" height="7" stroke="none"/>
<rect x="670" y="423" clip-path="url(#clipPath1)" fill="none" width="5" stroke-dasharray="none" height="7" stroke="black"/>
<rect x="675" y="423" clip-path="url(#clipPath1)" fill="rgb(0,0,139)" width="4" stroke-dasharray="none" height="7" stroke="none"/>
<rect x="675" y="423" clip-path="url(#clipPath1)" fill="none" width="4" stroke-dasharray="none" height="7" stroke="black"/>
<line clip-path="url(#clipPath1)" fill="none" x1="679" x2="684" y1="430" y2="430" stroke-dasharray="none" stroke="black"/>
<line clip-path="url(#clipPath1)" fill="none" x1="684" x2="688" y1="430" y2="430" stroke-dasharray="none" stroke="black"/>
<line clip-path="url(#clipPath1)" fill="none" x1="688" x2="693" y1="430" y2="430" stroke-dasharray="none" stroke="black"/>
<line clip-path="url(#clipPath1)" fill="none" x1="693" x2="698" y1="430" y2="430" stroke-dasharray="none" stroke="black"/>
<line clip-path="url(#clipPath1)" fill="none" x1="698" x2="702" y1="430" y2="430" stroke-dasharray="none" stroke="black"/>
<line clip-path="url(#clipPath1)" fill="none" x1="702" x2="707" y1="430" y2="430" stroke-dasharray="none" stroke="black"/>
<line clip-path="url(#clipPath1)" fill="none" x1="707" x2="711" y1="430" y2="430" stroke-dasharray="none" stroke="black"/>
<line clip-path="url(#clipPath1)" fill="none" x1="711" x2="716" y1="430" y2="430" stroke-dasharray="none" stroke="black"/>
<line clip-path="url(#clipPath1)" fill="none" x1="716" x2="721" y1="430" y2="430" stroke-dasharray="none" stroke="black"/>
<line clip-path="url(#clipPath1)" fill="none" x1="721" x2="725" y1="430" y2="430" stroke-dasharray="none" stroke="black"/>
<line clip-path="url(#clipPath1)" fill="none" x1="725" x2="730" y1="430" y2="430" stroke-dasharray="none" stroke="black"/>
<line clip-path="url(#clipPath1)" fill="none" x1="730" x2="734" y1="430" y2="430" stroke-dasharray="none" stroke="black"/>
<line clip-path="url(#clipPath1)" fill="none" x1="734" x2="739" y1="430" y2="430" stroke-dasharray="none" stroke="black"/>
<line clip-path="url(#clipPath1)" fill="none" x1="739" x2="744" y1="430" y2="430" stroke-dasharray="none" stroke="black"/>
<line clip-path="url(#clipPath1)" fill="none" x1="744" x2="748" y1="430" y2="430" stroke-dasharray="none" stroke="black"/>
<line clip-path="url(#clipPath1)" fill="none" x1="748" x2="753" y1="430" y2="430" stroke-dasharray="none" stroke="black"/>
<line clip-path="url(#clipPath1)" fill="none" x1="753" x2="757" y1="430" y2="430" stroke-dasharray="none" stroke="black"/>
<line clip-path="url(#clipPath1)" fill="none" x1="757" x2="762" y1="430" y2="430" stroke-dasharray="none" stroke="black"/>
<line clip-path="url(#clipPath1)" fill="none" x1="762" x2="767" y1="430" y2="430" stroke-dasharray="none" stroke="black"/>
<line clip-path="url(#clipPath1)" fill="none" x1="767" x2="771" y1="430" y2="430" stroke-dasharray="none" stroke="black"/>
<line clip-path="url(#clipPath1)" fill="none" x1="771" x2="776" y1="430" y2="430" stroke-dasharray="none" stroke="black"/>
<line clip-path="url(#clipPath1)" fill="none" x1="776" x2="781" y1="430" y2="430" stroke-dasharray="none" stroke="black"/>
<line clip-path="url(#clipPath1)" fill="none" x1="781" x2="785" y1="430" y2="430" stroke-dasharray="none" stroke="black"/>
<line clip-path="url(#clipPath1)" fill="none" x1="785" x2="790" y1="430" y2="430" stroke-dasharray="none" stroke="black"/>
<line clip-path="url(#clipPath1)" fill="none" x1="790" x2="794" y1="430" y2="430" stroke-dasharray="none" stroke="black"/>
<line clip-path="url(#clipPath1)" fill="none" x1="794" x2="799" y1="430" y2="430" stroke-dasharray="none" stroke="black"/>
<line clip-path="url(#clipPath1)" fill="none" x1="799" x2="804" y1="430" y2="430" stroke-dasharray="none" stroke="black"/>
<line clip-path="url(#clipPath1)" fill="none" x1="804" x2="808" y1="430" y2="430" stroke-dasharray="none" stroke="black"/>
<line clip-path="url(#clipPath1)" fill="none" x1="808" x2="813" y1="430" y2="430" stroke-dasharray="none" stroke="black"/>
<line clip-path="url(#clipPath1)" fill="none" x1="813" x2="817" y1="430" y2="430" stroke-dasharray="none" stroke="black"/>
<line clip-path="url(#clipPath1)" fill="none" x1="817" x2="822" y1="430" y2="430" stroke-dasharray="none" stroke="black"/>
<line clip-path="url(#clipPath1)" fill="none" x1="822" x2="827" y1="430" y2="430" stroke-dasharray="none" stroke="black"/>
<line clip-path="url(#clipPath1)" fill="none" x1="827" x2="831" y1="430" y2="430" stroke-dasharray="none" stroke="black"/>
<line clip-path="url(#clipPath1)" fill="none" x1="831" x2="836" y1="430" y2="430" stroke-dasharray="none" stroke="black"/>
<line clip-path="url(#clipPath1)" fill="none" x1="836" x2="840" y1="430" y2="430" stroke-dasharray="none" stroke="black"/>
<line clip-path="url(#clipPath1)" fill="none" x1="840" x2="845" y1="430" y2="430" stroke-dasharray="none" stroke="black"/>
<line clip-path="url(#clipPath1)" fill="none" x1="845" x2="850" y1="430" y2="430" stroke-dasharray="none" stroke="black"/>
<line clip-path="url(#clipPath1)" fill="none" x1="850" x2="854" y1="430" y2="430" stroke-dasharray="none" stroke="black"/>
<line clip-path="url(#clipPath1)" fill="none" x1="854" x2="859" y1="430" y2="430" stroke-dasharray="none" stroke="black"/>
<line clip-path="url(#clipPath1)" fill="none" x1="859" x2="863" y1="430" y2="430" stroke-dasharray="none" stroke="black"/>
<line clip-path="url(#clipPath1)" fill="none" x1="863" x2="868" y1="430" y2="430" stroke-dasharray="none" stroke="black"/>
<line clip-path="url(#clipPath1)" fill="none" x1="868" x2="873" y1="430" y2="430" stroke-dasharray="none" stroke="black"/>
<line clip-path="url(#clipPath1)" fill="none" x1="873" x2="877" y1="430" y2="430" stroke-dasharray="none" stroke="black"/>
<line clip-path="url(#clipPath1)" fill="none" x1="877" x2="882" y1="430" y2="430" stroke-dasharray="none" stroke="black"/>
<line clip-path="url(#clipPath1)" fill="none" x1="882" x2="886" y1="430" y2="430" stroke-dasharray="none" stroke="black"/>
<line clip-path="url(#clipPath1)" fill="none" x1="886" x2="891" y1="430" y2="430" stroke-dasharray="none" stroke="black"/>
<rect x="28" y="23" clip-path="url(#clipPath2)" fill="none" width="645" stroke-dasharray="none" height="407" stroke="black"/>
</g>
<g text-rendering="geometricPrecision" font-size="13" stroke-linecap="butt">
<line clip-path="url(#clipPath2)" fill="none" x1="28" x2="673" y1="21" y2="21"/>
<line clip-path="url(#clipPath2)" fill="none" x1="28" x2="673" y1="432" y2="432"/>
<line clip-path="url(#clipPath2)" fill="none" x1="36" x2="36" y1="19" y2="21"/>
<line clip-path="url(#clipPath2)" fill="none" x1="36" x2="36" y1="434" y2="432"/>
<line clip-path="url(#clipPath2)" fill="none" x1="52" x2="52" y1="17" y2="21"/>
<line clip-path="url(#clipPath2)" fill="none" x1="52" x2="52" y1="436" y2="432"/>
<text x="32" font-size="11" y="14" clip-path="url(#clipPath2)" stroke="none" xml:space="preserve">0.00010</text>
<text x="32" font-size="11" y="448" clip-path="url(#clipPath2)" stroke="none" xml:space="preserve">0.00010</text>
<line clip-path="url(#clipPath2)" fill="none" x1="69" x2="69" y1="19" y2="21"/>
<line clip-path="url(#clipPath2)" fill="none" x1="69" x2="69" y1="434" y2="432"/>
<line clip-path="url(#clipPath2)" fill="none" x1="85" x2="85" y1="19" y2="21"/>
<line clip-path="url(#clipPath2)" fill="none" x1="85" x2="85" y1="434" y2="432"/>
<line clip-path="url(#clipPath2)" fill="none" x1="102" x2="102" y1="19" y2="21"/>
<line clip-path="url(#clipPath2)" fill="none" x1="102" x2="102" y1="434" y2="432"/>
<line clip-path="url(#clipPath2)" fill="none" x1="119" x2="119" y1="19" y2="21"/>
<line clip-path="url(#clipPath2)" fill="none" x1="119" x2="119" y1="434" y2="432"/>
<line clip-path="url(#clipPath2)" fill="none" x1="135" x2="135" y1="17" y2="21"/>
<line clip-path="url(#clipPath2)" fill="none" x1="135" x2="135" y1="436" y2="432"/>
<text x="115" font-size="11" y="14" clip-path="url(#clipPath2)" stroke="none" xml:space="preserve">0.00020</text>
<text x="115" font-size="11" y="448" clip-path="url(#clipPath2)" stroke="none" xml:space="preserve">0.00020</text>
<line clip-path="url(#clipPath2)" fill="none" x1="152" x2="152" y1="19" y2="21"/>
<line clip-path="url(#clipPath2)" fill="none" x1="152" x2="152" y1="434" y2="432"/>
<line clip-path="url(#clipPath2)" fill="none" x1="168" x2="168" y1="19" y2="21"/>
<line clip-path="url(#clipPath2)" fill="none" x1="168" x2="168" y1="434" y2="432"/>
<line clip-path="url(#clipPath2)" fill="none" x1="185" x2="185" y1="19" y2="21"/>
<line clip-path="url(#clipPath2)" fill="none" x1="185" x2="185" y1="434" y2="432"/>
<line clip-path="url(#clipPath2)" fill="none" x1="201" x2="201" y1="19" y2="21"/>
<line clip-path="url(#clipPath2)" fill="none" x1="201" x2="201" y1="434" y2="432"/>
<line clip-path="url(#clipPath2)" fill="none" x1="218" x2="218" y1="17" y2="21"/>
<line clip-path="url(#clipPath2)" fill="none" x1="218" x2="218" y1="436" y2="432"/>
<text x="198" font-size="11" y="14" clip-path="url(#clipPath2)" stroke="none" xml:space="preserve">0.00030</text>
<text x="198" font-size="11" y="448" clip-path="url(#clipPath2)" stroke="none" xml:space="preserve">0.00030</text>
<line clip-path="url(#clipPath2)" fill="none" x1="235" x2="235" y1="19" y2="21"/>
<line clip-path="url(#clipPath2)" fill="none" x1="235" x2="235" y1="434" y2="432"/>
<line clip-path="url(#clipPath2)" fill="none" x1="251" x2="251" y1="19" y2="21"/>
<line clip-path="url(#clipPath2)" fill="none" x1="251" x2="251" y1="434" y2="432"/>
<line clip-path="url(#clipPath2)" fill="none" x1="268" x2="268" y1="19" y2="21"/>
<line clip-path="url(#clipPath2)" fill="none" x1="268" x2="268" y1="434" y2="432"/>
<line clip-path="url(#clipPath2)" fill="none" x1="284" x2="284" y1="19" y2="21"/>
<line clip-path="url(#clipPath2)" fill="none" x1="284" x2="284" y1="434" y2="432"/>
<line clip-path="url(#clipPath2)" fill="none" x1="301" x2="301" y1="17" y2="21"/>
<line clip-path="url(#clipPath2)" fill="none" x1="301" x2="301" y1="436" y2="432"/>
<text x="281" font-size="11" y="14" clip-path="url(#clipPath2)" stroke="none" xml:space="preserve">0.00040</text>
<text x="281" font-size="11" y="448" clip-path="url(#clipPath2)" stroke="none" xml:space="preserve">0.00040</text>
<line clip-path="url(#clipPath2)" fill="none" x1="317" x2="317" y1="19" y2="21"/>
<line clip-path="url(#clipPath2)" fill="none" x1="317" x2="317" y1="434" y2="432"/>
<line clip-path="url(#clipPath2)" fill="none" x1="334" x2="334" y1="19" y2="21"/>
<line clip-path="url(#clipPath2)" fill="none" x1="334" x2="334" y1="434" y2="432"/>
<line clip-path="url(#clipPath2)" fill="none" x1="351" x2="351" y1="19" y2="21"/>
<line clip-path="url(#clipPath2)" fill="none" x1="351" x2="351" y1="434" y2="432"/>
<line clip-path="url(#clipPath2)" fill="none" x1="367" x2="367" y1="19" y2="21"/>
<line clip-path="url(#clipPath2)" fill="none" x1="367" x2="367" y1="434" y2="432"/>
<line clip-path="url(#clipPath2)" fill="none" x1="384" x2="384" y1="17" y2="21"/>
<line clip-path="url(#clipPath2)" fill="none" x1="384" x2="384" y1="436" y2="432"/>
<text x="364" font-size="11" y="14" clip-path="url(#clipPath2)" stroke="none" xml:space="preserve">0.00050</text>
<text x="364" font-size="11" y="448" clip-path="url(#clipPath2)" stroke="none" xml:space="preserve">0.00050</text>
<line clip-path="url(#clipPath2)" fill="none" x1="400" x2="400" y1="19" y2="21"/>
<line clip-path="url(#clipPath2)" fill="none" x1="400" x2="400" y1="434" y2="432"/>
<line clip-path="url(#clipPath2)" fill="none" x1="417" x2="417" y1="19" y2="21"/>
<line clip-path="url(#clipPath2)" fill="none" x1="417" x2="417" y1="434" y2="432"/>
<line clip-path="url(#clipPath2)" fill="none" x1="433" x2="433" y1="19" y2="21"/>
<line clip-path="url(#clipPath2)" fill="none" x1="433" x2="433" y1="434" y2="432"/>
<line clip-path="url(#clipPath2)" fill="none" x1="450" x2="450" y1="19" y2="21"/>
<line clip-path="url(#clipPath2)" fill="none" x1="450" x2="450" y1="434" y2="432"/>
<line clip-path="url(#clipPath2)" fill="none" x1="466" x2="466" y1="17" y2="21"/>
<line clip-path="url(#clipPath2)" fill="none" x1="466" x2="466" y1="436" y2="432"/>
<text x="446" font-size="11" y="14" clip-path="url(#clipPath2)" stroke="none" xml:space="preserve">0.00060</text>
<text x="446" font-size="11" y="448" clip-path="url(#clipPath2)" stroke="none" xml:space="preserve">0.00060</text>
<line clip-path="url(#clipPath2)" fill="none" x1="483" x2="483" y1="19" y2="21"/>
<line clip-path="url(#clipPath2)" fill="none" x1="483" x2="483" y1="434" y2="432"/>
<line clip-path="url(#clipPath2)" fill="none" x1="500" x2="500" y1="19" y2="21"/>
<line clip-path="url(#clipPath2)" fill="none" x1="500" x2="500" y1="434" y2="432"/>
<line clip-path="url(#clipPath2)" fill="none" x1="516" x2="516" y1="19" y2="21"/>
<line clip-path="url(#clipPath2)" fill="none" x1="516" x2="516" y1="434" y2="432"/>
<line clip-path="url(#clipPath2)" fill="none" x1="533" x2="533" y1="19" y2="21"/>
<line clip-path="url(#clipPath2)" fill="none" x1="533" x2="533" y1="434" y2="432"/>
<line clip-path="url(#clipPath2)" fill="none" x1="549" x2="549" y1="17" y2="21"/>
<line clip-path="url(#clipPath2)" fill="none" x1="549" x2="549" y1="436" y2="432"/>
<text x="529" font-size="11" y="14" clip-path="url(#clipPath2)" stroke="none" xml:space="preserve">0.00070</text>
<text x="529" font-size="11" y="448" clip-path="url(#clipPath2)" stroke="none" xml:space="preserve">0.00070</text>
<line clip-path="url(#clipPath2)" fill="none" x1="566" x2="566" y1="19" y2="21"/>
<line clip-path="url(#clipPath2)" fill="none" x1="566" x2="566" y1="434" y2="432"/>
<line clip-path="url(#clipPath2)" fill="none" x1="582" x2="582" y1="19" y2="21"/>
<line clip-path="url(#clipPath2)" fill="none" x1="582" x2="582" y1="434" y2="432"/>
<line clip-path="url(#clipPath2)" fill="none" x1="599" x2="599" y1="19" y2="21"/>
<line clip-path="url(#clipPath2)" fill="none" x1="599" x2="599" y1="434" y2="432"/>
<line clip-path="url(#clipPath2)" fill="none" x1="616" x2="616" y1="19" y2="21"/>
<line clip-path="url(#clipPath2)" fill="none" x1="616" x2="616" y1="434" y2="432"/>
<line clip-path="url(#clipPath2)" fill="none" x1="632" x2="632" y1="17" y2="21"/>
<line clip-path="url(#clipPath2)" fill="none" x1="632" x2="632" y1="436" y2="432"/>
<text x="612" font-size="11" y="14" clip-path="url(#clipPath2)" stroke="none" xml:space="preserve">0.00080</text>
<text x="612" font-size="11" y="448" clip-path="url(#clipPath2)" stroke="none" xml:space="preserve">0.00080</text>
<line clip-path="url(#clipPath2)" fill="none" x1="649" x2="649" y1="19" y2="21"/>
<line clip-path="url(#clipPath2)" fill="none" x1="649" x2="649" y1="434" y2="432"/>
<line clip-path="url(#clipPath2)" fill="none" x1="665" x2="665" y1="19" y2="21"/>
<line clip-path="url(#clipPath2)" fill="none" x1="665" x2="665" y1="434" y2="432"/>
<line clip-path="url(#clipPath2)" fill="none" x1="26" x2="26" y1="23" y2="430"/>
<line clip-path="url(#clipPath2)" fill="none" x1="675" x2="675" y1="23" y2="430"/>
<line clip-path="url(#clipPath2)" fill="none" x1="22" x2="26" y1="430" y2="430"/>
<line clip-path="url(#clipPath2)" fill="none" x1="679" x2="675" y1="430" y2="430"/>
<text x="15" font-size="11" y="435" clip-path="url(#clipPath2)" stroke="none" xml:space="preserve">0</text>
<text x="682" font-size="11" y="435" clip-path="url(#clipPath2)" stroke="none" xml:space="preserve">0</text>
<line clip-path="url(#clipPath2)" fill="none" x1="24" x2="26" y1="417" y2="417"/>
<line clip-path="url(#clipPath2)" fill="none" x1="677" x2="675" y1="417" y2="417"/>
<line clip-path="url(#clipPath2)" fill="none" x1="24" x2="26" y1="404" y2="404"/>
<line clip-path="url(#clipPath2)" fill="none" x1="677" x2="675" y1="404" y2="404"/>
<line clip-path="url(#clipPath2)" fill="none" x1="24" x2="26" y1="391" y2="391"/>
<line clip-path="url(#clipPath2)" fill="none" x1="677" x2="675" y1="391" y2="391"/>
<line clip-path="url(#clipPath2)" fill="none" x1="24" x2="26" y1="378" y2="378"/>
<line clip-path="url(#clipPath2)" fill="none" x1="677" x2="675" y1="378" y2="378"/>
<line clip-path="url(#clipPath2)" fill="none" x1="22" x2="26" y1="364" y2="364"/>
<line clip-path="url(#clipPath2)" fill="none" x1="679" x2="675" y1="364" y2="364"/>
<text x="9" font-size="11" y="369" clip-path="url(#clipPath2)" stroke="none" xml:space="preserve">10</text>
<text x="682" font-size="11" y="369" clip-path="url(#clipPath2)" stroke="none" xml:space="preserve">10</text>
<line clip-path="url(#clipPath2)" fill="none" x1="24" x2="26" y1="351" y2="351"/>
<line clip-path="url(#clipPath2)" fill="none" x1="677" x2="675" y1="351" y2="351"/>
<line clip-path="url(#clipPath2)" fill="none" x1="24" x2="26" y1="338" y2="338"/>
<line clip-path="url(#clipPath2)" fill="none" x1="677" x2="675" y1="338" y2="338"/>
<line clip-path="url(#clipPath2)" fill="none" x1="24" x2="26" y1="325" y2="325"/>
<line clip-path="url(#clipPath2)" fill="none" x1="677" x2="675" y1="325" y2="325"/>
<line clip-path="url(#clipPath2)" fill="none" x1="24" x2="26" y1="312" y2="312"/>
<line clip-path="url(#clipPath2)" fill="none" x1="677" x2="675" y1="312" y2="312"/>
<line clip-path="url(#clipPath2)" fill="none" x1="22" x2="26" y1="299" y2="299"/>
<line clip-path="url(#clipPath2)" fill="none" x1="679" x2="675" y1="299" y2="299"/>
<text x="9" font-size="11" y="304" clip-path="url(#clipPath2)" stroke="none" xml:space="preserve">20</text>
<text x="682" font-size="11" y="304" clip-path="url(#clipPath2)" stroke="none" xml:space="preserve">20</text>
<line clip-path="url(#clipPath2)" fill="none" x1="24" x2="26" y1="286" y2="286"/>
<line clip-path="url(#clipPath2)" fill="none" x1="677" x2="675" y1="286" y2="286"/>
<line clip-path="url(#clipPath2)" fill="none" x1="24" x2="26" y1="273" y2="273"/>
<line clip-path="url(#clipPath2)" fill="none" x1="677" x2="675" y1="273" y2="273"/>
<line clip-path="url(#clipPath2)" fill="none" x1="24" x2="26" y1="260" y2="260"/>
<line clip-path="url(#clipPath2)" fill="none" x1="677" x2="675" y1="260" y2="260"/>
<line clip-path="url(#clipPath2)" fill="none" x1="24" x2="26" y1="247" y2="247"/>
<line clip-path="url(#clipPath2)" fill="none" x1="677" x2="675" y1="247" y2="247"/>
<line clip-path="url(#clipPath2)" fill="none" x1="22" x2="26" y1="234" y2="234"/>
<line clip-path="url(#clipPath2)" fill="none" x1="679" x2="675" y1="234" y2="234"/>
<text x="9" font-size="11" y="239" clip-path="url(#clipPath2)" stroke="none" xml:space="preserve">30</text>
<text x="682" font-size="11" y="239" clip-path="url(#clipPath2)" stroke="none" xml:space="preserve">30</text>
<line clip-path="url(#clipPath2)" fill="none" x1="24" x2="26" y1="220" y2="220"/>
<line clip-path="url(#clipPath2)" fill="none" x1="677" x2="675" y1="220" y2="220"/>
<line clip-path="url(#clipPath2)" fill="none" x1="24" x2="26" y1="207" y2="207"/>
<line clip-path="url(#clipPath2)" fill="none" x1="677" x2="675" y1="207" y2="207"/>
<line clip-path="url(#clipPath2)" fill="none" x1="24" x2="26" y1="194" y2="194"/>
<line clip-path="url(#clipPath2)" fill="none" x1="677" x2="675" y1="194" y2="194"/>
<line clip-path="url(#clipPath2)" fill="none" x1="24" x2="26" y1="181" y2="181"/>
<line clip-path="url(#clipPath2)" fill="none" x1="677" x2="675" y1="181" y2="181"/>
<line clip-path="url(#clipPath2)" fill="none" x1="22" x2="26" y1="168" y2="168"/>
<line clip-path="url(#clipPath2)" fill="none" x1="679" x2="675" y1="168" y2="168"/>
<text x="9" font-size="11" y="173" clip-path="url(#clipPath2)" stroke="none" xml:space="preserve">40</text>
<text x="682" font-size="11" y="173" clip-path="url(#clipPath2)" stroke="none" xml:space="preserve">40</text>
<line clip-path="url(#clipPath2)" fill="none" x1="24" x2="26" y1="155" y2="155"/>
<line clip-path="url(#clipPath2)" fill="none" x1="677" x2="675" y1="155" y2="155"/>
<line clip-path="url(#clipPath2)" fill="none" x1="24" x2="26" y1="142" y2="142"/>
<line clip-path="url(#clipPath2)" fill="none" x1="677" x2="675" y1="142" y2="142"/>
<line clip-path="url(#clipPath2)" fill="none" x1="24" x2="26" y1="129" y2="129"/>
<line clip-path="url(#clipPath2)" fill="none" x1="677" x2="675" y1="129" y2="129"/>
<line clip-path="url(#clipPath2)" fill="none" x1="24" x2="26" y1="116" y2="116"/>
<line clip-path="url(#clipPath2)" fill="none" x1="677" x2="675" y1="116" y2="116"/>
<line clip-path="url(#clipPath2)" fill="none" x1="22" x2="26" y1="103" y2="103"/>
<line clip-path="url(#clipPath2)" fill="none" x1="679" x2="675" y1="103" y2="103"/>
<text x="9" font-size="11" y="108" clip-path="url(#clipPath2)" stroke="none" xml:space="preserve">50</text>
<text x="682" font-size="11" y="108" clip-path="url(#clipPath2)" stroke="none" xml:space="preserve">50</text>
<line clip-path="url(#clipPath2)" fill="none" x1="24" x2="26" y1="90" y2="90"/>
<line clip-path="url(#clipPath2)" fill="none" x1="677" x2="675" y1="90" y2="90"/>
<line clip-path="url(#clipPath2)" fill="none" x1="24" x2="26" y1="76" y2="76"/>
<line clip-path="url(#clipPath2)" fill="none" x1="677" x2="675" y1="76" y2="76"/>
<line clip-path="url(#clipPath2)" fill="none" x1="24" x2="26" y1="63" y2="63"/>
<line clip-path="url(#clipPath2)" fill="none" x1="677" x2="675" y1="63" y2="63"/>
<line clip-path="url(#clipPath2)" fill="none" x1="24" x2="26" y1="50" y2="50"/>
<line clip-path="url(#clipPath2)" fill="none" x1="677" x2="675" y1="50" y2="50"/>
<line clip-path="url(#clipPath2)" fill="none" x1="22" x2="26" y1="37" y2="37"/>
<line clip-path="url(#clipPath2)" fill="none" x1="679" x2="675" y1="37" y2="37"/>
<text x="9" font-size="11" y="42" clip-path="url(#clipPath2)" stroke="none" xml:space="preserve">60</text>
<text x="682" font-size="11" y="42" clip-path="url(#clipPath2)" stroke="none" xml:space="preserve">60</text>
<line clip-path="url(#clipPath2)" fill="none" x1="24" x2="26" y1="24" y2="24"/>
<line clip-path="url(#clipPath2)" fill="none" x1="677" x2="675" y1="24" y2="24"/>
</g>
</g>
</svg>
