<?xml version="1.0" encoding="UTF-8"?><svg xmlns="http://www.w3.org/2000/svg" xmlns:xlink="http://www.w3.org/1999/xlink" stroke-dasharray="none" shape-rendering="auto" font-family="'Dialog'" width="714" text-rendering="auto" fill-opacity="1" contentScriptType="text/ecmascript" color-interpolation="auto" color-rendering="auto" preserveAspectRatio="xMidYMid meet" font-size="12" fill="black" stroke="black" image-rendering="auto" stroke-miterlimit="10" zoomAndPan="magnify" version="1.0" stroke-linecap="square" stroke-linejoin="miter" contentStyleType="text/css" font-style="normal" height="453" stroke-width="1" stroke-dashoffset="0" font-weight="normal" stroke-opacity="1">
<!--Generated by the Batik Graphics2D SVG Generator-->
<defs id="genericDefs"/>
<g>
<defs id="defs1">
<clipPath clipPathUnits="userSpaceOnUse" id="clipPath1">
<path d="M27 22 L687 22 L687 431 L27 431 L27 22 Z"/>
</clipPath>
<clipPath clipPathUnits="userSpaceOnUse" id="clipPath2">
<path d="M-1 -1 L715 -1 L715 454 L-1 454 L-1 -1 Z"/>
</clipPath>
</defs>
<g font-size="15" fill="white" text-rendering="geometricPrecision" font-family="'Cantarell'" stroke-linejoin="round" stroke="white" stroke-width="0" stroke-miterlimit="0">
<rect x="28" y="23" clip-path="url(#clipPath1)" width="658" height="407" stroke="none"/>
</g>
<g stroke-linecap="butt" font-size="15" fill="rgb(204,204,204)" text-rendering="geometricPrecision" font-family="'Cantarell'" stroke-dasharray="3,3" stroke="rgb(204,204,204)">
<line clip-path="url(#clipPath1)" fill="none" x1="28" x2="686" y1="430" y2="430"/>
<line clip-path="url(#clipPath1)" fill="none" x1="28" x2="686" y1="379" y2="379"/>
<line clip-path="url(#clipPath1)" fill="none" x1="28" x2="686" y1="328" y2="328"/>
<line clip-path="url(#clipPath1)" fill="none" x1="28" x2="686" y1="277" y2="277"/>
<line clip-path="url(#clipPath1)" fill="none" x1="28" x2="686" y1="226" y2="226"/>
<line clip-path="url(#clipPath1)" fill="none" x1="28" x2="686" y1="175" y2="175"/>
<line clip-path="url(#clipPath1)" fill="none" x1="28" x2="686" y1="124" y2="124"/>
<line clip-path="url(#clipPath1)" fill="none" x1="28" x2="686" y1="73" y2="73"/>
<line clip-path="url(#clipPath1)" fill="none" x1="-858" x2="-849" y1="430" y2="430" stroke-dasharray="none" stroke="black"/>
<line clip-path="url(#clipPath1)" fill="none" x1="-849" x2="-840" y1="430" y2="430" stroke-dasharray="none" stroke="black"/>
<line clip-path="url(#clipPath1)" fill="none" x1="-840" x2="-831" y1="430" y2="430" stroke-dasharray="none" stroke="black"/>
<line clip-path="url(#clipPath1)" fill="none" x1="-831" x2="-822" y1="430" y2="430" stroke-dasharray="none" stroke="black"/>
<line clip-path="url(#clipPath1)" fill="none" x1="-822" x2="-813" y1="430" y2="430" stroke-dasharray="none" stroke="black"/>
<line clip-path="url(#clipPath1)" fill="none" x1="-813" x2="-805" y1="430" y2="430" stroke-dasharray="none" stroke="black"/>
<line clip-path="url(#clipPath1)" fill="none" x1="-805" x2="-796" y1="430" y2="430" stroke-dasharray="none" stroke="black"/>
<line clip-path="url(#clipPath1)" fill="none" x1="-796" x2="-787" y1="430" y2="430" stroke-dasharray="none" stroke="black"/>
<line clip-path="url(#clipPath1)" fill="none" x1="-787" x2="-778" y1="430" y2="430" stroke-dasharray="none" stroke="black"/>
<line clip-path="url(#clipPath1)" fill="none" x1="-778" x2="-769" y1="430" y2="430" stroke-dasharray="none" stroke="black"/>
<line clip-path="url(#clipPath1)" fill="none" x1="-769" x2="-760" y1="430" y2="430" stroke-dasharray="none" stroke="black"/>
<line clip-path="url(#clipPath1)" fill="none" x1="-760" x2="-752" y1="430" y2="430" stroke-dasharray="none" stroke="black"/>
<line clip-path="url(#clipPath1)" fill="none" x1="-752" x2="-743" y1="430" y2="430" stroke-dasharray="none" stroke="black"/>
<line clip-path="url(#clipPath1)" fill="none" x1="-743" x2="-734" y1="430" y2="430" stroke-dasharray="none" stroke="black"/>
<line clip-path="url(#clipPath1)" fill="none" x1="-734" x2="-725" y1="430" y2="430" stroke-dasharray="none" stroke="black"/>
<line clip-path="url(#clipPath1)" fill="none" x1="-725" x2="-716" y1="430" y2="430" stroke-dasharray="none" stroke="black"/>
<line clip-path="url(#clipPath1)" fill="none" x1="-716" x2="-707" y1="430" y2="430" stroke-dasharray="none" stroke="black"/>
<line clip-path="url(#clipPath1)" fill="none" x1="-707" x2="-699" y1="430" y2="430" stroke-dasharray="none" stroke="black"/>
<line clip-path="url(#clipPath1)" fill="none" x1="-699" x2="-690" y1="430" y2="430" stroke-dasharray="none" stroke="black"/>
<line clip-path="url(#clipPath1)" fill="none" x1="-690" x2="-681" y1="430" y2="430" stroke-dasharray="none" stroke="black"/>
<line clip-path="url(#clipPath1)" fill="none" x1="-681" x2="-672" y1="430" y2="430" stroke-dasharray="none" stroke="black"/>
<line clip-path="url(#clipPath1)" fill="none" x1="-672" x2="-663" y1="430" y2="430" stroke-dasharray="none" stroke="black"/>
<line clip-path="url(#clipPath1)" fill="none" x1="-663" x2="-654" y1="430" y2="430" stroke-dasharray="none" stroke="black"/>
<line clip-path="url(#clipPath1)" fill="none" x1="-654" x2="-646" y1="430" y2="430" stroke-dasharray="none" stroke="black"/>
<line clip-path="url(#clipPath1)" fill="none" x1="-646" x2="-637" y1="430" y2="430" stroke-dasharray="none" stroke="black"/>
<line clip-path="url(#clipPath1)" fill="none" x1="-637" x2="-628" y1="430" y2="430" stroke-dasharray="none" stroke="black"/>
<line clip-path="url(#clipPath1)" fill="none" x1="-628" x2="-619" y1="430" y2="430" stroke-dasharray="none" stroke="black"/>
<line clip-path="url(#clipPath1)" fill="none" x1="-619" x2="-610" y1="430" y2="430" stroke-dasharray="none" stroke="black"/>
<line clip-path="url(#clipPath1)" fill="none" x1="-610" x2="-602" y1="430" y2="430" stroke-dasharray="none" stroke="black"/>
<line clip-path="url(#clipPath1)" fill="none" x1="-602" x2="-593" y1="430" y2="430" stroke-dasharray="none" stroke="black"/>
<line clip-path="url(#clipPath1)" fill="none" x1="-593" x2="-584" y1="430" y2="430" stroke-dasharray="none" stroke="black"/>
<line clip-path="url(#clipPath1)" fill="none" x1="-584" x2="-575" y1="430" y2="430" stroke-dasharray="none" stroke="black"/>
<line clip-path="url(#clipPath1)" fill="none" x1="-575" x2="-566" y1="430" y2="430" stroke-dasharray="none" stroke="black"/>
<line clip-path="url(#clipPath1)" fill="none" x1="-566" x2="-557" y1="430" y2="430" stroke-dasharray="none" stroke="black"/>
<line clip-path="url(#clipPath1)" fill="none" x1="-557" x2="-549" y1="430" y2="430" stroke-dasharray="none" stroke="black"/>
<line clip-path="url(#clipPath1)" fill="none" x1="-549" x2="-540" y1="430" y2="430" stroke-dasharray="none" stroke="black"/>
<line clip-path="url(#clipPath1)" fill="none" x1="-540" x2="-531" y1="430" y2="430" stroke-dasharray="none" stroke="black"/>
<line clip-path="url(#clipPath1)" fill="none" x1="-531" x2="-522" y1="430" y2="430" stroke-dasharray="none" stroke="black"/>
<line clip-path="url(#clipPath1)" fill="none" x1="-522" x2="-513" y1="430" y2="430" stroke-dasharray="none" stroke="black"/>
<line clip-path="url(#clipPath1)" fill="none" x1="-513" x2="-504" y1="430" y2="430" stroke-dasharray="none" stroke="black"/>
<line clip-path="url(#clipPath1)" fill="none" x1="-504" x2="-496" y1="430" y2="430" stroke-dasharray="none" stroke="black"/>
<line clip-path="url(#clipPath1)" fill="none" x1="-496" x2="-487" y1="430" y2="430" stroke-dasharray="none" stroke="black"/>
<line clip-path="url(#clipPath1)" fill="none" x1="-487" x2="-478" y1="430" y2="430" stroke-dasharray="none" stroke="black"/>
<line clip-path="url(#clipPath1)" fill="none" x1="-478" x2="-469" y1="430" y2="430" stroke-dasharray="none" stroke="black"/>
<line clip-path="url(#clipPath1)" fill="none" x1="-469" x2="-460" y1="430" y2="430" stroke-dasharray="none" stroke="black"/>
<line clip-path="url(#clipPath1)" fill="none" x1="-460" x2="-451" y1="430" y2="430" stroke-dasharray="none" stroke="black"/>
<line clip-path="url(#clipPath1)" fill="none" x1="-451" x2="-443" y1="430" y2="430" stroke-dasharray="none" stroke="black"/>
<line clip-path="url(#clipPath1)" fill="none" x1="-443" x2="-434" y1="430" y2="430" stroke-dasharray="none" stroke="black"/>
<line clip-path="url(#clipPath1)" fill="none" x1="-434" x2="-425" y1="430" y2="430" stroke-dasharray="none" stroke="black"/>
<line clip-path="url(#clipPath1)" fill="none" x1="-425" x2="-416" y1="430" y2="430" stroke-dasharray="none" stroke="black"/>
<line clip-path="url(#clipPath1)" fill="none" x1="-416" x2="-407" y1="430" y2="430" stroke-dasharray="none" stroke="black"/>
<line clip-path="url(#clipPath1)" fill="none" x1="-407" x2="-399" y1="430" y2="430" stroke-dasharray="none" stroke="black"/>
<line clip-path="url(#clipPath1)" fill="none" x1="-399" x2="-390" y1="430" y2="430" stroke-dasharray="none" stroke="black"/>
<line clip-path="url(#clipPath1)" fill="none" x1="-390" x2="-381" y1="430" y2="430" stroke-dasharray="none" stroke="black"/>
<line clip-path="url(#clipPath1)" fill="none" x1="-381" x2="-372" y1="430" y2="430" stroke-dasharray="none" stroke="black"/>
<line clip-path="url(#clipPath1)" fill="none" x1="-372" x2="-363" y1="430" y2="430" stroke-dasharray="none" stroke="black"/>
<line clip-path="url(#clipPath1)" fill="none" x1="-363" x2="-354" y1="430" y2="430" stroke-dasharray="none" stroke="black"/>
<line clip-path="url(#clipPath1)" fill="none" x1="-354" x2="-346" y1="430" y2="430" stroke-dasharray="none" stroke="black"/>
<line clip-path="url(#clipPath1)" fill="none" x1="-346" x2="-337" y1="430" y2="430" stroke-dasharray="none" stroke="black"/>
<line clip-path="url(#clipPath1)" fill="none" x1="-337" x2="-328" y1="430" y2="430" stroke-dasharray="none" stroke="black"/>
<line clip-path="url(#clipPath1)" fill="none" x1="-328" x2="-319" y1="430" y2="430" stroke-dasharray="none" stroke="black"/>
<line clip-path="url(#clipPath1)" fill="none" x1="-319" x2="-310" y1="430" y2="430" stroke-dasharray="none" stroke="black"/>
<line clip-path="url(#clipPath1)" fill="none" x1="-310" x2="-301" y1="430" y2="430" stroke-dasharray="none" stroke="black"/>
<line clip-path="url(#clipPath1)" fill="none" x1="-301" x2="-293" y1="430" y2="430" stroke-dasharray="none" stroke="black"/>
<line clip-path="url(#clipPath1)" fill="none" x1="-293" x2="-284" y1="430" y2="430" stroke-dasharray="none" stroke="black"/>
<line clip-path="url(#clipPath1)" fill="none" x1="-284" x2="-275" y1="430" y2="430" stroke-dasharray="none" stroke="black"/>
<line clip-path="url(#clipPath1)" fill="none" x1="-275" x2="-266" y1="430" y2="430" stroke-dasharray="none" stroke="black"/>
<line clip-path="url(#clipPath1)" fill="none" x1="-266" x2="-257" y1="430" y2="430" stroke-dasharray="none" stroke="black"/>
<line clip-path="url(#clipPath1)" fill="none" x1="-257" x2="-248" y1="430" y2="430" stroke-dasharray="none" stroke="black"/>
<line clip-path="url(#clipPath1)" fill="none" x1="-248" x2="-240" y1="430" y2="430" stroke-dasharray="none" stroke="black"/>
<line clip-path="url(#clipPath1)" fill="none" x1="-240" x2="-231" y1="430" y2="430" stroke-dasharray="none" stroke="black"/>
<line clip-path="url(#clipPath1)" fill="none" x1="-231" x2="-222" y1="430" y2="430" stroke-dasharray="none" stroke="black"/>
<line clip-path="url(#clipPath1)" fill="none" x1="-222" x2="-213" y1="430" y2="430" stroke-dasharray="none" stroke="black"/>
<line clip-path="url(#clipPath1)" fill="none" x1="-213" x2="-204" y1="430" y2="430" stroke-dasharray="none" stroke="black"/>
<line clip-path="url(#clipPath1)" fill="none" x1="-204" x2="-196" y1="430" y2="430" stroke-dasharray="none" stroke="black"/>
<line clip-path="url(#clipPath1)" fill="none" x1="-196" x2="-187" y1="430" y2="430" stroke-dasharray="none" stroke="black"/>
<line clip-path="url(#clipPath1)" fill="none" x1="-187" x2="-178" y1="430" y2="430" stroke-dasharray="none" stroke="black"/>
<line clip-path="url(#clipPath1)" fill="none" x1="-178" x2="-169" y1="430" y2="430" stroke-dasharray="none" stroke="black"/>
<line clip-path="url(#clipPath1)" fill="none" x1="-169" x2="-160" y1="430" y2="430" stroke-dasharray="none" stroke="black"/>
<line clip-path="url(#clipPath1)" fill="none" x1="-160" x2="-151" y1="430" y2="430" stroke-dasharray="none" stroke="black"/>
<line clip-path="url(#clipPath1)" fill="none" x1="-151" x2="-143" y1="430" y2="430" stroke-dasharray="none" stroke="black"/>
<line clip-path="url(#clipPath1)" fill="none" x1="-143" x2="-134" y1="430" y2="430" stroke-dasharray="none" stroke="black"/>
<line clip-path="url(#clipPath1)" fill="none" x1="-134" x2="-125" y1="430" y2="430" stroke-dasharray="none" stroke="black"/>
<line clip-path="url(#clipPath1)" fill="none" x1="-125" x2="-116" y1="430" y2="430" stroke-dasharray="none" stroke="black"/>
<line clip-path="url(#clipPath1)" fill="none" x1="-116" x2="-107" y1="430" y2="430" stroke-dasharray="none" stroke="black"/>
<line clip-path="url(#clipPath1)" fill="none" x1="-107" x2="-98" y1="430" y2="430" stroke-dasharray="none" stroke="black"/>
<line clip-path="url(#clipPath1)" fill="none" x1="-98" x2="-90" y1="430" y2="430" stroke-dasharray="none" stroke="black"/>
<line clip-path="url(#clipPath1)" fill="none" x1="-90" x2="-81" y1="430" y2="430" stroke-dasharray="none" stroke="black"/>
<line clip-path="url(#clipPath1)" fill="none" x1="-81" x2="-72" y1="430" y2="430" stroke-dasharray="none" stroke="black"/>
<line clip-path="url(#clipPath1)" fill="none" x1="-72" x2="-63" y1="430" y2="430" stroke-dasharray="none" stroke="black"/>
<line clip-path="url(#clipPath1)" fill="none" x1="-63" x2="-54" y1="430" y2="430" stroke-dasharray="none" stroke="black"/>
<line clip-path="url(#clipPath1)" fill="none" x1="-54" x2="-45" y1="430" y2="430" stroke-dasharray="none" stroke="black"/>
<line clip-path="url(#clipPath1)" fill="none" x1="-45" x2="-37" y1="430" y2="430" stroke-dasharray="none" stroke="black"/>
<line clip-path="url(#clipPath1)" fill="none" x1="-37" x2="-28" y1="430" y2="430" stroke-dasharray="none" stroke="black"/>
<line clip-path="url(#clipPath1)" fill="none" x1="-28" x2="-19" y1="430" y2="430" stroke-dasharray="none" stroke="black"/>
<line clip-path="url(#clipPath1)" fill="none" x1="-19" x2="-10" y1="430" y2="430" stroke-dasharray="none" stroke="black"/>
<line clip-path="url(#clipPath1)" fill="none" x1="-10" x2="-1" y1="430" y2="430" stroke-dasharray="none" stroke="black"/>
<line clip-path="url(#clipPath1)" fill="none" x1="-1" x2="6" y1="430" y2="430" stroke-dasharray="none" stroke="black"/>
<line clip-path="url(#clipPath1)" fill="none" x1="6" x2="15" y1="430" y2="430" stroke-dasharray="none" stroke="black"/>
<line clip-path="url(#clipPath1)" fill="none" x1="15" x2="24" y1="430" y2="430" stroke-dasharray="none" stroke="black"/>
<line clip-path="url(#clipPath1)" fill="none" x1="24" x2="33" y1="430" y2="430" stroke-dasharray="none" stroke="black"/>
<line clip-path="url(#clipPath1)" fill="none" x1="33" x2="42" y1="430" y2="430" stroke-dasharray="none" stroke="black"/>
<line clip-path="url(#clipPath1)" fill="none" x1="42" x2="51" y1="430" y2="430" stroke-dasharray="none" stroke="black"/>
<line clip-path="url(#clipPath1)" fill="none" x1="51" x2="59" y1="430" y2="430" stroke-dasharray="none" stroke="black"/>
<line clip-path="url(#clipPath1)" fill="none" x1="59" x2="68" y1="430" y2="430" stroke-dasharray="none" stroke="black"/>
<line clip-path="url(#clipPath1)" fill="none" x1="68" x2="77" y1="430" y2="430" stroke-dasharray="none" stroke="black"/>
<line clip-path="url(#clipPath1)" fill="none" x1="77" x2="86" y1="430" y2="430" stroke-dasharray="none" stroke="black"/>
<line clip-path="url(#clipPath1)" fill="none" x1="86" x2="95" y1="430" y2="430" stroke-dasharray="none" stroke="black"/>
<line clip-path="url(#clipPath1)" fill="none" x1="95" x2="104" y1="430" y2="430" stroke-dasharray="none" stroke="black"/>
<line clip-path="url(#clipPath1)" fill="none" x1="104" x2="112" y1="430" y2="430" stroke-dasharray="none" stroke="black"/>
<line clip-path="url(#clipPath1)" fill="none" x1="112" x2="121" y1="430" y2="430" stroke-dasharray="none" stroke="black"/>
<line clip-path="url(#clipPath1)" fill="none" x1="121" x2="130" y1="430" y2="430" stroke-dasharray="none" stroke="black"/>
<line clip-path="url(#clipPath1)" fill="none" x1="130" x2="139" y1="430" y2="430" stroke-dasharray="none" stroke="black"/>
<line clip-path="url(#clipPath1)" fill="none" x1="139" x2="148" y1="430" y2="430" stroke-dasharray="none" stroke="black"/>
<line clip-path="url(#clipPath1)" fill="none" x1="148" x2="157" y1="430" y2="430" stroke-dasharray="none" stroke="black"/>
<line clip-path="url(#clipPath1)" fill="none" x1="157" x2="165" y1="430" y2="430" stroke-dasharray="none" stroke="black"/>
<line clip-path="url(#clipPath1)" fill="none" x1="165" x2="174" y1="430" y2="430" stroke-dasharray="none" stroke="black"/>
<line clip-path="url(#clipPath1)" fill="none" x1="174" x2="183" y1="430" y2="430" stroke-dasharray="none" stroke="black"/>
<line clip-path="url(#clipPath1)" fill="none" x1="183" x2="192" y1="430" y2="430" stroke-dasharray="none" stroke="black"/>
<line clip-path="url(#clipPath1)" fill="none" x1="192" x2="201" y1="430" y2="430" stroke-dasharray="none" stroke="black"/>
<rect x="201" y="124" clip-path="url(#clipPath1)" fill="rgb(0,0,139)" width="8" stroke-dasharray="none" height="306" stroke="none"/>
<rect x="201" y="124" clip-path="url(#clipPath1)" fill="none" width="8" stroke-dasharray="none" height="306" stroke="black"/>
<rect x="209" y="175" clip-path="url(#clipPath1)" fill="rgb(0,0,139)" width="9" stroke-dasharray="none" height="255" stroke="none"/>
<rect x="209" y="175" clip-path="url(#clipPath1)" fill="none" width="9" stroke-dasharray="none" height="255" stroke="black"/>
<rect x="218" y="277" clip-path="url(#clipPath1)" fill="rgb(0,0,139)" width="9" stroke-dasharray="none" height="153" stroke="none"/>
<rect x="218" y="277" clip-path="url(#clipPath1)" fill="none" width="9" stroke-dasharray="none" height="153" stroke="black"/>
<line clip-path="url(#clipPath1)" fill="none" x1="227" x2="236" y1="430" y2="430" stroke-dasharray="none" stroke="black"/>
<rect x="236" y="379" clip-path="url(#clipPath1)" fill="rgb(0,0,139)" width="9" stroke-dasharray="none" height="51" stroke="none"/>
<rect x="236" y="379" clip-path="url(#clipPath1)" fill="none" width="9" stroke-dasharray="none" height="51" stroke="black"/>
<rect x="245" y="379" clip-path="url(#clipPath1)" fill="rgb(0,0,139)" width="9" stroke-dasharray="none" height="51" stroke="none"/>
<rect x="245" y="379" clip-path="url(#clipPath1)" fill="none" width="9" stroke-dasharray="none" height="51" stroke="black"/>
<rect x="254" y="379" clip-path="url(#clipPath1)" fill="rgb(0,0,139)" width="8" stroke-dasharray="none" height="51" stroke="none"/>
<rect x="254" y="379" clip-path="url(#clipPath1)" fill="none" width="8" stroke-dasharray="none" height="51" stroke="black"/>
<rect x="262" y="328" clip-path="url(#clipPath1)" fill="rgb(0,0,139)" width="9" stroke-dasharray="none" height="102" stroke="none"/>
<rect x="262" y="328" clip-path="url(#clipPath1)" fill="none" width="9" stroke-dasharray="none" height="102" stroke="black"/>
<rect x="271" y="328" clip-path="url(#clipPath1)" fill="rgb(0,0,139)" width="9" stroke-dasharray="none" height="102" stroke="none"/>
<rect x="271" y="328" clip-path="url(#clipPath1)" fill="none" width="9" stroke-dasharray="none" height="102" stroke="black"/>
<rect x="280" y="328" clip-path="url(#clipPath1)" fill="rgb(0,0,139)" width="9" stroke-dasharray="none" height="102" stroke="none"/>
<rect x="280" y="328" clip-path="url(#clipPath1)" fill="none" width="9" stroke-dasharray="none" height="102" stroke="black"/>
<rect x="289" y="379" clip-path="url(#clipPath1)" fill="rgb(0,0,139)" width="9" stroke-dasharray="none" height="51" stroke="none"/>
<rect x="289" y="379" clip-path="url(#clipPath1)" fill="none" width="9" stroke-dasharray="none" height="51" stroke="black"/>
<rect x="298" y="277" clip-path="url(#clipPath1)" fill="rgb(0,0,139)" width="9" stroke-dasharray="none" height="153" stroke="none"/>
<rect x="298" y="277" clip-path="url(#clipPath1)" fill="none" width="9" stroke-dasharray="none" height="153" stroke="black"/>
<rect x="307" y="226" clip-path="url(#clipPath1)" fill="rgb(0,0,139)" width="8" stroke-dasharray="none" height="204" stroke="none"/>
<rect x="307" y="226" clip-path="url(#clipPath1)" fill="none" width="8" stroke-dasharray="none" height="204" stroke="black"/>
<rect x="315" y="124" clip-path="url(#clipPath1)" fill="rgb(0,0,139)" width="9" stroke-dasharray="none" height="306" stroke="none"/>
<rect x="315" y="124" clip-path="url(#clipPath1)" fill="none" width="9" stroke-dasharray="none" height="306" stroke="black"/>
<rect x="324" y="328" clip-path="url(#clipPath1)" fill="rgb(0,0,139)" width="9" stroke-dasharray="none" height="102" stroke="none"/>
<rect x="324" y="328" clip-path="url(#clipPath1)" fill="none" width="9" stroke-dasharray="none" height="102" stroke="black"/>
<line clip-path="url(#clipPath1)" fill="none" x1="333" x2="342" y1="430" y2="430" stroke-dasharray="none" stroke="black"/>
<rect x="342" y="379" clip-path="url(#clipPath1)" fill="rgb(0,0,139)" width="9" stroke-dasharray="none" height="51" stroke="none"/>
<rect x="342" y="379" clip-path="url(#clipPath1)" fill="none" width="9" stroke-dasharray="none" height="51" stroke="black"/>
<rect x="351" y="379" clip-path="url(#clipPath1)" fill="rgb(0,0,139)" width="9" stroke-dasharray="none" height="51" stroke="none"/>
<rect x="351" y="379" clip-path="url(#clipPath1)" fill="none" width="9" stroke-dasharray="none" height="51" stroke="black"/>
<rect x="360" y="328" clip-path="url(#clipPath1)" fill="rgb(0,0,139)" width="8" stroke-dasharray="none" height="102" stroke="none"/>
<rect x="360" y="328" clip-path="url(#clipPath1)" fill="none" width="8" stroke-dasharray="none" height="102" stroke="black"/>
<rect x="368" y="277" clip-path="url(#clipPath1)" fill="rgb(0,0,139)" width="9" stroke-dasharray="none" height="153" stroke="none"/>
<rect x="368" y="277" clip-path="url(#clipPath1)" fill="none" width="9" stroke-dasharray="none" height="153" stroke="black"/>
<rect x="377" y="379" clip-path="url(#clipPath1)" fill="rgb(0,0,139)" width="9" stroke-dasharray="none" height="51" stroke="none"/>
<rect x="377" y="379" clip-path="url(#clipPath1)" fill="none" width="9" stroke-dasharray="none" height="51" stroke="black"/>
<rect x="386" y="379" clip-path="url(#clipPath1)" fill="rgb(0,0,139)" width="9" stroke-dasharray="none" height="51" stroke="none"/>
<rect x="386" y="379" clip-path="url(#clipPath1)" fill="none" width="9" stroke-dasharray="none" height="51" stroke="black"/>
<rect x="395" y="175" clip-path="url(#clipPath1)" fill="rgb(0,0,139)" width="9" stroke-dasharray="none" height="255" stroke="none"/>
<rect x="395" y="175" clip-path="url(#clipPath1)" fill="none" width="9" stroke-dasharray="none" height="255" stroke="black"/>
<rect x="404" y="379" clip-path="url(#clipPath1)" fill="rgb(0,0,139)" width="8" stroke-dasharray="none" height="51" stroke="none"/>
<rect x="404" y="379" clip-path="url(#clipPath1)" fill="none" width="8" stroke-dasharray="none" height="51" stroke="black"/>
<rect x="412" y="175" clip-path="url(#clipPath1)" fill="rgb(0,0,139)" width="9" stroke-dasharray="none" height="255" stroke="none"/>
<rect x="412" y="175" clip-path="url(#clipPath1)" fill="none" width="9" stroke-dasharray="none" height="255" stroke="black"/>
<line clip-path="url(#clipPath1)" fill="none" x1="421" x2="430" y1="430" y2="430" stroke-dasharray="none" stroke="black"/>
<rect x="430" y="226" clip-path="url(#clipPath1)" fill="rgb(0,0,139)" width="9" stroke-dasharray="none" height="204" stroke="none"/>
<rect x="430" y="226" clip-path="url(#clipPath1)" fill="none" width="9" stroke-dasharray="none" height="204" stroke="black"/>
<line clip-path="url(#clipPath1)" fill="none" x1="439" x2="448" y1="430" y2="430" stroke-dasharray="none" stroke="black"/>
<rect x="448" y="328" clip-path="url(#clipPath1)" fill="rgb(0,0,139)" width="9" stroke-dasharray="none" height="102" stroke="none"/>
<rect x="448" y="328" clip-path="url(#clipPath1)" fill="none" width="9" stroke-dasharray="none" height="102" stroke="black"/>
<rect x="457" y="277" clip-path="url(#clipPath1)" fill="rgb(0,0,139)" width="8" stroke-dasharray="none" height="153" stroke="none"/>
<rect x="457" y="277" clip-path="url(#clipPath1)" fill="none" width="8" stroke-dasharray="none" height="153" stroke="black"/>
<rect x="465" y="277" clip-path="url(#clipPath1)" fill="rgb(0,0,139)" width="9" stroke-dasharray="none" height="153" stroke="none"/>
<rect x="465" y="277" clip-path="url(#clipPath1)" fill="none" width="9" stroke-dasharray="none" height="153" stroke="black"/>
<rect x="474" y="379" clip-path="url(#clipPath1)" fill="rgb(0,0,139)" width="9" stroke-dasharray="none" height="51" stroke="none"/>
<rect x="474" y="379" clip-path="url(#clipPath1)" fill="none" width="9" stroke-dasharray="none" height="51" stroke="black"/>
<rect x="483" y="379" clip-path="url(#clipPath1)" fill="rgb(0,0,139)" width="9" stroke-dasharray="none" height="51" stroke="none"/>
<rect x="483" y="379" clip-path="url(#clipPath1)" fill="none" width="9" stroke-dasharray="none" height="51" stroke="black"/>
<rect x="492" y="328" clip-path="url(#clipPath1)" fill="rgb(0,0,139)" width="9" stroke-dasharray="none" height="102" stroke="none"/>
<rect x="492" y="328" clip-path="url(#clipPath1)" fill="none" width="9" stroke-dasharray="none" height="102" stroke="black"/>
<line clip-path="url(#clipPath1)" fill="none" x1="501" x2="510" y1="430" y2="430" stroke-dasharray="none" stroke="black"/>
<line clip-path="url(#clipPath1)" fill="none" x1="510" x2="518" y1="430" y2="430" stroke-dasharray="none" stroke="black"/>
<line clip-path="url(#clipPath1)" fill="none" x1="518" x2="527" y1="430" y2="430" stroke-dasharray="none" stroke="black"/>
<line clip-path="url(#clipPath1)" fill="none" x1="527" x2="536" y1="430" y2="430" stroke-dasharray="none" stroke="black"/>
<line clip-path="url(#clipPath1)" fill="none" x1="536" x2="545" y1="430" y2="430" stroke-dasharray="none" stroke="black"/>
<line clip-path="url(#clipPath1)" fill="none" x1="545" x2="554" y1="430" y2="430" stroke-dasharray="none" stroke="black"/>
<line clip-path="url(#clipPath1)" fill="none" x1="554" x2="563" y1="430" y2="430" stroke-dasharray="none" stroke="black"/>
<line clip-path="url(#clipPath1)" fill="none" x1="563" x2="571" y1="430" y2="430" stroke-dasharray="none" stroke="black"/>
<line clip-path="url(#clipPath1)" fill="none" x1="571" x2="580" y1="430" y2="430" stroke-dasharray="none" stroke="black"/>
<line clip-path="url(#clipPath1)" fill="none" x1="580" x2="589" y1="430" y2="430" stroke-dasharray="none" stroke="black"/>
<line clip-path="url(#clipPath1)" fill="none" x1="589" x2="598" y1="430" y2="430" stroke-dasharray="none" stroke="black"/>
<line clip-path="url(#clipPath1)" fill="none" x1="598" x2="607" y1="430" y2="430" stroke-dasharray="none" stroke="black"/>
<line clip-path="url(#clipPath1)" fill="none" x1="607" x2="615" y1="430" y2="430" stroke-dasharray="none" stroke="black"/>
<line clip-path="url(#clipPath1)" fill="none" x1="615" x2="624" y1="430" y2="430" stroke-dasharray="none" stroke="black"/>
<line clip-path="url(#clipPath1)" fill="none" x1="624" x2="633" y1="430" y2="430" stroke-dasharray="none" stroke="black"/>
<line clip-path="url(#clipPath1)" fill="none" x1="633" x2="642" y1="430" y2="430" stroke-dasharray="none" stroke="black"/>
<line clip-path="url(#clipPath1)" fill="none" x1="642" x2="651" y1="430" y2="430" stroke-dasharray="none" stroke="black"/>
<line clip-path="url(#clipPath1)" fill="none" x1="651" x2="660" y1="430" y2="430" stroke-dasharray="none" stroke="black"/>
<line clip-path="url(#clipPath1)" fill="none" x1="660" x2="668" y1="430" y2="430" stroke-dasharray="none" stroke="black"/>
<line clip-path="url(#clipPath1)" fill="none" x1="668" x2="677" y1="430" y2="430" stroke-dasharray="none" stroke="black"/>
<line clip-path="url(#clipPath1)" fill="none" x1="677" x2="686" y1="430" y2="430" stroke-dasharray="none" stroke="black"/>
<line clip-path="url(#clipPath1)" fill="none" x1="686" x2="695" y1="430" y2="430" stroke-dasharray="none" stroke="black"/>
<line clip-path="url(#clipPath1)" fill="none" x1="695" x2="704" y1="430" y2="430" stroke-dasharray="none" stroke="black"/>
<line clip-path="url(#clipPath1)" fill="none" x1="704" x2="713" y1="430" y2="430" stroke-dasharray="none" stroke="black"/>
<line clip-path="url(#clipPath1)" fill="none" x1="713" x2="721" y1="430" y2="430" stroke-dasharray="none" stroke="black"/>
<line clip-path="url(#clipPath1)" fill="none" x1="721" x2="730" y1="430" y2="430" stroke-dasharray="none" stroke="black"/>
<line clip-path="url(#clipPath1)" fill="none" x1="730" x2="739" y1="430" y2="430" stroke-dasharray="none" stroke="black"/>
<line clip-path="url(#clipPath1)" fill="none" x1="739" x2="748" y1="430" y2="430" stroke-dasharray="none" stroke="black"/>
<line clip-path="url(#clipPath1)" fill="none" x1="748" x2="757" y1="430" y2="430" stroke-dasharray="none" stroke="black"/>
<line clip-path="url(#clipPath1)" fill="none" x1="757" x2="766" y1="430" y2="430" stroke-dasharray="none" stroke="black"/>
<line clip-path="url(#clipPath1)" fill="none" x1="766" x2="774" y1="430" y2="430" stroke-dasharray="none" stroke="black"/>
<line clip-path="url(#clipPath1)" fill="none" x1="774" x2="783" y1="430" y2="430" stroke-dasharray="none" stroke="black"/>
<line clip-path="url(#clipPath1)" fill="none" x1="783" x2="792" y1="430" y2="430" stroke-dasharray="none" stroke="black"/>
<line clip-path="url(#clipPath1)" fill="none" x1="792" x2="801" y1="430" y2="430" stroke-dasharray="none" stroke="black"/>
<line clip-path="url(#clipPath1)" fill="none" x1="801" x2="810" y1="430" y2="430" stroke-dasharray="none" stroke="black"/>
<line clip-path="url(#clipPath1)" fill="none" x1="810" x2="818" y1="430" y2="430" stroke-dasharray="none" stroke="black"/>
<line clip-path="url(#clipPath1)" fill="none" x1="818" x2="827" y1="430" y2="430" stroke-dasharray="none" stroke="black"/>
<line clip-path="url(#clipPath1)" fill="none" x1="827" x2="836" y1="430" y2="430" stroke-dasharray="none" stroke="black"/>
<line clip-path="url(#clipPath1)" fill="none" x1="836" x2="845" y1="430" y2="430" stroke-dasharray="none" stroke="black"/>
<line clip-path="url(#clipPath1)" fill="none" x1="845" x2="854" y1="430" y2="430" stroke-dasharray="none" stroke="black"/>
<line clip-path="url(#clipPath1)" fill="none" x1="854" x2="863" y1="430" y2="430" stroke-dasharray="none" stroke="black"/>
<line clip-path="url(#clipPath1)" fill="none" x1="863" x2="871" y1="430" y2="430" stroke-dasharray="none" stroke="black"/>
<line clip-path="url(#clipPath1)" fill="none" x1="871" x2="880" y1="430" y2="430" stroke-dasharray="none" stroke="black"/>
<line clip-path="url(#clipPath1)" fill="none" x1="880" x2="889" y1="430" y2="430" stroke-dasharray="none" stroke="black"/>
<line clip-path="url(#clipPath1)" fill="none" x1="889" x2="898" y1="430" y2="430" stroke-dasharray="none" stroke="black"/>
<line clip-path="url(#clipPath1)" fill="none" x1="898" x2="907" y1="430" y2="430" stroke-dasharray="none" stroke="black"/>
<rect x="28" y="23" clip-path="url(#clipPath2)" fill="none" width="658" stroke-dasharray="none" height="407" stroke="black"/>
</g>
<g text-rendering="geometricPrecision" font-size="13" stroke-linecap="butt">
<line clip-path="url(#clipPath2)" fill="none" x1="28" x2="686" y1="21" y2="21"/>
<line clip-path="url(#clipPath2)" fill="none" x1="28" x2="686" y1="432" y2="432"/>
<line clip-path="url(#clipPath2)" fill="none" x1="64" x2="64" y1="19" y2="21"/>
<line clip-path="url(#clipPath2)" fill="none" x1="64" x2="64" y1="434" y2="432"/>
<line clip-path="url(#clipPath2)" fill="none" x1="108" x2="108" y1="17" y2="21"/>
<line clip-path="url(#clipPath2)" fill="none" x1="108" x2="108" y1="436" y2="432"/>
<text x="88" font-size="11" y="14" clip-path="url(#clipPath2)" stroke="none" xml:space="preserve">0.00022</text>
<text x="88" font-size="11" y="448" clip-path="url(#clipPath2)" stroke="none" xml:space="preserve">0.00022</text>
<line clip-path="url(#clipPath2)" fill="none" x1="152" x2="152" y1="19" y2="21"/>
<line clip-path="url(#clipPath2)" fill="none" x1="152" x2="152" y1="434" y2="432"/>
<line clip-path="url(#clipPath2)" fill="none" x1="196" x2="196" y1="17" y2="21"/>
<line clip-path="url(#clipPath2)" fill="none" x1="196" x2="196" y1="436" y2="432"/>
<text x="176" font-size="11" y="14" clip-path="url(#clipPath2)" stroke="none" xml:space="preserve">0.00024</text>
<text x="176" font-size="11" y="448" clip-path="url(#clipPath2)" stroke="none" xml:space="preserve">0.00024</text>
<line clip-path="url(#clipPath2)" fill="none" x1="240" x2="240" y1="19" y2="21"/>
<line clip-path="url(#clipPath2)" fill="none" x1="240" x2="240" y1="434" y2="432"/>
<line clip-path="url(#clipPath2)" fill="none" x1="284" x2="284" y1="17" y2="21"/>
<line clip-path="url(#clipPath2)" fill="none" x1="284" x2="284" y1="436" y2="432"/>
<text x="264" font-size="11" y="14" clip-path="url(#clipPath2)" stroke="none" xml:space="preserve">0.00026</text>
<text x="264" font-size="11" y="448" clip-path="url(#clipPath2)" stroke="none" xml:space="preserve">0.00026</text>
<line clip-path="url(#clipPath2)" fill="none" x1="328" x2="328" y1="19" y2="21"/>
<line clip-path="url(#clipPath2)" fill="none" x1="328" x2="328" y1="434" y2="432"/>
<line clip-path="url(#clipPath2)" fill="none" x1="372" x2="372" y1="17" y2="21"/>
<line clip-path="url(#clipPath2)" fill="none" x1="372" x2="372" y1="436" y2="432"/>
<text x="352" font-size="11" y="14" clip-path="url(#clipPath2)" stroke="none" xml:space="preserve">0.00028</text>
<text x="352" font-size="11" y="448" clip-path="url(#clipPath2)" stroke="none" xml:space="preserve">0.00028</text>
<line clip-path="url(#clipPath2)" fill="none" x1="416" x2="416" y1="19" y2="21"/>
<line clip-path="url(#clipPath2)" fill="none" x1="416" x2="416" y1="434" y2="432"/>
<line clip-path="url(#clipPath2)" fill="none" x1="460" x2="460" y1="17" y2="21"/>
<line clip-path="url(#clipPath2)" fill="none" x1="460" x2="460" y1="436" y2="432"/>
<text x="440" font-size="11" y="14" clip-path="url(#clipPath2)" stroke="none" xml:space="preserve">0.00030</text>
<text x="440" font-size="11" y="448" clip-path="url(#clipPath2)" stroke="none" xml:space="preserve">0.00030</text>
<line clip-path="url(#clipPath2)" fill="none" x1="504" x2="504" y1="19" y2="21"/>
<line clip-path="url(#clipPath2)" fill="none" x1="504" x2="504" y1="434" y2="432"/>
<line clip-path="url(#clipPath2)" fill="none" x1="548" x2="548" y1="17" y2="21"/>
<line clip-path="url(#clipPath2)" fill="none" x1="548" x2="548" y1="436" y2="432"/>
<text x="528" font-size="11" y="14" clip-path="url(#clipPath2)" stroke="none" xml:space="preserve">0.00032</text>
<text x="528" font-size="11" y="448" clip-path="url(#clipPath2)" stroke="none" xml:space="preserve">0.00032</text>
<line clip-path="url(#clipPath2)" fill="none" x1="592" x2="592" y1="19" y2="21"/>
<line clip-path="url(#clipPath2)" fill="none" x1="592" x2="592" y1="434" y2="432"/>
<line clip-path="url(#clipPath2)" fill="none" x1="636" x2="636" y1="17" y2="21"/>
<line clip-path="url(#clipPath2)" fill="none" x1="636" x2="636" y1="436" y2="432"/>
<text x="616" font-size="11" y="14" clip-path="url(#clipPath2)" stroke="none" xml:space="preserve">0.00034</text>
<text x="616" font-size="11" y="448" clip-path="url(#clipPath2)" stroke="none" xml:space="preserve">0.00034</text>
<line clip-path="url(#clipPath2)" fill="none" x1="680" x2="680" y1="19" y2="21"/>
<line clip-path="url(#clipPath2)" fill="none" x1="680" x2="680" y1="434" y2="432"/>
<line clip-path="url(#clipPath2)" fill="none" x1="26" x2="26" y1="23" y2="430"/>
<line clip-path="url(#clipPath2)" fill="none" x1="688" x2="688" y1="23" y2="430"/>
<line clip-path="url(#clipPath2)" fill="none" x1="22" x2="26" y1="430" y2="430"/>
<line clip-path="url(#clipPath2)" fill="none" x1="692" x2="688" y1="430" y2="430"/>
<text x="15" font-size="11" y="435" clip-path="url(#clipPath2)" stroke="none" xml:space="preserve">0</text>
<text x="695" font-size="11" y="435" clip-path="url(#clipPath2)" stroke="none" xml:space="preserve">0</text>
<line clip-path="url(#clipPath2)" fill="none" x1="24" x2="26" y1="419" y2="419"/>
<line clip-path="url(#clipPath2)" fill="none" x1="690" x2="688" y1="419" y2="419"/>
<line clip-path="url(#clipPath2)" fill="none" x1="24" x2="26" y1="409" y2="409"/>
<line clip-path="url(#clipPath2)" fill="none" x1="690" x2="688" y1="409" y2="409"/>
<line clip-path="url(#clipPath2)" fill="none" x1="24" x2="26" y1="399" y2="399"/>
<line clip-path="url(#clipPath2)" fill="none" x1="690" x2="688" y1="399" y2="399"/>
<line clip-path="url(#clipPath2)" fill="none" x1="24" x2="26" y1="389" y2="389"/>
<line clip-path="url(#clipPath2)" fill="none" x1="690" x2="688" y1="389" y2="389"/>
<line clip-path="url(#clipPath2)" fill="none" x1="22" x2="26" y1="379" y2="379"/>
<line clip-path="url(#clipPath2)" fill="none" x1="692" x2="688" y1="379" y2="379"/>
<text x="3" font-size="11" y="384" clip-path="url(#clipPath2)" stroke="none" xml:space="preserve">1.0</text>
<text x="695" font-size="11" y="384" clip-path="url(#clipPath2)" stroke="none" xml:space="preserve">1.0</text>
<line clip-path="url(#clipPath2)" fill="none" x1="24" x2="26" y1="368" y2="368"/>
<line clip-path="url(#clipPath2)" fill="none" x1="690" x2="688" y1="368" y2="368"/>
<line clip-path="url(#clipPath2)" fill="none" x1="24" x2="26" y1="358" y2="358"/>
<line clip-path="url(#clipPath2)" fill="none" x1="690" x2="688" y1="358" y2="358"/>
<line clip-path="url(#clipPath2)" fill="none" x1="24" x2="26" y1="348" y2="348"/>
<line clip-path="url(#clipPath2)" fill="none" x1="690" x2="688" y1="348" y2="348"/>
<line clip-path="url(#clipPath2)" fill="none" x1="24" x2="26" y1="338" y2="338"/>
<line clip-path="url(#clipPath2)" fill="none" x1="690" x2="688" y1="338" y2="338"/>
<line clip-path="url(#clipPath2)" fill="none" x1="22" x2="26" y1="328" y2="328"/>
<line clip-path="url(#clipPath2)" fill="none" x1="692" x2="688" y1="328" y2="328"/>
<text x="3" font-size="11" y="333" clip-path="url(#clipPath2)" stroke="none" xml:space="preserve">2.0</text>
<text x="695" font-size="11" y="333" clip-path="url(#clipPath2)" stroke="none" xml:space="preserve">2.0</text>
<line clip-path="url(#clipPath2)" fill="none" x1="24" x2="26" y1="318" y2="318"/>
<line clip-path="url(#clipPath2)" fill="none" x1="690" x2="688" y1="318" y2="318"/>
<line clip-path="url(#clipPath2)" fill="none" x1="24" x2="26" y1="307" y2="307"/>
<line clip-path="url(#clipPath2)" fill="none" x1="690" x2="688" y1="307" y2="307"/>
<line clip-path="url(#clipPath2)" fill="none" x1="24" x2="26" y1="297" y2="297"/>
<line clip-path="url(#clipPath2)" fill="none" x1="690" x2="688" y1="297" y2="297"/>
<line clip-path="url(#clipPath2)" fill="none" x1="24" x2="26" y1="287" y2="287"/>
<line clip-path="url(#clipPath2)" fill="none" x1="690" x2="688" y1="287" y2="287"/>
<line clip-path="url(#clipPath2)" fill="none" x1="22" x2="26" y1="277" y2="277"/>
<line clip-path="url(#clipPath2)" fill="none" x1="692" x2="688" y1="277" y2="277"/>
<text x="3" font-size="11" y="282" clip-path="url(#clipPath2)" stroke="none" xml:space="preserve">3.0</text>
<text x="695" font-size="11" y="282" clip-path="url(#clipPath2)" stroke="none" xml:space="preserve">3.0</text>
<line clip-path="url(#clipPath2)" fill="none" x1="24" x2="26" y1="267" y2="267"/>
<line clip-path="url(#clipPath2)" fill="none" x1="690" x2="688" y1="267" y2="267"/>
<line clip-path="url(#clipPath2)" fill="none" x1="24" x2="26" y1="257" y2="257"/>
<line clip-path="url(#clipPath2)" fill="none" x1="690" x2="688" y1="257" y2="257"/>
<line clip-path="url(#clipPath2)" fill="none" x1="24" x2="26" y1="246" y2="246"/>
<line clip-path="url(#clipPath2)" fill="none" x1="690" x2="688" y1="246" y2="246"/>
<line clip-path="url(#clipPath2)" fill="none" x1="24" x2="26" y1="236" y2="236"/>
<line clip-path="url(#clipPath2)" fill="none" x1="690" x2="688" y1="236" y2="236"/>
<line clip-path="url(#clipPath2)" fill="none" x1="22" x2="26" y1="226" y2="226"/>
<line clip-path="url(#clipPath2)" fill="none" x1="692" x2="688" y1="226" y2="226"/>
<text x="3" font-size="11" y="231" clip-path="url(#clipPath2)" stroke="none" xml:space="preserve">4.0</text>
<text x="695" font-size="11" y="231" clip-path="url(#clipPath2)" stroke="none" xml:space="preserve">4.0</text>
<line clip-path="url(#clipPath2)" fill="none" x1="24" x2="26" y1="216" y2="216"/>
<line clip-path="url(#clipPath2)" fill="none" x1="690" x2="688" y1="216" y2="216"/>
<line clip-path="url(#clipPath2)" fill="none" x1="24" x2="26" y1="206" y2="206"/>
<line clip-path="url(#clipPath2)" fill="none" x1="690" x2="688" y1="206" y2="206"/>
<line clip-path="url(#clipPath2)" fill="none" x1="24" x2="26" y1="195" y2="195"/>
<line clip-path="url(#clipPath2)" fill="none" x1="690" x2="688" y1="195" y2="195"/>
<line clip-path="url(#clipPath2)" fill="none" x1="24" x2="26" y1="185" y2="185"/>
<line clip-path="url(#clipPath2)" fill="none" x1="690" x2="688" y1="185" y2="185"/>
<line clip-path="url(#clipPath2)" fill="none" x1="22" x2="26" y1="175" y2="175"/>
<line clip-path="url(#clipPath2)" fill="none" x1="692" x2="688" y1="175" y2="175"/>
<text x="3" font-size="11" y="180" clip-path="url(#clipPath2)" stroke="none" xml:space="preserve">5.0</text>
<text x="695" font-size="11" y="180" clip-path="url(#clipPath2)" stroke="none" xml:space="preserve">5.0</text>
<line clip-path="url(#clipPath2)" fill="none" x1="24" x2="26" y1="165" y2="165"/>
<line clip-path="url(#clipPath2)" fill="none" x1="690" x2="688" y1="165" y2="165"/>
<line clip-path="url(#clipPath2)" fill="none" x1="24" x2="26" y1="155" y2="155"/>
<line clip-path="url(#clipPath2)" fill="none" x1="690" x2="688" y1="155" y2="155"/>
<line clip-path="url(#clipPath2)" fill="none" x1="24" x2="26" y1="145" y2="145"/>
<line clip-path="url(#clipPath2)" fill="none" x1="690" x2="688" y1="145" y2="145"/>
<line clip-path="url(#clipPath2)" fill="none" x1="24" x2="26" y1="134" y2="134"/>
<line clip-path="url(#clipPath2)" fill="none" x1="690" x2="688" y1="134" y2="134"/>
<line clip-path="url(#clipPath2)" fill="none" x1="22" x2="26" y1="124" y2="124"/>
<line clip-path="url(#clipPath2)" fill="none" x1="692" x2="688" y1="124" y2="124"/>
<text x="3" font-size="11" y="129" clip-path="url(#clipPath2)" stroke="none" xml:space="preserve">6.0</text>
<text x="695" font-size="11" y="129" clip-path="url(#clipPath2)" stroke="none" xml:space="preserve">6.0</text>
<line clip-path="url(#clipPath2)" fill="none" x1="24" x2="26" y1="114" y2="114"/>
<line clip-path="url(#clipPath2)" fill="none" x1="690" x2="688" y1="114" y2="114"/>
<line clip-path="url(#clipPath2)" fill="none" x1="24" x2="26" y1="104" y2="104"/>
<line clip-path="url(#clipPath2)" fill="none" x1="690" x2="688" y1="104" y2="104"/>
<line clip-path="url(#clipPath2)" fill="none" x1="24" x2="26" y1="94" y2="94"/>
<line clip-path="url(#clipPath2)" fill="none" x1="690" x2="688" y1="94" y2="94"/>
<line clip-path="url(#clipPath2)" fill="none" x1="24" x2="26" y1="84" y2="84"/>
<line clip-path="url(#clipPath2)" fill="none" x1="690" x2="688" y1="84" y2="84"/>
<line clip-path="url(#clipPath2)" fill="none" x1="22" x2="26" y1="73" y2="73"/>
<line clip-path="url(#clipPath2)" fill="none" x1="692" x2="688" y1="73" y2="73"/>
<text x="3" font-size="11" y="78" clip-path="url(#clipPath2)" stroke="none" xml:space="preserve">7.0</text>
<text x="695" font-size="11" y="78" clip-path="url(#clipPath2)" stroke="none" xml:space="preserve">7.0</text>
<line clip-path="url(#clipPath2)" fill="none" x1="24" x2="26" y1="63" y2="63"/>
<line clip-path="url(#clipPath2)" fill="none" x1="690" x2="688" y1="63" y2="63"/>
<line clip-path="url(#clipPath2)" fill="none" x1="24" x2="26" y1="53" y2="53"/>
<line clip-path="url(#clipPath2)" fill="none" x1="690" x2="688" y1="53" y2="53"/>
<line clip-path="url(#clipPath2)" fill="none" x1="24" x2="26" y1="43" y2="43"/>
<line clip-path="url(#clipPath2)" fill="none" x1="690" x2="688" y1="43" y2="43"/>
<line clip-path="url(#clipPath2)" fill="none" x1="24" x2="26" y1="33" y2="33"/>
<line clip-path="url(#clipPath2)" fill="none" x1="690" x2="688" y1="33" y2="33"/>
</g>
</g>
</svg>
