<?xml version="1.0" encoding="UTF-8"?><svg xmlns="http://www.w3.org/2000/svg" xmlns:xlink="http://www.w3.org/1999/xlink" stroke-dasharray="none" shape-rendering="auto" font-family="'Dialog'" width="701" text-rendering="auto" fill-opacity="1" contentScriptType="text/ecmascript" color-interpolation="auto" color-rendering="auto" preserveAspectRatio="xMidYMid meet" font-size="12" fill="black" stroke="black" image-rendering="auto" stroke-miterlimit="10" zoomAndPan="magnify" version="1.0" stroke-linecap="square" stroke-linejoin="miter" contentStyleType="text/css" font-style="normal" height="489" stroke-width="1" stroke-dashoffset="0" font-weight="normal" stroke-opacity="1">
<!--Generated by the Batik Graphics2D SVG Generator-->
<defs id="genericDefs"/>
<g>
<defs id="defs1">
<clipPath clipPathUnits="userSpaceOnUse" id="clipPath1">
<path d="M48 22 L653 22 L653 467 L48 467 L48 22 Z"/>
</clipPath>
<clipPath clipPathUnits="userSpaceOnUse" id="clipPath2">
<path d="M-1 -1 L702 -1 L702 490 L-1 490 L-1 -1 Z"/>
</clipPath>
</defs>
<g font-size="15" fill="white" text-rendering="geometricPrecision" font-family="'Cantarell'" stroke-linejoin="round" stroke="white" stroke-width="0" stroke-miterlimit="0">
<rect x="49" y="23" clip-path="url(#clipPath1)" width="603" height="443" stroke="none"/>
</g>
<g stroke-linecap="butt" font-size="15" fill="rgb(204,204,204)" text-rendering="geometricPrecision" font-family="'Cantarell'" stroke-dasharray="3,3" stroke="rgb(204,204,204)">
<line clip-path="url(#clipPath1)" fill="none" x1="49" x2="652" y1="466" y2="466"/>
<line clip-path="url(#clipPath1)" fill="none" x1="49" x2="652" y1="373" y2="373"/>
<line clip-path="url(#clipPath1)" fill="none" x1="49" x2="652" y1="280" y2="280"/>
<line clip-path="url(#clipPath1)" fill="none" x1="49" x2="652" y1="187" y2="187"/>
<line clip-path="url(#clipPath1)" fill="none" x1="49" x2="652" y1="93" y2="93"/>
<line clip-path="url(#clipPath1)" fill="none" x1="-165" x2="-159" y1="466" y2="466" stroke-dasharray="none" stroke="black"/>
<line clip-path="url(#clipPath1)" fill="none" x1="-159" x2="-154" y1="466" y2="466" stroke-dasharray="none" stroke="black"/>
<line clip-path="url(#clipPath1)" fill="none" x1="-154" x2="-149" y1="466" y2="466" stroke-dasharray="none" stroke="black"/>
<line clip-path="url(#clipPath1)" fill="none" x1="-149" x2="-144" y1="466" y2="466" stroke-dasharray="none" stroke="black"/>
<line clip-path="url(#clipPath1)" fill="none" x1="-144" x2="-138" y1="466" y2="466" stroke-dasharray="none" stroke="black"/>
<line clip-path="url(#clipPath1)" fill="none" x1="-138" x2="-133" y1="466" y2="466" stroke-dasharray="none" stroke="black"/>
<line clip-path="url(#clipPath1)" fill="none" x1="-133" x2="-128" y1="466" y2="466" stroke-dasharray="none" stroke="black"/>
<line clip-path="url(#clipPath1)" fill="none" x1="-128" x2="-123" y1="466" y2="466" stroke-dasharray="none" stroke="black"/>
<line clip-path="url(#clipPath1)" fill="none" x1="-123" x2="-118" y1="466" y2="466" stroke-dasharray="none" stroke="black"/>
<line clip-path="url(#clipPath1)" fill="none" x1="-118" x2="-112" y1="466" y2="466" stroke-dasharray="none" stroke="black"/>
<line clip-path="url(#clipPath1)" fill="none" x1="-112" x2="-107" y1="466" y2="466" stroke-dasharray="none" stroke="black"/>
<line clip-path="url(#clipPath1)" fill="none" x1="-107" x2="-102" y1="466" y2="466" stroke-dasharray="none" stroke="black"/>
<line clip-path="url(#clipPath1)" fill="none" x1="-102" x2="-97" y1="466" y2="466" stroke-dasharray="none" stroke="black"/>
<line clip-path="url(#clipPath1)" fill="none" x1="-97" x2="-91" y1="466" y2="466" stroke-dasharray="none" stroke="black"/>
<line clip-path="url(#clipPath1)" fill="none" x1="-91" x2="-86" y1="466" y2="466" stroke-dasharray="none" stroke="black"/>
<line clip-path="url(#clipPath1)" fill="none" x1="-86" x2="-81" y1="466" y2="466" stroke-dasharray="none" stroke="black"/>
<line clip-path="url(#clipPath1)" fill="none" x1="-81" x2="-76" y1="466" y2="466" stroke-dasharray="none" stroke="black"/>
<line clip-path="url(#clipPath1)" fill="none" x1="-76" x2="-71" y1="466" y2="466" stroke-dasharray="none" stroke="black"/>
<line clip-path="url(#clipPath1)" fill="none" x1="-71" x2="-65" y1="466" y2="466" stroke-dasharray="none" stroke="black"/>
<line clip-path="url(#clipPath1)" fill="none" x1="-65" x2="-60" y1="466" y2="466" stroke-dasharray="none" stroke="black"/>
<line clip-path="url(#clipPath1)" fill="none" x1="-60" x2="-55" y1="466" y2="466" stroke-dasharray="none" stroke="black"/>
<line clip-path="url(#clipPath1)" fill="none" x1="-55" x2="-50" y1="466" y2="466" stroke-dasharray="none" stroke="black"/>
<line clip-path="url(#clipPath1)" fill="none" x1="-50" x2="-44" y1="466" y2="466" stroke-dasharray="none" stroke="black"/>
<line clip-path="url(#clipPath1)" fill="none" x1="-44" x2="-39" y1="466" y2="466" stroke-dasharray="none" stroke="black"/>
<line clip-path="url(#clipPath1)" fill="none" x1="-39" x2="-34" y1="466" y2="466" stroke-dasharray="none" stroke="black"/>
<line clip-path="url(#clipPath1)" fill="none" x1="-34" x2="-29" y1="466" y2="466" stroke-dasharray="none" stroke="black"/>
<line clip-path="url(#clipPath1)" fill="none" x1="-29" x2="-24" y1="466" y2="466" stroke-dasharray="none" stroke="black"/>
<line clip-path="url(#clipPath1)" fill="none" x1="-24" x2="-18" y1="466" y2="466" stroke-dasharray="none" stroke="black"/>
<line clip-path="url(#clipPath1)" fill="none" x1="-18" x2="-13" y1="466" y2="466" stroke-dasharray="none" stroke="black"/>
<line clip-path="url(#clipPath1)" fill="none" x1="-13" x2="-8" y1="466" y2="466" stroke-dasharray="none" stroke="black"/>
<line clip-path="url(#clipPath1)" fill="none" x1="-8" x2="-3" y1="466" y2="466" stroke-dasharray="none" stroke="black"/>
<line clip-path="url(#clipPath1)" fill="none" x1="-3" x2="2" y1="466" y2="466" stroke-dasharray="none" stroke="black"/>
<line clip-path="url(#clipPath1)" fill="none" x1="2" x2="7" y1="466" y2="466" stroke-dasharray="none" stroke="black"/>
<line clip-path="url(#clipPath1)" fill="none" x1="7" x2="12" y1="466" y2="466" stroke-dasharray="none" stroke="black"/>
<line clip-path="url(#clipPath1)" fill="none" x1="12" x2="17" y1="466" y2="466" stroke-dasharray="none" stroke="black"/>
<line clip-path="url(#clipPath1)" fill="none" x1="17" x2="22" y1="466" y2="466" stroke-dasharray="none" stroke="black"/>
<line clip-path="url(#clipPath1)" fill="none" x1="22" x2="28" y1="466" y2="466" stroke-dasharray="none" stroke="black"/>
<line clip-path="url(#clipPath1)" fill="none" x1="28" x2="33" y1="466" y2="466" stroke-dasharray="none" stroke="black"/>
<line clip-path="url(#clipPath1)" fill="none" x1="33" x2="38" y1="466" y2="466" stroke-dasharray="none" stroke="black"/>
<line clip-path="url(#clipPath1)" fill="none" x1="38" x2="43" y1="466" y2="466" stroke-dasharray="none" stroke="black"/>
<line clip-path="url(#clipPath1)" fill="none" x1="43" x2="49" y1="466" y2="466" stroke-dasharray="none" stroke="black"/>
<line clip-path="url(#clipPath1)" fill="none" x1="49" x2="54" y1="466" y2="466" stroke-dasharray="none" stroke="black"/>
<line clip-path="url(#clipPath1)" fill="none" x1="54" x2="59" y1="466" y2="466" stroke-dasharray="none" stroke="black"/>
<line clip-path="url(#clipPath1)" fill="none" x1="59" x2="64" y1="466" y2="466" stroke-dasharray="none" stroke="black"/>
<line clip-path="url(#clipPath1)" fill="none" x1="64" x2="69" y1="466" y2="466" stroke-dasharray="none" stroke="black"/>
<line clip-path="url(#clipPath1)" fill="none" x1="69" x2="75" y1="466" y2="466" stroke-dasharray="none" stroke="black"/>
<line clip-path="url(#clipPath1)" fill="none" x1="75" x2="80" y1="466" y2="466" stroke-dasharray="none" stroke="black"/>
<rect x="80" y="78" clip-path="url(#clipPath1)" fill="rgb(0,0,139)" width="5" stroke-dasharray="none" height="388" stroke="none"/>
<rect x="80" y="78" clip-path="url(#clipPath1)" fill="none" width="5" stroke-dasharray="none" height="388" stroke="black"/>
<rect x="85" y="305" clip-path="url(#clipPath1)" fill="rgb(0,0,139)" width="5" stroke-dasharray="none" height="161" stroke="none"/>
<rect x="85" y="305" clip-path="url(#clipPath1)" fill="none" width="5" stroke-dasharray="none" height="161" stroke="black"/>
<rect x="90" y="373" clip-path="url(#clipPath1)" fill="rgb(0,0,139)" width="5" stroke-dasharray="none" height="93" stroke="none"/>
<rect x="90" y="373" clip-path="url(#clipPath1)" fill="none" width="5" stroke-dasharray="none" height="93" stroke="black"/>
<rect x="95" y="420" clip-path="url(#clipPath1)" fill="rgb(0,0,139)" width="6" stroke-dasharray="none" height="46" stroke="none"/>
<rect x="95" y="420" clip-path="url(#clipPath1)" fill="none" width="6" stroke-dasharray="none" height="46" stroke="black"/>
<rect x="101" y="442" clip-path="url(#clipPath1)" fill="rgb(0,0,139)" width="5" stroke-dasharray="none" height="24" stroke="none"/>
<rect x="101" y="442" clip-path="url(#clipPath1)" fill="none" width="5" stroke-dasharray="none" height="24" stroke="black"/>
<rect x="106" y="452" clip-path="url(#clipPath1)" fill="rgb(0,0,139)" width="5" stroke-dasharray="none" height="14" stroke="none"/>
<rect x="106" y="452" clip-path="url(#clipPath1)" fill="none" width="5" stroke-dasharray="none" height="14" stroke="black"/>
<rect x="111" y="457" clip-path="url(#clipPath1)" fill="rgb(0,0,139)" width="5" stroke-dasharray="none" height="9" stroke="none"/>
<rect x="111" y="457" clip-path="url(#clipPath1)" fill="none" width="5" stroke-dasharray="none" height="9" stroke="black"/>
<rect x="116" y="461" clip-path="url(#clipPath1)" fill="rgb(0,0,139)" width="6" stroke-dasharray="none" height="5" stroke="none"/>
<rect x="116" y="461" clip-path="url(#clipPath1)" fill="none" width="6" stroke-dasharray="none" height="5" stroke="black"/>
<rect x="122" y="462" clip-path="url(#clipPath1)" fill="rgb(0,0,139)" width="5" stroke-dasharray="none" height="4" stroke="none"/>
<rect x="122" y="462" clip-path="url(#clipPath1)" fill="none" width="5" stroke-dasharray="none" height="4" stroke="black"/>
<rect x="127" y="464" clip-path="url(#clipPath1)" fill="rgb(0,0,139)" width="5" stroke-dasharray="none" height="2" stroke="none"/>
<rect x="127" y="464" clip-path="url(#clipPath1)" fill="none" width="5" stroke-dasharray="none" height="2" stroke="black"/>
<rect x="132" y="465" clip-path="url(#clipPath1)" fill="rgb(0,0,139)" width="5" stroke-dasharray="none" height="1" stroke="none"/>
<rect x="132" y="465" clip-path="url(#clipPath1)" fill="none" width="5" stroke-dasharray="none" height="1" stroke="black"/>
<rect x="137" y="465" clip-path="url(#clipPath1)" fill="rgb(0,0,139)" width="5" stroke-dasharray="none" height="1" stroke="none"/>
<rect x="137" y="465" clip-path="url(#clipPath1)" fill="none" width="5" stroke-dasharray="none" height="1" stroke="black"/>
<rect x="142" y="465" clip-path="url(#clipPath1)" fill="rgb(0,0,139)" width="6" stroke-dasharray="none" height="1" stroke="none"/>
<rect x="142" y="465" clip-path="url(#clipPath1)" fill="none" width="6" stroke-dasharray="none" height="1" stroke="black"/>
<rect x="148" y="465" clip-path="url(#clipPath1)" fill="rgb(0,0,139)" width="5" stroke-dasharray="none" height="1" stroke="none"/>
<rect x="148" y="465" clip-path="url(#clipPath1)" fill="none" width="5" stroke-dasharray="none" height="1" stroke="black"/>
<rect x="153" y="465" clip-path="url(#clipPath1)" fill="rgb(0,0,139)" width="5" stroke-dasharray="none" height="1" stroke="none"/>
<rect x="153" y="465" clip-path="url(#clipPath1)" fill="none" width="5" stroke-dasharray="none" height="1" stroke="black"/>
<rect x="158" y="465" clip-path="url(#clipPath1)" fill="rgb(0,0,139)" width="5" stroke-dasharray="none" height="1" stroke="none"/>
<rect x="158" y="465" clip-path="url(#clipPath1)" fill="none" width="5" stroke-dasharray="none" height="1" stroke="black"/>
<rect x="163" y="465" clip-path="url(#clipPath1)" fill="rgb(0,0,139)" width="6" stroke-dasharray="none" height="1" stroke="none"/>
<rect x="163" y="465" clip-path="url(#clipPath1)" fill="none" width="6" stroke-dasharray="none" height="1" stroke="black"/>
<rect x="169" y="464" clip-path="url(#clipPath1)" fill="rgb(0,0,139)" width="5" stroke-dasharray="none" height="2" stroke="none"/>
<rect x="169" y="464" clip-path="url(#clipPath1)" fill="none" width="5" stroke-dasharray="none" height="2" stroke="black"/>
<rect x="174" y="465" clip-path="url(#clipPath1)" fill="rgb(0,0,139)" width="5" stroke-dasharray="none" height="1" stroke="none"/>
<rect x="174" y="465" clip-path="url(#clipPath1)" fill="none" width="5" stroke-dasharray="none" height="1" stroke="black"/>
<rect x="179" y="465" clip-path="url(#clipPath1)" fill="rgb(0,0,139)" width="5" stroke-dasharray="none" height="1" stroke="none"/>
<rect x="179" y="465" clip-path="url(#clipPath1)" fill="none" width="5" stroke-dasharray="none" height="1" stroke="black"/>
<rect x="184" y="465" clip-path="url(#clipPath1)" fill="rgb(0,0,139)" width="5" stroke-dasharray="none" height="1" stroke="none"/>
<rect x="184" y="465" clip-path="url(#clipPath1)" fill="none" width="5" stroke-dasharray="none" height="1" stroke="black"/>
<rect x="189" y="465" clip-path="url(#clipPath1)" fill="rgb(0,0,139)" width="6" stroke-dasharray="none" height="1" stroke="none"/>
<rect x="189" y="465" clip-path="url(#clipPath1)" fill="none" width="6" stroke-dasharray="none" height="1" stroke="black"/>
<rect x="195" y="465" clip-path="url(#clipPath1)" fill="rgb(0,0,139)" width="5" stroke-dasharray="none" height="1" stroke="none"/>
<rect x="195" y="465" clip-path="url(#clipPath1)" fill="none" width="5" stroke-dasharray="none" height="1" stroke="black"/>
<line clip-path="url(#clipPath1)" fill="none" x1="200" x2="205" y1="466" y2="466" stroke-dasharray="none" stroke="black"/>
<rect x="205" y="465" clip-path="url(#clipPath1)" fill="rgb(0,0,139)" width="5" stroke-dasharray="none" height="1" stroke="none"/>
<rect x="205" y="465" clip-path="url(#clipPath1)" fill="none" width="5" stroke-dasharray="none" height="1" stroke="black"/>
<rect x="210" y="465" clip-path="url(#clipPath1)" fill="rgb(0,0,139)" width="6" stroke-dasharray="none" height="1" stroke="none"/>
<rect x="210" y="465" clip-path="url(#clipPath1)" fill="none" width="6" stroke-dasharray="none" height="1" stroke="black"/>
<rect x="216" y="465" clip-path="url(#clipPath1)" fill="rgb(0,0,139)" width="5" stroke-dasharray="none" height="1" stroke="none"/>
<rect x="216" y="465" clip-path="url(#clipPath1)" fill="none" width="5" stroke-dasharray="none" height="1" stroke="black"/>
<rect x="221" y="465" clip-path="url(#clipPath1)" fill="rgb(0,0,139)" width="5" stroke-dasharray="none" height="1" stroke="none"/>
<rect x="221" y="465" clip-path="url(#clipPath1)" fill="none" width="5" stroke-dasharray="none" height="1" stroke="black"/>
<rect x="226" y="465" clip-path="url(#clipPath1)" fill="rgb(0,0,139)" width="5" stroke-dasharray="none" height="1" stroke="none"/>
<rect x="226" y="465" clip-path="url(#clipPath1)" fill="none" width="5" stroke-dasharray="none" height="1" stroke="black"/>
<rect x="231" y="465" clip-path="url(#clipPath1)" fill="rgb(0,0,139)" width="5" stroke-dasharray="none" height="1" stroke="none"/>
<rect x="231" y="465" clip-path="url(#clipPath1)" fill="none" width="5" stroke-dasharray="none" height="1" stroke="black"/>
<rect x="236" y="465" clip-path="url(#clipPath1)" fill="rgb(0,0,139)" width="6" stroke-dasharray="none" height="1" stroke="none"/>
<rect x="236" y="465" clip-path="url(#clipPath1)" fill="none" width="6" stroke-dasharray="none" height="1" stroke="black"/>
<rect x="242" y="465" clip-path="url(#clipPath1)" fill="rgb(0,0,139)" width="5" stroke-dasharray="none" height="1" stroke="none"/>
<rect x="242" y="465" clip-path="url(#clipPath1)" fill="none" width="5" stroke-dasharray="none" height="1" stroke="black"/>
<rect x="247" y="465" clip-path="url(#clipPath1)" fill="rgb(0,0,139)" width="5" stroke-dasharray="none" height="1" stroke="none"/>
<rect x="247" y="465" clip-path="url(#clipPath1)" fill="none" width="5" stroke-dasharray="none" height="1" stroke="black"/>
<rect x="252" y="465" clip-path="url(#clipPath1)" fill="rgb(0,0,139)" width="5" stroke-dasharray="none" height="1" stroke="none"/>
<rect x="252" y="465" clip-path="url(#clipPath1)" fill="none" width="5" stroke-dasharray="none" height="1" stroke="black"/>
<rect x="257" y="465" clip-path="url(#clipPath1)" fill="rgb(0,0,139)" width="6" stroke-dasharray="none" height="1" stroke="none"/>
<rect x="257" y="465" clip-path="url(#clipPath1)" fill="none" width="6" stroke-dasharray="none" height="1" stroke="black"/>
<rect x="263" y="465" clip-path="url(#clipPath1)" fill="rgb(0,0,139)" width="5" stroke-dasharray="none" height="1" stroke="none"/>
<rect x="263" y="465" clip-path="url(#clipPath1)" fill="none" width="5" stroke-dasharray="none" height="1" stroke="black"/>
<line clip-path="url(#clipPath1)" fill="none" x1="268" x2="273" y1="466" y2="466" stroke-dasharray="none" stroke="black"/>
<line clip-path="url(#clipPath1)" fill="none" x1="273" x2="278" y1="466" y2="466" stroke-dasharray="none" stroke="black"/>
<line clip-path="url(#clipPath1)" fill="none" x1="278" x2="283" y1="466" y2="466" stroke-dasharray="none" stroke="black"/>
<line clip-path="url(#clipPath1)" fill="none" x1="283" x2="289" y1="466" y2="466" stroke-dasharray="none" stroke="black"/>
<line clip-path="url(#clipPath1)" fill="none" x1="289" x2="294" y1="466" y2="466" stroke-dasharray="none" stroke="black"/>
<line clip-path="url(#clipPath1)" fill="none" x1="294" x2="299" y1="466" y2="466" stroke-dasharray="none" stroke="black"/>
<line clip-path="url(#clipPath1)" fill="none" x1="299" x2="304" y1="466" y2="466" stroke-dasharray="none" stroke="black"/>
<line clip-path="url(#clipPath1)" fill="none" x1="304" x2="309" y1="466" y2="466" stroke-dasharray="none" stroke="black"/>
<line clip-path="url(#clipPath1)" fill="none" x1="309" x2="315" y1="466" y2="466" stroke-dasharray="none" stroke="black"/>
<line clip-path="url(#clipPath1)" fill="none" x1="315" x2="320" y1="466" y2="466" stroke-dasharray="none" stroke="black"/>
<line clip-path="url(#clipPath1)" fill="none" x1="320" x2="325" y1="466" y2="466" stroke-dasharray="none" stroke="black"/>
<line clip-path="url(#clipPath1)" fill="none" x1="325" x2="330" y1="466" y2="466" stroke-dasharray="none" stroke="black"/>
<line clip-path="url(#clipPath1)" fill="none" x1="330" x2="336" y1="466" y2="466" stroke-dasharray="none" stroke="black"/>
<rect x="336" y="465" clip-path="url(#clipPath1)" fill="rgb(0,0,139)" width="5" stroke-dasharray="none" height="1" stroke="none"/>
<rect x="336" y="465" clip-path="url(#clipPath1)" fill="none" width="5" stroke-dasharray="none" height="1" stroke="black"/>
<rect x="341" y="465" clip-path="url(#clipPath1)" fill="rgb(0,0,139)" width="5" stroke-dasharray="none" height="1" stroke="none"/>
<rect x="341" y="465" clip-path="url(#clipPath1)" fill="none" width="5" stroke-dasharray="none" height="1" stroke="black"/>
<rect x="346" y="465" clip-path="url(#clipPath1)" fill="rgb(0,0,139)" width="5" stroke-dasharray="none" height="1" stroke="none"/>
<rect x="346" y="465" clip-path="url(#clipPath1)" fill="none" width="5" stroke-dasharray="none" height="1" stroke="black"/>
<rect x="351" y="465" clip-path="url(#clipPath1)" fill="rgb(0,0,139)" width="5" stroke-dasharray="none" height="1" stroke="none"/>
<rect x="351" y="465" clip-path="url(#clipPath1)" fill="none" width="5" stroke-dasharray="none" height="1" stroke="black"/>
<rect x="356" y="465" clip-path="url(#clipPath1)" fill="rgb(0,0,139)" width="6" stroke-dasharray="none" height="1" stroke="none"/>
<rect x="356" y="465" clip-path="url(#clipPath1)" fill="none" width="6" stroke-dasharray="none" height="1" stroke="black"/>
<rect x="362" y="465" clip-path="url(#clipPath1)" fill="rgb(0,0,139)" width="5" stroke-dasharray="none" height="1" stroke="none"/>
<rect x="362" y="465" clip-path="url(#clipPath1)" fill="none" width="5" stroke-dasharray="none" height="1" stroke="black"/>
<line clip-path="url(#clipPath1)" fill="none" x1="367" x2="372" y1="466" y2="466" stroke-dasharray="none" stroke="black"/>
<rect x="372" y="465" clip-path="url(#clipPath1)" fill="rgb(0,0,139)" width="5" stroke-dasharray="none" height="1" stroke="none"/>
<rect x="372" y="465" clip-path="url(#clipPath1)" fill="none" width="5" stroke-dasharray="none" height="1" stroke="black"/>
<line clip-path="url(#clipPath1)" fill="none" x1="377" x2="383" y1="466" y2="466" stroke-dasharray="none" stroke="black"/>
<line clip-path="url(#clipPath1)" fill="none" x1="383" x2="388" y1="466" y2="466" stroke-dasharray="none" stroke="black"/>
<line clip-path="url(#clipPath1)" fill="none" x1="388" x2="393" y1="466" y2="466" stroke-dasharray="none" stroke="black"/>
<line clip-path="url(#clipPath1)" fill="none" x1="393" x2="398" y1="466" y2="466" stroke-dasharray="none" stroke="black"/>
<line clip-path="url(#clipPath1)" fill="none" x1="398" x2="403" y1="466" y2="466" stroke-dasharray="none" stroke="black"/>
<line clip-path="url(#clipPath1)" fill="none" x1="403" x2="409" y1="466" y2="466" stroke-dasharray="none" stroke="black"/>
<line clip-path="url(#clipPath1)" fill="none" x1="409" x2="414" y1="466" y2="466" stroke-dasharray="none" stroke="black"/>
<line clip-path="url(#clipPath1)" fill="none" x1="414" x2="419" y1="466" y2="466" stroke-dasharray="none" stroke="black"/>
<line clip-path="url(#clipPath1)" fill="none" x1="419" x2="424" y1="466" y2="466" stroke-dasharray="none" stroke="black"/>
<line clip-path="url(#clipPath1)" fill="none" x1="424" x2="430" y1="466" y2="466" stroke-dasharray="none" stroke="black"/>
<line clip-path="url(#clipPath1)" fill="none" x1="430" x2="435" y1="466" y2="466" stroke-dasharray="none" stroke="black"/>
<line clip-path="url(#clipPath1)" fill="none" x1="435" x2="440" y1="466" y2="466" stroke-dasharray="none" stroke="black"/>
<line clip-path="url(#clipPath1)" fill="none" x1="440" x2="445" y1="466" y2="466" stroke-dasharray="none" stroke="black"/>
<line clip-path="url(#clipPath1)" fill="none" x1="445" x2="450" y1="466" y2="466" stroke-dasharray="none" stroke="black"/>
<line clip-path="url(#clipPath1)" fill="none" x1="450" x2="456" y1="466" y2="466" stroke-dasharray="none" stroke="black"/>
<line clip-path="url(#clipPath1)" fill="none" x1="456" x2="461" y1="466" y2="466" stroke-dasharray="none" stroke="black"/>
<line clip-path="url(#clipPath1)" fill="none" x1="461" x2="466" y1="466" y2="466" stroke-dasharray="none" stroke="black"/>
<line clip-path="url(#clipPath1)" fill="none" x1="466" x2="471" y1="466" y2="466" stroke-dasharray="none" stroke="black"/>
<line clip-path="url(#clipPath1)" fill="none" x1="471" x2="477" y1="466" y2="466" stroke-dasharray="none" stroke="black"/>
<line clip-path="url(#clipPath1)" fill="none" x1="477" x2="482" y1="466" y2="466" stroke-dasharray="none" stroke="black"/>
<line clip-path="url(#clipPath1)" fill="none" x1="482" x2="487" y1="466" y2="466" stroke-dasharray="none" stroke="black"/>
<line clip-path="url(#clipPath1)" fill="none" x1="487" x2="492" y1="466" y2="466" stroke-dasharray="none" stroke="black"/>
<line clip-path="url(#clipPath1)" fill="none" x1="492" x2="497" y1="466" y2="466" stroke-dasharray="none" stroke="black"/>
<line clip-path="url(#clipPath1)" fill="none" x1="497" x2="503" y1="466" y2="466" stroke-dasharray="none" stroke="black"/>
<line clip-path="url(#clipPath1)" fill="none" x1="503" x2="508" y1="466" y2="466" stroke-dasharray="none" stroke="black"/>
<line clip-path="url(#clipPath1)" fill="none" x1="508" x2="513" y1="466" y2="466" stroke-dasharray="none" stroke="black"/>
<line clip-path="url(#clipPath1)" fill="none" x1="513" x2="518" y1="466" y2="466" stroke-dasharray="none" stroke="black"/>
<line clip-path="url(#clipPath1)" fill="none" x1="518" x2="523" y1="466" y2="466" stroke-dasharray="none" stroke="black"/>
<line clip-path="url(#clipPath1)" fill="none" x1="523" x2="529" y1="466" y2="466" stroke-dasharray="none" stroke="black"/>
<line clip-path="url(#clipPath1)" fill="none" x1="529" x2="534" y1="466" y2="466" stroke-dasharray="none" stroke="black"/>
<line clip-path="url(#clipPath1)" fill="none" x1="534" x2="539" y1="466" y2="466" stroke-dasharray="none" stroke="black"/>
<line clip-path="url(#clipPath1)" fill="none" x1="539" x2="544" y1="466" y2="466" stroke-dasharray="none" stroke="black"/>
<line clip-path="url(#clipPath1)" fill="none" x1="544" x2="550" y1="466" y2="466" stroke-dasharray="none" stroke="black"/>
<line clip-path="url(#clipPath1)" fill="none" x1="550" x2="555" y1="466" y2="466" stroke-dasharray="none" stroke="black"/>
<line clip-path="url(#clipPath1)" fill="none" x1="555" x2="560" y1="466" y2="466" stroke-dasharray="none" stroke="black"/>
<line clip-path="url(#clipPath1)" fill="none" x1="560" x2="565" y1="466" y2="466" stroke-dasharray="none" stroke="black"/>
<line clip-path="url(#clipPath1)" fill="none" x1="565" x2="570" y1="466" y2="466" stroke-dasharray="none" stroke="black"/>
<line clip-path="url(#clipPath1)" fill="none" x1="570" x2="576" y1="466" y2="466" stroke-dasharray="none" stroke="black"/>
<line clip-path="url(#clipPath1)" fill="none" x1="576" x2="581" y1="466" y2="466" stroke-dasharray="none" stroke="black"/>
<line clip-path="url(#clipPath1)" fill="none" x1="581" x2="586" y1="466" y2="466" stroke-dasharray="none" stroke="black"/>
<line clip-path="url(#clipPath1)" fill="none" x1="586" x2="591" y1="466" y2="466" stroke-dasharray="none" stroke="black"/>
<line clip-path="url(#clipPath1)" fill="none" x1="591" x2="597" y1="466" y2="466" stroke-dasharray="none" stroke="black"/>
<line clip-path="url(#clipPath1)" fill="none" x1="597" x2="602" y1="466" y2="466" stroke-dasharray="none" stroke="black"/>
<line clip-path="url(#clipPath1)" fill="none" x1="602" x2="607" y1="466" y2="466" stroke-dasharray="none" stroke="black"/>
<line clip-path="url(#clipPath1)" fill="none" x1="607" x2="612" y1="466" y2="466" stroke-dasharray="none" stroke="black"/>
<line clip-path="url(#clipPath1)" fill="none" x1="612" x2="617" y1="466" y2="466" stroke-dasharray="none" stroke="black"/>
<line clip-path="url(#clipPath1)" fill="none" x1="617" x2="623" y1="466" y2="466" stroke-dasharray="none" stroke="black"/>
<line clip-path="url(#clipPath1)" fill="none" x1="623" x2="628" y1="466" y2="466" stroke-dasharray="none" stroke="black"/>
<line clip-path="url(#clipPath1)" fill="none" x1="628" x2="633" y1="466" y2="466" stroke-dasharray="none" stroke="black"/>
<line clip-path="url(#clipPath1)" fill="none" x1="633" x2="638" y1="466" y2="466" stroke-dasharray="none" stroke="black"/>
<line clip-path="url(#clipPath1)" fill="none" x1="638" x2="644" y1="466" y2="466" stroke-dasharray="none" stroke="black"/>
<line clip-path="url(#clipPath1)" fill="none" x1="644" x2="649" y1="466" y2="466" stroke-dasharray="none" stroke="black"/>
<line clip-path="url(#clipPath1)" fill="none" x1="649" x2="654" y1="466" y2="466" stroke-dasharray="none" stroke="black"/>
<line clip-path="url(#clipPath1)" fill="none" x1="654" x2="659" y1="466" y2="466" stroke-dasharray="none" stroke="black"/>
<line clip-path="url(#clipPath1)" fill="none" x1="659" x2="664" y1="466" y2="466" stroke-dasharray="none" stroke="black"/>
<line clip-path="url(#clipPath1)" fill="none" x1="664" x2="670" y1="466" y2="466" stroke-dasharray="none" stroke="black"/>
<line clip-path="url(#clipPath1)" fill="none" x1="670" x2="675" y1="466" y2="466" stroke-dasharray="none" stroke="black"/>
<line clip-path="url(#clipPath1)" fill="none" x1="675" x2="680" y1="466" y2="466" stroke-dasharray="none" stroke="black"/>
<line clip-path="url(#clipPath1)" fill="none" x1="680" x2="685" y1="466" y2="466" stroke-dasharray="none" stroke="black"/>
<line clip-path="url(#clipPath1)" fill="none" x1="685" x2="691" y1="466" y2="466" stroke-dasharray="none" stroke="black"/>
<line clip-path="url(#clipPath1)" fill="none" x1="691" x2="696" y1="466" y2="466" stroke-dasharray="none" stroke="black"/>
<line clip-path="url(#clipPath1)" fill="none" x1="696" x2="701" y1="466" y2="466" stroke-dasharray="none" stroke="black"/>
<line clip-path="url(#clipPath1)" fill="none" x1="701" x2="706" y1="466" y2="466" stroke-dasharray="none" stroke="black"/>
<line clip-path="url(#clipPath1)" fill="none" x1="706" x2="711" y1="466" y2="466" stroke-dasharray="none" stroke="black"/>
<line clip-path="url(#clipPath1)" fill="none" x1="711" x2="717" y1="466" y2="466" stroke-dasharray="none" stroke="black"/>
<line clip-path="url(#clipPath1)" fill="none" x1="717" x2="722" y1="466" y2="466" stroke-dasharray="none" stroke="black"/>
<line clip-path="url(#clipPath1)" fill="none" x1="722" x2="727" y1="466" y2="466" stroke-dasharray="none" stroke="black"/>
<line clip-path="url(#clipPath1)" fill="none" x1="727" x2="732" y1="466" y2="466" stroke-dasharray="none" stroke="black"/>
<line clip-path="url(#clipPath1)" fill="none" x1="732" x2="738" y1="466" y2="466" stroke-dasharray="none" stroke="black"/>
<line clip-path="url(#clipPath1)" fill="none" x1="738" x2="743" y1="466" y2="466" stroke-dasharray="none" stroke="black"/>
<line clip-path="url(#clipPath1)" fill="none" x1="743" x2="748" y1="466" y2="466" stroke-dasharray="none" stroke="black"/>
<line clip-path="url(#clipPath1)" fill="none" x1="748" x2="753" y1="466" y2="466" stroke-dasharray="none" stroke="black"/>
<line clip-path="url(#clipPath1)" fill="none" x1="753" x2="758" y1="466" y2="466" stroke-dasharray="none" stroke="black"/>
<line clip-path="url(#clipPath1)" fill="none" x1="758" x2="764" y1="466" y2="466" stroke-dasharray="none" stroke="black"/>
<line clip-path="url(#clipPath1)" fill="none" x1="764" x2="769" y1="466" y2="466" stroke-dasharray="none" stroke="black"/>
<line clip-path="url(#clipPath1)" fill="none" x1="769" x2="774" y1="466" y2="466" stroke-dasharray="none" stroke="black"/>
<line clip-path="url(#clipPath1)" fill="none" x1="774" x2="779" y1="466" y2="466" stroke-dasharray="none" stroke="black"/>
<line clip-path="url(#clipPath1)" fill="none" x1="779" x2="784" y1="466" y2="466" stroke-dasharray="none" stroke="black"/>
<line clip-path="url(#clipPath1)" fill="none" x1="784" x2="790" y1="466" y2="466" stroke-dasharray="none" stroke="black"/>
<line clip-path="url(#clipPath1)" fill="none" x1="790" x2="795" y1="466" y2="466" stroke-dasharray="none" stroke="black"/>
<line clip-path="url(#clipPath1)" fill="none" x1="795" x2="800" y1="466" y2="466" stroke-dasharray="none" stroke="black"/>
<line clip-path="url(#clipPath1)" fill="none" x1="800" x2="805" y1="466" y2="466" stroke-dasharray="none" stroke="black"/>
<line clip-path="url(#clipPath1)" fill="none" x1="805" x2="811" y1="466" y2="466" stroke-dasharray="none" stroke="black"/>
<line clip-path="url(#clipPath1)" fill="none" x1="811" x2="816" y1="466" y2="466" stroke-dasharray="none" stroke="black"/>
<line clip-path="url(#clipPath1)" fill="none" x1="816" x2="821" y1="466" y2="466" stroke-dasharray="none" stroke="black"/>
<line clip-path="url(#clipPath1)" fill="none" x1="821" x2="826" y1="466" y2="466" stroke-dasharray="none" stroke="black"/>
<line clip-path="url(#clipPath1)" fill="none" x1="826" x2="831" y1="466" y2="466" stroke-dasharray="none" stroke="black"/>
<line clip-path="url(#clipPath1)" fill="none" x1="831" x2="837" y1="466" y2="466" stroke-dasharray="none" stroke="black"/>
<line clip-path="url(#clipPath1)" fill="none" x1="837" x2="842" y1="466" y2="466" stroke-dasharray="none" stroke="black"/>
<line clip-path="url(#clipPath1)" fill="none" x1="842" x2="847" y1="466" y2="466" stroke-dasharray="none" stroke="black"/>
<line clip-path="url(#clipPath1)" fill="none" x1="847" x2="852" y1="466" y2="466" stroke-dasharray="none" stroke="black"/>
<line clip-path="url(#clipPath1)" fill="none" x1="852" x2="858" y1="466" y2="466" stroke-dasharray="none" stroke="black"/>
<line clip-path="url(#clipPath1)" fill="none" x1="858" x2="863" y1="466" y2="466" stroke-dasharray="none" stroke="black"/>
<line clip-path="url(#clipPath1)" fill="none" x1="863" x2="868" y1="466" y2="466" stroke-dasharray="none" stroke="black"/>
<line clip-path="url(#clipPath1)" fill="none" x1="868" x2="873" y1="466" y2="466" stroke-dasharray="none" stroke="black"/>
<line clip-path="url(#clipPath1)" fill="none" x1="873" x2="878" y1="466" y2="466" stroke-dasharray="none" stroke="black"/>
<rect x="49" y="23" clip-path="url(#clipPath2)" fill="none" width="603" stroke-dasharray="none" height="443" stroke="black"/>
</g>
<g text-rendering="geometricPrecision" font-size="13" stroke-linecap="butt">
<line clip-path="url(#clipPath2)" fill="none" x1="49" x2="652" y1="21" y2="21"/>
<line clip-path="url(#clipPath2)" fill="none" x1="49" x2="652" y1="468" y2="468"/>
<line clip-path="url(#clipPath2)" fill="none" x1="51" x2="51" y1="19" y2="21"/>
<line clip-path="url(#clipPath2)" fill="none" x1="51" x2="51" y1="470" y2="468"/>
<line clip-path="url(#clipPath2)" fill="none" x1="67" x2="67" y1="17" y2="21"/>
<line clip-path="url(#clipPath2)" fill="none" x1="67" x2="67" y1="472" y2="468"/>
<text x="47" font-size="11" y="14" clip-path="url(#clipPath2)" stroke="none" xml:space="preserve">0.00030</text>
<text x="47" font-size="11" y="484" clip-path="url(#clipPath2)" stroke="none" xml:space="preserve">0.00030</text>
<line clip-path="url(#clipPath2)" fill="none" x1="82" x2="82" y1="19" y2="21"/>
<line clip-path="url(#clipPath2)" fill="none" x1="82" x2="82" y1="470" y2="468"/>
<line clip-path="url(#clipPath2)" fill="none" x1="98" x2="98" y1="19" y2="21"/>
<line clip-path="url(#clipPath2)" fill="none" x1="98" x2="98" y1="470" y2="468"/>
<line clip-path="url(#clipPath2)" fill="none" x1="113" x2="113" y1="19" y2="21"/>
<line clip-path="url(#clipPath2)" fill="none" x1="113" x2="113" y1="470" y2="468"/>
<line clip-path="url(#clipPath2)" fill="none" x1="129" x2="129" y1="19" y2="21"/>
<line clip-path="url(#clipPath2)" fill="none" x1="129" x2="129" y1="470" y2="468"/>
<line clip-path="url(#clipPath2)" fill="none" x1="144" x2="144" y1="17" y2="21"/>
<line clip-path="url(#clipPath2)" fill="none" x1="144" x2="144" y1="472" y2="468"/>
<text x="124" font-size="11" y="14" clip-path="url(#clipPath2)" stroke="none" xml:space="preserve">0.00040</text>
<text x="124" font-size="11" y="484" clip-path="url(#clipPath2)" stroke="none" xml:space="preserve">0.00040</text>
<line clip-path="url(#clipPath2)" fill="none" x1="159" x2="159" y1="19" y2="21"/>
<line clip-path="url(#clipPath2)" fill="none" x1="159" x2="159" y1="470" y2="468"/>
<line clip-path="url(#clipPath2)" fill="none" x1="175" x2="175" y1="19" y2="21"/>
<line clip-path="url(#clipPath2)" fill="none" x1="175" x2="175" y1="470" y2="468"/>
<line clip-path="url(#clipPath2)" fill="none" x1="190" x2="190" y1="19" y2="21"/>
<line clip-path="url(#clipPath2)" fill="none" x1="190" x2="190" y1="470" y2="468"/>
<line clip-path="url(#clipPath2)" fill="none" x1="206" x2="206" y1="19" y2="21"/>
<line clip-path="url(#clipPath2)" fill="none" x1="206" x2="206" y1="470" y2="468"/>
<line clip-path="url(#clipPath2)" fill="none" x1="221" x2="221" y1="17" y2="21"/>
<line clip-path="url(#clipPath2)" fill="none" x1="221" x2="221" y1="472" y2="468"/>
<text x="201" font-size="11" y="14" clip-path="url(#clipPath2)" stroke="none" xml:space="preserve">0.00050</text>
<text x="201" font-size="11" y="484" clip-path="url(#clipPath2)" stroke="none" xml:space="preserve">0.00050</text>
<line clip-path="url(#clipPath2)" fill="none" x1="237" x2="237" y1="19" y2="21"/>
<line clip-path="url(#clipPath2)" fill="none" x1="237" x2="237" y1="470" y2="468"/>
<line clip-path="url(#clipPath2)" fill="none" x1="252" x2="252" y1="19" y2="21"/>
<line clip-path="url(#clipPath2)" fill="none" x1="252" x2="252" y1="470" y2="468"/>
<line clip-path="url(#clipPath2)" fill="none" x1="268" x2="268" y1="19" y2="21"/>
<line clip-path="url(#clipPath2)" fill="none" x1="268" x2="268" y1="470" y2="468"/>
<line clip-path="url(#clipPath2)" fill="none" x1="283" x2="283" y1="19" y2="21"/>
<line clip-path="url(#clipPath2)" fill="none" x1="283" x2="283" y1="470" y2="468"/>
<line clip-path="url(#clipPath2)" fill="none" x1="299" x2="299" y1="17" y2="21"/>
<line clip-path="url(#clipPath2)" fill="none" x1="299" x2="299" y1="472" y2="468"/>
<text x="279" font-size="11" y="14" clip-path="url(#clipPath2)" stroke="none" xml:space="preserve">0.00060</text>
<text x="279" font-size="11" y="484" clip-path="url(#clipPath2)" stroke="none" xml:space="preserve">0.00060</text>
<line clip-path="url(#clipPath2)" fill="none" x1="314" x2="314" y1="19" y2="21"/>
<line clip-path="url(#clipPath2)" fill="none" x1="314" x2="314" y1="470" y2="468"/>
<line clip-path="url(#clipPath2)" fill="none" x1="330" x2="330" y1="19" y2="21"/>
<line clip-path="url(#clipPath2)" fill="none" x1="330" x2="330" y1="470" y2="468"/>
<line clip-path="url(#clipPath2)" fill="none" x1="345" x2="345" y1="19" y2="21"/>
<line clip-path="url(#clipPath2)" fill="none" x1="345" x2="345" y1="470" y2="468"/>
<line clip-path="url(#clipPath2)" fill="none" x1="361" x2="361" y1="19" y2="21"/>
<line clip-path="url(#clipPath2)" fill="none" x1="361" x2="361" y1="470" y2="468"/>
<line clip-path="url(#clipPath2)" fill="none" x1="376" x2="376" y1="17" y2="21"/>
<line clip-path="url(#clipPath2)" fill="none" x1="376" x2="376" y1="472" y2="468"/>
<text x="356" font-size="11" y="14" clip-path="url(#clipPath2)" stroke="none" xml:space="preserve">0.00070</text>
<text x="356" font-size="11" y="484" clip-path="url(#clipPath2)" stroke="none" xml:space="preserve">0.00070</text>
<line clip-path="url(#clipPath2)" fill="none" x1="392" x2="392" y1="19" y2="21"/>
<line clip-path="url(#clipPath2)" fill="none" x1="392" x2="392" y1="470" y2="468"/>
<line clip-path="url(#clipPath2)" fill="none" x1="407" x2="407" y1="19" y2="21"/>
<line clip-path="url(#clipPath2)" fill="none" x1="407" x2="407" y1="470" y2="468"/>
<line clip-path="url(#clipPath2)" fill="none" x1="423" x2="423" y1="19" y2="21"/>
<line clip-path="url(#clipPath2)" fill="none" x1="423" x2="423" y1="470" y2="468"/>
<line clip-path="url(#clipPath2)" fill="none" x1="438" x2="438" y1="19" y2="21"/>
<line clip-path="url(#clipPath2)" fill="none" x1="438" x2="438" y1="470" y2="468"/>
<line clip-path="url(#clipPath2)" fill="none" x1="454" x2="454" y1="17" y2="21"/>
<line clip-path="url(#clipPath2)" fill="none" x1="454" x2="454" y1="472" y2="468"/>
<text x="434" font-size="11" y="14" clip-path="url(#clipPath2)" stroke="none" xml:space="preserve">0.00080</text>
<text x="434" font-size="11" y="484" clip-path="url(#clipPath2)" stroke="none" xml:space="preserve">0.00080</text>
<line clip-path="url(#clipPath2)" fill="none" x1="469" x2="469" y1="19" y2="21"/>
<line clip-path="url(#clipPath2)" fill="none" x1="469" x2="469" y1="470" y2="468"/>
<line clip-path="url(#clipPath2)" fill="none" x1="484" x2="484" y1="19" y2="21"/>
<line clip-path="url(#clipPath2)" fill="none" x1="484" x2="484" y1="470" y2="468"/>
<line clip-path="url(#clipPath2)" fill="none" x1="500" x2="500" y1="19" y2="21"/>
<line clip-path="url(#clipPath2)" fill="none" x1="500" x2="500" y1="470" y2="468"/>
<line clip-path="url(#clipPath2)" fill="none" x1="515" x2="515" y1="19" y2="21"/>
<line clip-path="url(#clipPath2)" fill="none" x1="515" x2="515" y1="470" y2="468"/>
<line clip-path="url(#clipPath2)" fill="none" x1="531" x2="531" y1="17" y2="21"/>
<line clip-path="url(#clipPath2)" fill="none" x1="531" x2="531" y1="472" y2="468"/>
<text x="511" font-size="11" y="14" clip-path="url(#clipPath2)" stroke="none" xml:space="preserve">0.00090</text>
<text x="511" font-size="11" y="484" clip-path="url(#clipPath2)" stroke="none" xml:space="preserve">0.00090</text>
<line clip-path="url(#clipPath2)" fill="none" x1="546" x2="546" y1="19" y2="21"/>
<line clip-path="url(#clipPath2)" fill="none" x1="546" x2="546" y1="470" y2="468"/>
<line clip-path="url(#clipPath2)" fill="none" x1="562" x2="562" y1="19" y2="21"/>
<line clip-path="url(#clipPath2)" fill="none" x1="562" x2="562" y1="470" y2="468"/>
<line clip-path="url(#clipPath2)" fill="none" x1="577" x2="577" y1="19" y2="21"/>
<line clip-path="url(#clipPath2)" fill="none" x1="577" x2="577" y1="470" y2="468"/>
<line clip-path="url(#clipPath2)" fill="none" x1="593" x2="593" y1="19" y2="21"/>
<line clip-path="url(#clipPath2)" fill="none" x1="593" x2="593" y1="470" y2="468"/>
<line clip-path="url(#clipPath2)" fill="none" x1="608" x2="608" y1="17" y2="21"/>
<line clip-path="url(#clipPath2)" fill="none" x1="608" x2="608" y1="472" y2="468"/>
<text x="588" font-size="11" y="14" clip-path="url(#clipPath2)" stroke="none" xml:space="preserve">0.00100</text>
<text x="588" font-size="11" y="484" clip-path="url(#clipPath2)" stroke="none" xml:space="preserve">0.00100</text>
<line clip-path="url(#clipPath2)" fill="none" x1="624" x2="624" y1="19" y2="21"/>
<line clip-path="url(#clipPath2)" fill="none" x1="624" x2="624" y1="470" y2="468"/>
<line clip-path="url(#clipPath2)" fill="none" x1="639" x2="639" y1="19" y2="21"/>
<line clip-path="url(#clipPath2)" fill="none" x1="639" x2="639" y1="470" y2="468"/>
<line clip-path="url(#clipPath2)" fill="none" x1="47" x2="47" y1="23" y2="466"/>
<line clip-path="url(#clipPath2)" fill="none" x1="654" x2="654" y1="23" y2="466"/>
<line clip-path="url(#clipPath2)" fill="none" x1="43" x2="47" y1="466" y2="466"/>
<line clip-path="url(#clipPath2)" fill="none" x1="658" x2="654" y1="466" y2="466"/>
<text x="36" font-size="11" y="471" clip-path="url(#clipPath2)" stroke="none" xml:space="preserve">0</text>
<text x="661" font-size="11" y="471" clip-path="url(#clipPath2)" stroke="none" xml:space="preserve">0</text>
<line clip-path="url(#clipPath2)" fill="none" x1="45" x2="47" y1="420" y2="420"/>
<line clip-path="url(#clipPath2)" fill="none" x1="656" x2="654" y1="420" y2="420"/>
<line clip-path="url(#clipPath2)" fill="none" x1="43" x2="47" y1="373" y2="373"/>
<line clip-path="url(#clipPath2)" fill="none" x1="658" x2="654" y1="373" y2="373"/>
<text x="18" font-size="11" y="378" clip-path="url(#clipPath2)" stroke="none" xml:space="preserve">2000</text>
<text x="661" font-size="11" y="378" clip-path="url(#clipPath2)" stroke="none" xml:space="preserve">2000</text>
<line clip-path="url(#clipPath2)" fill="none" x1="45" x2="47" y1="326" y2="326"/>
<line clip-path="url(#clipPath2)" fill="none" x1="656" x2="654" y1="326" y2="326"/>
<line clip-path="url(#clipPath2)" fill="none" x1="43" x2="47" y1="280" y2="280"/>
<line clip-path="url(#clipPath2)" fill="none" x1="658" x2="654" y1="280" y2="280"/>
<text x="18" font-size="11" y="285" clip-path="url(#clipPath2)" stroke="none" xml:space="preserve">4000</text>
<text x="661" font-size="11" y="285" clip-path="url(#clipPath2)" stroke="none" xml:space="preserve">4000</text>
<line clip-path="url(#clipPath2)" fill="none" x1="45" x2="47" y1="233" y2="233"/>
<line clip-path="url(#clipPath2)" fill="none" x1="656" x2="654" y1="233" y2="233"/>
<line clip-path="url(#clipPath2)" fill="none" x1="43" x2="47" y1="187" y2="187"/>
<line clip-path="url(#clipPath2)" fill="none" x1="658" x2="654" y1="187" y2="187"/>
<text x="18" font-size="11" y="192" clip-path="url(#clipPath2)" stroke="none" xml:space="preserve">6000</text>
<text x="661" font-size="11" y="192" clip-path="url(#clipPath2)" stroke="none" xml:space="preserve">6000</text>
<line clip-path="url(#clipPath2)" fill="none" x1="45" x2="47" y1="140" y2="140"/>
<line clip-path="url(#clipPath2)" fill="none" x1="656" x2="654" y1="140" y2="140"/>
<line clip-path="url(#clipPath2)" fill="none" x1="43" x2="47" y1="93" y2="93"/>
<line clip-path="url(#clipPath2)" fill="none" x1="658" x2="654" y1="93" y2="93"/>
<text x="18" font-size="11" y="98" clip-path="url(#clipPath2)" stroke="none" xml:space="preserve">8000</text>
<text x="661" font-size="11" y="98" clip-path="url(#clipPath2)" stroke="none" xml:space="preserve">8000</text>
<line clip-path="url(#clipPath2)" fill="none" x1="45" x2="47" y1="47" y2="47"/>
<line clip-path="url(#clipPath2)" fill="none" x1="656" x2="654" y1="47" y2="47"/>
</g>
</g>
</svg>
