<?xml version="1.0" encoding="UTF-8"?><svg xmlns="http://www.w3.org/2000/svg" xmlns:xlink="http://www.w3.org/1999/xlink" stroke-dasharray="none" shape-rendering="auto" font-family="'Dialog'" width="701" text-rendering="auto" fill-opacity="1" contentScriptType="text/ecmascript" color-interpolation="auto" color-rendering="auto" preserveAspectRatio="xMidYMid meet" font-size="12" fill="black" stroke="black" image-rendering="auto" stroke-miterlimit="10" zoomAndPan="magnify" version="1.0" stroke-linecap="square" stroke-linejoin="miter" contentStyleType="text/css" font-style="normal" height="489" stroke-width="1" stroke-dashoffset="0" font-weight="normal" stroke-opacity="1">
<!--Generated by the Batik Graphics2D SVG Generator-->
<defs id="genericDefs"/>
<g>
<defs id="defs1">
<clipPath clipPathUnits="userSpaceOnUse" id="clipPath1">
<path d="M34 22 L667 22 L667 467 L34 467 L34 22 Z"/>
</clipPath>
<clipPath clipPathUnits="userSpaceOnUse" id="clipPath2">
<path d="M-1 -1 L702 -1 L702 490 L-1 490 L-1 -1 Z"/>
</clipPath>
</defs>
<g font-size="15" fill="white" text-rendering="geometricPrecision" font-family="'Cantarell'" stroke-linejoin="round" stroke="white" stroke-width="0" stroke-miterlimit="0">
<rect x="35" y="23" clip-path="url(#clipPath1)" width="631" height="443" stroke="none"/>
</g>
<g stroke-linecap="butt" font-size="15" fill="rgb(204,204,204)" text-rendering="geometricPrecision" font-family="'Cantarell'" stroke-dasharray="3,3" stroke="rgb(204,204,204)">
<line clip-path="url(#clipPath1)" fill="none" x1="35" x2="666" y1="466" y2="466"/>
<line clip-path="url(#clipPath1)" fill="none" x1="35" x2="666" y1="392" y2="392"/>
<line clip-path="url(#clipPath1)" fill="none" x1="35" x2="666" y1="318" y2="318"/>
<line clip-path="url(#clipPath1)" fill="none" x1="35" x2="666" y1="244" y2="244"/>
<line clip-path="url(#clipPath1)" fill="none" x1="35" x2="666" y1="170" y2="170"/>
<line clip-path="url(#clipPath1)" fill="none" x1="35" x2="666" y1="96" y2="96"/>
<rect x="35" y="52" clip-path="url(#clipPath1)" fill="rgb(0,0,139)" width="3" height="414" stroke="none"/>
<rect x="35" y="52" clip-path="url(#clipPath1)" fill="none" width="3" stroke-dasharray="none" height="414" stroke="black"/>
<line clip-path="url(#clipPath1)" fill="none" x1="38" x2="42" y1="466" y2="466" stroke-dasharray="none" stroke="black"/>
<line clip-path="url(#clipPath1)" fill="none" x1="42" x2="46" y1="466" y2="466" stroke-dasharray="none" stroke="black"/>
<line clip-path="url(#clipPath1)" fill="none" x1="46" x2="50" y1="466" y2="466" stroke-dasharray="none" stroke="black"/>
<line clip-path="url(#clipPath1)" fill="none" x1="50" x2="54" y1="466" y2="466" stroke-dasharray="none" stroke="black"/>
<line clip-path="url(#clipPath1)" fill="none" x1="54" x2="58" y1="466" y2="466" stroke-dasharray="none" stroke="black"/>
<line clip-path="url(#clipPath1)" fill="none" x1="58" x2="62" y1="466" y2="466" stroke-dasharray="none" stroke="black"/>
<line clip-path="url(#clipPath1)" fill="none" x1="62" x2="66" y1="466" y2="466" stroke-dasharray="none" stroke="black"/>
<line clip-path="url(#clipPath1)" fill="none" x1="66" x2="70" y1="466" y2="466" stroke-dasharray="none" stroke="black"/>
<rect x="70" y="463" clip-path="url(#clipPath1)" fill="rgb(0,0,139)" width="4" stroke-dasharray="none" height="3" stroke="none"/>
<rect x="70" y="463" clip-path="url(#clipPath1)" fill="none" width="4" stroke-dasharray="none" height="3" stroke="black"/>
<rect x="74" y="463" clip-path="url(#clipPath1)" fill="rgb(0,0,139)" width="4" stroke-dasharray="none" height="3" stroke="none"/>
<rect x="74" y="463" clip-path="url(#clipPath1)" fill="none" width="4" stroke-dasharray="none" height="3" stroke="black"/>
<rect x="78" y="459" clip-path="url(#clipPath1)" fill="rgb(0,0,139)" width="3" stroke-dasharray="none" height="7" stroke="none"/>
<rect x="78" y="459" clip-path="url(#clipPath1)" fill="none" width="3" stroke-dasharray="none" height="7" stroke="black"/>
<rect x="81" y="463" clip-path="url(#clipPath1)" fill="rgb(0,0,139)" width="4" stroke-dasharray="none" height="3" stroke="none"/>
<rect x="81" y="463" clip-path="url(#clipPath1)" fill="none" width="4" stroke-dasharray="none" height="3" stroke="black"/>
<rect x="85" y="459" clip-path="url(#clipPath1)" fill="rgb(0,0,139)" width="4" stroke-dasharray="none" height="7" stroke="none"/>
<rect x="85" y="459" clip-path="url(#clipPath1)" fill="none" width="4" stroke-dasharray="none" height="7" stroke="black"/>
<rect x="89" y="463" clip-path="url(#clipPath1)" fill="rgb(0,0,139)" width="4" stroke-dasharray="none" height="3" stroke="none"/>
<rect x="89" y="463" clip-path="url(#clipPath1)" fill="none" width="4" stroke-dasharray="none" height="3" stroke="black"/>
<rect x="93" y="459" clip-path="url(#clipPath1)" fill="rgb(0,0,139)" width="4" stroke-dasharray="none" height="7" stroke="none"/>
<rect x="93" y="459" clip-path="url(#clipPath1)" fill="none" width="4" stroke-dasharray="none" height="7" stroke="black"/>
<rect x="97" y="459" clip-path="url(#clipPath1)" fill="rgb(0,0,139)" width="4" stroke-dasharray="none" height="7" stroke="none"/>
<rect x="97" y="459" clip-path="url(#clipPath1)" fill="none" width="4" stroke-dasharray="none" height="7" stroke="black"/>
<rect x="101" y="463" clip-path="url(#clipPath1)" fill="rgb(0,0,139)" width="4" stroke-dasharray="none" height="3" stroke="none"/>
<rect x="101" y="463" clip-path="url(#clipPath1)" fill="none" width="4" stroke-dasharray="none" height="3" stroke="black"/>
<rect x="105" y="463" clip-path="url(#clipPath1)" fill="rgb(0,0,139)" width="4" stroke-dasharray="none" height="3" stroke="none"/>
<rect x="105" y="463" clip-path="url(#clipPath1)" fill="none" width="4" stroke-dasharray="none" height="3" stroke="black"/>
<rect x="109" y="459" clip-path="url(#clipPath1)" fill="rgb(0,0,139)" width="4" stroke-dasharray="none" height="7" stroke="none"/>
<rect x="109" y="459" clip-path="url(#clipPath1)" fill="none" width="4" stroke-dasharray="none" height="7" stroke="black"/>
<rect x="113" y="463" clip-path="url(#clipPath1)" fill="rgb(0,0,139)" width="4" stroke-dasharray="none" height="3" stroke="none"/>
<rect x="113" y="463" clip-path="url(#clipPath1)" fill="none" width="4" stroke-dasharray="none" height="3" stroke="black"/>
<rect x="117" y="459" clip-path="url(#clipPath1)" fill="rgb(0,0,139)" width="4" stroke-dasharray="none" height="7" stroke="none"/>
<rect x="117" y="459" clip-path="url(#clipPath1)" fill="none" width="4" stroke-dasharray="none" height="7" stroke="black"/>
<rect x="121" y="459" clip-path="url(#clipPath1)" fill="rgb(0,0,139)" width="4" stroke-dasharray="none" height="7" stroke="none"/>
<rect x="121" y="459" clip-path="url(#clipPath1)" fill="none" width="4" stroke-dasharray="none" height="7" stroke="black"/>
<rect x="125" y="459" clip-path="url(#clipPath1)" fill="rgb(0,0,139)" width="3" stroke-dasharray="none" height="7" stroke="none"/>
<rect x="125" y="459" clip-path="url(#clipPath1)" fill="none" width="3" stroke-dasharray="none" height="7" stroke="black"/>
<rect x="128" y="463" clip-path="url(#clipPath1)" fill="rgb(0,0,139)" width="4" stroke-dasharray="none" height="3" stroke="none"/>
<rect x="128" y="463" clip-path="url(#clipPath1)" fill="none" width="4" stroke-dasharray="none" height="3" stroke="black"/>
<rect x="132" y="459" clip-path="url(#clipPath1)" fill="rgb(0,0,139)" width="4" stroke-dasharray="none" height="7" stroke="none"/>
<rect x="132" y="459" clip-path="url(#clipPath1)" fill="none" width="4" stroke-dasharray="none" height="7" stroke="black"/>
<rect x="136" y="463" clip-path="url(#clipPath1)" fill="rgb(0,0,139)" width="4" stroke-dasharray="none" height="3" stroke="none"/>
<rect x="136" y="463" clip-path="url(#clipPath1)" fill="none" width="4" stroke-dasharray="none" height="3" stroke="black"/>
<rect x="140" y="459" clip-path="url(#clipPath1)" fill="rgb(0,0,139)" width="4" stroke-dasharray="none" height="7" stroke="none"/>
<rect x="140" y="459" clip-path="url(#clipPath1)" fill="none" width="4" stroke-dasharray="none" height="7" stroke="black"/>
<rect x="144" y="459" clip-path="url(#clipPath1)" fill="rgb(0,0,139)" width="4" stroke-dasharray="none" height="7" stroke="none"/>
<rect x="144" y="459" clip-path="url(#clipPath1)" fill="none" width="4" stroke-dasharray="none" height="7" stroke="black"/>
<rect x="148" y="463" clip-path="url(#clipPath1)" fill="rgb(0,0,139)" width="4" stroke-dasharray="none" height="3" stroke="none"/>
<rect x="148" y="463" clip-path="url(#clipPath1)" fill="none" width="4" stroke-dasharray="none" height="3" stroke="black"/>
<rect x="152" y="459" clip-path="url(#clipPath1)" fill="rgb(0,0,139)" width="4" stroke-dasharray="none" height="7" stroke="none"/>
<rect x="152" y="459" clip-path="url(#clipPath1)" fill="none" width="4" stroke-dasharray="none" height="7" stroke="black"/>
<rect x="156" y="463" clip-path="url(#clipPath1)" fill="rgb(0,0,139)" width="4" stroke-dasharray="none" height="3" stroke="none"/>
<rect x="156" y="463" clip-path="url(#clipPath1)" fill="none" width="4" stroke-dasharray="none" height="3" stroke="black"/>
<rect x="160" y="459" clip-path="url(#clipPath1)" fill="rgb(0,0,139)" width="4" stroke-dasharray="none" height="7" stroke="none"/>
<rect x="160" y="459" clip-path="url(#clipPath1)" fill="none" width="4" stroke-dasharray="none" height="7" stroke="black"/>
<rect x="164" y="459" clip-path="url(#clipPath1)" fill="rgb(0,0,139)" width="4" stroke-dasharray="none" height="7" stroke="none"/>
<rect x="164" y="459" clip-path="url(#clipPath1)" fill="none" width="4" stroke-dasharray="none" height="7" stroke="black"/>
<rect x="168" y="459" clip-path="url(#clipPath1)" fill="rgb(0,0,139)" width="4" stroke-dasharray="none" height="7" stroke="none"/>
<rect x="168" y="459" clip-path="url(#clipPath1)" fill="none" width="4" stroke-dasharray="none" height="7" stroke="black"/>
<rect x="172" y="459" clip-path="url(#clipPath1)" fill="rgb(0,0,139)" width="3" stroke-dasharray="none" height="7" stroke="none"/>
<rect x="172" y="459" clip-path="url(#clipPath1)" fill="none" width="3" stroke-dasharray="none" height="7" stroke="black"/>
<rect x="175" y="459" clip-path="url(#clipPath1)" fill="rgb(0,0,139)" width="4" stroke-dasharray="none" height="7" stroke="none"/>
<rect x="175" y="459" clip-path="url(#clipPath1)" fill="none" width="4" stroke-dasharray="none" height="7" stroke="black"/>
<rect x="179" y="459" clip-path="url(#clipPath1)" fill="rgb(0,0,139)" width="4" stroke-dasharray="none" height="7" stroke="none"/>
<rect x="179" y="459" clip-path="url(#clipPath1)" fill="none" width="4" stroke-dasharray="none" height="7" stroke="black"/>
<rect x="183" y="463" clip-path="url(#clipPath1)" fill="rgb(0,0,139)" width="4" stroke-dasharray="none" height="3" stroke="none"/>
<rect x="183" y="463" clip-path="url(#clipPath1)" fill="none" width="4" stroke-dasharray="none" height="3" stroke="black"/>
<rect x="187" y="459" clip-path="url(#clipPath1)" fill="rgb(0,0,139)" width="4" stroke-dasharray="none" height="7" stroke="none"/>
<rect x="187" y="459" clip-path="url(#clipPath1)" fill="none" width="4" stroke-dasharray="none" height="7" stroke="black"/>
<rect x="191" y="459" clip-path="url(#clipPath1)" fill="rgb(0,0,139)" width="4" stroke-dasharray="none" height="7" stroke="none"/>
<rect x="191" y="459" clip-path="url(#clipPath1)" fill="none" width="4" stroke-dasharray="none" height="7" stroke="black"/>
<rect x="195" y="459" clip-path="url(#clipPath1)" fill="rgb(0,0,139)" width="4" stroke-dasharray="none" height="7" stroke="none"/>
<rect x="195" y="459" clip-path="url(#clipPath1)" fill="none" width="4" stroke-dasharray="none" height="7" stroke="black"/>
<rect x="199" y="459" clip-path="url(#clipPath1)" fill="rgb(0,0,139)" width="4" stroke-dasharray="none" height="7" stroke="none"/>
<rect x="199" y="459" clip-path="url(#clipPath1)" fill="none" width="4" stroke-dasharray="none" height="7" stroke="black"/>
<rect x="203" y="459" clip-path="url(#clipPath1)" fill="rgb(0,0,139)" width="4" stroke-dasharray="none" height="7" stroke="none"/>
<rect x="203" y="459" clip-path="url(#clipPath1)" fill="none" width="4" stroke-dasharray="none" height="7" stroke="black"/>
<rect x="207" y="459" clip-path="url(#clipPath1)" fill="rgb(0,0,139)" width="4" stroke-dasharray="none" height="7" stroke="none"/>
<rect x="207" y="459" clip-path="url(#clipPath1)" fill="none" width="4" stroke-dasharray="none" height="7" stroke="black"/>
<rect x="211" y="459" clip-path="url(#clipPath1)" fill="rgb(0,0,139)" width="4" stroke-dasharray="none" height="7" stroke="none"/>
<rect x="211" y="459" clip-path="url(#clipPath1)" fill="none" width="4" stroke-dasharray="none" height="7" stroke="black"/>
<rect x="215" y="463" clip-path="url(#clipPath1)" fill="rgb(0,0,139)" width="4" stroke-dasharray="none" height="3" stroke="none"/>
<rect x="215" y="463" clip-path="url(#clipPath1)" fill="none" width="4" stroke-dasharray="none" height="3" stroke="black"/>
<rect x="219" y="459" clip-path="url(#clipPath1)" fill="rgb(0,0,139)" width="3" stroke-dasharray="none" height="7" stroke="none"/>
<rect x="219" y="459" clip-path="url(#clipPath1)" fill="none" width="3" stroke-dasharray="none" height="7" stroke="black"/>
<rect x="222" y="459" clip-path="url(#clipPath1)" fill="rgb(0,0,139)" width="4" stroke-dasharray="none" height="7" stroke="none"/>
<rect x="222" y="459" clip-path="url(#clipPath1)" fill="none" width="4" stroke-dasharray="none" height="7" stroke="black"/>
<rect x="226" y="459" clip-path="url(#clipPath1)" fill="rgb(0,0,139)" width="4" stroke-dasharray="none" height="7" stroke="none"/>
<rect x="226" y="459" clip-path="url(#clipPath1)" fill="none" width="4" stroke-dasharray="none" height="7" stroke="black"/>
<rect x="230" y="459" clip-path="url(#clipPath1)" fill="rgb(0,0,139)" width="4" stroke-dasharray="none" height="7" stroke="none"/>
<rect x="230" y="459" clip-path="url(#clipPath1)" fill="none" width="4" stroke-dasharray="none" height="7" stroke="black"/>
<rect x="234" y="459" clip-path="url(#clipPath1)" fill="rgb(0,0,139)" width="4" stroke-dasharray="none" height="7" stroke="none"/>
<rect x="234" y="459" clip-path="url(#clipPath1)" fill="none" width="4" stroke-dasharray="none" height="7" stroke="black"/>
<rect x="238" y="459" clip-path="url(#clipPath1)" fill="rgb(0,0,139)" width="4" stroke-dasharray="none" height="7" stroke="none"/>
<rect x="238" y="459" clip-path="url(#clipPath1)" fill="none" width="4" stroke-dasharray="none" height="7" stroke="black"/>
<rect x="242" y="463" clip-path="url(#clipPath1)" fill="rgb(0,0,139)" width="4" stroke-dasharray="none" height="3" stroke="none"/>
<rect x="242" y="463" clip-path="url(#clipPath1)" fill="none" width="4" stroke-dasharray="none" height="3" stroke="black"/>
<rect x="246" y="459" clip-path="url(#clipPath1)" fill="rgb(0,0,139)" width="4" stroke-dasharray="none" height="7" stroke="none"/>
<rect x="246" y="459" clip-path="url(#clipPath1)" fill="none" width="4" stroke-dasharray="none" height="7" stroke="black"/>
<rect x="250" y="459" clip-path="url(#clipPath1)" fill="rgb(0,0,139)" width="4" stroke-dasharray="none" height="7" stroke="none"/>
<rect x="250" y="459" clip-path="url(#clipPath1)" fill="none" width="4" stroke-dasharray="none" height="7" stroke="black"/>
<rect x="254" y="459" clip-path="url(#clipPath1)" fill="rgb(0,0,139)" width="4" stroke-dasharray="none" height="7" stroke="none"/>
<rect x="254" y="459" clip-path="url(#clipPath1)" fill="none" width="4" stroke-dasharray="none" height="7" stroke="black"/>
<rect x="258" y="463" clip-path="url(#clipPath1)" fill="rgb(0,0,139)" width="4" stroke-dasharray="none" height="3" stroke="none"/>
<rect x="258" y="463" clip-path="url(#clipPath1)" fill="none" width="4" stroke-dasharray="none" height="3" stroke="black"/>
<rect x="262" y="459" clip-path="url(#clipPath1)" fill="rgb(0,0,139)" width="4" stroke-dasharray="none" height="7" stroke="none"/>
<rect x="262" y="459" clip-path="url(#clipPath1)" fill="none" width="4" stroke-dasharray="none" height="7" stroke="black"/>
<rect x="266" y="459" clip-path="url(#clipPath1)" fill="rgb(0,0,139)" width="3" stroke-dasharray="none" height="7" stroke="none"/>
<rect x="266" y="459" clip-path="url(#clipPath1)" fill="none" width="3" stroke-dasharray="none" height="7" stroke="black"/>
<rect x="269" y="459" clip-path="url(#clipPath1)" fill="rgb(0,0,139)" width="4" stroke-dasharray="none" height="7" stroke="none"/>
<rect x="269" y="459" clip-path="url(#clipPath1)" fill="none" width="4" stroke-dasharray="none" height="7" stroke="black"/>
<rect x="273" y="463" clip-path="url(#clipPath1)" fill="rgb(0,0,139)" width="4" stroke-dasharray="none" height="3" stroke="none"/>
<rect x="273" y="463" clip-path="url(#clipPath1)" fill="none" width="4" stroke-dasharray="none" height="3" stroke="black"/>
<rect x="277" y="459" clip-path="url(#clipPath1)" fill="rgb(0,0,139)" width="4" stroke-dasharray="none" height="7" stroke="none"/>
<rect x="277" y="459" clip-path="url(#clipPath1)" fill="none" width="4" stroke-dasharray="none" height="7" stroke="black"/>
<rect x="281" y="463" clip-path="url(#clipPath1)" fill="rgb(0,0,139)" width="4" stroke-dasharray="none" height="3" stroke="none"/>
<rect x="281" y="463" clip-path="url(#clipPath1)" fill="none" width="4" stroke-dasharray="none" height="3" stroke="black"/>
<rect x="285" y="459" clip-path="url(#clipPath1)" fill="rgb(0,0,139)" width="4" stroke-dasharray="none" height="7" stroke="none"/>
<rect x="285" y="459" clip-path="url(#clipPath1)" fill="none" width="4" stroke-dasharray="none" height="7" stroke="black"/>
<rect x="289" y="459" clip-path="url(#clipPath1)" fill="rgb(0,0,139)" width="4" stroke-dasharray="none" height="7" stroke="none"/>
<rect x="289" y="459" clip-path="url(#clipPath1)" fill="none" width="4" stroke-dasharray="none" height="7" stroke="black"/>
<rect x="293" y="459" clip-path="url(#clipPath1)" fill="rgb(0,0,139)" width="4" stroke-dasharray="none" height="7" stroke="none"/>
<rect x="293" y="459" clip-path="url(#clipPath1)" fill="none" width="4" stroke-dasharray="none" height="7" stroke="black"/>
<rect x="297" y="459" clip-path="url(#clipPath1)" fill="rgb(0,0,139)" width="4" stroke-dasharray="none" height="7" stroke="none"/>
<rect x="297" y="459" clip-path="url(#clipPath1)" fill="none" width="4" stroke-dasharray="none" height="7" stroke="black"/>
<rect x="301" y="459" clip-path="url(#clipPath1)" fill="rgb(0,0,139)" width="4" stroke-dasharray="none" height="7" stroke="none"/>
<rect x="301" y="459" clip-path="url(#clipPath1)" fill="none" width="4" stroke-dasharray="none" height="7" stroke="black"/>
<rect x="305" y="463" clip-path="url(#clipPath1)" fill="rgb(0,0,139)" width="4" stroke-dasharray="none" height="3" stroke="none"/>
<rect x="305" y="463" clip-path="url(#clipPath1)" fill="none" width="4" stroke-dasharray="none" height="3" stroke="black"/>
<rect x="309" y="463" clip-path="url(#clipPath1)" fill="rgb(0,0,139)" width="4" stroke-dasharray="none" height="3" stroke="none"/>
<rect x="309" y="463" clip-path="url(#clipPath1)" fill="none" width="4" stroke-dasharray="none" height="3" stroke="black"/>
<line clip-path="url(#clipPath1)" fill="none" x1="313" x2="316" y1="466" y2="466" stroke-dasharray="none" stroke="black"/>
<line clip-path="url(#clipPath1)" fill="none" x1="316" x2="320" y1="466" y2="466" stroke-dasharray="none" stroke="black"/>
<line clip-path="url(#clipPath1)" fill="none" x1="320" x2="324" y1="466" y2="466" stroke-dasharray="none" stroke="black"/>
<line clip-path="url(#clipPath1)" fill="none" x1="324" x2="328" y1="466" y2="466" stroke-dasharray="none" stroke="black"/>
<line clip-path="url(#clipPath1)" fill="none" x1="328" x2="332" y1="466" y2="466" stroke-dasharray="none" stroke="black"/>
<line clip-path="url(#clipPath1)" fill="none" x1="332" x2="336" y1="466" y2="466" stroke-dasharray="none" stroke="black"/>
<line clip-path="url(#clipPath1)" fill="none" x1="336" x2="340" y1="466" y2="466" stroke-dasharray="none" stroke="black"/>
<line clip-path="url(#clipPath1)" fill="none" x1="340" x2="344" y1="466" y2="466" stroke-dasharray="none" stroke="black"/>
<rect x="344" y="463" clip-path="url(#clipPath1)" fill="rgb(0,0,139)" width="4" stroke-dasharray="none" height="3" stroke="none"/>
<rect x="344" y="463" clip-path="url(#clipPath1)" fill="none" width="4" stroke-dasharray="none" height="3" stroke="black"/>
<line clip-path="url(#clipPath1)" fill="none" x1="348" x2="352" y1="466" y2="466" stroke-dasharray="none" stroke="black"/>
<line clip-path="url(#clipPath1)" fill="none" x1="352" x2="356" y1="466" y2="466" stroke-dasharray="none" stroke="black"/>
<line clip-path="url(#clipPath1)" fill="none" x1="356" x2="360" y1="466" y2="466" stroke-dasharray="none" stroke="black"/>
<line clip-path="url(#clipPath1)" fill="none" x1="360" x2="363" y1="466" y2="466" stroke-dasharray="none" stroke="black"/>
<line clip-path="url(#clipPath1)" fill="none" x1="363" x2="367" y1="466" y2="466" stroke-dasharray="none" stroke="black"/>
<line clip-path="url(#clipPath1)" fill="none" x1="367" x2="371" y1="466" y2="466" stroke-dasharray="none" stroke="black"/>
<line clip-path="url(#clipPath1)" fill="none" x1="371" x2="375" y1="466" y2="466" stroke-dasharray="none" stroke="black"/>
<line clip-path="url(#clipPath1)" fill="none" x1="375" x2="379" y1="466" y2="466" stroke-dasharray="none" stroke="black"/>
<line clip-path="url(#clipPath1)" fill="none" x1="379" x2="383" y1="466" y2="466" stroke-dasharray="none" stroke="black"/>
<line clip-path="url(#clipPath1)" fill="none" x1="383" x2="387" y1="466" y2="466" stroke-dasharray="none" stroke="black"/>
<line clip-path="url(#clipPath1)" fill="none" x1="387" x2="391" y1="466" y2="466" stroke-dasharray="none" stroke="black"/>
<line clip-path="url(#clipPath1)" fill="none" x1="391" x2="395" y1="466" y2="466" stroke-dasharray="none" stroke="black"/>
<rect x="395" y="463" clip-path="url(#clipPath1)" fill="rgb(0,0,139)" width="4" stroke-dasharray="none" height="3" stroke="none"/>
<rect x="395" y="463" clip-path="url(#clipPath1)" fill="none" width="4" stroke-dasharray="none" height="3" stroke="black"/>
<line clip-path="url(#clipPath1)" fill="none" x1="399" x2="403" y1="466" y2="466" stroke-dasharray="none" stroke="black"/>
<line clip-path="url(#clipPath1)" fill="none" x1="403" x2="407" y1="466" y2="466" stroke-dasharray="none" stroke="black"/>
<line clip-path="url(#clipPath1)" fill="none" x1="407" x2="410" y1="466" y2="466" stroke-dasharray="none" stroke="black"/>
<line clip-path="url(#clipPath1)" fill="none" x1="410" x2="414" y1="466" y2="466" stroke-dasharray="none" stroke="black"/>
<line clip-path="url(#clipPath1)" fill="none" x1="414" x2="418" y1="466" y2="466" stroke-dasharray="none" stroke="black"/>
<line clip-path="url(#clipPath1)" fill="none" x1="418" x2="422" y1="466" y2="466" stroke-dasharray="none" stroke="black"/>
<line clip-path="url(#clipPath1)" fill="none" x1="422" x2="426" y1="466" y2="466" stroke-dasharray="none" stroke="black"/>
<line clip-path="url(#clipPath1)" fill="none" x1="426" x2="430" y1="466" y2="466" stroke-dasharray="none" stroke="black"/>
<line clip-path="url(#clipPath1)" fill="none" x1="430" x2="434" y1="466" y2="466" stroke-dasharray="none" stroke="black"/>
<line clip-path="url(#clipPath1)" fill="none" x1="434" x2="438" y1="466" y2="466" stroke-dasharray="none" stroke="black"/>
<line clip-path="url(#clipPath1)" fill="none" x1="438" x2="442" y1="466" y2="466" stroke-dasharray="none" stroke="black"/>
<rect x="442" y="463" clip-path="url(#clipPath1)" fill="rgb(0,0,139)" width="4" stroke-dasharray="none" height="3" stroke="none"/>
<rect x="442" y="463" clip-path="url(#clipPath1)" fill="none" width="4" stroke-dasharray="none" height="3" stroke="black"/>
<line clip-path="url(#clipPath1)" fill="none" x1="446" x2="450" y1="466" y2="466" stroke-dasharray="none" stroke="black"/>
<line clip-path="url(#clipPath1)" fill="none" x1="450" x2="454" y1="466" y2="466" stroke-dasharray="none" stroke="black"/>
<line clip-path="url(#clipPath1)" fill="none" x1="454" x2="457" y1="466" y2="466" stroke-dasharray="none" stroke="black"/>
<line clip-path="url(#clipPath1)" fill="none" x1="457" x2="461" y1="466" y2="466" stroke-dasharray="none" stroke="black"/>
<line clip-path="url(#clipPath1)" fill="none" x1="461" x2="465" y1="466" y2="466" stroke-dasharray="none" stroke="black"/>
<line clip-path="url(#clipPath1)" fill="none" x1="465" x2="469" y1="466" y2="466" stroke-dasharray="none" stroke="black"/>
<line clip-path="url(#clipPath1)" fill="none" x1="469" x2="473" y1="466" y2="466" stroke-dasharray="none" stroke="black"/>
<line clip-path="url(#clipPath1)" fill="none" x1="473" x2="477" y1="466" y2="466" stroke-dasharray="none" stroke="black"/>
<line clip-path="url(#clipPath1)" fill="none" x1="477" x2="481" y1="466" y2="466" stroke-dasharray="none" stroke="black"/>
<line clip-path="url(#clipPath1)" fill="none" x1="481" x2="485" y1="466" y2="466" stroke-dasharray="none" stroke="black"/>
<line clip-path="url(#clipPath1)" fill="none" x1="485" x2="489" y1="466" y2="466" stroke-dasharray="none" stroke="black"/>
<rect x="489" y="463" clip-path="url(#clipPath1)" fill="rgb(0,0,139)" width="4" stroke-dasharray="none" height="3" stroke="none"/>
<rect x="489" y="463" clip-path="url(#clipPath1)" fill="none" width="4" stroke-dasharray="none" height="3" stroke="black"/>
<line clip-path="url(#clipPath1)" fill="none" x1="493" x2="497" y1="466" y2="466" stroke-dasharray="none" stroke="black"/>
<line clip-path="url(#clipPath1)" fill="none" x1="497" x2="501" y1="466" y2="466" stroke-dasharray="none" stroke="black"/>
<line clip-path="url(#clipPath1)" fill="none" x1="501" x2="504" y1="466" y2="466" stroke-dasharray="none" stroke="black"/>
<line clip-path="url(#clipPath1)" fill="none" x1="504" x2="508" y1="466" y2="466" stroke-dasharray="none" stroke="black"/>
<line clip-path="url(#clipPath1)" fill="none" x1="508" x2="512" y1="466" y2="466" stroke-dasharray="none" stroke="black"/>
<line clip-path="url(#clipPath1)" fill="none" x1="512" x2="516" y1="466" y2="466" stroke-dasharray="none" stroke="black"/>
<line clip-path="url(#clipPath1)" fill="none" x1="516" x2="520" y1="466" y2="466" stroke-dasharray="none" stroke="black"/>
<line clip-path="url(#clipPath1)" fill="none" x1="520" x2="524" y1="466" y2="466" stroke-dasharray="none" stroke="black"/>
<line clip-path="url(#clipPath1)" fill="none" x1="524" x2="528" y1="466" y2="466" stroke-dasharray="none" stroke="black"/>
<line clip-path="url(#clipPath1)" fill="none" x1="528" x2="532" y1="466" y2="466" stroke-dasharray="none" stroke="black"/>
<line clip-path="url(#clipPath1)" fill="none" x1="532" x2="536" y1="466" y2="466" stroke-dasharray="none" stroke="black"/>
<line clip-path="url(#clipPath1)" fill="none" x1="536" x2="540" y1="466" y2="466" stroke-dasharray="none" stroke="black"/>
<rect x="540" y="463" clip-path="url(#clipPath1)" fill="rgb(0,0,139)" width="4" stroke-dasharray="none" height="3" stroke="none"/>
<rect x="540" y="463" clip-path="url(#clipPath1)" fill="none" width="4" stroke-dasharray="none" height="3" stroke="black"/>
<line clip-path="url(#clipPath1)" fill="none" x1="544" x2="547" y1="466" y2="466" stroke-dasharray="none" stroke="black"/>
<line clip-path="url(#clipPath1)" fill="none" x1="547" x2="551" y1="466" y2="466" stroke-dasharray="none" stroke="black"/>
<line clip-path="url(#clipPath1)" fill="none" x1="551" x2="555" y1="466" y2="466" stroke-dasharray="none" stroke="black"/>
<line clip-path="url(#clipPath1)" fill="none" x1="555" x2="559" y1="466" y2="466" stroke-dasharray="none" stroke="black"/>
<line clip-path="url(#clipPath1)" fill="none" x1="559" x2="563" y1="466" y2="466" stroke-dasharray="none" stroke="black"/>
<line clip-path="url(#clipPath1)" fill="none" x1="563" x2="567" y1="466" y2="466" stroke-dasharray="none" stroke="black"/>
<line clip-path="url(#clipPath1)" fill="none" x1="567" x2="571" y1="466" y2="466" stroke-dasharray="none" stroke="black"/>
<line clip-path="url(#clipPath1)" fill="none" x1="571" x2="575" y1="466" y2="466" stroke-dasharray="none" stroke="black"/>
<line clip-path="url(#clipPath1)" fill="none" x1="575" x2="579" y1="466" y2="466" stroke-dasharray="none" stroke="black"/>
<line clip-path="url(#clipPath1)" fill="none" x1="579" x2="583" y1="466" y2="466" stroke-dasharray="none" stroke="black"/>
<line clip-path="url(#clipPath1)" fill="none" x1="583" x2="587" y1="466" y2="466" stroke-dasharray="none" stroke="black"/>
<rect x="587" y="463" clip-path="url(#clipPath1)" fill="rgb(0,0,139)" width="4" stroke-dasharray="none" height="3" stroke="none"/>
<rect x="587" y="463" clip-path="url(#clipPath1)" fill="none" width="4" stroke-dasharray="none" height="3" stroke="black"/>
<line clip-path="url(#clipPath1)" fill="none" x1="591" x2="594" y1="466" y2="466" stroke-dasharray="none" stroke="black"/>
<line clip-path="url(#clipPath1)" fill="none" x1="594" x2="598" y1="466" y2="466" stroke-dasharray="none" stroke="black"/>
<line clip-path="url(#clipPath1)" fill="none" x1="598" x2="602" y1="466" y2="466" stroke-dasharray="none" stroke="black"/>
<line clip-path="url(#clipPath1)" fill="none" x1="602" x2="606" y1="466" y2="466" stroke-dasharray="none" stroke="black"/>
<line clip-path="url(#clipPath1)" fill="none" x1="606" x2="610" y1="466" y2="466" stroke-dasharray="none" stroke="black"/>
<line clip-path="url(#clipPath1)" fill="none" x1="610" x2="614" y1="466" y2="466" stroke-dasharray="none" stroke="black"/>
<line clip-path="url(#clipPath1)" fill="none" x1="614" x2="618" y1="466" y2="466" stroke-dasharray="none" stroke="black"/>
<line clip-path="url(#clipPath1)" fill="none" x1="618" x2="622" y1="466" y2="466" stroke-dasharray="none" stroke="black"/>
<line clip-path="url(#clipPath1)" fill="none" x1="622" x2="626" y1="466" y2="466" stroke-dasharray="none" stroke="black"/>
<line clip-path="url(#clipPath1)" fill="none" x1="626" x2="630" y1="466" y2="466" stroke-dasharray="none" stroke="black"/>
<line clip-path="url(#clipPath1)" fill="none" x1="630" x2="634" y1="466" y2="466" stroke-dasharray="none" stroke="black"/>
<rect x="634" y="463" clip-path="url(#clipPath1)" fill="rgb(0,0,139)" width="4" stroke-dasharray="none" height="3" stroke="none"/>
<rect x="634" y="463" clip-path="url(#clipPath1)" fill="none" width="4" stroke-dasharray="none" height="3" stroke="black"/>
<line clip-path="url(#clipPath1)" fill="none" x1="638" x2="641" y1="466" y2="466" stroke-dasharray="none" stroke="black"/>
<line clip-path="url(#clipPath1)" fill="none" x1="641" x2="645" y1="466" y2="466" stroke-dasharray="none" stroke="black"/>
<line clip-path="url(#clipPath1)" fill="none" x1="645" x2="649" y1="466" y2="466" stroke-dasharray="none" stroke="black"/>
<line clip-path="url(#clipPath1)" fill="none" x1="649" x2="653" y1="466" y2="466" stroke-dasharray="none" stroke="black"/>
<line clip-path="url(#clipPath1)" fill="none" x1="653" x2="657" y1="466" y2="466" stroke-dasharray="none" stroke="black"/>
<line clip-path="url(#clipPath1)" fill="none" x1="657" x2="661" y1="466" y2="466" stroke-dasharray="none" stroke="black"/>
<line clip-path="url(#clipPath1)" fill="none" x1="661" x2="665" y1="466" y2="466" stroke-dasharray="none" stroke="black"/>
<line clip-path="url(#clipPath1)" fill="none" x1="665" x2="669" y1="466" y2="466" stroke-dasharray="none" stroke="black"/>
<line clip-path="url(#clipPath1)" fill="none" x1="669" x2="673" y1="466" y2="466" stroke-dasharray="none" stroke="black"/>
<line clip-path="url(#clipPath1)" fill="none" x1="673" x2="677" y1="466" y2="466" stroke-dasharray="none" stroke="black"/>
<line clip-path="url(#clipPath1)" fill="none" x1="677" x2="681" y1="466" y2="466" stroke-dasharray="none" stroke="black"/>
<line clip-path="url(#clipPath1)" fill="none" x1="681" x2="685" y1="466" y2="466" stroke-dasharray="none" stroke="black"/>
<line clip-path="url(#clipPath1)" fill="none" x1="685" x2="688" y1="466" y2="466" stroke-dasharray="none" stroke="black"/>
<line clip-path="url(#clipPath1)" fill="none" x1="688" x2="692" y1="466" y2="466" stroke-dasharray="none" stroke="black"/>
<line clip-path="url(#clipPath1)" fill="none" x1="692" x2="696" y1="466" y2="466" stroke-dasharray="none" stroke="black"/>
<line clip-path="url(#clipPath1)" fill="none" x1="696" x2="700" y1="466" y2="466" stroke-dasharray="none" stroke="black"/>
<line clip-path="url(#clipPath1)" fill="none" x1="700" x2="704" y1="466" y2="466" stroke-dasharray="none" stroke="black"/>
<line clip-path="url(#clipPath1)" fill="none" x1="704" x2="708" y1="466" y2="466" stroke-dasharray="none" stroke="black"/>
<line clip-path="url(#clipPath1)" fill="none" x1="708" x2="712" y1="466" y2="466" stroke-dasharray="none" stroke="black"/>
<line clip-path="url(#clipPath1)" fill="none" x1="712" x2="716" y1="466" y2="466" stroke-dasharray="none" stroke="black"/>
<line clip-path="url(#clipPath1)" fill="none" x1="716" x2="720" y1="466" y2="466" stroke-dasharray="none" stroke="black"/>
<line clip-path="url(#clipPath1)" fill="none" x1="720" x2="724" y1="466" y2="466" stroke-dasharray="none" stroke="black"/>
<line clip-path="url(#clipPath1)" fill="none" x1="724" x2="728" y1="466" y2="466" stroke-dasharray="none" stroke="black"/>
<line clip-path="url(#clipPath1)" fill="none" x1="728" x2="732" y1="466" y2="466" stroke-dasharray="none" stroke="black"/>
<line clip-path="url(#clipPath1)" fill="none" x1="732" x2="735" y1="466" y2="466" stroke-dasharray="none" stroke="black"/>
<line clip-path="url(#clipPath1)" fill="none" x1="735" x2="739" y1="466" y2="466" stroke-dasharray="none" stroke="black"/>
<line clip-path="url(#clipPath1)" fill="none" x1="739" x2="743" y1="466" y2="466" stroke-dasharray="none" stroke="black"/>
<line clip-path="url(#clipPath1)" fill="none" x1="743" x2="747" y1="466" y2="466" stroke-dasharray="none" stroke="black"/>
<line clip-path="url(#clipPath1)" fill="none" x1="747" x2="751" y1="466" y2="466" stroke-dasharray="none" stroke="black"/>
<line clip-path="url(#clipPath1)" fill="none" x1="751" x2="755" y1="466" y2="466" stroke-dasharray="none" stroke="black"/>
<line clip-path="url(#clipPath1)" fill="none" x1="755" x2="759" y1="466" y2="466" stroke-dasharray="none" stroke="black"/>
<line clip-path="url(#clipPath1)" fill="none" x1="759" x2="763" y1="466" y2="466" stroke-dasharray="none" stroke="black"/>
<line clip-path="url(#clipPath1)" fill="none" x1="763" x2="767" y1="466" y2="466" stroke-dasharray="none" stroke="black"/>
<line clip-path="url(#clipPath1)" fill="none" x1="767" x2="771" y1="466" y2="466" stroke-dasharray="none" stroke="black"/>
<line clip-path="url(#clipPath1)" fill="none" x1="771" x2="775" y1="466" y2="466" stroke-dasharray="none" stroke="black"/>
<line clip-path="url(#clipPath1)" fill="none" x1="775" x2="779" y1="466" y2="466" stroke-dasharray="none" stroke="black"/>
<line clip-path="url(#clipPath1)" fill="none" x1="779" x2="782" y1="466" y2="466" stroke-dasharray="none" stroke="black"/>
<line clip-path="url(#clipPath1)" fill="none" x1="782" x2="786" y1="466" y2="466" stroke-dasharray="none" stroke="black"/>
<line clip-path="url(#clipPath1)" fill="none" x1="786" x2="790" y1="466" y2="466" stroke-dasharray="none" stroke="black"/>
<line clip-path="url(#clipPath1)" fill="none" x1="790" x2="794" y1="466" y2="466" stroke-dasharray="none" stroke="black"/>
<line clip-path="url(#clipPath1)" fill="none" x1="794" x2="798" y1="466" y2="466" stroke-dasharray="none" stroke="black"/>
<line clip-path="url(#clipPath1)" fill="none" x1="798" x2="802" y1="466" y2="466" stroke-dasharray="none" stroke="black"/>
<line clip-path="url(#clipPath1)" fill="none" x1="802" x2="806" y1="466" y2="466" stroke-dasharray="none" stroke="black"/>
<line clip-path="url(#clipPath1)" fill="none" x1="806" x2="810" y1="466" y2="466" stroke-dasharray="none" stroke="black"/>
<line clip-path="url(#clipPath1)" fill="none" x1="810" x2="814" y1="466" y2="466" stroke-dasharray="none" stroke="black"/>
<line clip-path="url(#clipPath1)" fill="none" x1="814" x2="818" y1="466" y2="466" stroke-dasharray="none" stroke="black"/>
<rect x="35" y="23" clip-path="url(#clipPath2)" fill="none" width="631" stroke-dasharray="none" height="443" stroke="black"/>
</g>
<g text-rendering="geometricPrecision" font-size="13" stroke-linecap="butt">
<line clip-path="url(#clipPath2)" fill="none" x1="35" x2="666" y1="21" y2="21"/>
<line clip-path="url(#clipPath2)" fill="none" x1="35" x2="666" y1="468" y2="468"/>
<line clip-path="url(#clipPath2)" fill="none" x1="35" x2="35" y1="17" y2="21"/>
<line clip-path="url(#clipPath2)" fill="none" x1="35" x2="35" y1="472" y2="468"/>
<text x="24" font-size="11" y="14" clip-path="url(#clipPath2)" stroke="none" xml:space="preserve">0.00</text>
<text x="24" font-size="11" y="484" clip-path="url(#clipPath2)" stroke="none" xml:space="preserve">0.00</text>
<line clip-path="url(#clipPath2)" fill="none" x1="49" x2="49" y1="19" y2="21"/>
<line clip-path="url(#clipPath2)" fill="none" x1="49" x2="49" y1="470" y2="468"/>
<line clip-path="url(#clipPath2)" fill="none" x1="63" x2="63" y1="19" y2="21"/>
<line clip-path="url(#clipPath2)" fill="none" x1="63" x2="63" y1="470" y2="468"/>
<line clip-path="url(#clipPath2)" fill="none" x1="78" x2="78" y1="19" y2="21"/>
<line clip-path="url(#clipPath2)" fill="none" x1="78" x2="78" y1="470" y2="468"/>
<line clip-path="url(#clipPath2)" fill="none" x1="92" x2="92" y1="19" y2="21"/>
<line clip-path="url(#clipPath2)" fill="none" x1="92" x2="92" y1="470" y2="468"/>
<line clip-path="url(#clipPath2)" fill="none" x1="107" x2="107" y1="17" y2="21"/>
<line clip-path="url(#clipPath2)" fill="none" x1="107" x2="107" y1="472" y2="468"/>
<text x="93" font-size="11" y="14" clip-path="url(#clipPath2)" stroke="none" xml:space="preserve">0.010</text>
<text x="93" font-size="11" y="484" clip-path="url(#clipPath2)" stroke="none" xml:space="preserve">0.010</text>
<line clip-path="url(#clipPath2)" fill="none" x1="121" x2="121" y1="19" y2="21"/>
<line clip-path="url(#clipPath2)" fill="none" x1="121" x2="121" y1="470" y2="468"/>
<line clip-path="url(#clipPath2)" fill="none" x1="136" x2="136" y1="19" y2="21"/>
<line clip-path="url(#clipPath2)" fill="none" x1="136" x2="136" y1="470" y2="468"/>
<line clip-path="url(#clipPath2)" fill="none" x1="150" x2="150" y1="19" y2="21"/>
<line clip-path="url(#clipPath2)" fill="none" x1="150" x2="150" y1="470" y2="468"/>
<line clip-path="url(#clipPath2)" fill="none" x1="165" x2="165" y1="19" y2="21"/>
<line clip-path="url(#clipPath2)" fill="none" x1="165" x2="165" y1="470" y2="468"/>
<line clip-path="url(#clipPath2)" fill="none" x1="179" x2="179" y1="17" y2="21"/>
<line clip-path="url(#clipPath2)" fill="none" x1="179" x2="179" y1="472" y2="468"/>
<text x="165" font-size="11" y="14" clip-path="url(#clipPath2)" stroke="none" xml:space="preserve">0.020</text>
<text x="165" font-size="11" y="484" clip-path="url(#clipPath2)" stroke="none" xml:space="preserve">0.020</text>
<line clip-path="url(#clipPath2)" fill="none" x1="193" x2="193" y1="19" y2="21"/>
<line clip-path="url(#clipPath2)" fill="none" x1="193" x2="193" y1="470" y2="468"/>
<line clip-path="url(#clipPath2)" fill="none" x1="208" x2="208" y1="19" y2="21"/>
<line clip-path="url(#clipPath2)" fill="none" x1="208" x2="208" y1="470" y2="468"/>
<line clip-path="url(#clipPath2)" fill="none" x1="222" x2="222" y1="19" y2="21"/>
<line clip-path="url(#clipPath2)" fill="none" x1="222" x2="222" y1="470" y2="468"/>
<line clip-path="url(#clipPath2)" fill="none" x1="237" x2="237" y1="19" y2="21"/>
<line clip-path="url(#clipPath2)" fill="none" x1="237" x2="237" y1="470" y2="468"/>
<line clip-path="url(#clipPath2)" fill="none" x1="251" x2="251" y1="17" y2="21"/>
<line clip-path="url(#clipPath2)" fill="none" x1="251" x2="251" y1="472" y2="468"/>
<text x="237" font-size="11" y="14" clip-path="url(#clipPath2)" stroke="none" xml:space="preserve">0.030</text>
<text x="237" font-size="11" y="484" clip-path="url(#clipPath2)" stroke="none" xml:space="preserve">0.030</text>
<line clip-path="url(#clipPath2)" fill="none" x1="266" x2="266" y1="19" y2="21"/>
<line clip-path="url(#clipPath2)" fill="none" x1="266" x2="266" y1="470" y2="468"/>
<line clip-path="url(#clipPath2)" fill="none" x1="280" x2="280" y1="19" y2="21"/>
<line clip-path="url(#clipPath2)" fill="none" x1="280" x2="280" y1="470" y2="468"/>
<line clip-path="url(#clipPath2)" fill="none" x1="295" x2="295" y1="19" y2="21"/>
<line clip-path="url(#clipPath2)" fill="none" x1="295" x2="295" y1="470" y2="468"/>
<line clip-path="url(#clipPath2)" fill="none" x1="309" x2="309" y1="19" y2="21"/>
<line clip-path="url(#clipPath2)" fill="none" x1="309" x2="309" y1="470" y2="468"/>
<line clip-path="url(#clipPath2)" fill="none" x1="324" x2="324" y1="17" y2="21"/>
<line clip-path="url(#clipPath2)" fill="none" x1="324" x2="324" y1="472" y2="468"/>
<text x="310" font-size="11" y="14" clip-path="url(#clipPath2)" stroke="none" xml:space="preserve">0.040</text>
<text x="310" font-size="11" y="484" clip-path="url(#clipPath2)" stroke="none" xml:space="preserve">0.040</text>
<line clip-path="url(#clipPath2)" fill="none" x1="338" x2="338" y1="19" y2="21"/>
<line clip-path="url(#clipPath2)" fill="none" x1="338" x2="338" y1="470" y2="468"/>
<line clip-path="url(#clipPath2)" fill="none" x1="352" x2="352" y1="19" y2="21"/>
<line clip-path="url(#clipPath2)" fill="none" x1="352" x2="352" y1="470" y2="468"/>
<line clip-path="url(#clipPath2)" fill="none" x1="367" x2="367" y1="19" y2="21"/>
<line clip-path="url(#clipPath2)" fill="none" x1="367" x2="367" y1="470" y2="468"/>
<line clip-path="url(#clipPath2)" fill="none" x1="381" x2="381" y1="19" y2="21"/>
<line clip-path="url(#clipPath2)" fill="none" x1="381" x2="381" y1="470" y2="468"/>
<line clip-path="url(#clipPath2)" fill="none" x1="396" x2="396" y1="17" y2="21"/>
<line clip-path="url(#clipPath2)" fill="none" x1="396" x2="396" y1="472" y2="468"/>
<text x="382" font-size="11" y="14" clip-path="url(#clipPath2)" stroke="none" xml:space="preserve">0.050</text>
<text x="382" font-size="11" y="484" clip-path="url(#clipPath2)" stroke="none" xml:space="preserve">0.050</text>
<line clip-path="url(#clipPath2)" fill="none" x1="410" x2="410" y1="19" y2="21"/>
<line clip-path="url(#clipPath2)" fill="none" x1="410" x2="410" y1="470" y2="468"/>
<line clip-path="url(#clipPath2)" fill="none" x1="425" x2="425" y1="19" y2="21"/>
<line clip-path="url(#clipPath2)" fill="none" x1="425" x2="425" y1="470" y2="468"/>
<line clip-path="url(#clipPath2)" fill="none" x1="439" x2="439" y1="19" y2="21"/>
<line clip-path="url(#clipPath2)" fill="none" x1="439" x2="439" y1="470" y2="468"/>
<line clip-path="url(#clipPath2)" fill="none" x1="454" x2="454" y1="19" y2="21"/>
<line clip-path="url(#clipPath2)" fill="none" x1="454" x2="454" y1="470" y2="468"/>
<line clip-path="url(#clipPath2)" fill="none" x1="468" x2="468" y1="17" y2="21"/>
<line clip-path="url(#clipPath2)" fill="none" x1="468" x2="468" y1="472" y2="468"/>
<text x="454" font-size="11" y="14" clip-path="url(#clipPath2)" stroke="none" xml:space="preserve">0.060</text>
<text x="454" font-size="11" y="484" clip-path="url(#clipPath2)" stroke="none" xml:space="preserve">0.060</text>
<line clip-path="url(#clipPath2)" fill="none" x1="482" x2="482" y1="19" y2="21"/>
<line clip-path="url(#clipPath2)" fill="none" x1="482" x2="482" y1="470" y2="468"/>
<line clip-path="url(#clipPath2)" fill="none" x1="497" x2="497" y1="19" y2="21"/>
<line clip-path="url(#clipPath2)" fill="none" x1="497" x2="497" y1="470" y2="468"/>
<line clip-path="url(#clipPath2)" fill="none" x1="511" x2="511" y1="19" y2="21"/>
<line clip-path="url(#clipPath2)" fill="none" x1="511" x2="511" y1="470" y2="468"/>
<line clip-path="url(#clipPath2)" fill="none" x1="526" x2="526" y1="19" y2="21"/>
<line clip-path="url(#clipPath2)" fill="none" x1="526" x2="526" y1="470" y2="468"/>
<line clip-path="url(#clipPath2)" fill="none" x1="540" x2="540" y1="17" y2="21"/>
<line clip-path="url(#clipPath2)" fill="none" x1="540" x2="540" y1="472" y2="468"/>
<text x="526" font-size="11" y="14" clip-path="url(#clipPath2)" stroke="none" xml:space="preserve">0.070</text>
<text x="526" font-size="11" y="484" clip-path="url(#clipPath2)" stroke="none" xml:space="preserve">0.070</text>
<line clip-path="url(#clipPath2)" fill="none" x1="555" x2="555" y1="19" y2="21"/>
<line clip-path="url(#clipPath2)" fill="none" x1="555" x2="555" y1="470" y2="468"/>
<line clip-path="url(#clipPath2)" fill="none" x1="569" x2="569" y1="19" y2="21"/>
<line clip-path="url(#clipPath2)" fill="none" x1="569" x2="569" y1="470" y2="468"/>
<line clip-path="url(#clipPath2)" fill="none" x1="584" x2="584" y1="19" y2="21"/>
<line clip-path="url(#clipPath2)" fill="none" x1="584" x2="584" y1="470" y2="468"/>
<line clip-path="url(#clipPath2)" fill="none" x1="598" x2="598" y1="19" y2="21"/>
<line clip-path="url(#clipPath2)" fill="none" x1="598" x2="598" y1="470" y2="468"/>
<line clip-path="url(#clipPath2)" fill="none" x1="613" x2="613" y1="17" y2="21"/>
<line clip-path="url(#clipPath2)" fill="none" x1="613" x2="613" y1="472" y2="468"/>
<text x="599" font-size="11" y="14" clip-path="url(#clipPath2)" stroke="none" xml:space="preserve">0.080</text>
<text x="599" font-size="11" y="484" clip-path="url(#clipPath2)" stroke="none" xml:space="preserve">0.080</text>
<line clip-path="url(#clipPath2)" fill="none" x1="627" x2="627" y1="19" y2="21"/>
<line clip-path="url(#clipPath2)" fill="none" x1="627" x2="627" y1="470" y2="468"/>
<line clip-path="url(#clipPath2)" fill="none" x1="641" x2="641" y1="19" y2="21"/>
<line clip-path="url(#clipPath2)" fill="none" x1="641" x2="641" y1="470" y2="468"/>
<line clip-path="url(#clipPath2)" fill="none" x1="656" x2="656" y1="19" y2="21"/>
<line clip-path="url(#clipPath2)" fill="none" x1="656" x2="656" y1="470" y2="468"/>
<line clip-path="url(#clipPath2)" fill="none" x1="33" x2="33" y1="23" y2="466"/>
<line clip-path="url(#clipPath2)" fill="none" x1="668" x2="668" y1="23" y2="466"/>
<line clip-path="url(#clipPath2)" fill="none" x1="29" x2="33" y1="466" y2="466"/>
<line clip-path="url(#clipPath2)" fill="none" x1="672" x2="668" y1="466" y2="466"/>
<text x="22" font-size="11" y="471" clip-path="url(#clipPath2)" stroke="none" xml:space="preserve">0</text>
<text x="675" font-size="11" y="471" clip-path="url(#clipPath2)" stroke="none" xml:space="preserve">0</text>
<line clip-path="url(#clipPath2)" fill="none" x1="31" x2="33" y1="429" y2="429"/>
<line clip-path="url(#clipPath2)" fill="none" x1="670" x2="668" y1="429" y2="429"/>
<line clip-path="url(#clipPath2)" fill="none" x1="29" x2="33" y1="392" y2="392"/>
<line clip-path="url(#clipPath2)" fill="none" x1="672" x2="668" y1="392" y2="392"/>
<text x="16" font-size="11" y="397" clip-path="url(#clipPath2)" stroke="none" xml:space="preserve">20</text>
<text x="675" font-size="11" y="397" clip-path="url(#clipPath2)" stroke="none" xml:space="preserve">20</text>
<line clip-path="url(#clipPath2)" fill="none" x1="31" x2="33" y1="355" y2="355"/>
<line clip-path="url(#clipPath2)" fill="none" x1="670" x2="668" y1="355" y2="355"/>
<line clip-path="url(#clipPath2)" fill="none" x1="29" x2="33" y1="318" y2="318"/>
<line clip-path="url(#clipPath2)" fill="none" x1="672" x2="668" y1="318" y2="318"/>
<text x="16" font-size="11" y="323" clip-path="url(#clipPath2)" stroke="none" xml:space="preserve">40</text>
<text x="675" font-size="11" y="323" clip-path="url(#clipPath2)" stroke="none" xml:space="preserve">40</text>
<line clip-path="url(#clipPath2)" fill="none" x1="31" x2="33" y1="281" y2="281"/>
<line clip-path="url(#clipPath2)" fill="none" x1="670" x2="668" y1="281" y2="281"/>
<line clip-path="url(#clipPath2)" fill="none" x1="29" x2="33" y1="244" y2="244"/>
<line clip-path="url(#clipPath2)" fill="none" x1="672" x2="668" y1="244" y2="244"/>
<text x="16" font-size="11" y="249" clip-path="url(#clipPath2)" stroke="none" xml:space="preserve">60</text>
<text x="675" font-size="11" y="249" clip-path="url(#clipPath2)" stroke="none" xml:space="preserve">60</text>
<line clip-path="url(#clipPath2)" fill="none" x1="31" x2="33" y1="207" y2="207"/>
<line clip-path="url(#clipPath2)" fill="none" x1="670" x2="668" y1="207" y2="207"/>
<line clip-path="url(#clipPath2)" fill="none" x1="29" x2="33" y1="170" y2="170"/>
<line clip-path="url(#clipPath2)" fill="none" x1="672" x2="668" y1="170" y2="170"/>
<text x="16" font-size="11" y="175" clip-path="url(#clipPath2)" stroke="none" xml:space="preserve">80</text>
<text x="675" font-size="11" y="175" clip-path="url(#clipPath2)" stroke="none" xml:space="preserve">80</text>
<line clip-path="url(#clipPath2)" fill="none" x1="31" x2="33" y1="133" y2="133"/>
<line clip-path="url(#clipPath2)" fill="none" x1="670" x2="668" y1="133" y2="133"/>
<line clip-path="url(#clipPath2)" fill="none" x1="29" x2="33" y1="96" y2="96"/>
<line clip-path="url(#clipPath2)" fill="none" x1="672" x2="668" y1="96" y2="96"/>
<text x="10" font-size="11" y="101" clip-path="url(#clipPath2)" stroke="none" xml:space="preserve">100</text>
<text x="675" font-size="11" y="101" clip-path="url(#clipPath2)" stroke="none" xml:space="preserve">100</text>
<line clip-path="url(#clipPath2)" fill="none" x1="31" x2="33" y1="59" y2="59"/>
<line clip-path="url(#clipPath2)" fill="none" x1="670" x2="668" y1="59" y2="59"/>
</g>
</g>
</svg>
