<?xml version="1.0" encoding="UTF-8"?><svg xmlns="http://www.w3.org/2000/svg" xmlns:xlink="http://www.w3.org/1999/xlink" stroke-dasharray="none" shape-rendering="auto" font-family="'Dialog'" width="714" text-rendering="auto" fill-opacity="1" contentScriptType="text/ecmascript" color-interpolation="auto" color-rendering="auto" preserveAspectRatio="xMidYMid meet" font-size="12" fill="black" stroke="black" image-rendering="auto" stroke-miterlimit="10" zoomAndPan="magnify" version="1.0" stroke-linecap="square" stroke-linejoin="miter" contentStyleType="text/css" font-style="normal" height="489" stroke-width="1" stroke-dashoffset="0" font-weight="normal" stroke-opacity="1">
<!--Generated by the Batik Graphics2D SVG Generator-->
<defs id="genericDefs"/>
<g>
<defs id="defs1">
<clipPath clipPathUnits="userSpaceOnUse" id="clipPath1">
<path d="M27 22 L687 22 L687 467 L27 467 L27 22 Z"/>
</clipPath>
<clipPath clipPathUnits="userSpaceOnUse" id="clipPath2">
<path d="M-1 -1 L715 -1 L715 490 L-1 490 L-1 -1 Z"/>
</clipPath>
</defs>
<g font-size="15" fill="white" text-rendering="geometricPrecision" font-family="'Cantarell'" stroke-linejoin="round" stroke="white" stroke-width="0" stroke-miterlimit="0">
<rect x="28" y="23" clip-path="url(#clipPath1)" width="658" height="443" stroke="none"/>
</g>
<g stroke-linecap="butt" font-size="15" fill="rgb(204,204,204)" text-rendering="geometricPrecision" font-family="'Cantarell'" stroke-dasharray="3,3" stroke="rgb(204,204,204)">
<line clip-path="url(#clipPath1)" fill="none" x1="28" x2="686" y1="466" y2="466"/>
<line clip-path="url(#clipPath1)" fill="none" x1="28" x2="686" y1="399" y2="399"/>
<line clip-path="url(#clipPath1)" fill="none" x1="28" x2="686" y1="333" y2="333"/>
<line clip-path="url(#clipPath1)" fill="none" x1="28" x2="686" y1="266" y2="266"/>
<line clip-path="url(#clipPath1)" fill="none" x1="28" x2="686" y1="200" y2="200"/>
<line clip-path="url(#clipPath1)" fill="none" x1="28" x2="686" y1="133" y2="133"/>
<line clip-path="url(#clipPath1)" fill="none" x1="28" x2="686" y1="67" y2="67"/>
<line clip-path="url(#clipPath1)" fill="none" x1="-843" x2="-834" y1="466" y2="466" stroke-dasharray="none" stroke="black"/>
<line clip-path="url(#clipPath1)" fill="none" x1="-834" x2="-825" y1="466" y2="466" stroke-dasharray="none" stroke="black"/>
<line clip-path="url(#clipPath1)" fill="none" x1="-825" x2="-816" y1="466" y2="466" stroke-dasharray="none" stroke="black"/>
<line clip-path="url(#clipPath1)" fill="none" x1="-816" x2="-807" y1="466" y2="466" stroke-dasharray="none" stroke="black"/>
<line clip-path="url(#clipPath1)" fill="none" x1="-807" x2="-798" y1="466" y2="466" stroke-dasharray="none" stroke="black"/>
<line clip-path="url(#clipPath1)" fill="none" x1="-798" x2="-790" y1="466" y2="466" stroke-dasharray="none" stroke="black"/>
<line clip-path="url(#clipPath1)" fill="none" x1="-790" x2="-781" y1="466" y2="466" stroke-dasharray="none" stroke="black"/>
<line clip-path="url(#clipPath1)" fill="none" x1="-781" x2="-772" y1="466" y2="466" stroke-dasharray="none" stroke="black"/>
<line clip-path="url(#clipPath1)" fill="none" x1="-772" x2="-763" y1="466" y2="466" stroke-dasharray="none" stroke="black"/>
<line clip-path="url(#clipPath1)" fill="none" x1="-763" x2="-754" y1="466" y2="466" stroke-dasharray="none" stroke="black"/>
<line clip-path="url(#clipPath1)" fill="none" x1="-754" x2="-745" y1="466" y2="466" stroke-dasharray="none" stroke="black"/>
<line clip-path="url(#clipPath1)" fill="none" x1="-745" x2="-737" y1="466" y2="466" stroke-dasharray="none" stroke="black"/>
<line clip-path="url(#clipPath1)" fill="none" x1="-737" x2="-728" y1="466" y2="466" stroke-dasharray="none" stroke="black"/>
<line clip-path="url(#clipPath1)" fill="none" x1="-728" x2="-719" y1="466" y2="466" stroke-dasharray="none" stroke="black"/>
<line clip-path="url(#clipPath1)" fill="none" x1="-719" x2="-710" y1="466" y2="466" stroke-dasharray="none" stroke="black"/>
<line clip-path="url(#clipPath1)" fill="none" x1="-710" x2="-701" y1="466" y2="466" stroke-dasharray="none" stroke="black"/>
<line clip-path="url(#clipPath1)" fill="none" x1="-701" x2="-692" y1="466" y2="466" stroke-dasharray="none" stroke="black"/>
<line clip-path="url(#clipPath1)" fill="none" x1="-692" x2="-684" y1="466" y2="466" stroke-dasharray="none" stroke="black"/>
<line clip-path="url(#clipPath1)" fill="none" x1="-684" x2="-675" y1="466" y2="466" stroke-dasharray="none" stroke="black"/>
<line clip-path="url(#clipPath1)" fill="none" x1="-675" x2="-666" y1="466" y2="466" stroke-dasharray="none" stroke="black"/>
<line clip-path="url(#clipPath1)" fill="none" x1="-666" x2="-657" y1="466" y2="466" stroke-dasharray="none" stroke="black"/>
<line clip-path="url(#clipPath1)" fill="none" x1="-657" x2="-648" y1="466" y2="466" stroke-dasharray="none" stroke="black"/>
<line clip-path="url(#clipPath1)" fill="none" x1="-648" x2="-639" y1="466" y2="466" stroke-dasharray="none" stroke="black"/>
<line clip-path="url(#clipPath1)" fill="none" x1="-639" x2="-631" y1="466" y2="466" stroke-dasharray="none" stroke="black"/>
<line clip-path="url(#clipPath1)" fill="none" x1="-631" x2="-622" y1="466" y2="466" stroke-dasharray="none" stroke="black"/>
<line clip-path="url(#clipPath1)" fill="none" x1="-622" x2="-613" y1="466" y2="466" stroke-dasharray="none" stroke="black"/>
<line clip-path="url(#clipPath1)" fill="none" x1="-613" x2="-604" y1="466" y2="466" stroke-dasharray="none" stroke="black"/>
<line clip-path="url(#clipPath1)" fill="none" x1="-604" x2="-595" y1="466" y2="466" stroke-dasharray="none" stroke="black"/>
<line clip-path="url(#clipPath1)" fill="none" x1="-595" x2="-587" y1="466" y2="466" stroke-dasharray="none" stroke="black"/>
<line clip-path="url(#clipPath1)" fill="none" x1="-587" x2="-578" y1="466" y2="466" stroke-dasharray="none" stroke="black"/>
<line clip-path="url(#clipPath1)" fill="none" x1="-578" x2="-569" y1="466" y2="466" stroke-dasharray="none" stroke="black"/>
<line clip-path="url(#clipPath1)" fill="none" x1="-569" x2="-560" y1="466" y2="466" stroke-dasharray="none" stroke="black"/>
<line clip-path="url(#clipPath1)" fill="none" x1="-560" x2="-551" y1="466" y2="466" stroke-dasharray="none" stroke="black"/>
<line clip-path="url(#clipPath1)" fill="none" x1="-551" x2="-542" y1="466" y2="466" stroke-dasharray="none" stroke="black"/>
<line clip-path="url(#clipPath1)" fill="none" x1="-542" x2="-534" y1="466" y2="466" stroke-dasharray="none" stroke="black"/>
<line clip-path="url(#clipPath1)" fill="none" x1="-534" x2="-525" y1="466" y2="466" stroke-dasharray="none" stroke="black"/>
<line clip-path="url(#clipPath1)" fill="none" x1="-525" x2="-516" y1="466" y2="466" stroke-dasharray="none" stroke="black"/>
<line clip-path="url(#clipPath1)" fill="none" x1="-516" x2="-507" y1="466" y2="466" stroke-dasharray="none" stroke="black"/>
<line clip-path="url(#clipPath1)" fill="none" x1="-507" x2="-498" y1="466" y2="466" stroke-dasharray="none" stroke="black"/>
<line clip-path="url(#clipPath1)" fill="none" x1="-498" x2="-489" y1="466" y2="466" stroke-dasharray="none" stroke="black"/>
<line clip-path="url(#clipPath1)" fill="none" x1="-489" x2="-481" y1="466" y2="466" stroke-dasharray="none" stroke="black"/>
<line clip-path="url(#clipPath1)" fill="none" x1="-481" x2="-472" y1="466" y2="466" stroke-dasharray="none" stroke="black"/>
<line clip-path="url(#clipPath1)" fill="none" x1="-472" x2="-463" y1="466" y2="466" stroke-dasharray="none" stroke="black"/>
<line clip-path="url(#clipPath1)" fill="none" x1="-463" x2="-454" y1="466" y2="466" stroke-dasharray="none" stroke="black"/>
<line clip-path="url(#clipPath1)" fill="none" x1="-454" x2="-445" y1="466" y2="466" stroke-dasharray="none" stroke="black"/>
<line clip-path="url(#clipPath1)" fill="none" x1="-445" x2="-436" y1="466" y2="466" stroke-dasharray="none" stroke="black"/>
<line clip-path="url(#clipPath1)" fill="none" x1="-436" x2="-428" y1="466" y2="466" stroke-dasharray="none" stroke="black"/>
<line clip-path="url(#clipPath1)" fill="none" x1="-428" x2="-419" y1="466" y2="466" stroke-dasharray="none" stroke="black"/>
<line clip-path="url(#clipPath1)" fill="none" x1="-419" x2="-410" y1="466" y2="466" stroke-dasharray="none" stroke="black"/>
<line clip-path="url(#clipPath1)" fill="none" x1="-410" x2="-401" y1="466" y2="466" stroke-dasharray="none" stroke="black"/>
<line clip-path="url(#clipPath1)" fill="none" x1="-401" x2="-392" y1="466" y2="466" stroke-dasharray="none" stroke="black"/>
<line clip-path="url(#clipPath1)" fill="none" x1="-392" x2="-384" y1="466" y2="466" stroke-dasharray="none" stroke="black"/>
<line clip-path="url(#clipPath1)" fill="none" x1="-384" x2="-375" y1="466" y2="466" stroke-dasharray="none" stroke="black"/>
<line clip-path="url(#clipPath1)" fill="none" x1="-375" x2="-366" y1="466" y2="466" stroke-dasharray="none" stroke="black"/>
<line clip-path="url(#clipPath1)" fill="none" x1="-366" x2="-357" y1="466" y2="466" stroke-dasharray="none" stroke="black"/>
<line clip-path="url(#clipPath1)" fill="none" x1="-357" x2="-348" y1="466" y2="466" stroke-dasharray="none" stroke="black"/>
<line clip-path="url(#clipPath1)" fill="none" x1="-348" x2="-339" y1="466" y2="466" stroke-dasharray="none" stroke="black"/>
<line clip-path="url(#clipPath1)" fill="none" x1="-339" x2="-331" y1="466" y2="466" stroke-dasharray="none" stroke="black"/>
<line clip-path="url(#clipPath1)" fill="none" x1="-331" x2="-322" y1="466" y2="466" stroke-dasharray="none" stroke="black"/>
<line clip-path="url(#clipPath1)" fill="none" x1="-322" x2="-313" y1="466" y2="466" stroke-dasharray="none" stroke="black"/>
<line clip-path="url(#clipPath1)" fill="none" x1="-313" x2="-304" y1="466" y2="466" stroke-dasharray="none" stroke="black"/>
<line clip-path="url(#clipPath1)" fill="none" x1="-304" x2="-295" y1="466" y2="466" stroke-dasharray="none" stroke="black"/>
<line clip-path="url(#clipPath1)" fill="none" x1="-295" x2="-286" y1="466" y2="466" stroke-dasharray="none" stroke="black"/>
<line clip-path="url(#clipPath1)" fill="none" x1="-286" x2="-278" y1="466" y2="466" stroke-dasharray="none" stroke="black"/>
<line clip-path="url(#clipPath1)" fill="none" x1="-278" x2="-269" y1="466" y2="466" stroke-dasharray="none" stroke="black"/>
<line clip-path="url(#clipPath1)" fill="none" x1="-269" x2="-260" y1="466" y2="466" stroke-dasharray="none" stroke="black"/>
<line clip-path="url(#clipPath1)" fill="none" x1="-260" x2="-251" y1="466" y2="466" stroke-dasharray="none" stroke="black"/>
<line clip-path="url(#clipPath1)" fill="none" x1="-251" x2="-242" y1="466" y2="466" stroke-dasharray="none" stroke="black"/>
<line clip-path="url(#clipPath1)" fill="none" x1="-242" x2="-233" y1="466" y2="466" stroke-dasharray="none" stroke="black"/>
<line clip-path="url(#clipPath1)" fill="none" x1="-233" x2="-225" y1="466" y2="466" stroke-dasharray="none" stroke="black"/>
<line clip-path="url(#clipPath1)" fill="none" x1="-225" x2="-216" y1="466" y2="466" stroke-dasharray="none" stroke="black"/>
<line clip-path="url(#clipPath1)" fill="none" x1="-216" x2="-207" y1="466" y2="466" stroke-dasharray="none" stroke="black"/>
<line clip-path="url(#clipPath1)" fill="none" x1="-207" x2="-198" y1="466" y2="466" stroke-dasharray="none" stroke="black"/>
<line clip-path="url(#clipPath1)" fill="none" x1="-198" x2="-189" y1="466" y2="466" stroke-dasharray="none" stroke="black"/>
<line clip-path="url(#clipPath1)" fill="none" x1="-189" x2="-181" y1="466" y2="466" stroke-dasharray="none" stroke="black"/>
<line clip-path="url(#clipPath1)" fill="none" x1="-181" x2="-172" y1="466" y2="466" stroke-dasharray="none" stroke="black"/>
<line clip-path="url(#clipPath1)" fill="none" x1="-172" x2="-163" y1="466" y2="466" stroke-dasharray="none" stroke="black"/>
<line clip-path="url(#clipPath1)" fill="none" x1="-163" x2="-154" y1="466" y2="466" stroke-dasharray="none" stroke="black"/>
<line clip-path="url(#clipPath1)" fill="none" x1="-154" x2="-145" y1="466" y2="466" stroke-dasharray="none" stroke="black"/>
<line clip-path="url(#clipPath1)" fill="none" x1="-145" x2="-136" y1="466" y2="466" stroke-dasharray="none" stroke="black"/>
<line clip-path="url(#clipPath1)" fill="none" x1="-136" x2="-128" y1="466" y2="466" stroke-dasharray="none" stroke="black"/>
<line clip-path="url(#clipPath1)" fill="none" x1="-128" x2="-119" y1="466" y2="466" stroke-dasharray="none" stroke="black"/>
<line clip-path="url(#clipPath1)" fill="none" x1="-119" x2="-110" y1="466" y2="466" stroke-dasharray="none" stroke="black"/>
<line clip-path="url(#clipPath1)" fill="none" x1="-110" x2="-101" y1="466" y2="466" stroke-dasharray="none" stroke="black"/>
<line clip-path="url(#clipPath1)" fill="none" x1="-101" x2="-92" y1="466" y2="466" stroke-dasharray="none" stroke="black"/>
<line clip-path="url(#clipPath1)" fill="none" x1="-92" x2="-83" y1="466" y2="466" stroke-dasharray="none" stroke="black"/>
<line clip-path="url(#clipPath1)" fill="none" x1="-83" x2="-75" y1="466" y2="466" stroke-dasharray="none" stroke="black"/>
<line clip-path="url(#clipPath1)" fill="none" x1="-75" x2="-66" y1="466" y2="466" stroke-dasharray="none" stroke="black"/>
<line clip-path="url(#clipPath1)" fill="none" x1="-66" x2="-57" y1="466" y2="466" stroke-dasharray="none" stroke="black"/>
<line clip-path="url(#clipPath1)" fill="none" x1="-57" x2="-48" y1="466" y2="466" stroke-dasharray="none" stroke="black"/>
<line clip-path="url(#clipPath1)" fill="none" x1="-48" x2="-39" y1="466" y2="466" stroke-dasharray="none" stroke="black"/>
<line clip-path="url(#clipPath1)" fill="none" x1="-39" x2="-30" y1="466" y2="466" stroke-dasharray="none" stroke="black"/>
<line clip-path="url(#clipPath1)" fill="none" x1="-30" x2="-22" y1="466" y2="466" stroke-dasharray="none" stroke="black"/>
<line clip-path="url(#clipPath1)" fill="none" x1="-22" x2="-13" y1="466" y2="466" stroke-dasharray="none" stroke="black"/>
<line clip-path="url(#clipPath1)" fill="none" x1="-13" x2="-4" y1="466" y2="466" stroke-dasharray="none" stroke="black"/>
<line clip-path="url(#clipPath1)" fill="none" x1="-4" x2="4" y1="466" y2="466" stroke-dasharray="none" stroke="black"/>
<line clip-path="url(#clipPath1)" fill="none" x1="4" x2="13" y1="466" y2="466" stroke-dasharray="none" stroke="black"/>
<line clip-path="url(#clipPath1)" fill="none" x1="13" x2="21" y1="466" y2="466" stroke-dasharray="none" stroke="black"/>
<line clip-path="url(#clipPath1)" fill="none" x1="21" x2="30" y1="466" y2="466" stroke-dasharray="none" stroke="black"/>
<line clip-path="url(#clipPath1)" fill="none" x1="30" x2="39" y1="466" y2="466" stroke-dasharray="none" stroke="black"/>
<line clip-path="url(#clipPath1)" fill="none" x1="39" x2="48" y1="466" y2="466" stroke-dasharray="none" stroke="black"/>
<line clip-path="url(#clipPath1)" fill="none" x1="48" x2="57" y1="466" y2="466" stroke-dasharray="none" stroke="black"/>
<line clip-path="url(#clipPath1)" fill="none" x1="57" x2="66" y1="466" y2="466" stroke-dasharray="none" stroke="black"/>
<line clip-path="url(#clipPath1)" fill="none" x1="66" x2="74" y1="466" y2="466" stroke-dasharray="none" stroke="black"/>
<line clip-path="url(#clipPath1)" fill="none" x1="74" x2="83" y1="466" y2="466" stroke-dasharray="none" stroke="black"/>
<line clip-path="url(#clipPath1)" fill="none" x1="83" x2="92" y1="466" y2="466" stroke-dasharray="none" stroke="black"/>
<line clip-path="url(#clipPath1)" fill="none" x1="92" x2="101" y1="466" y2="466" stroke-dasharray="none" stroke="black"/>
<line clip-path="url(#clipPath1)" fill="none" x1="101" x2="110" y1="466" y2="466" stroke-dasharray="none" stroke="black"/>
<line clip-path="url(#clipPath1)" fill="none" x1="110" x2="119" y1="466" y2="466" stroke-dasharray="none" stroke="black"/>
<line clip-path="url(#clipPath1)" fill="none" x1="119" x2="127" y1="466" y2="466" stroke-dasharray="none" stroke="black"/>
<line clip-path="url(#clipPath1)" fill="none" x1="127" x2="136" y1="466" y2="466" stroke-dasharray="none" stroke="black"/>
<line clip-path="url(#clipPath1)" fill="none" x1="136" x2="145" y1="466" y2="466" stroke-dasharray="none" stroke="black"/>
<line clip-path="url(#clipPath1)" fill="none" x1="145" x2="154" y1="466" y2="466" stroke-dasharray="none" stroke="black"/>
<line clip-path="url(#clipPath1)" fill="none" x1="154" x2="163" y1="466" y2="466" stroke-dasharray="none" stroke="black"/>
<line clip-path="url(#clipPath1)" fill="none" x1="163" x2="172" y1="466" y2="466" stroke-dasharray="none" stroke="black"/>
<line clip-path="url(#clipPath1)" fill="none" x1="172" x2="180" y1="466" y2="466" stroke-dasharray="none" stroke="black"/>
<line clip-path="url(#clipPath1)" fill="none" x1="180" x2="189" y1="466" y2="466" stroke-dasharray="none" stroke="black"/>
<line clip-path="url(#clipPath1)" fill="none" x1="189" x2="198" y1="466" y2="466" stroke-dasharray="none" stroke="black"/>
<rect x="198" y="133" clip-path="url(#clipPath1)" fill="rgb(0,0,139)" width="9" stroke-dasharray="none" height="333" stroke="none"/>
<rect x="198" y="133" clip-path="url(#clipPath1)" fill="none" width="9" stroke-dasharray="none" height="333" stroke="black"/>
<rect x="207" y="432" clip-path="url(#clipPath1)" fill="rgb(0,0,139)" width="9" stroke-dasharray="none" height="34" stroke="none"/>
<rect x="207" y="432" clip-path="url(#clipPath1)" fill="none" width="9" stroke-dasharray="none" height="34" stroke="black"/>
<rect x="216" y="299" clip-path="url(#clipPath1)" fill="rgb(0,0,139)" width="8" stroke-dasharray="none" height="167" stroke="none"/>
<rect x="216" y="299" clip-path="url(#clipPath1)" fill="none" width="8" stroke-dasharray="none" height="167" stroke="black"/>
<line clip-path="url(#clipPath1)" fill="none" x1="224" x2="233" y1="466" y2="466" stroke-dasharray="none" stroke="black"/>
<rect x="233" y="432" clip-path="url(#clipPath1)" fill="rgb(0,0,139)" width="9" stroke-dasharray="none" height="34" stroke="none"/>
<rect x="233" y="432" clip-path="url(#clipPath1)" fill="none" width="9" stroke-dasharray="none" height="34" stroke="black"/>
<line clip-path="url(#clipPath1)" fill="none" x1="242" x2="251" y1="466" y2="466" stroke-dasharray="none" stroke="black"/>
<rect x="251" y="432" clip-path="url(#clipPath1)" fill="rgb(0,0,139)" width="9" stroke-dasharray="none" height="34" stroke="none"/>
<rect x="251" y="432" clip-path="url(#clipPath1)" fill="none" width="9" stroke-dasharray="none" height="34" stroke="black"/>
<rect x="260" y="333" clip-path="url(#clipPath1)" fill="rgb(0,0,139)" width="9" stroke-dasharray="none" height="133" stroke="none"/>
<rect x="260" y="333" clip-path="url(#clipPath1)" fill="none" width="9" stroke-dasharray="none" height="133" stroke="black"/>
<line clip-path="url(#clipPath1)" fill="none" x1="269" x2="277" y1="466" y2="466" stroke-dasharray="none" stroke="black"/>
<rect x="277" y="333" clip-path="url(#clipPath1)" fill="rgb(0,0,139)" width="9" stroke-dasharray="none" height="133" stroke="none"/>
<rect x="277" y="333" clip-path="url(#clipPath1)" fill="none" width="9" stroke-dasharray="none" height="133" stroke="black"/>
<rect x="286" y="432" clip-path="url(#clipPath1)" fill="rgb(0,0,139)" width="9" stroke-dasharray="none" height="34" stroke="none"/>
<rect x="286" y="432" clip-path="url(#clipPath1)" fill="none" width="9" stroke-dasharray="none" height="34" stroke="black"/>
<rect x="295" y="399" clip-path="url(#clipPath1)" fill="rgb(0,0,139)" width="9" stroke-dasharray="none" height="67" stroke="none"/>
<rect x="295" y="399" clip-path="url(#clipPath1)" fill="none" width="9" stroke-dasharray="none" height="67" stroke="black"/>
<rect x="304" y="200" clip-path="url(#clipPath1)" fill="rgb(0,0,139)" width="9" stroke-dasharray="none" height="266" stroke="none"/>
<rect x="304" y="200" clip-path="url(#clipPath1)" fill="none" width="9" stroke-dasharray="none" height="266" stroke="black"/>
<rect x="313" y="333" clip-path="url(#clipPath1)" fill="rgb(0,0,139)" width="9" stroke-dasharray="none" height="133" stroke="none"/>
<rect x="313" y="333" clip-path="url(#clipPath1)" fill="none" width="9" stroke-dasharray="none" height="133" stroke="black"/>
<rect x="322" y="366" clip-path="url(#clipPath1)" fill="rgb(0,0,139)" width="8" stroke-dasharray="none" height="100" stroke="none"/>
<rect x="322" y="366" clip-path="url(#clipPath1)" fill="none" width="8" stroke-dasharray="none" height="100" stroke="black"/>
<rect x="330" y="432" clip-path="url(#clipPath1)" fill="rgb(0,0,139)" width="9" stroke-dasharray="none" height="34" stroke="none"/>
<rect x="330" y="432" clip-path="url(#clipPath1)" fill="none" width="9" stroke-dasharray="none" height="34" stroke="black"/>
<rect x="339" y="399" clip-path="url(#clipPath1)" fill="rgb(0,0,139)" width="9" stroke-dasharray="none" height="67" stroke="none"/>
<rect x="339" y="399" clip-path="url(#clipPath1)" fill="none" width="9" stroke-dasharray="none" height="67" stroke="black"/>
<rect x="348" y="432" clip-path="url(#clipPath1)" fill="rgb(0,0,139)" width="9" stroke-dasharray="none" height="34" stroke="none"/>
<rect x="348" y="432" clip-path="url(#clipPath1)" fill="none" width="9" stroke-dasharray="none" height="34" stroke="black"/>
<rect x="357" y="399" clip-path="url(#clipPath1)" fill="rgb(0,0,139)" width="9" stroke-dasharray="none" height="67" stroke="none"/>
<rect x="357" y="399" clip-path="url(#clipPath1)" fill="none" width="9" stroke-dasharray="none" height="67" stroke="black"/>
<rect x="366" y="399" clip-path="url(#clipPath1)" fill="rgb(0,0,139)" width="9" stroke-dasharray="none" height="67" stroke="none"/>
<rect x="366" y="399" clip-path="url(#clipPath1)" fill="none" width="9" stroke-dasharray="none" height="67" stroke="black"/>
<rect x="375" y="399" clip-path="url(#clipPath1)" fill="rgb(0,0,139)" width="8" stroke-dasharray="none" height="67" stroke="none"/>
<rect x="375" y="399" clip-path="url(#clipPath1)" fill="none" width="8" stroke-dasharray="none" height="67" stroke="black"/>
<rect x="383" y="399" clip-path="url(#clipPath1)" fill="rgb(0,0,139)" width="9" stroke-dasharray="none" height="67" stroke="none"/>
<rect x="383" y="399" clip-path="url(#clipPath1)" fill="none" width="9" stroke-dasharray="none" height="67" stroke="black"/>
<rect x="392" y="432" clip-path="url(#clipPath1)" fill="rgb(0,0,139)" width="9" stroke-dasharray="none" height="34" stroke="none"/>
<rect x="392" y="432" clip-path="url(#clipPath1)" fill="none" width="9" stroke-dasharray="none" height="34" stroke="black"/>
<rect x="401" y="432" clip-path="url(#clipPath1)" fill="rgb(0,0,139)" width="9" stroke-dasharray="none" height="34" stroke="none"/>
<rect x="401" y="432" clip-path="url(#clipPath1)" fill="none" width="9" stroke-dasharray="none" height="34" stroke="black"/>
<rect x="410" y="366" clip-path="url(#clipPath1)" fill="rgb(0,0,139)" width="9" stroke-dasharray="none" height="100" stroke="none"/>
<rect x="410" y="366" clip-path="url(#clipPath1)" fill="none" width="9" stroke-dasharray="none" height="100" stroke="black"/>
<rect x="419" y="432" clip-path="url(#clipPath1)" fill="rgb(0,0,139)" width="8" stroke-dasharray="none" height="34" stroke="none"/>
<rect x="419" y="432" clip-path="url(#clipPath1)" fill="none" width="8" stroke-dasharray="none" height="34" stroke="black"/>
<rect x="427" y="333" clip-path="url(#clipPath1)" fill="rgb(0,0,139)" width="9" stroke-dasharray="none" height="133" stroke="none"/>
<rect x="427" y="333" clip-path="url(#clipPath1)" fill="none" width="9" stroke-dasharray="none" height="133" stroke="black"/>
<line clip-path="url(#clipPath1)" fill="none" x1="436" x2="445" y1="466" y2="466" stroke-dasharray="none" stroke="black"/>
<rect x="445" y="432" clip-path="url(#clipPath1)" fill="rgb(0,0,139)" width="9" stroke-dasharray="none" height="34" stroke="none"/>
<rect x="445" y="432" clip-path="url(#clipPath1)" fill="none" width="9" stroke-dasharray="none" height="34" stroke="black"/>
<rect x="454" y="366" clip-path="url(#clipPath1)" fill="rgb(0,0,139)" width="9" stroke-dasharray="none" height="100" stroke="none"/>
<rect x="454" y="366" clip-path="url(#clipPath1)" fill="none" width="9" stroke-dasharray="none" height="100" stroke="black"/>
<line clip-path="url(#clipPath1)" fill="none" x1="463" x2="472" y1="466" y2="466" stroke-dasharray="none" stroke="black"/>
<line clip-path="url(#clipPath1)" fill="none" x1="472" x2="480" y1="466" y2="466" stroke-dasharray="none" stroke="black"/>
<rect x="480" y="399" clip-path="url(#clipPath1)" fill="rgb(0,0,139)" width="9" stroke-dasharray="none" height="67" stroke="none"/>
<rect x="480" y="399" clip-path="url(#clipPath1)" fill="none" width="9" stroke-dasharray="none" height="67" stroke="black"/>
<rect x="489" y="399" clip-path="url(#clipPath1)" fill="rgb(0,0,139)" width="9" stroke-dasharray="none" height="67" stroke="none"/>
<rect x="489" y="399" clip-path="url(#clipPath1)" fill="none" width="9" stroke-dasharray="none" height="67" stroke="black"/>
<line clip-path="url(#clipPath1)" fill="none" x1="498" x2="507" y1="466" y2="466" stroke-dasharray="none" stroke="black"/>
<rect x="507" y="432" clip-path="url(#clipPath1)" fill="rgb(0,0,139)" width="9" stroke-dasharray="none" height="34" stroke="none"/>
<rect x="507" y="432" clip-path="url(#clipPath1)" fill="none" width="9" stroke-dasharray="none" height="34" stroke="black"/>
<line clip-path="url(#clipPath1)" fill="none" x1="516" x2="525" y1="466" y2="466" stroke-dasharray="none" stroke="black"/>
<line clip-path="url(#clipPath1)" fill="none" x1="525" x2="533" y1="466" y2="466" stroke-dasharray="none" stroke="black"/>
<line clip-path="url(#clipPath1)" fill="none" x1="533" x2="542" y1="466" y2="466" stroke-dasharray="none" stroke="black"/>
<line clip-path="url(#clipPath1)" fill="none" x1="542" x2="551" y1="466" y2="466" stroke-dasharray="none" stroke="black"/>
<line clip-path="url(#clipPath1)" fill="none" x1="551" x2="560" y1="466" y2="466" stroke-dasharray="none" stroke="black"/>
<line clip-path="url(#clipPath1)" fill="none" x1="560" x2="569" y1="466" y2="466" stroke-dasharray="none" stroke="black"/>
<line clip-path="url(#clipPath1)" fill="none" x1="569" x2="578" y1="466" y2="466" stroke-dasharray="none" stroke="black"/>
<line clip-path="url(#clipPath1)" fill="none" x1="578" x2="586" y1="466" y2="466" stroke-dasharray="none" stroke="black"/>
<line clip-path="url(#clipPath1)" fill="none" x1="586" x2="595" y1="466" y2="466" stroke-dasharray="none" stroke="black"/>
<line clip-path="url(#clipPath1)" fill="none" x1="595" x2="604" y1="466" y2="466" stroke-dasharray="none" stroke="black"/>
<line clip-path="url(#clipPath1)" fill="none" x1="604" x2="613" y1="466" y2="466" stroke-dasharray="none" stroke="black"/>
<line clip-path="url(#clipPath1)" fill="none" x1="613" x2="622" y1="466" y2="466" stroke-dasharray="none" stroke="black"/>
<line clip-path="url(#clipPath1)" fill="none" x1="622" x2="630" y1="466" y2="466" stroke-dasharray="none" stroke="black"/>
<line clip-path="url(#clipPath1)" fill="none" x1="630" x2="639" y1="466" y2="466" stroke-dasharray="none" stroke="black"/>
<line clip-path="url(#clipPath1)" fill="none" x1="639" x2="648" y1="466" y2="466" stroke-dasharray="none" stroke="black"/>
<line clip-path="url(#clipPath1)" fill="none" x1="648" x2="657" y1="466" y2="466" stroke-dasharray="none" stroke="black"/>
<line clip-path="url(#clipPath1)" fill="none" x1="657" x2="666" y1="466" y2="466" stroke-dasharray="none" stroke="black"/>
<line clip-path="url(#clipPath1)" fill="none" x1="666" x2="675" y1="466" y2="466" stroke-dasharray="none" stroke="black"/>
<line clip-path="url(#clipPath1)" fill="none" x1="675" x2="683" y1="466" y2="466" stroke-dasharray="none" stroke="black"/>
<line clip-path="url(#clipPath1)" fill="none" x1="683" x2="692" y1="466" y2="466" stroke-dasharray="none" stroke="black"/>
<line clip-path="url(#clipPath1)" fill="none" x1="692" x2="701" y1="466" y2="466" stroke-dasharray="none" stroke="black"/>
<line clip-path="url(#clipPath1)" fill="none" x1="701" x2="710" y1="466" y2="466" stroke-dasharray="none" stroke="black"/>
<line clip-path="url(#clipPath1)" fill="none" x1="710" x2="719" y1="466" y2="466" stroke-dasharray="none" stroke="black"/>
<line clip-path="url(#clipPath1)" fill="none" x1="719" x2="728" y1="466" y2="466" stroke-dasharray="none" stroke="black"/>
<line clip-path="url(#clipPath1)" fill="none" x1="728" x2="736" y1="466" y2="466" stroke-dasharray="none" stroke="black"/>
<line clip-path="url(#clipPath1)" fill="none" x1="736" x2="745" y1="466" y2="466" stroke-dasharray="none" stroke="black"/>
<line clip-path="url(#clipPath1)" fill="none" x1="745" x2="754" y1="466" y2="466" stroke-dasharray="none" stroke="black"/>
<line clip-path="url(#clipPath1)" fill="none" x1="754" x2="763" y1="466" y2="466" stroke-dasharray="none" stroke="black"/>
<line clip-path="url(#clipPath1)" fill="none" x1="763" x2="772" y1="466" y2="466" stroke-dasharray="none" stroke="black"/>
<line clip-path="url(#clipPath1)" fill="none" x1="772" x2="781" y1="466" y2="466" stroke-dasharray="none" stroke="black"/>
<line clip-path="url(#clipPath1)" fill="none" x1="781" x2="789" y1="466" y2="466" stroke-dasharray="none" stroke="black"/>
<line clip-path="url(#clipPath1)" fill="none" x1="789" x2="798" y1="466" y2="466" stroke-dasharray="none" stroke="black"/>
<line clip-path="url(#clipPath1)" fill="none" x1="798" x2="807" y1="466" y2="466" stroke-dasharray="none" stroke="black"/>
<line clip-path="url(#clipPath1)" fill="none" x1="807" x2="816" y1="466" y2="466" stroke-dasharray="none" stroke="black"/>
<line clip-path="url(#clipPath1)" fill="none" x1="816" x2="825" y1="466" y2="466" stroke-dasharray="none" stroke="black"/>
<line clip-path="url(#clipPath1)" fill="none" x1="825" x2="833" y1="466" y2="466" stroke-dasharray="none" stroke="black"/>
<line clip-path="url(#clipPath1)" fill="none" x1="833" x2="842" y1="466" y2="466" stroke-dasharray="none" stroke="black"/>
<line clip-path="url(#clipPath1)" fill="none" x1="842" x2="851" y1="466" y2="466" stroke-dasharray="none" stroke="black"/>
<line clip-path="url(#clipPath1)" fill="none" x1="851" x2="860" y1="466" y2="466" stroke-dasharray="none" stroke="black"/>
<line clip-path="url(#clipPath1)" fill="none" x1="860" x2="869" y1="466" y2="466" stroke-dasharray="none" stroke="black"/>
<line clip-path="url(#clipPath1)" fill="none" x1="869" x2="878" y1="466" y2="466" stroke-dasharray="none" stroke="black"/>
<line clip-path="url(#clipPath1)" fill="none" x1="878" x2="886" y1="466" y2="466" stroke-dasharray="none" stroke="black"/>
<line clip-path="url(#clipPath1)" fill="none" x1="886" x2="895" y1="466" y2="466" stroke-dasharray="none" stroke="black"/>
<line clip-path="url(#clipPath1)" fill="none" x1="895" x2="904" y1="466" y2="466" stroke-dasharray="none" stroke="black"/>
<line clip-path="url(#clipPath1)" fill="none" x1="904" x2="913" y1="466" y2="466" stroke-dasharray="none" stroke="black"/>
<line clip-path="url(#clipPath1)" fill="none" x1="913" x2="922" y1="466" y2="466" stroke-dasharray="none" stroke="black"/>
<rect x="28" y="23" clip-path="url(#clipPath2)" fill="none" width="658" stroke-dasharray="none" height="443" stroke="black"/>
</g>
<g text-rendering="geometricPrecision" font-size="13" stroke-linecap="butt">
<line clip-path="url(#clipPath2)" fill="none" x1="28" x2="686" y1="21" y2="21"/>
<line clip-path="url(#clipPath2)" fill="none" x1="28" x2="686" y1="468" y2="468"/>
<line clip-path="url(#clipPath2)" fill="none" x1="67" x2="67" y1="19" y2="21"/>
<line clip-path="url(#clipPath2)" fill="none" x1="67" x2="67" y1="470" y2="468"/>
<line clip-path="url(#clipPath2)" fill="none" x1="111" x2="111" y1="17" y2="21"/>
<line clip-path="url(#clipPath2)" fill="none" x1="111" x2="111" y1="472" y2="468"/>
<text x="91" font-size="11" y="14" clip-path="url(#clipPath2)" stroke="none" xml:space="preserve">0.00022</text>
<text x="91" font-size="11" y="484" clip-path="url(#clipPath2)" stroke="none" xml:space="preserve">0.00022</text>
<line clip-path="url(#clipPath2)" fill="none" x1="154" x2="154" y1="19" y2="21"/>
<line clip-path="url(#clipPath2)" fill="none" x1="154" x2="154" y1="470" y2="468"/>
<line clip-path="url(#clipPath2)" fill="none" x1="197" x2="197" y1="17" y2="21"/>
<line clip-path="url(#clipPath2)" fill="none" x1="197" x2="197" y1="472" y2="468"/>
<text x="177" font-size="11" y="14" clip-path="url(#clipPath2)" stroke="none" xml:space="preserve">0.00024</text>
<text x="177" font-size="11" y="484" clip-path="url(#clipPath2)" stroke="none" xml:space="preserve">0.00024</text>
<line clip-path="url(#clipPath2)" fill="none" x1="241" x2="241" y1="19" y2="21"/>
<line clip-path="url(#clipPath2)" fill="none" x1="241" x2="241" y1="470" y2="468"/>
<line clip-path="url(#clipPath2)" fill="none" x1="284" x2="284" y1="17" y2="21"/>
<line clip-path="url(#clipPath2)" fill="none" x1="284" x2="284" y1="472" y2="468"/>
<text x="264" font-size="11" y="14" clip-path="url(#clipPath2)" stroke="none" xml:space="preserve">0.00026</text>
<text x="264" font-size="11" y="484" clip-path="url(#clipPath2)" stroke="none" xml:space="preserve">0.00026</text>
<line clip-path="url(#clipPath2)" fill="none" x1="328" x2="328" y1="19" y2="21"/>
<line clip-path="url(#clipPath2)" fill="none" x1="328" x2="328" y1="470" y2="468"/>
<line clip-path="url(#clipPath2)" fill="none" x1="371" x2="371" y1="17" y2="21"/>
<line clip-path="url(#clipPath2)" fill="none" x1="371" x2="371" y1="472" y2="468"/>
<text x="351" font-size="11" y="14" clip-path="url(#clipPath2)" stroke="none" xml:space="preserve">0.00028</text>
<text x="351" font-size="11" y="484" clip-path="url(#clipPath2)" stroke="none" xml:space="preserve">0.00028</text>
<line clip-path="url(#clipPath2)" fill="none" x1="414" x2="414" y1="19" y2="21"/>
<line clip-path="url(#clipPath2)" fill="none" x1="414" x2="414" y1="470" y2="468"/>
<line clip-path="url(#clipPath2)" fill="none" x1="458" x2="458" y1="17" y2="21"/>
<line clip-path="url(#clipPath2)" fill="none" x1="458" x2="458" y1="472" y2="468"/>
<text x="438" font-size="11" y="14" clip-path="url(#clipPath2)" stroke="none" xml:space="preserve">0.00030</text>
<text x="438" font-size="11" y="484" clip-path="url(#clipPath2)" stroke="none" xml:space="preserve">0.00030</text>
<line clip-path="url(#clipPath2)" fill="none" x1="501" x2="501" y1="19" y2="21"/>
<line clip-path="url(#clipPath2)" fill="none" x1="501" x2="501" y1="470" y2="468"/>
<line clip-path="url(#clipPath2)" fill="none" x1="544" x2="544" y1="17" y2="21"/>
<line clip-path="url(#clipPath2)" fill="none" x1="544" x2="544" y1="472" y2="468"/>
<text x="524" font-size="11" y="14" clip-path="url(#clipPath2)" stroke="none" xml:space="preserve">0.00032</text>
<text x="524" font-size="11" y="484" clip-path="url(#clipPath2)" stroke="none" xml:space="preserve">0.00032</text>
<line clip-path="url(#clipPath2)" fill="none" x1="588" x2="588" y1="19" y2="21"/>
<line clip-path="url(#clipPath2)" fill="none" x1="588" x2="588" y1="470" y2="468"/>
<line clip-path="url(#clipPath2)" fill="none" x1="631" x2="631" y1="17" y2="21"/>
<line clip-path="url(#clipPath2)" fill="none" x1="631" x2="631" y1="472" y2="468"/>
<text x="611" font-size="11" y="14" clip-path="url(#clipPath2)" stroke="none" xml:space="preserve">0.00034</text>
<text x="611" font-size="11" y="484" clip-path="url(#clipPath2)" stroke="none" xml:space="preserve">0.00034</text>
<line clip-path="url(#clipPath2)" fill="none" x1="674" x2="674" y1="19" y2="21"/>
<line clip-path="url(#clipPath2)" fill="none" x1="674" x2="674" y1="470" y2="468"/>
<line clip-path="url(#clipPath2)" fill="none" x1="26" x2="26" y1="23" y2="466"/>
<line clip-path="url(#clipPath2)" fill="none" x1="688" x2="688" y1="23" y2="466"/>
<line clip-path="url(#clipPath2)" fill="none" x1="22" x2="26" y1="466" y2="466"/>
<line clip-path="url(#clipPath2)" fill="none" x1="692" x2="688" y1="466" y2="466"/>
<text x="15" font-size="11" y="471" clip-path="url(#clipPath2)" stroke="none" xml:space="preserve">0</text>
<text x="695" font-size="11" y="471" clip-path="url(#clipPath2)" stroke="none" xml:space="preserve">0</text>
<line clip-path="url(#clipPath2)" fill="none" x1="24" x2="26" y1="432" y2="432"/>
<line clip-path="url(#clipPath2)" fill="none" x1="690" x2="688" y1="432" y2="432"/>
<line clip-path="url(#clipPath2)" fill="none" x1="22" x2="26" y1="399" y2="399"/>
<line clip-path="url(#clipPath2)" fill="none" x1="692" x2="688" y1="399" y2="399"/>
<text x="15" font-size="11" y="404" clip-path="url(#clipPath2)" stroke="none" xml:space="preserve">2</text>
<text x="695" font-size="11" y="404" clip-path="url(#clipPath2)" stroke="none" xml:space="preserve">2</text>
<line clip-path="url(#clipPath2)" fill="none" x1="24" x2="26" y1="366" y2="366"/>
<line clip-path="url(#clipPath2)" fill="none" x1="690" x2="688" y1="366" y2="366"/>
<line clip-path="url(#clipPath2)" fill="none" x1="22" x2="26" y1="333" y2="333"/>
<line clip-path="url(#clipPath2)" fill="none" x1="692" x2="688" y1="333" y2="333"/>
<text x="15" font-size="11" y="338" clip-path="url(#clipPath2)" stroke="none" xml:space="preserve">4</text>
<text x="695" font-size="11" y="338" clip-path="url(#clipPath2)" stroke="none" xml:space="preserve">4</text>
<line clip-path="url(#clipPath2)" fill="none" x1="24" x2="26" y1="299" y2="299"/>
<line clip-path="url(#clipPath2)" fill="none" x1="690" x2="688" y1="299" y2="299"/>
<line clip-path="url(#clipPath2)" fill="none" x1="22" x2="26" y1="266" y2="266"/>
<line clip-path="url(#clipPath2)" fill="none" x1="692" x2="688" y1="266" y2="266"/>
<text x="15" font-size="11" y="271" clip-path="url(#clipPath2)" stroke="none" xml:space="preserve">6</text>
<text x="695" font-size="11" y="271" clip-path="url(#clipPath2)" stroke="none" xml:space="preserve">6</text>
<line clip-path="url(#clipPath2)" fill="none" x1="24" x2="26" y1="233" y2="233"/>
<line clip-path="url(#clipPath2)" fill="none" x1="690" x2="688" y1="233" y2="233"/>
<line clip-path="url(#clipPath2)" fill="none" x1="22" x2="26" y1="200" y2="200"/>
<line clip-path="url(#clipPath2)" fill="none" x1="692" x2="688" y1="200" y2="200"/>
<text x="15" font-size="11" y="205" clip-path="url(#clipPath2)" stroke="none" xml:space="preserve">8</text>
<text x="695" font-size="11" y="205" clip-path="url(#clipPath2)" stroke="none" xml:space="preserve">8</text>
<line clip-path="url(#clipPath2)" fill="none" x1="24" x2="26" y1="166" y2="166"/>
<line clip-path="url(#clipPath2)" fill="none" x1="690" x2="688" y1="166" y2="166"/>
<line clip-path="url(#clipPath2)" fill="none" x1="22" x2="26" y1="133" y2="133"/>
<line clip-path="url(#clipPath2)" fill="none" x1="692" x2="688" y1="133" y2="133"/>
<text x="9" font-size="11" y="138" clip-path="url(#clipPath2)" stroke="none" xml:space="preserve">10</text>
<text x="695" font-size="11" y="138" clip-path="url(#clipPath2)" stroke="none" xml:space="preserve">10</text>
<line clip-path="url(#clipPath2)" fill="none" x1="24" x2="26" y1="100" y2="100"/>
<line clip-path="url(#clipPath2)" fill="none" x1="690" x2="688" y1="100" y2="100"/>
<line clip-path="url(#clipPath2)" fill="none" x1="22" x2="26" y1="67" y2="67"/>
<line clip-path="url(#clipPath2)" fill="none" x1="692" x2="688" y1="67" y2="67"/>
<text x="9" font-size="11" y="72" clip-path="url(#clipPath2)" stroke="none" xml:space="preserve">12</text>
<text x="695" font-size="11" y="72" clip-path="url(#clipPath2)" stroke="none" xml:space="preserve">12</text>
<line clip-path="url(#clipPath2)" fill="none" x1="24" x2="26" y1="34" y2="34"/>
<line clip-path="url(#clipPath2)" fill="none" x1="690" x2="688" y1="34" y2="34"/>
</g>
</g>
</svg>
