<?xml version="1.0" encoding="UTF-8"?><svg xmlns="http://www.w3.org/2000/svg" xmlns:xlink="http://www.w3.org/1999/xlink" stroke-dasharray="none" shape-rendering="auto" font-family="'Dialog'" width="714" text-rendering="auto" fill-opacity="1" contentScriptType="text/ecmascript" color-interpolation="auto" color-rendering="auto" preserveAspectRatio="xMidYMid meet" font-size="12" fill="black" stroke="black" image-rendering="auto" stroke-miterlimit="10" zoomAndPan="magnify" version="1.0" stroke-linecap="square" stroke-linejoin="miter" contentStyleType="text/css" font-style="normal" height="502" stroke-width="1" stroke-dashoffset="0" font-weight="normal" stroke-opacity="1">
<!--Generated by the Batik Graphics2D SVG Generator-->
<defs id="genericDefs"/>
<g>
<defs id="defs1">
<clipPath clipPathUnits="userSpaceOnUse" id="clipPath1">
<path d="M31 37 L683 37 L683 447 L31 447 L31 37 Z"/>
</clipPath>
<clipPath clipPathUnits="userSpaceOnUse" id="clipPath2">
<path d="M-1 -1 L715 -1 L715 503 L-1 503 L-1 -1 Z"/>
</clipPath>
<clipPath clipPathUnits="userSpaceOnUse" id="clipPath3">
<path d="M139 473 L575 473 L575 499 L139 499 L139 473 Z"/>
</clipPath>
</defs>
<g font-size="15" fill="white" text-rendering="geometricPrecision" font-family="'Cantarell'" stroke-linejoin="round" stroke="white" stroke-width="0" stroke-miterlimit="0">
<rect x="32" y="38" clip-path="url(#clipPath1)" width="650" height="408" stroke="none"/>
</g>
<g stroke-linecap="butt" font-size="15" fill="rgb(204,204,204)" text-rendering="geometricPrecision" font-family="'Cantarell'" stroke-dasharray="3,3" stroke="rgb(204,204,204)">
<line clip-path="url(#clipPath1)" fill="none" x1="32" x2="32" y1="38" y2="446"/>
<line clip-path="url(#clipPath1)" fill="none" x1="97" x2="97" y1="38" y2="446"/>
<line clip-path="url(#clipPath1)" fill="none" x1="163" x2="163" y1="38" y2="446"/>
<line clip-path="url(#clipPath1)" fill="none" x1="229" x2="229" y1="38" y2="446"/>
<line clip-path="url(#clipPath1)" fill="none" x1="295" x2="295" y1="38" y2="446"/>
<line clip-path="url(#clipPath1)" fill="none" x1="361" x2="361" y1="38" y2="446"/>
<line clip-path="url(#clipPath1)" fill="none" x1="427" x2="427" y1="38" y2="446"/>
<line clip-path="url(#clipPath1)" fill="none" x1="493" x2="493" y1="38" y2="446"/>
<line clip-path="url(#clipPath1)" fill="none" x1="559" x2="559" y1="38" y2="446"/>
<line clip-path="url(#clipPath1)" fill="none" x1="625" x2="625" y1="38" y2="446"/>
<line clip-path="url(#clipPath1)" fill="none" x1="32" x2="682" y1="446" y2="446"/>
<line clip-path="url(#clipPath1)" fill="none" x1="32" x2="682" y1="384" y2="384"/>
<line clip-path="url(#clipPath1)" fill="none" x1="32" x2="682" y1="323" y2="323"/>
<line clip-path="url(#clipPath1)" fill="none" x1="32" x2="682" y1="262" y2="262"/>
<line clip-path="url(#clipPath1)" fill="none" x1="32" x2="682" y1="201" y2="201"/>
<line clip-path="url(#clipPath1)" fill="none" x1="32" x2="682" y1="139" y2="139"/>
<line clip-path="url(#clipPath1)" fill="none" x1="32" x2="682" y1="78" y2="78"/>
<rect x="76" y="137" clip-path="url(#clipPath1)" fill="rgb(0,0,139)" width="5" height="5" stroke="none"/>
</g>
<g stroke-linecap="butt" font-size="15" fill="rgb(0,0,139)" text-rendering="geometricPrecision" font-family="'Cantarell'" shape-rendering="crispEdges" stroke="rgb(0,0,139)">
<line clip-path="url(#clipPath1)" fill="none" x1="78" x2="78" y1="139" y2="446"/>
<rect x="76" y="444" clip-path="url(#clipPath1)" width="5" shape-rendering="auto" height="5" stroke="none"/>
<line clip-path="url(#clipPath1)" fill="none" x1="78" x2="96" y1="446" y2="139" shape-rendering="auto"/>
<rect x="94" y="137" clip-path="url(#clipPath1)" width="5" shape-rendering="auto" height="5" stroke="none"/>
<line clip-path="url(#clipPath1)" fill="none" x1="96" x2="96" y1="139" y2="446"/>
<rect x="94" y="444" clip-path="url(#clipPath1)" width="5" shape-rendering="auto" height="5" stroke="none"/>
<line clip-path="url(#clipPath1)" fill="none" x1="96" x2="121" y1="446" y2="139" shape-rendering="auto"/>
<rect x="119" y="137" clip-path="url(#clipPath1)" width="5" shape-rendering="auto" height="5" stroke="none"/>
<line clip-path="url(#clipPath1)" fill="none" x1="121" x2="121" y1="139" y2="446"/>
<rect x="119" y="444" clip-path="url(#clipPath1)" width="5" shape-rendering="auto" height="5" stroke="none"/>
<line clip-path="url(#clipPath1)" fill="none" x1="121" x2="139" y1="446" y2="139" shape-rendering="auto"/>
<rect x="137" y="137" clip-path="url(#clipPath1)" width="5" shape-rendering="auto" height="5" stroke="none"/>
<line clip-path="url(#clipPath1)" fill="none" x1="139" x2="139" y1="139" y2="446"/>
<rect x="137" y="444" clip-path="url(#clipPath1)" width="5" shape-rendering="auto" height="5" stroke="none"/>
<line clip-path="url(#clipPath1)" fill="none" x1="139" x2="162" y1="446" y2="139" shape-rendering="auto"/>
<rect x="160" y="137" clip-path="url(#clipPath1)" width="5" shape-rendering="auto" height="5" stroke="none"/>
<line clip-path="url(#clipPath1)" fill="none" x1="162" x2="162" y1="139" y2="446"/>
<rect x="160" y="444" clip-path="url(#clipPath1)" width="5" shape-rendering="auto" height="5" stroke="none"/>
<line clip-path="url(#clipPath1)" fill="none" x1="162" x2="176" y1="446" y2="139" shape-rendering="auto"/>
<rect x="174" y="137" clip-path="url(#clipPath1)" width="5" shape-rendering="auto" height="5" stroke="none"/>
<line clip-path="url(#clipPath1)" fill="none" x1="176" x2="176" y1="139" y2="446"/>
<rect x="174" y="444" clip-path="url(#clipPath1)" width="5" shape-rendering="auto" height="5" stroke="none"/>
<line clip-path="url(#clipPath1)" fill="none" x1="176" x2="196" y1="446" y2="139" shape-rendering="auto"/>
<rect x="194" y="137" clip-path="url(#clipPath1)" width="5" shape-rendering="auto" height="5" stroke="none"/>
<line clip-path="url(#clipPath1)" fill="none" x1="196" x2="196" y1="139" y2="446"/>
<rect x="194" y="444" clip-path="url(#clipPath1)" width="5" shape-rendering="auto" height="5" stroke="none"/>
<line clip-path="url(#clipPath1)" fill="none" x1="196" x2="211" y1="446" y2="139" shape-rendering="auto"/>
<rect x="209" y="137" clip-path="url(#clipPath1)" width="5" shape-rendering="auto" height="5" stroke="none"/>
<line clip-path="url(#clipPath1)" fill="none" x1="211" x2="211" y1="139" y2="446"/>
<rect x="209" y="444" clip-path="url(#clipPath1)" width="5" shape-rendering="auto" height="5" stroke="none"/>
<line clip-path="url(#clipPath1)" fill="none" x1="211" x2="230" y1="446" y2="139" shape-rendering="auto"/>
<rect x="228" y="137" clip-path="url(#clipPath1)" width="5" shape-rendering="auto" height="5" stroke="none"/>
<line clip-path="url(#clipPath1)" fill="none" x1="230" x2="230" y1="139" y2="446"/>
<rect x="228" y="444" clip-path="url(#clipPath1)" width="5" shape-rendering="auto" height="5" stroke="none"/>
<line clip-path="url(#clipPath1)" fill="none" x1="230" x2="255" y1="446" y2="139" shape-rendering="auto"/>
<rect x="253" y="137" clip-path="url(#clipPath1)" width="5" shape-rendering="auto" height="5" stroke="none"/>
<line clip-path="url(#clipPath1)" fill="none" x1="255" x2="255" y1="139" y2="446"/>
<rect x="253" y="444" clip-path="url(#clipPath1)" width="5" shape-rendering="auto" height="5" stroke="none"/>
<line clip-path="url(#clipPath1)" fill="none" x1="255" x2="278" y1="446" y2="139" shape-rendering="auto"/>
<rect x="276" y="137" clip-path="url(#clipPath1)" width="5" shape-rendering="auto" height="5" stroke="none"/>
<line clip-path="url(#clipPath1)" fill="none" x1="278" x2="278" y1="139" y2="446"/>
<rect x="276" y="444" clip-path="url(#clipPath1)" width="5" shape-rendering="auto" height="5" stroke="none"/>
<line clip-path="url(#clipPath1)" fill="none" x1="278" x2="301" y1="446" y2="139" shape-rendering="auto"/>
<rect x="299" y="137" clip-path="url(#clipPath1)" width="5" shape-rendering="auto" height="5" stroke="none"/>
<line clip-path="url(#clipPath1)" fill="none" x1="301" x2="301" y1="139" y2="446"/>
<rect x="299" y="444" clip-path="url(#clipPath1)" width="5" shape-rendering="auto" height="5" stroke="none"/>
<line clip-path="url(#clipPath1)" fill="none" x1="301" x2="322" y1="446" y2="139" shape-rendering="auto"/>
<rect x="320" y="137" clip-path="url(#clipPath1)" width="5" shape-rendering="auto" height="5" stroke="none"/>
<line clip-path="url(#clipPath1)" fill="none" x1="322" x2="322" y1="139" y2="446"/>
<rect x="320" y="444" clip-path="url(#clipPath1)" width="5" shape-rendering="auto" height="5" stroke="none"/>
<line clip-path="url(#clipPath1)" fill="none" x1="322" x2="347" y1="446" y2="139" shape-rendering="auto"/>
<rect x="345" y="137" clip-path="url(#clipPath1)" width="5" shape-rendering="auto" height="5" stroke="none"/>
<line clip-path="url(#clipPath1)" fill="none" x1="347" x2="347" y1="139" y2="446"/>
<rect x="345" y="444" clip-path="url(#clipPath1)" width="5" shape-rendering="auto" height="5" stroke="none"/>
<line clip-path="url(#clipPath1)" fill="none" x1="347" x2="364" y1="446" y2="139" shape-rendering="auto"/>
<rect x="362" y="137" clip-path="url(#clipPath1)" width="5" shape-rendering="auto" height="5" stroke="none"/>
<line clip-path="url(#clipPath1)" fill="none" x1="364" x2="364" y1="139" y2="446"/>
<rect x="362" y="444" clip-path="url(#clipPath1)" width="5" shape-rendering="auto" height="5" stroke="none"/>
<line clip-path="url(#clipPath1)" fill="none" x1="364" x2="381" y1="446" y2="139" shape-rendering="auto"/>
<rect x="379" y="137" clip-path="url(#clipPath1)" width="5" shape-rendering="auto" height="5" stroke="none"/>
<line clip-path="url(#clipPath1)" fill="none" x1="381" x2="381" y1="139" y2="446"/>
<rect x="379" y="444" clip-path="url(#clipPath1)" width="5" shape-rendering="auto" height="5" stroke="none"/>
<line clip-path="url(#clipPath1)" fill="none" x1="381" x2="400" y1="446" y2="139" shape-rendering="auto"/>
<rect x="398" y="137" clip-path="url(#clipPath1)" width="5" shape-rendering="auto" height="5" stroke="none"/>
<line clip-path="url(#clipPath1)" fill="none" x1="400" x2="400" y1="139" y2="446"/>
<rect x="398" y="444" clip-path="url(#clipPath1)" width="5" shape-rendering="auto" height="5" stroke="none"/>
<line clip-path="url(#clipPath1)" fill="none" x1="400" x2="418" y1="446" y2="139" shape-rendering="auto"/>
<rect x="416" y="137" clip-path="url(#clipPath1)" width="5" shape-rendering="auto" height="5" stroke="none"/>
<line clip-path="url(#clipPath1)" fill="none" x1="418" x2="418" y1="139" y2="446"/>
<rect x="416" y="444" clip-path="url(#clipPath1)" width="5" shape-rendering="auto" height="5" stroke="none"/>
<line clip-path="url(#clipPath1)" fill="none" x1="418" x2="440" y1="446" y2="139" shape-rendering="auto"/>
<rect x="438" y="137" clip-path="url(#clipPath1)" width="5" shape-rendering="auto" height="5" stroke="none"/>
<line clip-path="url(#clipPath1)" fill="none" x1="440" x2="440" y1="139" y2="446"/>
<rect x="438" y="444" clip-path="url(#clipPath1)" width="5" shape-rendering="auto" height="5" stroke="none"/>
<line clip-path="url(#clipPath1)" fill="none" x1="440" x2="465" y1="446" y2="139" shape-rendering="auto"/>
<rect x="463" y="137" clip-path="url(#clipPath1)" width="5" shape-rendering="auto" height="5" stroke="none"/>
<line clip-path="url(#clipPath1)" fill="none" x1="465" x2="465" y1="139" y2="446"/>
<rect x="463" y="444" clip-path="url(#clipPath1)" width="5" shape-rendering="auto" height="5" stroke="none"/>
<line clip-path="url(#clipPath1)" fill="none" x1="465" x2="480" y1="446" y2="139" shape-rendering="auto"/>
<rect x="478" y="137" clip-path="url(#clipPath1)" width="5" shape-rendering="auto" height="5" stroke="none"/>
<line clip-path="url(#clipPath1)" fill="none" x1="480" x2="480" y1="139" y2="446"/>
<rect x="478" y="444" clip-path="url(#clipPath1)" width="5" shape-rendering="auto" height="5" stroke="none"/>
<line clip-path="url(#clipPath1)" fill="none" x1="480" x2="503" y1="446" y2="139" shape-rendering="auto"/>
<rect x="501" y="137" clip-path="url(#clipPath1)" width="5" shape-rendering="auto" height="5" stroke="none"/>
<line clip-path="url(#clipPath1)" fill="none" x1="503" x2="503" y1="139" y2="446"/>
<rect x="501" y="444" clip-path="url(#clipPath1)" width="5" shape-rendering="auto" height="5" stroke="none"/>
<line clip-path="url(#clipPath1)" fill="none" x1="503" x2="525" y1="446" y2="139" shape-rendering="auto"/>
<rect x="523" y="137" clip-path="url(#clipPath1)" width="5" shape-rendering="auto" height="5" stroke="none"/>
<line clip-path="url(#clipPath1)" fill="none" x1="525" x2="525" y1="139" y2="446"/>
<rect x="523" y="444" clip-path="url(#clipPath1)" width="5" shape-rendering="auto" height="5" stroke="none"/>
<line clip-path="url(#clipPath1)" fill="none" x1="525" x2="550" y1="446" y2="139" shape-rendering="auto"/>
<rect x="548" y="137" clip-path="url(#clipPath1)" width="5" shape-rendering="auto" height="5" stroke="none"/>
<line clip-path="url(#clipPath1)" fill="none" x1="550" x2="550" y1="139" y2="446"/>
<rect x="548" y="444" clip-path="url(#clipPath1)" width="5" shape-rendering="auto" height="5" stroke="none"/>
<line clip-path="url(#clipPath1)" fill="none" x1="550" x2="569" y1="446" y2="139" shape-rendering="auto"/>
<rect x="567" y="137" clip-path="url(#clipPath1)" width="5" shape-rendering="auto" height="5" stroke="none"/>
<line clip-path="url(#clipPath1)" fill="none" x1="569" x2="569" y1="139" y2="446"/>
<rect x="567" y="444" clip-path="url(#clipPath1)" width="5" shape-rendering="auto" height="5" stroke="none"/>
<line clip-path="url(#clipPath1)" fill="none" x1="569" x2="589" y1="446" y2="139" shape-rendering="auto"/>
<rect x="587" y="137" clip-path="url(#clipPath1)" width="5" shape-rendering="auto" height="5" stroke="none"/>
<line clip-path="url(#clipPath1)" fill="none" x1="589" x2="589" y1="139" y2="446"/>
<rect x="587" y="444" clip-path="url(#clipPath1)" width="5" shape-rendering="auto" height="5" stroke="none"/>
<line clip-path="url(#clipPath1)" fill="none" x1="589" x2="605" y1="446" y2="139" shape-rendering="auto"/>
<rect x="603" y="137" clip-path="url(#clipPath1)" width="5" shape-rendering="auto" height="5" stroke="none"/>
<line clip-path="url(#clipPath1)" fill="none" x1="605" x2="605" y1="139" y2="446"/>
<rect x="603" y="444" clip-path="url(#clipPath1)" width="5" shape-rendering="auto" height="5" stroke="none"/>
<line clip-path="url(#clipPath1)" fill="none" x1="605" x2="628" y1="446" y2="139" shape-rendering="auto"/>
<rect x="626" y="137" clip-path="url(#clipPath1)" width="5" shape-rendering="auto" height="5" stroke="none"/>
<line clip-path="url(#clipPath1)" fill="none" x1="628" x2="628" y1="139" y2="446"/>
<rect x="626" y="444" clip-path="url(#clipPath1)" width="5" shape-rendering="auto" height="5" stroke="none"/>
<line clip-path="url(#clipPath1)" fill="none" x1="628" x2="654" y1="446" y2="139" shape-rendering="auto"/>
<rect x="652" y="137" clip-path="url(#clipPath1)" width="5" shape-rendering="auto" height="5" stroke="none"/>
<line clip-path="url(#clipPath1)" fill="none" x1="654" x2="654" y1="139" y2="446"/>
<rect x="652" y="444" clip-path="url(#clipPath1)" width="5" shape-rendering="auto" height="5" stroke="none"/>
<line clip-path="url(#clipPath1)" fill="none" x1="654" x2="673" y1="446" y2="139" shape-rendering="auto"/>
<rect x="671" y="137" clip-path="url(#clipPath1)" width="5" shape-rendering="auto" height="5" stroke="none"/>
<line clip-path="url(#clipPath1)" fill="none" x1="673" x2="673" y1="139" y2="446"/>
<rect x="671" y="444" clip-path="url(#clipPath1)" width="5" shape-rendering="auto" height="5" stroke="none"/>
<circle clip-path="url(#clipPath1)" fill="rgb(238,0,0)" shape-rendering="auto" r="2" cx="77" cy="139" stroke="none"/>
<line clip-path="url(#clipPath1)" fill="none" x1="77" x2="77" y1="139" y2="446" stroke="rgb(238,0,0)"/>
<circle clip-path="url(#clipPath1)" fill="rgb(238,0,0)" shape-rendering="auto" r="2" cx="77" cy="446" stroke="none"/>
<line clip-path="url(#clipPath1)" fill="none" x1="77" x2="96" y1="446" y2="139" shape-rendering="auto" stroke="rgb(238,0,0)"/>
<circle clip-path="url(#clipPath1)" fill="rgb(238,0,0)" shape-rendering="auto" r="2" cx="96" cy="139" stroke="none"/>
<line clip-path="url(#clipPath1)" fill="none" x1="96" x2="96" y1="139" y2="446" stroke="rgb(238,0,0)"/>
<circle clip-path="url(#clipPath1)" fill="rgb(238,0,0)" shape-rendering="auto" r="2" cx="96" cy="446" stroke="none"/>
<line clip-path="url(#clipPath1)" fill="none" x1="96" x2="121" y1="446" y2="139" shape-rendering="auto" stroke="rgb(238,0,0)"/>
<circle clip-path="url(#clipPath1)" fill="rgb(238,0,0)" shape-rendering="auto" r="2" cx="121" cy="139" stroke="none"/>
<line clip-path="url(#clipPath1)" fill="none" x1="121" x2="121" y1="139" y2="446" stroke="rgb(238,0,0)"/>
<circle clip-path="url(#clipPath1)" fill="rgb(238,0,0)" shape-rendering="auto" r="2" cx="121" cy="446" stroke="none"/>
<line clip-path="url(#clipPath1)" fill="none" x1="121" x2="139" y1="446" y2="139" shape-rendering="auto" stroke="rgb(238,0,0)"/>
<circle clip-path="url(#clipPath1)" fill="rgb(238,0,0)" shape-rendering="auto" r="2" cx="139" cy="139" stroke="none"/>
<line clip-path="url(#clipPath1)" fill="none" x1="139" x2="139" y1="139" y2="446" stroke="rgb(238,0,0)"/>
<circle clip-path="url(#clipPath1)" fill="rgb(238,0,0)" shape-rendering="auto" r="2" cx="139" cy="446" stroke="none"/>
<line clip-path="url(#clipPath1)" fill="none" x1="139" x2="161" y1="446" y2="139" shape-rendering="auto" stroke="rgb(238,0,0)"/>
<circle clip-path="url(#clipPath1)" fill="rgb(238,0,0)" shape-rendering="auto" r="2" cx="161" cy="139" stroke="none"/>
<line clip-path="url(#clipPath1)" fill="none" x1="161" x2="161" y1="139" y2="446" stroke="rgb(238,0,0)"/>
<circle clip-path="url(#clipPath1)" fill="rgb(238,0,0)" shape-rendering="auto" r="2" cx="161" cy="446" stroke="none"/>
<line clip-path="url(#clipPath1)" fill="none" x1="161" x2="176" y1="446" y2="139" shape-rendering="auto" stroke="rgb(238,0,0)"/>
<circle clip-path="url(#clipPath1)" fill="rgb(238,0,0)" shape-rendering="auto" r="2" cx="176" cy="139" stroke="none"/>
<line clip-path="url(#clipPath1)" fill="none" x1="176" x2="176" y1="139" y2="446" stroke="rgb(238,0,0)"/>
<circle clip-path="url(#clipPath1)" fill="rgb(238,0,0)" shape-rendering="auto" r="2" cx="176" cy="446" stroke="none"/>
<line clip-path="url(#clipPath1)" fill="none" x1="176" x2="196" y1="446" y2="139" shape-rendering="auto" stroke="rgb(238,0,0)"/>
<circle clip-path="url(#clipPath1)" fill="rgb(238,0,0)" shape-rendering="auto" r="2" cx="196" cy="139" stroke="none"/>
<line clip-path="url(#clipPath1)" fill="none" x1="196" x2="196" y1="139" y2="446" stroke="rgb(238,0,0)"/>
<circle clip-path="url(#clipPath1)" fill="rgb(238,0,0)" shape-rendering="auto" r="2" cx="196" cy="446" stroke="none"/>
<line clip-path="url(#clipPath1)" fill="none" x1="196" x2="211" y1="446" y2="139" shape-rendering="auto" stroke="rgb(238,0,0)"/>
<circle clip-path="url(#clipPath1)" fill="rgb(238,0,0)" shape-rendering="auto" r="2" cx="211" cy="139" stroke="none"/>
<line clip-path="url(#clipPath1)" fill="none" x1="211" x2="211" y1="139" y2="446" stroke="rgb(238,0,0)"/>
<circle clip-path="url(#clipPath1)" fill="rgb(238,0,0)" shape-rendering="auto" r="2" cx="211" cy="446" stroke="none"/>
<line clip-path="url(#clipPath1)" fill="none" x1="211" x2="229" y1="446" y2="139" shape-rendering="auto" stroke="rgb(238,0,0)"/>
<circle clip-path="url(#clipPath1)" fill="rgb(238,0,0)" shape-rendering="auto" r="2" cx="229" cy="139" stroke="none"/>
<line clip-path="url(#clipPath1)" fill="none" x1="229" x2="229" y1="139" y2="446" stroke="rgb(238,0,0)"/>
<circle clip-path="url(#clipPath1)" fill="rgb(238,0,0)" shape-rendering="auto" r="2" cx="229" cy="446" stroke="none"/>
<line clip-path="url(#clipPath1)" fill="none" x1="229" x2="254" y1="446" y2="139" shape-rendering="auto" stroke="rgb(238,0,0)"/>
<circle clip-path="url(#clipPath1)" fill="rgb(238,0,0)" shape-rendering="auto" r="2" cx="254" cy="139" stroke="none"/>
<line clip-path="url(#clipPath1)" fill="none" x1="254" x2="254" y1="139" y2="446" stroke="rgb(238,0,0)"/>
<circle clip-path="url(#clipPath1)" fill="rgb(238,0,0)" shape-rendering="auto" r="2" cx="254" cy="446" stroke="none"/>
<line clip-path="url(#clipPath1)" fill="none" x1="254" x2="278" y1="446" y2="139" shape-rendering="auto" stroke="rgb(238,0,0)"/>
<circle clip-path="url(#clipPath1)" fill="rgb(238,0,0)" shape-rendering="auto" r="2" cx="278" cy="139" stroke="none"/>
<line clip-path="url(#clipPath1)" fill="none" x1="278" x2="278" y1="139" y2="446" stroke="rgb(238,0,0)"/>
<circle clip-path="url(#clipPath1)" fill="rgb(238,0,0)" shape-rendering="auto" r="2" cx="278" cy="446" stroke="none"/>
<line clip-path="url(#clipPath1)" fill="none" x1="278" x2="301" y1="446" y2="139" shape-rendering="auto" stroke="rgb(238,0,0)"/>
<circle clip-path="url(#clipPath1)" fill="rgb(238,0,0)" shape-rendering="auto" r="2" cx="301" cy="139" stroke="none"/>
<line clip-path="url(#clipPath1)" fill="none" x1="301" x2="301" y1="139" y2="446" stroke="rgb(238,0,0)"/>
<circle clip-path="url(#clipPath1)" fill="rgb(238,0,0)" shape-rendering="auto" r="2" cx="301" cy="446" stroke="none"/>
<line clip-path="url(#clipPath1)" fill="none" x1="301" x2="322" y1="446" y2="139" shape-rendering="auto" stroke="rgb(238,0,0)"/>
<circle clip-path="url(#clipPath1)" fill="rgb(238,0,0)" shape-rendering="auto" r="2" cx="322" cy="139" stroke="none"/>
<line clip-path="url(#clipPath1)" fill="none" x1="322" x2="322" y1="139" y2="446" stroke="rgb(238,0,0)"/>
<circle clip-path="url(#clipPath1)" fill="rgb(238,0,0)" shape-rendering="auto" r="2" cx="322" cy="446" stroke="none"/>
<line clip-path="url(#clipPath1)" fill="none" x1="322" x2="347" y1="446" y2="139" shape-rendering="auto" stroke="rgb(238,0,0)"/>
<circle clip-path="url(#clipPath1)" fill="rgb(238,0,0)" shape-rendering="auto" r="2" cx="347" cy="139" stroke="none"/>
<line clip-path="url(#clipPath1)" fill="none" x1="347" x2="347" y1="139" y2="446" stroke="rgb(238,0,0)"/>
<circle clip-path="url(#clipPath1)" fill="rgb(238,0,0)" shape-rendering="auto" r="2" cx="347" cy="446" stroke="none"/>
<line clip-path="url(#clipPath1)" fill="none" x1="347" x2="364" y1="446" y2="139" shape-rendering="auto" stroke="rgb(238,0,0)"/>
<circle clip-path="url(#clipPath1)" fill="rgb(238,0,0)" shape-rendering="auto" r="2" cx="364" cy="139" stroke="none"/>
<line clip-path="url(#clipPath1)" fill="none" x1="364" x2="364" y1="139" y2="446" stroke="rgb(238,0,0)"/>
<circle clip-path="url(#clipPath1)" fill="rgb(238,0,0)" shape-rendering="auto" r="2" cx="364" cy="446" stroke="none"/>
<line clip-path="url(#clipPath1)" fill="none" x1="364" x2="381" y1="446" y2="139" shape-rendering="auto" stroke="rgb(238,0,0)"/>
<circle clip-path="url(#clipPath1)" fill="rgb(238,0,0)" shape-rendering="auto" r="2" cx="381" cy="139" stroke="none"/>
<line clip-path="url(#clipPath1)" fill="none" x1="381" x2="381" y1="139" y2="446" stroke="rgb(238,0,0)"/>
<circle clip-path="url(#clipPath1)" fill="rgb(238,0,0)" shape-rendering="auto" r="2" cx="381" cy="446" stroke="none"/>
<line clip-path="url(#clipPath1)" fill="none" x1="381" x2="400" y1="446" y2="139" shape-rendering="auto" stroke="rgb(238,0,0)"/>
<circle clip-path="url(#clipPath1)" fill="rgb(238,0,0)" shape-rendering="auto" r="2" cx="400" cy="139" stroke="none"/>
<line clip-path="url(#clipPath1)" fill="none" x1="400" x2="400" y1="139" y2="446" stroke="rgb(238,0,0)"/>
<circle clip-path="url(#clipPath1)" fill="rgb(238,0,0)" shape-rendering="auto" r="2" cx="400" cy="446" stroke="none"/>
<line clip-path="url(#clipPath1)" fill="none" x1="400" x2="418" y1="446" y2="139" shape-rendering="auto" stroke="rgb(238,0,0)"/>
<circle clip-path="url(#clipPath1)" fill="rgb(238,0,0)" shape-rendering="auto" r="2" cx="418" cy="139" stroke="none"/>
<line clip-path="url(#clipPath1)" fill="none" x1="418" x2="418" y1="139" y2="446" stroke="rgb(238,0,0)"/>
<circle clip-path="url(#clipPath1)" fill="rgb(238,0,0)" shape-rendering="auto" r="2" cx="418" cy="446" stroke="none"/>
<line clip-path="url(#clipPath1)" fill="none" x1="418" x2="440" y1="446" y2="139" shape-rendering="auto" stroke="rgb(238,0,0)"/>
<circle clip-path="url(#clipPath1)" fill="rgb(238,0,0)" shape-rendering="auto" r="2" cx="440" cy="139" stroke="none"/>
<line clip-path="url(#clipPath1)" fill="none" x1="440" x2="440" y1="139" y2="446" stroke="rgb(238,0,0)"/>
<circle clip-path="url(#clipPath1)" fill="rgb(238,0,0)" shape-rendering="auto" r="2" cx="440" cy="446" stroke="none"/>
<line clip-path="url(#clipPath1)" fill="none" x1="440" x2="465" y1="446" y2="139" shape-rendering="auto" stroke="rgb(238,0,0)"/>
<circle clip-path="url(#clipPath1)" fill="rgb(238,0,0)" shape-rendering="auto" r="2" cx="465" cy="139" stroke="none"/>
<line clip-path="url(#clipPath1)" fill="none" x1="465" x2="465" y1="139" y2="446" stroke="rgb(238,0,0)"/>
<circle clip-path="url(#clipPath1)" fill="rgb(238,0,0)" shape-rendering="auto" r="2" cx="465" cy="446" stroke="none"/>
<line clip-path="url(#clipPath1)" fill="none" x1="465" x2="480" y1="446" y2="139" shape-rendering="auto" stroke="rgb(238,0,0)"/>
<circle clip-path="url(#clipPath1)" fill="rgb(238,0,0)" shape-rendering="auto" r="2" cx="480" cy="139" stroke="none"/>
<line clip-path="url(#clipPath1)" fill="none" x1="480" x2="480" y1="139" y2="446" stroke="rgb(238,0,0)"/>
<circle clip-path="url(#clipPath1)" fill="rgb(238,0,0)" shape-rendering="auto" r="2" cx="480" cy="446" stroke="none"/>
<line clip-path="url(#clipPath1)" fill="none" x1="480" x2="503" y1="446" y2="139" shape-rendering="auto" stroke="rgb(238,0,0)"/>
<circle clip-path="url(#clipPath1)" fill="rgb(238,0,0)" shape-rendering="auto" r="2" cx="503" cy="139" stroke="none"/>
<line clip-path="url(#clipPath1)" fill="none" x1="503" x2="503" y1="139" y2="446" stroke="rgb(238,0,0)"/>
<circle clip-path="url(#clipPath1)" fill="rgb(238,0,0)" shape-rendering="auto" r="2" cx="503" cy="446" stroke="none"/>
<line clip-path="url(#clipPath1)" fill="none" x1="503" x2="525" y1="446" y2="139" shape-rendering="auto" stroke="rgb(238,0,0)"/>
<circle clip-path="url(#clipPath1)" fill="rgb(238,0,0)" shape-rendering="auto" r="2" cx="525" cy="139" stroke="none"/>
<line clip-path="url(#clipPath1)" fill="none" x1="525" x2="525" y1="139" y2="446" stroke="rgb(238,0,0)"/>
<circle clip-path="url(#clipPath1)" fill="rgb(238,0,0)" shape-rendering="auto" r="2" cx="525" cy="446" stroke="none"/>
<line clip-path="url(#clipPath1)" fill="none" x1="525" x2="549" y1="446" y2="139" shape-rendering="auto" stroke="rgb(238,0,0)"/>
<circle clip-path="url(#clipPath1)" fill="rgb(238,0,0)" shape-rendering="auto" r="2" cx="549" cy="139" stroke="none"/>
<line clip-path="url(#clipPath1)" fill="none" x1="549" x2="549" y1="139" y2="446" stroke="rgb(238,0,0)"/>
<circle clip-path="url(#clipPath1)" fill="rgb(238,0,0)" shape-rendering="auto" r="2" cx="549" cy="446" stroke="none"/>
<line clip-path="url(#clipPath1)" fill="none" x1="549" x2="569" y1="446" y2="139" shape-rendering="auto" stroke="rgb(238,0,0)"/>
<circle clip-path="url(#clipPath1)" fill="rgb(238,0,0)" shape-rendering="auto" r="2" cx="569" cy="139" stroke="none"/>
<line clip-path="url(#clipPath1)" fill="none" x1="569" x2="569" y1="139" y2="446" stroke="rgb(238,0,0)"/>
<circle clip-path="url(#clipPath1)" fill="rgb(238,0,0)" shape-rendering="auto" r="2" cx="569" cy="446" stroke="none"/>
<line clip-path="url(#clipPath1)" fill="none" x1="569" x2="589" y1="446" y2="139" shape-rendering="auto" stroke="rgb(238,0,0)"/>
<circle clip-path="url(#clipPath1)" fill="rgb(238,0,0)" shape-rendering="auto" r="2" cx="589" cy="139" stroke="none"/>
<line clip-path="url(#clipPath1)" fill="none" x1="589" x2="589" y1="139" y2="446" stroke="rgb(238,0,0)"/>
<circle clip-path="url(#clipPath1)" fill="rgb(238,0,0)" shape-rendering="auto" r="2" cx="589" cy="446" stroke="none"/>
<line clip-path="url(#clipPath1)" fill="none" x1="589" x2="605" y1="446" y2="139" shape-rendering="auto" stroke="rgb(238,0,0)"/>
<circle clip-path="url(#clipPath1)" fill="rgb(238,0,0)" shape-rendering="auto" r="2" cx="605" cy="139" stroke="none"/>
<line clip-path="url(#clipPath1)" fill="none" x1="605" x2="605" y1="139" y2="446" stroke="rgb(238,0,0)"/>
<circle clip-path="url(#clipPath1)" fill="rgb(238,0,0)" shape-rendering="auto" r="2" cx="605" cy="446" stroke="none"/>
<line clip-path="url(#clipPath1)" fill="none" x1="605" x2="628" y1="446" y2="139" shape-rendering="auto" stroke="rgb(238,0,0)"/>
<circle clip-path="url(#clipPath1)" fill="rgb(238,0,0)" shape-rendering="auto" r="2" cx="628" cy="139" stroke="none"/>
<line clip-path="url(#clipPath1)" fill="none" x1="628" x2="628" y1="139" y2="446" stroke="rgb(238,0,0)"/>
<circle clip-path="url(#clipPath1)" fill="rgb(238,0,0)" shape-rendering="auto" r="2" cx="628" cy="446" stroke="none"/>
<line clip-path="url(#clipPath1)" fill="none" x1="628" x2="654" y1="446" y2="139" shape-rendering="auto" stroke="rgb(238,0,0)"/>
<circle clip-path="url(#clipPath1)" fill="rgb(238,0,0)" shape-rendering="auto" r="2" cx="654" cy="139" stroke="none"/>
<line clip-path="url(#clipPath1)" fill="none" x1="654" x2="654" y1="139" y2="446" stroke="rgb(238,0,0)"/>
<circle clip-path="url(#clipPath1)" fill="rgb(238,0,0)" shape-rendering="auto" r="2" cx="654" cy="446" stroke="none"/>
<line clip-path="url(#clipPath1)" fill="none" x1="654" x2="673" y1="446" y2="139" shape-rendering="auto" stroke="rgb(238,0,0)"/>
<circle clip-path="url(#clipPath1)" fill="rgb(238,0,0)" shape-rendering="auto" r="2" cx="673" cy="139" stroke="none"/>
<line clip-path="url(#clipPath1)" fill="none" x1="673" x2="673" y1="139" y2="446" stroke="rgb(238,0,0)"/>
<circle clip-path="url(#clipPath1)" fill="rgb(238,0,0)" shape-rendering="auto" r="2" cx="673" cy="446" stroke="none"/>
<rect x="32" y="38" clip-path="url(#clipPath2)" fill="none" width="650" shape-rendering="auto" height="408" stroke="black"/>
</g>
<g text-rendering="geometricPrecision" font-size="13" stroke-linecap="butt">
<text xml:space="preserve" x="241" y="13" clip-path="url(#clipPath2)" stroke="none">SubstationHSR.MU1.endNodeSwitch</text>
<rect x="140" y="474" clip-path="url(#clipPath3)" fill="white" width="433" height="23" stroke="none"/>
<line clip-path="url(#clipPath3)" fill="none" x1="146" x2="160" y1="485" y2="485" stroke="rgb(0,0,139)"/>
<rect x="150" y="482" clip-path="url(#clipPath3)" fill="rgb(0,0,139)" width="7" height="7" stroke="none"/>
<text x="162" font-size="11" y="490" clip-path="url(#clipPath3)" stroke="none" xml:space="preserve">A: QueueSize EXPRESS from Ring</text>
<line clip-path="url(#clipPath3)" fill="none" x1="362" x2="376" y1="485" y2="485" stroke="rgb(238,0,0)"/>
<circle clip-path="url(#clipPath3)" fill="rgb(238,0,0)" r="3" cx="369" cy="485" stroke="none"/>
<text x="378" font-size="11" y="490" clip-path="url(#clipPath3)" stroke="none" xml:space="preserve">B: QueueSize EXPRESS from Ring</text>
<line clip-path="url(#clipPath2)" fill="none" x1="32" x2="682" y1="36" y2="36"/>
<line clip-path="url(#clipPath2)" fill="none" x1="32" x2="682" y1="448" y2="448"/>
<line clip-path="url(#clipPath2)" fill="none" x1="32" x2="32" y1="32" y2="36"/>
<line clip-path="url(#clipPath2)" fill="none" x1="32" x2="32" y1="452" y2="448"/>
<text x="24" font-size="11" y="29" clip-path="url(#clipPath2)" stroke="none" xml:space="preserve">0.0</text>
<text x="24" font-size="11" y="464" clip-path="url(#clipPath2)" stroke="none" xml:space="preserve">0.0</text>
<line clip-path="url(#clipPath2)" fill="none" x1="45" x2="45" y1="34" y2="36"/>
<line clip-path="url(#clipPath2)" fill="none" x1="45" x2="45" y1="450" y2="448"/>
<line clip-path="url(#clipPath2)" fill="none" x1="58" x2="58" y1="34" y2="36"/>
<line clip-path="url(#clipPath2)" fill="none" x1="58" x2="58" y1="450" y2="448"/>
<line clip-path="url(#clipPath2)" fill="none" x1="71" x2="71" y1="34" y2="36"/>
<line clip-path="url(#clipPath2)" fill="none" x1="71" x2="71" y1="450" y2="448"/>
<line clip-path="url(#clipPath2)" fill="none" x1="84" x2="84" y1="34" y2="36"/>
<line clip-path="url(#clipPath2)" fill="none" x1="84" x2="84" y1="450" y2="448"/>
<line clip-path="url(#clipPath2)" fill="none" x1="97" x2="97" y1="32" y2="36"/>
<line clip-path="url(#clipPath2)" fill="none" x1="97" x2="97" y1="452" y2="448"/>
<text x="86" font-size="11" y="29" clip-path="url(#clipPath2)" stroke="none" xml:space="preserve">0.05</text>
<text x="86" font-size="11" y="464" clip-path="url(#clipPath2)" stroke="none" xml:space="preserve">0.05</text>
<line clip-path="url(#clipPath2)" fill="none" x1="111" x2="111" y1="34" y2="36"/>
<line clip-path="url(#clipPath2)" fill="none" x1="111" x2="111" y1="450" y2="448"/>
<line clip-path="url(#clipPath2)" fill="none" x1="124" x2="124" y1="34" y2="36"/>
<line clip-path="url(#clipPath2)" fill="none" x1="124" x2="124" y1="450" y2="448"/>
<line clip-path="url(#clipPath2)" fill="none" x1="137" x2="137" y1="34" y2="36"/>
<line clip-path="url(#clipPath2)" fill="none" x1="137" x2="137" y1="450" y2="448"/>
<line clip-path="url(#clipPath2)" fill="none" x1="150" x2="150" y1="34" y2="36"/>
<line clip-path="url(#clipPath2)" fill="none" x1="150" x2="150" y1="450" y2="448"/>
<line clip-path="url(#clipPath2)" fill="none" x1="163" x2="163" y1="32" y2="36"/>
<line clip-path="url(#clipPath2)" fill="none" x1="163" x2="163" y1="452" y2="448"/>
<text x="152" font-size="11" y="29" clip-path="url(#clipPath2)" stroke="none" xml:space="preserve">0.10</text>
<text x="152" font-size="11" y="464" clip-path="url(#clipPath2)" stroke="none" xml:space="preserve">0.10</text>
<line clip-path="url(#clipPath2)" fill="none" x1="176" x2="176" y1="34" y2="36"/>
<line clip-path="url(#clipPath2)" fill="none" x1="176" x2="176" y1="450" y2="448"/>
<line clip-path="url(#clipPath2)" fill="none" x1="190" x2="190" y1="34" y2="36"/>
<line clip-path="url(#clipPath2)" fill="none" x1="190" x2="190" y1="450" y2="448"/>
<line clip-path="url(#clipPath2)" fill="none" x1="203" x2="203" y1="34" y2="36"/>
<line clip-path="url(#clipPath2)" fill="none" x1="203" x2="203" y1="450" y2="448"/>
<line clip-path="url(#clipPath2)" fill="none" x1="216" x2="216" y1="34" y2="36"/>
<line clip-path="url(#clipPath2)" fill="none" x1="216" x2="216" y1="450" y2="448"/>
<line clip-path="url(#clipPath2)" fill="none" x1="229" x2="229" y1="32" y2="36"/>
<line clip-path="url(#clipPath2)" fill="none" x1="229" x2="229" y1="452" y2="448"/>
<text x="218" font-size="11" y="29" clip-path="url(#clipPath2)" stroke="none" xml:space="preserve">0.15</text>
<text x="218" font-size="11" y="464" clip-path="url(#clipPath2)" stroke="none" xml:space="preserve">0.15</text>
<line clip-path="url(#clipPath2)" fill="none" x1="242" x2="242" y1="34" y2="36"/>
<line clip-path="url(#clipPath2)" fill="none" x1="242" x2="242" y1="450" y2="448"/>
<line clip-path="url(#clipPath2)" fill="none" x1="256" x2="256" y1="34" y2="36"/>
<line clip-path="url(#clipPath2)" fill="none" x1="256" x2="256" y1="450" y2="448"/>
<line clip-path="url(#clipPath2)" fill="none" x1="269" x2="269" y1="34" y2="36"/>
<line clip-path="url(#clipPath2)" fill="none" x1="269" x2="269" y1="450" y2="448"/>
<line clip-path="url(#clipPath2)" fill="none" x1="282" x2="282" y1="34" y2="36"/>
<line clip-path="url(#clipPath2)" fill="none" x1="282" x2="282" y1="450" y2="448"/>
<line clip-path="url(#clipPath2)" fill="none" x1="295" x2="295" y1="32" y2="36"/>
<line clip-path="url(#clipPath2)" fill="none" x1="295" x2="295" y1="452" y2="448"/>
<text x="284" font-size="11" y="29" clip-path="url(#clipPath2)" stroke="none" xml:space="preserve">0.20</text>
<text x="284" font-size="11" y="464" clip-path="url(#clipPath2)" stroke="none" xml:space="preserve">0.20</text>
<line clip-path="url(#clipPath2)" fill="none" x1="308" x2="308" y1="34" y2="36"/>
<line clip-path="url(#clipPath2)" fill="none" x1="308" x2="308" y1="450" y2="448"/>
<line clip-path="url(#clipPath2)" fill="none" x1="321" x2="321" y1="34" y2="36"/>
<line clip-path="url(#clipPath2)" fill="none" x1="321" x2="321" y1="450" y2="448"/>
<line clip-path="url(#clipPath2)" fill="none" x1="335" x2="335" y1="34" y2="36"/>
<line clip-path="url(#clipPath2)" fill="none" x1="335" x2="335" y1="450" y2="448"/>
<line clip-path="url(#clipPath2)" fill="none" x1="348" x2="348" y1="34" y2="36"/>
<line clip-path="url(#clipPath2)" fill="none" x1="348" x2="348" y1="450" y2="448"/>
<line clip-path="url(#clipPath2)" fill="none" x1="361" x2="361" y1="32" y2="36"/>
<line clip-path="url(#clipPath2)" fill="none" x1="361" x2="361" y1="452" y2="448"/>
<text x="350" font-size="11" y="29" clip-path="url(#clipPath2)" stroke="none" xml:space="preserve">0.25</text>
<text x="350" font-size="11" y="464" clip-path="url(#clipPath2)" stroke="none" xml:space="preserve">0.25</text>
<line clip-path="url(#clipPath2)" fill="none" x1="374" x2="374" y1="34" y2="36"/>
<line clip-path="url(#clipPath2)" fill="none" x1="374" x2="374" y1="450" y2="448"/>
<line clip-path="url(#clipPath2)" fill="none" x1="387" x2="387" y1="34" y2="36"/>
<line clip-path="url(#clipPath2)" fill="none" x1="387" x2="387" y1="450" y2="448"/>
<line clip-path="url(#clipPath2)" fill="none" x1="401" x2="401" y1="34" y2="36"/>
<line clip-path="url(#clipPath2)" fill="none" x1="401" x2="401" y1="450" y2="448"/>
<line clip-path="url(#clipPath2)" fill="none" x1="414" x2="414" y1="34" y2="36"/>
<line clip-path="url(#clipPath2)" fill="none" x1="414" x2="414" y1="450" y2="448"/>
<line clip-path="url(#clipPath2)" fill="none" x1="427" x2="427" y1="32" y2="36"/>
<line clip-path="url(#clipPath2)" fill="none" x1="427" x2="427" y1="452" y2="448"/>
<text x="416" font-size="11" y="29" clip-path="url(#clipPath2)" stroke="none" xml:space="preserve">0.30</text>
<text x="416" font-size="11" y="464" clip-path="url(#clipPath2)" stroke="none" xml:space="preserve">0.30</text>
<line clip-path="url(#clipPath2)" fill="none" x1="440" x2="440" y1="34" y2="36"/>
<line clip-path="url(#clipPath2)" fill="none" x1="440" x2="440" y1="450" y2="448"/>
<line clip-path="url(#clipPath2)" fill="none" x1="453" x2="453" y1="34" y2="36"/>
<line clip-path="url(#clipPath2)" fill="none" x1="453" x2="453" y1="450" y2="448"/>
<line clip-path="url(#clipPath2)" fill="none" x1="466" x2="466" y1="34" y2="36"/>
<line clip-path="url(#clipPath2)" fill="none" x1="466" x2="466" y1="450" y2="448"/>
<line clip-path="url(#clipPath2)" fill="none" x1="480" x2="480" y1="34" y2="36"/>
<line clip-path="url(#clipPath2)" fill="none" x1="480" x2="480" y1="450" y2="448"/>
<line clip-path="url(#clipPath2)" fill="none" x1="493" x2="493" y1="32" y2="36"/>
<line clip-path="url(#clipPath2)" fill="none" x1="493" x2="493" y1="452" y2="448"/>
<text x="482" font-size="11" y="29" clip-path="url(#clipPath2)" stroke="none" xml:space="preserve">0.35</text>
<text x="482" font-size="11" y="464" clip-path="url(#clipPath2)" stroke="none" xml:space="preserve">0.35</text>
<line clip-path="url(#clipPath2)" fill="none" x1="506" x2="506" y1="34" y2="36"/>
<line clip-path="url(#clipPath2)" fill="none" x1="506" x2="506" y1="450" y2="448"/>
<line clip-path="url(#clipPath2)" fill="none" x1="519" x2="519" y1="34" y2="36"/>
<line clip-path="url(#clipPath2)" fill="none" x1="519" x2="519" y1="450" y2="448"/>
<line clip-path="url(#clipPath2)" fill="none" x1="532" x2="532" y1="34" y2="36"/>
<line clip-path="url(#clipPath2)" fill="none" x1="532" x2="532" y1="450" y2="448"/>
<line clip-path="url(#clipPath2)" fill="none" x1="546" x2="546" y1="34" y2="36"/>
<line clip-path="url(#clipPath2)" fill="none" x1="546" x2="546" y1="450" y2="448"/>
<line clip-path="url(#clipPath2)" fill="none" x1="559" x2="559" y1="32" y2="36"/>
<line clip-path="url(#clipPath2)" fill="none" x1="559" x2="559" y1="452" y2="448"/>
<text x="548" font-size="11" y="29" clip-path="url(#clipPath2)" stroke="none" xml:space="preserve">0.40</text>
<text x="548" font-size="11" y="464" clip-path="url(#clipPath2)" stroke="none" xml:space="preserve">0.40</text>
<line clip-path="url(#clipPath2)" fill="none" x1="572" x2="572" y1="34" y2="36"/>
<line clip-path="url(#clipPath2)" fill="none" x1="572" x2="572" y1="450" y2="448"/>
<line clip-path="url(#clipPath2)" fill="none" x1="585" x2="585" y1="34" y2="36"/>
<line clip-path="url(#clipPath2)" fill="none" x1="585" x2="585" y1="450" y2="448"/>
<line clip-path="url(#clipPath2)" fill="none" x1="598" x2="598" y1="34" y2="36"/>
<line clip-path="url(#clipPath2)" fill="none" x1="598" x2="598" y1="450" y2="448"/>
<line clip-path="url(#clipPath2)" fill="none" x1="611" x2="611" y1="34" y2="36"/>
<line clip-path="url(#clipPath2)" fill="none" x1="611" x2="611" y1="450" y2="448"/>
<line clip-path="url(#clipPath2)" fill="none" x1="625" x2="625" y1="32" y2="36"/>
<line clip-path="url(#clipPath2)" fill="none" x1="625" x2="625" y1="452" y2="448"/>
<text x="614" font-size="11" y="29" clip-path="url(#clipPath2)" stroke="none" xml:space="preserve">0.45</text>
<text x="614" font-size="11" y="464" clip-path="url(#clipPath2)" stroke="none" xml:space="preserve">0.45</text>
<line clip-path="url(#clipPath2)" fill="none" x1="638" x2="638" y1="34" y2="36"/>
<line clip-path="url(#clipPath2)" fill="none" x1="638" x2="638" y1="450" y2="448"/>
<line clip-path="url(#clipPath2)" fill="none" x1="651" x2="651" y1="34" y2="36"/>
<line clip-path="url(#clipPath2)" fill="none" x1="651" x2="651" y1="450" y2="448"/>
<line clip-path="url(#clipPath2)" fill="none" x1="664" x2="664" y1="34" y2="36"/>
<line clip-path="url(#clipPath2)" fill="none" x1="664" x2="664" y1="450" y2="448"/>
<line clip-path="url(#clipPath2)" fill="none" x1="677" x2="677" y1="34" y2="36"/>
<line clip-path="url(#clipPath2)" fill="none" x1="677" x2="677" y1="450" y2="448"/>
<line clip-path="url(#clipPath2)" fill="none" x1="30" x2="30" y1="38" y2="446"/>
<line clip-path="url(#clipPath2)" fill="none" x1="684" x2="684" y1="38" y2="446"/>
<line clip-path="url(#clipPath2)" fill="none" x1="26" x2="30" y1="446" y2="446"/>
<line clip-path="url(#clipPath2)" fill="none" x1="688" x2="684" y1="446" y2="446"/>
<text x="19" font-size="11" y="451" clip-path="url(#clipPath2)" stroke="none" xml:space="preserve">0</text>
<text x="691" font-size="11" y="451" clip-path="url(#clipPath2)" stroke="none" xml:space="preserve">0</text>
<line clip-path="url(#clipPath2)" fill="none" x1="28" x2="30" y1="415" y2="415"/>
<line clip-path="url(#clipPath2)" fill="none" x1="686" x2="684" y1="415" y2="415"/>
<line clip-path="url(#clipPath2)" fill="none" x1="26" x2="30" y1="384" y2="384"/>
<line clip-path="url(#clipPath2)" fill="none" x1="688" x2="684" y1="384" y2="384"/>
<text x="7" font-size="11" y="389" clip-path="url(#clipPath2)" stroke="none" xml:space="preserve">0.2</text>
<text x="691" font-size="11" y="389" clip-path="url(#clipPath2)" stroke="none" xml:space="preserve">0.2</text>
<line clip-path="url(#clipPath2)" fill="none" x1="28" x2="30" y1="354" y2="354"/>
<line clip-path="url(#clipPath2)" fill="none" x1="686" x2="684" y1="354" y2="354"/>
<line clip-path="url(#clipPath2)" fill="none" x1="26" x2="30" y1="323" y2="323"/>
<line clip-path="url(#clipPath2)" fill="none" x1="688" x2="684" y1="323" y2="323"/>
<text x="7" font-size="11" y="328" clip-path="url(#clipPath2)" stroke="none" xml:space="preserve">0.4</text>
<text x="691" font-size="11" y="328" clip-path="url(#clipPath2)" stroke="none" xml:space="preserve">0.4</text>
<line clip-path="url(#clipPath2)" fill="none" x1="28" x2="30" y1="293" y2="293"/>
<line clip-path="url(#clipPath2)" fill="none" x1="686" x2="684" y1="293" y2="293"/>
<line clip-path="url(#clipPath2)" fill="none" x1="26" x2="30" y1="262" y2="262"/>
<line clip-path="url(#clipPath2)" fill="none" x1="688" x2="684" y1="262" y2="262"/>
<text x="7" font-size="11" y="267" clip-path="url(#clipPath2)" stroke="none" xml:space="preserve">0.6</text>
<text x="691" font-size="11" y="267" clip-path="url(#clipPath2)" stroke="none" xml:space="preserve">0.6</text>
<line clip-path="url(#clipPath2)" fill="none" x1="28" x2="30" y1="231" y2="231"/>
<line clip-path="url(#clipPath2)" fill="none" x1="686" x2="684" y1="231" y2="231"/>
<line clip-path="url(#clipPath2)" fill="none" x1="26" x2="30" y1="201" y2="201"/>
<line clip-path="url(#clipPath2)" fill="none" x1="688" x2="684" y1="201" y2="201"/>
<text x="7" font-size="11" y="206" clip-path="url(#clipPath2)" stroke="none" xml:space="preserve">0.8</text>
<text x="691" font-size="11" y="206" clip-path="url(#clipPath2)" stroke="none" xml:space="preserve">0.8</text>
<line clip-path="url(#clipPath2)" fill="none" x1="28" x2="30" y1="170" y2="170"/>
<line clip-path="url(#clipPath2)" fill="none" x1="686" x2="684" y1="170" y2="170"/>
<line clip-path="url(#clipPath2)" fill="none" x1="26" x2="30" y1="139" y2="139"/>
<line clip-path="url(#clipPath2)" fill="none" x1="688" x2="684" y1="139" y2="139"/>
<text x="7" font-size="11" y="144" clip-path="url(#clipPath2)" stroke="none" xml:space="preserve">1.0</text>
<text x="691" font-size="11" y="144" clip-path="url(#clipPath2)" stroke="none" xml:space="preserve">1.0</text>
<line clip-path="url(#clipPath2)" fill="none" x1="28" x2="30" y1="109" y2="109"/>
<line clip-path="url(#clipPath2)" fill="none" x1="686" x2="684" y1="109" y2="109"/>
<line clip-path="url(#clipPath2)" fill="none" x1="26" x2="30" y1="78" y2="78"/>
<line clip-path="url(#clipPath2)" fill="none" x1="688" x2="684" y1="78" y2="78"/>
<text x="7" font-size="11" y="83" clip-path="url(#clipPath2)" stroke="none" xml:space="preserve">1.2</text>
<text x="691" font-size="11" y="83" clip-path="url(#clipPath2)" stroke="none" xml:space="preserve">1.2</text>
<line clip-path="url(#clipPath2)" fill="none" x1="28" x2="30" y1="48" y2="48"/>
<line clip-path="url(#clipPath2)" fill="none" x1="686" x2="684" y1="48" y2="48"/>
</g>
</g>
</svg>
