<?xml version="1.0" encoding="UTF-8"?><svg xmlns="http://www.w3.org/2000/svg" xmlns:xlink="http://www.w3.org/1999/xlink" stroke-dasharray="none" shape-rendering="auto" font-family="'Dialog'" width="714" text-rendering="auto" fill-opacity="1" contentScriptType="text/ecmascript" color-interpolation="auto" color-rendering="auto" preserveAspectRatio="xMidYMid meet" font-size="12" fill="black" stroke="black" image-rendering="auto" stroke-miterlimit="10" zoomAndPan="magnify" version="1.0" stroke-linecap="square" stroke-linejoin="miter" contentStyleType="text/css" font-style="normal" height="502" stroke-width="1" stroke-dashoffset="0" font-weight="normal" stroke-opacity="1">
<!--Generated by the Batik Graphics2D SVG Generator-->
<defs id="genericDefs"/>
<g>
<defs id="defs1">
<clipPath clipPathUnits="userSpaceOnUse" id="clipPath1">
<path d="M31 37 L683 37 L683 447 L31 447 L31 37 Z"/>
</clipPath>
<clipPath clipPathUnits="userSpaceOnUse" id="clipPath2">
<path d="M-1 -1 L715 -1 L715 503 L-1 503 L-1 -1 Z"/>
</clipPath>
<clipPath clipPathUnits="userSpaceOnUse" id="clipPath3">
<path d="M112 473 L602 473 L602 499 L112 499 L112 473 Z"/>
</clipPath>
</defs>
<g font-size="15" fill="white" text-rendering="geometricPrecision" font-family="'Cantarell'" stroke-linejoin="round" stroke="white" stroke-width="0" stroke-miterlimit="0">
<rect x="32" y="38" clip-path="url(#clipPath1)" width="650" height="408" stroke="none"/>
</g>
<g stroke-linecap="butt" font-size="15" fill="rgb(204,204,204)" text-rendering="geometricPrecision" font-family="'Cantarell'" stroke-dasharray="3,3" stroke="rgb(204,204,204)">
<line clip-path="url(#clipPath1)" fill="none" x1="32" x2="32" y1="38" y2="446"/>
<line clip-path="url(#clipPath1)" fill="none" x1="96" x2="96" y1="38" y2="446"/>
<line clip-path="url(#clipPath1)" fill="none" x1="161" x2="161" y1="38" y2="446"/>
<line clip-path="url(#clipPath1)" fill="none" x1="226" x2="226" y1="38" y2="446"/>
<line clip-path="url(#clipPath1)" fill="none" x1="290" x2="290" y1="38" y2="446"/>
<line clip-path="url(#clipPath1)" fill="none" x1="355" x2="355" y1="38" y2="446"/>
<line clip-path="url(#clipPath1)" fill="none" x1="420" x2="420" y1="38" y2="446"/>
<line clip-path="url(#clipPath1)" fill="none" x1="485" x2="485" y1="38" y2="446"/>
<line clip-path="url(#clipPath1)" fill="none" x1="549" x2="549" y1="38" y2="446"/>
<line clip-path="url(#clipPath1)" fill="none" x1="614" x2="614" y1="38" y2="446"/>
<line clip-path="url(#clipPath1)" fill="none" x1="679" x2="679" y1="38" y2="446"/>
<line clip-path="url(#clipPath1)" fill="none" x1="32" x2="682" y1="446" y2="446"/>
<line clip-path="url(#clipPath1)" fill="none" x1="32" x2="682" y1="384" y2="384"/>
<line clip-path="url(#clipPath1)" fill="none" x1="32" x2="682" y1="323" y2="323"/>
<line clip-path="url(#clipPath1)" fill="none" x1="32" x2="682" y1="262" y2="262"/>
<line clip-path="url(#clipPath1)" fill="none" x1="32" x2="682" y1="201" y2="201"/>
<line clip-path="url(#clipPath1)" fill="none" x1="32" x2="682" y1="139" y2="139"/>
<line clip-path="url(#clipPath1)" fill="none" x1="32" x2="682" y1="78" y2="78"/>
<rect x="70" y="137" clip-path="url(#clipPath1)" fill="rgb(0,0,139)" width="5" height="5" stroke="none"/>
</g>
<g stroke-linecap="butt" font-size="15" fill="rgb(0,0,139)" text-rendering="geometricPrecision" font-family="'Cantarell'" shape-rendering="crispEdges" stroke="rgb(0,0,139)">
<line clip-path="url(#clipPath1)" fill="none" x1="72" x2="72" y1="139" y2="446"/>
<rect x="70" y="444" clip-path="url(#clipPath1)" width="5" shape-rendering="auto" height="5" stroke="none"/>
<line clip-path="url(#clipPath1)" fill="none" x1="72" x2="97" y1="446" y2="139" shape-rendering="auto"/>
<rect x="95" y="137" clip-path="url(#clipPath1)" width="5" shape-rendering="auto" height="5" stroke="none"/>
<line clip-path="url(#clipPath1)" fill="none" x1="97" x2="97" y1="139" y2="446"/>
<rect x="95" y="444" clip-path="url(#clipPath1)" width="5" shape-rendering="auto" height="5" stroke="none"/>
<line clip-path="url(#clipPath1)" fill="none" x1="97" x2="116" y1="446" y2="139" shape-rendering="auto"/>
<rect x="114" y="137" clip-path="url(#clipPath1)" width="5" shape-rendering="auto" height="5" stroke="none"/>
<line clip-path="url(#clipPath1)" fill="none" x1="116" x2="116" y1="139" y2="446"/>
<rect x="114" y="444" clip-path="url(#clipPath1)" width="5" shape-rendering="auto" height="5" stroke="none"/>
<line clip-path="url(#clipPath1)" fill="none" x1="116" x2="129" y1="446" y2="139" shape-rendering="auto"/>
<rect x="127" y="137" clip-path="url(#clipPath1)" width="5" shape-rendering="auto" height="5" stroke="none"/>
<line clip-path="url(#clipPath1)" fill="none" x1="129" x2="129" y1="139" y2="446"/>
<rect x="127" y="444" clip-path="url(#clipPath1)" width="5" shape-rendering="auto" height="5" stroke="none"/>
<line clip-path="url(#clipPath1)" fill="none" x1="129" x2="147" y1="446" y2="139" shape-rendering="auto"/>
<rect x="145" y="137" clip-path="url(#clipPath1)" width="5" shape-rendering="auto" height="5" stroke="none"/>
<line clip-path="url(#clipPath1)" fill="none" x1="147" x2="147" y1="139" y2="446"/>
<rect x="145" y="444" clip-path="url(#clipPath1)" width="5" shape-rendering="auto" height="5" stroke="none"/>
<line clip-path="url(#clipPath1)" fill="none" x1="147" x2="165" y1="446" y2="139" shape-rendering="auto"/>
<rect x="163" y="137" clip-path="url(#clipPath1)" width="5" shape-rendering="auto" height="5" stroke="none"/>
<line clip-path="url(#clipPath1)" fill="none" x1="165" x2="165" y1="139" y2="446"/>
<rect x="163" y="444" clip-path="url(#clipPath1)" width="5" shape-rendering="auto" height="5" stroke="none"/>
<line clip-path="url(#clipPath1)" fill="none" x1="165" x2="186" y1="446" y2="139" shape-rendering="auto"/>
<rect x="184" y="137" clip-path="url(#clipPath1)" width="5" shape-rendering="auto" height="5" stroke="none"/>
<line clip-path="url(#clipPath1)" fill="none" x1="186" x2="186" y1="139" y2="446"/>
<rect x="184" y="444" clip-path="url(#clipPath1)" width="5" shape-rendering="auto" height="5" stroke="none"/>
<line clip-path="url(#clipPath1)" fill="none" x1="186" x2="204" y1="446" y2="139" shape-rendering="auto"/>
<rect x="202" y="137" clip-path="url(#clipPath1)" width="5" shape-rendering="auto" height="5" stroke="none"/>
<line clip-path="url(#clipPath1)" fill="none" x1="204" x2="204" y1="139" y2="446"/>
<rect x="202" y="444" clip-path="url(#clipPath1)" width="5" shape-rendering="auto" height="5" stroke="none"/>
<line clip-path="url(#clipPath1)" fill="none" x1="204" x2="219" y1="446" y2="139" shape-rendering="auto"/>
<rect x="217" y="137" clip-path="url(#clipPath1)" width="5" shape-rendering="auto" height="5" stroke="none"/>
<line clip-path="url(#clipPath1)" fill="none" x1="219" x2="219" y1="139" y2="446"/>
<rect x="217" y="444" clip-path="url(#clipPath1)" width="5" shape-rendering="auto" height="5" stroke="none"/>
<line clip-path="url(#clipPath1)" fill="none" x1="219" x2="239" y1="446" y2="139" shape-rendering="auto"/>
<rect x="237" y="137" clip-path="url(#clipPath1)" width="5" shape-rendering="auto" height="5" stroke="none"/>
<line clip-path="url(#clipPath1)" fill="none" x1="239" x2="239" y1="139" y2="446"/>
<rect x="237" y="444" clip-path="url(#clipPath1)" width="5" shape-rendering="auto" height="5" stroke="none"/>
<line clip-path="url(#clipPath1)" fill="none" x1="239" x2="254" y1="446" y2="139" shape-rendering="auto"/>
<rect x="252" y="137" clip-path="url(#clipPath1)" width="5" shape-rendering="auto" height="5" stroke="none"/>
<line clip-path="url(#clipPath1)" fill="none" x1="254" x2="254" y1="139" y2="446"/>
<rect x="252" y="444" clip-path="url(#clipPath1)" width="5" shape-rendering="auto" height="5" stroke="none"/>
<line clip-path="url(#clipPath1)" fill="none" x1="254" x2="279" y1="446" y2="139" shape-rendering="auto"/>
<rect x="277" y="137" clip-path="url(#clipPath1)" width="5" shape-rendering="auto" height="5" stroke="none"/>
<line clip-path="url(#clipPath1)" fill="none" x1="279" x2="279" y1="139" y2="446"/>
<rect x="277" y="444" clip-path="url(#clipPath1)" width="5" shape-rendering="auto" height="5" stroke="none"/>
<line clip-path="url(#clipPath1)" fill="none" x1="279" x2="298" y1="446" y2="139" shape-rendering="auto"/>
<rect x="296" y="137" clip-path="url(#clipPath1)" width="5" shape-rendering="auto" height="5" stroke="none"/>
<line clip-path="url(#clipPath1)" fill="none" x1="298" x2="298" y1="139" y2="446"/>
<rect x="296" y="444" clip-path="url(#clipPath1)" width="5" shape-rendering="auto" height="5" stroke="none"/>
<line clip-path="url(#clipPath1)" fill="none" x1="298" x2="312" y1="446" y2="139" shape-rendering="auto"/>
<rect x="310" y="137" clip-path="url(#clipPath1)" width="5" shape-rendering="auto" height="5" stroke="none"/>
<line clip-path="url(#clipPath1)" fill="none" x1="312" x2="312" y1="139" y2="446"/>
<rect x="310" y="444" clip-path="url(#clipPath1)" width="5" shape-rendering="auto" height="5" stroke="none"/>
<line clip-path="url(#clipPath1)" fill="none" x1="312" x2="330" y1="446" y2="139" shape-rendering="auto"/>
<rect x="328" y="137" clip-path="url(#clipPath1)" width="5" shape-rendering="auto" height="5" stroke="none"/>
<line clip-path="url(#clipPath1)" fill="none" x1="330" x2="330" y1="139" y2="446"/>
<rect x="328" y="444" clip-path="url(#clipPath1)" width="5" shape-rendering="auto" height="5" stroke="none"/>
<line clip-path="url(#clipPath1)" fill="none" x1="330" x2="345" y1="446" y2="139" shape-rendering="auto"/>
<rect x="343" y="137" clip-path="url(#clipPath1)" width="5" shape-rendering="auto" height="5" stroke="none"/>
<line clip-path="url(#clipPath1)" fill="none" x1="345" x2="345" y1="139" y2="446"/>
<rect x="343" y="444" clip-path="url(#clipPath1)" width="5" shape-rendering="auto" height="5" stroke="none"/>
<line clip-path="url(#clipPath1)" fill="none" x1="345" x2="366" y1="446" y2="139" shape-rendering="auto"/>
<rect x="364" y="137" clip-path="url(#clipPath1)" width="5" shape-rendering="auto" height="5" stroke="none"/>
<line clip-path="url(#clipPath1)" fill="none" x1="366" x2="366" y1="139" y2="446"/>
<rect x="364" y="444" clip-path="url(#clipPath1)" width="5" shape-rendering="auto" height="5" stroke="none"/>
<line clip-path="url(#clipPath1)" fill="none" x1="366" x2="382" y1="446" y2="139" shape-rendering="auto"/>
<rect x="380" y="137" clip-path="url(#clipPath1)" width="5" shape-rendering="auto" height="5" stroke="none"/>
<line clip-path="url(#clipPath1)" fill="none" x1="382" x2="382" y1="139" y2="446"/>
<rect x="380" y="444" clip-path="url(#clipPath1)" width="5" shape-rendering="auto" height="5" stroke="none"/>
<line clip-path="url(#clipPath1)" fill="none" x1="382" x2="406" y1="446" y2="139" shape-rendering="auto"/>
<rect x="404" y="137" clip-path="url(#clipPath1)" width="5" shape-rendering="auto" height="5" stroke="none"/>
<line clip-path="url(#clipPath1)" fill="none" x1="406" x2="406" y1="139" y2="446"/>
<rect x="404" y="444" clip-path="url(#clipPath1)" width="5" shape-rendering="auto" height="5" stroke="none"/>
<line clip-path="url(#clipPath1)" fill="none" x1="406" x2="430" y1="446" y2="139" shape-rendering="auto"/>
<rect x="428" y="137" clip-path="url(#clipPath1)" width="5" shape-rendering="auto" height="5" stroke="none"/>
<line clip-path="url(#clipPath1)" fill="none" x1="430" x2="430" y1="139" y2="446"/>
<rect x="428" y="444" clip-path="url(#clipPath1)" width="5" shape-rendering="auto" height="5" stroke="none"/>
<line clip-path="url(#clipPath1)" fill="none" x1="430" x2="454" y1="446" y2="139" shape-rendering="auto"/>
<rect x="452" y="137" clip-path="url(#clipPath1)" width="5" shape-rendering="auto" height="5" stroke="none"/>
<line clip-path="url(#clipPath1)" fill="none" x1="454" x2="454" y1="139" y2="446"/>
<rect x="452" y="444" clip-path="url(#clipPath1)" width="5" shape-rendering="auto" height="5" stroke="none"/>
<line clip-path="url(#clipPath1)" fill="none" x1="454" x2="469" y1="446" y2="139" shape-rendering="auto"/>
<rect x="467" y="137" clip-path="url(#clipPath1)" width="5" shape-rendering="auto" height="5" stroke="none"/>
<line clip-path="url(#clipPath1)" fill="none" x1="469" x2="469" y1="139" y2="446"/>
<rect x="467" y="444" clip-path="url(#clipPath1)" width="5" shape-rendering="auto" height="5" stroke="none"/>
<line clip-path="url(#clipPath1)" fill="none" x1="469" x2="487" y1="446" y2="139" shape-rendering="auto"/>
<rect x="485" y="137" clip-path="url(#clipPath1)" width="5" shape-rendering="auto" height="5" stroke="none"/>
<line clip-path="url(#clipPath1)" fill="none" x1="487" x2="487" y1="139" y2="446"/>
<rect x="485" y="444" clip-path="url(#clipPath1)" width="5" shape-rendering="auto" height="5" stroke="none"/>
<line clip-path="url(#clipPath1)" fill="none" x1="487" x2="507" y1="446" y2="139" shape-rendering="auto"/>
<rect x="505" y="137" clip-path="url(#clipPath1)" width="5" shape-rendering="auto" height="5" stroke="none"/>
<line clip-path="url(#clipPath1)" fill="none" x1="507" x2="507" y1="139" y2="446"/>
<rect x="505" y="444" clip-path="url(#clipPath1)" width="5" shape-rendering="auto" height="5" stroke="none"/>
<line clip-path="url(#clipPath1)" fill="none" x1="507" x2="527" y1="446" y2="139" shape-rendering="auto"/>
<rect x="525" y="137" clip-path="url(#clipPath1)" width="5" shape-rendering="auto" height="5" stroke="none"/>
<line clip-path="url(#clipPath1)" fill="none" x1="527" x2="527" y1="139" y2="446"/>
<rect x="525" y="444" clip-path="url(#clipPath1)" width="5" shape-rendering="auto" height="5" stroke="none"/>
<line clip-path="url(#clipPath1)" fill="none" x1="527" x2="549" y1="446" y2="139" shape-rendering="auto"/>
<rect x="547" y="137" clip-path="url(#clipPath1)" width="5" shape-rendering="auto" height="5" stroke="none"/>
<line clip-path="url(#clipPath1)" fill="none" x1="549" x2="549" y1="139" y2="446"/>
<rect x="547" y="444" clip-path="url(#clipPath1)" width="5" shape-rendering="auto" height="5" stroke="none"/>
<line clip-path="url(#clipPath1)" fill="none" x1="549" x2="563" y1="446" y2="139" shape-rendering="auto"/>
<rect x="561" y="137" clip-path="url(#clipPath1)" width="5" shape-rendering="auto" height="5" stroke="none"/>
<line clip-path="url(#clipPath1)" fill="none" x1="563" x2="563" y1="139" y2="446"/>
<rect x="561" y="444" clip-path="url(#clipPath1)" width="5" shape-rendering="auto" height="5" stroke="none"/>
<line clip-path="url(#clipPath1)" fill="none" x1="563" x2="577" y1="446" y2="139" shape-rendering="auto"/>
<rect x="575" y="137" clip-path="url(#clipPath1)" width="5" shape-rendering="auto" height="5" stroke="none"/>
<line clip-path="url(#clipPath1)" fill="none" x1="577" x2="577" y1="139" y2="446"/>
<rect x="575" y="444" clip-path="url(#clipPath1)" width="5" shape-rendering="auto" height="5" stroke="none"/>
<line clip-path="url(#clipPath1)" fill="none" x1="577" x2="597" y1="446" y2="139" shape-rendering="auto"/>
<rect x="595" y="137" clip-path="url(#clipPath1)" width="5" shape-rendering="auto" height="5" stroke="none"/>
<line clip-path="url(#clipPath1)" fill="none" x1="597" x2="597" y1="139" y2="446"/>
<rect x="595" y="444" clip-path="url(#clipPath1)" width="5" shape-rendering="auto" height="5" stroke="none"/>
<line clip-path="url(#clipPath1)" fill="none" x1="597" x2="614" y1="446" y2="139" shape-rendering="auto"/>
<rect x="612" y="137" clip-path="url(#clipPath1)" width="5" shape-rendering="auto" height="5" stroke="none"/>
<line clip-path="url(#clipPath1)" fill="none" x1="614" x2="614" y1="139" y2="446"/>
<rect x="612" y="444" clip-path="url(#clipPath1)" width="5" shape-rendering="auto" height="5" stroke="none"/>
<line clip-path="url(#clipPath1)" fill="none" x1="614" x2="629" y1="446" y2="139" shape-rendering="auto"/>
<rect x="627" y="137" clip-path="url(#clipPath1)" width="5" shape-rendering="auto" height="5" stroke="none"/>
<line clip-path="url(#clipPath1)" fill="none" x1="629" x2="629" y1="139" y2="446"/>
<rect x="627" y="444" clip-path="url(#clipPath1)" width="5" shape-rendering="auto" height="5" stroke="none"/>
<line clip-path="url(#clipPath1)" fill="none" x1="629" x2="649" y1="446" y2="139" shape-rendering="auto"/>
<rect x="647" y="137" clip-path="url(#clipPath1)" width="5" shape-rendering="auto" height="5" stroke="none"/>
<line clip-path="url(#clipPath1)" fill="none" x1="649" x2="649" y1="139" y2="446"/>
<rect x="647" y="444" clip-path="url(#clipPath1)" width="5" shape-rendering="auto" height="5" stroke="none"/>
<line clip-path="url(#clipPath1)" fill="none" x1="649" x2="673" y1="446" y2="139" shape-rendering="auto"/>
<rect x="671" y="137" clip-path="url(#clipPath1)" width="5" shape-rendering="auto" height="5" stroke="none"/>
<line clip-path="url(#clipPath1)" fill="none" x1="673" x2="673" y1="139" y2="446"/>
<rect x="671" y="444" clip-path="url(#clipPath1)" width="5" shape-rendering="auto" height="5" stroke="none"/>
<circle clip-path="url(#clipPath1)" fill="rgb(238,0,0)" shape-rendering="auto" r="2" cx="72" cy="139" stroke="none"/>
<line clip-path="url(#clipPath1)" fill="none" x1="72" x2="72" y1="139" y2="446" stroke="rgb(238,0,0)"/>
<circle clip-path="url(#clipPath1)" fill="rgb(238,0,0)" shape-rendering="auto" r="2" cx="72" cy="446" stroke="none"/>
<line clip-path="url(#clipPath1)" fill="none" x1="72" x2="97" y1="446" y2="139" shape-rendering="auto" stroke="rgb(238,0,0)"/>
<circle clip-path="url(#clipPath1)" fill="rgb(238,0,0)" shape-rendering="auto" r="2" cx="97" cy="139" stroke="none"/>
<line clip-path="url(#clipPath1)" fill="none" x1="97" x2="97" y1="139" y2="446" stroke="rgb(238,0,0)"/>
<circle clip-path="url(#clipPath1)" fill="rgb(238,0,0)" shape-rendering="auto" r="2" cx="97" cy="446" stroke="none"/>
<line clip-path="url(#clipPath1)" fill="none" x1="97" x2="116" y1="446" y2="139" shape-rendering="auto" stroke="rgb(238,0,0)"/>
<circle clip-path="url(#clipPath1)" fill="rgb(238,0,0)" shape-rendering="auto" r="2" cx="116" cy="139" stroke="none"/>
<line clip-path="url(#clipPath1)" fill="none" x1="116" x2="116" y1="139" y2="446" stroke="rgb(238,0,0)"/>
<circle clip-path="url(#clipPath1)" fill="rgb(238,0,0)" shape-rendering="auto" r="2" cx="116" cy="446" stroke="none"/>
<line clip-path="url(#clipPath1)" fill="none" x1="116" x2="129" y1="446" y2="139" shape-rendering="auto" stroke="rgb(238,0,0)"/>
<circle clip-path="url(#clipPath1)" fill="rgb(238,0,0)" shape-rendering="auto" r="2" cx="129" cy="139" stroke="none"/>
<line clip-path="url(#clipPath1)" fill="none" x1="129" x2="129" y1="139" y2="446" stroke="rgb(238,0,0)"/>
<circle clip-path="url(#clipPath1)" fill="rgb(238,0,0)" shape-rendering="auto" r="2" cx="129" cy="446" stroke="none"/>
<line clip-path="url(#clipPath1)" fill="none" x1="129" x2="147" y1="446" y2="139" shape-rendering="auto" stroke="rgb(238,0,0)"/>
<circle clip-path="url(#clipPath1)" fill="rgb(238,0,0)" shape-rendering="auto" r="2" cx="147" cy="139" stroke="none"/>
<line clip-path="url(#clipPath1)" fill="none" x1="147" x2="147" y1="139" y2="446" stroke="rgb(238,0,0)"/>
<circle clip-path="url(#clipPath1)" fill="rgb(238,0,0)" shape-rendering="auto" r="2" cx="147" cy="446" stroke="none"/>
<line clip-path="url(#clipPath1)" fill="none" x1="147" x2="165" y1="446" y2="139" shape-rendering="auto" stroke="rgb(238,0,0)"/>
<circle clip-path="url(#clipPath1)" fill="rgb(238,0,0)" shape-rendering="auto" r="2" cx="165" cy="139" stroke="none"/>
<line clip-path="url(#clipPath1)" fill="none" x1="165" x2="165" y1="139" y2="446" stroke="rgb(238,0,0)"/>
<circle clip-path="url(#clipPath1)" fill="rgb(238,0,0)" shape-rendering="auto" r="2" cx="165" cy="446" stroke="none"/>
<line clip-path="url(#clipPath1)" fill="none" x1="165" x2="186" y1="446" y2="139" shape-rendering="auto" stroke="rgb(238,0,0)"/>
<circle clip-path="url(#clipPath1)" fill="rgb(238,0,0)" shape-rendering="auto" r="2" cx="186" cy="139" stroke="none"/>
<line clip-path="url(#clipPath1)" fill="none" x1="186" x2="186" y1="139" y2="446" stroke="rgb(238,0,0)"/>
<circle clip-path="url(#clipPath1)" fill="rgb(238,0,0)" shape-rendering="auto" r="2" cx="186" cy="446" stroke="none"/>
<line clip-path="url(#clipPath1)" fill="none" x1="186" x2="204" y1="446" y2="139" shape-rendering="auto" stroke="rgb(238,0,0)"/>
<circle clip-path="url(#clipPath1)" fill="rgb(238,0,0)" shape-rendering="auto" r="2" cx="204" cy="139" stroke="none"/>
<line clip-path="url(#clipPath1)" fill="none" x1="204" x2="204" y1="139" y2="446" stroke="rgb(238,0,0)"/>
<circle clip-path="url(#clipPath1)" fill="rgb(238,0,0)" shape-rendering="auto" r="2" cx="204" cy="446" stroke="none"/>
<line clip-path="url(#clipPath1)" fill="none" x1="204" x2="219" y1="446" y2="139" shape-rendering="auto" stroke="rgb(238,0,0)"/>
<circle clip-path="url(#clipPath1)" fill="rgb(238,0,0)" shape-rendering="auto" r="2" cx="219" cy="139" stroke="none"/>
<line clip-path="url(#clipPath1)" fill="none" x1="219" x2="219" y1="139" y2="446" stroke="rgb(238,0,0)"/>
<circle clip-path="url(#clipPath1)" fill="rgb(238,0,0)" shape-rendering="auto" r="2" cx="219" cy="446" stroke="none"/>
<line clip-path="url(#clipPath1)" fill="none" x1="219" x2="239" y1="446" y2="139" shape-rendering="auto" stroke="rgb(238,0,0)"/>
<circle clip-path="url(#clipPath1)" fill="rgb(238,0,0)" shape-rendering="auto" r="2" cx="239" cy="139" stroke="none"/>
<line clip-path="url(#clipPath1)" fill="none" x1="239" x2="239" y1="139" y2="446" stroke="rgb(238,0,0)"/>
<circle clip-path="url(#clipPath1)" fill="rgb(238,0,0)" shape-rendering="auto" r="2" cx="239" cy="446" stroke="none"/>
<line clip-path="url(#clipPath1)" fill="none" x1="239" x2="254" y1="446" y2="139" shape-rendering="auto" stroke="rgb(238,0,0)"/>
<circle clip-path="url(#clipPath1)" fill="rgb(238,0,0)" shape-rendering="auto" r="2" cx="254" cy="139" stroke="none"/>
<line clip-path="url(#clipPath1)" fill="none" x1="254" x2="254" y1="139" y2="446" stroke="rgb(238,0,0)"/>
<circle clip-path="url(#clipPath1)" fill="rgb(238,0,0)" shape-rendering="auto" r="2" cx="254" cy="446" stroke="none"/>
<line clip-path="url(#clipPath1)" fill="none" x1="254" x2="279" y1="446" y2="139" shape-rendering="auto" stroke="rgb(238,0,0)"/>
<circle clip-path="url(#clipPath1)" fill="rgb(238,0,0)" shape-rendering="auto" r="2" cx="279" cy="139" stroke="none"/>
<line clip-path="url(#clipPath1)" fill="none" x1="279" x2="279" y1="139" y2="446" stroke="rgb(238,0,0)"/>
<circle clip-path="url(#clipPath1)" fill="rgb(238,0,0)" shape-rendering="auto" r="2" cx="279" cy="446" stroke="none"/>
<line clip-path="url(#clipPath1)" fill="none" x1="279" x2="298" y1="446" y2="139" shape-rendering="auto" stroke="rgb(238,0,0)"/>
<circle clip-path="url(#clipPath1)" fill="rgb(238,0,0)" shape-rendering="auto" r="2" cx="298" cy="139" stroke="none"/>
<line clip-path="url(#clipPath1)" fill="none" x1="298" x2="298" y1="139" y2="446" stroke="rgb(238,0,0)"/>
<circle clip-path="url(#clipPath1)" fill="rgb(238,0,0)" shape-rendering="auto" r="2" cx="298" cy="446" stroke="none"/>
<line clip-path="url(#clipPath1)" fill="none" x1="298" x2="312" y1="446" y2="139" shape-rendering="auto" stroke="rgb(238,0,0)"/>
<circle clip-path="url(#clipPath1)" fill="rgb(238,0,0)" shape-rendering="auto" r="2" cx="312" cy="139" stroke="none"/>
<line clip-path="url(#clipPath1)" fill="none" x1="312" x2="312" y1="139" y2="446" stroke="rgb(238,0,0)"/>
<circle clip-path="url(#clipPath1)" fill="rgb(238,0,0)" shape-rendering="auto" r="2" cx="312" cy="446" stroke="none"/>
<line clip-path="url(#clipPath1)" fill="none" x1="312" x2="330" y1="446" y2="139" shape-rendering="auto" stroke="rgb(238,0,0)"/>
<circle clip-path="url(#clipPath1)" fill="rgb(238,0,0)" shape-rendering="auto" r="2" cx="330" cy="139" stroke="none"/>
<line clip-path="url(#clipPath1)" fill="none" x1="330" x2="330" y1="139" y2="446" stroke="rgb(238,0,0)"/>
<circle clip-path="url(#clipPath1)" fill="rgb(238,0,0)" shape-rendering="auto" r="2" cx="330" cy="446" stroke="none"/>
<line clip-path="url(#clipPath1)" fill="none" x1="330" x2="345" y1="446" y2="139" shape-rendering="auto" stroke="rgb(238,0,0)"/>
<circle clip-path="url(#clipPath1)" fill="rgb(238,0,0)" shape-rendering="auto" r="2" cx="345" cy="139" stroke="none"/>
<line clip-path="url(#clipPath1)" fill="none" x1="345" x2="345" y1="139" y2="446" stroke="rgb(238,0,0)"/>
<circle clip-path="url(#clipPath1)" fill="rgb(238,0,0)" shape-rendering="auto" r="2" cx="345" cy="446" stroke="none"/>
<line clip-path="url(#clipPath1)" fill="none" x1="345" x2="366" y1="446" y2="139" shape-rendering="auto" stroke="rgb(238,0,0)"/>
<circle clip-path="url(#clipPath1)" fill="rgb(238,0,0)" shape-rendering="auto" r="2" cx="366" cy="139" stroke="none"/>
<line clip-path="url(#clipPath1)" fill="none" x1="366" x2="366" y1="139" y2="446" stroke="rgb(238,0,0)"/>
<circle clip-path="url(#clipPath1)" fill="rgb(238,0,0)" shape-rendering="auto" r="2" cx="366" cy="446" stroke="none"/>
<line clip-path="url(#clipPath1)" fill="none" x1="366" x2="382" y1="446" y2="139" shape-rendering="auto" stroke="rgb(238,0,0)"/>
<circle clip-path="url(#clipPath1)" fill="rgb(238,0,0)" shape-rendering="auto" r="2" cx="382" cy="139" stroke="none"/>
<line clip-path="url(#clipPath1)" fill="none" x1="382" x2="382" y1="139" y2="446" stroke="rgb(238,0,0)"/>
<circle clip-path="url(#clipPath1)" fill="rgb(238,0,0)" shape-rendering="auto" r="2" cx="382" cy="446" stroke="none"/>
<line clip-path="url(#clipPath1)" fill="none" x1="382" x2="406" y1="446" y2="139" shape-rendering="auto" stroke="rgb(238,0,0)"/>
<circle clip-path="url(#clipPath1)" fill="rgb(238,0,0)" shape-rendering="auto" r="2" cx="406" cy="139" stroke="none"/>
<line clip-path="url(#clipPath1)" fill="none" x1="406" x2="406" y1="139" y2="446" stroke="rgb(238,0,0)"/>
<circle clip-path="url(#clipPath1)" fill="rgb(238,0,0)" shape-rendering="auto" r="2" cx="406" cy="446" stroke="none"/>
<line clip-path="url(#clipPath1)" fill="none" x1="406" x2="430" y1="446" y2="139" shape-rendering="auto" stroke="rgb(238,0,0)"/>
<circle clip-path="url(#clipPath1)" fill="rgb(238,0,0)" shape-rendering="auto" r="2" cx="430" cy="139" stroke="none"/>
<line clip-path="url(#clipPath1)" fill="none" x1="430" x2="430" y1="139" y2="446" stroke="rgb(238,0,0)"/>
<circle clip-path="url(#clipPath1)" fill="rgb(238,0,0)" shape-rendering="auto" r="2" cx="430" cy="446" stroke="none"/>
<line clip-path="url(#clipPath1)" fill="none" x1="430" x2="454" y1="446" y2="139" shape-rendering="auto" stroke="rgb(238,0,0)"/>
<circle clip-path="url(#clipPath1)" fill="rgb(238,0,0)" shape-rendering="auto" r="2" cx="454" cy="139" stroke="none"/>
<line clip-path="url(#clipPath1)" fill="none" x1="454" x2="454" y1="139" y2="446" stroke="rgb(238,0,0)"/>
<circle clip-path="url(#clipPath1)" fill="rgb(238,0,0)" shape-rendering="auto" r="2" cx="454" cy="446" stroke="none"/>
<line clip-path="url(#clipPath1)" fill="none" x1="454" x2="469" y1="446" y2="139" shape-rendering="auto" stroke="rgb(238,0,0)"/>
<circle clip-path="url(#clipPath1)" fill="rgb(238,0,0)" shape-rendering="auto" r="2" cx="469" cy="139" stroke="none"/>
<line clip-path="url(#clipPath1)" fill="none" x1="469" x2="469" y1="139" y2="446" stroke="rgb(238,0,0)"/>
<circle clip-path="url(#clipPath1)" fill="rgb(238,0,0)" shape-rendering="auto" r="2" cx="469" cy="446" stroke="none"/>
<line clip-path="url(#clipPath1)" fill="none" x1="469" x2="487" y1="446" y2="139" shape-rendering="auto" stroke="rgb(238,0,0)"/>
<circle clip-path="url(#clipPath1)" fill="rgb(238,0,0)" shape-rendering="auto" r="2" cx="487" cy="139" stroke="none"/>
<line clip-path="url(#clipPath1)" fill="none" x1="487" x2="487" y1="139" y2="446" stroke="rgb(238,0,0)"/>
<circle clip-path="url(#clipPath1)" fill="rgb(238,0,0)" shape-rendering="auto" r="2" cx="487" cy="446" stroke="none"/>
<line clip-path="url(#clipPath1)" fill="none" x1="487" x2="507" y1="446" y2="139" shape-rendering="auto" stroke="rgb(238,0,0)"/>
<circle clip-path="url(#clipPath1)" fill="rgb(238,0,0)" shape-rendering="auto" r="2" cx="507" cy="139" stroke="none"/>
<line clip-path="url(#clipPath1)" fill="none" x1="507" x2="507" y1="139" y2="446" stroke="rgb(238,0,0)"/>
<circle clip-path="url(#clipPath1)" fill="rgb(238,0,0)" shape-rendering="auto" r="2" cx="507" cy="446" stroke="none"/>
<line clip-path="url(#clipPath1)" fill="none" x1="507" x2="527" y1="446" y2="139" shape-rendering="auto" stroke="rgb(238,0,0)"/>
<circle clip-path="url(#clipPath1)" fill="rgb(238,0,0)" shape-rendering="auto" r="2" cx="527" cy="139" stroke="none"/>
<line clip-path="url(#clipPath1)" fill="none" x1="527" x2="527" y1="139" y2="446" stroke="rgb(238,0,0)"/>
<circle clip-path="url(#clipPath1)" fill="rgb(238,0,0)" shape-rendering="auto" r="2" cx="527" cy="446" stroke="none"/>
<line clip-path="url(#clipPath1)" fill="none" x1="527" x2="549" y1="446" y2="139" shape-rendering="auto" stroke="rgb(238,0,0)"/>
<circle clip-path="url(#clipPath1)" fill="rgb(238,0,0)" shape-rendering="auto" r="2" cx="549" cy="139" stroke="none"/>
<line clip-path="url(#clipPath1)" fill="none" x1="549" x2="549" y1="139" y2="446" stroke="rgb(238,0,0)"/>
<circle clip-path="url(#clipPath1)" fill="rgb(238,0,0)" shape-rendering="auto" r="2" cx="549" cy="446" stroke="none"/>
<line clip-path="url(#clipPath1)" fill="none" x1="549" x2="563" y1="446" y2="139" shape-rendering="auto" stroke="rgb(238,0,0)"/>
<circle clip-path="url(#clipPath1)" fill="rgb(238,0,0)" shape-rendering="auto" r="2" cx="563" cy="139" stroke="none"/>
<line clip-path="url(#clipPath1)" fill="none" x1="563" x2="563" y1="139" y2="446" stroke="rgb(238,0,0)"/>
<circle clip-path="url(#clipPath1)" fill="rgb(238,0,0)" shape-rendering="auto" r="2" cx="563" cy="446" stroke="none"/>
<line clip-path="url(#clipPath1)" fill="none" x1="563" x2="577" y1="446" y2="139" shape-rendering="auto" stroke="rgb(238,0,0)"/>
<circle clip-path="url(#clipPath1)" fill="rgb(238,0,0)" shape-rendering="auto" r="2" cx="577" cy="139" stroke="none"/>
<line clip-path="url(#clipPath1)" fill="none" x1="577" x2="577" y1="139" y2="446" stroke="rgb(238,0,0)"/>
<circle clip-path="url(#clipPath1)" fill="rgb(238,0,0)" shape-rendering="auto" r="2" cx="577" cy="446" stroke="none"/>
<line clip-path="url(#clipPath1)" fill="none" x1="577" x2="597" y1="446" y2="139" shape-rendering="auto" stroke="rgb(238,0,0)"/>
<circle clip-path="url(#clipPath1)" fill="rgb(238,0,0)" shape-rendering="auto" r="2" cx="597" cy="139" stroke="none"/>
<line clip-path="url(#clipPath1)" fill="none" x1="597" x2="597" y1="139" y2="446" stroke="rgb(238,0,0)"/>
<circle clip-path="url(#clipPath1)" fill="rgb(238,0,0)" shape-rendering="auto" r="2" cx="597" cy="446" stroke="none"/>
<line clip-path="url(#clipPath1)" fill="none" x1="597" x2="614" y1="446" y2="139" shape-rendering="auto" stroke="rgb(238,0,0)"/>
<circle clip-path="url(#clipPath1)" fill="rgb(238,0,0)" shape-rendering="auto" r="2" cx="614" cy="139" stroke="none"/>
<line clip-path="url(#clipPath1)" fill="none" x1="614" x2="614" y1="139" y2="446" stroke="rgb(238,0,0)"/>
<circle clip-path="url(#clipPath1)" fill="rgb(238,0,0)" shape-rendering="auto" r="2" cx="614" cy="446" stroke="none"/>
<line clip-path="url(#clipPath1)" fill="none" x1="614" x2="629" y1="446" y2="139" shape-rendering="auto" stroke="rgb(238,0,0)"/>
<circle clip-path="url(#clipPath1)" fill="rgb(238,0,0)" shape-rendering="auto" r="2" cx="629" cy="139" stroke="none"/>
<line clip-path="url(#clipPath1)" fill="none" x1="629" x2="629" y1="139" y2="446" stroke="rgb(238,0,0)"/>
<circle clip-path="url(#clipPath1)" fill="rgb(238,0,0)" shape-rendering="auto" r="2" cx="629" cy="446" stroke="none"/>
<line clip-path="url(#clipPath1)" fill="none" x1="629" x2="649" y1="446" y2="139" shape-rendering="auto" stroke="rgb(238,0,0)"/>
<circle clip-path="url(#clipPath1)" fill="rgb(238,0,0)" shape-rendering="auto" r="2" cx="649" cy="139" stroke="none"/>
<line clip-path="url(#clipPath1)" fill="none" x1="649" x2="649" y1="139" y2="446" stroke="rgb(238,0,0)"/>
<circle clip-path="url(#clipPath1)" fill="rgb(238,0,0)" shape-rendering="auto" r="2" cx="649" cy="446" stroke="none"/>
<line clip-path="url(#clipPath1)" fill="none" x1="649" x2="673" y1="446" y2="139" shape-rendering="auto" stroke="rgb(238,0,0)"/>
<circle clip-path="url(#clipPath1)" fill="rgb(238,0,0)" shape-rendering="auto" r="2" cx="673" cy="139" stroke="none"/>
<line clip-path="url(#clipPath1)" fill="none" x1="673" x2="673" y1="139" y2="446" stroke="rgb(238,0,0)"/>
<circle clip-path="url(#clipPath1)" fill="rgb(238,0,0)" shape-rendering="auto" r="2" cx="673" cy="446" stroke="none"/>
<rect x="32" y="38" clip-path="url(#clipPath2)" fill="none" width="650" shape-rendering="auto" height="408" stroke="black"/>
</g>
<g text-rendering="geometricPrecision" font-size="13" stroke-linecap="butt">
<text xml:space="preserve" x="241" y="13" clip-path="url(#clipPath2)" stroke="none">SubstationHSR.MU1.endNodeSwitch</text>
<rect x="113" y="474" clip-path="url(#clipPath3)" fill="white" width="487" height="23" stroke="none"/>
<line clip-path="url(#clipPath3)" fill="none" x1="119" x2="133" y1="485" y2="485" stroke="rgb(0,0,139)"/>
<rect x="123" y="482" clip-path="url(#clipPath3)" fill="rgb(0,0,139)" width="7" height="7" stroke="none"/>
<text x="135" font-size="11" y="490" clip-path="url(#clipPath3)" stroke="none" xml:space="preserve">A: QueueSize EXPRESS (from Internal)</text>
<line clip-path="url(#clipPath3)" fill="none" x1="362" x2="376" y1="485" y2="485" stroke="rgb(238,0,0)"/>
<circle clip-path="url(#clipPath3)" fill="rgb(238,0,0)" r="3" cx="369" cy="485" stroke="none"/>
<text x="378" font-size="11" y="490" clip-path="url(#clipPath3)" stroke="none" xml:space="preserve">B: QueueSize EXPRESS (from Internal)</text>
<line clip-path="url(#clipPath2)" fill="none" x1="32" x2="682" y1="36" y2="36"/>
<line clip-path="url(#clipPath2)" fill="none" x1="32" x2="682" y1="448" y2="448"/>
<line clip-path="url(#clipPath2)" fill="none" x1="32" x2="32" y1="32" y2="36"/>
<line clip-path="url(#clipPath2)" fill="none" x1="32" x2="32" y1="452" y2="448"/>
<text x="24" font-size="11" y="29" clip-path="url(#clipPath2)" stroke="none" xml:space="preserve">0.0</text>
<text x="24" font-size="11" y="464" clip-path="url(#clipPath2)" stroke="none" xml:space="preserve">0.0</text>
<line clip-path="url(#clipPath2)" fill="none" x1="44" x2="44" y1="34" y2="36"/>
<line clip-path="url(#clipPath2)" fill="none" x1="44" x2="44" y1="450" y2="448"/>
<line clip-path="url(#clipPath2)" fill="none" x1="57" x2="57" y1="34" y2="36"/>
<line clip-path="url(#clipPath2)" fill="none" x1="57" x2="57" y1="450" y2="448"/>
<line clip-path="url(#clipPath2)" fill="none" x1="70" x2="70" y1="34" y2="36"/>
<line clip-path="url(#clipPath2)" fill="none" x1="70" x2="70" y1="450" y2="448"/>
<line clip-path="url(#clipPath2)" fill="none" x1="83" x2="83" y1="34" y2="36"/>
<line clip-path="url(#clipPath2)" fill="none" x1="83" x2="83" y1="450" y2="448"/>
<line clip-path="url(#clipPath2)" fill="none" x1="96" x2="96" y1="32" y2="36"/>
<line clip-path="url(#clipPath2)" fill="none" x1="96" x2="96" y1="452" y2="448"/>
<text x="85" font-size="11" y="29" clip-path="url(#clipPath2)" stroke="none" xml:space="preserve">0.05</text>
<text x="85" font-size="11" y="464" clip-path="url(#clipPath2)" stroke="none" xml:space="preserve">0.05</text>
<line clip-path="url(#clipPath2)" fill="none" x1="109" x2="109" y1="34" y2="36"/>
<line clip-path="url(#clipPath2)" fill="none" x1="109" x2="109" y1="450" y2="448"/>
<line clip-path="url(#clipPath2)" fill="none" x1="122" x2="122" y1="34" y2="36"/>
<line clip-path="url(#clipPath2)" fill="none" x1="122" x2="122" y1="450" y2="448"/>
<line clip-path="url(#clipPath2)" fill="none" x1="135" x2="135" y1="34" y2="36"/>
<line clip-path="url(#clipPath2)" fill="none" x1="135" x2="135" y1="450" y2="448"/>
<line clip-path="url(#clipPath2)" fill="none" x1="148" x2="148" y1="34" y2="36"/>
<line clip-path="url(#clipPath2)" fill="none" x1="148" x2="148" y1="450" y2="448"/>
<line clip-path="url(#clipPath2)" fill="none" x1="161" x2="161" y1="32" y2="36"/>
<line clip-path="url(#clipPath2)" fill="none" x1="161" x2="161" y1="452" y2="448"/>
<text x="150" font-size="11" y="29" clip-path="url(#clipPath2)" stroke="none" xml:space="preserve">0.10</text>
<text x="150" font-size="11" y="464" clip-path="url(#clipPath2)" stroke="none" xml:space="preserve">0.10</text>
<line clip-path="url(#clipPath2)" fill="none" x1="174" x2="174" y1="34" y2="36"/>
<line clip-path="url(#clipPath2)" fill="none" x1="174" x2="174" y1="450" y2="448"/>
<line clip-path="url(#clipPath2)" fill="none" x1="187" x2="187" y1="34" y2="36"/>
<line clip-path="url(#clipPath2)" fill="none" x1="187" x2="187" y1="450" y2="448"/>
<line clip-path="url(#clipPath2)" fill="none" x1="200" x2="200" y1="34" y2="36"/>
<line clip-path="url(#clipPath2)" fill="none" x1="200" x2="200" y1="450" y2="448"/>
<line clip-path="url(#clipPath2)" fill="none" x1="213" x2="213" y1="34" y2="36"/>
<line clip-path="url(#clipPath2)" fill="none" x1="213" x2="213" y1="450" y2="448"/>
<line clip-path="url(#clipPath2)" fill="none" x1="226" x2="226" y1="32" y2="36"/>
<line clip-path="url(#clipPath2)" fill="none" x1="226" x2="226" y1="452" y2="448"/>
<text x="215" font-size="11" y="29" clip-path="url(#clipPath2)" stroke="none" xml:space="preserve">0.15</text>
<text x="215" font-size="11" y="464" clip-path="url(#clipPath2)" stroke="none" xml:space="preserve">0.15</text>
<line clip-path="url(#clipPath2)" fill="none" x1="239" x2="239" y1="34" y2="36"/>
<line clip-path="url(#clipPath2)" fill="none" x1="239" x2="239" y1="450" y2="448"/>
<line clip-path="url(#clipPath2)" fill="none" x1="252" x2="252" y1="34" y2="36"/>
<line clip-path="url(#clipPath2)" fill="none" x1="252" x2="252" y1="450" y2="448"/>
<line clip-path="url(#clipPath2)" fill="none" x1="265" x2="265" y1="34" y2="36"/>
<line clip-path="url(#clipPath2)" fill="none" x1="265" x2="265" y1="450" y2="448"/>
<line clip-path="url(#clipPath2)" fill="none" x1="277" x2="277" y1="34" y2="36"/>
<line clip-path="url(#clipPath2)" fill="none" x1="277" x2="277" y1="450" y2="448"/>
<line clip-path="url(#clipPath2)" fill="none" x1="290" x2="290" y1="32" y2="36"/>
<line clip-path="url(#clipPath2)" fill="none" x1="290" x2="290" y1="452" y2="448"/>
<text x="279" font-size="11" y="29" clip-path="url(#clipPath2)" stroke="none" xml:space="preserve">0.20</text>
<text x="279" font-size="11" y="464" clip-path="url(#clipPath2)" stroke="none" xml:space="preserve">0.20</text>
<line clip-path="url(#clipPath2)" fill="none" x1="303" x2="303" y1="34" y2="36"/>
<line clip-path="url(#clipPath2)" fill="none" x1="303" x2="303" y1="450" y2="448"/>
<line clip-path="url(#clipPath2)" fill="none" x1="316" x2="316" y1="34" y2="36"/>
<line clip-path="url(#clipPath2)" fill="none" x1="316" x2="316" y1="450" y2="448"/>
<line clip-path="url(#clipPath2)" fill="none" x1="329" x2="329" y1="34" y2="36"/>
<line clip-path="url(#clipPath2)" fill="none" x1="329" x2="329" y1="450" y2="448"/>
<line clip-path="url(#clipPath2)" fill="none" x1="342" x2="342" y1="34" y2="36"/>
<line clip-path="url(#clipPath2)" fill="none" x1="342" x2="342" y1="450" y2="448"/>
<line clip-path="url(#clipPath2)" fill="none" x1="355" x2="355" y1="32" y2="36"/>
<line clip-path="url(#clipPath2)" fill="none" x1="355" x2="355" y1="452" y2="448"/>
<text x="344" font-size="11" y="29" clip-path="url(#clipPath2)" stroke="none" xml:space="preserve">0.25</text>
<text x="344" font-size="11" y="464" clip-path="url(#clipPath2)" stroke="none" xml:space="preserve">0.25</text>
<line clip-path="url(#clipPath2)" fill="none" x1="368" x2="368" y1="34" y2="36"/>
<line clip-path="url(#clipPath2)" fill="none" x1="368" x2="368" y1="450" y2="448"/>
<line clip-path="url(#clipPath2)" fill="none" x1="381" x2="381" y1="34" y2="36"/>
<line clip-path="url(#clipPath2)" fill="none" x1="381" x2="381" y1="450" y2="448"/>
<line clip-path="url(#clipPath2)" fill="none" x1="394" x2="394" y1="34" y2="36"/>
<line clip-path="url(#clipPath2)" fill="none" x1="394" x2="394" y1="450" y2="448"/>
<line clip-path="url(#clipPath2)" fill="none" x1="407" x2="407" y1="34" y2="36"/>
<line clip-path="url(#clipPath2)" fill="none" x1="407" x2="407" y1="450" y2="448"/>
<line clip-path="url(#clipPath2)" fill="none" x1="420" x2="420" y1="32" y2="36"/>
<line clip-path="url(#clipPath2)" fill="none" x1="420" x2="420" y1="452" y2="448"/>
<text x="409" font-size="11" y="29" clip-path="url(#clipPath2)" stroke="none" xml:space="preserve">0.30</text>
<text x="409" font-size="11" y="464" clip-path="url(#clipPath2)" stroke="none" xml:space="preserve">0.30</text>
<line clip-path="url(#clipPath2)" fill="none" x1="433" x2="433" y1="34" y2="36"/>
<line clip-path="url(#clipPath2)" fill="none" x1="433" x2="433" y1="450" y2="448"/>
<line clip-path="url(#clipPath2)" fill="none" x1="446" x2="446" y1="34" y2="36"/>
<line clip-path="url(#clipPath2)" fill="none" x1="446" x2="446" y1="450" y2="448"/>
<line clip-path="url(#clipPath2)" fill="none" x1="459" x2="459" y1="34" y2="36"/>
<line clip-path="url(#clipPath2)" fill="none" x1="459" x2="459" y1="450" y2="448"/>
<line clip-path="url(#clipPath2)" fill="none" x1="472" x2="472" y1="34" y2="36"/>
<line clip-path="url(#clipPath2)" fill="none" x1="472" x2="472" y1="450" y2="448"/>
<line clip-path="url(#clipPath2)" fill="none" x1="485" x2="485" y1="32" y2="36"/>
<line clip-path="url(#clipPath2)" fill="none" x1="485" x2="485" y1="452" y2="448"/>
<text x="474" font-size="11" y="29" clip-path="url(#clipPath2)" stroke="none" xml:space="preserve">0.35</text>
<text x="474" font-size="11" y="464" clip-path="url(#clipPath2)" stroke="none" xml:space="preserve">0.35</text>
<line clip-path="url(#clipPath2)" fill="none" x1="498" x2="498" y1="34" y2="36"/>
<line clip-path="url(#clipPath2)" fill="none" x1="498" x2="498" y1="450" y2="448"/>
<line clip-path="url(#clipPath2)" fill="none" x1="510" x2="510" y1="34" y2="36"/>
<line clip-path="url(#clipPath2)" fill="none" x1="510" x2="510" y1="450" y2="448"/>
<line clip-path="url(#clipPath2)" fill="none" x1="523" x2="523" y1="34" y2="36"/>
<line clip-path="url(#clipPath2)" fill="none" x1="523" x2="523" y1="450" y2="448"/>
<line clip-path="url(#clipPath2)" fill="none" x1="536" x2="536" y1="34" y2="36"/>
<line clip-path="url(#clipPath2)" fill="none" x1="536" x2="536" y1="450" y2="448"/>
<line clip-path="url(#clipPath2)" fill="none" x1="549" x2="549" y1="32" y2="36"/>
<line clip-path="url(#clipPath2)" fill="none" x1="549" x2="549" y1="452" y2="448"/>
<text x="538" font-size="11" y="29" clip-path="url(#clipPath2)" stroke="none" xml:space="preserve">0.40</text>
<text x="538" font-size="11" y="464" clip-path="url(#clipPath2)" stroke="none" xml:space="preserve">0.40</text>
<line clip-path="url(#clipPath2)" fill="none" x1="562" x2="562" y1="34" y2="36"/>
<line clip-path="url(#clipPath2)" fill="none" x1="562" x2="562" y1="450" y2="448"/>
<line clip-path="url(#clipPath2)" fill="none" x1="575" x2="575" y1="34" y2="36"/>
<line clip-path="url(#clipPath2)" fill="none" x1="575" x2="575" y1="450" y2="448"/>
<line clip-path="url(#clipPath2)" fill="none" x1="588" x2="588" y1="34" y2="36"/>
<line clip-path="url(#clipPath2)" fill="none" x1="588" x2="588" y1="450" y2="448"/>
<line clip-path="url(#clipPath2)" fill="none" x1="601" x2="601" y1="34" y2="36"/>
<line clip-path="url(#clipPath2)" fill="none" x1="601" x2="601" y1="450" y2="448"/>
<line clip-path="url(#clipPath2)" fill="none" x1="614" x2="614" y1="32" y2="36"/>
<line clip-path="url(#clipPath2)" fill="none" x1="614" x2="614" y1="452" y2="448"/>
<text x="603" font-size="11" y="29" clip-path="url(#clipPath2)" stroke="none" xml:space="preserve">0.45</text>
<text x="603" font-size="11" y="464" clip-path="url(#clipPath2)" stroke="none" xml:space="preserve">0.45</text>
<line clip-path="url(#clipPath2)" fill="none" x1="627" x2="627" y1="34" y2="36"/>
<line clip-path="url(#clipPath2)" fill="none" x1="627" x2="627" y1="450" y2="448"/>
<line clip-path="url(#clipPath2)" fill="none" x1="640" x2="640" y1="34" y2="36"/>
<line clip-path="url(#clipPath2)" fill="none" x1="640" x2="640" y1="450" y2="448"/>
<line clip-path="url(#clipPath2)" fill="none" x1="653" x2="653" y1="34" y2="36"/>
<line clip-path="url(#clipPath2)" fill="none" x1="653" x2="653" y1="450" y2="448"/>
<line clip-path="url(#clipPath2)" fill="none" x1="666" x2="666" y1="34" y2="36"/>
<line clip-path="url(#clipPath2)" fill="none" x1="666" x2="666" y1="450" y2="448"/>
<line clip-path="url(#clipPath2)" fill="none" x1="679" x2="679" y1="32" y2="36"/>
<line clip-path="url(#clipPath2)" fill="none" x1="679" x2="679" y1="452" y2="448"/>
<text x="668" font-size="11" y="29" clip-path="url(#clipPath2)" stroke="none" xml:space="preserve">0.50</text>
<text x="668" font-size="11" y="464" clip-path="url(#clipPath2)" stroke="none" xml:space="preserve">0.50</text>
<line clip-path="url(#clipPath2)" fill="none" x1="30" x2="30" y1="38" y2="446"/>
<line clip-path="url(#clipPath2)" fill="none" x1="684" x2="684" y1="38" y2="446"/>
<line clip-path="url(#clipPath2)" fill="none" x1="26" x2="30" y1="446" y2="446"/>
<line clip-path="url(#clipPath2)" fill="none" x1="688" x2="684" y1="446" y2="446"/>
<text x="19" font-size="11" y="451" clip-path="url(#clipPath2)" stroke="none" xml:space="preserve">0</text>
<text x="691" font-size="11" y="451" clip-path="url(#clipPath2)" stroke="none" xml:space="preserve">0</text>
<line clip-path="url(#clipPath2)" fill="none" x1="28" x2="30" y1="415" y2="415"/>
<line clip-path="url(#clipPath2)" fill="none" x1="686" x2="684" y1="415" y2="415"/>
<line clip-path="url(#clipPath2)" fill="none" x1="26" x2="30" y1="384" y2="384"/>
<line clip-path="url(#clipPath2)" fill="none" x1="688" x2="684" y1="384" y2="384"/>
<text x="7" font-size="11" y="389" clip-path="url(#clipPath2)" stroke="none" xml:space="preserve">0.2</text>
<text x="691" font-size="11" y="389" clip-path="url(#clipPath2)" stroke="none" xml:space="preserve">0.2</text>
<line clip-path="url(#clipPath2)" fill="none" x1="28" x2="30" y1="354" y2="354"/>
<line clip-path="url(#clipPath2)" fill="none" x1="686" x2="684" y1="354" y2="354"/>
<line clip-path="url(#clipPath2)" fill="none" x1="26" x2="30" y1="323" y2="323"/>
<line clip-path="url(#clipPath2)" fill="none" x1="688" x2="684" y1="323" y2="323"/>
<text x="7" font-size="11" y="328" clip-path="url(#clipPath2)" stroke="none" xml:space="preserve">0.4</text>
<text x="691" font-size="11" y="328" clip-path="url(#clipPath2)" stroke="none" xml:space="preserve">0.4</text>
<line clip-path="url(#clipPath2)" fill="none" x1="28" x2="30" y1="293" y2="293"/>
<line clip-path="url(#clipPath2)" fill="none" x1="686" x2="684" y1="293" y2="293"/>
<line clip-path="url(#clipPath2)" fill="none" x1="26" x2="30" y1="262" y2="262"/>
<line clip-path="url(#clipPath2)" fill="none" x1="688" x2="684" y1="262" y2="262"/>
<text x="7" font-size="11" y="267" clip-path="url(#clipPath2)" stroke="none" xml:space="preserve">0.6</text>
<text x="691" font-size="11" y="267" clip-path="url(#clipPath2)" stroke="none" xml:space="preserve">0.6</text>
<line clip-path="url(#clipPath2)" fill="none" x1="28" x2="30" y1="231" y2="231"/>
<line clip-path="url(#clipPath2)" fill="none" x1="686" x2="684" y1="231" y2="231"/>
<line clip-path="url(#clipPath2)" fill="none" x1="26" x2="30" y1="201" y2="201"/>
<line clip-path="url(#clipPath2)" fill="none" x1="688" x2="684" y1="201" y2="201"/>
<text x="7" font-size="11" y="206" clip-path="url(#clipPath2)" stroke="none" xml:space="preserve">0.8</text>
<text x="691" font-size="11" y="206" clip-path="url(#clipPath2)" stroke="none" xml:space="preserve">0.8</text>
<line clip-path="url(#clipPath2)" fill="none" x1="28" x2="30" y1="170" y2="170"/>
<line clip-path="url(#clipPath2)" fill="none" x1="686" x2="684" y1="170" y2="170"/>
<line clip-path="url(#clipPath2)" fill="none" x1="26" x2="30" y1="139" y2="139"/>
<line clip-path="url(#clipPath2)" fill="none" x1="688" x2="684" y1="139" y2="139"/>
<text x="7" font-size="11" y="144" clip-path="url(#clipPath2)" stroke="none" xml:space="preserve">1.0</text>
<text x="691" font-size="11" y="144" clip-path="url(#clipPath2)" stroke="none" xml:space="preserve">1.0</text>
<line clip-path="url(#clipPath2)" fill="none" x1="28" x2="30" y1="109" y2="109"/>
<line clip-path="url(#clipPath2)" fill="none" x1="686" x2="684" y1="109" y2="109"/>
<line clip-path="url(#clipPath2)" fill="none" x1="26" x2="30" y1="78" y2="78"/>
<line clip-path="url(#clipPath2)" fill="none" x1="688" x2="684" y1="78" y2="78"/>
<text x="7" font-size="11" y="83" clip-path="url(#clipPath2)" stroke="none" xml:space="preserve">1.2</text>
<text x="691" font-size="11" y="83" clip-path="url(#clipPath2)" stroke="none" xml:space="preserve">1.2</text>
<line clip-path="url(#clipPath2)" fill="none" x1="28" x2="30" y1="48" y2="48"/>
<line clip-path="url(#clipPath2)" fill="none" x1="686" x2="684" y1="48" y2="48"/>
</g>
</g>
</svg>
